# Blender 5.1.1
# www.blender.org
mtllib 1hd.mtl
o Plane
v 1.098911 30.539131 -13.434219
v 2.203602 30.539131 -11.765195
v 0.338758 30.539131 -14.713328
v 2.286468 30.539131 -14.630463
v -0.736816 30.539131 -17.128500
v 0.519750 30.539131 -17.091593
v -0.533329 30.539131 -16.239483
v 2.402747 30.539131 -16.156616
v 10.343089 30.539131 -10.331619
v 10.425956 30.539131 -14.242868
v 10.658512 30.539131 -16.658039
v 10.542233 30.539131 -15.769022
v 6.356212 30.539131 -14.436666
v 6.472489 30.539131 -15.962819
v 6.588768 30.539131 -16.851837
v 3.996227 30.539131 -10.670765
v 11.263398 30.539131 -10.897964
v 11.346264 30.539131 -12.862404
v 11.462543 30.539131 -14.388557
v 15.192411 30.539131 -10.402412
v 15.275278 30.539131 -12.366853
v 15.391556 30.539131 -13.893006
v 20.855854 30.539131 -10.402412
v 20.938721 30.539131 -12.366853
v 21.054998 30.539131 -13.893006
v 25.598986 30.539131 -10.402412
v 25.681854 30.539131 -12.366853
v 25.798130 30.539131 -13.893006
v 28.961657 30.539131 -9.977654
v 29.044523 30.539131 -11.942095
v 29.160801 30.539131 -13.468248
v 32.572102 30.539131 -9.659086
v 32.654968 30.539131 -11.623526
v 32.771248 30.539131 -13.149679
v 42.412334 30.539131 -9.659086
v 42.495201 30.539131 -11.623526
v 42.611481 30.539131 -13.149679
v 3.111500 30.539131 -46.236641
v 7.750908 30.539131 -46.088799
v 10.343089 29.965908 -8.474895
v 3.996228 29.965908 -8.814041
v 11.263399 29.965908 -9.041239
v 15.192411 29.965908 -8.545689
v 20.855854 29.965908 -8.545689
v 25.598986 29.965908 -8.545689
v 28.961655 29.965908 -8.120931
v 32.572098 29.965908 -7.802361
v 42.412334 29.965908 -7.802361
v 1.098911 29.962326 -13.434219
v 2.203602 29.962326 -11.765195
v 0.338758 29.962326 -14.713328
v 2.286468 29.962326 -14.630463
v -0.736816 29.962326 -17.128500
v 0.519750 29.962326 -17.091593
v -0.533329 29.962326 -16.239483
v 2.402747 29.962326 -16.156616
v 10.310452 29.972300 -10.433316
v 10.425956 29.962326 -14.242868
v 10.658512 29.962326 -16.658039
v 10.542233 29.962326 -15.769022
v 6.356212 29.962326 -14.436666
v 6.472489 29.962326 -15.962819
v 6.588768 29.962326 -16.851837
v 3.999578 29.965754 -10.733474
v 11.251096 29.966444 -10.965657
v 11.346264 29.962326 -12.862404
v 11.462543 29.962326 -14.388557
v 15.198254 29.969322 -10.491791
v 15.275278 29.962326 -12.366853
v 15.391556 29.962326 -13.893006
v 20.855854 29.968779 -10.488451
v 20.938721 29.962326 -12.366853
v 21.054998 29.962326 -13.893006
v 25.603998 29.968302 -10.485073
v 25.681854 29.962326 -12.366853
v 25.798130 29.962326 -13.893006
v 28.971096 29.969004 -10.064667
v 29.044523 29.962326 -11.942095
v 29.160801 29.962326 -13.468248
v 32.576103 29.969151 -9.747471
v 32.654968 29.962326 -11.623526
v 32.771248 29.962326 -13.149679
v 42.412334 29.968607 -9.743986
v 42.495201 29.962326 -11.623526
v 42.611481 29.962326 -13.149679
v 3.111500 29.962326 -46.236641
v 7.750908 29.962326 -46.088799
v 10.306298 29.415892 -8.644700
v 4.005319 29.414839 -8.984172
v 11.215680 29.416660 -9.210808
v 15.202712 29.414858 -8.715813
v 20.855854 29.414770 -8.715840
v 25.610123 29.414873 -8.715809
v 28.979687 29.415039 -8.290998
v 32.579399 29.414814 -7.972500
v 42.412334 29.414770 -7.972513
vn -0.0000 1.0000 -0.0000
vn 0.1786 0.9401 0.2902
vn -0.0372 0.9548 0.2948
vn -0.0260 0.9552 0.2949
vn -0.0158 0.9554 0.2950
vn -0.0000 0.9555 0.2950
vn -0.0000 -1.0000 -0.0000
vn 0.0005 -1.0000 0.0020
vn 0.0004 -1.0000 0.0007
vn -0.0042 -1.0000 0.0023
vn -0.0000 -1.0000 0.0029
vn -0.0000 -1.0000 0.0036
vn -0.0001 -1.0000 0.0033
vn -0.0003 -1.0000 0.0034
vn -0.0003 -1.0000 0.0036
vn -0.0000 -1.0000 0.0035
vn -0.1778 -0.9388 -0.2951
vn 0.0375 -0.9537 -0.2983
vn 0.0365 -0.9539 -0.2980
vn 0.0263 -0.9542 -0.2981
vn 0.0157 -0.9542 -0.2987
vn -0.0000 -0.9545 -0.2982
vn -0.0000 -0.9545 -0.2983
vn 0.0001 -0.9544 -0.2984
vn -0.8597 -0.0000 0.5109
vn -0.8339 -0.0000 0.5519
vn 0.0294 -0.0000 -0.9996
vn -0.8682 -0.0000 0.4961
vn -0.9748 -0.0000 0.2231
vn 0.9916 -0.0000 0.1297
vn 0.0476 -0.0000 -0.9989
vn -0.5091 -0.0483 0.8594
vn 0.8321 -0.0000 -0.5547
vn 0.1251 -0.0000 -0.9921
vn -0.0000 -0.0000 -1.0000
vn 0.1253 -0.0000 -0.9921
vn 0.0879 -0.0000 -0.9961
vn 0.9991 -0.0032 0.0431
vn 0.9971 -0.0000 0.0760
vn 0.0318 -0.0000 -0.9995
vn -0.9961 -0.0000 -0.0886
vn 0.9992 -0.0000 0.0397
vn -0.0512 -0.2934 0.9546
vn 0.5038 -0.2899 0.8137
vn -0.1189 -0.2892 0.9499
vn -0.0000 -0.2950 0.9555
vn -0.1196 -0.2958 0.9477
vn -0.0841 -0.2957 0.9516
vn -0.9999 -0.0107 -0.0017
vn 1.0000 -0.0000 -0.0000
vt 0.000000 0.000000
vt 1.000000 0.000000
vt 1.000000 1.000000
vt 0.000000 1.000000
vt 0.000000 1.000000
vt 1.000000 1.000000
vt 1.000000 1.000000
s 0
usemtl 
f 1/1/1 2/2/1 4/3/1 3/4/1
f 7/5/1 8/3/1 6/3/1 5/4/1
f 3/4/1 4/3/1 8/3/1 7/5/1
f 14/6/1 13/7/1 10/3/1 12/3/1
f 15/3/1 14/6/1 12/3/1 11/3/1
f 13/7/1 16/2/1 9/2/1 10/3/1
f 4/3/1 2/2/1 16/2/1 13/7/1
f 6/3/1 8/3/1 14/6/1 15/3/1
f 8/3/1 4/3/1 13/7/1 14/6/1
f 12/3/1 10/3/1 18/3/1 19/3/1
f 10/3/1 9/2/1 17/2/1 18/3/1
f 19/3/1 18/3/1 21/3/1 22/3/1
f 18/3/1 17/2/1 20/2/1 21/3/1
f 22/3/1 21/3/1 24/3/1 25/3/1
f 21/3/1 20/2/1 23/2/1 24/3/1
f 25/3/1 24/3/1 27/3/1 28/3/1
f 24/3/1 23/2/1 26/2/1 27/3/1
f 28/3/1 27/3/1 30/3/1 31/3/1
f 27/3/1 26/2/1 29/2/1 30/3/1
f 31/3/1 30/3/1 33/3/1 34/3/1
f 30/3/1 29/2/1 32/2/1 33/3/1
f 34/3/1 33/3/1 36/3/1 37/3/1
f 33/3/1 32/2/1 35/2/1 36/3/1
f 6/3/1 15/3/1 39/3/1 38/3/1
f 17/2/2 9/2/2 40/2/2 42/2/2
f 29/2/3 26/2/3 45/2/3 46/2/3
f 20/2/3 17/2/3 42/2/3 43/2/3
f 32/2/4 29/2/4 46/2/4 47/2/4
f 9/2/5 16/2/5 41/2/5 40/2/5
f 23/2/6 20/2/6 43/2/6 44/2/6
f 35/2/6 32/2/6 47/2/6 48/2/6
f 26/2/6 23/2/6 44/2/6 45/2/6
f 49/1/7 51/4/7 52/3/7 50/2/7
f 55/5/7 53/4/7 54/3/7 56/3/7
f 51/4/7 55/5/7 56/3/7 52/3/7
f 62/6/7 60/3/7 58/3/7 61/7/7
f 63/3/7 59/3/7 60/3/7 62/6/7
f 61/7/8 58/3/8 57/2/8 64/2/8
f 52/3/9 61/7/9 64/2/9 50/2/9
f 54/3/7 63/3/7 62/6/7 56/3/7
f 56/3/7 62/6/7 61/7/7 52/3/7
f 60/3/7 67/3/7 66/3/7 58/3/7
f 58/3/10 66/3/10 65/2/10 57/2/10
f 67/3/7 70/3/7 69/3/7 66/3/7
f 66/3/11 69/3/11 68/2/11 65/2/11
f 70/3/7 73/3/7 72/3/7 69/3/7
f 69/3/12 72/3/12 71/2/12 68/2/12
f 73/3/7 76/3/7 75/3/7 72/3/7
f 72/3/13 75/3/13 74/2/13 71/2/13
f 76/3/7 79/3/7 78/3/7 75/3/7
f 75/3/14 78/3/14 77/2/14 74/2/14
f 79/3/7 82/3/7 81/3/7 78/3/7
f 78/3/15 81/3/15 80/2/15 77/2/15
f 82/3/7 85/3/7 84/3/7 81/3/7
f 81/3/16 84/3/16 83/2/16 80/2/16
f 54/3/7 86/3/7 87/3/7 63/3/7
f 65/2/17 90/2/17 88/2/17 57/2/17
f 77/2/18 94/2/18 93/2/18 74/2/18
f 68/2/19 91/2/19 90/2/19 65/2/19
f 80/2/20 95/2/20 94/2/20 77/2/20
f 57/2/21 88/2/21 89/2/21 64/2/21
f 71/2/22 92/2/22 91/2/22 68/2/22
f 83/2/23 96/2/23 95/2/23 80/2/23
f 74/2/24 93/2/24 92/2/24 71/2/24
f 1/1/25 3/4/25 51/4/25 49/1/25
f 2/2/26 1/1/26 49/1/26 50/2/26
f 5/4/27 6/3/27 54/3/27 53/4/27
f 3/4/28 7/5/28 55/5/28 51/4/28
f 7/5/29 5/4/29 53/4/29 55/5/29
f 11/3/30 12/3/30 60/3/30 59/3/30
f 15/3/31 11/3/31 59/3/31 63/3/31
f 16/2/32 2/2/32 50/2/32 64/2/32
f 12/3/33 19/3/33 67/3/33 60/3/33
f 19/3/34 22/3/34 70/3/34 67/3/34
f 22/3/35 25/3/35 73/3/35 70/3/35
f 25/3/35 28/3/35 76/3/35 73/3/35
f 28/3/36 31/3/36 79/3/36 76/3/36
f 31/3/37 34/3/37 82/3/37 79/3/37
f 36/3/38 35/2/38 83/2/38 84/3/38
f 37/3/39 36/3/39 84/3/39 85/3/39
f 34/3/35 37/3/35 85/3/35 82/3/35
f 38/3/40 39/3/40 87/3/40 86/3/40
f 6/3/41 38/3/41 86/3/41 54/3/41
f 39/3/42 15/3/42 63/3/42 87/3/42
f 40/2/43 41/2/43 89/2/43 88/2/43
f 42/2/44 40/2/44 88/2/44 90/2/44
f 43/2/45 42/2/45 90/2/45 91/2/45
f 44/2/46 43/2/46 91/2/46 92/2/46
f 45/2/46 44/2/46 92/2/46 93/2/46
f 46/2/47 45/2/47 93/2/47 94/2/47
f 47/2/48 46/2/48 94/2/48 95/2/48
f 48/2/46 47/2/46 95/2/46 96/2/46
f 41/2/49 16/2/49 64/2/49 89/2/49
f 35/2/50 48/2/50 96/2/50 83/2/50
o Plane.008
v -28.178236 30.606613 -11.245119
v -19.639015 30.371744 -14.420468
v -28.178236 30.606613 -19.414650
v -15.568541 30.371744 -17.938391
v -21.855055 30.442324 -13.360800
v -14.323378 30.442324 -19.185806
v -28.178236 30.606613 -17.173470
v -17.603779 30.371744 -16.107681
v -21.720366 30.442324 -17.501436
v -47.357651 30.655272 -13.393917
v -47.357651 30.655272 -25.344107
v -47.357651 30.655272 -18.763481
v -53.771301 30.614435 -14.393202
v -53.771301 30.614435 -26.648638
v -53.771301 30.614435 -20.101833
v -40.365784 30.637533 -18.183842
v -39.671494 30.637533 -24.988274
v -40.365784 30.637533 -12.610571
v -34.048584 30.621506 -17.660133
v -34.048584 30.621506 -11.902813
v -34.048584 30.621506 -26.464842
v -27.574362 30.763937 -25.409821
v -31.347630 30.829802 -30.331461
v -26.693583 30.814909 -34.481842
v -30.466850 30.829802 -39.403484
v -25.803833 30.814909 -45.386375
v -30.290695 30.829802 -44.864311
v -83.791191 30.614435 -9.989306
v -83.791191 30.614435 -28.336798
v -83.791191 30.614435 -21.789993
v -68.854256 30.614435 -27.496822
v -68.854256 30.614435 -20.950018
v -62.688805 30.614435 -9.264249
v -57.910034 32.964401 -35.908417
v -61.668831 32.940468 -36.672955
v -53.405476 32.954002 -35.699879
v -50.110104 32.944611 -36.565239
v -48.527180 33.066685 -38.831314
v -48.010986 33.066685 -44.148079
v -47.907753 33.213566 -44.715714
v -79.262329 32.940468 -37.662319
v -70.508369 32.940468 -37.170044
v -28.192675 29.516708 -11.245293
v -19.662838 29.282040 -14.429338
v -28.180611 29.516733 -19.430597
v -15.583979 29.282640 -17.979815
v -21.881596 29.352654 -13.364250
v -14.339518 29.353144 -19.224863
v -28.191172 29.516722 -17.181675
v -17.621971 29.282330 -16.138416
v -21.741613 29.352741 -17.522789
v -47.355980 29.565273 -13.393917
v -47.346527 29.572050 -25.464966
v -47.355522 29.565273 -18.763517
v -53.768166 29.524441 -14.393202
v -53.741802 29.535286 -26.799191
v -53.767834 29.524441 -20.101833
v -40.368553 29.547537 -18.183908
v -39.689140 29.550978 -25.073032
v -40.368546 29.547537 -12.610571
v -34.051388 29.531509 -17.660164
v -34.051350 29.531509 -11.902813
v -34.068733 29.533426 -26.526297
v -27.553957 29.674398 -25.434050
v -31.389212 29.741209 -30.368006
v -26.699682 29.724930 -34.484749
v -30.535812 29.742043 -39.414635
v -25.807632 29.724915 -45.386620
v -30.357723 29.741976 -44.879883
v -83.791191 29.524435 -9.989306
v -83.784798 29.530397 -28.450466
v -83.791191 29.524435 -21.789993
v -68.846977 29.532179 -27.626320
v -68.854256 29.524435 -20.950018
v -62.688805 29.524435 -9.264249
v -57.856503 31.913206 -36.191658
v -61.641754 31.883894 -36.939453
v -53.412025 31.886946 -35.922237
v -50.172092 31.866673 -36.714592
v -48.637619 31.984051 -38.893009
v -48.147209 31.985493 -44.171844
v -48.045502 32.132801 -44.748432
v -79.247864 31.881334 -37.919472
v -70.493904 31.881334 -37.427193
vn 0.0142 0.9992 0.0380
vn 0.0163 0.9994 0.0307
vn 0.0258 0.9997 0.0003
vn 0.0219 0.9997 0.0081
vn 0.0024 1.0000 0.0001
vn 0.0025 1.0000 -0.0000
vn -0.0064 1.0000 -0.0000
vn 0.0027 1.0000 0.0001
vn -0.0266 0.9993 0.0281
vn 0.0062 1.0000 0.0034
vn 0.0035 1.0000 0.0002
vn -0.0000 1.0000 -0.0000
vn -0.0133 0.9717 0.2359
vn 0.1264 0.9915 0.0300
vn -0.0080 0.9752 0.2211
vn 0.0763 0.9914 0.1067
vn -0.0613 0.9606 0.2712
vn 0.1233 0.9923 0.0120
vn 0.0440 0.9866 0.1569
vn -0.0142 -0.9992 -0.0380
vn -0.0163 -0.9994 -0.0308
vn -0.0258 -0.9997 -0.0004
vn -0.0218 -0.9997 -0.0082
vn -0.0026 -1.0000 -0.0009
vn -0.0025 -1.0000 -0.0000
vn 0.0063 -1.0000 -0.0013
vn 0.0064 -1.0000 -0.0000
vn -0.0028 -1.0000 -0.0005
vn -0.0026 -1.0000 -0.0002
vn 0.0264 -0.9993 -0.0282
vn -0.0065 -1.0000 -0.0035
vn -0.0039 -1.0000 -0.0003
vn 0.0001 -1.0000 -0.0010
vn -0.0000 -1.0000 -0.0000
vn 0.0002 -1.0000 -0.0014
vn 0.0131 -0.9719 -0.2351
vn -0.1262 -0.9915 -0.0300
vn 0.0082 -0.9753 -0.2207
vn 0.0131 -0.9718 -0.2352
vn -0.0761 -0.9914 -0.1068
vn 0.0615 -0.9608 -0.2702
vn -0.1232 -0.9923 -0.0117
vn -0.0439 -0.9867 -0.1567
vn 0.4316 -0.0151 0.9019
vn 0.6692 -0.0349 0.7423
vn 0.0160 0.0251 -0.9996
vn 0.3176 -0.0075 0.9482
vn 0.7081 -0.0363 0.7052
vn 0.6399 -0.0263 0.7680
vn -0.1114 0.0008 0.9938
vn -0.1540 -0.0003 0.9881
vn -0.1114 0.0001 0.9938
vn -0.1113 0.0003 0.9938
vn 0.9947 0.0063 0.1022
vn 0.9954 0.0053 0.0953
vn -0.1131 0.0109 -0.9935
vn 0.9967 -0.0046 0.0814
vn -1.0000 -0.0000 -0.0000
vn -1.0000 -0.0029 -0.0005
vn 0.4985 0.0007 0.8669
vn -0.0343 -0.0000 0.9994
vn 0.0528 0.2329 -0.9711
vn 0.1884 0.2546 -0.9485
vn -0.2414 0.1732 -0.9548
vn -0.8158 0.1204 -0.5657
vn -0.9887 0.1164 -0.0939
vn -0.9814 0.1281 -0.1429
vn 0.0546 0.2363 -0.9701
vn 0.0539 0.2409 -0.9691
vn -0.9050 0.0640 -0.4206
vn -0.0049 0.0227 -0.9997
vt 0.699493 0.500000
vt 1.000000 0.500000
vt 1.000000 1.000000
vt 0.699493 1.000000
vt 0.000000 0.500000
vt 0.000000 1.000000
vt 0.000000 0.000000
vt 0.699493 0.000000
vt 1.000000 0.000000
s 0
f 105/8/51 104/9/51 100/10/51 102/11/51
f 103/12/52 105/8/52 102/11/52 99/13/52
f 97/14/53 101/15/53 105/8/53 103/12/53
f 101/15/54 98/16/54 104/9/54 105/8/54
f 112/12/55 113/13/55 107/13/55 108/12/55
f 114/14/56 112/12/56 108/12/56 106/14/56
f 108/12/57 107/13/57 110/13/57 111/12/57
f 106/14/57 108/12/57 111/12/57 109/14/57
f 116/14/56 115/12/56 112/12/56 114/14/56
f 115/12/58 117/13/58 113/13/58 112/12/58
f 103/12/56 99/13/56 117/13/56 115/12/56
f 97/14/56 103/12/56 115/12/56 116/14/56
f 117/13/59 99/13/59 118/13/59 119/13/59
f 119/13/60 118/13/60 120/13/60 121/13/60
f 121/13/61 120/13/61 122/13/61 123/13/61
f 128/12/62 127/13/62 125/13/62 126/12/62
f 129/14/62 128/12/62 126/12/62 124/14/62
f 109/14/62 111/12/62 128/12/62 129/14/62
f 111/12/62 110/13/62 127/13/62 128/12/62
f 125/13/63 127/13/63 138/13/63 137/13/63
f 121/13/64 123/13/64 136/13/64 135/13/64
f 107/13/65 113/13/65 132/13/65 130/13/65
f 127/13/63 110/13/63 131/13/63 138/13/63
f 117/13/66 119/13/66 134/13/66 133/13/66
f 110/13/67 107/13/67 130/13/67 131/13/67
f 119/13/68 121/13/68 135/13/68 134/13/68
f 113/13/69 117/13/69 133/13/69 132/13/69
f 147/8/70 144/11/70 142/10/70 146/9/70
f 145/12/71 141/13/71 144/11/71 147/8/71
f 139/14/72 145/12/72 147/8/72 143/15/72
f 143/15/73 147/8/73 146/9/73 140/16/73
f 154/12/74 150/12/74 149/13/74 155/13/74
f 156/14/75 148/14/75 150/12/75 154/12/75
f 150/12/76 153/12/76 152/13/76 149/13/76
f 148/14/77 151/14/77 153/12/77 150/12/77
f 158/14/75 156/14/75 154/12/75 157/12/75
f 157/12/78 154/12/78 155/13/78 159/13/78
f 145/12/79 157/12/79 159/13/79 141/13/79
f 139/14/75 158/14/75 157/12/75 145/12/75
f 159/13/80 161/13/80 160/13/80 141/13/80
f 161/13/81 163/13/81 162/13/81 160/13/81
f 163/13/82 165/13/82 164/13/82 162/13/82
f 170/12/83 168/12/83 167/13/83 169/13/83
f 171/14/84 166/14/84 168/12/84 170/12/84
f 151/14/84 171/14/84 170/12/84 153/12/84
f 153/12/85 170/12/85 169/13/85 152/13/85
f 167/13/86 179/13/86 180/13/86 169/13/86
f 163/13/87 177/13/87 178/13/87 165/13/87
f 149/13/88 172/13/88 174/13/88 155/13/88
f 169/13/89 180/13/89 173/13/89 152/13/89
f 159/13/90 175/13/90 176/13/90 161/13/90
f 152/13/91 173/13/91 172/13/91 149/13/91
f 161/13/92 176/13/92 177/13/92 163/13/92
f 155/13/93 174/13/93 175/13/93 159/13/93
f 98/16/94 101/15/94 143/15/94 140/16/94
f 100/10/95 104/9/95 146/9/95 142/10/95
f 99/13/96 102/11/96 144/11/96 141/13/96
f 101/15/97 97/14/97 139/14/97 143/15/97
f 102/11/98 100/10/98 142/10/98 144/11/98
f 104/9/99 98/16/99 140/16/99 146/9/99
f 97/14/100 116/14/100 158/14/100 139/14/100
f 106/14/101 109/14/101 151/14/101 148/14/101
f 114/14/102 106/14/102 148/14/102 156/14/102
f 116/14/103 114/14/103 156/14/103 158/14/103
f 118/13/104 99/13/104 141/13/104 160/13/104
f 120/13/105 118/13/105 160/13/105 162/13/105
f 123/13/106 122/13/106 164/13/106 165/13/106
f 122/13/107 120/13/107 162/13/107 164/13/107
f 124/14/108 126/12/108 168/12/108 166/14/108
f 126/12/109 125/13/109 167/13/109 168/12/109
f 109/14/110 129/14/110 171/14/110 151/14/110
f 129/14/111 124/14/111 166/14/111 171/14/111
f 130/13/112 132/13/112 174/13/112 172/13/112
f 131/13/113 130/13/113 172/13/113 173/13/113
f 132/13/114 133/13/114 175/13/114 174/13/114
f 133/13/115 134/13/115 176/13/115 175/13/115
f 134/13/116 135/13/116 177/13/116 176/13/116
f 135/13/117 136/13/117 178/13/117 177/13/117
f 137/13/118 138/13/118 180/13/118 179/13/118
f 138/13/119 131/13/119 173/13/119 180/13/119
f 125/13/120 137/13/120 179/13/120 167/13/120
f 136/13/121 123/13/121 165/13/121 178/13/121
o Plane.013
v -74.709534 31.201191 12.809889
v -34.434692 31.494732 15.748728
v -73.774605 31.201191 4.413772
v -37.174881 31.494732 7.835693
v -74.242073 31.201191 8.054073
v -35.152954 31.494732 10.460880
v -74.475800 31.201191 10.431981
v -34.606441 31.494732 13.469837
v -35.846882 31.494732 9.148287
v -74.008339 31.201191 6.233922
v -74.688751 28.361267 12.810164
v -34.413910 28.654808 15.749004
v -73.751625 28.361296 4.405745
v -37.151897 28.654837 7.827665
v -74.220581 28.361273 8.051889
v -35.131531 28.654814 10.458937
v -74.454811 28.361269 10.431514
v -34.585484 28.654810 13.469461
v -35.824783 28.654821 9.143888
v -73.985970 28.361284 6.228386
vn -0.0081 1.0000 0.0028
vn -0.0075 1.0000 0.0004
vn -0.0073 1.0000 -0.0001
vn -0.0077 1.0000 0.0011
vn 0.0081 -1.0000 -0.0028
vn 0.0075 -1.0000 -0.0004
vn 0.0073 -1.0000 0.0001
vn 0.0077 -1.0000 -0.0011
vn -0.9952 -0.0073 -0.0978
vn -0.0728 -0.0004 0.9973
vn 0.7036 0.0071 -0.7106
vn 0.0931 0.0036 -0.9957
vn -0.9918 -0.0075 -0.1275
vn 0.9839 0.0074 -0.1786
vn -0.9952 -0.0074 -0.0979
vn 0.9971 0.0073 -0.0751
vn 0.8843 0.0073 -0.4668
vn -0.9918 -0.0076 -0.1274
vt 0.000000 0.750000
vt 1.000000 0.750000
vt 1.000000 1.000000
vt 0.000000 1.000000
vt 0.000000 0.250000
vt 1.000000 0.250000
vt 1.000000 0.500000
vt 0.000000 0.500000
vt 0.000000 0.000000
vt 1.000000 0.000000
s 0
f 190/17/122 189/18/122 184/19/122 183/20/122
f 187/21/123 188/22/123 186/23/123 185/24/123
f 181/25/124 182/26/124 188/22/124 187/21/124
f 185/24/125 186/23/125 189/18/125 190/17/125
f 200/17/126 193/20/126 194/19/126 199/18/126
f 197/21/127 195/24/127 196/23/127 198/22/127
f 191/25/128 197/21/128 198/22/128 192/26/128
f 195/24/129 200/17/129 199/18/129 196/23/129
f 181/25/130 187/21/130 197/21/130 191/25/130
f 182/26/131 181/25/131 191/25/131 192/26/131
f 184/19/132 189/18/132 199/18/132 194/19/132
f 183/20/133 184/19/133 194/19/133 193/20/133
f 185/24/134 190/17/134 200/17/134 195/24/134
f 186/23/135 188/22/135 198/22/135 196/23/135
f 187/21/136 185/24/136 195/24/136 197/21/136
f 188/22/137 182/26/137 192/26/137 198/22/137
f 189/18/138 186/23/138 196/23/138 199/18/138
f 190/17/139 183/20/139 193/20/139 200/17/139
o Plane.014
v -24.311903 31.201191 16.698004
v 8.580347 31.421083 19.207359
v -19.498911 31.201191 9.006611
v 5.313997 31.421083 11.294325
v -23.133101 31.201191 11.942190
v 7.335924 31.421083 13.919512
v -24.027340 31.201191 14.320097
v 8.427214 31.421083 16.278282
v 6.641996 31.421083 12.606918
v -21.435799 31.201191 10.122039
v -24.292822 28.361256 16.698477
v 8.599428 28.581148 19.207832
v -19.475819 28.361290 9.012402
v 5.337088 28.581182 11.300116
v -23.112904 28.361263 11.943774
v 7.356131 28.581156 13.921159
v -24.007900 28.361258 14.320000
v 8.446615 28.581150 16.278248
v 6.663370 28.581171 12.613374
v -21.414486 28.361279 10.128520
vn -0.0081 1.0000 -0.0020
vn -0.0070 1.0000 0.0003
vn -0.0067 1.0000 -0.0002
vn -0.0073 1.0000 -0.0023
vn 0.0081 -1.0000 0.0020
vn 0.0070 -1.0000 -0.0003
vn 0.0067 -1.0000 0.0002
vn 0.0073 -1.0000 0.0024
vn -0.9929 -0.0067 -0.1189
vn -0.0761 -0.0003 0.9971
vn 0.7033 0.0040 -0.7109
vn 0.0918 -0.0013 -0.9958
vn -0.7308 -0.0063 -0.6826
vn 0.9076 0.0062 -0.4199
vn -0.9359 -0.0066 -0.3522
vn 0.9986 0.0068 -0.0521
vn 0.8839 0.0058 -0.4677
vn -0.4990 -0.0058 -0.8666
vt 0.000000 0.750000
vt 1.000000 0.750000
vt 1.000000 1.000000
vt 0.000000 1.000000
vt 0.000000 0.250000
vt 1.000000 0.250000
vt 1.000000 0.500000
vt 0.000000 0.500000
vt 0.000000 0.000000
vt 1.000000 0.000000
s 0
f 210/27/140 209/28/140 204/29/140 203/30/140
f 207/31/141 208/32/141 206/33/141 205/34/141
f 201/35/142 202/36/142 208/32/142 207/31/142
f 205/34/143 206/33/143 209/28/143 210/27/143
f 220/27/144 213/30/144 214/29/144 219/28/144
f 217/31/145 215/34/145 216/33/145 218/32/145
f 211/35/146 217/31/146 218/32/146 212/36/146
f 215/34/147 220/27/147 219/28/147 216/33/147
f 201/35/148 207/31/148 217/31/148 211/35/148
f 202/36/149 201/35/149 211/35/149 212/36/149
f 204/29/150 209/28/150 219/28/150 214/29/150
f 203/30/151 204/29/151 214/29/151 213/30/151
f 205/34/152 210/27/152 220/27/152 215/34/152
f 206/33/153 208/32/153 218/32/153 216/33/153
f 207/31/154 205/34/154 215/34/154 217/31/154
f 208/32/155 202/36/155 212/36/155 218/32/155
f 209/28/156 206/33/156 216/33/156 219/28/156
f 210/27/157 203/30/157 213/30/157 220/27/157
o Plane.015
v 19.203699 31.201191 20.365101
v 52.574814 31.421083 22.874456
v 24.016691 31.201191 12.673708
v 52.574814 31.421083 14.961422
v 20.382502 31.201191 15.609287
v 52.574814 31.421083 17.586609
v 19.488262 31.201191 17.987194
v 52.574814 31.421083 19.945379
v 52.574814 31.421083 16.274015
v 22.079803 31.201191 13.789136
v 19.222425 28.361252 20.366106
v 52.593544 28.581146 22.875462
v 24.036560 28.361305 12.689557
v 52.594681 28.581198 14.977272
v 20.401505 28.361259 15.615045
v 52.593857 28.581156 17.593458
v 19.507072 28.361254 17.989323
v 52.593628 28.581146 19.947618
v 52.594322 28.581181 16.286995
v 22.099134 28.361280 13.800688
vn -0.0070 1.0000 -0.0056
vn -0.0067 1.0000 -0.0013
vn -0.0066 1.0000 -0.0004
vn -0.0068 1.0000 -0.0037
vn 0.0070 -1.0000 0.0056
vn 0.0067 -1.0000 0.0013
vn 0.0066 -1.0000 0.0004
vn 0.0068 -1.0000 0.0037
vn -0.9929 -0.0066 -0.1189
vn -0.0750 -0.0001 0.9972
vn 1.0000 0.0069 0.0001
vn 0.0799 -0.0050 -0.9968
vn -0.7308 -0.0070 -0.6826
vn 1.0000 0.0067 -0.0000
vn -0.9359 -0.0067 -0.3523
vn 1.0000 0.0066 -0.0000
vn 1.0000 0.0068 0.0002
vn -0.4983 -0.0076 -0.8670
vt 0.000000 0.750000
vt 1.000000 0.750000
vt 1.000000 1.000000
vt 0.000000 1.000000
vt 0.000000 0.250000
vt 1.000000 0.250000
vt 1.000000 0.500000
vt 0.000000 0.500000
vt 0.000000 0.000000
vt 1.000000 0.000000
s 0
f 230/37/158 229/38/158 224/39/158 223/40/158
f 227/41/159 228/42/159 226/43/159 225/44/159
f 221/45/160 222/46/160 228/42/160 227/41/160
f 225/44/161 226/43/161 229/38/161 230/37/161
f 240/37/162 233/40/162 234/39/162 239/38/162
f 237/41/163 235/44/163 236/43/163 238/42/163
f 231/45/164 237/41/164 238/42/164 232/46/164
f 235/44/165 240/37/165 239/38/165 236/43/165
f 221/45/166 227/41/166 237/41/166 231/45/166
f 222/46/167 221/45/167 231/45/167 232/46/167
f 224/39/168 229/38/168 239/38/168 234/39/168
f 223/40/169 224/39/169 234/39/169 233/40/169
f 225/44/170 230/37/170 240/37/170 235/44/170
f 226/43/171 228/42/171 238/42/171 236/43/171
f 227/41/172 225/44/172 235/44/172 237/41/172
f 228/42/173 222/46/173 232/46/173 238/42/173
f 229/38/174 226/43/174 236/43/174 239/38/174
f 230/37/175 223/40/175 233/40/175 240/37/175
