# Blender 5.1.1
# www.blender.org
mtllib 2.2222zn.mtl
o Cube.014
v -72.901161 29.529205 -7.785280
v -72.901161 30.333889 -7.785280
v -72.871338 29.529205 -9.340358
v -72.871338 30.333889 -9.340358
v -41.618362 29.529205 -6.638474
v -41.618362 30.333889 -6.638474
v -41.588531 29.529205 -8.193551
v -41.588531 30.333889 -8.193551
v -26.569115 29.529203 -6.040392
v -26.651810 29.529203 -4.487228
v -26.651810 30.333887 -4.487228
v -26.569115 30.333887 -6.040392
v 49.746468 29.529203 -0.433619
v 49.746468 30.333887 -0.433619
v 49.663773 29.529203 1.119545
v 49.663773 30.333887 1.119545
v 76.106277 30.333887 1.541208
v 76.106277 29.529203 1.541208
v 76.023605 29.529203 3.094372
v 76.023605 30.333887 3.094372
vn 0.9998 -0.0000 0.0192
vn -0.0366 -0.0000 0.9993
vn -0.9998 -0.0000 -0.0192
vn 0.0366 -0.0000 -0.9993
vn -0.0000 1.0000 -0.0000
vn -0.0000 -1.0000 -0.0000
vn -0.9986 -0.0000 -0.0532
vn 0.0733 -0.0000 -0.9973
vn -0.0747 -0.0000 0.9972
vn -0.0733 -0.0000 0.9973
vn 0.9986 -0.0000 0.0532
vn 0.0747 -0.0000 -0.9972
vt 0.375000 0.000000
vt 0.375000 0.250000
vt 0.625000 0.250000
vt 0.625000 0.000000
vt 0.375000 0.500000
vt 0.625000 0.500000
vt 0.375000 0.750000
vt 0.625000 0.750000
vt 0.375000 1.000000
vt 0.625000 1.000000
vt 0.125000 0.500000
vt 0.125000 0.750000
vt 0.875000 0.750000
vt 0.875000 0.500000
s 0
f 1/1/1 3/2/1 4/3/1 2/4/1
f 3/2/2 7/5/2 8/6/2 4/3/2
f 7/5/3 5/7/3 6/8/3 8/6/3
f 5/7/4 1/9/4 2/10/4 6/8/4
f 3/11/5 1/12/5 5/7/5 7/5/5
f 8/6/6 6/8/6 2/13/6 4/14/6
f 10/1/7 11/4/7 12/3/7 9/2/7
f 9/2/8 12/3/8 14/6/8 13/5/8
f 16/8/9 15/7/9 19/7/9 20/8/9
f 15/7/10 16/8/10 11/10/10 10/9/10
f 9/11/6 13/5/6 15/7/6 10/12/6
f 14/6/5 12/14/5 11/13/5 16/8/5
f 18/5/11 17/6/11 20/8/11 19/7/11
f 15/7/6 13/5/6 18/5/6 19/7/6
f 14/6/5 16/8/5 20/8/5 17/6/5
f 13/5/12 14/6/12 17/6/12 18/5/12
