# Blender 5.1.1
# www.blender.org
mtllib 2ln.mtl
o Cube.007
v -72.901161 29.529205 -6.959317
v -72.901161 30.333889 -6.959317
v -72.871338 29.529205 -7.763447
v -72.871338 30.333889 -7.763447
v -70.960106 29.529205 -6.887318
v -70.960106 30.333889 -6.887318
v -70.930275 29.529205 -7.691448
v -70.930275 30.333889 -7.691448
v -70.261322 29.529205 -6.861399
v -70.261322 30.333889 -6.861399
v -70.231491 29.529205 -7.665529
v -70.231491 30.333889 -7.665529
v -68.320267 29.529205 -6.789400
v -68.320267 30.333889 -6.789400
v -68.290436 29.529205 -7.593530
v -68.290436 30.333889 -7.593530
v -67.621483 29.529205 -6.763480
v -67.621483 30.333889 -6.763480
v -67.591652 29.529205 -7.567611
v -67.591652 30.333889 -7.567611
v -65.680420 29.529205 -6.691482
v -65.680420 30.333889 -6.691482
v -65.650597 29.529205 -7.495612
v -65.650597 30.333889 -7.495612
v -64.981644 29.529205 -6.665562
v -64.981644 30.333889 -6.665562
v -64.951813 29.529205 -7.469692
v -64.951813 30.333889 -7.469692
v -63.040585 29.529205 -6.593564
v -63.040585 30.333889 -6.593564
v -63.010757 29.529205 -7.397694
v -63.010757 30.333889 -7.397694
v -62.341801 29.529205 -6.567644
v -62.341801 30.333889 -6.567644
v -62.311974 29.529205 -7.371774
v -62.311974 30.333889 -7.371774
v -60.400742 29.529205 -6.495645
v -60.400742 30.333889 -6.495645
v -60.370914 29.529205 -7.299776
v -60.370914 30.333889 -7.299776
v -59.701962 29.529205 -6.469726
v -59.701962 30.333889 -6.469726
v -59.672134 29.529205 -7.273856
v -59.672134 30.333889 -7.273856
v -57.760902 29.529205 -6.397727
v -57.760902 30.333889 -6.397727
v -57.731075 29.529205 -7.201857
v -57.731075 30.333889 -7.201857
v -57.062122 29.529205 -6.371808
v -57.062122 30.333889 -6.371808
v -57.032295 29.529205 -7.175938
v -57.032295 30.333889 -7.175938
v -55.121063 29.529205 -6.299809
v -55.121063 30.333889 -6.299809
v -55.091236 29.529205 -7.103939
v -55.091236 30.333889 -7.103939
v -54.422279 29.529205 -6.273889
v -54.422279 30.333889 -6.273889
v -54.392456 29.529205 -7.078020
v -54.392456 30.333889 -7.078020
v -52.481224 29.529205 -6.201890
v -52.481224 30.333889 -6.201890
v -52.451393 29.529205 -7.006021
v -52.451393 30.333889 -7.006021
v -51.782440 29.529205 -6.175971
v -51.782440 30.333889 -6.175971
v -51.752617 29.529205 -6.980102
v -51.752617 30.333889 -6.980102
v -49.841385 29.529205 -6.103972
v -49.841385 30.333889 -6.103972
v -49.811554 29.529205 -6.908103
v -49.811554 30.333889 -6.908103
v -49.142601 29.529205 -6.078053
v -49.142601 30.333889 -6.078053
v -49.112778 29.529205 -6.882183
v -49.112778 30.333889 -6.882183
v -47.201542 29.529205 -6.006054
v -47.201542 30.333889 -6.006054
v -47.171715 29.529205 -6.810184
v -47.171715 30.333889 -6.810184
v -46.502762 29.529205 -5.980134
v -46.502762 30.333889 -5.980134
v -46.472939 29.529205 -6.784265
v -46.472939 30.333889 -6.784265
v -44.561707 29.529205 -5.908136
v -44.561707 30.333889 -5.908136
v -44.531876 29.529205 -6.712266
v -44.531876 30.333889 -6.712266
v -43.862923 29.529205 -5.882216
v -43.862923 30.333889 -5.882216
v -43.833092 29.529205 -6.686347
v -43.833092 30.333889 -6.686347
v -41.921864 29.529205 -5.810218
v -41.921864 30.333889 -5.810218
v -41.892036 29.529205 -6.614348
v -41.892036 30.333889 -6.614348
v -72.811378 29.529205 -9.379749
v -72.811378 30.333889 -9.379749
v -72.781555 29.529205 -10.183880
v -72.781555 30.333889 -10.183880
v -70.870323 29.529205 -9.307751
v -70.870323 30.333889 -9.307751
v -70.840492 29.529205 -10.111881
v -70.840492 30.333889 -10.111881
v -70.171539 29.529205 -9.281831
v -70.171539 30.333889 -9.281831
v -70.141716 29.529205 -10.085961
v -70.141716 30.333889 -10.085961
v -68.230484 29.529205 -9.209832
v -68.230484 30.333889 -9.209832
v -68.200653 29.529205 -10.013963
v -68.200653 30.333889 -10.013963
v -67.531700 29.529205 -9.183912
v -67.531700 30.333889 -9.183912
v -67.501877 29.529205 -9.988043
v -67.501877 30.333889 -9.988043
v -65.590645 29.529205 -9.111914
v -65.590645 30.333889 -9.111914
v -65.560814 29.529205 -9.916044
v -65.560814 30.333889 -9.916044
v -64.891861 29.529205 -9.085995
v -64.891861 30.333889 -9.085995
v -64.862038 29.529205 -9.890125
v -64.862038 30.333889 -9.890125
v -62.950806 29.529205 -9.013996
v -62.950806 30.333889 -9.013996
v -62.920975 29.529205 -9.818127
v -62.920975 30.333889 -9.818127
v -62.252022 29.529205 -8.988076
v -62.252022 30.333889 -8.988076
v -62.222195 29.529205 -9.792207
v -62.222195 30.333889 -9.792207
v -60.310963 29.529205 -8.916078
v -60.310963 30.333889 -8.916078
v -60.281136 29.529205 -9.720208
v -60.281136 30.333889 -9.720208
v -59.612183 29.529205 -8.890158
v -59.612183 30.333889 -8.890158
v -59.582355 29.529205 -9.694288
v -59.582355 30.333889 -9.694288
v -57.671124 29.529205 -8.818159
v -57.671124 30.333889 -8.818159
v -57.641296 29.529205 -9.622290
v -57.641296 30.333889 -9.622290
v -56.972343 29.529205 -8.792240
v -56.972343 30.333889 -8.792240
v -56.942513 29.529205 -9.596371
v -56.942513 30.333889 -9.596371
v -55.031284 29.529205 -8.720242
v -55.031284 30.333889 -8.720242
v -55.001457 29.529205 -9.524372
v -55.001457 30.333889 -9.524372
v -54.332504 29.529205 -8.694322
v -54.332504 30.333889 -8.694322
v -54.302673 29.529205 -9.498452
v -54.302673 30.333889 -9.498452
v -52.391441 29.529205 -8.622323
v -52.391441 30.333889 -8.622323
v -52.361614 29.529205 -9.426454
v -52.361614 30.333889 -9.426454
v -51.692665 29.529205 -8.596403
v -51.692665 30.333889 -8.596403
v -51.662834 29.529205 -9.400534
v -51.662834 30.333889 -9.400534
v -49.751602 29.529205 -8.524405
v -49.751602 30.333889 -8.524405
v -49.721775 29.529205 -9.328535
v -49.721775 30.333889 -9.328535
v -49.052826 29.529205 -8.498486
v -49.052826 30.333889 -8.498486
v -49.022995 29.529205 -9.302616
v -49.022995 30.333889 -9.302616
v -47.111763 29.529205 -8.426486
v -47.111763 30.333889 -8.426486
v -47.081932 29.529205 -9.230617
v -47.081932 30.333889 -9.230617
v -46.412987 29.529205 -8.400567
v -46.412987 30.333889 -8.400567
v -46.383156 29.529205 -9.204698
v -46.383156 30.333889 -9.204698
v -44.471924 29.529205 -8.328568
v -44.471924 30.333889 -8.328568
v -44.442097 29.529205 -9.132699
v -44.442097 30.333889 -9.132699
v -43.773140 29.529205 -8.302649
v -43.773140 30.333889 -8.302649
v -43.743313 29.529205 -9.106779
v -43.743313 30.333889 -9.106779
v -41.832085 29.529205 -8.230650
v -41.832085 30.333889 -8.230650
v -41.802254 29.529205 -9.034781
v -41.802254 30.333889 -9.034781
vn -0.9993 -0.0000 -0.0371
vn 0.0371 -0.0000 -0.9993
vn 0.9993 -0.0000 0.0371
vn -0.0371 -0.0000 0.9993
vn -0.0000 -1.0000 -0.0000
vn -0.0000 1.0000 -0.0000
vt 0.375000 0.000000
vt 0.625000 0.000000
vt 0.625000 0.250000
vt 0.375000 0.250000
vt 0.625000 0.500000
vt 0.375000 0.500000
vt 0.625000 0.750000
vt 0.375000 0.750000
vt 0.625000 1.000000
vt 0.375000 1.000000
vt 0.125000 0.500000
vt 0.125000 0.750000
vt 0.875000 0.500000
vt 0.875000 0.750000
s 0
usemtl 
f 1/1/1 2/2/1 4/3/1 3/4/1
f 3/4/2 4/3/2 8/5/2 7/6/2
f 7/6/3 8/5/3 6/7/3 5/8/3
f 5/8/4 6/7/4 2/9/4 1/10/4
f 3/11/5 7/6/5 5/8/5 1/12/5
f 8/5/6 4/13/6 2/14/6 6/7/6
f 9/1/1 10/2/1 12/3/1 11/4/1
f 11/4/2 12/3/2 16/5/2 15/6/2
f 15/6/3 16/5/3 14/7/3 13/8/3
f 13/8/4 14/7/4 10/9/4 9/10/4
f 11/11/5 15/6/5 13/8/5 9/12/5
f 16/5/6 12/13/6 10/14/6 14/7/6
f 17/1/1 18/2/1 20/3/1 19/4/1
f 19/4/2 20/3/2 24/5/2 23/6/2
f 23/6/3 24/5/3 22/7/3 21/8/3
f 21/8/4 22/7/4 18/9/4 17/10/4
f 19/11/5 23/6/5 21/8/5 17/12/5
f 24/5/6 20/13/6 18/14/6 22/7/6
f 25/1/1 26/2/1 28/3/1 27/4/1
f 27/4/2 28/3/2 32/5/2 31/6/2
f 31/6/3 32/5/3 30/7/3 29/8/3
f 29/8/4 30/7/4 26/9/4 25/10/4
f 27/11/5 31/6/5 29/8/5 25/12/5
f 32/5/6 28/13/6 26/14/6 30/7/6
f 33/1/1 34/2/1 36/3/1 35/4/1
f 35/4/2 36/3/2 40/5/2 39/6/2
f 39/6/3 40/5/3 38/7/3 37/8/3
f 37/8/4 38/7/4 34/9/4 33/10/4
f 35/11/5 39/6/5 37/8/5 33/12/5
f 40/5/6 36/13/6 34/14/6 38/7/6
f 41/1/1 42/2/1 44/3/1 43/4/1
f 43/4/2 44/3/2 48/5/2 47/6/2
f 47/6/3 48/5/3 46/7/3 45/8/3
f 45/8/4 46/7/4 42/9/4 41/10/4
f 43/11/5 47/6/5 45/8/5 41/12/5
f 48/5/6 44/13/6 42/14/6 46/7/6
f 49/1/1 50/2/1 52/3/1 51/4/1
f 51/4/2 52/3/2 56/5/2 55/6/2
f 55/6/3 56/5/3 54/7/3 53/8/3
f 53/8/4 54/7/4 50/9/4 49/10/4
f 51/11/5 55/6/5 53/8/5 49/12/5
f 56/5/6 52/13/6 50/14/6 54/7/6
f 57/1/1 58/2/1 60/3/1 59/4/1
f 59/4/2 60/3/2 64/5/2 63/6/2
f 63/6/3 64/5/3 62/7/3 61/8/3
f 61/8/4 62/7/4 58/9/4 57/10/4
f 59/11/5 63/6/5 61/8/5 57/12/5
f 64/5/6 60/13/6 58/14/6 62/7/6
f 65/1/1 66/2/1 68/3/1 67/4/1
f 67/4/2 68/3/2 72/5/2 71/6/2
f 71/6/3 72/5/3 70/7/3 69/8/3
f 69/8/4 70/7/4 66/9/4 65/10/4
f 67/11/5 71/6/5 69/8/5 65/12/5
f 72/5/6 68/13/6 66/14/6 70/7/6
f 73/1/1 74/2/1 76/3/1 75/4/1
f 75/4/2 76/3/2 80/5/2 79/6/2
f 79/6/3 80/5/3 78/7/3 77/8/3
f 77/8/4 78/7/4 74/9/4 73/10/4
f 75/11/5 79/6/5 77/8/5 73/12/5
f 80/5/6 76/13/6 74/14/6 78/7/6
f 81/1/1 82/2/1 84/3/1 83/4/1
f 83/4/2 84/3/2 88/5/2 87/6/2
f 87/6/3 88/5/3 86/7/3 85/8/3
f 85/8/4 86/7/4 82/9/4 81/10/4
f 83/11/5 87/6/5 85/8/5 81/12/5
f 88/5/6 84/13/6 82/14/6 86/7/6
f 89/1/1 90/2/1 92/3/1 91/4/1
f 91/4/2 92/3/2 96/5/2 95/6/2
f 95/6/3 96/5/3 94/7/3 93/8/3
f 93/8/4 94/7/4 90/9/4 89/10/4
f 91/11/5 95/6/5 93/8/5 89/12/5
f 96/5/6 92/13/6 90/14/6 94/7/6
f 97/1/1 98/2/1 100/3/1 99/4/1
f 99/4/2 100/3/2 104/5/2 103/6/2
f 103/6/3 104/5/3 102/7/3 101/8/3
f 101/8/4 102/7/4 98/9/4 97/10/4
f 99/11/5 103/6/5 101/8/5 97/12/5
f 104/5/6 100/13/6 98/14/6 102/7/6
f 105/1/1 106/2/1 108/3/1 107/4/1
f 107/4/2 108/3/2 112/5/2 111/6/2
f 111/6/3 112/5/3 110/7/3 109/8/3
f 109/8/4 110/7/4 106/9/4 105/10/4
f 107/11/5 111/6/5 109/8/5 105/12/5
f 112/5/6 108/13/6 106/14/6 110/7/6
f 113/1/1 114/2/1 116/3/1 115/4/1
f 115/4/2 116/3/2 120/5/2 119/6/2
f 119/6/3 120/5/3 118/7/3 117/8/3
f 117/8/4 118/7/4 114/9/4 113/10/4
f 115/11/5 119/6/5 117/8/5 113/12/5
f 120/5/6 116/13/6 114/14/6 118/7/6
f 121/1/1 122/2/1 124/3/1 123/4/1
f 123/4/2 124/3/2 128/5/2 127/6/2
f 127/6/3 128/5/3 126/7/3 125/8/3
f 125/8/4 126/7/4 122/9/4 121/10/4
f 123/11/5 127/6/5 125/8/5 121/12/5
f 128/5/6 124/13/6 122/14/6 126/7/6
f 129/1/1 130/2/1 132/3/1 131/4/1
f 131/4/2 132/3/2 136/5/2 135/6/2
f 135/6/3 136/5/3 134/7/3 133/8/3
f 133/8/4 134/7/4 130/9/4 129/10/4
f 131/11/5 135/6/5 133/8/5 129/12/5
f 136/5/6 132/13/6 130/14/6 134/7/6
f 137/1/1 138/2/1 140/3/1 139/4/1
f 139/4/2 140/3/2 144/5/2 143/6/2
f 143/6/3 144/5/3 142/7/3 141/8/3
f 141/8/4 142/7/4 138/9/4 137/10/4
f 139/11/5 143/6/5 141/8/5 137/12/5
f 144/5/6 140/13/6 138/14/6 142/7/6
f 145/1/1 146/2/1 148/3/1 147/4/1
f 147/4/2 148/3/2 152/5/2 151/6/2
f 151/6/3 152/5/3 150/7/3 149/8/3
f 149/8/4 150/7/4 146/9/4 145/10/4
f 147/11/5 151/6/5 149/8/5 145/12/5
f 152/5/6 148/13/6 146/14/6 150/7/6
f 153/1/1 154/2/1 156/3/1 155/4/1
f 155/4/2 156/3/2 160/5/2 159/6/2
f 159/6/3 160/5/3 158/7/3 157/8/3
f 157/8/4 158/7/4 154/9/4 153/10/4
f 155/11/5 159/6/5 157/8/5 153/12/5
f 160/5/6 156/13/6 154/14/6 158/7/6
f 161/1/1 162/2/1 164/3/1 163/4/1
f 163/4/2 164/3/2 168/5/2 167/6/2
f 167/6/3 168/5/3 166/7/3 165/8/3
f 165/8/4 166/7/4 162/9/4 161/10/4
f 163/11/5 167/6/5 165/8/5 161/12/5
f 168/5/6 164/13/6 162/14/6 166/7/6
f 169/1/1 170/2/1 172/3/1 171/4/1
f 171/4/2 172/3/2 176/5/2 175/6/2
f 175/6/3 176/5/3 174/7/3 173/8/3
f 173/8/4 174/7/4 170/9/4 169/10/4
f 171/11/5 175/6/5 173/8/5 169/12/5
f 176/5/6 172/13/6 170/14/6 174/7/6
f 177/1/1 178/2/1 180/3/1 179/4/1
f 179/4/2 180/3/2 184/5/2 183/6/2
f 183/6/3 184/5/3 182/7/3 181/8/3
f 181/8/4 182/7/4 178/9/4 177/10/4
f 179/11/5 183/6/5 181/8/5 177/12/5
f 184/5/6 180/13/6 178/14/6 182/7/6
f 185/1/1 186/2/1 188/3/1 187/4/1
f 187/4/2 188/3/2 192/5/2 191/6/2
f 191/6/3 192/5/3 190/7/3 189/8/3
f 189/8/4 190/7/4 186/9/4 185/10/4
f 187/11/5 191/6/5 189/8/5 185/12/5
f 192/5/6 188/13/6 186/14/6 190/7/6
o Cube.006
v 0.928391 29.548429 -11.651915
v 0.928391 30.175310 -11.651915
v 1.266469 29.548429 -18.213213
v 1.266469 30.175310 -18.213213
v 1.554440 29.548429 -11.619657
v 1.554440 30.175310 -11.619657
v 1.892519 29.548429 -18.180956
v 1.892519 30.175310 -18.180956
v -0.680555 29.548429 -11.734818
v -0.680555 30.175310 -11.734818
v -0.342477 29.548429 -18.296116
v -0.342477 30.175310 -18.296116
v -0.054506 29.548429 -11.702559
v -0.054506 30.175310 -11.702559
v 0.283572 29.548429 -18.263859
v 0.283572 30.175310 -18.263859
v -2.289501 29.548429 -11.817720
v -2.289501 30.175310 -11.817720
v -1.951423 29.548429 -18.379019
v -1.951423 30.175310 -18.379019
v -1.663452 29.548429 -11.785462
v -1.663452 30.175310 -11.785462
v -1.325374 29.548429 -18.346762
v -1.325374 30.175310 -18.346762
v -3.898448 29.548429 -11.900623
v -3.898448 30.175310 -11.900623
v -3.560370 29.548429 -18.461922
v -3.560370 30.175310 -18.461922
v -3.272399 29.548429 -11.868364
v -3.272399 30.175310 -11.868364
v -2.934320 29.548429 -18.429665
v -2.934320 30.175310 -18.429665
v -5.507394 29.548429 -11.983526
v -5.507394 30.175310 -11.983526
v -5.169316 29.548429 -18.544825
v -5.169316 30.175310 -18.544825
v -4.881345 29.548429 -11.951267
v -4.881345 30.175310 -11.951267
v -4.543267 29.548429 -18.512566
v -4.543267 30.175310 -18.512566
v -7.116340 29.548429 -12.066428
v -7.116340 30.175310 -12.066428
v -6.778262 29.548429 -18.627728
v -6.778262 30.175310 -18.627728
v -6.490291 29.548429 -12.034170
v -6.490291 30.175310 -12.034170
v -6.152213 29.548429 -18.595469
v -6.152213 30.175310 -18.595469
v -8.725286 29.548429 -12.149331
v -8.725286 30.175310 -12.149331
v -8.387209 29.548429 -18.710630
v -8.387209 30.175310 -18.710630
v -8.099237 29.548429 -12.117073
v -8.099237 30.175310 -12.117073
v -7.761160 29.548429 -18.678371
v -7.761160 30.175310 -18.678371
v -10.334233 29.548429 -12.232234
v -10.334233 30.175310 -12.232234
v -9.996156 29.548429 -18.793533
v -9.996156 30.175310 -18.793533
v -9.708184 29.548429 -12.199976
v -9.708184 30.175310 -12.199976
v -9.370107 29.548429 -18.761274
v -9.370107 30.175310 -18.761274
v -11.943179 29.548429 -12.315136
v -11.943179 30.175310 -12.315136
v -11.605102 29.548429 -18.876436
v -11.605102 30.175310 -18.876436
v -11.317130 29.548429 -12.282879
v -11.317130 30.175310 -12.282879
v -10.979053 29.548429 -18.844177
v -10.979053 30.175310 -18.844177
v -13.552125 29.548429 -12.398039
v -13.552125 30.175310 -12.398039
v -13.214047 29.548429 -18.959339
v -13.214047 30.175310 -18.959339
v -12.926076 29.548429 -12.365782
v -12.926076 30.175310 -12.365782
v -12.587998 29.548429 -18.927080
v -12.587998 30.175310 -18.927080
v -15.161071 29.548429 -12.480942
v -15.161071 30.175310 -12.480942
v -14.822993 29.548429 -19.042240
v -14.822993 30.175310 -19.042240
v -14.535022 29.548429 -12.448685
v -14.535022 30.175310 -12.448685
v -14.196944 29.548429 -19.009983
v -14.196944 30.175310 -19.009983
v -16.770020 29.548429 -12.563845
v -16.770020 30.175310 -12.563845
v -16.431942 29.548429 -19.125143
v -16.431942 30.175310 -19.125143
v -16.143970 29.548429 -12.531588
v -16.143970 30.175310 -12.531588
v -15.805892 29.548429 -19.092886
v -15.805892 30.175310 -19.092886
v -18.378963 29.548429 -12.646748
v -18.378963 30.175310 -12.646748
v -18.040886 29.548429 -19.208046
v -18.040886 30.175310 -19.208046
v -17.752914 29.548429 -12.614490
v -17.752914 30.175310 -12.614490
v -17.414837 29.548429 -19.175789
v -17.414837 30.175310 -19.175789
vn -0.9987 -0.0000 -0.0515
vn 0.0515 -0.0000 -0.9987
vn 0.9987 -0.0000 0.0515
vn -0.0515 -0.0000 0.9987
vn -0.0000 -1.0000 -0.0000
vn -0.0000 1.0000 -0.0000
vt 0.375000 0.000000
vt 0.625000 0.000000
vt 0.625000 0.250000
vt 0.375000 0.250000
vt 0.625000 0.500000
vt 0.375000 0.500000
vt 0.625000 0.750000
vt 0.375000 0.750000
vt 0.625000 1.000000
vt 0.375000 1.000000
vt 0.125000 0.500000
vt 0.125000 0.750000
vt 0.875000 0.500000
vt 0.875000 0.750000
s 0
usemtl 
f 193/15/7 194/16/7 196/17/7 195/18/7
f 195/18/8 196/17/8 200/19/8 199/20/8
f 199/20/9 200/19/9 198/21/9 197/22/9
f 197/22/10 198/21/10 194/23/10 193/24/10
f 195/25/11 199/20/11 197/22/11 193/26/11
f 200/19/12 196/27/12 194/28/12 198/21/12
f 201/15/7 202/16/7 204/17/7 203/18/7
f 203/18/8 204/17/8 208/19/8 207/20/8
f 207/20/9 208/19/9 206/21/9 205/22/9
f 205/22/10 206/21/10 202/23/10 201/24/10
f 203/25/11 207/20/11 205/22/11 201/26/11
f 208/19/12 204/27/12 202/28/12 206/21/12
f 209/15/7 210/16/7 212/17/7 211/18/7
f 211/18/8 212/17/8 216/19/8 215/20/8
f 215/20/9 216/19/9 214/21/9 213/22/9
f 213/22/10 214/21/10 210/23/10 209/24/10
f 211/25/11 215/20/11 213/22/11 209/26/11
f 216/19/12 212/27/12 210/28/12 214/21/12
f 217/15/7 218/16/7 220/17/7 219/18/7
f 219/18/8 220/17/8 224/19/8 223/20/8
f 223/20/9 224/19/9 222/21/9 221/22/9
f 221/22/10 222/21/10 218/23/10 217/24/10
f 219/25/11 223/20/11 221/22/11 217/26/11
f 224/19/12 220/27/12 218/28/12 222/21/12
f 225/15/7 226/16/7 228/17/7 227/18/7
f 227/18/8 228/17/8 232/19/8 231/20/8
f 231/20/9 232/19/9 230/21/9 229/22/9
f 229/22/10 230/21/10 226/23/10 225/24/10
f 227/25/11 231/20/11 229/22/11 225/26/11
f 232/19/12 228/27/12 226/28/12 230/21/12
f 233/15/7 234/16/7 236/17/7 235/18/7
f 235/18/8 236/17/8 240/19/8 239/20/8
f 239/20/9 240/19/9 238/21/9 237/22/9
f 237/22/10 238/21/10 234/23/10 233/24/10
f 235/25/11 239/20/11 237/22/11 233/26/11
f 240/19/12 236/27/12 234/28/12 238/21/12
f 241/15/7 242/16/7 244/17/7 243/18/7
f 243/18/8 244/17/8 248/19/8 247/20/8
f 247/20/9 248/19/9 246/21/9 245/22/9
f 245/22/10 246/21/10 242/23/10 241/24/10
f 243/25/11 247/20/11 245/22/11 241/26/11
f 248/19/12 244/27/12 242/28/12 246/21/12
f 249/15/7 250/16/7 252/17/7 251/18/7
f 251/18/8 252/17/8 256/19/8 255/20/8
f 255/20/9 256/19/9 254/21/9 253/22/9
f 253/22/10 254/21/10 250/23/10 249/24/10
f 251/25/11 255/20/11 253/22/11 249/26/11
f 256/19/12 252/27/12 250/28/12 254/21/12
f 257/15/7 258/16/7 260/17/7 259/18/7
f 259/18/8 260/17/8 264/19/8 263/20/8
f 263/20/9 264/19/9 262/21/9 261/22/9
f 261/22/10 262/21/10 258/23/10 257/24/10
f 259/25/11 263/20/11 261/22/11 257/26/11
f 264/19/12 260/27/12 258/28/12 262/21/12
f 265/15/7 266/16/7 268/17/7 267/18/7
f 267/18/8 268/17/8 272/19/8 271/20/8
f 271/20/9 272/19/9 270/21/9 269/22/9
f 269/22/10 270/21/10 266/23/10 265/24/10
f 267/25/11 271/20/11 269/22/11 265/26/11
f 272/19/12 268/27/12 266/28/12 270/21/12
f 273/15/7 274/16/7 276/17/7 275/18/7
f 275/18/8 276/17/8 280/19/8 279/20/8
f 279/20/9 280/19/9 278/21/9 277/22/9
f 277/22/10 278/21/10 274/23/10 273/24/10
f 275/25/11 279/20/11 277/22/11 273/26/11
f 280/19/12 276/27/12 274/28/12 278/21/12
f 281/15/7 282/16/7 284/17/7 283/18/7
f 283/18/8 284/17/8 288/19/8 287/20/8
f 287/20/9 288/19/9 286/21/9 285/22/9
f 285/22/10 286/21/10 282/23/10 281/24/10
f 283/25/11 287/20/11 285/22/11 281/26/11
f 288/19/12 284/27/12 282/28/12 286/21/12
f 289/15/7 290/16/7 292/17/7 291/18/7
f 291/18/8 292/17/8 296/19/8 295/20/8
f 295/20/9 296/19/9 294/21/9 293/22/9
f 293/22/10 294/21/10 290/23/10 289/24/10
f 291/25/11 295/20/11 293/22/11 289/26/11
f 296/19/12 292/27/12 290/28/12 294/21/12
o Cube.008
v -32.910233 29.830126 -10.546059
v -32.910233 30.457006 -10.546059
v -39.103470 29.830126 -10.865171
v -39.103470 30.457006 -10.865171
v -32.877975 29.830126 -11.172108
v -32.877975 30.457006 -11.172108
v -39.071209 29.830126 -11.491220
v -39.071209 30.457006 -11.491220
v -32.993134 29.830126 -8.937112
v -32.993134 30.457006 -8.937112
v -39.186371 29.830126 -9.256226
v -39.186371 30.457006 -9.256226
v -32.960876 29.830126 -9.563161
v -32.960876 30.457006 -9.563161
v -39.154114 29.830126 -9.882275
v -39.154114 30.457006 -9.882275
v -33.076038 29.830126 -7.328166
v -33.076038 30.457006 -7.328166
v -39.269276 29.830126 -7.647279
v -39.269276 30.457006 -7.647279
v -33.043781 29.830126 -7.954215
v -33.043781 30.457006 -7.954215
v -39.237015 29.830126 -8.273329
v -39.237015 30.457006 -8.273329
v -33.158939 29.830126 -5.719219
v -33.158939 30.457006 -5.719219
v -39.352177 29.830126 -6.038332
v -39.352177 30.457006 -6.038332
v -33.126682 29.830126 -6.345268
v -33.126682 30.457006 -6.345268
v -39.319920 29.830126 -6.664382
v -39.319920 30.457006 -6.664382
v -33.241844 29.830126 -4.110273
v -33.241844 30.457006 -4.110273
v -39.435081 29.830126 -4.429387
v -39.435081 30.457006 -4.429387
v -33.209587 29.830126 -4.736322
v -33.209587 30.457006 -4.736322
v -39.402821 29.830126 -5.055436
v -39.402821 30.457006 -5.055436
v -33.324745 29.830126 -2.501328
v -33.324745 30.457006 -2.501328
v -39.517982 29.830126 -2.820440
v -39.517982 30.457006 -2.820440
v -33.292488 29.830126 -3.127377
v -33.292488 30.457006 -3.127377
v -39.485725 29.830126 -3.446490
v -39.485725 30.457006 -3.446490
v -33.407650 29.830126 -0.892381
v -33.407650 30.457006 -0.892381
v -39.600883 29.830126 -1.211493
v -39.600883 30.457006 -1.211493
v -33.375389 29.830126 -1.518430
v -33.375389 30.457006 -1.518430
v -39.568626 29.830126 -1.837543
v -39.568626 30.457006 -1.837543
v -33.490551 29.830126 0.716566
v -33.490551 30.457006 0.716566
v -39.683788 29.830126 0.397453
v -39.683788 30.457006 0.397453
v -33.458294 29.830126 0.090517
v -33.458294 30.457006 0.090517
v -39.651531 29.830126 -0.228596
v -39.651531 30.457006 -0.228596
v -33.573456 29.830126 2.325512
v -33.573456 30.457006 2.325512
v -39.766689 29.830126 2.006399
v -39.766689 30.457006 2.006399
v -33.541195 29.830126 1.699463
v -33.541195 30.457006 1.699463
v -39.734432 29.830126 1.380350
v -39.734432 30.457006 1.380350
v -33.656357 29.830126 3.934458
v -33.656357 30.457006 3.934458
v -39.849594 29.830126 3.615345
v -39.849594 30.457006 3.615345
v -33.624100 29.830126 3.308409
v -33.624100 30.457006 3.308409
v -39.817337 29.830126 2.989296
v -39.817337 30.457006 2.989296
v -33.739258 29.830126 5.543405
v -33.739258 30.457006 5.543405
v -39.932495 29.830126 5.224290
v -39.932495 30.457006 5.224290
v -33.707001 29.830126 4.917356
v -33.707001 30.457006 4.917356
v -39.900238 29.830126 4.598242
v -39.900238 30.457006 4.598242
v -33.822163 29.830126 7.152352
v -33.822163 30.457006 7.152352
v -40.015400 29.830126 6.833238
v -40.015400 30.457006 6.833238
v -33.789906 29.830126 6.526303
v -33.789906 30.457006 6.526303
v -39.983143 29.830126 6.207189
v -39.983143 30.457006 6.207189
vn -0.0515 -0.0000 0.9987
vn -0.9987 -0.0000 -0.0515
vn 0.0515 -0.0000 -0.9987
vn 0.9987 -0.0000 0.0515
vn -0.0000 -1.0000 -0.0000
vn -0.0000 1.0000 -0.0000
vt 0.375000 0.000000
vt 0.625000 0.000000
vt 0.625000 0.250000
vt 0.375000 0.250000
vt 0.625000 0.500000
vt 0.375000 0.500000
vt 0.625000 0.750000
vt 0.375000 0.750000
vt 0.625000 1.000000
vt 0.375000 1.000000
vt 0.125000 0.500000
vt 0.125000 0.750000
vt 0.875000 0.500000
vt 0.875000 0.750000
s 0
usemtl 
f 297/29/13 298/30/13 300/31/13 299/32/13
f 299/32/14 300/31/14 304/33/14 303/34/14
f 303/34/15 304/33/15 302/35/15 301/36/15
f 301/36/16 302/35/16 298/37/16 297/38/16
f 299/39/17 303/34/17 301/36/17 297/40/17
f 304/33/18 300/41/18 298/42/18 302/35/18
f 305/29/13 306/30/13 308/31/13 307/32/13
f 307/32/14 308/31/14 312/33/14 311/34/14
f 311/34/15 312/33/15 310/35/15 309/36/15
f 309/36/16 310/35/16 306/37/16 305/38/16
f 307/39/17 311/34/17 309/36/17 305/40/17
f 312/33/18 308/41/18 306/42/18 310/35/18
f 313/29/13 314/30/13 316/31/13 315/32/13
f 315/32/14 316/31/14 320/33/14 319/34/14
f 319/34/15 320/33/15 318/35/15 317/36/15
f 317/36/16 318/35/16 314/37/16 313/38/16
f 315/39/17 319/34/17 317/36/17 313/40/17
f 320/33/18 316/41/18 314/42/18 318/35/18
f 321/29/13 322/30/13 324/31/13 323/32/13
f 323/32/14 324/31/14 328/33/14 327/34/14
f 327/34/15 328/33/15 326/35/15 325/36/15
f 325/36/16 326/35/16 322/37/16 321/38/16
f 323/39/17 327/34/17 325/36/17 321/40/17
f 328/33/18 324/41/18 322/42/18 326/35/18
f 329/29/13 330/30/13 332/31/13 331/32/13
f 331/32/14 332/31/14 336/33/14 335/34/14
f 335/34/15 336/33/15 334/35/15 333/36/15
f 333/36/16 334/35/16 330/37/16 329/38/16
f 331/39/17 335/34/17 333/36/17 329/40/17
f 336/33/18 332/41/18 330/42/18 334/35/18
f 337/29/13 338/30/13 340/31/13 339/32/13
f 339/32/14 340/31/14 344/33/14 343/34/14
f 343/34/15 344/33/15 342/35/15 341/36/15
f 341/36/16 342/35/16 338/37/16 337/38/16
f 339/39/17 343/34/17 341/36/17 337/40/17
f 344/33/18 340/41/18 338/42/18 342/35/18
f 345/29/13 346/30/13 348/31/13 347/32/13
f 347/32/14 348/31/14 352/33/14 351/34/14
f 351/34/15 352/33/15 350/35/15 349/36/15
f 349/36/16 350/35/16 346/37/16 345/38/16
f 347/39/17 351/34/17 349/36/17 345/40/17
f 352/33/18 348/41/18 346/42/18 350/35/18
f 353/29/13 354/30/13 356/31/13 355/32/13
f 355/32/14 356/31/14 360/33/14 359/34/14
f 359/34/15 360/33/15 358/35/15 357/36/15
f 357/36/16 358/35/16 354/37/16 353/38/16
f 355/39/17 359/34/17 357/36/17 353/40/17
f 360/33/18 356/41/18 354/42/18 358/35/18
f 361/29/13 362/30/13 364/31/13 363/32/13
f 363/32/14 364/31/14 368/33/14 367/34/14
f 367/34/15 368/33/15 366/35/15 365/36/15
f 365/36/16 366/35/16 362/37/16 361/38/16
f 363/39/17 367/34/17 365/36/17 361/40/17
f 368/33/18 364/41/18 362/42/18 366/35/18
f 369/29/13 370/30/13 372/31/13 371/32/13
f 371/32/14 372/31/14 376/33/14 375/34/14
f 375/34/15 376/33/15 374/35/15 373/36/15
f 373/36/16 374/35/16 370/37/16 369/38/16
f 371/39/17 375/34/17 373/36/17 369/40/17
f 376/33/18 372/41/18 370/42/18 374/35/18
f 377/29/13 378/30/13 380/31/13 379/32/13
f 379/32/14 380/31/14 384/33/14 383/34/14
f 383/34/15 384/33/15 382/35/15 381/36/15
f 381/36/16 382/35/16 378/37/16 377/38/16
f 379/39/17 383/34/17 381/36/17 377/40/17
f 384/33/18 380/41/18 378/42/18 382/35/18
f 385/29/13 386/30/13 388/31/13 387/32/13
f 387/32/14 388/31/14 392/33/14 391/34/14
f 391/34/15 392/33/15 390/35/15 389/36/15
f 389/36/16 390/35/16 386/37/16 385/38/16
f 387/39/17 391/34/17 389/36/17 385/40/17
f 392/33/18 388/41/18 386/42/18 390/35/18
o Cube.009
v -26.644228 29.482693 -3.698936
v -26.644228 30.287376 -3.698936
v -26.583939 29.482693 -4.501358
v -26.583939 30.287376 -4.501358
v -24.707293 29.482693 -3.553408
v -24.707293 30.287376 -3.553408
v -24.647005 29.482693 -4.355830
v -24.647005 30.287376 -4.355830
v -24.009996 29.482693 -3.501018
v -24.009996 30.287376 -3.501018
v -23.949707 29.482693 -4.303440
v -23.949707 30.287376 -4.303440
v -22.073063 29.482693 -3.355490
v -22.073063 30.287376 -3.355490
v -22.012774 29.482693 -4.157912
v -22.012774 30.287376 -4.157912
v -21.375765 29.482693 -3.303100
v -21.375765 30.287376 -3.303100
v -21.315477 29.482693 -4.105522
v -21.315477 30.287376 -4.105522
v -19.438831 29.482693 -3.157572
v -19.438831 30.287376 -3.157572
v -19.378542 29.482693 -3.959993
v -19.378542 30.287376 -3.959993
v -18.741535 29.482693 -3.105182
v -18.741535 30.287376 -3.105182
v -18.681246 29.482693 -3.907603
v -18.681246 30.287376 -3.907603
v -16.804600 29.482693 -2.959653
v -16.804600 30.287376 -2.959653
v -16.744312 29.482693 -3.762075
v -16.744312 30.287376 -3.762075
v -16.107304 29.482693 -2.907263
v -16.107304 30.287376 -2.907263
v -16.047014 29.482693 -3.709685
v -16.047014 30.287376 -3.709685
v -14.170370 29.482693 -2.761735
v -14.170370 30.287376 -2.761735
v -14.110081 29.482693 -3.564157
v -14.110081 30.287376 -3.564157
v -13.473073 29.482693 -2.709345
v -13.473073 30.287376 -2.709345
v -13.412784 29.482693 -3.511767
v -13.412784 30.287376 -3.511767
v -11.536139 29.482693 -2.563817
v -11.536139 30.287376 -2.563817
v -11.475850 29.482693 -3.366239
v -11.475850 30.287376 -3.366239
v -10.838841 29.482693 -2.511426
v -10.838841 30.287376 -2.511426
v -10.778552 29.482693 -3.313848
v -10.778552 30.287376 -3.313848
v -8.901907 29.482693 -2.365899
v -8.901907 30.287376 -2.365899
v -8.841619 29.482693 -3.168320
v -8.841619 30.287376 -3.168320
v -8.204611 29.482693 -2.313508
v -8.204611 30.287376 -2.313508
v -8.144323 29.482693 -3.115930
v -8.144323 30.287376 -3.115930
v -6.267675 29.482693 -2.167980
v -6.267675 30.287376 -2.167980
v -6.207388 29.482693 -2.970402
v -6.207388 30.287376 -2.970402
v -5.570379 29.482693 -2.115590
v -5.570379 30.287376 -2.115590
v -5.510092 29.482693 -2.918012
v -5.510092 30.287376 -2.918012
v -3.633446 29.482693 -1.970062
v -3.633446 30.287376 -1.970062
v -3.573158 29.482693 -2.772484
v -3.573158 30.287376 -2.772484
v -2.936150 29.482693 -1.917672
v -2.936150 30.287376 -1.917672
v -2.875862 29.482693 -2.720093
v -2.875862 30.287376 -2.720093
v -0.999214 29.482693 -1.772143
v -0.999214 30.287376 -1.772143
v -0.938927 29.482693 -2.574565
v -0.938927 30.287376 -2.574565
v -0.301920 29.482693 -1.719754
v -0.301920 30.287376 -1.719754
v -0.241632 29.482693 -2.522175
v -0.241632 30.287376 -2.522175
v 1.635014 29.482693 -1.574225
v 1.635014 30.287376 -1.574225
v 1.695301 29.482693 -2.376647
v 1.695301 30.287376 -2.376647
v 2.332314 29.482693 -1.521835
v 2.332314 30.287376 -1.521835
v 2.392601 29.482693 -2.324257
v 2.392601 30.287376 -2.324257
v 4.269247 29.482693 -1.376307
v 4.269247 30.287376 -1.376307
v 4.329535 29.482693 -2.178729
v 4.329535 30.287376 -2.178729
v 4.966543 29.482693 -1.323917
v 4.966543 30.287376 -1.323917
v 5.026831 29.482693 -2.126338
v 5.026831 30.287376 -2.126338
v 6.903481 29.482693 -1.178389
v 6.903481 30.287376 -1.178389
v 6.963768 29.482693 -1.980810
v 6.963768 30.287376 -1.980810
v 7.600773 29.482693 -1.125998
v 7.600773 30.287376 -1.125998
v 7.661060 29.482693 -1.928420
v 7.661060 30.287376 -1.928420
v 9.537708 29.482693 -0.980470
v 9.537708 30.287376 -0.980470
v 9.597996 29.482693 -1.782892
v 9.597996 30.287376 -1.782892
v 10.235004 29.482693 -0.928080
v 10.235004 30.287376 -0.928080
v 10.295292 29.482693 -1.730502
v 10.295292 30.287376 -1.730502
v 12.171940 29.482693 -0.782552
v 12.171940 30.287376 -0.782552
v 12.232227 29.482693 -1.584974
v 12.232227 30.287376 -1.584974
v 12.869236 29.482693 -0.730162
v 12.869236 30.287376 -0.730162
v 12.929523 29.482693 -1.532584
v 12.929523 30.287376 -1.532584
v 14.806168 29.482693 -0.584634
v 14.806168 30.287376 -0.584634
v 14.866455 29.482693 -1.387055
v 14.866455 30.287376 -1.387055
v 15.503468 29.482693 -0.532244
v 15.503468 30.287376 -0.532244
v 15.563755 29.482693 -1.334665
v 15.563755 30.287376 -1.334665
v 17.440399 29.482693 -0.386715
v 17.440399 30.287376 -0.386715
v 17.500687 29.482693 -1.189137
v 17.500687 30.287376 -1.189137
v 18.137699 29.482693 -0.334325
v 18.137699 30.287376 -0.334325
v 18.197987 29.482693 -1.136747
v 18.197987 30.287376 -1.136747
v 20.074635 29.482693 -0.188797
v 20.074635 30.287376 -0.188797
v 20.134922 29.482693 -0.991219
v 20.134922 30.287376 -0.991219
v 20.771927 29.482693 -0.136407
v 20.771927 30.287376 -0.136407
v 20.832214 29.482693 -0.938829
v 20.832214 30.287376 -0.938829
v 22.708862 29.482693 0.009121
v 22.708862 30.287376 0.009121
v 22.769150 29.482693 -0.793301
v 22.769150 30.287376 -0.793301
v 23.406158 29.482693 0.061512
v 23.406158 30.287376 0.061512
v 23.466446 29.482693 -0.740910
v 23.466446 30.287376 -0.740910
v 25.343094 29.482693 0.207040
v 25.343094 30.287376 0.207040
v 25.403381 29.482693 -0.595382
v 25.403381 30.287376 -0.595382
v 26.040390 29.482693 0.259429
v 26.040390 30.287376 0.259429
v 26.100677 29.482693 -0.542992
v 26.100677 30.287376 -0.542992
v 27.977322 29.482693 0.404958
v 27.977322 30.287376 0.404958
v 28.037609 29.482693 -0.397464
v 28.037609 30.287376 -0.397464
v 28.674622 29.482693 0.457348
v 28.674622 30.287376 0.457348
v 28.734909 29.482693 -0.345073
v 28.734909 30.287376 -0.345073
v 30.611553 29.482693 0.602876
v 30.611553 30.287376 0.602876
v 30.671841 29.482693 -0.199546
v 30.671841 30.287376 -0.199546
v 31.308853 29.482693 0.655267
v 31.308853 30.287376 0.655267
v 31.369141 29.482693 -0.147155
v 31.369141 30.287376 -0.147155
v 33.245789 29.482693 0.800795
v 33.245789 30.287376 0.800795
v 33.306076 29.482693 -0.001627
v 33.306076 30.287376 -0.001627
v 33.943081 29.482693 0.853185
v 33.943081 30.287376 0.853185
v 34.003368 29.482693 0.050763
v 34.003368 30.287376 0.050763
v 35.880016 29.482693 0.998713
v 35.880016 30.287376 0.998713
v 35.940304 29.482693 0.196291
v 35.940304 30.287376 0.196291
v 36.577312 29.482693 1.051103
v 36.577312 30.287376 1.051103
v 36.637600 29.482693 0.248681
v 36.637600 30.287376 0.248681
v 38.514252 29.482693 1.196631
v 38.514252 30.287376 1.196631
v 38.574539 29.482693 0.394209
v 38.574539 30.287376 0.394209
v 39.211548 29.482693 1.249022
v 39.211548 30.287376 1.249022
v 39.271835 29.482693 0.446599
v 39.271835 30.287376 0.446599
v 41.148483 29.482693 1.394550
v 41.148483 30.287376 1.394550
v 41.208771 29.482693 0.592128
v 41.208771 30.287376 0.592128
v 41.845772 29.482693 1.446939
v 41.845772 30.287376 1.446939
v 41.906059 29.482693 0.644517
v 41.906059 30.287376 0.644517
v 43.782715 29.482693 1.592468
v 43.782715 30.287376 1.592468
v 43.843002 29.482693 0.790046
v 43.843002 30.287376 0.790046
v 44.480011 29.482693 1.644858
v 44.480011 30.287376 1.644858
v 44.540298 29.482693 0.842436
v 44.540298 30.287376 0.842436
v 46.416946 29.482693 1.790387
v 46.416946 30.287376 1.790387
v 46.477234 29.482693 0.987965
v 46.477234 30.287376 0.987965
v 47.114243 29.482693 1.842777
v 47.114243 30.287376 1.842777
v 47.174530 29.482693 1.040355
v 47.174530 30.287376 1.040355
v 49.051178 29.482693 1.988305
v 49.051178 30.287376 1.988305
v 49.111465 29.482693 1.185883
v 49.111465 30.287376 1.185883
v 49.748474 29.482693 2.040695
v 49.748474 30.287376 2.040695
v 49.808762 29.482693 1.238273
v 49.808762 30.287376 1.238273
v 51.685410 29.482693 2.186224
v 51.685410 30.287376 2.186224
v 51.745697 29.482693 1.383801
v 51.745697 30.287376 1.383801
v 52.382698 29.482693 2.238613
v 52.382698 30.287376 2.238613
v 52.442986 29.482693 1.436191
v 52.442986 30.287376 1.436191
v 54.319633 29.482693 2.384141
v 54.319633 30.287376 2.384141
v 54.379921 29.482693 1.581719
v 54.379921 30.287376 1.581719
v 55.016930 29.482693 2.436531
v 55.016930 30.287376 2.436531
v 55.077217 29.482693 1.634109
v 55.077217 30.287376 1.634109
v 56.953865 29.482693 2.582060
v 56.953865 30.287376 2.582060
v 57.014153 29.482693 1.779638
v 57.014153 30.287376 1.779638
v 57.651161 29.482693 2.634449
v 57.651161 30.287376 2.634449
v 57.711449 29.482693 1.832027
v 57.711449 30.287376 1.832027
v 59.588097 29.482693 2.779978
v 59.588097 30.287376 2.779978
v 59.648384 29.482693 1.977556
v 59.648384 30.287376 1.977556
v 60.285393 29.482693 2.832368
v 60.285393 30.287376 2.832368
v 60.345680 29.482693 2.029946
v 60.345680 30.287376 2.029946
v 62.222328 29.482693 2.977897
v 62.222328 30.287376 2.977897
v 62.282616 29.482693 2.175475
v 62.282616 30.287376 2.175475
v 62.919624 29.482693 3.030286
v 62.919624 30.287376 3.030286
v 62.979912 29.482693 2.227864
v 62.979912 30.287376 2.227864
v 64.856567 29.482693 3.175815
v 64.856567 30.287376 3.175815
v 64.916855 29.482693 2.373393
v 64.916855 30.287376 2.373393
v 65.553848 29.482693 3.228204
v 65.553848 30.287376 3.228204
v 65.614136 29.482693 2.425782
v 65.614136 30.287376 2.425782
v 67.490791 29.482693 3.373733
v 67.490791 30.287376 3.373733
v 67.551079 29.482693 2.571311
v 67.551079 30.287376 2.571311
v 68.188080 29.482693 3.426123
v 68.188080 30.287376 3.426123
v 68.248367 29.482693 2.623701
v 68.248367 30.287376 2.623701
v 70.125023 29.482693 3.571651
v 70.125023 30.287376 3.571651
v 70.185310 29.482693 2.769229
v 70.185310 30.287376 2.769229
v 70.822311 29.482693 3.624041
v 70.822311 30.287376 3.624041
v 70.882599 29.482693 2.821619
v 70.882599 30.287376 2.821619
v 72.759254 29.482693 3.769569
v 72.759254 30.287376 3.769569
v 72.819542 29.482693 2.967147
v 72.819542 30.287376 2.967147
v 73.456551 29.482693 3.821959
v 73.456551 30.287376 3.821959
v 73.516838 29.482693 3.019537
v 73.516838 30.287376 3.019537
v 75.393486 29.482693 3.967488
v 75.393486 30.287376 3.967488
v 75.453773 29.482693 3.165066
v 75.453773 30.287376 3.165066
v -26.462759 29.489101 -6.122766
v -26.462759 30.293673 -6.136254
v -26.402470 29.475653 -6.925076
v -26.402470 30.280222 -6.938563
v -24.525824 29.491541 -5.977259
v -24.525824 30.296112 -5.990746
v -24.465536 29.478092 -6.779567
v -24.465536 30.282661 -6.793056
v -23.828527 29.492420 -5.924876
v -23.828527 30.296989 -5.938364
v -23.768240 29.478970 -6.727185
v -23.768238 30.283541 -6.740673
v -21.891594 29.494860 -5.779368
v -21.891594 30.299429 -5.792856
v -21.831305 29.481409 -6.581676
v -21.831305 30.285978 -6.595165
v -21.194298 29.495737 -5.726985
v -21.194298 30.300308 -5.740473
v -21.134008 29.482286 -6.529294
v -21.134008 30.286858 -6.542782
v -19.257362 29.498177 -5.581477
v -19.257362 30.302746 -5.594965
v -19.197073 29.484726 -6.383786
v -19.197073 30.289297 -6.397274
v -18.560066 29.499054 -5.529095
v -18.560066 30.303625 -5.542583
v -18.499777 29.485605 -6.331404
v -18.499777 30.290174 -6.344892
v -16.623131 29.501493 -5.383587
v -16.623131 30.306065 -5.397075
v -16.562843 29.488045 -6.185896
v -16.562843 30.292614 -6.199384
v -15.925835 29.502373 -5.331204
v -15.925836 30.306942 -5.344692
v -15.865546 29.488922 -6.133513
v -15.865546 30.293491 -6.147001
v -13.988901 29.504812 -5.185697
v -13.988900 30.309381 -5.199184
v -13.928612 29.491362 -5.988005
v -13.928612 30.295931 -6.001493
v -13.291604 29.505690 -5.133314
v -13.291604 30.310261 -5.146802
v -13.231317 29.492239 -5.935623
v -13.231316 30.296810 -5.949111
v -11.354670 29.508129 -4.987806
v -11.354671 30.312698 -5.001294
v -11.294381 29.494678 -5.790115
v -11.294382 30.299250 -5.803603
v -10.657373 29.509007 -4.935423
v -10.657372 30.313578 -4.948911
v -10.597085 29.495558 -5.737732
v -10.597085 30.300127 -5.751220
v -8.720442 29.511446 -4.789916
v -8.720440 30.316017 -4.803404
v -8.660151 29.497997 -5.592224
v -8.660151 30.302567 -5.605712
v -8.023144 29.512325 -4.737533
v -8.023142 30.316895 -4.751020
v -7.962854 29.498875 -5.539842
v -7.962854 30.303444 -5.553329
v -6.086206 29.514765 -4.592025
v -6.086205 30.319334 -4.605513
v -6.025917 29.501314 -5.394334
v -6.025917 30.305883 -5.407822
v -5.388912 29.515642 -4.539642
v -5.388912 30.320213 -4.553130
v -5.328625 29.502192 -5.341951
v -5.328625 30.306763 -5.355439
v -3.451977 29.518082 -4.394135
v -3.451977 30.322651 -4.407622
v -3.391689 29.504631 -5.196444
v -3.391689 30.309202 -5.209931
v -2.754683 29.518959 -4.341752
v -2.754683 30.323530 -4.355240
v -2.694395 29.505510 -5.144061
v -2.694393 30.310080 -5.157549
v -0.817745 29.521399 -4.196244
v -0.817745 30.325970 -4.209732
v -0.757456 29.507950 -4.998553
v -0.757456 30.312519 -5.012041
v -0.120453 29.522278 -4.143861
v -0.120453 30.326847 -4.157349
v -0.060163 29.508827 -4.946170
v -0.060163 30.313396 -4.959659
v 1.816483 29.524717 -3.998353
v 1.816484 30.329287 -4.011842
v 1.876772 29.511267 -4.800663
v 1.876772 30.315836 -4.814151
v 2.513781 29.525595 -3.945971
v 2.513781 30.330166 -3.959459
v 2.574068 29.512144 -4.748280
v 2.574068 30.316715 -4.761768
v 4.450716 29.528034 -3.800463
v 4.450716 30.332603 -3.813951
v 4.511003 29.514584 -4.602772
v 4.511003 30.319155 -4.616260
v 5.148010 29.528912 -3.748080
v 5.148010 30.333483 -3.761568
v 5.208298 29.515463 -4.550389
v 5.208300 30.320032 -4.563877
v 7.084949 29.531351 -3.602572
v 7.084949 30.335922 -3.616060
v 7.145237 29.517902 -4.404881
v 7.145237 30.322472 -4.418369
v 7.782242 29.532230 -3.550189
v 7.782242 30.336800 -3.563678
v 7.842529 29.518780 -4.352499
v 7.842529 30.323349 -4.365987
v 9.719173 29.534670 -3.404682
v 9.719177 30.339239 -3.418170
v 9.779465 29.521219 -4.206991
v 9.779465 30.325788 -4.220479
v 10.416473 29.535547 -3.352299
v 10.416473 30.340118 -3.365787
v 10.476761 29.522097 -4.154608
v 10.476765 30.326668 -4.168097
v 12.353409 29.537987 -3.206791
v 12.353409 30.342556 -3.220279
v 12.413696 29.524536 -4.009100
v 12.413696 30.329107 -4.022588
v 13.050701 29.538864 -3.154409
v 13.050705 30.343435 -3.167897
v 13.110992 29.525415 -3.956718
v 13.110992 30.329985 -3.970206
v 14.987637 29.541304 -3.008901
v 14.987637 30.345875 -3.022389
v 15.047924 29.527853 -3.811210
v 15.047924 30.332424 -3.824698
v 15.684937 29.542183 -2.956518
v 15.684937 30.346752 -2.970006
v 15.745224 29.528732 -3.758827
v 15.745224 30.333302 -3.772315
v 17.621868 29.544622 -2.811010
v 17.621868 30.349192 -2.824498
v 17.682156 29.531172 -3.613319
v 17.682156 30.335741 -3.626807
v 18.319168 29.545500 -2.758627
v 18.319168 30.350069 -2.772115
v 18.379456 29.532049 -3.560936
v 18.379459 30.336620 -3.574424
v 20.256100 29.547939 -2.613120
v 20.256100 30.352509 -2.626608
v 20.316387 29.534489 -3.415429
v 20.316391 30.339060 -3.428917
v 20.953396 29.548817 -2.560737
v 20.953396 30.353388 -2.574225
v 21.013683 29.535368 -3.363046
v 21.013683 30.339937 -3.376534
v 22.890327 29.551256 -2.415230
v 22.890331 30.355827 -2.428717
v 22.950619 29.537806 -3.217538
v 22.950619 30.342377 -3.231026
v 23.587627 29.552135 -2.362846
v 23.587631 30.356705 -2.376334
v 23.647915 29.538685 -3.165155
v 23.647919 30.343254 -3.178643
v 25.524563 29.554575 -2.217339
v 25.524563 30.359144 -2.230827
v 25.584850 29.541124 -3.019648
v 25.584850 30.345694 -3.033136
v 26.221855 29.555452 -2.164956
v 26.221855 30.360022 -2.178444
v 26.282143 29.542002 -2.967265
v 26.282143 30.346573 -2.980753
v 28.158791 29.557892 -2.019449
v 28.158791 30.362461 -2.032937
v 28.219078 29.544441 -2.821758
v 28.219082 30.349012 -2.835245
v 28.856087 29.558769 -1.967066
v 28.856091 30.363340 -1.980553
v 28.916382 29.545319 -2.769374
v 28.916382 30.349890 -2.782862
v 30.793022 29.561209 -1.821558
v 30.793022 30.365780 -1.835046
v 30.853310 29.547758 -2.623867
v 30.853310 30.352329 -2.637355
v 31.490318 29.562088 -1.769175
v 31.490322 30.366657 -1.782663
v 31.550610 29.548637 -2.571484
v 31.550610 30.353207 -2.584972
v 33.427254 29.564526 -1.623667
v 33.427258 30.369097 -1.637155
v 33.487541 29.551077 -2.425976
v 33.487545 30.355646 -2.439464
v 34.124554 29.565405 -1.571285
v 34.124554 30.369974 -1.584773
v 34.184841 29.551954 -2.373594
v 34.184841 30.356525 -2.387081
v 36.061481 29.567844 -1.425777
v 36.061481 30.372414 -1.439265
v 36.121769 29.554394 -2.228086
v 36.121769 30.358965 -2.241574
v 36.758781 29.568722 -1.373394
v 36.758781 30.373293 -1.386882
v 36.819069 29.555271 -2.175703
v 36.819069 30.359842 -2.189191
v 38.695717 29.571161 -1.227886
v 38.695717 30.375732 -1.241374
v 38.756004 29.557711 -2.030195
v 38.756004 30.362282 -2.043683
v 39.393013 29.572041 -1.175503
v 39.393021 30.376610 -1.188991
v 39.453308 29.558590 -1.977812
v 39.453308 30.363159 -1.991300
v 41.329948 29.574478 -1.029996
v 41.329948 30.379049 -1.043484
v 41.390236 29.561029 -1.832305
v 41.390236 30.365599 -1.845793
v 42.027245 29.575357 -0.977613
v 42.027245 30.379927 -0.991101
v 42.087532 29.561907 -1.779922
v 42.087532 30.366478 -1.793410
v 43.964172 29.577797 -0.832106
v 43.964165 30.382366 -0.845594
v 44.024467 29.564346 -1.634414
v 44.024460 30.368917 -1.647902
v 44.661469 29.578674 -0.779723
v 44.661461 30.383245 -0.793211
v 44.721764 29.565224 -1.582031
v 44.721756 30.369795 -1.595520
v 46.598412 29.581114 -0.634215
v 46.598404 30.385685 -0.647703
v 46.658707 29.567663 -1.436523
v 46.658707 30.372234 -1.450011
v 47.295708 29.581993 -0.581832
v 47.295700 30.386562 -0.595320
v 47.356003 29.568542 -1.384140
v 47.355995 30.373112 -1.397629
v 49.232643 29.584431 -0.436324
v 49.232635 30.389002 -0.449812
v 49.292938 29.570982 -1.238632
v 49.292938 30.375551 -1.252120
v 49.929939 29.585310 -0.383941
v 49.929932 30.389879 -0.397430
v 49.990234 29.571859 -1.186250
v 49.990227 30.376431 -1.199738
v 51.866875 29.587749 -0.238433
v 51.866875 30.392319 -0.251922
v 51.927170 29.574299 -1.040742
v 51.927170 30.378870 -1.054230
v 52.564163 29.588627 -0.186051
v 52.564156 30.393198 -0.199540
v 52.624458 29.575176 -0.988360
v 52.624451 30.379747 -1.001848
v 54.501099 29.591066 -0.040543
v 54.501099 30.395638 -0.054031
v 54.561394 29.577616 -0.842851
v 54.561394 30.382187 -0.856340
v 55.198387 29.591944 0.011838
v 55.198387 30.396515 -0.001649
v 55.258682 29.578495 -0.790470
v 55.258682 30.383064 -0.803958
v 57.135330 29.594383 0.157347
v 57.135330 30.398954 0.143858
v 57.195625 29.580935 -0.644962
v 57.195625 30.385504 -0.658450
v 57.832626 29.595263 0.209730
v 57.832619 30.399832 0.196241
v 57.892921 29.581812 -0.592579
v 57.892921 30.386383 -0.606067
v 59.769562 29.597702 0.355238
v 59.769562 30.402271 0.341750
v 59.829857 29.584251 -0.447071
v 59.829857 30.388821 -0.460559
v 60.466858 29.598579 0.407620
v 60.466858 30.403151 0.394132
v 60.527153 29.585129 -0.394688
v 60.527153 30.389700 -0.408176
v 62.403793 29.601019 0.553129
v 62.403793 30.405590 0.539640
v 62.464096 29.587568 -0.249180
v 62.464088 30.392139 -0.262668
v 63.101089 29.601896 0.605511
v 63.101089 30.406467 0.592023
v 63.161385 29.588448 -0.196797
v 63.161385 30.393017 -0.210285
v 65.038033 29.604336 0.751019
v 65.038033 30.408907 0.737531
v 65.098335 29.590887 -0.051289
v 65.098328 30.395456 -0.064777
v 65.735313 29.605215 0.803401
v 65.735313 30.409784 0.789913
v 65.795609 29.591764 0.001092
v 65.795609 30.396336 -0.012396
v 67.672249 29.607655 0.948909
v 67.672249 30.412224 0.935421
v 67.732552 29.594204 0.146601
v 67.732544 30.398773 0.133112
v 68.369545 29.608532 1.001292
v 68.369545 30.413103 0.987803
v 68.429840 29.595081 0.198984
v 68.429840 30.399652 0.185495
v 70.306488 29.610971 1.146800
v 70.306480 30.415543 1.133311
v 70.366783 29.597521 0.344491
v 70.366776 30.402092 0.331003
v 71.003777 29.611849 1.199182
v 71.003777 30.416420 1.185694
v 71.064079 29.598400 0.396874
v 71.064072 30.402969 0.383386
v 72.940720 29.614288 1.344690
v 72.940712 30.418859 1.331202
v 73.001015 29.600840 0.542382
v 73.001007 30.405409 0.528894
v 73.638008 29.615168 1.397073
v 73.638008 30.419737 1.383584
v 73.698311 29.601717 0.594765
v 73.698303 30.406288 0.581276
v 75.574959 29.617607 1.542581
v 75.574951 30.422176 1.529093
v 75.635254 29.604156 0.740273
v 75.635246 30.408726 0.726785
vn -0.9972 -0.0000 -0.0749
vn 0.0749 -0.0000 -0.9972
vn 0.9972 -0.0000 0.0749
vn -0.0749 -0.0000 0.9972
vn -0.0000 -1.0000 -0.0000
vn -0.0000 1.0000 -0.0000
vn -0.9972 -0.0013 -0.0749
vn 0.0749 -0.0167 -0.9970
vn 0.9972 0.0013 0.0749
vn -0.0749 0.0167 0.9970
vn -0.0000 -0.9999 0.0168
vn -0.0000 0.9999 -0.0168
vt 0.375000 0.000000
vt 0.625000 0.000000
vt 0.625000 0.250000
vt 0.375000 0.250000
vt 0.625000 0.500000
vt 0.375000 0.500000
vt 0.625000 0.750000
vt 0.375000 0.750000
vt 0.625000 1.000000
vt 0.375000 1.000000
vt 0.125000 0.500000
vt 0.125000 0.750000
vt 0.875000 0.500000
vt 0.875000 0.750000
s 0
usemtl 
f 393/43/19 394/44/19 396/45/19 395/46/19
f 395/46/20 396/45/20 400/47/20 399/48/20
f 399/48/21 400/47/21 398/49/21 397/50/21
f 397/50/22 398/49/22 394/51/22 393/52/22
f 395/53/23 399/48/23 397/50/23 393/54/23
f 400/47/24 396/55/24 394/56/24 398/49/24
f 401/43/19 402/44/19 404/45/19 403/46/19
f 403/46/20 404/45/20 408/47/20 407/48/20
f 407/48/21 408/47/21 406/49/21 405/50/21
f 405/50/22 406/49/22 402/51/22 401/52/22
f 403/53/23 407/48/23 405/50/23 401/54/23
f 408/47/24 404/55/24 402/56/24 406/49/24
f 409/43/19 410/44/19 412/45/19 411/46/19
f 411/46/20 412/45/20 416/47/20 415/48/20
f 415/48/21 416/47/21 414/49/21 413/50/21
f 413/50/22 414/49/22 410/51/22 409/52/22
f 411/53/23 415/48/23 413/50/23 409/54/23
f 416/47/24 412/55/24 410/56/24 414/49/24
f 417/43/19 418/44/19 420/45/19 419/46/19
f 419/46/20 420/45/20 424/47/20 423/48/20
f 423/48/21 424/47/21 422/49/21 421/50/21
f 421/50/22 422/49/22 418/51/22 417/52/22
f 419/53/23 423/48/23 421/50/23 417/54/23
f 424/47/24 420/55/24 418/56/24 422/49/24
f 425/43/19 426/44/19 428/45/19 427/46/19
f 427/46/20 428/45/20 432/47/20 431/48/20
f 431/48/21 432/47/21 430/49/21 429/50/21
f 429/50/22 430/49/22 426/51/22 425/52/22
f 427/53/23 431/48/23 429/50/23 425/54/23
f 432/47/24 428/55/24 426/56/24 430/49/24
f 433/43/19 434/44/19 436/45/19 435/46/19
f 435/46/20 436/45/20 440/47/20 439/48/20
f 439/48/21 440/47/21 438/49/21 437/50/21
f 437/50/22 438/49/22 434/51/22 433/52/22
f 435/53/23 439/48/23 437/50/23 433/54/23
f 440/47/24 436/55/24 434/56/24 438/49/24
f 441/43/19 442/44/19 444/45/19 443/46/19
f 443/46/20 444/45/20 448/47/20 447/48/20
f 447/48/21 448/47/21 446/49/21 445/50/21
f 445/50/22 446/49/22 442/51/22 441/52/22
f 443/53/23 447/48/23 445/50/23 441/54/23
f 448/47/24 444/55/24 442/56/24 446/49/24
f 449/43/19 450/44/19 452/45/19 451/46/19
f 451/46/20 452/45/20 456/47/20 455/48/20
f 455/48/21 456/47/21 454/49/21 453/50/21
f 453/50/22 454/49/22 450/51/22 449/52/22
f 451/53/23 455/48/23 453/50/23 449/54/23
f 456/47/24 452/55/24 450/56/24 454/49/24
f 457/43/19 458/44/19 460/45/19 459/46/19
f 459/46/20 460/45/20 464/47/20 463/48/20
f 463/48/21 464/47/21 462/49/21 461/50/21
f 461/50/22 462/49/22 458/51/22 457/52/22
f 459/53/23 463/48/23 461/50/23 457/54/23
f 464/47/24 460/55/24 458/56/24 462/49/24
f 465/43/19 466/44/19 468/45/19 467/46/19
f 467/46/20 468/45/20 472/47/20 471/48/20
f 471/48/21 472/47/21 470/49/21 469/50/21
f 469/50/22 470/49/22 466/51/22 465/52/22
f 467/53/23 471/48/23 469/50/23 465/54/23
f 472/47/24 468/55/24 466/56/24 470/49/24
f 473/43/19 474/44/19 476/45/19 475/46/19
f 475/46/20 476/45/20 480/47/20 479/48/20
f 479/48/21 480/47/21 478/49/21 477/50/21
f 477/50/22 478/49/22 474/51/22 473/52/22
f 475/53/23 479/48/23 477/50/23 473/54/23
f 480/47/24 476/55/24 474/56/24 478/49/24
f 481/43/19 482/44/19 484/45/19 483/46/19
f 483/46/20 484/45/20 488/47/20 487/48/20
f 487/48/21 488/47/21 486/49/21 485/50/21
f 485/50/22 486/49/22 482/51/22 481/52/22
f 483/53/23 487/48/23 485/50/23 481/54/23
f 488/47/24 484/55/24 482/56/24 486/49/24
f 489/43/19 490/44/19 492/45/19 491/46/19
f 491/46/20 492/45/20 496/47/20 495/48/20
f 495/48/21 496/47/21 494/49/21 493/50/21
f 493/50/22 494/49/22 490/51/22 489/52/22
f 491/53/23 495/48/23 493/50/23 489/54/23
f 496/47/24 492/55/24 490/56/24 494/49/24
f 497/43/19 498/44/19 500/45/19 499/46/19
f 499/46/20 500/45/20 504/47/20 503/48/20
f 503/48/21 504/47/21 502/49/21 501/50/21
f 501/50/22 502/49/22 498/51/22 497/52/22
f 499/53/23 503/48/23 501/50/23 497/54/23
f 504/47/24 500/55/24 498/56/24 502/49/24
f 505/43/19 506/44/19 508/45/19 507/46/19
f 507/46/20 508/45/20 512/47/20 511/48/20
f 511/48/21 512/47/21 510/49/21 509/50/21
f 509/50/22 510/49/22 506/51/22 505/52/22
f 507/53/23 511/48/23 509/50/23 505/54/23
f 512/47/24 508/55/24 506/56/24 510/49/24
f 513/43/19 514/44/19 516/45/19 515/46/19
f 515/46/20 516/45/20 520/47/20 519/48/20
f 519/48/21 520/47/21 518/49/21 517/50/21
f 517/50/22 518/49/22 514/51/22 513/52/22
f 515/53/23 519/48/23 517/50/23 513/54/23
f 520/47/24 516/55/24 514/56/24 518/49/24
f 521/43/19 522/44/19 524/45/19 523/46/19
f 523/46/20 524/45/20 528/47/20 527/48/20
f 527/48/21 528/47/21 526/49/21 525/50/21
f 525/50/22 526/49/22 522/51/22 521/52/22
f 523/53/23 527/48/23 525/50/23 521/54/23
f 528/47/24 524/55/24 522/56/24 526/49/24
f 529/43/19 530/44/19 532/45/19 531/46/19
f 531/46/20 532/45/20 536/47/20 535/48/20
f 535/48/21 536/47/21 534/49/21 533/50/21
f 533/50/22 534/49/22 530/51/22 529/52/22
f 531/53/23 535/48/23 533/50/23 529/54/23
f 536/47/24 532/55/24 530/56/24 534/49/24
f 537/43/19 538/44/19 540/45/19 539/46/19
f 539/46/20 540/45/20 544/47/20 543/48/20
f 543/48/21 544/47/21 542/49/21 541/50/21
f 541/50/22 542/49/22 538/51/22 537/52/22
f 539/53/23 543/48/23 541/50/23 537/54/23
f 544/47/24 540/55/24 538/56/24 542/49/24
f 545/43/19 546/44/19 548/45/19 547/46/19
f 547/46/20 548/45/20 552/47/20 551/48/20
f 551/48/21 552/47/21 550/49/21 549/50/21
f 549/50/22 550/49/22 546/51/22 545/52/22
f 547/53/23 551/48/23 549/50/23 545/54/23
f 552/47/24 548/55/24 546/56/24 550/49/24
f 553/43/19 554/44/19 556/45/19 555/46/19
f 555/46/20 556/45/20 560/47/20 559/48/20
f 559/48/21 560/47/21 558/49/21 557/50/21
f 557/50/22 558/49/22 554/51/22 553/52/22
f 555/53/23 559/48/23 557/50/23 553/54/23
f 560/47/24 556/55/24 554/56/24 558/49/24
f 561/43/19 562/44/19 564/45/19 563/46/19
f 563/46/20 564/45/20 568/47/20 567/48/20
f 567/48/21 568/47/21 566/49/21 565/50/21
f 565/50/22 566/49/22 562/51/22 561/52/22
f 563/53/23 567/48/23 565/50/23 561/54/23
f 568/47/24 564/55/24 562/56/24 566/49/24
f 569/43/19 570/44/19 572/45/19 571/46/19
f 571/46/20 572/45/20 576/47/20 575/48/20
f 575/48/21 576/47/21 574/49/21 573/50/21
f 573/50/22 574/49/22 570/51/22 569/52/22
f 571/53/23 575/48/23 573/50/23 569/54/23
f 576/47/24 572/55/24 570/56/24 574/49/24
f 577/43/19 578/44/19 580/45/19 579/46/19
f 579/46/20 580/45/20 584/47/20 583/48/20
f 583/48/21 584/47/21 582/49/21 581/50/21
f 581/50/22 582/49/22 578/51/22 577/52/22
f 579/53/23 583/48/23 581/50/23 577/54/23
f 584/47/24 580/55/24 578/56/24 582/49/24
f 585/43/19 586/44/19 588/45/19 587/46/19
f 587/46/20 588/45/20 592/47/20 591/48/20
f 591/48/21 592/47/21 590/49/21 589/50/21
f 589/50/22 590/49/22 586/51/22 585/52/22
f 587/53/23 591/48/23 589/50/23 585/54/23
f 592/47/24 588/55/24 586/56/24 590/49/24
f 593/43/19 594/44/19 596/45/19 595/46/19
f 595/46/20 596/45/20 600/47/20 599/48/20
f 599/48/21 600/47/21 598/49/21 597/50/21
f 597/50/22 598/49/22 594/51/22 593/52/22
f 595/53/23 599/48/23 597/50/23 593/54/23
f 600/47/24 596/55/24 594/56/24 598/49/24
f 601/43/19 602/44/19 604/45/19 603/46/19
f 603/46/20 604/45/20 608/47/20 607/48/20
f 607/48/21 608/47/21 606/49/21 605/50/21
f 605/50/22 606/49/22 602/51/22 601/52/22
f 603/53/23 607/48/23 605/50/23 601/54/23
f 608/47/24 604/55/24 602/56/24 606/49/24
f 609/43/19 610/44/19 612/45/19 611/46/19
f 611/46/20 612/45/20 616/47/20 615/48/20
f 615/48/21 616/47/21 614/49/21 613/50/21
f 613/50/22 614/49/22 610/51/22 609/52/22
f 611/53/23 615/48/23 613/50/23 609/54/23
f 616/47/24 612/55/24 610/56/24 614/49/24
f 617/43/19 618/44/19 620/45/19 619/46/19
f 619/46/20 620/45/20 624/47/20 623/48/20
f 623/48/21 624/47/21 622/49/21 621/50/21
f 621/50/22 622/49/22 618/51/22 617/52/22
f 619/53/23 623/48/23 621/50/23 617/54/23
f 624/47/24 620/55/24 618/56/24 622/49/24
f 625/43/19 626/44/19 628/45/19 627/46/19
f 627/46/20 628/45/20 632/47/20 631/48/20
f 631/48/21 632/47/21 630/49/21 629/50/21
f 629/50/22 630/49/22 626/51/22 625/52/22
f 627/53/23 631/48/23 629/50/23 625/54/23
f 632/47/24 628/55/24 626/56/24 630/49/24
f 633/43/19 634/44/19 636/45/19 635/46/19
f 635/46/20 636/45/20 640/47/20 639/48/20
f 639/48/21 640/47/21 638/49/21 637/50/21
f 637/50/22 638/49/22 634/51/22 633/52/22
f 635/53/23 639/48/23 637/50/23 633/54/23
f 640/47/24 636/55/24 634/56/24 638/49/24
f 641/43/19 642/44/19 644/45/19 643/46/19
f 643/46/20 644/45/20 648/47/20 647/48/20
f 647/48/21 648/47/21 646/49/21 645/50/21
f 645/50/22 646/49/22 642/51/22 641/52/22
f 643/53/23 647/48/23 645/50/23 641/54/23
f 648/47/24 644/55/24 642/56/24 646/49/24
f 649/43/19 650/44/19 652/45/19 651/46/19
f 651/46/20 652/45/20 656/47/20 655/48/20
f 655/48/21 656/47/21 654/49/21 653/50/21
f 653/50/22 654/49/22 650/51/22 649/52/22
f 651/53/23 655/48/23 653/50/23 649/54/23
f 656/47/24 652/55/24 650/56/24 654/49/24
f 657/43/19 658/44/19 660/45/19 659/46/19
f 659/46/20 660/45/20 664/47/20 663/48/20
f 663/48/21 664/47/21 662/49/21 661/50/21
f 661/50/22 662/49/22 658/51/22 657/52/22
f 659/53/23 663/48/23 661/50/23 657/54/23
f 664/47/24 660/55/24 658/56/24 662/49/24
f 665/43/19 666/44/19 668/45/19 667/46/19
f 667/46/20 668/45/20 672/47/20 671/48/20
f 671/48/21 672/47/21 670/49/21 669/50/21
f 669/50/22 670/49/22 666/51/22 665/52/22
f 667/53/23 671/48/23 669/50/23 665/54/23
f 672/47/24 668/55/24 666/56/24 670/49/24
f 673/43/19 674/44/19 676/45/19 675/46/19
f 675/46/20 676/45/20 680/47/20 679/48/20
f 679/48/21 680/47/21 678/49/21 677/50/21
f 677/50/22 678/49/22 674/51/22 673/52/22
f 675/53/23 679/48/23 677/50/23 673/54/23
f 680/47/24 676/55/24 674/56/24 678/49/24
f 681/43/19 682/44/19 684/45/19 683/46/19
f 683/46/20 684/45/20 688/47/20 687/48/20
f 687/48/21 688/47/21 686/49/21 685/50/21
f 685/50/22 686/49/22 682/51/22 681/52/22
f 683/53/23 687/48/23 685/50/23 681/54/23
f 688/47/24 684/55/24 682/56/24 686/49/24
f 689/43/19 690/44/19 692/45/19 691/46/19
f 691/46/20 692/45/20 696/47/20 695/48/20
f 695/48/21 696/47/21 694/49/21 693/50/21
f 693/50/22 694/49/22 690/51/22 689/52/22
f 691/53/23 695/48/23 693/50/23 689/54/23
f 696/47/24 692/55/24 690/56/24 694/49/24
f 697/43/19 698/44/19 700/45/19 699/46/19
f 699/46/20 700/45/20 704/47/20 703/48/20
f 703/48/21 704/47/21 702/49/21 701/50/21
f 701/50/22 702/49/22 698/51/22 697/52/22
f 699/53/23 703/48/23 701/50/23 697/54/23
f 704/47/24 700/55/24 698/56/24 702/49/24
f 705/43/25 706/44/25 708/45/25 707/46/25
f 707/46/26 708/45/26 712/47/26 711/48/26
f 711/48/27 712/47/27 710/49/27 709/50/27
f 709/50/28 710/49/28 706/51/28 705/52/28
f 707/53/29 711/48/29 709/50/29 705/54/29
f 712/47/30 708/55/30 706/56/30 710/49/30
f 713/43/25 714/44/25 716/45/25 715/46/25
f 715/46/26 716/45/26 720/47/26 719/48/26
f 719/48/27 720/47/27 718/49/27 717/50/27
f 717/50/28 718/49/28 714/51/28 713/52/28
f 715/53/29 719/48/29 717/50/29 713/54/29
f 720/47/30 716/55/30 714/56/30 718/49/30
f 721/43/25 722/44/25 724/45/25 723/46/25
f 723/46/26 724/45/26 728/47/26 727/48/26
f 727/48/27 728/47/27 726/49/27 725/50/27
f 725/50/28 726/49/28 722/51/28 721/52/28
f 723/53/29 727/48/29 725/50/29 721/54/29
f 728/47/30 724/55/30 722/56/30 726/49/30
f 729/43/25 730/44/25 732/45/25 731/46/25
f 731/46/26 732/45/26 736/47/26 735/48/26
f 735/48/27 736/47/27 734/49/27 733/50/27
f 733/50/28 734/49/28 730/51/28 729/52/28
f 731/53/29 735/48/29 733/50/29 729/54/29
f 736/47/30 732/55/30 730/56/30 734/49/30
f 737/43/25 738/44/25 740/45/25 739/46/25
f 739/46/26 740/45/26 744/47/26 743/48/26
f 743/48/27 744/47/27 742/49/27 741/50/27
f 741/50/28 742/49/28 738/51/28 737/52/28
f 739/53/29 743/48/29 741/50/29 737/54/29
f 744/47/30 740/55/30 738/56/30 742/49/30
f 745/43/25 746/44/25 748/45/25 747/46/25
f 747/46/26 748/45/26 752/47/26 751/48/26
f 751/48/27 752/47/27 750/49/27 749/50/27
f 749/50/28 750/49/28 746/51/28 745/52/28
f 747/53/29 751/48/29 749/50/29 745/54/29
f 752/47/30 748/55/30 746/56/30 750/49/30
f 753/43/25 754/44/25 756/45/25 755/46/25
f 755/46/26 756/45/26 760/47/26 759/48/26
f 759/48/27 760/47/27 758/49/27 757/50/27
f 757/50/28 758/49/28 754/51/28 753/52/28
f 755/53/29 759/48/29 757/50/29 753/54/29
f 760/47/30 756/55/30 754/56/30 758/49/30
f 761/43/25 762/44/25 764/45/25 763/46/25
f 763/46/26 764/45/26 768/47/26 767/48/26
f 767/48/27 768/47/27 766/49/27 765/50/27
f 765/50/28 766/49/28 762/51/28 761/52/28
f 763/53/29 767/48/29 765/50/29 761/54/29
f 768/47/30 764/55/30 762/56/30 766/49/30
f 769/43/25 770/44/25 772/45/25 771/46/25
f 771/46/26 772/45/26 776/47/26 775/48/26
f 775/48/27 776/47/27 774/49/27 773/50/27
f 773/50/28 774/49/28 770/51/28 769/52/28
f 771/53/29 775/48/29 773/50/29 769/54/29
f 776/47/30 772/55/30 770/56/30 774/49/30
f 777/43/25 778/44/25 780/45/25 779/46/25
f 779/46/26 780/45/26 784/47/26 783/48/26
f 783/48/27 784/47/27 782/49/27 781/50/27
f 781/50/28 782/49/28 778/51/28 777/52/28
f 779/53/29 783/48/29 781/50/29 777/54/29
f 784/47/30 780/55/30 778/56/30 782/49/30
f 785/43/25 786/44/25 788/45/25 787/46/25
f 787/46/26 788/45/26 792/47/26 791/48/26
f 791/48/27 792/47/27 790/49/27 789/50/27
f 789/50/28 790/49/28 786/51/28 785/52/28
f 787/53/29 791/48/29 789/50/29 785/54/29
f 792/47/30 788/55/30 786/56/30 790/49/30
f 793/43/25 794/44/25 796/45/25 795/46/25
f 795/46/26 796/45/26 800/47/26 799/48/26
f 799/48/27 800/47/27 798/49/27 797/50/27
f 797/50/28 798/49/28 794/51/28 793/52/28
f 795/53/29 799/48/29 797/50/29 793/54/29
f 800/47/30 796/55/30 794/56/30 798/49/30
f 801/43/25 802/44/25 804/45/25 803/46/25
f 803/46/26 804/45/26 808/47/26 807/48/26
f 807/48/27 808/47/27 806/49/27 805/50/27
f 805/50/28 806/49/28 802/51/28 801/52/28
f 803/53/29 807/48/29 805/50/29 801/54/29
f 808/47/30 804/55/30 802/56/30 806/49/30
f 809/43/25 810/44/25 812/45/25 811/46/25
f 811/46/26 812/45/26 816/47/26 815/48/26
f 815/48/27 816/47/27 814/49/27 813/50/27
f 813/50/28 814/49/28 810/51/28 809/52/28
f 811/53/29 815/48/29 813/50/29 809/54/29
f 816/47/30 812/55/30 810/56/30 814/49/30
f 817/43/25 818/44/25 820/45/25 819/46/25
f 819/46/26 820/45/26 824/47/26 823/48/26
f 823/48/27 824/47/27 822/49/27 821/50/27
f 821/50/28 822/49/28 818/51/28 817/52/28
f 819/53/29 823/48/29 821/50/29 817/54/29
f 824/47/30 820/55/30 818/56/30 822/49/30
f 825/43/25 826/44/25 828/45/25 827/46/25
f 827/46/26 828/45/26 832/47/26 831/48/26
f 831/48/27 832/47/27 830/49/27 829/50/27
f 829/50/28 830/49/28 826/51/28 825/52/28
f 827/53/29 831/48/29 829/50/29 825/54/29
f 832/47/30 828/55/30 826/56/30 830/49/30
f 833/43/25 834/44/25 836/45/25 835/46/25
f 835/46/26 836/45/26 840/47/26 839/48/26
f 839/48/27 840/47/27 838/49/27 837/50/27
f 837/50/28 838/49/28 834/51/28 833/52/28
f 835/53/29 839/48/29 837/50/29 833/54/29
f 840/47/30 836/55/30 834/56/30 838/49/30
f 841/43/25 842/44/25 844/45/25 843/46/25
f 843/46/26 844/45/26 848/47/26 847/48/26
f 847/48/27 848/47/27 846/49/27 845/50/27
f 845/50/28 846/49/28 842/51/28 841/52/28
f 843/53/29 847/48/29 845/50/29 841/54/29
f 848/47/30 844/55/30 842/56/30 846/49/30
f 849/43/25 850/44/25 852/45/25 851/46/25
f 851/46/26 852/45/26 856/47/26 855/48/26
f 855/48/27 856/47/27 854/49/27 853/50/27
f 853/50/28 854/49/28 850/51/28 849/52/28
f 851/53/29 855/48/29 853/50/29 849/54/29
f 856/47/30 852/55/30 850/56/30 854/49/30
f 857/43/25 858/44/25 860/45/25 859/46/25
f 859/46/26 860/45/26 864/47/26 863/48/26
f 863/48/27 864/47/27 862/49/27 861/50/27
f 861/50/28 862/49/28 858/51/28 857/52/28
f 859/53/29 863/48/29 861/50/29 857/54/29
f 864/47/30 860/55/30 858/56/30 862/49/30
f 865/43/25 866/44/25 868/45/25 867/46/25
f 867/46/26 868/45/26 872/47/26 871/48/26
f 871/48/27 872/47/27 870/49/27 869/50/27
f 869/50/28 870/49/28 866/51/28 865/52/28
f 867/53/29 871/48/29 869/50/29 865/54/29
f 872/47/30 868/55/30 866/56/30 870/49/30
f 873/43/25 874/44/25 876/45/25 875/46/25
f 875/46/26 876/45/26 880/47/26 879/48/26
f 879/48/27 880/47/27 878/49/27 877/50/27
f 877/50/28 878/49/28 874/51/28 873/52/28
f 875/53/29 879/48/29 877/50/29 873/54/29
f 880/47/30 876/55/30 874/56/30 878/49/30
f 881/43/25 882/44/25 884/45/25 883/46/25
f 883/46/26 884/45/26 888/47/26 887/48/26
f 887/48/27 888/47/27 886/49/27 885/50/27
f 885/50/28 886/49/28 882/51/28 881/52/28
f 883/53/29 887/48/29 885/50/29 881/54/29
f 888/47/30 884/55/30 882/56/30 886/49/30
f 889/43/25 890/44/25 892/45/25 891/46/25
f 891/46/26 892/45/26 896/47/26 895/48/26
f 895/48/27 896/47/27 894/49/27 893/50/27
f 893/50/28 894/49/28 890/51/28 889/52/28
f 891/53/29 895/48/29 893/50/29 889/54/29
f 896/47/30 892/55/30 890/56/30 894/49/30
f 897/43/25 898/44/25 900/45/25 899/46/25
f 899/46/26 900/45/26 904/47/26 903/48/26
f 903/48/27 904/47/27 902/49/27 901/50/27
f 901/50/28 902/49/28 898/51/28 897/52/28
f 899/53/29 903/48/29 901/50/29 897/54/29
f 904/47/30 900/55/30 898/56/30 902/49/30
f 905/43/25 906/44/25 908/45/25 907/46/25
f 907/46/26 908/45/26 912/47/26 911/48/26
f 911/48/27 912/47/27 910/49/27 909/50/27
f 909/50/28 910/49/28 906/51/28 905/52/28
f 907/53/29 911/48/29 909/50/29 905/54/29
f 912/47/30 908/55/30 906/56/30 910/49/30
f 913/43/25 914/44/25 916/45/25 915/46/25
f 915/46/26 916/45/26 920/47/26 919/48/26
f 919/48/27 920/47/27 918/49/27 917/50/27
f 917/50/28 918/49/28 914/51/28 913/52/28
f 915/53/29 919/48/29 917/50/29 913/54/29
f 920/47/30 916/55/30 914/56/30 918/49/30
f 921/43/25 922/44/25 924/45/25 923/46/25
f 923/46/26 924/45/26 928/47/26 927/48/26
f 927/48/27 928/47/27 926/49/27 925/50/27
f 925/50/28 926/49/28 922/51/28 921/52/28
f 923/53/29 927/48/29 925/50/29 921/54/29
f 928/47/30 924/55/30 922/56/30 926/49/30
f 929/43/25 930/44/25 932/45/25 931/46/25
f 931/46/26 932/45/26 936/47/26 935/48/26
f 935/48/27 936/47/27 934/49/27 933/50/27
f 933/50/28 934/49/28 930/51/28 929/52/28
f 931/53/29 935/48/29 933/50/29 929/54/29
f 936/47/30 932/55/30 930/56/30 934/49/30
f 937/43/25 938/44/25 940/45/25 939/46/25
f 939/46/26 940/45/26 944/47/26 943/48/26
f 943/48/27 944/47/27 942/49/27 941/50/27
f 941/50/28 942/49/28 938/51/28 937/52/28
f 939/53/29 943/48/29 941/50/29 937/54/29
f 944/47/30 940/55/30 938/56/30 942/49/30
f 945/43/25 946/44/25 948/45/25 947/46/25
f 947/46/26 948/45/26 952/47/26 951/48/26
f 951/48/27 952/47/27 950/49/27 949/50/27
f 949/50/28 950/49/28 946/51/28 945/52/28
f 947/53/29 951/48/29 949/50/29 945/54/29
f 952/47/30 948/55/30 946/56/30 950/49/30
f 953/43/25 954/44/25 956/45/25 955/46/25
f 955/46/26 956/45/26 960/47/26 959/48/26
f 959/48/27 960/47/27 958/49/27 957/50/27
f 957/50/28 958/49/28 954/51/28 953/52/28
f 955/53/29 959/48/29 957/50/29 953/54/29
f 960/47/30 956/55/30 954/56/30 958/49/30
f 961/43/25 962/44/25 964/45/25 963/46/25
f 963/46/26 964/45/26 968/47/26 967/48/26
f 967/48/27 968/47/27 966/49/27 965/50/27
f 965/50/28 966/49/28 962/51/28 961/52/28
f 963/53/29 967/48/29 965/50/29 961/54/29
f 968/47/30 964/55/30 962/56/30 966/49/30
f 969/43/25 970/44/25 972/45/25 971/46/25
f 971/46/26 972/45/26 976/47/26 975/48/26
f 975/48/27 976/47/27 974/49/27 973/50/27
f 973/50/28 974/49/28 970/51/28 969/52/28
f 971/53/29 975/48/29 973/50/29 969/54/29
f 976/47/30 972/55/30 970/56/30 974/49/30
f 977/43/25 978/44/25 980/45/25 979/46/25
f 979/46/26 980/45/26 984/47/26 983/48/26
f 983/48/27 984/47/27 982/49/27 981/50/27
f 981/50/28 982/49/28 978/51/28 977/52/28
f 979/53/29 983/48/29 981/50/29 977/54/29
f 984/47/30 980/55/30 978/56/30 982/49/30
f 985/43/25 986/44/25 988/45/25 987/46/25
f 987/46/26 988/45/26 992/47/26 991/48/26
f 991/48/27 992/47/27 990/49/27 989/50/27
f 989/50/28 990/49/28 986/51/28 985/52/28
f 987/53/29 991/48/29 989/50/29 985/54/29
f 992/47/30 988/55/30 986/56/30 990/49/30
f 993/43/25 994/44/25 996/45/25 995/46/25
f 995/46/26 996/45/26 1000/47/26 999/48/26
f 999/48/27 1000/47/27 998/49/27 997/50/27
f 997/50/28 998/49/28 994/51/28 993/52/28
f 995/53/29 999/48/29 997/50/29 993/54/29
f 1000/47/30 996/55/30 994/56/30 998/49/30
f 1001/43/25 1002/44/25 1004/45/25 1003/46/25
f 1003/46/26 1004/45/26 1008/47/26 1007/48/26
f 1007/48/27 1008/47/27 1006/49/27 1005/50/27
f 1005/50/28 1006/49/28 1002/51/28 1001/52/28
f 1003/53/29 1007/48/29 1005/50/29 1001/54/29
f 1008/47/30 1004/55/30 1002/56/30 1006/49/30
f 1009/43/25 1010/44/25 1012/45/25 1011/46/25
f 1011/46/26 1012/45/26 1016/47/26 1015/48/26
f 1015/48/27 1016/47/27 1014/49/27 1013/50/27
f 1013/50/28 1014/49/28 1010/51/28 1009/52/28
f 1011/53/29 1015/48/29 1013/50/29 1009/54/29
f 1016/47/30 1012/55/30 1010/56/30 1014/49/30
o Plane.007
v -73.320168 31.278862 -0.995115
v -46.252270 31.278862 0.618636
v -73.255730 31.278862 -1.956198
v -46.187828 31.278862 -0.342447
v -41.876862 31.278862 0.839865
v -41.812424 31.278862 -0.121219
v -42.662888 31.278862 -0.164220
v -42.727333 31.278862 0.796863
v -42.368484 31.278862 7.990871
v -43.218948 31.278862 7.947871
v -73.320168 30.734631 -0.995115
v -46.252270 30.734631 0.618636
v -73.255730 30.734631 -1.956198
v -46.187828 30.734631 -0.342447
v -41.876862 30.734631 0.839865
v -41.812424 30.734631 -0.121219
v -42.662888 30.734631 -0.164220
v -42.727333 30.734631 0.796863
v -42.368484 30.734631 7.990871
v -43.218948 30.734631 7.947871
vn -0.0000 1.0000 -0.0000
vn -0.0000 -1.0000 -0.0000
vn -0.9978 -0.0000 -0.0669
vn -0.0595 -0.0000 0.9982
vn 0.0595 -0.0000 -0.9982
vn 0.9978 -0.0000 0.0669
vn 0.0505 -0.0000 -0.9987
vn -0.0505 -0.0000 0.9987
vn 0.9976 -0.0000 0.0686
vn -0.9976 -0.0000 -0.0686
vt 0.000000 0.000000
vt 1.000000 0.000000
vt 1.000000 1.000000
vt 0.000000 1.000000
s 0
f 1017/57/31 1018/58/31 1020/59/31 1019/60/31
f 1023/59/31 1024/58/31 1021/58/31 1022/59/31
f 1020/59/31 1018/58/31 1024/58/31 1023/59/31
f 1021/58/31 1024/58/31 1026/58/31 1025/58/31
f 1027/57/32 1029/60/32 1030/59/32 1028/58/32
f 1033/59/32 1032/59/32 1031/58/32 1034/58/32
f 1030/59/32 1033/59/32 1034/58/32 1028/58/32
f 1031/58/32 1035/58/32 1036/58/32 1034/58/32
f 1017/57/33 1019/60/33 1029/60/33 1027/57/33
f 1018/58/34 1017/57/34 1027/57/34 1028/58/34
f 1019/60/35 1020/59/35 1030/59/35 1029/60/35
f 1022/59/36 1021/58/36 1031/58/36 1032/59/36
f 1020/59/37 1023/59/37 1033/59/37 1030/59/37
f 1023/59/37 1022/59/37 1032/59/37 1033/59/37
f 1024/58/38 1018/58/38 1028/58/38 1034/58/38
f 1025/58/38 1026/58/38 1036/58/38 1035/58/38
f 1021/58/39 1025/58/39 1035/58/39 1031/58/39
f 1026/58/40 1024/58/40 1034/58/40 1036/58/40
o Cube.010
v -25.722443 29.529205 2.754200
v -25.722443 30.333889 2.754200
v -25.662153 29.529205 1.951778
v -25.662153 30.333889 1.951778
v -23.785507 29.529205 2.899728
v -23.785507 30.333889 2.899728
v -23.725220 29.529205 2.097307
v -23.725220 30.333889 2.097307
v -22.332806 29.529205 3.008874
v -22.332806 30.333889 3.008874
v -22.272518 29.529205 2.206453
v -22.272518 30.333889 2.206453
v -20.395872 29.529205 3.154403
v -20.395872 30.333889 3.154403
v -20.335583 29.529205 2.351981
v -20.335583 30.333889 2.351981
v -18.943171 29.529205 3.263549
v -18.943171 30.333889 3.263549
v -18.882881 29.529205 2.461127
v -18.882881 30.333889 2.461127
v -17.006237 29.529205 3.409077
v -17.006237 30.333889 3.409077
v -16.945948 29.529205 2.606655
v -16.945948 30.333889 2.606655
v -15.553535 29.529205 3.518223
v -15.553535 30.333889 3.518223
v -15.493246 29.529205 2.715801
v -15.493246 30.333889 2.715801
v -13.616602 29.529205 3.663751
v -13.616601 30.333887 3.663751
v -13.556313 29.529205 2.861330
v -13.556312 30.333887 2.861330
v -12.163900 29.529205 3.772897
v -12.163899 30.333889 3.772897
v -12.103611 29.529205 2.970476
v -12.103610 30.333889 2.970476
v -10.226965 29.529203 3.918426
v -10.226965 30.333887 3.918426
v -10.166676 29.529203 3.116004
v -10.166676 30.333887 3.116004
v -8.774263 29.529205 4.027572
v -8.774263 30.333889 4.027572
v -8.713976 29.529205 3.225150
v -8.713976 30.333889 3.225150
v -6.837330 29.529203 4.173100
v -6.837330 30.333887 4.173100
v -6.777042 29.529203 3.370678
v -6.777042 30.333887 3.370678
v -5.384628 29.529205 4.282246
v -5.384628 30.333889 4.282246
v -5.324341 29.529205 3.479824
v -5.324341 30.333889 3.479824
v -3.447693 29.529203 4.427774
v -3.447693 30.333887 4.427774
v -3.387405 29.529203 3.625352
v -3.387405 30.333887 3.625352
v -1.994991 29.529205 4.536921
v -1.994991 30.333889 4.536921
v -1.934704 29.529205 3.734499
v -1.934704 30.333889 3.734499
v -0.058058 29.529203 4.682448
v -0.058056 30.333885 4.682448
v 0.002230 29.529203 3.880027
v 0.002232 30.333885 3.880027
v 1.394644 29.529205 4.791595
v 1.394644 30.333889 4.791595
v 1.454931 29.529205 3.989173
v 1.454931 30.333889 3.989173
v 3.331577 29.529202 4.937123
v 3.331579 30.333885 4.937123
v 3.391865 29.529202 4.134701
v 3.391867 30.333885 4.134701
v 4.784279 29.529205 5.046269
v 4.784281 30.333889 5.046269
v 4.844566 29.529205 4.243847
v 4.844568 30.333889 4.243847
v 6.721212 29.529202 5.191797
v 6.721216 30.333885 5.191797
v 6.781500 29.529202 4.389376
v 6.781504 30.333885 4.389376
v 8.173914 29.529205 5.300943
v 8.173918 30.333889 5.300943
v 8.234201 29.529205 4.498522
v 8.234205 30.333889 4.498522
v 10.110849 29.529202 5.446471
v 10.110849 30.333885 5.446471
v 10.171137 29.529202 4.644050
v 10.171137 30.333885 4.644050
v 11.563551 29.529205 5.555617
v 11.563555 30.333889 5.555617
v 11.623838 29.529205 4.753196
v 11.623842 30.333889 4.753196
v 13.500486 29.529202 5.701146
v 13.500486 30.333885 5.701146
v 13.560774 29.529202 4.898725
v 13.560774 30.333885 4.898724
v 14.953184 29.529207 5.810292
v 14.953188 30.333889 5.810292
v 15.013472 29.529205 5.007870
v 15.013475 30.333889 5.007870
v 16.890120 29.529202 5.955820
v 16.890120 30.333883 5.955820
v 16.950407 29.529202 5.153399
v 16.950407 30.333883 5.153399
v 18.342821 29.529207 6.064966
v 18.342821 30.333889 6.064966
v 18.403109 29.529205 5.262545
v 18.403109 30.333889 5.262545
v 20.279753 29.529200 6.210494
v 20.279753 30.333883 6.210494
v 20.340040 29.529200 5.408072
v 20.340040 30.333883 5.408072
v 21.732458 29.529207 6.319641
v 21.732458 30.333889 6.319640
v 21.792746 29.529205 5.517219
v 21.792746 30.333889 5.517219
v 23.669390 29.529200 6.465169
v 23.669390 30.333883 6.465169
v 23.729677 29.529200 5.662747
v 23.729677 30.333883 5.662746
v 25.122095 29.529207 6.574315
v 25.122095 30.333889 6.574315
v 25.182383 29.529205 5.771894
v 25.182383 30.333889 5.771893
v 27.059031 29.529200 6.719843
v 27.059031 30.333883 6.719843
v 27.119318 29.529200 5.917421
v 27.119318 30.333883 5.917421
v 28.511728 29.529207 6.828989
v 28.511728 30.333889 6.828989
v 28.572016 29.529207 6.026567
v 28.572016 30.333889 6.026567
v 30.448664 29.529200 6.974517
v 30.448664 30.333883 6.974517
v 30.508951 29.529200 6.172095
v 30.508951 30.333881 6.172095
v 31.901361 29.529207 7.083663
v 31.901361 30.333889 7.083663
v 31.961649 29.529207 6.281241
v 31.961649 30.333889 6.281241
v 33.838295 29.529200 7.229191
v 33.838295 30.333881 7.229191
v 33.898582 29.529198 6.426769
v 33.898582 30.333881 6.426769
v 35.291000 29.529207 7.338338
v 35.291000 30.333889 7.338338
v 35.351288 29.529207 6.535916
v 35.351288 30.333889 6.535916
v 37.227936 29.529198 7.483866
v 37.227936 30.333881 7.483866
v 37.288223 29.529198 6.681444
v 37.288223 30.333881 6.681444
v 38.680634 29.529207 7.593012
v 38.680641 30.333891 7.593013
v 38.740921 29.529207 6.790590
v 38.740929 30.333889 6.790591
v 40.617569 29.529198 7.738541
v 40.617577 30.333881 7.738541
v 40.677856 29.529198 6.936119
v 40.677864 30.333881 6.936119
v 42.070267 29.529207 7.847686
v 42.070274 30.333891 7.847687
v 42.130554 29.529207 7.045264
v 42.130562 30.333889 7.045265
v 44.007202 29.529198 7.993215
v 44.007210 30.333881 7.993215
v 44.067490 29.529198 7.190793
v 44.067497 30.333881 7.190793
v 45.459900 29.529207 8.102360
v 45.459908 30.333891 8.102361
v 45.520187 29.529207 7.299938
v 45.520195 30.333889 7.299938
v 47.396835 29.529198 8.247889
v 47.396835 30.333881 8.247889
v 47.457123 29.529198 7.445467
v 47.457123 30.333879 7.445466
v 48.849541 29.529207 8.357035
v 48.849548 30.333891 8.357036
v 48.909828 29.529207 7.554613
v 48.909836 30.333889 7.554613
v 50.786476 29.529198 8.502563
v 50.786476 30.333879 8.502563
v 50.846764 29.529196 7.700142
v 50.846764 30.333879 7.700141
v 52.239174 29.529207 8.611709
v 52.239182 30.333891 8.611710
v 52.299461 29.529207 7.809287
v 52.299469 30.333889 7.809287
v 54.176109 29.529196 8.757237
v 54.176109 30.333879 8.757237
v 54.236397 29.529196 7.954816
v 54.236397 30.333879 7.954815
v 55.628807 29.529207 8.866384
v 55.628815 30.333891 8.866384
v 55.689095 29.529207 8.063962
v 55.689102 30.333889 8.063962
v 57.565742 29.529196 9.011911
v 57.565750 30.333879 9.011912
v 57.626030 29.529196 8.209490
v 57.626038 30.333879 8.209490
v 59.018440 29.529207 9.121058
v 59.018448 30.333891 9.121058
v 59.078728 29.529207 8.318636
v 59.078735 30.333889 8.318636
v 60.955376 29.529196 9.266585
v 60.955383 30.333879 9.266586
v 61.015663 29.529196 8.464164
v 61.015671 30.333878 8.464165
v 62.408073 29.529207 9.375731
v 62.408081 30.333891 9.375731
v 62.468361 29.529207 8.573310
v 62.468369 30.333891 8.573310
v 64.345009 29.529196 9.521260
v 64.345016 30.333878 9.521260
v 64.405296 29.529194 8.718839
v 64.405304 30.333878 8.718839
v 65.797714 29.529207 9.630406
v 65.797722 30.333891 9.630406
v 65.858002 29.529207 8.827985
v 65.858009 30.333891 8.827985
v 67.734650 29.529194 9.775934
v 67.734657 30.333878 9.775935
v 67.794937 29.529194 8.973513
v 67.794945 30.333878 8.973514
v 69.187347 29.529207 9.885080
v 69.187355 30.333891 9.885080
v 69.247635 29.529207 9.082659
v 69.247643 30.333891 9.082659
v 71.124283 29.529194 10.030609
v 71.124290 30.333878 10.030609
v 71.184570 29.529194 9.228188
v 71.184578 30.333878 9.228188
v 72.576981 29.529207 10.139754
v 72.576988 30.333891 10.139754
v 72.637268 29.529207 9.337333
v 72.637276 30.333891 9.337333
v 74.513916 29.529194 10.285283
v 74.513924 30.333878 10.285283
v 74.574203 29.529194 9.482862
v 74.574211 30.333878 9.482862
vn -0.9972 -0.0000 -0.0749
vn 0.0749 -0.0000 -0.9972
vn 0.9972 -0.0000 0.0749
vn -0.0749 -0.0000 0.9972
vn -0.0000 -1.0000 -0.0000
vn -0.0000 1.0000 -0.0000
vt 0.375000 0.000000
vt 0.625000 0.000000
vt 0.625000 0.250000
vt 0.375000 0.250000
vt 0.625000 0.500000
vt 0.375000 0.500000
vt 0.625000 0.750000
vt 0.375000 0.750000
vt 0.625000 1.000000
vt 0.375000 1.000000
vt 0.125000 0.500000
vt 0.125000 0.750000
vt 0.875000 0.500000
vt 0.875000 0.750000
s 0
usemtl 
f 1037/61/41 1038/62/41 1040/63/41 1039/64/41
f 1039/64/42 1040/63/42 1044/65/42 1043/66/42
f 1043/66/43 1044/65/43 1042/67/43 1041/68/43
f 1041/68/44 1042/67/44 1038/69/44 1037/70/44
f 1039/71/45 1043/66/45 1041/68/45 1037/72/45
f 1044/65/46 1040/73/46 1038/74/46 1042/67/46
f 1045/61/41 1046/62/41 1048/63/41 1047/64/41
f 1047/64/42 1048/63/42 1052/65/42 1051/66/42
f 1051/66/43 1052/65/43 1050/67/43 1049/68/43
f 1049/68/44 1050/67/44 1046/69/44 1045/70/44
f 1047/71/45 1051/66/45 1049/68/45 1045/72/45
f 1052/65/46 1048/73/46 1046/74/46 1050/67/46
f 1053/61/41 1054/62/41 1056/63/41 1055/64/41
f 1055/64/42 1056/63/42 1060/65/42 1059/66/42
f 1059/66/43 1060/65/43 1058/67/43 1057/68/43
f 1057/68/44 1058/67/44 1054/69/44 1053/70/44
f 1055/71/45 1059/66/45 1057/68/45 1053/72/45
f 1060/65/46 1056/73/46 1054/74/46 1058/67/46
f 1061/61/41 1062/62/41 1064/63/41 1063/64/41
f 1063/64/42 1064/63/42 1068/65/42 1067/66/42
f 1067/66/43 1068/65/43 1066/67/43 1065/68/43
f 1065/68/44 1066/67/44 1062/69/44 1061/70/44
f 1063/71/45 1067/66/45 1065/68/45 1061/72/45
f 1068/65/46 1064/73/46 1062/74/46 1066/67/46
f 1069/61/41 1070/62/41 1072/63/41 1071/64/41
f 1071/64/42 1072/63/42 1076/65/42 1075/66/42
f 1075/66/43 1076/65/43 1074/67/43 1073/68/43
f 1073/68/44 1074/67/44 1070/69/44 1069/70/44
f 1071/71/45 1075/66/45 1073/68/45 1069/72/45
f 1076/65/46 1072/73/46 1070/74/46 1074/67/46
f 1077/61/41 1078/62/41 1080/63/41 1079/64/41
f 1079/64/42 1080/63/42 1084/65/42 1083/66/42
f 1083/66/43 1084/65/43 1082/67/43 1081/68/43
f 1081/68/44 1082/67/44 1078/69/44 1077/70/44
f 1079/71/45 1083/66/45 1081/68/45 1077/72/45
f 1084/65/46 1080/73/46 1078/74/46 1082/67/46
f 1085/61/41 1086/62/41 1088/63/41 1087/64/41
f 1087/64/42 1088/63/42 1092/65/42 1091/66/42
f 1091/66/43 1092/65/43 1090/67/43 1089/68/43
f 1089/68/44 1090/67/44 1086/69/44 1085/70/44
f 1087/71/45 1091/66/45 1089/68/45 1085/72/45
f 1092/65/46 1088/73/46 1086/74/46 1090/67/46
f 1093/61/41 1094/62/41 1096/63/41 1095/64/41
f 1095/64/42 1096/63/42 1100/65/42 1099/66/42
f 1099/66/43 1100/65/43 1098/67/43 1097/68/43
f 1097/68/44 1098/67/44 1094/69/44 1093/70/44
f 1095/71/45 1099/66/45 1097/68/45 1093/72/45
f 1100/65/46 1096/73/46 1094/74/46 1098/67/46
f 1101/61/41 1102/62/41 1104/63/41 1103/64/41
f 1103/64/42 1104/63/42 1108/65/42 1107/66/42
f 1107/66/43 1108/65/43 1106/67/43 1105/68/43
f 1105/68/44 1106/67/44 1102/69/44 1101/70/44
f 1103/71/45 1107/66/45 1105/68/45 1101/72/45
f 1108/65/46 1104/73/46 1102/74/46 1106/67/46
f 1109/61/41 1110/62/41 1112/63/41 1111/64/41
f 1111/64/42 1112/63/42 1116/65/42 1115/66/42
f 1115/66/43 1116/65/43 1114/67/43 1113/68/43
f 1113/68/44 1114/67/44 1110/69/44 1109/70/44
f 1111/71/45 1115/66/45 1113/68/45 1109/72/45
f 1116/65/46 1112/73/46 1110/74/46 1114/67/46
f 1117/61/41 1118/62/41 1120/63/41 1119/64/41
f 1119/64/42 1120/63/42 1124/65/42 1123/66/42
f 1123/66/43 1124/65/43 1122/67/43 1121/68/43
f 1121/68/44 1122/67/44 1118/69/44 1117/70/44
f 1119/71/45 1123/66/45 1121/68/45 1117/72/45
f 1124/65/46 1120/73/46 1118/74/46 1122/67/46
f 1125/61/41 1126/62/41 1128/63/41 1127/64/41
f 1127/64/42 1128/63/42 1132/65/42 1131/66/42
f 1131/66/43 1132/65/43 1130/67/43 1129/68/43
f 1129/68/44 1130/67/44 1126/69/44 1125/70/44
f 1127/71/45 1131/66/45 1129/68/45 1125/72/45
f 1132/65/46 1128/73/46 1126/74/46 1130/67/46
f 1133/61/41 1134/62/41 1136/63/41 1135/64/41
f 1135/64/42 1136/63/42 1140/65/42 1139/66/42
f 1139/66/43 1140/65/43 1138/67/43 1137/68/43
f 1137/68/44 1138/67/44 1134/69/44 1133/70/44
f 1135/71/45 1139/66/45 1137/68/45 1133/72/45
f 1140/65/46 1136/73/46 1134/74/46 1138/67/46
f 1141/61/41 1142/62/41 1144/63/41 1143/64/41
f 1143/64/42 1144/63/42 1148/65/42 1147/66/42
f 1147/66/43 1148/65/43 1146/67/43 1145/68/43
f 1145/68/44 1146/67/44 1142/69/44 1141/70/44
f 1143/71/45 1147/66/45 1145/68/45 1141/72/45
f 1148/65/46 1144/73/46 1142/74/46 1146/67/46
f 1149/61/41 1150/62/41 1152/63/41 1151/64/41
f 1151/64/42 1152/63/42 1156/65/42 1155/66/42
f 1155/66/43 1156/65/43 1154/67/43 1153/68/43
f 1153/68/44 1154/67/44 1150/69/44 1149/70/44
f 1151/71/45 1155/66/45 1153/68/45 1149/72/45
f 1156/65/46 1152/73/46 1150/74/46 1154/67/46
f 1157/61/41 1158/62/41 1160/63/41 1159/64/41
f 1159/64/42 1160/63/42 1164/65/42 1163/66/42
f 1163/66/43 1164/65/43 1162/67/43 1161/68/43
f 1161/68/44 1162/67/44 1158/69/44 1157/70/44
f 1159/71/45 1163/66/45 1161/68/45 1157/72/45
f 1164/65/46 1160/73/46 1158/74/46 1162/67/46
f 1165/61/41 1166/62/41 1168/63/41 1167/64/41
f 1167/64/42 1168/63/42 1172/65/42 1171/66/42
f 1171/66/43 1172/65/43 1170/67/43 1169/68/43
f 1169/68/44 1170/67/44 1166/69/44 1165/70/44
f 1167/71/45 1171/66/45 1169/68/45 1165/72/45
f 1172/65/46 1168/73/46 1166/74/46 1170/67/46
f 1173/61/41 1174/62/41 1176/63/41 1175/64/41
f 1175/64/42 1176/63/42 1180/65/42 1179/66/42
f 1179/66/43 1180/65/43 1178/67/43 1177/68/43
f 1177/68/44 1178/67/44 1174/69/44 1173/70/44
f 1175/71/45 1179/66/45 1177/68/45 1173/72/45
f 1180/65/46 1176/73/46 1174/74/46 1178/67/46
f 1181/61/41 1182/62/41 1184/63/41 1183/64/41
f 1183/64/42 1184/63/42 1188/65/42 1187/66/42
f 1187/66/43 1188/65/43 1186/67/43 1185/68/43
f 1185/68/44 1186/67/44 1182/69/44 1181/70/44
f 1183/71/45 1187/66/45 1185/68/45 1181/72/45
f 1188/65/46 1184/73/46 1182/74/46 1186/67/46
f 1189/61/41 1190/62/41 1192/63/41 1191/64/41
f 1191/64/42 1192/63/42 1196/65/42 1195/66/42
f 1195/66/43 1196/65/43 1194/67/43 1193/68/43
f 1193/68/44 1194/67/44 1190/69/44 1189/70/44
f 1191/71/45 1195/66/45 1193/68/45 1189/72/45
f 1196/65/46 1192/73/46 1190/74/46 1194/67/46
f 1197/61/41 1198/62/41 1200/63/41 1199/64/41
f 1199/64/42 1200/63/42 1204/65/42 1203/66/42
f 1203/66/43 1204/65/43 1202/67/43 1201/68/43
f 1201/68/44 1202/67/44 1198/69/44 1197/70/44
f 1199/71/45 1203/66/45 1201/68/45 1197/72/45
f 1204/65/46 1200/73/46 1198/74/46 1202/67/46
f 1205/61/41 1206/62/41 1208/63/41 1207/64/41
f 1207/64/42 1208/63/42 1212/65/42 1211/66/42
f 1211/66/43 1212/65/43 1210/67/43 1209/68/43
f 1209/68/44 1210/67/44 1206/69/44 1205/70/44
f 1207/71/45 1211/66/45 1209/68/45 1205/72/45
f 1212/65/46 1208/73/46 1206/74/46 1210/67/46
f 1213/61/41 1214/62/41 1216/63/41 1215/64/41
f 1215/64/42 1216/63/42 1220/65/42 1219/66/42
f 1219/66/43 1220/65/43 1218/67/43 1217/68/43
f 1217/68/44 1218/67/44 1214/69/44 1213/70/44
f 1215/71/45 1219/66/45 1217/68/45 1213/72/45
f 1220/65/46 1216/73/46 1214/74/46 1218/67/46
f 1221/61/41 1222/62/41 1224/63/41 1223/64/41
f 1223/64/42 1224/63/42 1228/65/42 1227/66/42
f 1227/66/43 1228/65/43 1226/67/43 1225/68/43
f 1225/68/44 1226/67/44 1222/69/44 1221/70/44
f 1223/71/45 1227/66/45 1225/68/45 1221/72/45
f 1228/65/46 1224/73/46 1222/74/46 1226/67/46
f 1229/61/41 1230/62/41 1232/63/41 1231/64/41
f 1231/64/42 1232/63/42 1236/65/42 1235/66/42
f 1235/66/43 1236/65/43 1234/67/43 1233/68/43
f 1233/68/44 1234/67/44 1230/69/44 1229/70/44
f 1231/71/45 1235/66/45 1233/68/45 1229/72/45
f 1236/65/46 1232/73/46 1230/74/46 1234/67/46
f 1237/61/41 1238/62/41 1240/63/41 1239/64/41
f 1239/64/42 1240/63/42 1244/65/42 1243/66/42
f 1243/66/43 1244/65/43 1242/67/43 1241/68/43
f 1241/68/44 1242/67/44 1238/69/44 1237/70/44
f 1239/71/45 1243/66/45 1241/68/45 1237/72/45
f 1244/65/46 1240/73/46 1238/74/46 1242/67/46
f 1245/61/41 1246/62/41 1248/63/41 1247/64/41
f 1247/64/42 1248/63/42 1252/65/42 1251/66/42
f 1251/66/43 1252/65/43 1250/67/43 1249/68/43
f 1249/68/44 1250/67/44 1246/69/44 1245/70/44
f 1247/71/45 1251/66/45 1249/68/45 1245/72/45
f 1252/65/46 1248/73/46 1246/74/46 1250/67/46
f 1253/61/41 1254/62/41 1256/63/41 1255/64/41
f 1255/64/42 1256/63/42 1260/65/42 1259/66/42
f 1259/66/43 1260/65/43 1258/67/43 1257/68/43
f 1257/68/44 1258/67/44 1254/69/44 1253/70/44
f 1255/71/45 1259/66/45 1257/68/45 1253/72/45
f 1260/65/46 1256/73/46 1254/74/46 1258/67/46
f 1261/61/41 1262/62/41 1264/63/41 1263/64/41
f 1263/64/42 1264/63/42 1268/65/42 1267/66/42
f 1267/66/43 1268/65/43 1266/67/43 1265/68/43
f 1265/68/44 1266/67/44 1262/69/44 1261/70/44
f 1263/71/45 1267/66/45 1265/68/45 1261/72/45
f 1268/65/46 1264/73/46 1262/74/46 1266/67/46
f 1269/61/41 1270/62/41 1272/63/41 1271/64/41
f 1271/64/42 1272/63/42 1276/65/42 1275/66/42
f 1275/66/43 1276/65/43 1274/67/43 1273/68/43
f 1273/68/44 1274/67/44 1270/69/44 1269/70/44
f 1271/71/45 1275/66/45 1273/68/45 1269/72/45
f 1276/65/46 1272/73/46 1270/74/46 1274/67/46
o Cube.011
v -30.464331 29.529205 -11.203104
v -30.464331 30.333889 -11.203104
v -29.661909 29.529205 -11.142816
v -29.661909 30.333889 -11.142816
v -30.609858 29.529205 -9.266170
v -30.609858 30.333889 -9.266170
v -29.807436 29.529205 -9.205881
v -29.807436 30.333889 -9.205881
v -30.649151 29.529205 -8.743197
v -30.649151 30.333889 -8.743197
v -29.846729 29.529205 -8.682909
v -29.846729 30.333889 -8.682909
v -30.794678 29.529205 -6.806263
v -30.794678 30.333889 -6.806262
v -29.992256 29.529205 -6.745975
v -29.992256 30.333889 -6.745974
v -30.833971 29.529205 -6.283290
v -30.833971 30.333889 -6.283290
v -30.031549 29.529205 -6.223001
v -30.031549 30.333889 -6.223001
v -30.979498 29.529205 -4.346356
v -30.979498 30.333889 -4.346356
v -30.177076 29.529205 -4.286068
v -30.177076 30.333889 -4.286067
v -31.018791 29.529205 -3.823383
v -31.018791 30.333889 -3.823383
v -30.216370 29.529205 -3.763095
v -30.216370 30.333889 -3.763094
v -31.164318 29.529205 -1.886449
v -31.164318 30.333887 -1.886448
v -30.361897 29.529205 -1.826160
v -30.361897 30.333887 -1.826159
v -31.203611 29.529205 -1.363476
v -31.203611 30.333889 -1.363475
v -30.401190 29.529205 -1.303187
v -30.401190 30.333889 -1.303186
v -31.349140 29.529203 0.573459
v -31.349140 30.333887 0.573459
v -30.546719 29.529203 0.633747
v -30.546719 30.333887 0.633747
vn 0.0749 -0.0000 -0.9972
vn 0.9972 -0.0000 0.0749
vn -0.0749 -0.0000 0.9972
vn -0.9972 -0.0000 -0.0749
vn -0.0000 -1.0000 -0.0000
vn -0.0000 1.0000 -0.0000
vt 0.375000 0.000000
vt 0.625000 0.000000
vt 0.625000 0.250000
vt 0.375000 0.250000
vt 0.625000 0.500000
vt 0.375000 0.500000
vt 0.625000 0.750000
vt 0.375000 0.750000
vt 0.625000 1.000000
vt 0.375000 1.000000
vt 0.125000 0.500000
vt 0.125000 0.750000
vt 0.875000 0.500000
vt 0.875000 0.750000
s 0
usemtl 
f 1277/75/47 1278/76/47 1280/77/47 1279/78/47
f 1279/78/48 1280/77/48 1284/79/48 1283/80/48
f 1283/80/49 1284/79/49 1282/81/49 1281/82/49
f 1281/82/50 1282/81/50 1278/83/50 1277/84/50
f 1279/85/51 1283/80/51 1281/82/51 1277/86/51
f 1284/79/52 1280/87/52 1278/88/52 1282/81/52
f 1285/75/47 1286/76/47 1288/77/47 1287/78/47
f 1287/78/48 1288/77/48 1292/79/48 1291/80/48
f 1291/80/49 1292/79/49 1290/81/49 1289/82/49
f 1289/82/50 1290/81/50 1286/83/50 1285/84/50
f 1287/85/51 1291/80/51 1289/82/51 1285/86/51
f 1292/79/52 1288/87/52 1286/88/52 1290/81/52
f 1293/75/47 1294/76/47 1296/77/47 1295/78/47
f 1295/78/48 1296/77/48 1300/79/48 1299/80/48
f 1299/80/49 1300/79/49 1298/81/49 1297/82/49
f 1297/82/50 1298/81/50 1294/83/50 1293/84/50
f 1295/85/51 1299/80/51 1297/82/51 1293/86/51
f 1300/79/52 1296/87/52 1294/88/52 1298/81/52
f 1301/75/47 1302/76/47 1304/77/47 1303/78/47
f 1303/78/48 1304/77/48 1308/79/48 1307/80/48
f 1307/80/49 1308/79/49 1306/81/49 1305/82/49
f 1305/82/50 1306/81/50 1302/83/50 1301/84/50
f 1303/85/51 1307/80/51 1305/82/51 1301/86/51
f 1308/79/52 1304/87/52 1302/88/52 1306/81/52
f 1309/75/47 1310/76/47 1312/77/47 1311/78/47
f 1311/78/48 1312/77/48 1316/79/48 1315/80/48
f 1315/80/49 1316/79/49 1314/81/49 1313/82/49
f 1313/82/50 1314/81/50 1310/83/50 1309/84/50
f 1311/85/51 1315/80/51 1313/82/51 1309/86/51
f 1316/79/52 1312/87/52 1310/88/52 1314/81/52
