# Blender 5.1.1
# www.blender.org
mtllib 3dr.mtl
o Plane.003
v -73.266518 30.217632 -4.523603
v -73.519768 30.217632 4.693428
v -73.266518 30.217632 -9.276978
v -64.216072 30.217632 -9.105455
v -14.574104 30.217632 9.846298
v -53.157444 30.217632 -14.070557
v 41.901085 30.217632 14.117947
v -28.848316 30.217632 -11.015666
v 41.859123 30.217632 -8.042519
v 4.321480 30.217632 -9.880080
v -13.745369 30.217632 -19.495552
v -0.344101 30.217632 -18.470680
v -10.609879 30.217632 -59.788918
v 2.791389 30.217632 -58.764046
v -20.456829 29.854736 -13.938112
v 1.157898 30.036596 -13.544304
v -57.299255 30.217632 -12.210968
v -36.651138 30.217632 8.723764
v -19.835590 30.217632 9.386353
v -54.144535 30.217632 -13.627372
v -34.650879 30.217632 14.085010
v -24.184597 30.217632 14.961448
v -34.871071 30.217632 20.984446
v -24.845181 30.217632 21.860884
v 24.061575 30.217632 13.358339
v -8.304670 30.217632 17.848745
v 19.576128 30.217632 19.984570
v 75.617310 30.217632 16.126123
v 75.575348 30.217632 -6.034342
v 8.726211 30.217632 11.964332
v 8.509616 30.217632 19.136812
v 18.815134 30.217632 26.376911
v 7.748623 30.217632 25.529156
v -73.266518 29.727633 -4.523603
v -73.519768 29.727633 4.693428
v -73.266518 29.727633 -9.276978
v -64.216072 29.727633 -9.105455
v -14.573963 29.727633 9.846885
v -53.157410 29.727633 -14.070413
v 41.901184 29.727633 14.118366
v -28.848106 29.727633 -11.014798
v 41.859230 29.727633 -8.042069
v 4.321689 29.727633 -9.879212
v -13.745243 29.727633 -19.495029
v -0.343985 29.727633 -18.470200
v -10.609879 29.727633 -59.788918
v 2.791389 29.727633 -58.764046
v -20.456619 29.364738 -13.937244
v 1.158107 29.546598 -13.543436
v -57.299255 29.727633 -12.210968
v -36.651138 29.727633 8.723764
v -19.835590 29.727633 9.386353
v -54.144535 29.727633 -13.627372
v -34.650879 29.727633 14.085010
v -24.184597 29.727633 14.961448
v -34.871071 29.727633 20.984446
v -24.845181 29.727633 21.860884
v 24.061729 29.727633 13.358985
v -8.304670 29.727633 17.848745
v 19.576128 29.727633 19.984570
v 75.617310 29.727633 16.126123
v 75.575348 29.727633 -6.034342
v 8.726315 29.727633 11.964766
v 8.509616 29.727633 19.136812
v 18.815134 29.727633 26.376911
v 7.748623 29.727633 25.529156
vn -0.0000 1.0000 -0.0000
vn -0.0004 1.0000 -0.0018
vn -0.0000 -1.0000 -0.0000
vn 0.0004 -1.0000 0.0018
vn -1.0000 -0.0000 -0.0000
vn -0.9996 -0.0000 -0.0275
vn 0.0189 -0.0000 -0.9998
vn -0.4096 -0.0000 -0.9123
vn -0.0871 0.0006 0.9962
vn -0.3290 -0.0018 -0.9443
vn 0.1247 -0.0010 -0.9922
vn -0.0425 0.0011 0.9991
vn 0.0489 -0.0013 -0.9988
vn 0.9565 -0.0001 -0.2916
vn 0.0763 -0.0000 -0.9971
vn -0.9970 -0.0002 -0.0776
vn 0.9970 0.0002 0.0776
vn -0.6378 -0.0013 -0.7702
vn 0.7569 -0.0008 -0.6535
vn -0.1087 -0.0000 0.9941
vn -0.4095 -0.0001 -0.9123
vn 0.7885 -0.0000 0.6151
vn -0.9369 -0.0000 0.3496
vn -0.0871 -0.0000 0.9962
vn 0.9954 -0.0000 0.0953
vn -0.9995 -0.0000 -0.0319
vn 0.8281 0.0005 0.5606
vn -0.7872 0.0003 0.6167
vn 1.0000 -0.0000 -0.0019
vn -0.0594 0.0004 0.9982
vn 0.0594 -0.0005 -0.9982
vn -0.0764 -0.0000 0.9971
vn 0.9930 -0.0000 0.1182
vn -0.9930 -0.0000 -0.1182
vt 0.000000 0.000000
vt 1.000000 0.000000
vt 1.000000 1.000000
vt 0.000000 1.000000
vt 1.000000 0.500000
vt 1.000000 0.750000
vt 1.000000 0.781250
vt 1.000000 0.812500
vt 1.000000 0.875000
vt 1.000000 0.937500
vt 1.000000 0.000000
s 0
f 1/1/1 2/2/1 4/3/1 3/4/1
f 20/3/1 19/2/1 5/2/1 6/3/1
f 6/3/2 5/2/2 30/2/2 25/2/2 7/2/2 9/5/2 10/6/2 16/7/2 12/8/2 11/9/2 15/10/2 8/3/2
f 11/9/1 12/8/1 14/8/1 13/9/1
f 4/3/1 2/2/1 18/11/1 17/3/1
f 17/3/1 18/11/1 19/2/1 20/3/1
f 19/2/1 18/11/1 21/11/1 22/2/1
f 22/2/1 21/11/1 23/11/1 24/2/1
f 30/2/1 5/2/1 26/2/1 31/2/1
f 9/5/1 7/2/1 28/2/1 29/5/1
f 25/2/1 30/2/1 31/2/1 27/2/1
f 27/2/1 31/2/1 33/2/1 32/2/1
f 34/1/3 36/4/3 37/3/3 35/2/3
f 53/3/3 39/3/3 38/2/3 52/2/3
f 39/3/4 41/3/4 48/10/4 44/9/4 45/8/4 49/7/4 43/6/4 42/5/4 40/2/4 58/2/4 63/2/4 38/2/4
f 44/9/3 46/9/3 47/8/3 45/8/3
f 37/3/3 50/3/3 51/11/3 35/2/3
f 50/3/3 53/3/3 52/2/3 51/11/3
f 52/2/3 55/2/3 54/11/3 51/11/3
f 55/2/3 57/2/3 56/11/3 54/11/3
f 63/2/3 64/2/3 59/2/3 38/2/3
f 42/5/3 62/5/3 61/2/3 40/2/3
f 58/2/3 60/2/3 64/2/3 63/2/3
f 60/2/3 65/2/3 66/2/3 64/2/3
f 1/1/5 3/4/5 36/4/5 34/1/5
f 2/2/6 1/1/6 34/1/6 35/2/6
f 3/4/7 4/3/7 37/3/7 36/4/7
f 4/3/8 17/3/8 50/3/8 37/3/8
f 5/2/9 19/2/9 52/2/9 38/2/9
f 8/3/10 15/10/10 48/10/10 41/3/10
f 6/3/11 8/3/11 41/3/11 39/3/11
f 7/2/12 25/2/12 58/2/12 40/2/12
f 10/6/13 9/5/13 42/5/13 43/6/13
f 12/8/14 16/7/14 49/7/14 45/8/14
f 13/9/15 14/8/15 47/8/15 46/9/15
f 11/9/16 13/9/16 46/9/16 44/9/16
f 14/8/17 12/8/17 45/8/17 47/8/17
f 15/10/18 11/9/18 44/9/18 48/10/18
f 16/7/19 10/6/19 43/6/19 49/7/19
f 17/3/8 20/3/8 53/3/8 50/3/8
f 18/11/20 2/2/20 35/2/20 51/11/20
f 20/3/21 6/3/21 39/3/21 53/3/21
f 19/2/22 22/2/22 55/2/22 52/2/22
f 21/11/23 18/11/23 51/11/23 54/11/23
f 24/2/24 23/11/24 56/11/24 57/2/24
f 22/2/25 24/2/25 57/2/25 55/2/25
f 23/11/26 21/11/26 54/11/26 56/11/26
f 25/2/27 27/2/27 60/2/27 58/2/27
f 26/2/28 5/2/28 38/2/28 59/2/28
f 29/5/29 28/2/29 61/2/29 62/5/29
f 28/2/30 7/2/30 40/2/30 61/2/30
f 9/5/31 29/5/31 62/5/31 42/5/31
f 31/2/32 26/2/32 59/2/32 64/2/32
f 32/2/32 33/2/32 66/2/32 65/2/32
f 27/2/33 32/2/33 65/2/33 60/2/33
f 33/2/34 31/2/34 64/2/34 66/2/34
