# Blender 5.1.1
# www.blender.org
mtllib 4.5zn.mtl
o Plane.012
v -28.479488 31.162865 -19.549988
v -13.881158 31.162865 -19.182997
v -25.961521 31.162865 -45.463882
v -11.686007 31.162865 -45.973595
v -26.591013 31.162865 -38.985409
v -27.220505 31.162865 -32.506935
v -27.849997 31.162865 -26.028461
v -13.103001 31.162865 -25.743023
v -12.630670 31.162865 -32.486549
v -12.280668 31.162865 -39.230072
v -28.479488 29.952866 -19.549988
v -13.881158 29.952866 -19.182997
v -25.961521 29.952866 -45.463882
v -11.686007 29.952866 -45.973595
v -26.591013 29.952866 -38.985409
v -27.220505 29.952866 -32.506935
v -27.849997 29.952866 -26.028461
v -13.103001 29.952866 -25.743023
v -12.630670 29.952866 -32.486549
v -12.280668 29.952866 -39.230072
vn -0.0000 1.0000 -0.0000
vn -0.0000 -1.0000 -0.0000
vn -0.9953 -0.0000 -0.0967
vn -0.0251 -0.0000 0.9997
vn 0.9961 -0.0000 0.0878
vn -0.0357 -0.0000 -0.9994
vn 0.9930 -0.0000 0.1178
vn 0.9976 -0.0000 0.0699
vn 0.9987 -0.0000 0.0518
vt 0.000000 0.750000
vt 1.000000 0.750000
vt 1.000000 1.000000
vt 0.000000 1.000000
vt 0.000000 0.000000
vt 1.000000 0.000000
vt 1.000000 0.250000
vt 0.000000 0.250000
vt 1.000000 0.500000
vt 0.000000 0.500000
s 0
f 5/1/1 10/2/1 4/3/1 3/4/1
f 1/5/1 2/6/1 8/7/1 7/8/1
f 7/8/1 8/7/1 9/9/1 6/10/1
f 6/10/1 9/9/1 10/2/1 5/1/1
f 15/1/2 13/4/2 14/3/2 20/2/2
f 11/5/2 17/8/2 18/7/2 12/6/2
f 17/8/2 16/10/2 19/9/2 18/7/2
f 16/10/2 15/1/2 20/2/2 19/9/2
f 1/5/3 7/8/3 17/8/3 11/5/3
f 2/6/4 1/5/4 11/5/4 12/6/4
f 4/3/5 10/2/5 20/2/5 14/3/5
f 3/4/6 4/3/6 14/3/6 13/4/6
f 5/1/3 3/4/3 13/4/3 15/1/3
f 6/10/3 5/1/3 15/1/3 16/10/3
f 7/8/3 6/10/3 16/10/3 17/8/3
f 8/7/7 2/6/7 12/6/7 18/7/7
f 9/9/8 8/7/8 18/7/8 19/9/8
f 10/2/9 9/9/9 19/9/9 20/2/9
o Plane.016
v 6.190133 31.162865 -17.014610
v 20.788464 31.162865 -16.647619
v 7.782192 31.162865 -45.463882
v 22.057707 31.162865 -45.973595
v 7.152700 31.162865 -38.985409
v 6.523209 31.162865 -32.506935
v 5.893717 31.162865 -26.028461
v 20.640713 31.162865 -25.743023
v 21.113045 31.162865 -32.486549
v 21.463045 31.162865 -39.230072
v 10.106620 31.162865 -16.890526
v 12.608950 31.162865 -45.636223
v 10.879889 31.162865 -25.931952
v 11.456243 31.162865 -32.500042
v 11.991234 31.162865 -39.068130
v 21.676289 31.162865 -13.603647
v 11.121872 31.162865 -13.719126
v 29.496008 31.162865 -16.265337
v 30.765253 31.162865 -45.591312
v 29.348257 31.162865 -25.360741
v 29.820589 31.162865 -32.104263
v 30.170591 31.162865 -38.847790
v 30.383833 31.162865 -13.221365
v 37.991173 31.162865 -15.968006
v 39.260422 31.162865 -45.293983
v 37.843422 31.162865 -25.063412
v 38.315758 31.162865 -31.806934
v 38.665756 31.162865 -38.550461
v 38.878998 31.162865 -12.924034
v 43.130753 31.162865 -15.585724
v 44.399994 31.162865 -44.911697
v 42.983002 31.162865 -24.681129
v 43.455330 31.162865 -31.424652
v 43.805336 31.162865 -38.168175
v 44.018578 31.162865 -12.541752
v 6.190133 29.952866 -17.014610
v 20.788464 29.952866 -16.647619
v 7.782192 29.952866 -45.463882
v 22.057707 29.952866 -45.973595
v 7.152700 29.952866 -38.985409
v 6.523209 29.952866 -32.506935
v 5.893717 29.952866 -26.028461
v 20.640713 29.952866 -25.743023
v 21.113045 29.952866 -32.486549
v 21.463045 29.952866 -39.230072
v 10.106620 29.952866 -16.890526
v 12.608950 29.952866 -45.636223
v 10.879889 29.952866 -25.931952
v 11.456243 29.952866 -32.500042
v 11.991234 29.952866 -39.068130
v 21.676289 29.952866 -13.603647
v 11.121872 29.952866 -13.719126
v 29.496008 29.952866 -16.265337
v 30.765253 29.952866 -45.591312
v 29.348257 29.952866 -25.360741
v 29.820589 29.952866 -32.104263
v 30.170591 29.952866 -38.847790
v 30.383833 29.952866 -13.221365
v 37.991173 29.952866 -15.968006
v 39.260422 29.952866 -45.293983
v 37.843422 29.952866 -25.063412
v 38.315758 29.952866 -31.806934
v 38.665756 29.952866 -38.550461
v 38.878998 29.952866 -12.924034
v 43.130753 29.952866 -15.585724
v 44.399994 29.952866 -44.911697
v 42.983002 29.952866 -24.681129
v 43.455330 29.952866 -31.424652
v 43.805336 29.952866 -38.168175
v 44.018578 29.952866 -12.541752
vn -0.0000 1.0000 -0.0000
vn -0.0000 -1.0000 -0.0000
vn -0.9995 -0.0000 0.0329
vn -0.0357 -0.0000 -0.9994
vn -0.9953 -0.0000 -0.0967
vn -0.0317 -0.0000 0.9995
vn -0.0109 -0.0000 0.9999
vn -0.9524 -0.0000 0.3049
vn 0.0439 -0.0000 -0.9990
vn -0.0439 -0.0000 0.9990
vn -0.0350 -0.0000 0.9994
vn 0.0350 -0.0000 -0.9994
vn 0.9961 -0.0000 0.0878
vn 0.9999 -0.0000 -0.0162
vn 0.9976 -0.0000 0.0699
vn 0.9987 -0.0000 0.0518
vn 0.9600 -0.0000 -0.2800
vn -0.0742 -0.0000 0.9972
vn 0.0742 -0.0000 -0.9972
vt 0.338114 0.750000
vt 1.000000 0.750000
vt 1.000000 1.000000
vt 0.338114 1.000000
vt 0.338114 0.000000
vt 1.000000 0.000000
vt 1.000000 0.250000
vt 0.338114 0.250000
vt 1.000000 0.500000
vt 0.338114 0.500000
vt 0.000000 0.500000
vt 0.000000 0.750000
vt 0.000000 0.250000
vt 0.000000 0.000000
vt 0.000000 1.000000
s 0
f 35/11/10 30/12/10 24/13/10 32/14/10
f 31/15/10 22/16/10 28/17/10 33/18/10
f 33/18/10 28/17/10 29/19/10 34/20/10
f 34/20/10 29/19/10 30/12/10 35/11/10
f 26/21/10 34/20/10 35/11/10 25/22/10
f 27/23/10 33/18/10 34/20/10 26/21/10
f 21/24/10 31/15/10 33/18/10 27/23/10
f 25/22/10 35/11/10 32/14/10 23/25/10
f 22/16/10 31/15/10 37/15/10 36/16/10
f 24/13/10 30/12/10 42/12/10 39/13/10
f 30/12/10 29/19/10 41/19/10 42/12/10
f 28/17/10 22/16/10 38/16/10 40/17/10
f 22/16/10 36/16/10 43/16/10 38/16/10
f 29/19/10 28/17/10 40/17/10 41/19/10
f 42/12/10 41/19/10 47/19/10 48/12/10
f 40/17/10 38/16/10 44/16/10 46/17/10
f 38/16/10 43/16/10 49/16/10 44/16/10
f 41/19/10 40/17/10 46/17/10 47/19/10
f 39/13/10 42/12/10 48/12/10 45/13/10
f 48/12/10 47/19/10 53/19/10 54/12/10
f 46/17/10 44/16/10 50/16/10 52/17/10
f 44/16/10 49/16/10 55/16/10 50/16/10
f 47/19/10 46/17/10 52/17/10 53/19/10
f 45/13/10 48/12/10 54/12/10 51/13/10
f 70/11/11 67/14/11 59/13/11 65/12/11
f 66/15/11 68/18/11 63/17/11 57/16/11
f 68/18/11 69/20/11 64/19/11 63/17/11
f 69/20/11 70/11/11 65/12/11 64/19/11
f 61/21/11 60/22/11 70/11/11 69/20/11
f 62/23/11 61/21/11 69/20/11 68/18/11
f 56/24/11 62/23/11 68/18/11 66/15/11
f 60/22/11 58/25/11 67/14/11 70/11/11
f 57/16/11 71/16/11 72/15/11 66/15/11
f 59/13/11 74/13/11 77/12/11 65/12/11
f 65/12/11 77/12/11 76/19/11 64/19/11
f 63/17/11 75/17/11 73/16/11 57/16/11
f 57/16/11 73/16/11 78/16/11 71/16/11
f 64/19/11 76/19/11 75/17/11 63/17/11
f 77/12/11 83/12/11 82/19/11 76/19/11
f 75/17/11 81/17/11 79/16/11 73/16/11
f 73/16/11 79/16/11 84/16/11 78/16/11
f 76/19/11 82/19/11 81/17/11 75/17/11
f 74/13/11 80/13/11 83/12/11 77/12/11
f 83/12/11 89/12/11 88/19/11 82/19/11
f 81/17/11 87/17/11 85/16/11 79/16/11
f 79/16/11 85/16/11 90/16/11 84/16/11
f 82/19/11 88/19/11 87/17/11 81/17/11
f 80/13/11 86/13/11 89/12/11 83/12/11
f 21/24/12 27/23/12 62/23/12 56/24/12
f 23/25/13 32/14/13 67/14/13 58/25/13
f 25/22/14 23/25/14 58/25/14 60/22/14
f 26/21/14 25/22/14 60/22/14 61/21/14
f 27/23/14 26/21/14 61/21/14 62/23/14
f 31/15/15 21/24/15 56/24/15 66/15/15
f 32/14/13 24/13/13 59/13/13 67/14/13
f 36/16/16 37/15/16 72/15/16 71/16/16
f 37/15/17 31/15/17 66/15/17 72/15/17
f 24/13/18 39/13/18 74/13/18 59/13/18
f 43/16/19 36/16/19 71/16/19 78/16/19
f 49/16/20 43/16/20 78/16/20 84/16/20
f 39/13/21 45/13/21 80/13/21 74/13/21
f 51/13/22 54/12/22 89/12/22 86/13/22
f 52/17/23 50/16/23 85/16/23 87/17/23
f 53/19/24 52/17/24 87/17/24 88/19/24
f 54/12/25 53/19/25 88/19/25 89/12/25
f 50/16/26 55/16/26 90/16/26 85/16/26
f 55/16/27 49/16/27 84/16/27 90/16/27
f 45/13/28 51/13/28 86/13/28 80/13/28
o Plane.017
v -82.279045 31.162865 50.362255
v 69.623779 31.162865 62.235466
v -79.761078 31.162865 24.448360
v 71.818932 31.162865 35.444866
v -80.390572 31.162865 30.926834
v -81.020058 31.162865 37.405308
v -81.649551 31.162865 43.883781
v 70.401939 31.162865 55.675438
v 70.874268 31.162865 48.931915
v 71.224266 31.162865 42.188389
v -82.279045 29.952866 50.362255
v 69.623779 29.952866 62.235466
v -79.761078 29.952866 24.448360
v 71.818932 29.952866 35.444866
v -80.390572 29.952866 30.926834
v -81.020058 29.952866 37.405308
v -81.649551 29.952866 43.883781
v 70.401939 29.952866 55.675438
v 70.874268 29.952866 48.931915
v 71.224266 29.952866 42.188389
vn -0.0000 1.0000 -0.0000
vn -0.0000 -1.0000 -0.0000
vn -0.9953 -0.0000 -0.0967
vn -0.0779 -0.0000 0.9970
vn 0.9961 -0.0000 0.0878
vn 0.0724 -0.0000 -0.9974
vn 0.9930 -0.0000 0.1178
vn 0.9976 -0.0000 0.0699
vn 0.9987 -0.0000 0.0518
vt 0.000000 0.750000
vt 1.000000 0.750000
vt 1.000000 1.000000
vt 0.000000 1.000000
vt 0.000000 0.000000
vt 1.000000 0.000000
vt 1.000000 0.250000
vt 0.000000 0.250000
vt 1.000000 0.500000
vt 0.000000 0.500000
s 0
f 95/26/29 100/27/29 94/28/29 93/29/29
f 91/30/29 92/31/29 98/32/29 97/33/29
f 97/33/29 98/32/29 99/34/29 96/35/29
f 96/35/29 99/34/29 100/27/29 95/26/29
f 105/26/30 103/29/30 104/28/30 110/27/30
f 101/30/30 107/33/30 108/32/30 102/31/30
f 107/33/30 106/35/30 109/34/30 108/32/30
f 106/35/30 105/26/30 110/27/30 109/34/30
f 91/30/31 97/33/31 107/33/31 101/30/31
f 92/31/32 91/30/32 101/30/32 102/31/32
f 94/28/33 100/27/33 110/27/33 104/28/33
f 93/29/34 94/28/34 104/28/34 103/29/34
f 95/26/31 93/29/31 103/29/31 105/26/31
f 96/35/31 95/26/31 105/26/31 106/35/31
f 97/33/31 96/35/31 106/35/31 107/33/31
f 98/32/35 92/31/35 102/31/35 108/32/35
f 99/34/36 98/32/36 108/32/36 109/34/36
f 100/27/37 99/34/37 109/34/37 110/27/37
