# Blender 5.1.1
# www.blender.org
mtllib 5.5zn.mtl
o Plane.010
v 10.969148 7.000000 12.363885
v 12.969148 7.000000 12.363885
v 10.969148 9.000000 12.363885
v 12.969148 9.000000 12.363885
v 10.969148 7.000000 12.213885
v 12.969148 7.000000 12.213885
v 10.969148 9.000000 12.213885
v 12.969148 9.000000 12.213885
vn -0.0000 -0.0000 1.0000
vn -0.0000 -0.0000 -1.0000
vn -1.0000 -0.0000 -0.0000
vn -0.0000 -1.0000 -0.0000
vn 1.0000 -0.0000 -0.0000
vn -0.0000 1.0000 -0.0000
vt 0.000000 0.000000
vt 1.000000 0.000000
vt 1.000000 1.000000
vt 0.000000 1.000000
s 0
f 1/1/1 2/2/1 4/3/1 3/4/1
f 5/1/2 7/4/2 8/3/2 6/2/2
f 1/1/3 3/4/3 7/4/3 5/1/3
f 2/2/4 1/1/4 5/1/4 6/2/4
f 4/3/5 2/2/5 6/2/5 8/3/5
f 3/4/6 4/3/6 8/3/6 7/4/6
o Cylinder.010
v 11.969148 0.000000 11.973885
v 11.969148 8.000000 11.973885
v 12.022723 0.000000 11.984542
v 12.022723 8.000000 11.984542
v 12.068143 0.000000 12.014890
v 12.068143 8.000000 12.014890
v 12.098491 0.000000 12.060309
v 12.098491 8.000000 12.060309
v 12.109148 0.000000 12.113885
v 12.109148 8.000000 12.113885
v 12.098491 0.000000 12.167460
v 12.098491 8.000000 12.167460
v 12.068143 0.000000 12.212880
v 12.068143 8.000000 12.212880
v 12.022723 0.000000 12.243228
v 12.022723 8.000000 12.243228
v 11.969148 0.000000 12.253885
v 11.969148 8.000000 12.253885
v 11.915572 0.000000 12.243228
v 11.915572 8.000000 12.243228
v 11.870152 0.000000 12.212880
v 11.870152 8.000000 12.212880
v 11.839805 0.000000 12.167460
v 11.839805 8.000000 12.167460
v 11.829147 0.000000 12.113885
v 11.829147 8.000000 12.113885
v 11.839805 0.000000 12.060309
v 11.839805 8.000000 12.060309
v 11.870152 0.000000 12.014890
v 11.870152 8.000000 12.014890
v 11.915572 0.000000 11.984542
v 11.915572 8.000000 11.984542
vn 0.1951 -0.0000 -0.9808
vn 0.5556 -0.0000 -0.8315
vn 0.8315 -0.0000 -0.5556
vn 0.9808 -0.0000 -0.1951
vn 0.9808 -0.0000 0.1951
vn 0.8315 -0.0000 0.5556
vn 0.5556 -0.0000 0.8315
vn 0.1951 -0.0000 0.9808
vn -0.1951 -0.0000 0.9808
vn -0.5556 -0.0000 0.8315
vn -0.8315 -0.0000 0.5556
vn -0.9808 -0.0000 0.1951
vn -0.9808 -0.0000 -0.1951
vn -0.8315 -0.0000 -0.5556
vn -0.0000 1.0000 -0.0000
vn -0.5556 -0.0000 -0.8315
vn -0.1951 -0.0000 -0.9808
vn -0.0000 -1.0000 -0.0000
vt 1.000000 0.500000
vt 1.000000 1.000000
vt 0.937500 1.000000
vt 0.937500 0.500000
vt 0.875000 1.000000
vt 0.875000 0.500000
vt 0.812500 1.000000
vt 0.812500 0.500000
vt 0.750000 1.000000
vt 0.750000 0.500000
vt 0.687500 1.000000
vt 0.687500 0.500000
vt 0.625000 1.000000
vt 0.625000 0.500000
vt 0.562500 1.000000
vt 0.562500 0.500000
vt 0.500000 1.000000
vt 0.500000 0.500000
vt 0.437500 1.000000
vt 0.437500 0.500000
vt 0.375000 1.000000
vt 0.375000 0.500000
vt 0.312500 1.000000
vt 0.312500 0.500000
vt 0.250000 1.000000
vt 0.250000 0.500000
vt 0.187500 1.000000
vt 0.187500 0.500000
vt 0.125000 1.000000
vt 0.125000 0.500000
vt 0.341844 0.471731
vt 0.250000 0.490000
vt 0.158156 0.471731
vt 0.080294 0.419706
vt 0.028269 0.341844
vt 0.010000 0.250000
vt 0.028269 0.158156
vt 0.080294 0.080294
vt 0.158156 0.028269
vt 0.250000 0.010000
vt 0.341844 0.028269
vt 0.419706 0.080294
vt 0.471731 0.158156
vt 0.490000 0.250000
vt 0.471731 0.341844
vt 0.419706 0.419706
vt 0.062500 1.000000
vt 0.062500 0.500000
vt 0.000000 1.000000
vt 0.000000 0.500000
vt 0.750000 0.490000
vt 0.841844 0.471731
vt 0.919706 0.419706
vt 0.971731 0.341844
vt 0.990000 0.250000
vt 0.971731 0.158156
vt 0.919706 0.080294
vt 0.841844 0.028269
vt 0.750000 0.010000
vt 0.658156 0.028269
vt 0.580294 0.080294
vt 0.528269 0.158156
vt 0.510000 0.250000
vt 0.528269 0.341844
vt 0.580294 0.419706
vt 0.658156 0.471731
s 0
f 9/5/7 10/6/7 12/7/7 11/8/7
f 11/8/8 12/7/8 14/9/8 13/10/8
f 13/10/9 14/9/9 16/11/9 15/12/9
f 15/12/10 16/11/10 18/13/10 17/14/10
f 17/14/11 18/13/11 20/15/11 19/16/11
f 19/16/12 20/15/12 22/17/12 21/18/12
f 21/18/13 22/17/13 24/19/13 23/20/13
f 23/20/14 24/19/14 26/21/14 25/22/14
f 25/22/15 26/21/15 28/23/15 27/24/15
f 27/24/16 28/23/16 30/25/16 29/26/16
f 29/26/17 30/25/17 32/27/17 31/28/17
f 31/28/18 32/27/18 34/29/18 33/30/18
f 33/30/19 34/29/19 36/31/19 35/32/19
f 35/32/20 36/31/20 38/33/20 37/34/20
f 12/35/21 10/36/21 40/37/21 38/38/21 36/39/21 34/40/21 32/41/21 30/42/21 28/43/21 26/44/21 24/45/21 22/46/21 20/47/21 18/48/21 16/49/21 14/50/21
f 37/34/22 38/33/22 40/51/22 39/52/22
f 39/52/23 40/51/23 10/53/23 9/54/23
f 9/55/24 11/56/24 13/57/24 15/58/24 17/59/24 19/60/24 21/61/24 23/62/24 25/63/24 27/64/24 29/65/24 31/66/24 33/67/24 35/68/24 37/69/24 39/70/24
