# Blender 5.1.1
# www.blender.org
mtllib 6zn.mtl
o Cylinder.008
v 3.394618 -1.345680 -14.075880
v 3.394618 10.216364 -14.075880
v 3.448193 -1.345680 -14.065223
v 3.448193 10.216364 -14.065223
v 3.493613 -1.345680 -14.034875
v 3.493613 10.216364 -14.034875
v 3.523961 -1.345680 -13.989455
v 3.523961 10.216364 -13.989455
v 3.534617 -1.345680 -13.935880
v 3.534617 10.216364 -13.935880
v 3.523961 -1.345680 -13.882304
v 3.523961 10.216364 -13.882304
v 3.493613 -1.345680 -13.836884
v 3.493613 10.216364 -13.836884
v 3.448193 -1.345680 -13.806537
v 3.448193 10.216364 -13.806537
v 3.394618 -1.345680 -13.795879
v 3.394618 10.216364 -13.795879
v 3.341042 -1.345680 -13.806537
v 3.341042 10.216364 -13.806537
v 3.295623 -1.345680 -13.836884
v 3.295623 10.216364 -13.836884
v 3.265275 -1.345680 -13.882304
v 3.265275 10.216364 -13.882304
v 3.254618 -1.345680 -13.935880
v 3.254618 10.216364 -13.935880
v 3.265275 -1.345680 -13.989455
v 3.265275 10.216364 -13.989455
v 3.295623 -1.345680 -14.034875
v 3.295623 10.216364 -14.034875
v 3.341042 -1.345680 -14.065223
v 3.341042 10.216364 -14.065223
v 2.342657 8.749969 -13.776799
v 4.446578 8.749969 -13.776799
v 3.283627 10.646958 -13.776798
v 3.505608 10.646958 -13.776798
v 3.394618 10.646958 -13.776798
v 2.394618 6.645769 -13.776799
v 4.394618 6.645769 -13.776799
v 2.394618 8.645769 -13.776798
v 4.394618 8.645769 -13.776798
v 2.394618 4.473839 -13.776799
v 4.394618 4.473839 -13.776799
v 2.394618 6.473839 -13.776798
v 4.394618 6.473839 -13.776798
v 2.394618 3.259155 -13.776799
v 4.394618 3.259155 -13.776799
v 2.394618 4.253956 -13.776799
v 4.394618 4.253956 -13.776799
v 3.283627 10.646958 -13.957231
v 2.342657 8.749969 -13.957231
v 4.446578 8.749969 -13.957231
v 3.505608 10.646958 -13.957231
v 3.394618 10.646958 -13.957231
v 2.394618 8.645769 -13.957231
v 2.394618 6.645769 -13.957231
v 4.394618 6.645769 -13.957231
v 4.394618 8.645769 -13.957231
v 2.394618 6.473839 -13.957231
v 2.394618 4.473839 -13.957231
v 4.394618 4.473839 -13.957231
v 4.394618 6.473839 -13.957231
vn 0.1951 -0.0000 -0.9808
vn 0.5556 -0.0000 -0.8315
vn 0.8315 -0.0000 -0.5556
vn 0.9808 -0.0000 -0.1951
vn 0.9808 -0.0000 0.1951
vn 0.8315 -0.0000 0.5556
vn 0.5556 -0.0000 0.8315
vn 0.1951 -0.0000 0.9808
vn -0.1951 -0.0000 0.9808
vn -0.5556 -0.0000 0.8315
vn -0.8315 -0.0000 0.5556
vn -0.9808 -0.0000 0.1951
vn -0.9808 -0.0000 -0.1951
vn -0.8315 -0.0000 -0.5556
vn -0.0000 1.0000 -0.0000
vn -0.5556 -0.0000 -0.8315
vn -0.1951 -0.0000 -0.9808
vn -0.0000 -1.0000 -0.0000
vn -0.0000 -0.0000 -1.0000
vn -0.0000 -0.0000 1.0000
vn 1.0000 -0.0000 -0.0000
vn -1.0000 -0.0000 -0.0000
vn 0.8958 -0.4444 -0.0000
vn -0.8958 -0.4444 -0.0000
vt 1.000000 0.500000
vt 1.000000 1.000000
vt 0.937500 1.000000
vt 0.937500 0.500000
vt 0.875000 1.000000
vt 0.875000 0.500000
vt 0.812500 1.000000
vt 0.812500 0.500000
vt 0.750000 1.000000
vt 0.750000 0.500000
vt 0.687500 1.000000
vt 0.687500 0.500000
vt 0.625000 1.000000
vt 0.625000 0.500000
vt 0.562500 1.000000
vt 0.562500 0.500000
vt 0.500000 1.000000
vt 0.500000 0.500000
vt 0.437500 1.000000
vt 0.437500 0.500000
vt 0.375000 1.000000
vt 0.375000 0.500000
vt 0.312500 1.000000
vt 0.312500 0.500000
vt 0.250000 1.000000
vt 0.250000 0.500000
vt 0.187500 1.000000
vt 0.187500 0.500000
vt 0.125000 1.000000
vt 0.125000 0.500000
vt 0.341844 0.471731
vt 0.250000 0.490000
vt 0.158156 0.471731
vt 0.080294 0.419706
vt 0.028269 0.341844
vt 0.010000 0.250000
vt 0.028269 0.158156
vt 0.080294 0.080294
vt 0.158156 0.028269
vt 0.250000 0.010000
vt 0.341844 0.028269
vt 0.419706 0.080294
vt 0.471731 0.158156
vt 0.490000 0.250000
vt 0.471731 0.341844
vt 0.419706 0.419706
vt 0.062500 1.000000
vt 0.062500 0.500000
vt 0.000000 1.000000
vt 0.000000 0.500000
vt 0.750000 0.490000
vt 0.841844 0.471731
vt 0.919706 0.419706
vt 0.971731 0.341844
vt 0.990000 0.250000
vt 0.971731 0.158156
vt 0.919706 0.080294
vt 0.841844 0.028269
vt 0.750000 0.010000
vt 0.658156 0.028269
vt 0.580294 0.080294
vt 0.528269 0.158156
vt 0.510000 0.250000
vt 0.528269 0.341844
vt 0.580294 0.419706
vt 0.658156 0.471731
vt 0.000000 0.000000
vt 1.000000 0.000000
s 0
f 1/1/1 2/2/1 4/3/1 3/4/1
f 3/4/2 4/3/2 6/5/2 5/6/2
f 5/6/3 6/5/3 8/7/3 7/8/3
f 7/8/4 8/7/4 10/9/4 9/10/4
f 9/10/5 10/9/5 12/11/5 11/12/5
f 11/12/6 12/11/6 14/13/6 13/14/6
f 13/14/7 14/13/7 16/15/7 15/16/7
f 15/16/8 16/15/8 18/17/8 17/18/8
f 17/18/9 18/17/9 20/19/9 19/20/9
f 19/20/10 20/19/10 22/21/10 21/22/10
f 21/22/11 22/21/11 24/23/11 23/24/11
f 23/24/12 24/23/12 26/25/12 25/26/12
f 25/26/13 26/25/13 28/27/13 27/28/13
f 27/28/14 28/27/14 30/29/14 29/30/14
f 4/31/15 2/32/15 32/33/15 30/34/15 28/35/15 26/36/15 24/37/15 22/38/15 20/39/15 18/40/15 16/41/15 14/42/15 12/43/15 10/44/15 8/45/15 6/46/15
f 29/30/16 30/29/16 32/47/16 31/48/16
f 31/48/17 32/47/17 2/49/17 1/50/17
f 1/51/18 3/52/18 5/53/18 7/54/18 9/55/18 11/56/18 13/57/18 15/58/18 17/59/18 19/60/18 21/61/18 23/62/18 25/63/18 27/64/18 29/65/18 31/66/18
f 33/67/19 35/49/19 37/17/19 36/2/19 34/68/19
f 38/67/19 40/49/19 41/2/19 39/68/19
f 42/67/19 44/49/19 45/2/19 43/68/19
f 46/67/20 47/68/20 49/2/20 48/49/20
f 51/67/20 52/68/20 53/2/20 54/17/20 50/49/20
f 56/67/20 57/68/20 58/2/20 55/49/20
f 60/67/20 61/68/20 62/2/20 59/49/20
f 40/49/21 38/67/21 56/67/21 55/49/21
f 38/67/15 39/68/15 57/68/15 56/67/15
f 39/68/22 41/2/22 58/2/22 57/68/22
f 35/49/23 33/67/23 51/67/23 50/49/23
f 41/2/18 40/49/18 55/49/18 58/2/18
f 33/67/15 34/68/15 52/68/15 51/67/15
f 44/49/21 42/67/21 60/67/21 59/49/21
f 34/68/24 36/2/24 53/2/24 52/68/24
f 42/67/15 43/68/15 61/68/15 60/67/15
f 37/17/18 35/49/18 50/49/18 54/17/18
f 43/68/22 45/2/22 62/2/22 61/68/22
f 36/2/18 37/17/18 54/17/18 53/2/18
f 45/2/18 44/49/18 59/49/18 62/2/18
