# Blender 5.1.1
# www.blender.org
mtllib 7zn.mtl
o Cylinder.009
v 7.850941 0.000000 -14.075880
v 7.850941 8.000000 -14.075880
v 7.904516 0.000000 -14.065223
v 7.904516 8.000000 -14.065223
v 7.949936 0.000000 -14.034875
v 7.949936 8.000000 -14.034875
v 7.980284 0.000000 -13.989455
v 7.980284 8.000000 -13.989455
v 7.990941 0.000000 -13.935880
v 7.990941 8.000000 -13.935880
v 7.980284 0.000000 -13.882304
v 7.980284 8.000000 -13.882304
v 7.949936 0.000000 -13.836884
v 7.949936 8.000000 -13.836884
v 7.904516 0.000000 -13.806537
v 7.904516 8.000000 -13.806537
v 7.850941 0.000000 -13.795879
v 7.850941 8.000000 -13.795879
v 7.797365 0.000000 -13.806537
v 7.797365 8.000000 -13.806537
v 7.751946 0.000000 -13.836884
v 7.751946 8.000000 -13.836884
v 7.721598 0.000000 -13.882304
v 7.721598 8.000000 -13.882304
v 7.710941 0.000000 -13.935880
v 7.710941 8.000000 -13.935880
v 7.721598 0.000000 -13.989455
v 7.721598 8.000000 -13.989455
v 7.751946 0.000000 -14.034875
v 7.751946 8.000000 -14.034875
v 7.797365 0.000000 -14.065223
v 7.797365 8.000000 -14.065223
v 7.904515 9.469957 -14.065223
v 7.850939 9.469957 -14.075880
v 7.949934 9.469957 -14.034875
v 7.980282 9.469957 -13.989455
v 7.990939 9.469957 -13.935880
v 7.980282 9.469957 -13.882304
v 7.949934 9.469957 -13.836884
v 7.904515 9.469957 -13.806537
v 7.850939 9.469957 -13.795879
v 7.797363 9.469957 -13.806537
v 7.751944 9.469957 -13.836884
v 7.721596 9.469957 -13.882304
v 7.710939 9.469957 -13.935880
v 7.721596 9.469957 -13.989455
v 7.751944 9.469957 -14.034875
v 7.797363 9.469957 -14.065223
v 7.833785 9.014838 -13.729357
v 7.833785 9.014838 -13.802849
v 8.028875 8.995624 -13.729357
v 8.028875 8.995623 -13.802849
v 8.216469 8.938718 -13.729357
v 8.216469 8.938717 -13.802849
v 8.389355 8.846308 -13.729357
v 8.389355 8.846308 -13.802849
v 8.540892 8.721945 -13.729357
v 8.540892 8.721945 -13.802849
v 8.665255 8.570409 -13.729357
v 8.665255 8.570408 -13.802849
v 8.757665 8.397522 -13.729357
v 8.757665 8.397522 -13.802849
v 8.814570 8.209929 -13.729357
v 8.814570 8.209929 -13.802849
v 8.833785 8.014838 -13.729357
v 8.833785 8.014837 -13.802849
v 8.814570 7.819748 -13.729357
v 8.814570 7.819747 -13.802849
v 8.757665 7.632154 -13.729357
v 8.757665 7.632154 -13.802849
v 8.665255 7.459268 -13.729357
v 8.665255 7.459267 -13.802849
v 8.540892 7.307732 -13.729357
v 8.540892 7.307731 -13.802849
v 8.389355 7.183369 -13.729357
v 8.389355 7.183368 -13.802849
v 8.216469 7.090959 -13.729357
v 8.216469 7.090958 -13.802849
v 8.028875 7.034053 -13.729357
v 8.028875 7.034052 -13.802849
v 7.833785 7.014838 -13.729357
v 7.833785 7.014838 -13.802849
v 7.638694 7.034053 -13.729357
v 7.638694 7.034052 -13.802849
v 7.451102 7.090959 -13.729357
v 7.451102 7.090958 -13.802849
v 7.278215 7.183369 -13.729357
v 7.278215 7.183368 -13.802849
v 7.126678 7.307732 -13.729357
v 7.126678 7.307731 -13.802849
v 7.002315 7.459268 -13.729357
v 7.002315 7.459267 -13.802849
v 6.909906 7.632154 -13.729357
v 6.909906 7.632154 -13.802849
v 6.853000 7.819748 -13.729357
v 6.853000 7.819747 -13.802849
v 6.833785 8.014838 -13.729357
v 6.833785 8.014837 -13.802849
v 6.853000 8.209929 -13.729357
v 6.853000 8.209929 -13.802849
v 6.909906 8.397522 -13.729357
v 6.909906 8.397522 -13.802849
v 7.002315 8.570409 -13.729357
v 7.002315 8.570408 -13.802849
v 7.126678 8.721945 -13.729357
v 7.126678 8.721945 -13.802849
v 7.278215 8.846308 -13.729357
v 7.278215 8.846308 -13.802849
v 7.451102 8.938718 -13.729357
v 7.451102 8.938717 -13.802849
v 7.638694 8.995624 -13.729357
v 7.638694 8.995623 -13.802849
v 6.798980 9.104199 -13.835879
v 8.902902 9.104199 -13.835879
v 7.739950 11.001189 -13.835879
v 7.961931 11.001189 -13.835879
v 7.850941 11.001189 -13.835879
vn 0.1951 -0.0000 -0.9808
vn 0.5556 -0.0000 -0.8315
vn 0.8315 -0.0000 -0.5556
vn 0.9808 -0.0000 -0.1951
vn 0.9808 -0.0000 0.1951
vn 0.8315 -0.0000 0.5556
vn 0.5556 -0.0000 0.8315
vn 0.1951 -0.0000 0.9808
vn -0.1951 -0.0000 0.9808
vn -0.5556 -0.0000 0.8315
vn -0.8315 -0.0000 0.5556
vn -0.9808 -0.0000 0.1951
vn -0.9808 -0.0000 -0.1951
vn -0.8315 -0.0000 -0.5556
vn -0.5556 -0.0000 -0.8315
vn -0.1951 -0.0000 -0.9808
vn -0.0000 -1.0000 -0.0000
vn -0.0000 1.0000 -0.0000
vn -0.0980 -0.9952 -0.0000
vn -0.2903 -0.9569 -0.0000
vn -0.4714 -0.8819 -0.0000
vn -0.6344 -0.7730 -0.0000
vn -0.7730 -0.6344 -0.0000
vn -0.8819 -0.4714 -0.0000
vn -0.9569 -0.2903 -0.0000
vn -0.9952 -0.0980 -0.0000
vn -0.9952 0.0980 -0.0000
vn -0.9569 0.2903 -0.0000
vn -0.8819 0.4714 -0.0000
vn -0.7730 0.6344 -0.0000
vn -0.6344 0.7730 -0.0000
vn -0.4714 0.8819 -0.0000
vn -0.2903 0.9569 -0.0000
vn -0.0980 0.9952 -0.0000
vn 0.0980 0.9952 -0.0000
vn 0.2903 0.9569 -0.0000
vn 0.4714 0.8819 -0.0000
vn 0.6344 0.7730 -0.0000
vn 0.7730 0.6344 -0.0000
vn 0.8819 0.4714 -0.0000
vn 0.9569 0.2903 -0.0000
vn 0.9952 0.0980 -0.0000
vn 0.9952 -0.0980 -0.0000
vn 0.9569 -0.2903 -0.0000
vn 0.8819 -0.4714 -0.0000
vn 0.7730 -0.6344 -0.0000
vn 0.6344 -0.7730 -0.0000
vn 0.4714 -0.8819 -0.0000
vn -0.0000 -0.0000 1.0000
vn 0.2903 -0.9569 -0.0000
vn 0.0980 -0.9952 -0.0000
vn -0.0000 -0.0000 -1.0000
vt 1.000000 0.500000
vt 1.000000 1.000000
vt 0.937500 1.000000
vt 0.937500 0.500000
vt 0.875000 1.000000
vt 0.875000 0.500000
vt 0.812500 1.000000
vt 0.812500 0.500000
vt 0.750000 1.000000
vt 0.750000 0.500000
vt 0.687500 1.000000
vt 0.687500 0.500000
vt 0.625000 1.000000
vt 0.625000 0.500000
vt 0.562500 1.000000
vt 0.562500 0.500000
vt 0.500000 1.000000
vt 0.500000 0.500000
vt 0.437500 1.000000
vt 0.437500 0.500000
vt 0.375000 1.000000
vt 0.375000 0.500000
vt 0.312500 1.000000
vt 0.312500 0.500000
vt 0.250000 1.000000
vt 0.250000 0.500000
vt 0.187500 1.000000
vt 0.187500 0.500000
vt 0.125000 1.000000
vt 0.125000 0.500000
vt 0.062500 1.000000
vt 0.062500 0.500000
vt 0.000000 1.000000
vt 0.000000 0.500000
vt 0.750000 0.490000
vt 0.841844 0.471731
vt 0.919706 0.419706
vt 0.971731 0.341844
vt 0.990000 0.250000
vt 0.971731 0.158156
vt 0.919706 0.080294
vt 0.841844 0.028269
vt 0.750000 0.010000
vt 0.658156 0.028269
vt 0.580294 0.080294
vt 0.528269 0.158156
vt 0.510000 0.250000
vt 0.528269 0.341844
vt 0.580294 0.419706
vt 0.658156 0.471731
vt 0.341844 0.471731
vt 0.250000 0.490000
vt 0.158156 0.471731
vt 0.080294 0.419706
vt 0.028269 0.341844
vt 0.010000 0.250000
vt 0.028269 0.158156
vt 0.080294 0.080294
vt 0.158156 0.028269
vt 0.250000 0.010000
vt 0.341844 0.028269
vt 0.419706 0.080294
vt 0.471731 0.158156
vt 0.490000 0.250000
vt 0.471731 0.341844
vt 0.419706 0.419706
vt 0.968750 1.000000
vt 0.968750 0.500000
vt 0.906250 1.000000
vt 0.906250 0.500000
vt 0.843750 1.000000
vt 0.843750 0.500000
vt 0.781250 1.000000
vt 0.781250 0.500000
vt 0.718750 1.000000
vt 0.718750 0.500000
vt 0.656250 1.000000
vt 0.656250 0.500000
vt 0.593750 1.000000
vt 0.593750 0.500000
vt 0.531250 1.000000
vt 0.531250 0.500000
vt 0.468750 1.000000
vt 0.468750 0.500000
vt 0.406250 1.000000
vt 0.406250 0.500000
vt 0.343750 1.000000
vt 0.343750 0.500000
vt 0.281250 1.000000
vt 0.281250 0.500000
vt 0.218750 1.000000
vt 0.218750 0.500000
vt 0.156250 1.000000
vt 0.156250 0.500000
vt 0.093750 1.000000
vt 0.093750 0.500000
vt 0.296822 0.485388
vt 0.203178 0.485388
vt 0.158156 0.471731
vt 0.116663 0.449553
vt 0.080294 0.419706
vt 0.050447 0.383337
vt 0.028269 0.341844
vt 0.014612 0.296822
vt 0.010000 0.250000
vt 0.014612 0.203178
vt 0.028269 0.158156
vt 0.050447 0.116663
vt 0.080294 0.080294
vt 0.116663 0.050447
vt 0.158156 0.028269
vt 0.203178 0.014612
vt 0.296822 0.014612
vt 0.341844 0.028269
vt 0.383337 0.050447
vt 0.419706 0.080294
vt 0.449553 0.116663
vt 0.471731 0.158156
vt 0.485388 0.203178
vt 0.485388 0.296822
vt 0.471731 0.341844
vt 0.449553 0.383337
vt 0.419706 0.419706
vt 0.383337 0.449553
vt 0.341844 0.471731
vt 0.031250 1.000000
vt 0.031250 0.500000
vt 0.796822 0.485388
vt 0.841844 0.471731
vt 0.883337 0.449553
vt 0.919706 0.419706
vt 0.949553 0.383337
vt 0.971731 0.341844
vt 0.985389 0.296822
vt 0.985389 0.203178
vt 0.971731 0.158156
vt 0.949553 0.116663
vt 0.919706 0.080294
vt 0.883337 0.050447
vt 0.841844 0.028269
vt 0.796822 0.014612
vt 0.703178 0.014612
vt 0.658156 0.028269
vt 0.616663 0.050447
vt 0.580294 0.080294
vt 0.550447 0.116663
vt 0.528269 0.158156
vt 0.514612 0.203178
vt 0.510000 0.250000
vt 0.514612 0.296822
vt 0.528269 0.341844
vt 0.550447 0.383337
vt 0.580294 0.419706
vt 0.616663 0.449553
vt 0.658156 0.471731
vt 0.703178 0.485388
vt 0.000000 0.000000
vt 1.000000 0.000000
s 0
usemtl 
f 1/1/1 2/2/1 4/3/1 3/4/1
f 3/4/2 4/3/2 6/5/2 5/6/2
f 5/6/3 6/5/3 8/7/3 7/8/3
f 7/8/4 8/7/4 10/9/4 9/10/4
f 9/10/5 10/9/5 12/11/5 11/12/5
f 11/12/6 12/11/6 14/13/6 13/14/6
f 13/14/7 14/13/7 16/15/7 15/16/7
f 15/16/8 16/15/8 18/17/8 17/18/8
f 17/18/9 18/17/9 20/19/9 19/20/9
f 19/20/10 20/19/10 22/21/10 21/22/10
f 21/22/11 22/21/11 24/23/11 23/24/11
f 23/24/12 24/23/12 26/25/12 25/26/12
f 25/26/13 26/25/13 28/27/13 27/28/13
f 27/28/14 28/27/14 30/29/14 29/30/14
f 18/17/8 16/15/8 40/15/8 41/17/8
f 29/30/15 30/29/15 32/31/15 31/32/15
f 31/32/16 32/31/16 2/33/16 1/34/16
f 1/35/17 3/36/17 5/37/17 7/38/17 9/39/17 11/40/17 13/41/17 15/42/17 17/43/17 19/44/17 21/45/17 23/46/17 25/47/17 27/48/17 29/49/17 31/50/17
f 33/51/18 34/52/18 48/53/18 47/54/18 46/55/18 45/56/18 44/57/18 43/58/18 42/59/18 41/60/18 40/61/18 39/62/18 38/63/18 37/64/18 36/65/18 35/66/18
f 4/3/1 2/2/1 34/2/1 33/3/1
f 28/27/13 26/25/13 45/25/13 46/27/13
f 14/13/6 12/11/6 38/11/6 39/13/6
f 24/23/11 22/21/11 43/21/11 44/23/11
f 2/33/16 32/31/16 48/31/16 34/33/16
f 10/9/4 8/7/4 36/7/4 37/9/4
f 20/19/9 18/17/9 41/17/9 42/19/9
f 30/29/14 28/27/14 46/27/14 47/29/14
f 6/5/2 4/3/2 33/3/2 35/5/2
f 16/15/7 14/13/7 39/13/7 40/15/7
f 26/25/12 24/23/12 44/23/12 45/25/12
f 12/11/5 10/9/5 37/9/5 38/11/5
f 22/21/10 20/19/10 42/19/10 43/21/10
f 32/31/15 30/29/15 47/29/15 48/31/15
f 8/7/3 6/5/3 35/5/3 36/7/3
f 113/157/49 114/158/49 116/2/49 117/17/49 115/33/49
usemtl Material
f 49/1/19 50/2/19 52/67/19 51/68/19
f 51/68/20 52/67/20 54/3/20 53/4/20
f 53/4/21 54/3/21 56/69/21 55/70/21
f 55/70/22 56/69/22 58/5/22 57/6/22
f 57/6/23 58/5/23 60/71/23 59/72/23
f 59/72/24 60/71/24 62/7/24 61/8/24
f 61/8/25 62/7/25 64/73/25 63/74/25
f 63/74/26 64/73/26 66/9/26 65/10/26
f 65/10/27 66/9/27 68/75/27 67/76/27
f 67/76/28 68/75/28 70/11/28 69/12/28
f 69/12/29 70/11/29 72/77/29 71/78/29
f 71/78/30 72/77/30 74/13/30 73/14/30
f 73/14/31 74/13/31 76/79/31 75/80/31
f 75/80/32 76/79/32 78/15/32 77/16/32
f 77/16/33 78/15/33 80/81/33 79/82/33
f 79/82/34 80/81/34 82/17/34 81/18/34
f 81/18/35 82/17/35 84/83/35 83/84/35
f 83/84/36 84/83/36 86/19/36 85/20/36
f 85/20/37 86/19/37 88/85/37 87/86/37
f 87/86/38 88/85/38 90/21/38 89/22/38
f 89/22/39 90/21/39 92/87/39 91/88/39
f 91/88/40 92/87/40 94/23/40 93/24/40
f 93/24/41 94/23/41 96/89/41 95/90/41
f 95/90/42 96/89/42 98/25/42 97/26/42
f 97/26/43 98/25/43 100/91/43 99/92/43
f 99/92/44 100/91/44 102/27/44 101/28/44
f 101/28/45 102/27/45 104/93/45 103/94/45
f 103/94/46 104/93/46 106/29/46 105/30/46
f 105/30/47 106/29/47 108/95/47 107/96/47
f 107/96/48 108/95/48 110/31/48 109/32/48
f 52/97/49 50/52/49 112/98/49 110/99/49 108/100/49 106/101/49 104/102/49 102/103/49 100/104/49 98/105/49 96/106/49 94/107/49 92/108/49 90/109/49 88/110/49 86/111/49 84/112/49 82/60/49 80/113/49 78/114/49 76/115/49 74/116/49 72/117/49 70/118/49 68/119/49 66/64/49 64/120/49 62/121/49 60/122/49 58/123/49 56/124/49 54/125/49
f 109/32/50 110/31/50 112/126/50 111/127/50
f 111/127/51 112/126/51 50/33/51 49/34/51
f 49/35/52 51/128/52 53/129/52 55/130/52 57/131/52 59/132/52 61/133/52 63/134/52 65/39/52 67/135/52 69/136/52 71/137/52 73/138/52 75/139/52 77/140/52 79/141/52 81/43/52 83/142/52 85/143/52 87/144/52 89/145/52 91/146/52 93/147/52 95/148/52 97/149/52 99/150/52 101/151/52 103/152/52 105/153/52 107/154/52 109/155/52 111/156/52
