# Blender 4.5.2 LTS
# www.blender.org
mtllib building a.mtl
o Plane.005
v -87.225212 0.813476 -22.498083
v -87.225212 0.813476 -59.406418
v -32.716873 0.813476 -59.406418
v -88.057999 29.000000 -60.239208
v -88.057999 29.000000 -21.665295
v -31.884085 29.000000 -21.665295
v -31.884085 29.000000 -60.239208
v -87.225212 0.813476 -47.285583
v -87.225212 0.813476 -34.618919
v -32.716873 0.813476 -34.618919
v -32.716873 0.813476 -47.285583
v -88.057999 29.000000 -47.285583
v -88.057999 29.000000 -34.618919
v -31.884085 29.000000 -34.618919
v -31.884085 29.000000 -47.285583
v -73.871040 0.813476 -22.498083
v -59.971043 0.813476 -22.498083
v -46.071041 0.813476 -22.498085
v -46.071041 0.813476 -59.406418
v -59.971043 0.813476 -59.406418
v -73.871040 0.813476 -59.406418
v -73.871040 29.000000 -21.665295
v -59.971043 29.000000 -21.665295
v -46.071041 29.000000 -21.665295
v -46.071041 29.000000 -60.239208
v -59.971043 29.000000 -60.239208
v -73.871040 29.000000 -60.239208
v -46.071041 29.000000 -34.618919
v -59.971043 29.000000 -34.618919
v -73.871040 29.000000 -34.618919
v -46.071041 29.000000 -47.285583
v -59.971043 29.000000 -47.285583
v -73.871040 29.000000 -47.285583
v -73.871040 0.000000 -34.618919
v -59.971043 0.000000 -34.618919
v -46.071041 0.000000 -34.618919
v -73.871040 0.000000 -47.285583
v -59.971043 0.000000 -47.285583
v -46.071041 0.000000 -47.285583
v -32.171043 6.766666 -59.952251
v -32.171043 22.233330 -59.952251
v -87.771042 6.766666 -21.952251
v -87.771042 22.233330 -21.952251
v -87.771042 22.233330 -59.952251
v -87.771042 6.766665 -59.952251
v -87.225212 5.953190 -47.285583
v -87.771042 22.233330 -47.285583
v -87.225212 5.953190 -34.618919
v -87.771042 22.233330 -34.618919
v -32.171043 6.766666 -34.618919
v -35.594955 22.708939 -34.878197
v -32.171043 6.766666 -47.285583
v -35.578773 22.715322 -46.803593
v -73.871040 6.766666 -21.952251
v -73.389053 22.715322 -25.359985
v -59.971043 6.766666 -21.952251
v -59.971043 22.708939 -25.376165
v -46.071041 6.766666 -21.952251
v -46.330322 22.708939 -25.376165
v -46.071041 6.766666 -59.952251
v -46.071041 22.233330 -59.952251
v -59.971043 6.766666 -59.952251
v -59.971043 22.233330 -59.952251
v -73.871040 6.766666 -59.952251
v -73.871040 22.233330 -59.952251
v -32.171043 25.616665 -59.952251
v -87.771042 25.616665 -21.952251
v -87.771042 25.616665 -47.285583
v -87.771042 25.616665 -34.618919
v -32.414040 25.320032 -34.618919
v -35.578773 25.134672 -46.803593
v -73.389053 25.134672 -25.359985
v -59.971043 25.141056 -25.376165
v -46.071041 25.141056 -25.376165
v -46.071041 25.616665 -59.952251
v -59.971043 25.616665 -59.952251
v -73.871040 25.616665 -59.952251
v -32.421150 25.305111 -22.202358
v -87.771042 25.616665 -59.952251
v -89.092781 28.461344 -34.271477
v -88.805824 29.000000 -21.266371
v -45.333920 28.461344 -20.979414
v -31.034584 29.000000 -47.563538
v -30.747627 28.461344 -60.855598
v -74.506500 28.461344 -60.855598
v -89.092781 28.461344 -60.855598
v -30.747627 25.616665 -60.855598
v -89.092781 25.616665 -20.979414
v -89.092781 28.461344 -47.563538
v -30.747627 28.461344 -34.271477
v -89.092781 25.616665 -47.563538
v -89.092781 25.616665 -34.271477
v -74.506500 28.461344 -20.979414
v -59.920208 28.461344 -20.979414
v -45.333920 28.461344 -60.855598
v -59.920208 28.461344 -60.855598
v -45.333920 25.616665 -60.855598
v -59.920208 25.616665 -60.855598
v -74.506500 25.616665 -60.855598
v -31.678093 8.632364 -60.456810
v -31.678093 20.367634 -60.456810
v -88.617638 7.241813 -20.849842
v -88.617638 21.758184 -20.849842
v -89.092781 22.233330 -60.855598
v -89.092781 6.766665 -60.855598
v -89.092781 6.766666 -47.563538
v -89.092781 22.233330 -47.563538
v -89.092781 6.766666 -34.271477
v -89.092781 22.233330 -34.271477
v -30.618055 7.241813 -34.746624
v -30.618055 21.758184 -34.746624
v -31.678093 8.632364 -47.962326
v -31.678093 20.367634 -47.962326
v -74.107712 8.632364 -21.909880
v -74.107712 20.367634 -21.909880
v -60.318996 8.632364 -21.909880
v -60.318996 20.367634 -21.909880
v -45.809067 7.241813 -20.849842
v -45.809067 21.758184 -20.849842
v -45.333920 6.766666 -60.855598
v -45.333920 22.233330 -60.855598
v -59.920208 6.766666 -60.855598
v -59.920208 22.233330 -60.855598
v -74.506500 6.766666 -60.855598
v -74.506500 22.233330 -60.855598
v -89.092781 25.616665 -60.855598
v -87.225212 0.813476 -43.063362
v -87.225212 0.813476 -38.841141
v -32.716873 0.813476 -38.841141
v -32.716873 0.813476 -43.063362
v -88.057999 29.000000 -43.063362
v -88.057999 29.000000 -38.841141
v -31.884085 29.000000 -38.841141
v -31.884085 29.000000 -43.063362
v -73.871040 0.000000 -43.063362
v -73.871040 0.000000 -38.841141
v -59.971043 0.000000 -43.063362
v -59.971043 0.000000 -38.841141
v -46.071041 0.000000 -43.063362
v -46.071041 0.000000 -38.841141
v -73.871040 29.000000 -38.841141
v -73.871040 29.000000 -43.063362
v -59.971043 29.000000 -38.841141
v -59.971043 29.000000 -43.063362
v -46.071041 29.000000 -38.841141
v -46.071041 29.000000 -43.063362
v -32.716873 5.953190 -43.063362
v -32.716873 5.953190 -38.841141
v -35.594955 22.708939 -43.063362
v -35.594955 22.708939 -38.841141
v -87.225212 5.953190 -38.841141
v -87.225212 5.953190 -43.063362
v -87.771042 22.233330 -38.841141
v -87.771042 22.233330 -43.063362
v -35.594955 25.141056 -43.063362
v -35.594955 25.141056 -38.841141
v -87.771042 25.616665 -38.841141
v -87.771042 25.616665 -43.063362
v -88.805824 29.000000 -43.132851
v -88.805824 29.000000 -38.702164
v -31.034584 29.000000 -38.702164
v -31.034584 29.000000 -43.132851
v -31.678093 8.632364 -42.734062
v -31.678093 8.632364 -39.100952
v -31.678093 20.367634 -42.734062
v -31.678093 20.367634 -39.100952
v -89.092781 6.766666 -38.702164
v -89.092781 6.766666 -43.132851
v -89.092781 22.233330 -38.702164
v -89.092781 22.233330 -43.132851
v -89.092781 25.616665 -38.702164
v -89.092781 25.616665 -43.132851
v -32.716873 0.813476 -51.507809
v -32.716873 0.813476 -55.730030
v -31.884085 29.000000 -51.507809
v -31.884085 29.000000 -55.730030
v -87.225212 0.813476 -55.730030
v -87.225212 0.813476 -51.507809
v -88.057999 29.000000 -55.730030
v -88.057999 29.000000 -51.507809
v -73.871040 29.000000 -51.507809
v -73.871040 29.000000 -55.730030
v -59.971043 29.000000 -51.507809
v -59.971043 29.000000 -55.730030
v -46.071041 29.000000 -51.507809
v -46.071041 29.000000 -55.730030
v -73.871040 0.000000 -55.730030
v -73.871040 0.000000 -51.507809
v -59.971043 0.000000 -55.730030
v -59.971043 0.000000 -51.507809
v -46.071041 0.000000 -55.730030
v -46.071041 0.000000 -51.507809
v -87.225212 5.953190 -51.507809
v -87.225212 5.953189 -55.730030
v -87.771042 22.233330 -51.507809
v -87.771042 22.233330 -55.730030
v -32.716873 5.953190 -55.730030
v -32.716873 5.953190 -51.507809
v -87.771042 25.616665 -51.507809
v -87.771042 25.616665 -55.730030
v -31.034584 29.000000 -51.994225
v -31.034584 29.000000 -56.424911
v -88.805824 29.000000 -56.424911
v -88.805824 29.000000 -51.994225
v -89.092781 6.766666 -51.994225
v -89.092781 6.766665 -56.424911
v -89.092781 22.233330 -51.994225
v -89.092781 22.233330 -56.424911
v -31.678093 8.632364 -56.823700
v -31.678093 8.632364 -51.595436
v -31.678093 20.367634 -56.823700
v -31.678093 20.367634 -51.595436
v -89.092781 25.616665 -51.994225
v -89.092781 25.616665 -56.424911
v -30.747627 25.616665 -56.424911
v -30.747627 25.616665 -51.994225
v -55.337708 0.813476 -22.498083
v -50.704376 0.813476 -22.498085
v -50.704376 0.813476 -59.406418
v -55.337708 0.813476 -59.406418
v -55.337708 29.000000 -21.665295
v -50.704376 29.000000 -21.665295
v -50.704376 29.000000 -60.239208
v -55.337708 29.000000 -60.239208
v -50.704376 29.000000 -34.618919
v -55.337708 29.000000 -34.618919
v -50.704376 29.000000 -47.285583
v -55.337708 29.000000 -47.285583
v -55.337708 0.000000 -34.618919
v -50.704376 0.000000 -34.618919
v -55.337708 0.000000 -47.285583
v -50.704376 0.000000 -47.285583
v -55.337708 5.953190 -59.406418
v -50.704376 5.953190 -59.406418
v -55.337708 22.233330 -59.952251
v -50.704376 22.233330 -59.952251
v -50.704376 5.953190 -22.498085
v -55.337708 5.953190 -22.498083
v -50.704376 22.708939 -25.376165
v -55.337708 22.708939 -25.376165
v -55.337708 25.616665 -59.952251
v -50.704376 25.616665 -59.952251
v -50.704376 25.141056 -25.376165
v -55.337708 25.141056 -25.376165
v -55.058109 29.000000 -21.266371
v -50.196014 29.000000 -21.266371
v -50.196014 29.000000 -60.568642
v -55.058109 29.000000 -60.568642
v -55.058109 6.766666 -60.855598
v -50.196014 6.766666 -60.855598
v -55.058109 22.233330 -60.855598
v -50.196014 22.233330 -60.855598
v -50.594803 8.632364 -21.909880
v -54.659325 8.632364 -21.909880
v -50.594803 20.367634 -21.909880
v -54.659325 20.367634 -21.909880
v -55.058109 25.616665 -60.855598
v -50.196014 25.616665 -60.855598
v -50.704376 29.000000 -38.841141
v -55.337708 29.000000 -38.841141
v -50.704376 29.000000 -43.063362
v -55.337708 29.000000 -43.063362
v -55.337708 0.000000 -38.841141
v -50.704376 0.000000 -38.841141
v -55.337708 0.000000 -43.063362
v -50.704376 0.000000 -43.063362
v -55.337708 0.000000 -51.507809
v -50.704376 0.000000 -51.507809
v -55.337708 0.000000 -55.730030
v -50.704376 0.000000 -55.730030
v -50.704376 29.000000 -51.507809
v -55.337708 29.000000 -51.507809
v -50.704376 29.000000 -55.730030
v -55.337708 29.000000 -55.730030
v -69.237709 0.813476 -22.498085
v -64.604378 0.813476 -22.498083
v -64.604378 0.813476 -59.406418
v -69.237709 0.813476 -59.406418
v -69.237709 29.000000 -21.665295
v -64.604378 29.000000 -21.665295
v -64.604378 29.000000 -60.239208
v -69.237709 29.000000 -60.239208
v -64.604378 29.000000 -34.618919
v -69.237709 29.000000 -34.618919
v -64.604378 29.000000 -47.285583
v -69.237709 29.000000 -47.285583
v -69.237709 0.000000 -34.618919
v -64.604378 0.000000 -34.618919
v -69.237709 0.000000 -47.285583
v -64.604378 0.000000 -47.285583
v -69.237709 5.953190 -59.406418
v -64.604378 5.953190 -59.406418
v -69.237709 22.233330 -59.952251
v -64.604378 22.233330 -59.952251
v -64.604378 5.953190 -22.498083
v -69.237709 5.953190 -22.498085
v -64.604378 22.708939 -25.376165
v -69.237709 22.708939 -25.376165
v -69.237709 25.616665 -59.952251
v -64.604378 25.616665 -59.952251
v -64.604378 25.141056 -25.376165
v -69.237709 25.141056 -25.376165
v -69.644402 29.000000 -21.266371
v -64.782303 29.000000 -21.266371
v -64.782303 29.000000 -60.568642
v -69.644402 29.000000 -60.568642
v -69.644402 6.766666 -60.855598
v -64.782303 6.766666 -60.855598
v -69.644402 22.233330 -60.855598
v -64.782303 22.233330 -60.855598
v -64.383514 8.632364 -21.909880
v -70.043190 8.632364 -21.909880
v -64.383514 20.367634 -21.909880
v -70.043190 20.367634 -21.909880
v -69.644402 25.616665 -60.855598
v -64.782303 25.616665 -60.855598
v -64.604378 29.000000 -38.841141
v -69.237709 29.000000 -38.841141
v -64.604378 29.000000 -43.063362
v -69.237709 29.000000 -43.063362
v -69.237709 0.000000 -38.841141
v -64.604378 0.000000 -38.841141
v -69.237709 0.000000 -43.063362
v -64.604378 0.000000 -43.063362
v -69.237709 0.000000 -51.507809
v -64.604378 0.000000 -51.507809
v -69.237709 0.000000 -55.730030
v -64.604378 0.000000 -55.730030
v -64.604378 29.000000 -51.507809
v -69.237709 29.000000 -51.507809
v -64.604378 29.000000 -55.730030
v -69.237709 29.000000 -55.730030
v -78.504379 0.813476 -59.406418
v -83.137711 0.813476 -59.406418
v -78.504379 29.000000 -60.239208
v -83.137711 29.000000 -60.239208
v -78.504379 29.000000 -34.618919
v -83.137711 29.000000 -34.618919
v -78.504379 29.000000 -47.285583
v -83.137711 29.000000 -47.285583
v -83.137711 0.813476 -22.498083
v -78.504379 0.813476 -22.498085
v -83.137711 29.000000 -21.665295
v -78.504379 29.000000 -21.665295
v -83.137711 0.000000 -34.618919
v -78.504379 0.000000 -34.618919
v -83.137711 0.000000 -47.285583
v -78.504379 0.000000 -47.285583
v -78.504379 5.953190 -22.498085
v -83.137711 5.953190 -22.498083
v -83.137711 5.953189 -59.406418
v -78.504379 5.953190 -59.406418
v -83.137711 22.233330 -59.952251
v -78.504379 22.233330 -59.952251
v -83.137711 25.616665 -59.952251
v -78.504379 25.616665 -59.952251
v -79.368591 29.000000 -60.568642
v -84.230690 29.000000 -60.568642
v -84.230690 29.000000 -21.266371
v -79.368591 29.000000 -21.266371
v -79.767380 8.632364 -21.909880
v -83.831894 8.632364 -21.909880
v -79.767380 20.367634 -21.909880
v -83.831894 20.367634 -21.909880
v -84.230690 6.766665 -60.855598
v -79.368591 6.766665 -60.855598
v -84.230690 22.233330 -60.855598
v -79.368591 22.233330 -60.855598
v -79.368591 25.616665 -20.979414
v -84.230690 25.616665 -20.979414
v -84.230690 25.616665 -60.855598
v -79.368591 25.616665 -60.855598
v -78.504379 29.000000 -38.841141
v -83.137711 29.000000 -38.841141
v -78.504379 29.000000 -43.063362
v -83.137711 29.000000 -43.063362
v -83.137711 0.000000 -38.841141
v -78.504379 0.000000 -38.841141
v -83.137711 0.000000 -43.063362
v -78.504379 0.000000 -43.063362
v -83.137711 0.000000 -51.507809
v -78.504379 0.000000 -51.507809
v -83.137711 0.000000 -55.730030
v -78.504379 0.000000 -55.730030
v -78.504379 29.000000 -51.507809
v -83.137711 29.000000 -51.507809
v -78.504379 29.000000 -55.730030
v -83.137711 29.000000 -55.730030
v -30.747627 6.766666 -60.855598
v -30.747627 22.233330 -60.855598
v -30.618055 7.241813 -47.088390
v -30.618055 21.758184 -47.088390
v -74.981644 7.241813 -20.849842
v -74.981644 21.758184 -20.849842
v -59.445061 7.241813 -20.849842
v -59.445061 21.758184 -20.849842
v -69.169250 7.241813 -20.849842
v -69.169250 21.758184 -20.849842
v -30.618055 7.241813 -52.469372
v -30.618055 21.758184 -52.469372
v -30.618055 7.241813 -43.607998
v -30.618055 7.241813 -38.227016
v -30.618055 21.758184 -43.607998
v -30.618055 21.758184 -38.227016
v -30.618055 7.241813 -55.949764
v -30.618055 21.758184 -55.949764
v -49.720867 7.241813 -20.849842
v -55.533257 7.241813 -20.849842
v -49.720867 21.758184 -20.849842
v -55.533257 21.758184 -20.849842
v -65.257446 7.241813 -20.849842
v -65.257446 21.758184 -20.849842
v -78.893448 7.241813 -20.849842
v -84.705833 7.241813 -20.849842
v -78.893448 21.758184 -20.849842
v -84.705833 21.758184 -20.849842
v -30.747627 8.579193 -60.523273
v -30.747627 20.420803 -60.523273
v -30.747627 8.579193 -47.895863
v -30.747627 20.420803 -47.895863
v -74.174171 8.579193 -20.979414
v -74.174171 20.420803 -20.979414
v -60.252533 8.579193 -20.979414
v -60.252533 20.420803 -20.979414
v -69.976730 8.579193 -20.979414
v -69.976730 20.420803 -20.979414
v -30.747627 8.579193 -51.661900
v -30.747627 20.420803 -51.661900
v -30.747627 8.579193 -42.800526
v -30.747627 8.579193 -39.034489
v -30.747627 20.420803 -42.800526
v -30.747627 20.420803 -39.034489
v -30.747627 8.579193 -56.757236
v -30.747627 20.420803 -56.757236
v -50.528339 8.579193 -20.979414
v -54.725784 8.579193 -20.979414
v -50.528339 20.420803 -20.979414
v -54.725784 20.420803 -20.979414
v -64.449974 8.579193 -20.979414
v -64.449974 20.420803 -20.979414
v -79.700912 8.579193 -20.979414
v -83.898361 8.579193 -20.979414
v -79.700912 20.420803 -20.979414
v -83.898361 20.420803 -20.979414
v -55.337708 22.529963 -22.195250
v -59.971043 22.529963 -22.195250
v -69.237709 22.529963 -22.195250
v -73.582565 22.521805 -22.179890
v -32.414040 22.529963 -38.841141
v -32.414040 22.529963 -34.878197
v -35.515297 22.616035 -25.296513
v -46.330322 22.529963 -22.195250
v -32.398682 22.521805 -46.997108
v -32.398682 25.328190 -46.997108
v -73.582565 25.328190 -22.179890
v -55.337708 25.320032 -22.195250
v -59.971043 25.320032 -22.195250
v -69.237709 25.320032 -22.195250
v -32.414040 25.320032 -38.841141
v -35.594955 25.141056 -34.618919
v -35.603691 25.155085 -25.384901
v -46.071041 25.320032 -22.195250
v -32.414040 22.529963 -43.063362
v -32.414040 25.320032 -43.063362
v -50.704376 22.529963 -22.195250
v -50.704376 25.320032 -22.195250
v -64.604378 22.529963 -22.195250
v -64.604378 25.320032 -22.195250
v -87.771042 29.000000 -34.618919
v -87.771042 29.000000 -21.952251
v -46.071041 29.000000 -21.952251
v -32.171043 29.000000 -21.952251
v -32.171043 29.000000 -55.730030
v -32.171043 29.000000 -59.952251
v -83.137711 29.000000 -59.952251
v -87.771042 29.000000 -59.952251
v -87.771042 29.000000 -51.507809
v -87.771042 29.000000 -47.285583
v -87.771042 29.000000 -38.841141
v -32.171043 29.000000 -34.618919
v -32.171043 29.000000 -43.063362
v -32.171043 29.000000 -47.285583
v -78.504379 29.000000 -21.952251
v -73.871040 29.000000 -21.952251
v -64.604378 29.000000 -21.952251
v -59.971043 29.000000 -21.952251
v -50.704376 29.000000 -21.952251
v -46.071041 29.000000 -59.952251
v -55.337708 29.000000 -59.952251
v -59.971043 29.000000 -59.952251
v -69.237709 29.000000 -59.952251
v -73.871040 29.000000 -59.952251
v -88.805824 29.000000 -34.271477
v -89.092781 28.461344 -20.979414
v -45.333920 29.000000 -21.266371
v -31.034584 29.000000 -21.266371
v -30.747627 28.461344 -56.424911
v -31.034584 29.000000 -60.568642
v -84.230690 28.461344 -60.855598
v -88.805824 29.000000 -60.568642
v -89.092781 28.461344 -51.994225
v -88.805824 29.000000 -47.563538
v -89.092781 28.461344 -38.702164
v -31.034584 29.000000 -34.271477
v -30.747627 28.461344 -43.132851
v -30.747627 28.461344 -47.563538
v -79.368591 28.461344 -20.979414
v -74.506500 29.000000 -21.266371
v -64.782303 28.461344 -20.979414
v -59.920208 29.000000 -21.266371
v -50.196014 28.461344 -20.979414
v -45.333920 29.000000 -60.568642
v -55.058109 28.461344 -60.855598
v -59.920208 29.000000 -60.568642
v -69.644402 28.461344 -60.855598
v -74.506500 29.000000 -60.568642
v -87.771042 29.000000 -43.063362
v -32.171043 29.000000 -38.841141
v -89.092781 28.461344 -43.132851
v -30.747627 28.461344 -38.702164
v -32.171043 29.000000 -51.507809
v -87.771042 29.000000 -55.730030
v -30.747627 28.461344 -51.994225
v -89.092781 28.461344 -56.424911
v -55.337708 29.000000 -21.952251
v -50.704376 29.000000 -59.952251
v -55.058109 28.461344 -20.979414
v -50.196014 28.461344 -60.855598
v -69.237709 29.000000 -21.952251
v -64.604378 29.000000 -59.952251
v -69.644402 28.461344 -20.979414
v -64.782303 28.461344 -60.855598
v -78.504379 29.000000 -59.952251
v -83.137711 29.000000 -21.952251
v -79.368591 28.461344 -60.855598
v -84.230690 28.461344 -20.979414
v -31.034584 31.000000 -34.271477
v -31.884085 31.000000 -34.618919
v -31.884085 31.000000 -21.665295
v -31.034584 31.000000 -21.266371
v -88.805824 31.000000 -34.271477
v -88.057999 31.000000 -34.618919
v -88.805824 31.000000 -47.563538
v -88.057999 31.000000 -47.285583
v -88.057999 31.000000 -60.239208
v -88.805824 31.000000 -60.568642
v -74.506500 31.000000 -60.568642
v -73.871040 31.000000 -60.239208
v -59.920208 31.000000 -60.568642
v -59.971043 31.000000 -60.239208
v -45.333920 31.000000 -60.568642
v -46.071041 31.000000 -60.239208
v -31.884085 31.000000 -60.239208
v -31.034584 31.000000 -60.568642
v -45.333920 31.000000 -21.266371
v -46.071041 31.000000 -21.665295
v -59.920208 31.000000 -21.266371
v -59.971043 31.000000 -21.665295
v -73.871040 31.000000 -21.665295
v -74.506500 31.000000 -21.266371
v -31.034584 31.000000 -47.563538
v -31.884085 31.000000 -47.285583
v -88.805824 31.000000 -21.266371
v -88.057999 31.000000 -21.665295
v -88.057999 31.000000 -38.841141
v -88.805824 31.000000 -38.702164
v -88.057999 31.000000 -43.063362
v -88.805824 31.000000 -43.132851
v -31.884085 31.000000 -43.063362
v -31.034584 31.000000 -43.132851
v -31.884085 31.000000 -38.841141
v -31.034584 31.000000 -38.702164
v -31.884085 31.000000 -55.730030
v -31.034584 31.000000 -56.424911
v -31.884085 31.000000 -51.507809
v -31.034584 31.000000 -51.994225
v -88.057999 31.000000 -51.507809
v -88.805824 31.000000 -51.994225
v -88.057999 31.000000 -55.730030
v -88.805824 31.000000 -56.424911
v -50.704376 31.000000 -21.665295
v -50.196014 31.000000 -21.266371
v -55.337708 31.000000 -21.665295
v -55.058109 31.000000 -21.266371
v -55.337708 31.000000 -60.239208
v -55.058109 31.000000 -60.568642
v -50.704376 31.000000 -60.239208
v -50.196014 31.000000 -60.568642
v -64.604378 31.000000 -21.665295
v -64.782303 31.000000 -21.266371
v -69.237709 31.000000 -21.665295
v -69.644402 31.000000 -21.266371
v -69.237709 31.000000 -60.239208
v -69.644402 31.000000 -60.568642
v -64.604378 31.000000 -60.239208
v -64.782303 31.000000 -60.568642
v -78.504379 31.000000 -21.665295
v -79.368591 31.000000 -21.266371
v -83.137711 31.000000 -21.665295
v -84.230690 31.000000 -21.266371
v -83.137711 31.000000 -60.239208
v -84.230690 31.000000 -60.568642
v -78.504379 31.000000 -60.239208
v -79.368591 31.000000 -60.568642
v -89.092781 6.766666 -20.979414
v -89.092781 22.233330 -20.979414
v -30.747627 6.766666 -34.271477
v -30.747627 22.233330 -34.271477
v -30.747627 6.766666 -47.563538
v -30.747627 22.233330 -47.563538
v -74.506500 6.766666 -20.979414
v -74.506500 22.233330 -20.979414
v -59.920208 6.766666 -20.979414
v -59.920208 22.233330 -20.979414
v -45.333920 6.766666 -20.979414
v -45.333920 22.233330 -20.979414
v -55.058109 6.766666 -20.979414
v -55.058109 22.233330 -20.979414
v -84.230690 6.766666 -20.979414
v -84.230690 22.233330 -20.979414
v -30.747627 6.766666 -38.702164
v -30.747627 22.233330 -38.702164
v -30.747627 6.766666 -43.132851
v -30.747627 22.233330 -43.132851
v -30.747627 6.766666 -56.424911
v -30.747627 6.766666 -51.994225
v -30.747627 22.233330 -56.424911
v -30.747627 22.233330 -51.994225
v -50.196014 6.766666 -20.979414
v -50.196014 22.233330 -20.979414
v -64.782303 6.766666 -20.979414
v -69.644402 6.766666 -20.979414
v -64.782303 22.233330 -20.979414
v -69.644402 22.233330 -20.979414
v -79.368591 6.766666 -20.979414
v -79.368591 22.233330 -20.979414
v -31.450682 28.461344 -20.979414
v -30.747627 28.461344 -21.682468
v -31.034548 29.000000 -21.266335
v -31.099155 28.461344 -21.073603
v -30.841820 28.461344 -21.330940
v -31.328068 25.616665 -21.376118
v -87.771042 0.000000 -34.618919
v -87.771042 0.000000 -21.952251
v -46.071041 0.000000 -21.952251
v -32.171043 0.000000 -21.952251
v -32.171043 0.000000 -55.730030
v -32.171043 0.000000 -59.952251
v -83.137711 0.000000 -59.952251
v -87.771042 0.000000 -59.952251
v -87.771042 0.000000 -51.507809
v -87.771042 0.000000 -47.285583
v -87.771042 0.000000 -38.841141
v -32.171043 0.000000 -34.618919
v -32.171043 0.000000 -43.063362
v -32.171043 0.000000 -47.285583
v -78.504379 0.000000 -21.952251
v -73.871040 0.000000 -21.952251
v -64.604378 0.000000 -21.952251
v -59.971043 0.000000 -21.952251
v -50.704376 0.000000 -21.952251
v -46.071041 0.000000 -59.952251
v -55.337708 0.000000 -59.952251
v -59.971043 0.000000 -59.952251
v -69.237709 0.000000 -59.952251
v -73.871040 0.000000 -59.952251
v -64.604378 6.766666 -59.952251
v -59.971043 5.953190 -59.406418
v -50.704376 6.766666 -59.952251
v -46.071041 5.953190 -59.406418
v -32.716873 5.953190 -59.406418
v -55.337708 6.766666 -21.952251
v -59.971043 5.953190 -22.498083
v -69.237709 6.766666 -21.952251
v -73.871040 5.953190 -22.498083
v -83.137711 6.766666 -21.952251
v -87.225212 5.953190 -22.498083
v -32.171043 6.766666 -38.841141
v -32.716873 5.953190 -34.618919
v -87.771042 6.766666 -43.063362
v -87.771042 6.766666 -47.285583
v -87.771042 6.766665 -55.730030
v -87.225212 5.953189 -59.406418
v -46.071041 5.953190 -22.498085
v -78.504379 6.766666 -59.952251
v -73.871040 5.953190 -59.406418
v -87.771042 6.766666 -34.618919
v -32.171043 6.766666 -51.507809
v -32.716873 5.953190 -47.285583
v -87.771042 0.000000 -43.063362
v -32.171043 0.000000 -38.841141
v -32.171043 6.766666 -43.063362
v -87.771042 6.766666 -38.841141
v -32.171043 0.000000 -51.507809
v -87.771042 0.000000 -55.730030
v -87.771042 6.766666 -51.507809
v -32.171043 6.766666 -55.730030
v -55.337708 0.000000 -21.952251
v -50.704376 0.000000 -59.952251
v -55.337708 6.766666 -59.952251
v -50.704376 6.766666 -21.952251
v -69.237709 0.000000 -21.952251
v -64.604378 0.000000 -59.952251
v -69.237709 6.766666 -59.952251
v -64.604378 6.766666 -21.952251
v -78.504379 0.000000 -59.952251
v -83.137711 0.000000 -21.952251
v -78.504379 6.766666 -21.952251
v -83.137711 6.766665 -59.952251
v -36.130928 22.233330 -21.952251
v -32.507648 22.468401 -25.956306
v -34.921104 23.832180 -24.702299
v -34.324413 22.472458 -22.783571
v -33.002361 22.472458 -24.105623
v -32.171043 6.766665 -25.912136
v -36.130928 6.766665 -21.952251
v -32.716850 5.953225 -22.498058
v -32.701565 6.766665 -23.932194
v -34.150986 6.766665 -22.482775
v -55.337708 22.233330 -21.952251
v -59.971043 22.233330 -21.952251
v -69.237709 22.233330 -21.952251
v -73.871040 22.233330 -21.952251
v -32.171043 22.233330 -38.841141
v -32.831528 23.713339 -33.880833
v -32.171043 22.233330 -47.285583
v -32.171043 25.616665 -47.285583
v -73.871040 25.616665 -21.952251
v -55.337708 25.616665 -21.952251
v -59.971043 25.616665 -21.952251
v -69.237709 25.616665 -21.952251
v -32.171043 25.616665 -38.841141
v -32.171043 25.616665 -34.618919
v -32.171043 25.616665 -21.952251
v -46.071041 25.616665 -21.952251
v -32.171043 22.233330 -43.063362
v -32.171043 25.616665 -43.063362
v -45.332970 23.713352 -22.612707
v -50.704376 22.233330 -21.952251
v -50.704376 25.616665 -21.952251
v -64.604378 22.233330 -21.952251
v -64.604378 25.616665 -21.952251
v -55.337708 22.441435 -25.650906
v -59.971043 22.441435 -25.650906
v -69.237709 22.441435 -25.650906
v -73.662941 22.441435 -25.650906
v -35.869698 22.441435 -38.841141
v -35.056744 23.841496 -33.880829
v -35.869698 22.441435 -47.077480
v -35.869698 25.408560 -47.077480
v -73.662941 25.408560 -25.650906
v -55.337708 25.408560 -25.650906
v -59.971043 25.408560 -25.650906
v -69.237709 25.408560 -25.650906
v -35.869698 25.408560 -38.841141
v -35.869698 25.408560 -34.618919
v -35.869694 25.408560 -25.650906
v -46.071041 25.408560 -25.650906
v -35.869698 22.441435 -43.063362
v -35.869698 25.408560 -43.063362
v -45.332970 23.841486 -24.837891
v -50.704376 22.441435 -25.650906
v -50.704376 25.408560 -25.650906
v -64.604378 22.441435 -25.650906
v -64.604378 25.408560 -25.650906
v -35.869698 22.441435 -34.618919
v -35.869694 22.441435 -25.650906
v -46.071041 22.441435 -25.650906
v -32.171043 22.233330 -34.618919
v -46.071041 22.233330 -21.952251
v -36.175098 22.468401 -22.288858
v -34.150986 22.233330 -22.482775
v -32.701565 22.233330 -23.932194
v -32.171043 22.233330 -25.912136
v -35.508209 22.635239 -34.268887
v -35.096954 23.803831 -24.878113
v -45.721012 22.635239 -25.289417
v -32.508507 22.466459 -34.268887
v -45.721012 22.466459 -22.289719
v -36.216980 23.717672 -22.605530
v -34.484524 23.726582 -23.060982
v -33.279770 23.726582 -24.265734
v -32.824341 23.717669 -25.998178
v -32.716873 0.813476 -25.460407
v -35.679199 0.813476 -22.498083
v -32.171066 0.000036 -21.952276
v -35.679199 5.953189 -22.498083
v -32.716873 5.953189 -25.460407
v -32.716873 5.953189 -22.498083
v -30.747627 25.963638 -34.271477
v -31.139376 25.616665 -34.367100
v -30.747627 25.963638 -47.563538
v -31.127058 25.616665 -47.489445
v -30.747627 25.269691 -47.563538
v -30.747627 25.616665 -47.910511
v -74.285080 25.616665 -21.318384
v -74.506500 25.963638 -20.979414
v -74.853470 25.616665 -20.979414
v -74.506500 25.269691 -20.979414
v -59.920208 25.963638 -20.979414
v -59.937759 25.616665 -21.315348
v -45.579807 25.616665 -21.303932
v -45.333920 25.963638 -20.979414
v -30.747627 25.963638 -43.132851
v -31.128357 25.616665 -43.114265
v -31.132357 25.616665 -38.739727
v -30.747627 25.963638 -38.702164
v -50.196014 25.963638 -20.979414
v -50.368256 25.616665 -21.309029
v -55.153908 25.616665 -21.312735
v -55.058109 25.963638 -20.979414
v -64.782303 25.963638 -20.979414
v -64.720543 25.616665 -21.317078
v -69.502831 25.616665 -21.318064
v -69.644402 25.963638 -20.979414
v -31.149977 25.616665 -21.470112
v -30.747627 25.963638 -21.682468
v -31.450682 25.963638 -20.979414
v -31.352509 25.616665 -21.297043
v -30.841820 25.963638 -21.330940
v -31.193951 25.616665 -21.363657
v -31.099155 25.963638 -21.073603
v -31.274801 25.616665 -21.305723
vn -0.0000 -1.0000 -0.0000
vn -0.0000 1.0000 -0.0000
vn -0.0000 -0.0000 -1.0000
vn 0.7970 -0.0000 -0.6039
vn -1.0000 -0.0000 -0.0000
vn -0.0000 -0.0000 1.0000
vn 1.0000 -0.0000 -0.0000
vn -0.2371 -0.0000 0.9715
vn -0.5358 -0.0000 -0.8443
vn -0.5928 -0.0000 -0.8054
vn 0.0712 -0.0000 0.9975
vn 0.0712 -0.0000 -0.9975
vn 0.9975 -0.0000 0.0712
vn -0.9975 -0.0000 0.0712
vn -0.0000 0.9984 0.0571
vn -0.0000 -0.9984 0.0570
vn 0.0571 0.9984 -0.0000
vn 0.0570 -0.9984 -0.0000
vn 0.0571 -0.9984 -0.0000
vn 0.9975 -0.0000 0.0713
vn -0.0000 0.9984 0.0562
vn -0.0000 0.9983 0.0585
vn 0.0562 0.9984 -0.0000
vn 0.0607 -0.0000 0.9982
vn 0.9982 -0.0000 0.0607
vn -0.0000 -0.9984 0.0562
vn -0.0000 -0.9983 0.0585
vn 0.0562 -0.9984 -0.0000
vn 0.0516 -0.9987 -0.0000
vn -0.0000 -0.9987 0.0516
vn 0.0585 0.9983 -0.0000
vn 0.0585 -0.9983 -0.0000
vn -0.8826 0.4702 -0.0000
vn 0.8826 0.4702 -0.0000
vn -0.0000 0.4702 -0.8826
vn -0.0000 0.4702 0.8826
vn -0.2631 -0.0000 0.9648
vn 0.9648 -0.0000 0.2631
vn 0.9648 -0.0000 -0.2631
vn 0.2631 -0.0000 0.9648
vn -0.0000 -0.2631 0.9648
vn -0.0000 0.2631 0.9648
vn 0.9648 -0.2631 -0.0000
vn 0.9648 0.2631 -0.0000
vn 0.2469 0.3001 0.9214
vn 0.6973 0.1659 0.6973
vn 0.9214 0.3001 0.2469
vn -0.8304 0.5572 -0.0000
vn 0.8304 0.5572 -0.0000
vn -0.0000 0.5572 -0.8304
vn -0.0000 0.5572 0.8304
vn -0.0000 -0.5572 -0.8304
vn -0.0000 -0.5572 0.8304
vn 0.8304 -0.5572 -0.0000
vn -0.8304 -0.5572 -0.0000
vn 0.0110 0.9981 0.0613
vn 0.0507 0.9974 0.0507
vn 0.0613 0.9981 0.0110
vn 0.8847 0.4013 0.2371
vn 0.4453 0.7768 0.4453
vn 0.2371 0.4013 0.8847
vn 0.2588 -0.0000 0.9659
vn 0.7071 -0.0000 0.7071
vn 0.9659 -0.0000 0.2588
vn -0.0000 0.9989 0.0470
vn 0.0469 0.9989 -0.0000
vn -0.0000 0.6337 0.7736
vn 0.0008 0.6265 0.7794
vn 0.7736 0.6337 -0.0000
vn 0.7850 -0.0000 0.6195
vn 0.6195 -0.0000 0.7850
vn -0.0000 -0.6337 0.7736
vn 0.0008 -0.6265 0.7794
vn 0.7736 -0.6337 -0.0000
vn 0.7768 -0.6298 -0.0002
vn -0.0001 -0.6297 0.7768
vn 0.7794 0.6265 0.0008
vn 0.7794 -0.6265 0.0008
vn -0.0000 0.7165 -0.6976
vn -0.0008 0.7226 -0.6912
vn -0.6976 0.7165 -0.0000
vn -0.6855 -0.0000 0.7281
vn 0.7281 -0.0000 -0.6855
vn -0.0000 -0.7165 -0.6976
vn -0.0008 -0.7226 -0.6912
vn -0.6976 -0.7165 -0.0000
vn -0.6939 -0.7201 0.0002
vn 0.0002 -0.7201 -0.6939
vn -0.6912 0.7226 -0.0008
vn -0.6912 -0.7226 -0.0008
vn 0.0380 0.6751 0.7368
vn 0.7368 0.6751 0.0380
vn -0.4582 0.8889 0.0008
vn 0.0007 0.8889 -0.4581
vn 0.0479 0.8520 -0.5213
vn -0.5213 0.8520 0.0479
vn 0.1483 0.8170 0.5572
vn 0.4106 0.8142 0.4106
vn 0.5572 0.8170 0.1483
vn -0.0001 0.8213 0.5704
vn 0.5704 0.8213 -0.0001
vn -0.9397 0.3419 -0.0014
vn -0.0012 0.3419 -0.9397
vn 0.0171 0.3008 -0.9535
vn -0.9535 0.3008 0.0171
vn 0.2478 0.2426 0.9379
vn 0.6865 0.2395 0.6865
vn 0.9379 0.2426 0.2478
vn -0.0005 0.2483 0.9687
vn 0.9687 0.2483 -0.0006
vn 0.1930 0.9620 0.1930
vn 0.7429 -0.0000 0.6694
vn 0.5122 -0.0000 0.8589
vn -0.0002 -0.6942 0.7198
vn -0.0000 -0.6986 0.7155
vn 0.6663 -0.7457 0.0005
vn 0.6742 -0.7385 0.0001
vn 0.6716 -0.7409 0.0003
vn -0.0004 -0.6858 0.7278
vn -0.0003 -0.6907 0.7231
vn -0.0001 -0.6965 0.7175
vn -0.0001 -0.6980 0.7161
vn 0.6885 -0.6948 0.2077
vn 0.5331 -0.6236 0.5718
vn 0.1823 -0.6230 0.7607
vn -0.0002 -0.6792 0.7340
vn 0.6580 -0.7530 0.0003
vn 0.1917 -0.0000 0.9815
vn 0.8372 -0.0000 0.5469
vt 0.750000 0.888889
vt 0.750000 1.000000
vt 1.000000 1.000000
vt 1.000000 0.888889
vt 0.000000 0.444444
vt 0.000000 0.333333
vt 0.166667 1.000000
vt 0.250000 1.000000
vt 0.083333 1.000000
vt 0.000000 1.000000
vt 0.415671 1.000000
vt 0.331083 1.000000
vt 0.750000 0.000000
vt 1.000000 0.000000
vt 1.000000 0.333333
vt 0.750000 0.333333
vt 0.750000 0.555556
vt 1.000000 0.555556
vt 1.000000 0.666667
vt 0.750000 0.666667
vt 0.750000 0.555555
vt 0.166667 0.555555
vt 0.166667 0.666667
vt 0.250000 0.666667
vt 0.250000 0.555555
vt 0.416667 0.555555
vt 0.416667 0.666667
vt 0.500000 0.666667
vt 0.500000 0.555555
vt 0.666667 0.555555
vt 0.666667 0.666667
vt 0.166667 0.000000
vt 0.166667 0.333333
vt 0.250000 0.333333
vt 0.250000 0.000000
vt 0.416667 0.000000
vt 0.416667 0.333333
vt 0.500000 0.333333
vt 0.500000 0.000000
vt 0.666667 0.000000
vt 0.666667 0.333333
vt 0.166667 0.555555
vt 0.250000 0.555556
vt 0.250000 0.666667
vt 0.166667 0.666667
vt 0.416667 0.555556
vt 0.500000 0.555556
vt 0.500000 0.666667
vt 0.416667 0.666667
vt 0.666667 0.555556
vt 0.250000 0.333333
vt 0.166667 0.333333
vt 0.500000 0.333333
vt 0.416667 0.333333
vt 0.000000 0.888889
vt 1.000000 0.335130
vt 1.000000 -0.002301
vt 0.000000 0.777778
vt 0.000000 0.666667
vt 0.000000 0.668209
vt 0.000000 0.555942
vt 0.166667 0.888889
vt 0.250000 0.888889
vt 0.250000 1.000000
vt 0.166667 1.000000
vt 0.416667 0.888889
vt 0.500000 0.888889
vt 0.500000 1.000000
vt 0.416667 1.000000
vt 0.666667 0.888889
vt 0.666667 1.000000
vt 0.166667 0.888889
vt 0.333333 1.000000
vt 0.000000 0.555556
vt 0.583333 1.000000
vt 0.500000 1.000000
vt 0.583333 1.000000
vt 0.500283 1.000000
vt 0.416667 0.000000
vt 0.166667 0.000000
vt 0.000000 0.335268
vt 0.000000 0.445220
vt 1.000000 0.666667
vt 1.000000 0.555555
vt 1.000000 0.444444
vt 1.000000 0.333333
vt 0.000000 0.444444
vt 1.000000 0.555195
vt 1.000000 0.445165
vt 0.083333 1.000000
vt 0.331243 0.000000
vt 0.415743 0.000000
vt 0.000000 0.000000
vt 1.000000 0.888889
vt 0.000000 0.665118
vt 0.000000 0.775044
vt 1.000000 0.661190
vt 0.000000 0.444444
vt 0.674810 0.000000
vt 0.741856 0.000000
vt 0.741856 0.000000
vt 0.423502 0.000000
vt 0.493165 0.000000
vt 0.493165 0.000000
vt 0.423502 0.000000
vt 0.174810 0.000000
vt 0.241856 0.000000
vt 1.000000 0.567471
vt 1.000000 0.654751
vt 1.000000 0.654751
vt 1.000000 0.898889
vt 1.000000 0.989999
vt 1.000000 0.989999
vt 1.000000 0.898889
vt 0.246743 0.000000
vt 0.000000 1.002304
vt 0.089348 1.000000
vt 0.000000 0.555167
vt 0.583333 0.000000
vt 0.335587 1.000000
vt 0.417663 1.000000
vt 0.997155 1.000000
vt 1.000000 0.885306
vt 0.333333 0.000000
vt 1.000000 0.345249
vt 1.000000 0.432529
vt 1.000000 0.432529
vt 1.000000 0.454445
vt 1.000000 0.545555
vt 1.000000 0.454445
vt 0.000000 0.555555
vt 1.000000 0.444444
vt 0.499716 1.000000
vt 0.750000 0.444444
vt 0.666667 0.444444
vt 0.500000 0.444444
vt 0.416667 0.444444
vt 0.250000 0.444444
vt 0.166667 0.444444
vt 0.666667 0.444444
vt 0.750000 0.444444
vt 0.416667 0.444444
vt 0.500000 0.444444
vt 0.166667 0.444444
vt 0.250000 0.444444
vt 0.746219 0.000000
vt 0.246421 1.000000
vt 0.417592 0.000000
vt 0.335428 0.000000
vt 0.001775 0.000000
vt 1.000000 0.777778
vt 1.000000 0.676667
vt 1.000000 0.767777
vt 1.000000 0.767777
vt 1.000000 0.676667
vt 1.000000 0.789693
vt 1.000000 0.876973
vt 1.000000 0.876973
vt 1.000000 0.789693
vt 1.000000 0.777778
vt 0.584900 1.000000
vt 0.253263 0.000000
vt 0.666667 0.777778
vt 0.750000 0.777778
vt 0.416667 0.777778
vt 0.500000 0.777778
vt 0.166667 0.777778
vt 0.250000 0.777778
vt 0.500000 0.777778
vt 0.250000 0.777778
vt 0.166667 0.777778
vt 0.583333 0.777778
vt 0.583333 0.888889
vt 0.583333 0.666667
vt 0.583333 0.555555
vt 0.583333 0.444444
vt 0.583333 0.333333
vt 0.583333 0.444444
vt 0.583333 0.555556
vt 0.508144 0.000000
vt 0.575190 0.000000
vt 0.575190 0.000000
vt 0.590168 0.000000
vt 0.659832 0.000000
vt 0.659832 0.000000
vt 0.590168 0.000000
vt 1.002844 1.000000
vt 0.754062 1.000000
vt 0.669475 1.000000
vt 0.669276 0.000000
vt 0.753774 0.000000
vt 0.333333 0.777778
vt 0.333333 0.888889
vt 0.333333 0.666667
vt 0.333333 0.555555
vt 0.333333 0.444444
vt 0.333333 0.333333
vt 0.333333 0.444444
vt 0.333333 0.555556
vt 0.256835 0.000000
vt 0.326498 0.000000
vt 0.341477 0.000000
vt 0.408523 0.000000
vt 0.500263 0.000000
vt 0.584787 0.000000
vt 0.253743 0.000000
vt 0.253743 0.000000
vt 0.162141 0.000000
vt 0.416667 1.000000
vt 0.083333 0.777778
vt 0.083333 0.888889
vt 0.083333 0.666667
vt 0.083333 0.888889
vt 0.083333 0.777778
vt 0.083333 0.666667
vt 0.083333 0.555555
vt 0.083333 0.444444
vt 0.083333 0.333333
vt 0.083333 0.444444
vt 0.083333 0.555555
vt 0.083333 0.333333
vt 1.000000 0.555914
vt 1.000000 0.668107
vt 0.581764 1.000000
vt 0.663853 1.000000
vt 1.000000 0.002298
vt 1.000000 0.331545
vt 0.745932 1.000000
vt 0.083333 0.000000
vt 0.008144 0.000000
vt 0.075190 0.000000
vt 0.008144 0.000000
vt 0.090168 0.000000
vt 0.159832 0.000000
vt 0.159832 0.000000
vt 0.083333 0.000000
vt 1.000000 0.991666
vt 1.000000 0.991666
vt 1.000000 0.675001
vt 1.000000 0.675000
vt 0.255696 0.000000
vt 0.494304 0.000000
vt 0.494304 0.000000
vt 0.327637 0.000000
vt 1.000000 0.769444
vt 1.000000 0.769444
vt 1.000000 0.547221
vt 1.000000 0.452778
vt 1.000000 0.547222
vt 1.000000 0.897223
vt 1.000000 0.897223
vt 0.660971 0.000000
vt 0.589029 0.000000
vt 0.589029 0.000000
vt 0.422362 0.000000
vt 0.422363 0.000000
vt 0.160971 0.000000
vt 0.089029 0.000000
vt 0.160971 0.000000
vt 0.583333 0.000000
vt 0.253481 0.000000
vt 0.250262 0.000000
vt 1.000000 0.340156
vt 1.000000 0.661382
vt 1.000000 0.666475
vt 1.000000 0.666475
vt 0.253612 0.000000
vt 0.250131 0.000000
vt 0.333333 0.000000
vt 0.999984 0.000000
vt 1.000015 0.000000
vt 0.750000 0.000000
vt 0.745337 0.000000
vt 1.000000 0.665219
vt 0.171201 0.000000
vt 0.499736 0.000000
vt 0.664052 0.000000
vt 0.253585 1.000000
vt -0.001772 0.000000
vt 0.000000 0.331407
vt 1.000000 0.892455
vt 0.000000 0.997703
vt 0.077328 1.000000
vt 0.000000 0.780501
vt 0.000000 0.443672
vt 1.000000 0.443727
vt 1.000000 0.775239
vt 0.000000 0.885034
vt 1.000000 0.780304
vt 0.000000 0.892728
vt 0.581877 0.000000
vt 0.171552 1.000000
vt 0.088923 0.000000
vt 0.161788 1.000000
vt 0.077754 0.000000
vt 0.987950 0.000000
vt 0.993975 0.000000
vt 1.000000 0.002298
vt 0.998386 0.000000
vt 1.000000 0.017631
vt 0.939260 0.000000
vt 0.974541 0.000000
vt 1.000000 0.000000
vt 0.994008 0.000000
vt 1.002182 0.000000
vt 1.000000 0.104207
vt 1.000000 0.052104
vt 1.000000 0.013961
vt 0.928779 0.000000
vt 0.964390 0.000000
vt 0.964390 0.000000
vt 1.000000 0.052104
vt 1.000000 0.052104
vt 1.000000 0.104207
vt 0.999961 0.000000
vt 0.766425 0.000000
vt 0.764827 0.000000
vt 1.000000 0.308650
vt 0.999999 0.089042
vt 1.000000 0.311366
vt 0.999979 0.000000
vt 1.000000 0.321352
vt 0.757949 0.000000
vt 1.000000 0.323110
vt 0.756917 0.000000
vt 0.969192 0.000000
vt 0.933804 0.000000
vt 0.964390 0.000000
vt 0.992144 0.000000
vt 0.990458 0.000000
vt 1.001036 0.000000
vt 1.000000 0.096928
vt 1.000000 0.081466
vt 0.948262 0.000000
vt 0.944543 0.000000
vt 1.000000 0.077170
vt 1.000000 0.666636
vt 1.000000 0.675368
vt 0.244053 0.000000
vt 0.583333 0.000000
vt 0.333333 0.000000
vt 1.000000 0.333333
vt 1.000000 0.555555
vt 0.750000 0.000000
vt 1.000000 0.017631
vt 1.000000 0.008815
vt 1.000000 0.002431
vt 1.000000 0.005410
vt 1.000000 0.002362
vt 1.000000 0.000550
vt 0.997598 0.000000
vt 0.987950 0.000000
vt 1.000000 0.008815
vt 0.993975 0.000000
s 0
f 191/1/1 662/2/1 648/3/1 647/4/1
f 186/1/2 473/4/2 474/3/2 488/2/2
f 157/5/1 69/6/1 92/6/1 171/5/1
f 354/7/2 65/8/2 125/8/2 368/7/2
f 709/9/1 45/10/1 105/10/1 365/9/1
f 305/11/3 306/12/3 594/12/3 596/11/3
f 58/13/4 770/13/4 616/13/4 615/13/4
f 471/13/2 472/14/2 480/15/2 28/16/2
f 146/17/2 481/18/2 482/19/2 31/20/2
f 645/13/1 36/16/1 654/15/1 646/14/1
f 139/21/1 39/20/1 656/19/1 655/18/1
f 380/22/1 348/23/1 37/24/1 135/25/1
f 324/26/1 290/27/1 38/28/1 137/29/1
f 266/30/1 232/31/1 39/20/1 139/21/1
f 657/32/1 346/33/1 34/34/1 658/35/1
f 659/36/1 288/37/1 35/38/1 660/39/1
f 661/40/1 230/41/1 36/16/1 645/13/1
f 375/42/2 142/43/2 33/44/2 339/45/2
f 319/46/2 144/47/2 32/48/2 285/49/2
f 261/50/2 146/17/2 31/20/2 227/31/2
f 483/32/2 484/35/2 30/51/2 337/52/2
f 485/36/2 486/39/2 29/53/2 283/54/2
f 487/40/2 471/13/2 28/16/2 225/41/2
f 196/55/2 44/10/2 104/10/2 208/55/2
f 14/56/5 6/57/5 539/57/5 538/56/5
f 696/58/1 681/59/1 106/59/1 205/58/1
f 66/3/1 75/2/1 97/2/1 87/3/1
f 502/60/5 159/61/5 568/61/5 543/60/5
f 387/62/2 182/63/2 492/64/2 533/65/2
f 331/66/2 184/67/2 490/68/2 530/69/2
f 273/70/2 186/1/2 488/2/2 526/71/2
f 384/72/1 706/65/1 666/64/1 187/63/1
f 328/66/1 703/69/1 664/68/1 189/67/1
f 270/70/1 699/71/1 662/2/1 191/1/1
f 278/73/3 21/64/3 686/8/3 291/73/3
f 154/74/2 47/59/2 107/59/2 170/74/2
f 220/75/3 20/68/3 668/76/3 233/77/3
f 241/77/1 76/76/1 98/76/1 257/77/1
f 3/3/3 19/2/3 670/2/3 671/3/3
f 514/78/3 305/11/3 596/11/3 549/78/3
f 218/40/6 18/13/6 684/13/6 237/40/6
f 693/5/1 687/6/1 108/6/1 167/5/1
f 276/79/6 17/39/6 673/39/6 295/36/6
f 299/73/1 77/8/1 99/8/1 315/73/1
f 342/32/6 16/35/6 675/35/6 349/80/6
f 13/81/7 132/82/7 565/82/7 542/81/7
f 130/18/7 11/19/7 689/83/7 147/84/7
f 724/85/2 769/86/2 608/86/2 622/85/2
f 128/87/5 9/6/5 48/6/5 151/5/5
f 134/88/5 133/89/5 571/89/5 569/88/5
f 178/58/5 8/59/5 46/59/5 193/58/5
f 692/84/1 52/83/1 609/83/1 623/84/1
f 334/90/3 2/10/3 683/10/3 351/9/3
f 303/91/6 304/92/6 590/92/6 592/91/6
f 9/6/5 1/93/5 677/93/5 48/6/5
f 769/86/8 50/86/8 607/86/8 608/86/8
f 174/4/7 3/3/7 671/3/7 197/94/7
f 12/95/7 180/96/7 577/96/7 544/95/7
f 293/73/3 65/8/3 77/8/3 299/73/3
f 235/77/3 63/76/3 76/76/3 241/77/3
f 41/3/3 61/2/3 75/2/3 66/3/3
f 762/40/6 768/13/6 758/13/6 763/40/6
f 764/36/6 744/39/6 753/39/6 765/36/6
f 708/80/1 54/35/1 611/35/1 635/80/1
f 759/84/7 749/97/7 750/97/7 760/84/7
f 767/14/7 766/86/7 756/86/7 757/14/7
f 153/5/5 49/6/5 69/6/5 157/5/5
f 195/58/5 47/59/5 68/59/5 199/58/5
f 768/13/6 767/14/6 757/14/6 758/13/6
f 353/9/3 44/10/3 79/10/3 355/9/3
f 49/6/5 43/93/5 67/93/5 69/6/5
f 133/89/5 14/56/5 538/56/5 571/89/5
f 215/94/7 87/3/7 84/3/7 497/4/7
f 92/6/5 88/93/5 494/93/5 80/6/5
f 371/9/3 126/10/3 86/10/3 499/90/3
f 213/58/5 91/59/5 89/59/5 501/58/5
f 171/5/5 92/6/5 80/6/5 503/98/5
f 87/3/3 97/2/3 95/2/3 84/3/3
f 257/77/3 98/76/3 96/68/3 513/75/3
f 315/73/3 99/8/3 85/64/3 515/73/3
f 307/73/3 124/8/3 125/8/3 309/73/3
f 249/77/3 122/76/3 123/76/3 251/77/3
f 389/3/3 120/2/3 121/2/3 390/3/3
f 407/99/6 118/100/6 119/101/6 409/99/6
f 311/102/6 116/103/6 117/104/6 313/105/6
f 413/106/6 393/107/6 394/107/6 415/106/6
f 401/108/7 391/109/7 392/110/7 403/108/7
f 167/5/5 108/6/5 109/6/5 169/5/5
f 205/58/5 106/59/5 107/59/5 207/58/5
f 365/9/3 105/10/3 104/10/3 367/9/3
f 108/6/5 605/93/5 606/93/5 109/6/5
f 209/111/7 100/112/7 101/113/7 211/114/7
f 627/94/7 390/3/7 87/3/7 215/94/7
f 687/6/1 42/93/1 605/93/1 108/6/1
f 199/58/1 68/59/1 91/59/1 213/58/1
f 43/93/2 49/6/2 109/6/2 606/93/2
f 697/94/1 40/3/1 389/3/1 625/94/1
f 704/73/1 64/8/1 124/8/1 307/73/1
f 355/9/1 79/10/1 126/10/1 371/9/1
f 294/69/2 63/76/2 123/76/2 310/69/2
f 69/6/1 67/93/1 88/93/1 92/6/1
f 41/3/9 66/3/9 87/3/9 390/3/9
f 700/77/1 62/76/1 122/76/1 249/77/1
f 67/93/10 43/93/10 606/93/10 88/93/10
f 236/71/2 61/2/2 121/2/2 252/71/2
f 40/3/1 60/2/1 120/2/1 389/3/1
f 508/115/6 303/91/6 592/91/6 560/115/6
f 61/2/2 41/3/2 390/3/2 121/2/2
f 4/116/6 336/117/6 601/117/6 545/116/6
f 701/40/1 58/13/1 615/13/1 629/40/1
f 132/82/7 131/118/7 567/118/7 565/82/7
f 720/119/2 721/39/2 614/39/2 618/119/2
f 282/120/6 281/121/6 595/121/6 593/120/6
f 705/36/1 56/39/1 613/39/1 631/36/1
f 7/122/5 176/123/5 573/123/5 553/122/5
f 722/124/2 723/35/2 612/35/2 634/124/2
f 106/59/5 168/74/5 170/74/5 107/59/5
f 168/74/5 167/5/5 169/5/5 170/74/5
f 110/125/7 402/126/7 404/127/7 111/125/7
f 164/128/7 163/129/7 165/129/7 166/130/7
f 91/59/5 172/74/5 519/131/5 89/59/5
f 172/74/5 171/5/5 503/98/5 519/131/5
f 47/59/5 154/74/5 158/74/5 68/59/5
f 154/74/5 153/5/5 157/5/5 158/74/5
f 766/86/7 747/85/7 755/85/7 756/86/7
f 747/85/7 759/84/7 760/84/7 755/85/7
f 50/86/1 678/85/1 621/85/1 607/86/1
f 678/85/1 692/84/1 623/84/1 621/85/1
f 8/59/5 127/131/5 152/74/5 46/59/5
f 127/131/5 128/87/5 151/5/5 152/74/5
f 726/83/2 736/84/2 624/84/2 610/83/2
f 736/84/2 724/85/2 622/85/2 624/84/2
f 10/15/7 129/132/7 148/85/7 679/86/7
f 129/132/7 130/18/7 147/84/7 148/85/7
f 681/59/1 680/74/1 168/74/1 106/59/1
f 680/74/1 693/5/1 167/5/1 168/74/1
f 49/6/2 153/5/2 169/5/2 109/6/2
f 153/5/2 154/74/2 170/74/2 169/5/2
f 131/118/7 12/95/7 544/95/7 567/118/7
f 281/121/6 26/133/6 550/133/6 595/121/6
f 225/41/2 28/16/2 145/134/2 259/135/2
f 259/135/2 145/134/2 146/17/2 261/50/2
f 283/54/2 29/53/2 143/136/2 317/137/2
f 317/137/2 143/136/2 144/47/2 319/46/2
f 337/52/2 30/51/2 141/138/2 373/139/2
f 373/139/2 141/138/2 142/43/2 375/42/2
f 230/41/1 264/140/1 140/141/1 36/16/1
f 264/140/1 266/30/1 139/21/1 140/141/1
f 288/37/1 322/142/1 138/143/1 35/38/1
f 322/142/1 324/26/1 137/29/1 138/143/1
f 346/33/1 378/144/1 136/145/1 34/34/1
f 378/144/1 380/22/1 135/25/1 136/145/1
f 36/16/1 140/141/1 691/132/1 654/15/1
f 140/141/1 139/21/1 655/18/1 691/132/1
f 28/16/2 480/15/2 518/132/2 145/134/2
f 145/134/2 518/132/2 481/18/2 146/17/2
f 6/57/3 24/146/3 556/146/3 539/57/3
f 306/12/3 516/147/3 547/147/3 594/12/3
f 68/59/1 158/74/1 172/74/1 91/59/1
f 158/74/1 157/5/1 171/5/1 172/74/1
f 280/148/3 279/149/3 591/149/3 589/148/3
f 5/150/7 13/81/7 542/81/7 564/150/7
f 52/83/1 688/151/1 626/151/1 609/83/1
f 688/151/1 697/94/1 625/94/1 626/151/1
f 79/10/1 200/55/1 214/55/1 126/10/1
f 200/55/1 199/58/1 213/58/1 214/55/1
f 628/151/7 627/94/7 215/94/7 216/151/7
f 112/152/7 210/153/7 212/154/7 113/155/7
f 399/156/7 405/157/7 406/158/7 400/159/7
f 105/10/5 206/55/5 208/55/5 104/10/5
f 206/55/5 205/58/5 207/58/5 208/55/5
f 126/10/5 214/55/5 524/55/5 86/10/5
f 214/55/5 213/58/5 501/58/5 524/55/5
f 216/151/7 215/94/7 497/4/7 523/160/7
f 44/10/5 196/55/5 200/55/5 79/10/5
f 196/55/5 195/58/5 199/58/5 200/55/5
f 11/19/7 173/160/7 198/151/7 689/83/7
f 173/160/7 174/4/7 197/94/7 198/151/7
f 2/10/5 177/55/5 194/55/5 683/10/5
f 177/55/5 178/58/5 193/58/5 194/55/5
f 248/161/3 514/78/3 549/78/3 586/161/3
f 279/149/3 22/162/3 559/162/3 591/149/3
f 232/31/1 268/163/1 192/164/1 39/20/1
f 268/163/1 270/70/1 191/1/1 192/164/1
f 290/27/1 326/165/1 190/166/1 38/28/1
f 326/165/1 328/66/1 189/67/1 190/166/1
f 348/23/1 382/167/1 188/168/1 37/24/1
f 382/167/1 384/72/1 187/63/1 188/168/1
f 227/31/2 31/20/2 185/164/2 271/163/2
f 271/163/2 185/164/2 186/1/2 273/70/2
f 285/49/2 32/48/2 183/169/2 329/165/2
f 329/165/2 183/169/2 184/67/2 331/66/2
f 339/45/2 33/44/2 181/170/2 385/171/2
f 385/171/2 181/170/2 182/63/2 387/62/2
f 45/10/1 682/55/1 206/55/1 105/10/1
f 682/55/1 696/58/1 205/58/1 206/55/1
f 47/59/2 195/58/2 207/58/2 107/59/2
f 195/58/2 196/55/2 208/55/2 207/58/2
f 31/20/2 482/19/2 521/160/2 185/164/2
f 185/164/2 521/160/2 473/4/2 186/1/2
f 39/20/1 192/164/1 694/160/1 656/19/1
f 192/164/1 191/1/1 647/4/1 694/160/1
f 183/169/2 272/172/2 274/173/2 184/67/2
f 272/172/2 271/163/2 273/70/2 274/173/2
f 32/48/2 228/174/2 272/172/2 183/169/2
f 228/174/2 227/31/2 271/163/2 272/172/2
f 190/166/1 189/67/1 269/173/1 267/172/1
f 267/172/1 269/173/1 270/70/1 268/163/1
f 38/28/1 190/166/1 267/172/1 231/174/1
f 231/174/1 267/172/1 268/163/1 232/31/1
f 138/143/1 137/29/1 265/175/1 263/176/1
f 263/176/1 265/175/1 266/30/1 264/140/1
f 35/38/1 138/143/1 263/176/1 229/177/1
f 229/177/1 263/176/1 264/140/1 230/41/1
f 143/136/2 260/178/2 262/179/2 144/47/2
f 260/178/2 259/135/2 261/50/2 262/179/2
f 29/53/2 226/177/2 260/178/2 143/136/2
f 226/177/2 225/41/2 259/135/2 260/178/2
f 770/13/2 739/40/2 630/40/2 616/13/2
f 739/40/2 720/119/2 618/119/2 630/40/2
f 56/39/1 672/119/1 617/119/1 613/39/1
f 672/119/1 701/40/1 629/40/1 617/119/1
f 63/76/2 235/77/2 251/77/2 123/76/2
f 235/77/2 236/71/2 252/71/2 251/77/2
f 60/2/1 669/71/1 250/71/1 120/2/1
f 669/71/1 700/77/1 249/77/1 250/71/1
f 395/180/6 408/181/6 410/182/6 396/180/6
f 254/183/6 253/184/6 255/185/6 256/186/6
f 120/2/3 250/71/3 252/71/3 121/2/3
f 250/71/3 249/77/3 251/77/3 252/71/3
f 97/2/3 258/71/3 528/71/3 95/2/3
f 258/71/3 257/77/3 513/75/3 528/71/3
f 744/39/6 743/119/6 752/119/6 753/39/6
f 743/119/6 762/40/6 763/40/6 752/119/6
f 61/2/3 236/71/3 242/71/3 75/2/3
f 236/71/3 235/77/3 241/77/3 242/71/3
f 498/187/3 512/188/3 551/188/3 554/187/3
f 247/189/3 248/161/3 586/161/3 588/189/3
f 246/190/6 495/191/6 555/191/6 582/190/6
f 512/188/3 247/189/3 588/189/3 551/188/3
f 17/39/6 217/119/6 238/119/6 673/39/6
f 217/119/6 218/40/6 237/40/6 238/119/6
f 75/2/1 242/71/1 258/71/1 97/2/1
f 242/71/1 241/77/1 257/77/1 258/71/1
f 19/2/3 219/71/3 234/71/3 670/2/3
f 219/71/3 220/75/3 233/77/3 234/71/3
f 189/67/1 664/68/1 663/75/1 269/173/1
f 269/173/1 663/75/1 699/71/1 270/70/1
f 184/67/2 274/173/2 489/75/2 490/68/2
f 274/173/2 273/70/2 526/71/2 489/75/2
f 486/39/2 525/119/2 226/177/2 29/53/2
f 525/119/2 487/40/2 225/41/2 226/177/2
f 144/47/2 262/179/2 228/174/2 32/48/2
f 262/179/2 261/50/2 227/31/2 228/174/2
f 660/39/1 35/38/1 229/177/1 698/119/1
f 698/119/1 229/177/1 230/41/1 661/40/1
f 137/29/1 38/28/1 231/174/1 265/175/1
f 265/175/1 231/174/1 232/31/1 266/30/1
f 181/170/2 330/192/2 332/193/2 182/63/2
f 330/192/2 329/165/2 331/66/2 332/193/2
f 33/44/2 286/194/2 330/192/2 181/170/2
f 286/194/2 285/49/2 329/165/2 330/192/2
f 188/168/1 187/63/1 327/193/1 325/192/1
f 325/192/1 327/193/1 328/66/1 326/165/1
f 37/24/1 188/168/1 325/192/1 289/194/1
f 289/194/1 325/192/1 326/165/1 290/27/1
f 136/145/1 135/25/1 323/195/1 321/196/1
f 321/196/1 323/195/1 324/26/1 322/142/1
f 34/34/1 136/145/1 321/196/1 287/197/1
f 287/197/1 321/196/1 322/142/1 288/37/1
f 141/138/2 318/198/2 320/199/2 142/43/2
f 318/198/2 317/137/2 319/46/2 320/199/2
f 30/51/2 284/197/2 318/198/2 141/138/2
f 284/197/2 283/54/2 317/137/2 318/198/2
f 721/39/2 741/36/2 633/36/2 614/39/2
f 741/36/2 722/124/2 634/124/2 633/36/2
f 54/35/1 674/124/1 632/124/1 611/35/1
f 674/124/1 705/36/1 631/36/1 632/124/1
f 65/8/2 293/73/2 309/73/2 125/8/2
f 293/73/2 294/69/2 310/69/2 309/73/2
f 62/76/1 667/69/1 308/69/1 122/76/1
f 667/69/1 704/73/1 307/73/1 308/69/1
f 114/200/6 312/201/6 314/201/6 115/200/6
f 397/202/6 411/203/6 412/203/6 398/202/6
f 122/76/3 308/69/3 310/69/3 123/76/3
f 308/69/3 307/73/3 309/73/3 310/69/3
f 98/76/3 316/69/3 532/69/3 96/68/3
f 316/69/3 315/73/3 515/73/3 532/69/3
f 304/92/6 510/204/6 557/204/6 590/92/6
f 245/205/6 246/190/6 582/190/6 584/205/6
f 746/206/6 745/124/6 754/124/6 751/207/6
f 745/124/6 764/36/6 765/36/6 754/124/6
f 63/76/3 294/69/3 300/69/3 76/76/3
f 294/69/3 293/73/3 299/73/3 300/69/3
f 360/208/6 508/115/6 560/115/6 598/208/6
f 510/204/6 245/205/6 584/205/6 557/204/6
f 76/76/1 300/69/1 316/69/1 98/76/1
f 300/69/1 299/73/1 315/73/1 316/69/1
f 16/35/6 275/124/6 296/124/6 675/35/6
f 275/124/6 276/79/6 295/36/6 296/124/6
f 20/68/3 277/69/3 292/209/3 668/76/3
f 277/69/3 278/73/3 291/73/3 292/209/3
f 187/63/1 666/64/1 665/73/1 327/193/1
f 327/193/1 665/73/1 703/69/1 328/66/1
f 182/63/2 332/193/2 491/73/2 492/64/2
f 332/193/2 331/66/2 530/69/2 491/73/2
f 484/35/2 529/124/2 284/197/2 30/51/2
f 529/124/2 485/36/2 283/54/2 284/197/2
f 142/43/2 320/199/2 286/194/2 33/44/2
f 320/199/2 319/46/2 285/49/2 286/194/2
f 658/35/1 34/34/1 287/197/1 702/124/1
f 702/124/1 287/197/1 288/37/1 659/36/1
f 135/25/1 37/24/1 289/194/1 323/195/1
f 323/195/1 289/194/1 290/27/1 324/26/1
f 477/58/2 386/210/2 388/211/2 522/55/2
f 386/210/2 385/171/2 387/62/2 388/211/2
f 478/59/2 340/212/2 386/210/2 477/58/2
f 340/212/2 339/45/2 385/171/2 386/210/2
f 651/58/1 695/55/1 383/213/1 381/214/1
f 381/214/1 383/213/1 384/72/1 382/167/1
f 652/59/1 651/58/1 381/214/1 347/215/1
f 347/215/1 381/214/1 382/167/1 348/23/1
f 653/98/1 690/131/1 379/216/1 377/217/1
f 377/217/1 379/216/1 380/22/1 378/144/1
f 643/6/1 653/98/1 377/217/1 345/218/1
f 345/218/1 377/217/1 378/144/1 346/33/1
f 479/98/2 374/219/2 376/220/2 517/131/2
f 374/219/2 373/139/2 375/42/2 376/220/2
f 469/6/2 338/221/2 374/219/2 479/98/2
f 338/221/2 337/52/2 373/139/2 374/219/2
f 162/222/7 83/223/7 561/223/7 570/222/7
f 224/224/6 223/225/6 587/225/6 585/224/6
f 496/226/7 504/227/7 537/227/7 540/226/7
f 223/225/6 25/228/6 552/228/6 587/225/6
f 77/8/1 356/7/1 372/7/1 99/8/1
f 356/7/1 355/9/1 371/9/1 372/7/1
f 606/93/6 620/229/6 370/229/6 88/93/6
f 620/229/6 636/80/6 369/80/6 370/229/6
f 124/8/3 366/7/3 368/7/3 125/8/3
f 366/7/3 365/9/3 367/9/3 368/7/3
f 102/230/6 414/231/6 416/231/6 103/232/6
f 362/233/6 361/234/6 363/235/6 364/233/6
f 88/93/6 370/229/6 536/236/6 494/93/6
f 370/229/6 369/80/6 507/32/6 536/236/6
f 99/8/3 372/7/3 535/65/3 85/64/3
f 372/7/3 371/9/3 499/90/3 535/65/3
f 65/8/3 354/7/3 356/7/3 77/8/3
f 354/7/3 353/9/3 355/9/3 356/7/3
f 42/93/1 676/229/1 619/229/1 605/93/1
f 676/229/1 708/80/1 635/80/1 619/229/1
f 21/64/3 333/65/3 352/7/3 686/8/3
f 333/65/3 334/90/3 351/9/3 352/7/3
f 1/93/6 341/236/6 350/229/6 677/93/6
f 341/236/6 342/32/6 349/80/6 350/229/6
f 695/55/1 650/10/1 649/90/1 383/213/1
f 383/213/1 649/90/1 706/65/1 384/72/1
f 522/55/2 388/211/2 475/90/2 476/10/2
f 388/211/2 387/62/2 533/65/2 475/90/2
f 470/93/2 534/236/2 338/221/2 469/6/2
f 534/236/2 483/32/2 337/52/2 338/221/2
f 517/131/2 376/220/2 340/212/2 478/59/2
f 376/220/2 375/42/2 339/45/2 340/212/2
f 644/93/1 643/6/1 345/218/1 707/236/1
f 707/236/1 345/218/1 346/33/1 657/32/1
f 690/131/1 652/59/1 347/215/1 379/216/1
f 379/216/1 347/215/1 348/23/1 380/22/1
f 64/8/1 685/7/1 366/7/1 124/8/1
f 685/7/1 709/9/1 365/9/1 366/7/1
f 44/10/2 353/9/2 367/9/2 104/10/2
f 353/9/2 354/7/2 368/7/2 367/9/2
f 418/237/7 417/238/7 389/3/7 390/3/7
f 419/239/7 420/240/7 610/83/7 609/83/7
f 421/241/6 422/241/6 612/35/6 611/35/6
f 424/242/6 423/243/6 613/39/6 614/39/6
f 425/244/6 421/241/6 611/35/6 632/124/6
f 422/241/6 426/244/6 634/124/6 612/35/6
f 427/245/7 419/239/7 609/83/7 626/151/7
f 420/240/7 428/246/7 628/151/7 610/83/7
f 429/247/7 430/248/7 621/85/7 623/84/7
f 432/248/7 431/249/7 624/84/7 622/85/7
f 430/248/7 432/248/7 622/85/7 621/85/7
f 431/249/7 429/247/7 623/84/7 624/84/7
f 417/238/7 433/250/7 625/94/7 389/3/7
f 434/251/7 418/237/7 390/3/7 627/94/7
f 428/246/7 427/245/7 626/151/7 628/151/7
f 433/250/7 434/251/7 627/94/7 625/94/7
f 435/252/6 436/253/6 617/119/6 629/40/6
f 438/254/6 437/252/6 630/40/6 618/119/6
f 436/253/6 438/254/6 618/119/6 617/119/6
f 437/252/6 435/252/6 629/40/6 630/40/6
f 423/243/6 439/255/6 631/36/6 613/39/6
f 440/256/6 424/242/6 614/39/6 633/36/6
f 426/244/6 425/244/6 632/124/6 634/124/6
f 439/255/6 440/256/6 633/36/6 631/36/6
f 441/257/6 442/258/6 619/229/6 635/80/6
f 444/258/6 443/259/6 636/80/6 620/229/6
f 442/258/6 444/258/6 620/229/6 619/229/6
f 443/259/6 441/257/6 635/80/6 636/80/6
f 101/113/11 100/112/11 417/238/11 418/237/11
f 112/152/12 113/155/12 420/240/12 419/239/12
f 114/200/13 115/200/13 422/241/13 421/241/13
f 117/104/14 116/103/14 423/243/14 424/242/14
f 312/201/15 114/200/15 421/241/15 425/244/15
f 115/200/16 314/201/16 426/244/16 422/241/16
f 210/153/17 112/152/17 419/239/17 427/245/17
f 113/155/18 212/154/18 428/246/18 420/240/18
f 163/129/17 164/128/17 430/248/17 429/247/17
f 166/130/18 165/129/18 431/249/18 432/248/18
f 164/128/12 166/130/12 432/248/12 430/248/12
f 165/129/11 163/129/11 429/247/11 431/249/11
f 100/112/17 209/111/17 433/250/17 417/238/17
f 211/114/19 101/113/19 418/237/19 434/251/19
f 212/154/11 210/153/11 427/245/11 428/246/11
f 209/111/12 211/114/12 434/251/12 433/250/12
f 253/184/15 254/183/15 436/253/15 435/252/15
f 256/186/16 255/185/16 437/252/16 438/254/16
f 254/183/13 256/186/13 438/254/13 436/253/13
f 255/185/14 253/184/14 435/252/14 437/252/14
f 116/103/15 311/102/15 439/255/15 423/243/15
f 313/105/16 117/104/16 424/242/16 440/256/16
f 314/201/14 312/201/14 425/244/14 426/244/14
f 311/102/13 313/105/13 440/256/13 439/255/13
f 361/234/15 362/233/15 442/258/15 441/257/15
f 364/233/16 363/235/16 443/259/16 444/258/16
f 362/233/20 364/233/20 444/258/20 442/258/20
f 363/235/14 361/234/14 441/257/14 443/259/14
f 240/119/21 57/39/21 446/39/21 445/260/21
f 298/124/22 55/261/22 448/262/22 447/124/22
f 150/85/23 51/263/23 450/263/23 449/85/23
f 71/264/24 53/264/24 453/265/24 454/266/24
f 55/261/25 72/267/25 455/268/25 448/262/25
f 73/39/26 244/260/26 456/119/26 457/39/26
f 72/267/27 302/124/27 458/269/27 455/268/27
f 460/86/28 156/85/28 459/85/28 70/86/28
f 461/270/29 460/86/29 70/86/29 78/271/29
f 74/272/30 461/270/30 78/271/30 462/13/30
f 53/264/31 149/84/31 463/84/31 453/265/31
f 149/84/23 150/85/23 449/85/23 463/84/23
f 155/84/32 71/264/32 454/266/32 464/84/32
f 156/85/28 155/84/28 464/84/28 459/85/28
f 59/273/21 239/40/21 465/40/21 452/273/21
f 239/40/21 240/119/21 445/260/21 465/40/21
f 243/40/26 74/272/26 462/13/26 466/40/26
f 244/260/26 243/40/26 466/40/26 456/119/26
f 57/39/21 297/36/21 467/36/21 446/39/21
f 297/36/21 298/124/21 447/124/21 467/36/21
f 301/36/26 73/39/26 457/39/26 468/36/26
f 302/124/26 301/36/26 468/36/26 458/269/26
f 13/81/2 5/150/2 470/93/2 469/6/2
f 24/146/2 6/57/2 472/14/2 471/13/2
f 176/123/2 7/122/2 474/3/2 473/4/2
f 336/117/2 4/116/2 476/10/2 475/90/2
f 180/96/2 12/95/2 478/59/2 477/58/2
f 132/82/2 13/81/2 469/6/2 479/98/2
f 6/57/2 14/56/2 480/15/2 472/14/2
f 134/88/2 15/274/2 482/19/2 481/18/2
f 344/275/2 22/162/2 484/35/2 483/32/2
f 280/148/2 23/276/2 486/39/2 485/36/2
f 222/277/2 24/146/2 471/13/2 487/40/2
f 7/122/2 25/228/2 488/2/2 474/3/2
f 224/224/2 26/133/2 490/68/2 489/75/2
f 282/120/2 27/278/2 492/64/2 491/73/2
f 81/279/33 493/280/33 80/6/33 494/93/33
f 498/187/34 202/281/34 497/4/34 84/3/34
f 500/282/35 358/283/35 499/90/35 86/10/35
f 502/60/33 204/284/33 501/58/33 89/59/33
f 493/280/33 160/285/33 503/98/33 80/6/33
f 83/223/34 162/222/34 505/18/34 506/19/34
f 508/115/36 360/208/36 507/32/36 93/35/36
f 510/204/36 304/92/36 509/36/36 94/39/36
f 495/191/36 246/190/36 511/40/36 82/13/36
f 512/188/35 498/187/35 84/3/35 95/2/35
f 514/78/35 248/161/35 513/75/35 96/68/35
f 516/147/35 306/12/35 515/73/35 85/64/35
f 12/95/2 131/118/2 517/131/2 478/59/2
f 131/118/2 132/82/2 479/98/2 517/131/2
f 14/56/2 133/89/2 518/132/2 480/15/2
f 133/89/2 134/88/2 481/18/2 518/132/2
f 159/61/33 502/60/33 89/59/33 519/131/33
f 160/285/33 159/61/33 519/131/33 503/98/33
f 161/286/34 504/227/34 90/15/34 520/132/34
f 162/222/34 161/286/34 520/132/34 505/18/34
f 15/274/2 175/287/2 521/160/2 482/19/2
f 175/287/2 176/123/2 473/4/2 521/160/2
f 4/116/2 179/288/2 522/55/2 476/10/2
f 179/288/2 180/96/2 477/58/2 522/55/2
f 201/289/34 83/223/34 506/19/34 523/160/34
f 202/281/34 201/289/34 523/160/34 497/4/34
f 203/290/33 500/282/33 86/10/33 524/55/33
f 204/284/33 203/290/33 524/55/33 501/58/33
f 23/276/2 221/291/2 525/119/2 486/39/2
f 221/291/2 222/277/2 487/40/2 525/119/2
f 25/228/2 223/225/2 526/71/2 488/2/2
f 223/225/2 224/224/2 489/75/2 526/71/2
f 245/205/36 510/204/36 94/39/36 527/119/36
f 246/190/36 245/205/36 527/119/36 511/40/36
f 247/189/35 512/188/35 95/2/35 528/71/35
f 248/161/35 247/189/35 528/71/35 513/75/35
f 22/162/2 279/149/2 529/124/2 484/35/2
f 279/149/2 280/148/2 485/36/2 529/124/2
f 26/133/2 281/121/2 530/69/2 490/68/2
f 281/121/2 282/120/2 491/73/2 530/69/2
f 303/91/36 508/115/36 93/35/36 531/124/36
f 304/92/36 303/91/36 531/124/36 509/36/36
f 305/11/35 514/78/35 96/68/35 532/69/35
f 306/12/35 305/11/35 532/69/35 515/73/35
f 27/278/2 335/292/2 533/65/2 492/64/2
f 335/292/2 336/117/2 475/90/2 533/65/2
f 5/150/2 343/293/2 534/236/2 470/93/2
f 343/293/2 344/275/2 483/32/2 534/236/2
f 357/294/35 516/147/35 85/64/35 535/65/35
f 358/283/35 357/294/35 535/65/35 499/90/35
f 359/295/36 81/279/36 494/93/36 536/236/36
f 360/208/36 359/295/36 536/236/36 507/32/36
f 571/89/2 538/56/2 537/227/2 572/286/2
f 538/56/2 539/57/2 540/226/2 537/227/2
f 567/118/2 544/95/2 543/60/2 568/61/2
f 579/288/2 545/116/2 546/282/2 580/290/2
f 595/121/2 550/133/2 549/78/2 596/11/2
f 587/225/2 552/228/2 551/188/2 588/189/2
f 552/228/2 553/122/2 554/187/2 551/188/2
f 583/291/2 558/276/2 557/204/2 584/205/2
f 591/149/2 559/162/2 560/115/2 592/91/2
f 564/150/2 542/81/2 541/280/2 563/279/2
f 539/57/2 556/146/2 555/191/2 540/226/2
f 575/287/2 562/274/2 561/223/2 576/289/2
f 603/292/2 548/278/2 547/147/2 604/294/2
f 599/293/2 564/150/2 563/279/2 600/295/2
f 542/81/2 565/82/2 566/285/2 541/280/2
f 565/82/2 567/118/2 568/61/2 566/285/2
f 562/274/2 569/88/2 570/222/2 561/223/2
f 569/88/2 571/89/2 572/286/2 570/222/2
f 553/122/2 573/123/2 574/281/2 554/187/2
f 573/123/2 575/287/2 576/289/2 574/281/2
f 544/95/2 577/96/2 578/284/2 543/60/2
f 577/96/2 579/288/2 580/290/2 578/284/2
f 556/146/2 581/277/2 582/190/2 555/191/2
f 581/277/2 583/291/2 584/205/2 582/190/2
f 550/133/2 585/224/2 586/161/2 549/78/2
f 585/224/2 587/225/2 588/189/2 586/161/2
f 558/276/2 589/148/2 590/92/2 557/204/2
f 589/148/2 591/149/2 592/91/2 590/92/2
f 548/278/2 593/120/2 594/12/2 547/147/2
f 593/120/2 595/121/2 596/11/2 594/12/2
f 559/162/2 597/275/2 598/208/2 560/115/2
f 597/275/2 599/293/2 600/295/2 598/208/2
f 545/116/2 601/117/2 602/283/2 546/282/2
f 601/117/2 603/292/2 604/294/2 602/283/2
f 159/61/5 160/285/5 566/285/5 568/61/5
f 15/274/5 134/88/5 569/88/5 562/274/5
f 335/292/6 27/278/6 548/278/6 603/292/6
f 504/227/7 161/286/7 572/286/7 537/227/7
f 22/162/3 344/275/3 597/275/3 559/162/3
f 336/117/6 335/292/6 603/292/6 601/117/6
f 161/286/7 162/222/7 570/222/7 572/286/7
f 23/276/3 280/148/3 589/148/3 558/276/3
f 343/293/3 5/150/3 564/150/3 599/293/3
f 175/287/5 15/274/5 562/274/5 575/287/5
f 24/146/3 222/277/3 581/277/3 556/146/3
f 344/275/3 343/293/3 599/293/3 597/275/3
f 176/123/5 175/287/5 575/287/5 573/123/5
f 25/228/6 7/122/6 553/122/6 552/228/6
f 516/147/3 357/294/3 604/294/3 547/147/3
f 179/288/7 4/116/7 545/116/7 579/288/7
f 26/133/6 224/224/6 585/224/6 550/133/6
f 357/294/3 358/283/3 602/283/3 604/294/3
f 180/96/7 179/288/7 579/288/7 577/96/7
f 27/278/6 282/120/6 593/120/6 548/278/6
f 81/279/6 359/295/6 600/295/6 563/279/6
f 83/223/7 201/289/7 576/289/7 561/223/7
f 493/280/5 81/279/5 563/279/5 541/280/5
f 359/295/6 360/208/6 598/208/6 600/295/6
f 201/289/7 202/281/7 574/281/7 576/289/7
f 495/191/6 496/226/6 540/226/6 555/191/6
f 500/282/5 203/290/5 580/290/5 546/282/5
f 202/281/7 498/187/7 554/187/7 574/281/7
f 203/290/5 204/284/5 578/284/5 580/290/5
f 358/283/3 500/282/3 546/282/3 602/283/3
f 221/291/3 23/276/3 558/276/3 583/291/3
f 204/284/5 502/60/5 543/60/5 578/284/5
f 222/277/3 221/291/3 583/291/3 581/277/3
f 160/285/5 493/280/5 541/280/5 566/285/5
f 102/230/37 103/232/37 606/93/37 605/93/37
f 110/125/38 111/125/38 608/86/38 607/86/38
f 392/110/39 391/109/39 609/83/39 610/83/39
f 394/107/40 393/107/40 611/35/40 612/35/40
f 395/180/37 396/180/37 614/39/37 613/39/37
f 119/101/40 118/100/40 615/13/40 616/13/40
f 408/181/41 395/180/41 613/39/41 617/119/41
f 396/180/42 410/182/42 618/119/42 614/39/42
f 414/231/41 102/230/41 605/93/41 619/229/41
f 103/232/42 416/231/42 620/229/42 606/93/42
f 402/126/43 110/125/43 607/86/43 621/85/43
f 111/125/44 404/127/44 622/85/44 608/86/44
f 391/109/43 401/108/43 623/84/43 609/83/43
f 403/108/44 392/110/44 610/83/44 624/84/44
f 404/127/39 402/126/39 621/85/39 622/85/39
f 401/108/38 403/108/38 624/84/38 623/84/38
f 405/157/43 399/156/43 626/151/43 625/94/43
f 400/159/44 406/158/44 627/94/44 628/151/44
f 399/156/38 400/159/38 628/151/38 626/151/38
f 406/158/39 405/157/39 625/94/39 627/94/39
f 118/100/41 407/99/41 629/40/41 615/13/41
f 409/99/42 119/101/42 616/13/42 630/40/42
f 410/182/40 408/181/40 617/119/40 618/119/40
f 407/99/37 409/99/37 630/40/37 629/40/37
f 411/203/41 397/202/41 632/124/41 631/36/41
f 398/202/42 412/203/42 633/36/42 634/124/42
f 397/202/37 398/202/37 634/124/37 632/124/37
f 412/203/40 411/203/40 631/36/40 633/36/40
f 393/107/41 413/106/41 635/80/41 611/35/41
f 415/106/42 394/107/42 612/35/42 636/80/42
f 416/231/40 414/231/40 619/229/40 620/229/40
f 413/106/37 415/106/37 636/80/37 635/80/37
f 637/296/45 640/297/45 639/298/45
f 640/297/46 641/299/46 639/298/46
f 641/299/47 638/14/47 639/298/47
f 496/226/36 495/191/36 82/13/36 637/296/36 639/298/36
f 504/227/34 496/226/34 639/298/34 638/300/34 90/15/34
f 1/93/48 9/6/48 643/6/48 644/93/48
f 3/3/49 174/4/49 647/4/49 648/3/49
f 2/10/50 334/90/50 649/90/50 650/10/50
f 8/59/48 178/58/48 651/58/48 652/59/48
f 9/6/48 128/87/48 653/98/48 643/6/48
f 11/19/49 130/18/49 655/18/49 656/19/49
f 16/35/51 342/32/51 657/32/51 658/35/51
f 17/39/51 276/79/51 659/36/51 660/39/51
f 18/13/51 218/40/51 661/40/51 645/13/51
f 19/2/50 3/3/50 648/3/50 662/2/50
f 20/68/50 220/75/50 663/75/50 664/68/50
f 21/64/50 278/73/50 665/73/50 666/64/50
f 668/76/52 292/209/52 667/69/52 62/76/52
f 670/2/52 234/71/52 669/71/52 60/2/52
f 671/3/52 670/2/52 60/2/52 40/3/52
f 673/39/53 238/119/53 672/119/53 56/39/53
f 675/35/53 296/124/53 674/124/53 54/35/53
f 677/93/53 350/229/53 676/229/53 42/93/53
f 679/86/54 148/85/54 678/85/54 50/86/54
f 46/59/55 152/74/55 680/74/55 681/59/55
f 683/10/55 194/55/55 682/55/55 45/10/55
f 686/8/52 352/7/52 685/7/52 64/8/52
f 48/6/55 677/93/55 42/93/55 687/6/55
f 689/83/54 198/151/54 688/151/54 52/83/54
f 127/131/48 8/59/48 652/59/48 690/131/48
f 128/87/48 127/131/48 690/131/48 653/98/48
f 129/132/49 10/15/49 654/15/49 691/132/49
f 130/18/49 129/132/49 691/132/49 655/18/49
f 147/84/54 689/83/54 52/83/54 692/84/54
f 148/85/54 147/84/54 692/84/54 678/85/54
f 151/5/55 48/6/55 687/6/55 693/5/55
f 152/74/55 151/5/55 693/5/55 680/74/55
f 173/160/49 11/19/49 656/19/49 694/160/49
f 174/4/49 173/160/49 694/160/49 647/4/49
f 177/55/48 2/10/48 650/10/48 695/55/48
f 178/58/48 177/55/48 695/55/48 651/58/48
f 193/58/55 46/59/55 681/59/55 696/58/55
f 194/55/55 193/58/55 696/58/55 682/55/55
f 197/94/54 671/3/54 40/3/54 697/94/54
f 198/151/54 197/94/54 697/94/54 688/151/54
f 217/119/51 17/39/51 660/39/51 698/119/51
f 218/40/51 217/119/51 698/119/51 661/40/51
f 219/71/50 19/2/50 662/2/50 699/71/50
f 220/75/50 219/71/50 699/71/50 663/75/50
f 233/77/52 668/76/52 62/76/52 700/77/52
f 234/71/52 233/77/52 700/77/52 669/71/52
f 237/40/53 684/13/53 58/13/53 701/40/53
f 238/119/53 237/40/53 701/40/53 672/119/53
f 275/124/51 16/35/51 658/35/51 702/124/51
f 276/79/51 275/124/51 702/124/51 659/36/51
f 277/69/50 20/68/50 664/68/50 703/69/50
f 278/73/50 277/69/50 703/69/50 665/73/50
f 291/73/52 686/8/52 64/8/52 704/73/52
f 292/209/52 291/73/52 704/73/52 667/69/52
f 295/36/53 673/39/53 56/39/53 705/36/53
f 296/124/53 295/36/53 705/36/53 674/124/53
f 333/65/50 21/64/50 666/64/50 706/65/50
f 334/90/50 333/65/50 706/65/50 649/90/50
f 341/236/51 1/93/51 644/93/51 707/236/51
f 342/32/51 341/236/51 707/236/51 657/32/51
f 349/80/53 675/35/53 54/35/53 708/80/53
f 350/229/53 349/80/53 708/80/53 676/229/53
f 351/9/52 683/10/52 45/10/52 709/9/52
f 352/7/52 351/9/52 709/9/52 685/7/52
f 780/301/56 781/302/56 712/303/56
f 781/302/57 782/304/57 712/14/57
f 782/304/58 783/305/58 712/14/58
f 715/306/59 718/307/59 717/14/59
f 718/307/60 719/308/60 717/14/60
f 719/308/61 716/14/61 717/14/61
f 710/309/62 716/309/62 719/310/62 772/311/62
f 772/311/63 719/310/63 718/312/63 773/313/63
f 773/313/64 718/312/64 715/306/64 774/314/64
f 58/13/6 716/309/6 710/309/6 770/13/6
f 776/315/65 761/316/65 738/317/65 780/301/65 712/303/65
f 715/306/7 50/86/7 769/86/7 774/314/7
f 748/318/66 776/315/66 712/303/66 783/319/66 725/320/66
f 445/260/67 446/39/67 721/39/67 720/119/67
f 447/124/68 448/262/68 723/35/68 722/124/68
f 449/85/69 450/263/69 769/86/69 724/85/69
f 454/266/70 453/265/70 726/83/70 727/83/70
f 448/262/71 455/268/71 728/35/71 723/35/71
f 457/39/72 456/119/72 729/119/72 730/39/72
f 455/268/73 458/269/73 731/124/73 728/35/73
f 70/86/74 459/85/74 732/85/74 733/86/74
f 78/271/75 70/86/75 733/86/75 734/14/75
f 462/13/76 78/271/76 734/14/76 735/13/76
f 453/265/77 463/84/77 736/84/77 726/83/77
f 463/84/69 449/85/69 724/85/69 736/84/69
f 464/84/78 454/266/78 727/83/78 737/84/78
f 459/85/74 464/84/74 737/84/74 732/85/74
f 452/273/67 465/40/67 739/40/67 770/13/67
f 465/40/67 445/260/67 720/119/67 739/40/67
f 466/40/72 462/13/72 735/13/72 740/40/72
f 456/119/72 466/40/72 740/40/72 729/119/72
f 446/39/67 467/36/67 741/36/67 721/39/67
f 467/36/67 447/124/67 722/124/67 741/36/67
f 468/36/72 457/39/72 730/39/72 742/36/72
f 458/269/72 468/36/72 742/36/72 731/124/72
f 57/39/79 240/119/79 743/119/79 744/39/79
f 55/261/80 298/124/80 745/124/80 746/206/80
f 51/263/81 150/85/81 747/85/81 766/86/81
f 53/264/82 71/264/82 750/97/82 749/97/82
f 72/267/83 55/261/83 746/206/83 751/207/83
f 244/260/84 73/39/84 753/39/84 752/119/84
f 302/124/85 72/267/85 751/207/85 754/124/85
f 156/85/86 460/86/86 756/86/86 755/85/86
f 460/86/87 461/270/87 757/14/87 756/86/87
f 461/270/88 74/272/88 758/13/88 757/14/88
f 149/84/89 53/264/89 749/97/89 759/84/89
f 150/85/81 149/84/81 759/84/81 747/85/81
f 71/264/90 155/84/90 760/84/90 750/97/90
f 155/84/86 156/85/86 755/85/86 760/84/86
f 239/40/79 59/273/79 768/13/79 762/40/79
f 240/119/79 239/40/79 762/40/79 743/119/79
f 74/272/84 243/40/84 763/40/84 758/13/84
f 243/40/84 244/260/84 752/119/84 763/40/84
f 297/36/79 57/39/79 744/39/79 764/36/79
f 298/124/79 297/36/79 764/36/79 745/124/79
f 73/39/84 301/36/84 765/36/84 753/39/84
f 301/36/84 302/124/84 754/124/84 765/36/84
f 450/263/91 51/263/91 766/86/91 769/86/91
f 59/273/92 452/273/92 770/13/92 768/13/92
f 451/321/93 775/322/93 766/86/93 767/14/93
f 777/323/94 451/321/94 767/14/94 768/13/94
f 775/322/95 778/324/95 769/86/95 766/86/95
f 779/325/96 777/323/96 768/13/96 770/13/96
f 713/326/97 771/327/97 710/309/97 772/328/97
f 714/329/98 713/326/98 772/328/98 773/330/98
f 711/331/99 714/329/99 773/330/99 774/14/99
f 771/327/100 779/325/100 770/13/100 710/309/100
f 778/324/101 711/332/101 774/314/101 769/86/101
f 776/315/102 748/318/102 775/322/102 451/321/102
f 761/316/103 776/315/103 451/321/103 777/323/103
f 748/318/104 725/320/104 778/324/104 775/322/104
f 738/317/105 761/316/105 777/323/105 779/325/105
f 781/302/106 780/301/106 771/327/106 713/326/106
f 782/304/107 781/302/107 713/326/107 714/329/107
f 783/305/108 782/304/108 714/329/108 711/331/108
f 780/301/109 738/317/109 779/325/109 771/327/109
f 725/320/110 783/319/110 711/332/110 778/324/110
f 784/333/111 785/334/111 786/14/111
f 787/335/1 788/336/1 789/14/1
f 787/335/63 785/334/63 784/333/63 788/336/63
f 18/13/6 785/334/6 787/335/6 684/13/6
f 786/14/51 785/334/51 18/13/51 645/13/51 646/14/51
f 784/333/7 10/15/7 679/86/7 788/336/7
f 10/15/49 784/333/49 786/14/49 646/14/49 654/15/49
f 684/13/53 787/335/53 789/14/53 717/14/53 716/309/53 58/13/53
f 789/14/54 788/336/54 679/86/54 50/86/54 715/306/54 717/14/54
f 792/83/112 793/337/112 794/83/112 795/338/112
f 796/35/113 797/35/113 798/339/113 799/35/113
f 811/340/114 800/39/114 801/39/114 810/119/114
f 815/124/115 797/35/115 796/35/115 814/341/115
f 807/85/116 790/15/116 791/342/116 806/85/116
f 792/83/117 804/343/117 805/84/117 793/337/117
f 804/343/118 807/85/118 806/85/118 805/84/118
f 803/13/119 808/40/119 809/40/119 802/344/119
f 808/40/120 811/340/120 810/119/120 809/40/120
f 800/39/121 812/79/121 813/36/121 801/39/121
f 812/79/122 815/124/122 814/341/122 813/36/122
f 817/345/123 820/346/123 821/347/123 816/348/123
f 820/346/124 822/349/124 823/350/124 821/347/124
f 822/349/125 818/14/125 819/14/125 823/350/125
f 802/344/126 819/351/126 818/352/126 803/13/126
f 816/348/127 791/342/127 790/15/127 817/345/127
f 817/345/7 790/15/7 90/15/7 638/300/7
f 790/15/7 807/85/7 520/132/7 90/15/7
f 733/86/1 732/85/1 806/85/1 791/342/1
f 734/14/1 733/86/1 791/342/1 816/348/1 642/14/1
f 792/83/7 795/338/7 216/151/7 523/160/7 506/19/7
f 727/83/128 726/83/128 610/83/128 794/83/128 793/337/128
f 737/84/1 727/83/1 793/337/1 805/84/1
f 804/343/7 792/83/7 506/19/7 505/18/7
f 610/83/7 628/151/7 216/151/7 795/338/7 794/83/7
f 797/35/6 815/124/6 531/124/6 93/35/6
f 728/35/1 731/124/1 814/341/1 796/35/1
f 636/80/6 612/35/6 799/35/6 798/339/6 369/80/6
f 369/80/6 798/339/6 797/35/6 93/35/6 507/32/6
f 723/35/129 728/35/129 796/35/129 799/35/129 612/35/129
f 730/39/1 729/119/1 810/119/1 801/39/1
f 812/79/6 800/39/6 94/39/6 509/36/6
f 800/39/6 811/340/6 527/119/6 94/39/6
f 742/36/1 730/39/1 801/39/1 813/36/1
f 735/13/1 734/14/1 642/14/1 819/351/1 802/344/1
f 808/40/6 803/13/6 82/13/6 511/40/6
f 740/40/1 735/13/1 802/344/1 809/40/1
f 803/13/6 818/352/6 637/296/6 82/13/6
f 732/85/1 737/84/1 805/84/1 806/85/1
f 807/85/7 804/343/7 505/18/7 520/132/7
f 729/119/1 740/40/1 809/40/1 810/119/1
f 811/340/6 808/40/6 511/40/6 527/119/6
f 731/124/1 742/36/1 813/36/1 814/341/1
f 815/124/6 812/79/6 509/36/6 531/124/6
f 816/348/1 821/347/1 642/14/1
f 641/353/64 820/346/64 817/345/64 638/300/64
f 637/296/62 818/352/62 822/354/62 640/354/62
f 823/350/1 819/14/1 642/14/1
f 821/347/1 823/350/1 642/14/1
f 640/354/63 822/354/63 820/346/63 641/353/63
