# Blender 4.5.2 LTS
# www.blender.org
mtllib doniczka.mtl
o Cylinder.002
v 20.000000 0.000000 -0.256897
v 20.000000 13.452719 -0.173125
v 20.098310 0.000000 -0.237342
v 20.066252 13.452719 -0.159947
v 20.181654 0.000000 -0.181654
v 20.122417 13.452719 -0.122418
v 20.237341 0.000000 -0.098310
v 20.159946 13.452719 -0.066252
v 20.256897 0.000000 0.000000
v 20.173124 13.452719 -0.000000
v 20.237341 0.000000 0.098310
v 20.159946 13.452719 0.066252
v 20.181654 0.000000 0.181654
v 20.122417 13.452719 0.122418
v 20.098310 0.000000 0.237342
v 20.066252 13.452719 0.159947
v 20.000000 0.000000 0.256897
v 20.000000 13.452719 0.173125
v 19.901690 0.000000 0.237342
v 19.933748 13.452719 0.159947
v 19.818346 0.000000 0.181654
v 19.877583 13.452719 0.122418
v 19.762657 0.000000 0.098310
v 19.840054 13.452719 0.066252
v 19.743103 0.000000 0.000000
v 19.826876 13.452719 -0.000000
v 19.762657 0.000000 -0.098310
v 19.840054 13.452719 -0.066252
v 19.818346 0.000000 -0.181654
v 19.877583 13.452719 -0.122418
v 19.901690 0.000000 -0.237342
v 19.933748 13.452719 -0.159947
v 20.098310 13.000000 -0.237342
v 20.000000 13.000000 -0.256897
v 20.181654 13.000000 -0.181654
v 20.237341 13.000000 -0.098310
v 20.256897 13.000000 0.000000
v 20.237341 13.000000 0.098310
v 20.181654 13.000000 0.181654
v 20.098310 13.000000 0.237342
v 20.000000 13.000000 0.256897
v 19.901690 13.000000 0.237342
v 19.818346 13.000000 0.181654
v 19.762657 13.000000 0.098310
v 19.743103 13.000000 0.000000
v 19.762657 13.000000 -0.098310
v 19.818346 13.000000 -0.181654
v 19.901690 13.000000 -0.237342
v 20.066254 18.452719 -0.159947
v 20.000002 18.452719 -0.173125
v 20.122419 18.452719 -0.122418
v 20.159948 18.452719 -0.066252
v 20.173126 18.452719 -0.000000
v 20.159948 18.452719 0.066252
v 20.122419 18.452719 0.122418
v 20.066254 18.452719 0.159947
v 20.000002 18.452719 0.173125
v 19.933750 18.452719 0.159947
v 19.877584 18.452719 0.122418
v 19.840055 18.452719 0.066252
v 19.826878 18.452719 -0.000000
v 19.840055 18.452719 -0.066252
v 19.877584 18.452719 -0.122418
v 19.933750 18.452719 -0.159947
v 20.066256 18.599382 -0.149276
v 20.000004 18.601103 -0.162341
v 20.122421 18.594484 -0.112068
v 20.159950 18.587154 -0.056383
v 20.173128 18.578506 0.009302
v 20.159950 18.569859 0.074988
v 20.122421 18.562527 0.130673
v 20.066256 18.557629 0.167881
v 20.000004 18.555908 0.180946
v 19.933752 18.557629 0.167881
v 19.877586 18.562527 0.130673
v 19.840057 18.569859 0.074988
v 19.826880 18.578506 0.009302
v 19.840057 18.587154 -0.056383
v 19.877586 18.594484 -0.112068
v 19.933752 18.599382 -0.149276
v 20.066257 18.743399 -0.119553
v 20.000006 18.746811 -0.132282
v 20.122423 18.733686 -0.083303
v 20.159952 18.719151 -0.029051
v 20.173130 18.702003 0.034944
v 20.159952 18.684856 0.098938
v 20.122423 18.670319 0.153190
v 20.066257 18.660606 0.189440
v 20.000006 18.657194 0.202170
v 19.933754 18.660606 0.189440
v 19.877588 18.670319 0.153190
v 19.840059 18.684856 0.098938
v 19.826881 18.702003 0.034944
v 19.840059 18.719151 -0.029051
v 19.877588 18.733686 -0.083303
v 19.933754 18.743399 -0.119553
v 20.066259 18.882303 -0.071286
v 20.000008 18.887348 -0.083461
v 20.122425 18.867943 -0.036614
v 20.159954 18.846451 0.015277
v 20.173132 18.821096 0.076486
v 20.159954 18.795744 0.137695
v 20.122425 18.774248 0.189585
v 20.066259 18.759888 0.224257
v 20.000008 18.754845 0.236432
v 19.933756 18.759888 0.224257
v 19.877590 18.774248 0.189585
v 19.840061 18.795744 0.137695
v 19.826881 18.821096 0.076486
v 19.840061 18.846451 0.015277
v 19.877590 18.867943 -0.036614
v 19.933756 18.882303 -0.071286
v 20.066261 19.013720 -0.005302
v 20.000010 19.020311 -0.016714
v 20.122427 18.994957 0.027199
v 20.159956 18.966875 0.075841
v 20.173134 18.933748 0.133217
v 20.159956 18.900623 0.190593
v 20.122427 18.872540 0.239233
v 20.066261 18.853775 0.271734
v 20.000010 18.847187 0.283147
v 19.933758 18.853775 0.271734
v 19.877592 18.872540 0.239233
v 19.840063 18.900623 0.190593
v 19.826883 18.933748 0.133217
v 19.840063 18.966875 0.075841
v 19.877592 18.994957 0.027199
v 19.933758 19.013720 -0.005302
v 20.066263 19.135399 0.077271
v 20.000011 19.143425 0.066817
v 20.122429 19.112555 0.107045
v 20.159958 19.078365 0.151605
v 20.173136 19.038033 0.204166
v 20.159958 18.997702 0.256728
v 20.122429 18.963509 0.301287
v 20.066263 18.940662 0.331061
v 20.000011 18.932642 0.341515
v 19.933760 18.940662 0.331061
v 19.877592 18.963509 0.301287
v 19.840065 18.997702 0.256728
v 19.826885 19.038033 0.204166
v 19.840065 19.078365 0.151605
v 19.877592 19.112555 0.107045
v 19.933760 19.135399 0.077271
v 20.066265 19.245260 0.175021
v 20.000013 19.254581 0.165703
v 20.122431 19.218725 0.201558
v 20.159960 19.179012 0.241274
v 20.173138 19.132162 0.288121
v 20.159960 19.085318 0.334969
v 20.122431 19.045601 0.374683
v 20.066265 19.019064 0.401220
v 20.000013 19.009747 0.410539
v 19.933760 19.019064 0.401220
v 19.877594 19.045601 0.374683
v 19.840067 19.085318 0.334969
v 19.826887 19.132162 0.288121
v 19.840067 19.179012 0.241274
v 19.877594 19.218725 0.201558
v 19.933760 19.245260 0.175021
v 20.066267 19.341423 0.286273
v 20.000015 19.351881 0.278252
v 20.122433 19.311649 0.309120
v 20.159962 19.267094 0.343313
v 20.173140 19.214529 0.383644
v 20.159962 19.161970 0.423976
v 20.122433 19.117409 0.458167
v 20.066267 19.087635 0.481013
v 20.000015 19.077183 0.489036
v 19.933762 19.087635 0.481013
v 19.877596 19.117409 0.458167
v 19.840069 19.161970 0.423976
v 19.826889 19.214529 0.383644
v 19.840069 19.267094 0.343313
v 19.877596 19.311649 0.309120
v 19.933762 19.341423 0.286273
v 20.066269 19.422241 0.409126
v 20.000017 19.433657 0.402538
v 20.122435 19.389740 0.427891
v 20.159964 19.341103 0.455975
v 20.173141 19.283724 0.489100
v 20.159964 19.226351 0.522227
v 20.122435 19.177706 0.550309
v 20.066269 19.145205 0.569074
v 20.000017 19.133795 0.575663
v 19.933764 19.145205 0.569074
v 19.877598 19.177706 0.550309
v 19.840069 19.226351 0.522227
v 19.826891 19.283724 0.489100
v 19.840069 19.341103 0.455975
v 19.877598 19.389740 0.427891
v 19.933764 19.422241 0.409126
v 20.066271 19.486332 0.541476
v 20.000017 19.498510 0.536435
v 20.122437 19.451660 0.555839
v 20.159964 19.399773 0.577334
v 20.173143 19.338560 0.602686
v 20.159964 19.277355 0.628041
v 20.122437 19.225460 0.649533
v 20.066271 19.190788 0.663895
v 20.000017 19.178616 0.668939
v 19.933765 19.190788 0.663895
v 19.877600 19.225460 0.649533
v 19.840071 19.277355 0.628041
v 19.826893 19.338560 0.602686
v 19.840071 19.399773 0.577334
v 19.877600 19.451660 0.555839
v 19.933765 19.486332 0.541476
v 20.066273 19.532600 0.681060
v 20.000019 19.545332 0.677652
v 20.122438 19.496349 0.690774
v 20.159966 19.442101 0.705313
v 20.173145 19.378101 0.722458
v 20.159966 19.314112 0.739607
v 20.122438 19.259855 0.754142
v 20.066273 19.223606 0.763855
v 20.000019 19.210878 0.767267
v 19.933767 19.223606 0.763855
v 19.877602 19.259855 0.754142
v 19.840073 19.314112 0.739607
v 19.826895 19.378101 0.722458
v 19.840073 19.442101 0.705313
v 19.877602 19.496349 0.690774
v 19.933767 19.532600 0.681060
v 20.066275 19.560253 0.825489
v 20.000021 19.573320 0.823771
v 20.122440 19.523045 0.830388
v 20.159967 19.467361 0.837722
v 20.173147 19.401672 0.846367
v 20.159967 19.335991 0.855017
v 20.122440 19.280302 0.862345
v 20.066275 19.243095 0.867244
v 20.000021 19.230032 0.868965
v 19.933769 19.243095 0.867244
v 19.877604 19.280302 0.862345
v 19.840075 19.335991 0.855017
v 19.826897 19.401672 0.846367
v 19.840075 19.467361 0.837722
v 19.877604 19.523045 0.830388
v 19.933769 19.560253 0.825489
v 20.066275 19.568817 0.972291
v 20.000023 19.581997 0.972294
v 20.122440 19.531288 0.972292
v 20.159969 19.475124 0.972295
v 20.173149 19.408869 0.972292
v 20.159969 19.342619 0.972295
v 20.122440 19.286451 0.972292
v 20.066275 19.248922 0.972292
v 20.000023 19.235746 0.972293
v 19.933771 19.248922 0.972292
v 19.877605 19.286451 0.972292
v 19.840076 19.342619 0.972295
v 19.826899 19.408869 0.972292
v 19.840076 19.475124 0.972295
v 19.877605 19.531288 0.972292
v 19.933771 19.568817 0.972291
v 20.066275 19.568817 5.972291
v 20.000023 19.581997 5.972294
v 20.122440 19.531288 5.972292
v 20.159969 19.475124 5.972295
v 20.173149 19.408871 5.972292
v 20.159969 19.342621 5.972295
v 20.122440 19.286453 5.972291
v 20.066275 19.248924 5.972292
v 20.000023 19.235748 5.972293
v 19.933771 19.248924 5.972292
v 19.877605 19.286453 5.972291
v 19.840076 19.342621 5.972295
v 19.826899 19.408871 5.972292
v 19.840076 19.475124 5.972295
v 19.877605 19.531288 5.972292
v 19.933771 19.568817 5.972291
vn 0.1951 -0.0000 -0.9808
vn 0.5556 -0.0000 -0.8315
vn 0.8315 -0.0000 -0.5556
vn 0.9808 -0.0000 -0.1951
vn 0.9808 -0.0000 0.1951
vn 0.8315 -0.0000 0.5556
vn 0.5556 -0.0000 0.8315
vn 0.1951 -0.0000 0.9808
vn -0.1951 -0.0000 0.9808
vn -0.5556 -0.0000 0.8315
vn -0.8315 -0.0000 0.5556
vn -0.9808 -0.0000 0.1951
vn -0.9808 -0.0000 -0.1951
vn -0.8315 -0.0000 -0.5556
vn -0.5556 -0.0000 -0.8315
vn -0.1951 -0.0000 -0.9808
vn -0.0000 -1.0000 -0.0000
vn 0.1920 0.1786 -0.9650
vn 0.5466 0.1786 -0.8181
vn 0.8181 0.1786 -0.5466
vn 0.9650 0.1786 -0.1920
vn 0.9650 0.1786 0.1920
vn 0.8181 0.1786 0.5466
vn 0.5466 0.1786 0.8181
vn 0.1920 0.1786 0.9650
vn -0.1920 0.1786 0.9650
vn -0.5466 0.1786 0.8181
vn -0.8181 0.1786 0.5466
vn -0.9650 0.1786 0.1920
vn -0.9650 0.1786 -0.1920
vn -0.8181 0.1786 -0.5466
vn -0.5466 0.1786 -0.8181
vn -0.1920 0.1786 -0.9650
vn -0.8309 -0.0415 0.5549
vn -0.1947 0.1982 -0.9606
vn 0.9807 0.0144 -0.1950
vn -0.9807 -0.0145 0.1950
vn 0.9807 -0.0145 0.1950
vn -0.9807 0.0144 -0.1950
vn 0.8309 -0.0416 0.5549
vn -0.8309 0.0406 -0.5549
vn 0.5547 -0.0626 0.8297
vn -0.5547 0.0605 -0.8298
vn 0.1947 -0.0741 0.9781
vn 0.1947 0.0711 -0.9783
vn -0.1947 0.0711 -0.9783
vn -0.1947 -0.0740 0.9781
vn 0.5547 0.0605 -0.8298
vn -0.5547 -0.0625 0.8297
vn 0.8309 0.0406 -0.5549
vn -0.8309 0.1829 -0.5255
vn -0.1947 -0.2011 0.9600
vn 0.5547 0.1683 -0.8148
vn -0.5547 -0.1703 0.8144
vn 0.8309 0.1127 -0.5449
vn -0.8309 -0.1136 0.5447
vn 0.9807 0.0397 -0.1914
vn -0.9807 -0.0398 0.1914
vn 0.9807 -0.0398 0.1914
vn -0.9807 0.0397 -0.1914
vn 0.8309 -0.1136 0.5447
vn -0.8309 0.1127 -0.5449
vn 0.5547 -0.1703 0.8144
vn -0.5547 0.1683 -0.8148
vn 0.1947 -0.2011 0.9600
vn 0.1947 0.1982 -0.9606
vn 0.9807 0.0879 -0.1746
vn 0.5547 -0.2752 0.7852
vn -0.5547 0.2732 -0.7859
vn 0.1947 -0.3247 0.9256
vn 0.1947 0.3219 -0.9265
vn -0.1947 0.3219 -0.9265
vn -0.1947 -0.3247 0.9256
vn 0.5547 0.2732 -0.7859
vn -0.5547 -0.2752 0.7852
vn 0.8309 0.1829 -0.5255
vn -0.8309 -0.1837 0.5252
vn 0.9807 0.0643 -0.1846
vn -0.9807 -0.0644 0.1846
vn 0.9807 -0.0645 0.1846
vn -0.9807 0.0644 -0.1846
vn 0.8309 -0.1837 0.5252
vn -0.1947 -0.5532 0.8100
vn -0.9807 -0.0880 0.1746
vn 0.9807 -0.0880 0.1746
vn -0.9807 0.0879 -0.1746
vn 0.8309 -0.2507 0.4967
vn -0.8309 0.2499 -0.4971
vn 0.5547 -0.3753 0.7426
vn -0.5547 0.3734 -0.7435
vn 0.1947 -0.4427 0.8753
vn 0.1947 0.4401 -0.8766
vn -0.1947 0.4401 -0.8766
vn -0.1947 -0.4427 0.8753
vn 0.5547 0.3734 -0.7435
vn -0.5547 -0.3753 0.7426
vn 0.8309 0.2499 -0.4971
vn -0.8309 -0.2507 0.4967
vn -0.8309 0.3701 -0.4155
vn 0.5547 0.4673 -0.6884
vn -0.5547 -0.4690 0.6872
vn 0.8309 0.3126 -0.4603
vn -0.8309 -0.3134 0.4598
vn 0.9807 0.1099 -0.1617
vn -0.9807 -0.1100 0.1616
vn 0.9807 -0.1100 0.1616
vn -0.9807 0.1099 -0.1617
vn 0.8309 -0.3134 0.4597
vn -0.8309 0.3127 -0.4603
vn 0.5547 -0.4690 0.6872
vn -0.5547 0.4673 -0.6884
vn 0.1947 -0.5532 0.8100
vn 0.1947 0.5507 -0.8116
vn -0.1947 0.5507 -0.8116
vn 0.9807 0.1480 -0.1277
vn 0.5547 -0.5547 0.6201
vn -0.5547 0.5532 -0.6215
vn 0.1947 -0.6542 0.7309
vn 0.1947 0.6520 -0.7328
vn -0.1947 0.6520 -0.7328
vn -0.1947 -0.6542 0.7309
vn 0.5547 0.5531 -0.6215
vn -0.5547 -0.5547 0.6202
vn 0.8309 0.3700 -0.4155
vn -0.8309 -0.3707 0.4149
vn 0.9807 0.1301 -0.1459
vn -0.9807 -0.1302 0.1459
vn 0.9807 -0.1302 0.1459
vn -0.9807 0.1301 -0.1459
vn 0.8309 -0.3707 0.4149
vn -0.1946 -0.8210 0.5367
vn -0.9807 -0.1481 0.1276
vn 0.9807 -0.1481 0.1276
vn -0.9807 0.1480 -0.1277
vn 0.8309 -0.4217 0.3630
vn -0.8309 0.4211 -0.3637
vn 0.5547 -0.6309 0.5424
vn -0.5547 0.6295 -0.5440
vn 0.1947 -0.7440 0.6392
vn 0.1947 0.7420 -0.6415
vn -0.1947 0.7420 -0.6414
vn -0.1947 -0.7440 0.6392
vn 0.5547 0.6295 -0.5440
vn -0.5547 -0.6309 0.5424
vn 0.8309 0.4211 -0.3637
vn -0.8309 -0.4217 0.3630
vn -0.8309 0.5009 -0.2423
vn 0.5547 0.6951 -0.4572
vn -0.5547 -0.6963 0.4554
vn 0.8309 0.4650 -0.3056
vn -0.8309 -0.4655 0.3048
vn 0.9807 0.1634 -0.1073
vn -0.9807 -0.1635 0.1072
vn 0.9807 -0.1635 0.1072
vn -0.9807 0.1634 -0.1073
vn 0.8309 -0.4655 0.3048
vn -0.8309 0.4650 -0.3056
vn 0.5547 -0.6963 0.4554
vn -0.5547 0.6952 -0.4572
vn 0.1946 -0.8210 0.5367
vn 0.1947 0.8194 -0.5391
vn -0.1947 0.8194 -0.5391
vn -0.9807 -0.1857 0.0613
vn 0.5547 -0.7498 0.3607
vn -0.5547 0.7489 -0.3625
vn 0.1946 -0.8841 0.4249
vn 0.1947 0.8828 -0.4275
vn -0.1947 0.8828 -0.4275
vn -0.1946 -0.8841 0.4249
vn 0.5547 0.7489 -0.3625
vn -0.5547 -0.7498 0.3607
vn 0.8309 0.5009 -0.2423
vn -0.8309 -0.5013 0.2415
vn 0.9807 0.1760 -0.0851
vn -0.9807 -0.1761 0.0850
vn 0.9807 -0.1761 0.0849
vn -0.9807 0.1760 -0.0850
vn 0.8309 -0.5013 0.2414
vn 0.5548 0.8172 -0.1564
vn 0.9807 -0.1857 0.0612
vn -0.9807 0.1856 -0.0613
vn 0.8309 -0.5285 0.1739
vn -0.8309 0.5282 -0.1748
vn 0.5547 -0.7905 0.2597
vn -0.5547 0.7898 -0.2617
vn 0.1947 -0.9320 0.3059
vn 0.1947 0.9310 -0.3087
vn -0.1947 0.9310 -0.3087
vn -0.1947 -0.9320 0.3059
vn 0.5547 0.7898 -0.2617
vn -0.5547 -0.7905 0.2597
vn 0.8309 0.5282 -0.1748
vn -0.8309 -0.5285 0.1740
vn 0.9807 0.1856 -0.0613
vn 0.5547 -0.8308 0.0463
vn -0.5547 -0.8176 0.1543
vn 0.8309 0.5465 -0.1044
vn -0.8309 -0.5467 0.1035
vn 0.9807 0.1920 -0.0366
vn -0.9807 -0.1921 0.0365
vn 0.9807 -0.1921 0.0365
vn -0.9807 0.1920 -0.0366
vn 0.8309 -0.5467 0.1035
vn -0.8309 0.5465 -0.1044
vn 0.5547 -0.8176 0.1543
vn -0.5548 0.8172 -0.1564
vn 0.1947 -0.9639 0.1816
vn 0.1947 0.9634 -0.1845
vn -0.1947 0.9634 -0.1845
vn -0.1947 -0.9639 0.1816
vn -0.9808 -0.1951 -0.0000
vn -0.5547 0.8306 -0.0483
vn 0.1947 -0.9794 0.0542
vn 0.1947 0.9792 -0.0572
vn -0.1947 0.9792 -0.0572
vn -0.1947 -0.9794 0.0542
vn 0.5547 0.8306 -0.0484
vn -0.5547 -0.8308 0.0463
vn 0.8309 0.5555 -0.0322
vn -0.8309 -0.5555 0.0313
vn 0.9807 0.1952 -0.0112
vn -0.9807 -0.1952 0.0111
vn 0.9807 -0.1952 0.0111
vn -0.9807 0.1952 -0.0112
vn 0.8309 -0.5555 0.0312
vn -0.8309 0.5555 -0.0321
vn -0.0000 -0.0000 1.0000
vn 0.9808 -0.1951 -0.0000
vn -0.9808 0.1951 -0.0000
vn 0.8315 -0.5556 -0.0000
vn -0.8315 0.5556 -0.0000
vn 0.5556 -0.8315 -0.0000
vn -0.5556 0.8315 -0.0000
vn 0.1951 -0.9808 -0.0000
vn 0.1951 0.9808 -0.0000
vn -0.1951 0.9808 -0.0000
vn -0.1951 -0.9808 -0.0000
vn 0.5556 0.8315 -0.0000
vn -0.5556 -0.8315 -0.0000
vn 0.8315 0.5556 -0.0000
vn -0.8315 -0.5556 -0.0000
vn 0.9808 0.1951 -0.0000
vt 1.000000 0.500000
vt 1.000000 1.000000
vt 0.937500 1.000000
vt 0.937500 0.500000
vt 0.875000 1.000000
vt 0.875000 0.500000
vt 0.812500 1.000000
vt 0.812500 0.500000
vt 0.750000 1.000000
vt 0.750000 0.500000
vt 0.687500 1.000000
vt 0.687500 0.500000
vt 0.625000 1.000000
vt 0.625000 0.500000
vt 0.562500 1.000000
vt 0.562500 0.500000
vt 0.500000 1.000000
vt 0.500000 0.500000
vt 0.437500 1.000000
vt 0.437500 0.500000
vt 0.375000 1.000000
vt 0.375000 0.500000
vt 0.312500 1.000000
vt 0.312500 0.500000
vt 0.250000 1.000000
vt 0.250000 0.500000
vt 0.187500 1.000000
vt 0.187500 0.500000
vt 0.125000 1.000000
vt 0.125000 0.500000
vt 0.186618 0.096983
vt 0.250000 0.084376
vt 0.062500 1.000000
vt 0.062500 0.500000
vt 0.000000 1.000000
vt 0.000000 0.500000
vt 0.750000 0.490000
vt 0.841844 0.471731
vt 0.919706 0.419706
vt 0.971731 0.341844
vt 0.990000 0.250000
vt 0.971731 0.158156
vt 0.919706 0.080294
vt 0.841844 0.028269
vt 0.750000 0.010000
vt 0.658156 0.028269
vt 0.580294 0.080294
vt 0.528269 0.158156
vt 0.510000 0.250000
vt 0.528269 0.341844
vt 0.580294 0.419706
vt 0.658156 0.471731
vt 0.250000 0.415624
vt 0.313382 0.403017
vt 0.341844 0.471731
vt 0.250000 0.490000
vt 0.367114 0.367114
vt 0.419706 0.419706
vt 0.403017 0.313382
vt 0.471731 0.341844
vt 0.415624 0.250000
vt 0.490000 0.250000
vt 0.403017 0.186618
vt 0.471731 0.158156
vt 0.367114 0.132886
vt 0.419706 0.080294
vt 0.313382 0.096983
vt 0.341844 0.028269
vt 0.250000 0.010000
vt 0.158156 0.028269
vt 0.132886 0.132886
vt 0.080294 0.080294
vt 0.096983 0.186618
vt 0.028269 0.158156
vt 0.084376 0.250000
vt 0.010000 0.250000
vt 0.096983 0.313382
vt 0.028269 0.341844
vt 0.132886 0.367114
vt 0.080294 0.419706
vt 0.186618 0.403017
vt 0.158156 0.471731
s 0
f 1/1/1 34/2/1 33/3/1 3/4/1
f 3/4/2 33/3/2 35/5/2 5/6/2
f 5/6/3 35/5/3 36/7/3 7/8/3
f 7/8/4 36/7/4 37/9/4 9/10/4
f 9/10/5 37/9/5 38/11/5 11/12/5
f 11/12/6 38/11/6 39/13/6 13/14/6
f 13/14/7 39/13/7 40/15/7 15/16/7
f 15/16/8 40/15/8 41/17/8 17/18/8
f 17/18/9 41/17/9 42/19/9 19/20/9
f 19/20/10 42/19/10 43/21/10 21/22/10
f 21/22/11 43/21/11 44/23/11 23/24/11
f 23/24/12 44/23/12 45/25/12 25/26/12
f 25/26/13 45/25/13 46/27/13 27/28/13
f 27/28/14 46/27/14 47/29/14 29/30/14
f 20/31/9 18/32/9 57/32/9 58/31/9
f 29/30/15 47/29/15 48/33/15 31/34/15
f 31/34/16 48/33/16 34/35/16 1/36/16
f 1/37/17 3/38/17 5/39/17 7/40/17 9/41/17 11/42/17 13/43/17 15/44/17 17/45/17 19/46/17 21/47/17 23/48/17 25/49/17 27/50/17 29/51/17 31/52/17
f 2/53/18 4/54/18 33/55/18 34/56/18
f 4/54/19 6/57/19 35/58/19 33/55/19
f 6/57/20 8/59/20 36/60/20 35/58/20
f 8/59/21 10/61/21 37/62/21 36/60/21
f 10/61/22 12/63/22 38/64/22 37/62/22
f 12/63/23 14/65/23 39/66/23 38/64/23
f 14/65/24 16/67/24 40/68/24 39/66/24
f 16/67/25 18/32/25 41/69/25 40/68/25
f 18/32/26 20/31/26 42/70/26 41/69/26
f 20/31/27 22/71/27 43/72/27 42/70/27
f 22/71/28 24/73/28 44/74/28 43/72/28
f 24/73/29 26/75/29 45/76/29 44/74/29
f 26/75/30 28/77/30 46/78/30 45/76/30
f 28/77/31 30/79/31 47/80/31 46/78/31
f 30/79/32 32/81/32 48/82/32 47/80/32
f 32/81/33 2/53/33 34/56/33 48/82/33
f 60/73/34 59/71/34 75/71/34 76/73/34
f 6/57/2 4/54/2 49/54/2 51/57/2
f 22/71/10 20/31/10 58/31/10 59/71/10
f 8/59/3 6/57/3 51/57/3 52/59/3
f 24/73/11 22/71/11 59/71/11 60/73/11
f 10/61/4 8/59/4 52/59/4 53/61/4
f 26/75/12 24/73/12 60/73/12 61/75/12
f 12/63/5 10/61/5 53/61/5 54/63/5
f 28/77/13 26/75/13 61/75/13 62/77/13
f 14/65/6 12/63/6 54/63/6 55/65/6
f 30/79/14 28/77/14 62/77/14 63/79/14
f 16/67/7 14/65/7 55/65/7 56/67/7
f 32/81/15 30/79/15 63/79/15 64/81/15
f 18/32/8 16/67/8 56/67/8 57/32/8
f 4/54/1 2/53/1 50/53/1 49/54/1
f 2/53/16 32/81/16 64/81/16 50/53/16
f 66/53/35 80/81/35 96/81/35 82/53/35
f 53/61/36 52/59/36 68/59/36 69/61/36
f 61/75/37 60/73/37 76/73/37 77/75/37
f 54/63/38 53/61/38 69/61/38 70/63/38
f 62/77/39 61/75/39 77/75/39 78/77/39
f 55/65/40 54/63/40 70/63/40 71/65/40
f 63/79/41 62/77/41 78/77/41 79/79/41
f 56/67/42 55/65/42 71/65/42 72/67/42
f 64/81/43 63/79/43 79/79/43 80/81/43
f 57/32/44 56/67/44 72/67/44 73/32/44
f 49/54/45 50/53/45 66/53/45 65/54/45
f 50/53/46 64/81/46 80/81/46 66/53/46
f 58/31/47 57/32/47 73/32/47 74/31/47
f 51/57/48 49/54/48 65/54/48 67/57/48
f 59/71/49 58/31/49 74/31/49 75/71/49
f 52/59/50 51/57/50 67/57/50 68/59/50
f 95/79/51 94/77/51 110/77/51 111/79/51
f 74/31/52 73/32/52 89/32/52 90/31/52
f 67/57/53 65/54/53 81/54/53 83/57/53
f 75/71/54 74/31/54 90/31/54 91/71/54
f 68/59/55 67/57/55 83/57/55 84/59/55
f 76/73/56 75/71/56 91/71/56 92/73/56
f 69/61/57 68/59/57 84/59/57 85/61/57
f 77/75/58 76/73/58 92/73/58 93/75/58
f 70/63/59 69/61/59 85/61/59 86/63/59
f 78/77/60 77/75/60 93/75/60 94/77/60
f 71/65/61 70/63/61 86/63/61 87/65/61
f 79/79/62 78/77/62 94/77/62 95/79/62
f 72/67/63 71/65/63 87/65/63 88/67/63
f 80/81/64 79/79/64 95/79/64 96/81/64
f 73/32/65 72/67/65 88/67/65 89/32/65
f 65/54/66 66/53/66 82/53/66 81/54/66
f 101/61/67 100/59/67 116/59/67 117/61/67
f 88/67/68 87/65/68 103/65/68 104/67/68
f 96/81/69 95/79/69 111/79/69 112/81/69
f 89/32/70 88/67/70 104/67/70 105/32/70
f 81/54/71 82/53/71 98/53/71 97/54/71
f 82/53/72 96/81/72 112/81/72 98/53/72
f 90/31/73 89/32/73 105/32/73 106/31/73
f 83/57/74 81/54/74 97/54/74 99/57/74
f 91/71/75 90/31/75 106/31/75 107/71/75
f 84/59/76 83/57/76 99/57/76 100/59/76
f 92/73/77 91/71/77 107/71/77 108/73/77
f 85/61/78 84/59/78 100/59/78 101/61/78
f 93/75/79 92/73/79 108/73/79 109/75/79
f 86/63/80 85/61/80 101/61/80 102/63/80
f 94/77/81 93/75/81 109/75/81 110/77/81
f 87/65/82 86/63/82 102/63/82 103/65/82
f 122/31/83 121/32/83 137/32/83 138/31/83
f 109/75/84 108/73/84 124/73/84 125/75/84
f 102/63/85 101/61/85 117/61/85 118/63/85
f 110/77/86 109/75/86 125/75/86 126/77/86
f 103/65/87 102/63/87 118/63/87 119/65/87
f 111/79/88 110/77/88 126/77/88 127/79/88
f 104/67/89 103/65/89 119/65/89 120/67/89
f 112/81/90 111/79/90 127/79/90 128/81/90
f 105/32/91 104/67/91 120/67/91 121/32/91
f 97/54/92 98/53/92 114/53/92 113/54/92
f 98/53/93 112/81/93 128/81/93 114/53/93
f 106/31/94 105/32/94 121/32/94 122/31/94
f 99/57/95 97/54/95 113/54/95 115/57/95
f 107/71/96 106/31/96 122/31/96 123/71/96
f 100/59/97 99/57/97 115/57/97 116/59/97
f 108/73/98 107/71/98 123/71/98 124/73/98
f 143/79/99 142/77/99 158/77/99 159/79/99
f 115/57/100 113/54/100 129/54/100 131/57/100
f 123/71/101 122/31/101 138/31/101 139/71/101
f 116/59/102 115/57/102 131/57/102 132/59/102
f 124/73/103 123/71/103 139/71/103 140/73/103
f 117/61/104 116/59/104 132/59/104 133/61/104
f 125/75/105 124/73/105 140/73/105 141/75/105
f 118/63/106 117/61/106 133/61/106 134/63/106
f 126/77/107 125/75/107 141/75/107 142/77/107
f 119/65/108 118/63/108 134/63/108 135/65/108
f 127/79/109 126/77/109 142/77/109 143/79/109
f 120/67/110 119/65/110 135/65/110 136/67/110
f 128/81/111 127/79/111 143/79/111 144/81/111
f 121/32/112 120/67/112 136/67/112 137/32/112
f 113/54/113 114/53/113 130/53/113 129/54/113
f 114/53/114 128/81/114 144/81/114 130/53/114
f 149/61/115 148/59/115 164/59/115 165/61/115
f 136/67/116 135/65/116 151/65/116 152/67/116
f 144/81/117 143/79/117 159/79/117 160/81/117
f 137/32/118 136/67/118 152/67/118 153/32/118
f 129/54/119 130/53/119 146/53/119 145/54/119
f 130/53/120 144/81/120 160/81/120 146/53/120
f 138/31/121 137/32/121 153/32/121 154/31/121
f 131/57/122 129/54/122 145/54/122 147/57/122
f 139/71/123 138/31/123 154/31/123 155/71/123
f 132/59/124 131/57/124 147/57/124 148/59/124
f 140/73/125 139/71/125 155/71/125 156/73/125
f 133/61/126 132/59/126 148/59/126 149/61/126
f 141/75/127 140/73/127 156/73/127 157/75/127
f 134/63/128 133/61/128 149/61/128 150/63/128
f 142/77/129 141/75/129 157/75/129 158/77/129
f 135/65/130 134/63/130 150/63/130 151/65/130
f 170/31/131 169/32/131 185/32/131 186/31/131
f 157/75/132 156/73/132 172/73/132 173/75/132
f 150/63/133 149/61/133 165/61/133 166/63/133
f 158/77/134 157/75/134 173/75/134 174/77/134
f 151/65/135 150/63/135 166/63/135 167/65/135
f 159/79/136 158/77/136 174/77/136 175/79/136
f 152/67/137 151/65/137 167/65/137 168/67/137
f 160/81/138 159/79/138 175/79/138 176/81/138
f 153/32/139 152/67/139 168/67/139 169/32/139
f 145/54/140 146/53/140 162/53/140 161/54/140
f 146/53/141 160/81/141 176/81/141 162/53/141
f 154/31/142 153/32/142 169/32/142 170/31/142
f 147/57/143 145/54/143 161/54/143 163/57/143
f 155/71/144 154/31/144 170/31/144 171/71/144
f 148/59/145 147/57/145 163/57/145 164/59/145
f 156/73/146 155/71/146 171/71/146 172/73/146
f 191/79/147 190/77/147 206/77/147 207/79/147
f 163/57/148 161/54/148 177/54/148 179/57/148
f 171/71/149 170/31/149 186/31/149 187/71/149
f 164/59/150 163/57/150 179/57/150 180/59/150
f 172/73/151 171/71/151 187/71/151 188/73/151
f 165/61/152 164/59/152 180/59/152 181/61/152
f 173/75/153 172/73/153 188/73/153 189/75/153
f 166/63/154 165/61/154 181/61/154 182/63/154
f 174/77/155 173/75/155 189/75/155 190/77/155
f 167/65/156 166/63/156 182/63/156 183/65/156
f 175/79/157 174/77/157 190/77/157 191/79/157
f 168/67/158 167/65/158 183/65/158 184/67/158
f 176/81/159 175/79/159 191/79/159 192/81/159
f 169/32/160 168/67/160 184/67/160 185/32/160
f 161/54/161 162/53/161 178/53/161 177/54/161
f 162/53/162 176/81/162 192/81/162 178/53/162
f 205/75/163 204/73/163 220/73/163 221/75/163
f 184/67/164 183/65/164 199/65/164 200/67/164
f 192/81/165 191/79/165 207/79/165 208/81/165
f 185/32/166 184/67/166 200/67/166 201/32/166
f 177/54/167 178/53/167 194/53/167 193/54/167
f 178/53/168 192/81/168 208/81/168 194/53/168
f 186/31/169 185/32/169 201/32/169 202/31/169
f 179/57/170 177/54/170 193/54/170 195/57/170
f 187/71/171 186/31/171 202/31/171 203/71/171
f 180/59/172 179/57/172 195/57/172 196/59/172
f 188/73/173 187/71/173 203/71/173 204/73/173
f 181/61/174 180/59/174 196/59/174 197/61/174
f 189/75/175 188/73/175 204/73/175 205/75/175
f 182/63/176 181/61/176 197/61/176 198/63/176
f 190/77/177 189/75/177 205/75/177 206/77/177
f 183/65/178 182/63/178 198/63/178 199/65/178
f 211/57/179 209/54/179 225/54/179 227/57/179
f 198/63/180 197/61/180 213/61/180 214/63/180
f 206/77/181 205/75/181 221/75/181 222/77/181
f 199/65/182 198/63/182 214/63/182 215/65/182
f 207/79/183 206/77/183 222/77/183 223/79/183
f 200/67/184 199/65/184 215/65/184 216/67/184
f 208/81/185 207/79/185 223/79/185 224/81/185
f 201/32/186 200/67/186 216/67/186 217/32/186
f 193/54/187 194/53/187 210/53/187 209/54/187
f 194/53/188 208/81/188 224/81/188 210/53/188
f 202/31/189 201/32/189 217/32/189 218/31/189
f 195/57/190 193/54/190 209/54/190 211/57/190
f 203/71/191 202/31/191 218/31/191 219/71/191
f 196/59/192 195/57/192 211/57/192 212/59/192
f 204/73/193 203/71/193 219/71/193 220/73/193
f 197/61/194 196/59/194 212/59/194 213/61/194
f 232/67/195 231/65/195 247/65/195 248/67/195
f 219/71/196 218/31/196 234/31/196 235/71/196
f 212/59/197 211/57/197 227/57/197 228/59/197
f 220/73/198 219/71/198 235/71/198 236/73/198
f 213/61/199 212/59/199 228/59/199 229/61/199
f 221/75/200 220/73/200 236/73/200 237/75/200
f 214/63/201 213/61/201 229/61/201 230/63/201
f 222/77/202 221/75/202 237/75/202 238/77/202
f 215/65/203 214/63/203 230/63/203 231/65/203
f 223/79/204 222/77/204 238/77/204 239/79/204
f 216/67/205 215/65/205 231/65/205 232/67/205
f 224/81/206 223/79/206 239/79/206 240/81/206
f 217/32/207 216/67/207 232/67/207 233/32/207
f 209/54/208 210/53/208 226/53/208 225/54/208
f 210/53/209 224/81/209 240/81/209 226/53/209
f 218/31/210 217/32/210 233/32/210 234/31/210
f 253/75/211 252/73/211 268/73/211 269/75/211
f 240/81/212 239/79/212 255/79/212 256/81/212
f 233/32/213 232/67/213 248/67/213 249/32/213
f 225/54/214 226/53/214 242/53/214 241/54/214
f 226/53/215 240/81/215 256/81/215 242/53/215
f 234/31/216 233/32/216 249/32/216 250/31/216
f 227/57/217 225/54/217 241/54/217 243/57/217
f 235/71/218 234/31/218 250/31/218 251/71/218
f 228/59/219 227/57/219 243/57/219 244/59/219
f 236/73/220 235/71/220 251/71/220 252/73/220
f 229/61/221 228/59/221 244/59/221 245/61/221
f 237/75/222 236/73/222 252/73/222 253/75/222
f 230/63/223 229/61/223 245/61/223 246/63/223
f 238/77/224 237/75/224 253/75/224 254/77/224
f 231/65/225 230/63/225 246/63/225 247/65/225
f 239/79/226 238/77/226 254/77/226 255/79/226
f 257/54/227 258/53/227 272/81/227 271/79/227 270/77/227 269/75/227 268/73/227 267/71/227 266/31/227 265/32/227 264/67/227 263/65/227 262/63/227 261/61/227 260/59/227 259/57/227
f 246/63/228 245/61/228 261/61/228 262/63/228
f 254/77/229 253/75/229 269/75/229 270/77/229
f 247/65/230 246/63/230 262/63/230 263/65/230
f 255/79/231 254/77/231 270/77/231 271/79/231
f 248/67/232 247/65/232 263/65/232 264/67/232
f 256/81/233 255/79/233 271/79/233 272/81/233
f 249/32/234 248/67/234 264/67/234 265/32/234
f 241/54/235 242/53/235 258/53/235 257/54/235
f 242/53/236 256/81/236 272/81/236 258/53/236
f 250/31/237 249/32/237 265/32/237 266/31/237
f 243/57/238 241/54/238 257/54/238 259/57/238
f 251/71/239 250/31/239 266/31/239 267/71/239
f 244/59/240 243/57/240 259/57/240 260/59/240
f 252/73/241 251/71/241 267/71/241 268/73/241
f 245/61/242 244/59/242 260/59/242 261/61/242
o Cube.002
v 19.091597 19.139479 7.531531
v 19.389788 19.697933 7.233339
v 19.091597 19.139479 5.714723
v 19.389788 19.697933 6.012915
v 20.908403 19.139479 7.531531
v 20.610212 19.697933 7.233339
v 20.908403 19.139479 5.714723
v 20.610212 19.697933 6.012915
v 18.975601 19.131386 5.883163
v 18.874428 19.131386 6.113617
v 18.813215 19.131386 6.363452
v 18.792711 19.131386 6.623127
v 18.813215 19.131386 6.882802
v 18.874428 19.131386 7.132637
v 18.975599 19.131386 7.363091
v 19.100649 19.211937 7.522478
v 19.123522 19.306370 7.499606
v 19.151516 19.396194 7.471610
v 19.187197 19.479107 7.435930
v 19.232296 19.552912 7.390831
v 19.285231 19.615860 7.337896
v 19.342348 19.666021 7.280780
v 19.349304 19.711575 7.133562
v 19.305941 19.726265 6.984148
v 19.275499 19.736639 6.809661
v 19.264231 19.740498 6.623127
v 19.275499 19.736639 6.436593
v 19.305941 19.726265 6.262106
v 19.349304 19.711575 6.112692
v 19.342348 19.666021 5.965474
v 19.285231 19.615860 5.908358
v 19.232296 19.552912 5.855423
v 19.187197 19.479107 5.810324
v 19.151516 19.396194 5.774643
v 19.123522 19.306370 5.746648
v 19.100649 19.211937 5.723776
v 20.739964 19.131386 5.598727
v 20.509510 19.131386 5.497555
v 20.259676 19.131386 5.436342
v 20.000000 19.131386 5.415838
v 19.740324 19.131386 5.436342
v 19.490490 19.131386 5.497555
v 19.260036 19.131386 5.598727
v 19.489565 19.711575 5.972432
v 19.638979 19.726265 5.929068
v 19.813465 19.736639 5.898627
v 20.000000 19.740498 5.887358
v 20.186535 19.736639 5.898627
v 20.361021 19.726265 5.929068
v 20.510435 19.711575 5.972432
v 20.657652 19.666021 5.965474
v 20.714769 19.615860 5.908358
v 20.767704 19.552912 5.855423
v 20.812803 19.479107 5.810324
v 20.848484 19.396194 5.774644
v 20.876478 19.306370 5.746648
v 20.899351 19.211937 5.723776
v 21.024399 19.131386 7.363091
v 21.125572 19.131386 7.132637
v 21.186785 19.131386 6.882802
v 21.207289 19.131386 6.623127
v 21.186785 19.131386 6.363452
v 21.125572 19.131386 6.113617
v 21.024401 19.131386 5.883163
v 20.650696 19.711575 6.112692
v 20.694059 19.726265 6.262106
v 20.724501 19.736639 6.436593
v 20.735769 19.740498 6.623127
v 20.724501 19.736639 6.809661
v 20.694059 19.726265 6.984148
v 20.650696 19.711575 7.133562
v 20.657652 19.666021 7.280780
v 20.714769 19.615860 7.337896
v 20.767704 19.552912 7.390831
v 20.812803 19.479107 7.435930
v 20.848484 19.396194 7.471611
v 20.876478 19.306370 7.499606
v 20.899351 19.211937 7.522478
v 19.260036 19.131386 7.647527
v 19.490490 19.131386 7.748699
v 19.740324 19.131386 7.809912
v 20.000000 19.131386 7.830416
v 20.259676 19.131386 7.809912
v 20.509510 19.131386 7.748699
v 20.739964 19.131386 7.647527
v 20.510435 19.711575 7.273822
v 20.361021 19.726265 7.317186
v 20.186535 19.736639 7.347627
v 20.000000 19.740498 7.358896
v 19.813465 19.736639 7.347627
v 19.638979 19.726265 7.317186
v 19.489565 19.711575 7.273822
v 18.953104 19.211946 7.334530
v 18.979755 19.306452 7.316452
v 19.012421 19.396471 7.294345
v 19.054102 19.479763 7.266196
v 19.107340 19.554234 7.230988
v 19.172796 19.618402 7.191690
v 19.251448 19.671047 7.154121
v 18.847715 19.211969 7.114962
v 18.877081 19.306633 7.102470
v 18.913116 19.397081 7.087204
v 18.959156 19.481205 7.067777
v 19.018408 19.557106 7.043700
v 19.093575 19.623701 7.018083
v 19.187731 19.680216 6.995667
v 18.784483 19.211992 6.874314
v 18.815487 19.306812 6.867936
v 18.853565 19.397690 6.860145
v 18.902260 19.482649 6.850233
v 18.965126 19.559916 6.838020
v 19.045782 19.628510 6.825430
v 19.147924 19.687658 6.815007
v 18.763407 19.212002 6.623127
v 18.794956 19.306894 6.623127
v 18.833725 19.397966 6.623127
v 18.883318 19.483303 6.623127
v 18.947378 19.561176 6.623127
v 19.029680 19.630562 6.623127
v 19.134029 19.690617 6.623127
v 18.784483 19.211992 6.371940
v 18.815487 19.306812 6.378318
v 18.853565 19.397690 6.386109
v 18.902260 19.482649 6.396021
v 18.965126 19.559916 6.408234
v 19.045782 19.628510 6.420824
v 19.147924 19.687658 6.431247
v 18.847715 19.211969 6.131292
v 18.877081 19.306633 6.143784
v 18.913116 19.397081 6.159050
v 18.959156 19.481205 6.178477
v 19.018408 19.557106 6.202554
v 19.093575 19.623701 6.228171
v 19.187731 19.680216 6.250587
v 18.953104 19.211946 5.911724
v 18.979755 19.306452 5.929802
v 19.012421 19.396471 5.951909
v 19.054102 19.479763 5.980058
v 19.107338 19.554234 6.015266
v 19.172796 19.618402 6.054564
v 19.251448 19.671047 6.092133
v 19.288597 19.211946 5.576230
v 19.306675 19.306452 5.602883
v 19.328781 19.396471 5.635547
v 19.356930 19.479763 5.677229
v 19.392139 19.554234 5.730466
v 19.431437 19.618402 5.795924
v 19.469006 19.671047 5.874574
v 19.508165 19.211969 5.470842
v 19.520657 19.306633 5.500208
v 19.535923 19.397081 5.536244
v 19.555351 19.481205 5.582283
v 19.579428 19.557106 5.641534
v 19.605045 19.623701 5.716701
v 19.627459 19.680216 5.810858
v 19.748812 19.211992 5.407611
v 19.755190 19.306812 5.438613
v 19.762981 19.397690 5.476692
v 19.772894 19.482649 5.525388
v 19.785107 19.559916 5.588253
v 19.797697 19.628510 5.668909
v 19.808121 19.687658 5.771051
v 20.000000 19.212002 5.386534
v 20.000000 19.306894 5.418084
v 20.000000 19.397966 5.456851
v 20.000000 19.483303 5.506444
v 20.000000 19.561176 5.570505
v 20.000000 19.630562 5.652807
v 20.000000 19.690617 5.757156
v 20.251188 19.211992 5.407611
v 20.244810 19.306812 5.438613
v 20.237019 19.397690 5.476692
v 20.227106 19.482649 5.525387
v 20.214893 19.559916 5.588253
v 20.202303 19.628510 5.668909
v 20.191879 19.687658 5.771051
v 20.491835 19.211969 5.470842
v 20.479343 19.306633 5.500208
v 20.464077 19.397081 5.536243
v 20.444649 19.481205 5.582283
v 20.420574 19.557106 5.641534
v 20.394955 19.623701 5.716701
v 20.372541 19.680216 5.810858
v 20.711403 19.211946 5.576230
v 20.693325 19.306452 5.602883
v 20.671219 19.396471 5.635547
v 20.643070 19.479763 5.677229
v 20.607861 19.554234 5.730466
v 20.568563 19.618402 5.795923
v 20.530994 19.671047 5.874574
v 21.046896 19.211946 5.911724
v 21.020245 19.306452 5.929802
v 20.987579 19.396471 5.951909
v 20.945898 19.479763 5.980058
v 20.892660 19.554234 6.015266
v 20.827204 19.618402 6.054564
v 20.748552 19.671047 6.092133
v 21.152285 19.211969 6.131292
v 21.122919 19.306633 6.143784
v 21.086884 19.397081 6.159050
v 21.040844 19.481205 6.178477
v 20.981592 19.557106 6.202554
v 20.906425 19.623701 6.228171
v 20.812269 19.680216 6.250587
v 21.215517 19.211992 6.371940
v 21.184513 19.306812 6.378318
v 21.146435 19.397690 6.386109
v 21.097740 19.482649 6.396021
v 21.034874 19.559916 6.408234
v 20.954218 19.628510 6.420824
v 20.852076 19.687658 6.431247
v 21.236593 19.212002 6.623127
v 21.205044 19.306894 6.623127
v 21.166275 19.397966 6.623127
v 21.116682 19.483303 6.623127
v 21.052622 19.561176 6.623127
v 20.970320 19.630562 6.623127
v 20.865971 19.690617 6.623127
v 21.215517 19.211992 6.874314
v 21.184513 19.306812 6.867936
v 21.146435 19.397690 6.860145
v 21.097740 19.482649 6.850233
v 21.034874 19.559916 6.838020
v 20.954218 19.628510 6.825430
v 20.852076 19.687658 6.815007
v 21.152285 19.211969 7.114962
v 21.122919 19.306633 7.102470
v 21.086884 19.397081 7.087204
v 21.040844 19.481205 7.067777
v 20.981592 19.557106 7.043700
v 20.906425 19.623701 7.018083
v 20.812269 19.680216 6.995667
v 21.046896 19.211946 7.334530
v 21.020245 19.306452 7.316452
v 20.987579 19.396471 7.294345
v 20.945898 19.479763 7.266196
v 20.892662 19.554234 7.230988
v 20.827204 19.618402 7.191690
v 20.748552 19.671047 7.154121
v 20.711403 19.211946 7.670024
v 20.693325 19.306452 7.643371
v 20.671219 19.396471 7.610707
v 20.643070 19.479763 7.569025
v 20.607861 19.554234 7.515788
v 20.568563 19.618402 7.450330
v 20.530994 19.671047 7.371680
v 20.491835 19.211969 7.775412
v 20.479343 19.306633 7.746046
v 20.464077 19.397081 7.710010
v 20.444649 19.481205 7.663971
v 20.420572 19.557106 7.604720
v 20.394955 19.623701 7.529553
v 20.372541 19.680216 7.435396
v 20.251188 19.211992 7.838643
v 20.244810 19.306812 7.807641
v 20.237019 19.397690 7.769562
v 20.227106 19.482649 7.720866
v 20.214893 19.559916 7.658000
v 20.202303 19.628510 7.577345
v 20.191879 19.687658 7.475203
v 20.000000 19.212002 7.859720
v 20.000000 19.306894 7.828170
v 20.000000 19.397966 7.789403
v 20.000000 19.483303 7.739810
v 20.000000 19.561176 7.675749
v 20.000000 19.630562 7.593447
v 20.000000 19.690617 7.489098
v 19.748812 19.211992 7.838643
v 19.755190 19.306812 7.807641
v 19.762981 19.397690 7.769562
v 19.772894 19.482649 7.720866
v 19.785107 19.559916 7.658001
v 19.797697 19.628510 7.577345
v 19.808121 19.687658 7.475203
v 19.508165 19.211969 7.775412
v 19.520657 19.306633 7.746046
v 19.535923 19.397081 7.710011
v 19.555351 19.481205 7.663971
v 19.579426 19.557106 7.604720
v 19.605045 19.623701 7.529553
v 19.627459 19.680216 7.435396
v 19.288597 19.211946 7.670024
v 19.306675 19.306452 7.643371
v 19.328781 19.396471 7.610707
v 19.356930 19.479763 7.569025
v 19.392139 19.554234 7.515788
v 19.431437 19.618402 7.450331
v 19.469006 19.671047 7.371680
v 19.184706 19.115198 5.807833
v 19.447964 19.115198 5.736097
v 19.721176 19.115198 5.690481
v 20.000000 19.115198 5.674726
v 20.278824 19.115198 5.690481
v 20.552036 19.115198 5.736097
v 20.815294 19.115198 5.807833
v 19.112970 19.115198 6.071091
v 19.406052 19.115198 6.029179
v 19.702127 19.115198 6.001039
v 20.000000 19.115198 5.990860
v 20.297873 19.115198 6.001038
v 20.593948 19.115198 6.029179
v 20.887030 19.115198 6.071091
v 19.067354 19.115198 6.344302
v 19.377911 19.115198 6.325255
v 19.688843 19.115198 6.311970
v 20.000000 19.115198 6.306993
v 20.311157 19.115198 6.311970
v 20.622089 19.115198 6.325255
v 20.932646 19.115198 6.344302
v 19.051600 19.115198 6.623127
v 19.367733 19.115198 6.623127
v 19.683867 19.115198 6.623127
v 20.000000 19.115198 6.623127
v 20.316133 19.115198 6.623127
v 20.632267 19.115198 6.623127
v 20.948400 19.115198 6.623127
v 19.067354 19.115198 6.901952
v 19.377911 19.115198 6.920999
v 19.688843 19.115198 6.934284
v 20.000000 19.115198 6.939260
v 20.311157 19.115198 6.934284
v 20.622089 19.115198 6.920999
v 20.932646 19.115198 6.901952
v 19.112970 19.115198 7.175163
v 19.406052 19.115198 7.217075
v 19.702127 19.115198 7.245215
v 20.000000 19.115198 7.255394
v 20.297873 19.115198 7.245215
v 20.593948 19.115198 7.217075
v 20.887030 19.115198 7.175163
v 19.184706 19.115198 7.438421
v 19.447964 19.115198 7.510157
v 19.721176 19.115198 7.555774
v 20.000000 19.115198 7.571528
v 20.278824 19.115198 7.555773
v 20.552036 19.115198 7.510157
v 20.815294 19.115198 7.438421
v 20.522554 19.740845 6.100574
v 20.365683 19.761696 6.074893
v 20.188108 19.774862 6.053769
v 20.000000 19.779495 6.045348
v 19.811892 19.774862 6.053769
v 19.634317 19.761696 6.074893
v 19.477446 19.740845 6.100574
v 20.548235 19.761696 6.257445
v 20.379229 19.786892 6.243898
v 20.193802 19.802219 6.231112
v 20.000000 19.807419 6.225583
v 19.806198 19.802219 6.231112
v 19.620771 19.786892 6.243898
v 19.451765 19.761696 6.257445
v 20.569359 19.774862 6.435019
v 20.392014 19.802219 6.429326
v 20.199747 19.818699 6.423379
v 20.000000 19.824215 6.420648
v 19.800253 19.818699 6.423379
v 19.607986 19.802219 6.429326
v 19.430641 19.774862 6.435019
v 20.577778 19.779495 6.623127
v 20.397543 19.807419 6.623127
v 20.202478 19.824215 6.623127
v 20.000000 19.829826 6.623127
v 19.797522 19.824215 6.623127
v 19.602457 19.807419 6.623127
v 19.422222 19.779495 6.623127
v 20.569359 19.774862 6.811235
v 20.392014 19.802219 6.816928
v 20.199747 19.818699 6.822875
v 20.000000 19.824215 6.825606
v 19.800253 19.818699 6.822875
v 19.607986 19.802219 6.816928
v 19.430641 19.774862 6.811235
v 20.548235 19.761696 6.988809
v 20.379229 19.786892 7.002356
v 20.193802 19.802219 7.015141
v 20.000000 19.807419 7.020671
v 19.806198 19.802219 7.015141
v 19.620771 19.786892 7.002356
v 19.451765 19.761696 6.988809
v 20.522554 19.740845 7.145680
v 20.365683 19.761696 7.171361
v 20.188108 19.774862 7.192485
v 20.000000 19.779495 7.200906
v 19.811892 19.774862 7.192485
v 19.634317 19.761696 7.171361
v 19.477446 19.740845 7.145680
vn -0.8543 0.3193 0.4101
vn -0.8272 0.3972 0.3975
vn -0.7739 0.5116 0.3733
vn -0.6866 0.6455 0.3345
vn -0.5781 0.7640 0.2866
vn -0.4595 0.8565 0.2351
vn -0.9175 0.3163 0.2412
vn -0.8892 0.3932 0.2340
vn -0.8340 0.5056 0.2208
vn -0.7425 0.6393 0.1997
vn -0.6211 0.7646 0.1722
vn -0.4848 0.8630 0.1421
vn -0.9459 0.3146 0.0794
vn -0.9173 0.3907 0.0771
vn -0.8619 0.5017 0.0730
vn -0.7697 0.6350 0.0666
vn -0.6425 0.7641 0.0582
vn -0.4975 0.8661 0.0489
vn -0.9459 0.3146 -0.0794
vn -0.9173 0.3907 -0.0771
vn -0.8619 0.5017 -0.0730
vn -0.7697 0.6350 -0.0666
vn -0.6425 0.7641 -0.0582
vn -0.4975 0.8661 -0.0489
vn -0.9175 0.3163 -0.2412
vn -0.8892 0.3932 -0.2340
vn -0.8340 0.5056 -0.2208
vn -0.7425 0.6393 -0.1997
vn -0.6211 0.7646 -0.1722
vn -0.4848 0.8630 -0.1421
vn -0.8543 0.3193 -0.4101
vn -0.8272 0.3972 -0.3975
vn -0.7739 0.5116 -0.3733
vn -0.6866 0.6455 -0.3345
vn -0.5781 0.7640 -0.2866
vn -0.4595 0.8565 -0.2351
vn -0.8026 0.0750 0.5918
vn -0.7447 0.3219 0.5846
vn -0.7206 0.4007 0.5659
vn -0.6730 0.5166 0.5293
vn -0.5962 0.6503 0.4707
vn -0.5060 0.7631 0.4021
vn -0.4122 0.8489 0.3307
vn -0.3280 0.9067 0.2651
vn -0.3408 0.9208 0.1899
vn -0.3512 0.9291 0.1161
vn -0.3571 0.9332 0.0406
vn -0.3571 0.9332 -0.0406
vn -0.3512 0.9291 -0.1161
vn -0.3408 0.9208 -0.1899
vn -0.3280 0.9067 -0.2651
vn -0.4122 0.8489 -0.3307
vn -0.5060 0.7631 -0.4021
vn -0.5962 0.6503 -0.4707
vn -0.6730 0.5166 -0.5293
vn -0.7206 0.4007 -0.5659
vn -0.7447 0.3219 -0.5847
vn -0.8026 0.0750 -0.5918
vn -0.8977 -0.1559 -0.4120
vn -0.9301 -0.2816 -0.2360
vn -0.9394 -0.3341 -0.0765
vn -0.9394 -0.3341 0.0765
vn -0.9301 -0.2816 0.2360
vn -0.8977 -0.1559 0.4120
vn -0.4101 0.3193 -0.8543
vn -0.3975 0.3972 -0.8272
vn -0.3733 0.5116 -0.7739
vn -0.3345 0.6455 -0.6866
vn -0.2866 0.7640 -0.5781
vn -0.2351 0.8565 -0.4595
vn -0.2412 0.3163 -0.9175
vn -0.2340 0.3932 -0.8892
vn -0.2208 0.5056 -0.8340
vn -0.1997 0.6393 -0.7425
vn -0.1722 0.7646 -0.6211
vn -0.1421 0.8630 -0.4848
vn -0.0794 0.3146 -0.9459
vn -0.0771 0.3907 -0.9173
vn -0.0730 0.5017 -0.8619
vn -0.0666 0.6350 -0.7697
vn -0.0582 0.7641 -0.6425
vn -0.0489 0.8661 -0.4975
vn 0.0794 0.3146 -0.9459
vn 0.0771 0.3907 -0.9173
vn 0.0730 0.5017 -0.8619
vn 0.0666 0.6350 -0.7697
vn 0.0582 0.7641 -0.6425
vn 0.0489 0.8661 -0.4975
vn 0.2412 0.3163 -0.9175
vn 0.2340 0.3932 -0.8892
vn 0.2208 0.5056 -0.8340
vn 0.1997 0.6393 -0.7425
vn 0.1722 0.7646 -0.6211
vn 0.1421 0.8630 -0.4848
vn 0.4101 0.3193 -0.8543
vn 0.3975 0.3972 -0.8272
vn 0.3733 0.5116 -0.7739
vn 0.3345 0.6455 -0.6866
vn 0.2866 0.7640 -0.5781
vn 0.2351 0.8565 -0.4595
vn -0.5918 0.0750 -0.8026
vn -0.5846 0.3219 -0.7447
vn -0.5659 0.4007 -0.7206
vn -0.5293 0.5166 -0.6730
vn -0.4707 0.6503 -0.5962
vn -0.4021 0.7631 -0.5060
vn -0.3307 0.8489 -0.4122
vn -0.2651 0.9067 -0.3280
vn -0.1899 0.9208 -0.3408
vn -0.1161 0.9291 -0.3512
vn -0.0406 0.9332 -0.3571
vn 0.0406 0.9332 -0.3571
vn 0.1161 0.9291 -0.3512
vn 0.1899 0.9208 -0.3408
vn 0.2651 0.9067 -0.3280
vn 0.3307 0.8489 -0.4122
vn 0.4021 0.7631 -0.5060
vn 0.4707 0.6503 -0.5962
vn 0.5293 0.5166 -0.6730
vn 0.5659 0.4007 -0.7206
vn 0.5847 0.3219 -0.7447
vn 0.5918 0.0750 -0.8026
vn 0.4120 -0.1559 -0.8977
vn 0.2360 -0.2816 -0.9301
vn 0.0765 -0.3341 -0.9394
vn -0.0765 -0.3341 -0.9394
vn -0.2360 -0.2816 -0.9301
vn -0.4120 -0.1559 -0.8977
vn 0.8543 0.3193 -0.4101
vn 0.8272 0.3972 -0.3975
vn 0.7739 0.5116 -0.3733
vn 0.6866 0.6455 -0.3345
vn 0.5781 0.7640 -0.2866
vn 0.4595 0.8565 -0.2351
vn 0.9175 0.3163 -0.2412
vn 0.8892 0.3932 -0.2340
vn 0.8340 0.5056 -0.2208
vn 0.7425 0.6393 -0.1997
vn 0.6211 0.7646 -0.1722
vn 0.4848 0.8630 -0.1421
vn 0.9459 0.3146 -0.0794
vn 0.9173 0.3907 -0.0771
vn 0.8619 0.5017 -0.0730
vn 0.7697 0.6350 -0.0666
vn 0.6425 0.7641 -0.0582
vn 0.4975 0.8661 -0.0489
vn 0.9459 0.3146 0.0794
vn 0.9173 0.3907 0.0771
vn 0.8619 0.5017 0.0730
vn 0.7697 0.6350 0.0666
vn 0.6425 0.7641 0.0582
vn 0.4975 0.8661 0.0489
vn 0.9175 0.3163 0.2412
vn 0.8892 0.3932 0.2340
vn 0.8340 0.5056 0.2208
vn 0.7425 0.6393 0.1997
vn 0.6211 0.7646 0.1722
vn 0.4848 0.8630 0.1421
vn 0.8543 0.3193 0.4101
vn 0.8272 0.3972 0.3975
vn 0.7739 0.5116 0.3733
vn 0.6866 0.6455 0.3345
vn 0.5781 0.7640 0.2866
vn 0.4595 0.8565 0.2351
vn 0.8026 0.0750 -0.5918
vn 0.7447 0.3219 -0.5846
vn 0.7206 0.4007 -0.5659
vn 0.6730 0.5166 -0.5293
vn 0.5962 0.6503 -0.4707
vn 0.5060 0.7631 -0.4021
vn 0.4122 0.8489 -0.3307
vn 0.3280 0.9067 -0.2651
vn 0.3408 0.9208 -0.1899
vn 0.3512 0.9291 -0.1161
vn 0.3571 0.9332 -0.0406
vn 0.3571 0.9332 0.0406
vn 0.3512 0.9291 0.1161
vn 0.3408 0.9208 0.1899
vn 0.3280 0.9067 0.2651
vn 0.4122 0.8489 0.3307
vn 0.5060 0.7631 0.4021
vn 0.5962 0.6503 0.4707
vn 0.6730 0.5166 0.5293
vn 0.7206 0.4007 0.5659
vn 0.7447 0.3219 0.5847
vn 0.8026 0.0750 0.5918
vn 0.8977 -0.1559 0.4120
vn 0.9301 -0.2816 0.2360
vn 0.9394 -0.3341 0.0765
vn 0.9394 -0.3341 -0.0765
vn 0.9301 -0.2816 -0.2360
vn 0.8977 -0.1559 -0.4120
vn 0.4101 0.3193 0.8543
vn 0.3975 0.3972 0.8272
vn 0.3733 0.5116 0.7739
vn 0.3345 0.6455 0.6866
vn 0.2866 0.7640 0.5781
vn 0.2351 0.8565 0.4595
vn 0.2412 0.3163 0.9175
vn 0.2340 0.3932 0.8892
vn 0.2208 0.5056 0.8340
vn 0.1997 0.6393 0.7425
vn 0.1722 0.7646 0.6211
vn 0.1421 0.8630 0.4848
vn 0.0794 0.3146 0.9459
vn 0.0771 0.3907 0.9173
vn 0.0730 0.5017 0.8619
vn 0.0666 0.6350 0.7697
vn 0.0582 0.7641 0.6425
vn 0.0489 0.8661 0.4975
vn -0.0794 0.3146 0.9459
vn -0.0771 0.3907 0.9173
vn -0.0730 0.5017 0.8619
vn -0.0666 0.6350 0.7697
vn -0.0582 0.7641 0.6425
vn -0.0489 0.8661 0.4975
vn -0.2412 0.3163 0.9175
vn -0.2340 0.3932 0.8892
vn -0.2208 0.5056 0.8340
vn -0.1997 0.6393 0.7425
vn -0.1722 0.7646 0.6211
vn -0.1421 0.8630 0.4848
vn -0.4101 0.3193 0.8543
vn -0.3975 0.3972 0.8272
vn -0.3733 0.5116 0.7739
vn -0.3345 0.6455 0.6866
vn -0.2866 0.7640 0.5781
vn -0.2351 0.8565 0.4595
vn 0.5918 0.0750 0.8026
vn 0.5846 0.3219 0.7447
vn 0.5659 0.4007 0.7206
vn 0.5293 0.5166 0.6730
vn 0.4707 0.6503 0.5962
vn 0.4021 0.7631 0.5060
vn 0.3307 0.8489 0.4122
vn 0.2651 0.9067 0.3280
vn 0.1899 0.9208 0.3408
vn 0.1161 0.9291 0.3512
vn 0.0406 0.9332 0.3571
vn -0.0406 0.9332 0.3571
vn -0.1161 0.9291 0.3512
vn -0.1899 0.9208 0.3408
vn -0.2651 0.9067 0.3280
vn -0.3307 0.8489 0.4122
vn -0.4021 0.7631 0.5060
vn -0.4707 0.6503 0.5962
vn -0.5293 0.5166 0.6730
vn -0.5659 0.4007 0.7206
vn -0.5847 0.3219 0.7447
vn -0.5918 0.0750 0.8026
vn -0.4120 -0.1559 0.8977
vn -0.2360 -0.2816 0.9301
vn -0.0765 -0.3341 0.9394
vn 0.0765 -0.3341 0.9394
vn 0.2360 -0.2816 0.9301
vn 0.4120 -0.1559 0.8977
vn -0.0000 -1.0000 -0.0000
vn -0.1282 -0.9834 -0.1282
vn -0.0278 -0.9965 -0.0794
vn -0.0137 -0.9976 -0.0673
vn -0.0043 -0.9980 -0.0631
vn 0.0043 -0.9980 -0.0631
vn 0.0137 -0.9976 -0.0673
vn 0.0278 -0.9965 -0.0794
vn 0.1282 -0.9834 -0.1282
vn 0.0794 -0.9965 -0.0278
vn 0.0673 -0.9976 -0.0137
vn 0.0631 -0.9980 -0.0043
vn 0.0631 -0.9980 0.0043
vn 0.0673 -0.9976 0.0137
vn 0.0794 -0.9965 0.0278
vn 0.1282 -0.9834 0.1282
vn 0.0278 -0.9965 0.0794
vn 0.0137 -0.9976 0.0673
vn 0.0043 -0.9980 0.0631
vn -0.0043 -0.9980 0.0631
vn -0.0137 -0.9976 0.0673
vn -0.0278 -0.9965 0.0794
vn -0.1282 -0.9834 0.1282
vn -0.0794 -0.9965 0.0278
vn -0.0673 -0.9976 0.0137
vn -0.0631 -0.9980 0.0043
vn -0.0631 -0.9980 -0.0043
vn -0.0673 -0.9976 -0.0137
vn -0.0794 -0.9965 -0.0278
vn 0.1566 0.9752 -0.1566
vn 0.0916 0.9838 -0.1544
vn 0.0310 0.9877 -0.1532
vn -0.0310 0.9877 -0.1532
vn -0.0916 0.9838 -0.1544
vn -0.1566 0.9752 -0.1566
vn 0.1544 0.9838 -0.0916
vn 0.0879 0.9922 -0.0879
vn 0.0289 0.9959 -0.0860
vn -0.0289 0.9959 -0.0860
vn -0.0879 0.9922 -0.0879
vn -0.1544 0.9838 -0.0916
vn 0.1532 0.9877 -0.0310
vn 0.0860 0.9959 -0.0289
vn 0.0278 0.9992 -0.0278
vn -0.0278 0.9992 -0.0278
vn -0.0860 0.9959 -0.0289
vn -0.1532 0.9877 -0.0310
vn 0.1532 0.9877 0.0310
vn 0.0860 0.9959 0.0289
vn 0.0278 0.9992 0.0278
vn -0.0278 0.9992 0.0278
vn -0.0860 0.9959 0.0289
vn -0.1532 0.9877 0.0310
vn 0.1544 0.9838 0.0916
vn 0.0879 0.9922 0.0879
vn 0.0289 0.9959 0.0860
vn -0.0289 0.9959 0.0860
vn -0.0879 0.9922 0.0879
vn -0.1544 0.9838 0.0916
vn 0.1566 0.9752 0.1566
vn 0.0916 0.9838 0.1544
vn 0.0310 0.9877 0.1532
vn -0.0310 0.9877 0.1532
vn -0.0916 0.9838 0.1544
vn -0.1566 0.9752 0.1566
vn 0.2313 0.9450 -0.2313
vn 0.1644 0.9577 -0.2362
vn 0.0995 0.9660 -0.2385
vn 0.0346 0.9703 -0.2395
vn -0.0346 0.9703 -0.2395
vn -0.0995 0.9660 -0.2385
vn -0.1644 0.9577 -0.2362
vn -0.2313 0.9450 -0.2313
vn -0.2362 0.9577 -0.1644
vn -0.2385 0.9660 -0.0995
vn -0.2395 0.9703 -0.0346
vn -0.2395 0.9703 0.0346
vn -0.2385 0.9660 0.0995
vn -0.2362 0.9577 0.1644
vn -0.2313 0.9450 0.2313
vn -0.1644 0.9577 0.2362
vn -0.0995 0.9660 0.2385
vn -0.0346 0.9703 0.2395
vn 0.0346 0.9703 0.2395
vn 0.0995 0.9660 0.2385
vn 0.1644 0.9577 0.2362
vn 0.2313 0.9450 0.2313
vn 0.2362 0.9577 0.1644
vn 0.2385 0.9660 0.0995
vn 0.2395 0.9703 0.0346
vn 0.2395 0.9703 -0.0346
vn 0.2385 0.9660 -0.0995
vn 0.2362 0.9577 -0.1644
vt 0.406250 0.031250
vt 0.437500 0.031250
vt 0.437500 0.062500
vt 0.406250 0.062500
vt 0.468750 0.031250
vt 0.468750 0.062500
vt 0.500000 0.031250
vt 0.500000 0.062500
vt 0.531250 0.031250
vt 0.531250 0.062500
vt 0.562500 0.031250
vt 0.562500 0.062500
vt 0.593750 0.031250
vt 0.593750 0.062500
vt 0.437500 0.093750
vt 0.406250 0.093750
vt 0.468750 0.093750
vt 0.500000 0.093750
vt 0.531250 0.093750
vt 0.562500 0.093750
vt 0.593750 0.093750
vt 0.437500 0.125000
vt 0.406250 0.125000
vt 0.468750 0.125000
vt 0.500000 0.125000
vt 0.531250 0.125000
vt 0.562500 0.125000
vt 0.593750 0.125000
vt 0.437500 0.156250
vt 0.406250 0.156250
vt 0.468750 0.156250
vt 0.500000 0.156250
vt 0.531250 0.156250
vt 0.562500 0.156250
vt 0.593750 0.156250
vt 0.437500 0.187500
vt 0.406250 0.187500
vt 0.468750 0.187500
vt 0.500000 0.187500
vt 0.531250 0.187500
vt 0.562500 0.187500
vt 0.593750 0.187500
vt 0.437500 0.218750
vt 0.406250 0.218750
vt 0.468750 0.218750
vt 0.500000 0.218750
vt 0.531250 0.218750
vt 0.562500 0.218750
vt 0.593750 0.218750
vt 0.375000 0.000000
vt 0.406250 0.000000
vt 0.375000 0.031250
vt 0.437500 0.000000
vt 0.468750 0.000000
vt 0.500000 0.000000
vt 0.531250 0.000000
vt 0.562500 0.000000
vt 0.593750 0.000000
vt 0.625000 0.000000
vt 0.625000 0.031250
vt 0.625000 0.062500
vt 0.625000 0.093750
vt 0.625000 0.125000
vt 0.625000 0.156250
vt 0.625000 0.187500
vt 0.625000 0.218750
vt 0.625000 0.250000
vt 0.593750 0.250000
vt 0.562500 0.250000
vt 0.531250 0.250000
vt 0.500000 0.250000
vt 0.468750 0.250000
vt 0.437500 0.250000
vt 0.406250 0.250000
vt 0.375000 0.218750
vt 0.375000 0.250000
vt 0.375000 0.187500
vt 0.375000 0.156250
vt 0.375000 0.125000
vt 0.375000 0.093750
vt 0.375000 0.062500
vt 0.406250 0.281250
vt 0.437500 0.281250
vt 0.437500 0.312500
vt 0.406250 0.312500
vt 0.468750 0.281250
vt 0.468750 0.312500
vt 0.500000 0.281250
vt 0.500000 0.312500
vt 0.531250 0.281250
vt 0.531250 0.312500
vt 0.562500 0.281250
vt 0.562500 0.312500
vt 0.593750 0.281250
vt 0.593750 0.312500
vt 0.437500 0.343750
vt 0.406250 0.343750
vt 0.468750 0.343750
vt 0.500000 0.343750
vt 0.531250 0.343750
vt 0.562500 0.343750
vt 0.593750 0.343750
vt 0.437500 0.375000
vt 0.406250 0.375000
vt 0.468750 0.375000
vt 0.500000 0.375000
vt 0.531250 0.375000
vt 0.562500 0.375000
vt 0.593750 0.375000
vt 0.437500 0.406250
vt 0.406250 0.406250
vt 0.468750 0.406250
vt 0.500000 0.406250
vt 0.531250 0.406250
vt 0.562500 0.406250
vt 0.593750 0.406250
vt 0.437500 0.437500
vt 0.406250 0.437500
vt 0.468750 0.437500
vt 0.500000 0.437500
vt 0.531250 0.437500
vt 0.562500 0.437500
vt 0.593750 0.437500
vt 0.437500 0.468750
vt 0.406250 0.468750
vt 0.468750 0.468750
vt 0.500000 0.468750
vt 0.531250 0.468750
vt 0.562500 0.468750
vt 0.593750 0.468750
vt 0.375000 0.281250
vt 0.625000 0.281250
vt 0.625000 0.312500
vt 0.625000 0.343750
vt 0.625000 0.375000
vt 0.625000 0.406250
vt 0.625000 0.437500
vt 0.625000 0.468750
vt 0.625000 0.500000
vt 0.593750 0.500000
vt 0.562500 0.500000
vt 0.531250 0.500000
vt 0.500000 0.500000
vt 0.468750 0.500000
vt 0.437500 0.500000
vt 0.406250 0.500000
vt 0.375000 0.468750
vt 0.375000 0.500000
vt 0.375000 0.437500
vt 0.375000 0.406250
vt 0.375000 0.375000
vt 0.375000 0.343750
vt 0.375000 0.312500
vt 0.406250 0.531250
vt 0.437500 0.531250
vt 0.437500 0.562500
vt 0.406250 0.562500
vt 0.468750 0.531250
vt 0.468750 0.562500
vt 0.500000 0.531250
vt 0.500000 0.562500
vt 0.531250 0.531250
vt 0.531250 0.562500
vt 0.562500 0.531250
vt 0.562500 0.562500
vt 0.593750 0.531250
vt 0.593750 0.562500
vt 0.437500 0.593750
vt 0.406250 0.593750
vt 0.468750 0.593750
vt 0.500000 0.593750
vt 0.531250 0.593750
vt 0.562500 0.593750
vt 0.593750 0.593750
vt 0.437500 0.625000
vt 0.406250 0.625000
vt 0.468750 0.625000
vt 0.500000 0.625000
vt 0.531250 0.625000
vt 0.562500 0.625000
vt 0.593750 0.625000
vt 0.437500 0.656250
vt 0.406250 0.656250
vt 0.468750 0.656250
vt 0.500000 0.656250
vt 0.531250 0.656250
vt 0.562500 0.656250
vt 0.593750 0.656250
vt 0.437500 0.687500
vt 0.406250 0.687500
vt 0.468750 0.687500
vt 0.500000 0.687500
vt 0.531250 0.687500
vt 0.562500 0.687500
vt 0.593750 0.687500
vt 0.437500 0.718750
vt 0.406250 0.718750
vt 0.468750 0.718750
vt 0.500000 0.718750
vt 0.531250 0.718750
vt 0.562500 0.718750
vt 0.593750 0.718750
vt 0.375000 0.531250
vt 0.625000 0.531250
vt 0.625000 0.562500
vt 0.625000 0.593750
vt 0.625000 0.625000
vt 0.625000 0.656250
vt 0.625000 0.687500
vt 0.625000 0.718750
vt 0.625000 0.750000
vt 0.593750 0.750000
vt 0.562500 0.750000
vt 0.531250 0.750000
vt 0.500000 0.750000
vt 0.468750 0.750000
vt 0.437500 0.750000
vt 0.406250 0.750000
vt 0.375000 0.718750
vt 0.375000 0.750000
vt 0.375000 0.687500
vt 0.375000 0.656250
vt 0.375000 0.625000
vt 0.375000 0.593750
vt 0.375000 0.562500
vt 0.406250 0.781250
vt 0.437500 0.781250
vt 0.437500 0.812500
vt 0.406250 0.812500
vt 0.468750 0.781250
vt 0.468750 0.812500
vt 0.500000 0.781250
vt 0.500000 0.812500
vt 0.531250 0.781250
vt 0.531250 0.812500
vt 0.562500 0.781250
vt 0.562500 0.812500
vt 0.593750 0.781250
vt 0.593750 0.812500
vt 0.437500 0.843750
vt 0.406250 0.843750
vt 0.468750 0.843750
vt 0.500000 0.843750
vt 0.531250 0.843750
vt 0.562500 0.843750
vt 0.593750 0.843750
vt 0.437500 0.875000
vt 0.406250 0.875000
vt 0.468750 0.875000
vt 0.500000 0.875000
vt 0.531250 0.875000
vt 0.562500 0.875000
vt 0.593750 0.875000
vt 0.437500 0.906250
vt 0.406250 0.906250
vt 0.468750 0.906250
vt 0.500000 0.906250
vt 0.531250 0.906250
vt 0.562500 0.906250
vt 0.593750 0.906250
vt 0.437500 0.937500
vt 0.406250 0.937500
vt 0.468750 0.937500
vt 0.500000 0.937500
vt 0.531250 0.937500
vt 0.562500 0.937500
vt 0.593750 0.937500
vt 0.437500 0.968750
vt 0.406250 0.968750
vt 0.468750 0.968750
vt 0.500000 0.968750
vt 0.531250 0.968750
vt 0.562500 0.968750
vt 0.593750 0.968750
vt 0.375000 0.781250
vt 0.625000 0.781250
vt 0.625000 0.812500
vt 0.625000 0.843750
vt 0.625000 0.875000
vt 0.625000 0.906250
vt 0.625000 0.937500
vt 0.625000 0.968750
vt 0.625000 1.000000
vt 0.593750 1.000000
vt 0.562500 1.000000
vt 0.531250 1.000000
vt 0.500000 1.000000
vt 0.468750 1.000000
vt 0.437500 1.000000
vt 0.406250 1.000000
vt 0.375000 0.968750
vt 0.375000 1.000000
vt 0.375000 0.937500
vt 0.375000 0.906250
vt 0.375000 0.875000
vt 0.375000 0.843750
vt 0.375000 0.812500
vt 0.156250 0.531250
vt 0.187500 0.531250
vt 0.187500 0.562500
vt 0.156250 0.562500
vt 0.218750 0.531250
vt 0.218750 0.562500
vt 0.250000 0.531250
vt 0.250000 0.562500
vt 0.281250 0.531250
vt 0.281250 0.562500
vt 0.312500 0.531250
vt 0.312500 0.562500
vt 0.343750 0.531250
vt 0.343750 0.562500
vt 0.187500 0.593750
vt 0.156250 0.593750
vt 0.218750 0.593750
vt 0.250000 0.593750
vt 0.281250 0.593750
vt 0.312500 0.593750
vt 0.343750 0.593750
vt 0.187500 0.625000
vt 0.156250 0.625000
vt 0.218750 0.625000
vt 0.250000 0.625000
vt 0.281250 0.625000
vt 0.312500 0.625000
vt 0.343750 0.625000
vt 0.187500 0.656250
vt 0.156250 0.656250
vt 0.218750 0.656250
vt 0.250000 0.656250
vt 0.281250 0.656250
vt 0.312500 0.656250
vt 0.343750 0.656250
vt 0.187500 0.687500
vt 0.156250 0.687500
vt 0.218750 0.687500
vt 0.250000 0.687500
vt 0.281250 0.687500
vt 0.312500 0.687500
vt 0.343750 0.687500
vt 0.187500 0.718750
vt 0.156250 0.718750
vt 0.218750 0.718750
vt 0.250000 0.718750
vt 0.281250 0.718750
vt 0.312500 0.718750
vt 0.343750 0.718750
vt 0.125000 0.500000
vt 0.156250 0.500000
vt 0.125000 0.531250
vt 0.187500 0.500000
vt 0.218750 0.500000
vt 0.250000 0.500000
vt 0.281250 0.500000
vt 0.312500 0.500000
vt 0.343750 0.500000
vt 0.343750 0.750000
vt 0.312500 0.750000
vt 0.281250 0.750000
vt 0.250000 0.750000
vt 0.218750 0.750000
vt 0.187500 0.750000
vt 0.156250 0.750000
vt 0.125000 0.718750
vt 0.125000 0.750000
vt 0.125000 0.687500
vt 0.125000 0.656250
vt 0.125000 0.625000
vt 0.125000 0.593750
vt 0.125000 0.562500
vt 0.656250 0.531250
vt 0.687500 0.531250
vt 0.687500 0.562500
vt 0.656250 0.562500
vt 0.718750 0.531250
vt 0.718750 0.562500
vt 0.750000 0.531250
vt 0.750000 0.562500
vt 0.781250 0.531250
vt 0.781250 0.562500
vt 0.812500 0.531250
vt 0.812500 0.562500
vt 0.843750 0.531250
vt 0.843750 0.562500
vt 0.687500 0.593750
vt 0.656250 0.593750
vt 0.718750 0.593750
vt 0.750000 0.593750
vt 0.781250 0.593750
vt 0.812500 0.593750
vt 0.843750 0.593750
vt 0.687500 0.625000
vt 0.656250 0.625000
vt 0.718750 0.625000
vt 0.750000 0.625000
vt 0.781250 0.625000
vt 0.812500 0.625000
vt 0.843750 0.625000
vt 0.687500 0.656250
vt 0.656250 0.656250
vt 0.718750 0.656250
vt 0.750000 0.656250
vt 0.781250 0.656250
vt 0.812500 0.656250
vt 0.843750 0.656250
vt 0.687500 0.687500
vt 0.656250 0.687500
vt 0.718750 0.687500
vt 0.750000 0.687500
vt 0.781250 0.687500
vt 0.812500 0.687500
vt 0.843750 0.687500
vt 0.687500 0.718750
vt 0.656250 0.718750
vt 0.718750 0.718750
vt 0.750000 0.718750
vt 0.781250 0.718750
vt 0.812500 0.718750
vt 0.843750 0.718750
vt 0.656250 0.500000
vt 0.687500 0.500000
vt 0.718750 0.500000
vt 0.750000 0.500000
vt 0.781250 0.500000
vt 0.812500 0.500000
vt 0.843750 0.500000
vt 0.875000 0.500000
vt 0.875000 0.531250
vt 0.875000 0.562500
vt 0.875000 0.593750
vt 0.875000 0.625000
vt 0.875000 0.656250
vt 0.875000 0.687500
vt 0.875000 0.718750
vt 0.875000 0.750000
vt 0.843750 0.750000
vt 0.812500 0.750000
vt 0.781250 0.750000
vt 0.750000 0.750000
vt 0.718750 0.750000
vt 0.687500 0.750000
vt 0.656250 0.750000
s 0
f 365/83/243 366/84/243 373/85/243 372/86/243
f 366/84/244 367/87/244 374/88/244 373/85/244
f 367/87/245 368/89/245 375/90/245 374/88/245
f 368/89/246 369/91/246 376/92/246 375/90/246
f 369/91/247 370/93/247 377/94/247 376/92/247
f 370/93/248 371/95/248 378/96/248 377/94/248
f 372/86/249 373/85/249 380/97/249 379/98/249
f 373/85/250 374/88/250 381/99/250 380/97/250
f 374/88/251 375/90/251 382/100/251 381/99/251
f 375/90/252 376/92/252 383/101/252 382/100/252
f 376/92/253 377/94/253 384/102/253 383/101/253
f 377/94/254 378/96/254 385/103/254 384/102/254
f 379/98/255 380/97/255 387/104/255 386/105/255
f 380/97/256 381/99/256 388/106/256 387/104/256
f 381/99/257 382/100/257 389/107/257 388/106/257
f 382/100/258 383/101/258 390/108/258 389/107/258
f 383/101/259 384/102/259 391/109/259 390/108/259
f 384/102/260 385/103/260 392/110/260 391/109/260
f 386/105/261 387/104/261 394/111/261 393/112/261
f 387/104/262 388/106/262 395/113/262 394/111/262
f 388/106/263 389/107/263 396/114/263 395/113/263
f 389/107/264 390/108/264 397/115/264 396/114/264
f 390/108/265 391/109/265 398/116/265 397/115/265
f 391/109/266 392/110/266 399/117/266 398/116/266
f 393/112/267 394/111/267 401/118/267 400/119/267
f 394/111/268 395/113/268 402/120/268 401/118/268
f 395/113/269 396/114/269 403/121/269 402/120/269
f 396/114/270 397/115/270 404/122/270 403/121/270
f 397/115/271 398/116/271 405/123/271 404/122/271
f 398/116/272 399/117/272 406/124/272 405/123/272
f 400/119/273 401/118/273 408/125/273 407/126/273
f 401/118/274 402/120/274 409/127/274 408/125/274
f 402/120/275 403/121/275 410/128/275 409/127/275
f 403/121/276 404/122/276 411/129/276 410/128/276
f 404/122/277 405/123/277 412/130/277 411/129/277
f 405/123/278 406/124/278 413/131/278 412/130/278
f 273/132/279 288/133/279 365/83/279 287/134/279
f 288/133/280 289/135/280 366/84/280 365/83/280
f 289/135/281 290/136/281 367/87/281 366/84/281
f 290/136/282 291/137/282 368/89/282 367/87/282
f 291/137/283 292/138/283 369/91/283 368/89/283
f 292/138/284 293/139/284 370/93/284 369/91/284
f 293/139/285 294/140/285 371/95/285 370/93/285
f 294/140/286 274/141/286 295/142/286 371/95/286
f 371/95/287 295/142/287 296/143/287 378/96/287
f 378/96/288 296/143/288 297/144/288 385/103/288
f 385/103/289 297/144/289 298/145/289 392/110/289
f 392/110/290 298/145/290 299/146/290 399/117/290
f 399/117/291 299/146/291 300/147/291 406/124/291
f 406/124/292 300/147/292 301/148/292 413/131/292
f 413/131/293 301/148/293 276/149/293 302/150/293
f 412/130/294 413/131/294 302/150/294 303/151/294
f 411/129/295 412/130/295 303/151/295 304/152/295
f 410/128/296 411/129/296 304/152/296 305/153/296
f 409/127/297 410/128/297 305/153/297 306/154/297
f 408/125/298 409/127/298 306/154/298 307/155/298
f 407/126/299 408/125/299 307/155/299 308/156/299
f 281/157/300 407/126/300 308/156/300 275/158/300
f 282/159/301 400/119/301 407/126/301 281/157/301
f 283/160/302 393/112/302 400/119/302 282/159/302
f 284/161/303 386/105/303 393/112/303 283/160/303
f 285/162/304 379/98/304 386/105/304 284/161/304
f 286/163/305 372/86/305 379/98/305 285/162/305
f 287/134/306 365/83/306 372/86/306 286/163/306
f 414/164/307 415/165/307 422/166/307 421/167/307
f 415/165/308 416/168/308 423/169/308 422/166/308
f 416/168/309 417/170/309 424/171/309 423/169/309
f 417/170/310 418/172/310 425/173/310 424/171/310
f 418/172/311 419/174/311 426/175/311 425/173/311
f 419/174/312 420/176/312 427/177/312 426/175/312
f 421/167/313 422/166/313 429/178/313 428/179/313
f 422/166/314 423/169/314 430/180/314 429/178/314
f 423/169/315 424/171/315 431/181/315 430/180/315
f 424/171/316 425/173/316 432/182/316 431/181/316
f 425/173/317 426/175/317 433/183/317 432/182/317
f 426/175/318 427/177/318 434/184/318 433/183/318
f 428/179/319 429/178/319 436/185/319 435/186/319
f 429/178/320 430/180/320 437/187/320 436/185/320
f 430/180/321 431/181/321 438/188/321 437/187/321
f 431/181/322 432/182/322 439/189/322 438/188/322
f 432/182/323 433/183/323 440/190/323 439/189/323
f 433/183/324 434/184/324 441/191/324 440/190/324
f 435/186/325 436/185/325 443/192/325 442/193/325
f 436/185/326 437/187/326 444/194/326 443/192/326
f 437/187/327 438/188/327 445/195/327 444/194/327
f 438/188/328 439/189/328 446/196/328 445/195/328
f 439/189/329 440/190/329 447/197/329 446/196/329
f 440/190/330 441/191/330 448/198/330 447/197/330
f 442/193/331 443/192/331 450/199/331 449/200/331
f 443/192/332 444/194/332 451/201/332 450/199/332
f 444/194/333 445/195/333 452/202/333 451/201/333
f 445/195/334 446/196/334 453/203/334 452/202/334
f 446/196/335 447/197/335 454/204/335 453/203/335
f 447/197/336 448/198/336 455/205/336 454/204/336
f 449/200/337 450/199/337 457/206/337 456/207/337
f 450/199/338 451/201/338 458/208/338 457/206/338
f 451/201/339 452/202/339 459/209/339 458/208/339
f 452/202/340 453/203/340 460/210/340 459/209/340
f 453/203/341 454/204/341 461/211/341 460/210/341
f 454/204/342 455/205/342 462/212/342 461/211/342
f 275/158/343 308/156/343 414/164/343 315/213/343
f 308/156/344 307/155/344 415/165/344 414/164/344
f 307/155/345 306/154/345 416/168/345 415/165/345
f 306/154/346 305/153/346 417/170/346 416/168/346
f 305/153/347 304/152/347 418/172/347 417/170/347
f 304/152/348 303/151/348 419/174/348 418/172/348
f 303/151/349 302/150/349 420/176/349 419/174/349
f 302/150/350 276/149/350 316/214/350 420/176/350
f 420/176/351 316/214/351 317/215/351 427/177/351
f 427/177/352 317/215/352 318/216/352 434/184/352
f 434/184/353 318/216/353 319/217/353 441/191/353
f 441/191/354 319/217/354 320/218/354 448/198/354
f 448/198/355 320/218/355 321/219/355 455/205/355
f 455/205/356 321/219/356 322/220/356 462/212/356
f 462/212/357 322/220/357 280/221/357 323/222/357
f 461/211/358 462/212/358 323/222/358 324/223/358
f 460/210/359 461/211/359 324/223/359 325/224/359
f 459/209/360 460/210/360 325/224/360 326/225/360
f 458/208/361 459/209/361 326/225/361 327/226/361
f 457/206/362 458/208/362 327/226/362 328/227/362
f 456/207/363 457/206/363 328/227/363 329/228/363
f 309/229/364 456/207/364 329/228/364 279/230/364
f 310/231/365 449/200/365 456/207/365 309/229/365
f 311/232/366 442/193/366 449/200/366 310/231/366
f 312/233/367 435/186/367 442/193/367 311/232/367
f 313/234/368 428/179/368 435/186/368 312/233/368
f 314/235/369 421/167/369 428/179/369 313/234/369
f 315/213/370 414/164/370 421/167/370 314/235/370
f 463/236/371 464/237/371 471/238/371 470/239/371
f 464/237/372 465/240/372 472/241/372 471/238/372
f 465/240/373 466/242/373 473/243/373 472/241/373
f 466/242/374 467/244/374 474/245/374 473/243/374
f 467/244/375 468/246/375 475/247/375 474/245/375
f 468/246/376 469/248/376 476/249/376 475/247/376
f 470/239/377 471/238/377 478/250/377 477/251/377
f 471/238/378 472/241/378 479/252/378 478/250/378
f 472/241/379 473/243/379 480/253/379 479/252/379
f 473/243/380 474/245/380 481/254/380 480/253/380
f 474/245/381 475/247/381 482/255/381 481/254/381
f 475/247/382 476/249/382 483/256/382 482/255/382
f 477/251/383 478/250/383 485/257/383 484/258/383
f 478/250/384 479/252/384 486/259/384 485/257/384
f 479/252/385 480/253/385 487/260/385 486/259/385
f 480/253/386 481/254/386 488/261/386 487/260/386
f 481/254/387 482/255/387 489/262/387 488/261/387
f 482/255/388 483/256/388 490/263/388 489/262/388
f 484/258/389 485/257/389 492/264/389 491/265/389
f 485/257/390 486/259/390 493/266/390 492/264/390
f 486/259/391 487/260/391 494/267/391 493/266/391
f 487/260/392 488/261/392 495/268/392 494/267/392
f 488/261/393 489/262/393 496/269/393 495/268/393
f 489/262/394 490/263/394 497/270/394 496/269/394
f 491/265/395 492/264/395 499/271/395 498/272/395
f 492/264/396 493/266/396 500/273/396 499/271/396
f 493/266/397 494/267/397 501/274/397 500/273/397
f 494/267/398 495/268/398 502/275/398 501/274/398
f 495/268/399 496/269/399 503/276/399 502/275/399
f 496/269/400 497/270/400 504/277/400 503/276/400
f 498/272/401 499/271/401 506/278/401 505/279/401
f 499/271/402 500/273/402 507/280/402 506/278/402
f 500/273/403 501/274/403 508/281/403 507/280/403
f 501/274/404 502/275/404 509/282/404 508/281/404
f 502/275/405 503/276/405 510/283/405 509/282/405
f 503/276/406 504/277/406 511/284/406 510/283/406
f 279/230/407 329/228/407 463/236/407 336/285/407
f 329/228/408 328/227/408 464/237/408 463/236/408
f 328/227/409 327/226/409 465/240/409 464/237/409
f 327/226/410 326/225/410 466/242/410 465/240/410
f 326/225/411 325/224/411 467/244/411 466/242/411
f 325/224/412 324/223/412 468/246/412 467/244/412
f 324/223/413 323/222/413 469/248/413 468/246/413
f 323/222/414 280/221/414 337/286/414 469/248/414
f 469/248/415 337/286/415 338/287/415 476/249/415
f 476/249/416 338/287/416 339/288/416 483/256/416
f 483/256/417 339/288/417 340/289/417 490/263/417
f 490/263/418 340/289/418 341/290/418 497/270/418
f 497/270/419 341/290/419 342/291/419 504/277/419
f 504/277/420 342/291/420 343/292/420 511/284/420
f 511/284/421 343/292/421 278/293/421 344/294/421
f 510/283/422 511/284/422 344/294/422 345/295/422
f 509/282/423 510/283/423 345/295/423 346/296/423
f 508/281/424 509/282/424 346/296/424 347/297/424
f 507/280/425 508/281/425 347/297/425 348/298/425
f 506/278/426 507/280/426 348/298/426 349/299/426
f 505/279/427 506/278/427 349/299/427 350/300/427
f 330/301/428 505/279/428 350/300/428 277/302/428
f 331/303/429 498/272/429 505/279/429 330/301/429
f 332/304/430 491/265/430 498/272/430 331/303/430
f 333/305/431 484/258/431 491/265/431 332/304/431
f 334/306/432 477/251/432 484/258/432 333/305/432
f 335/307/433 470/239/433 477/251/433 334/306/433
f 336/285/434 463/236/434 470/239/434 335/307/434
f 512/308/435 513/309/435 520/310/435 519/311/435
f 513/309/436 514/312/436 521/313/436 520/310/436
f 514/312/437 515/314/437 522/315/437 521/313/437
f 515/314/438 516/316/438 523/317/438 522/315/438
f 516/316/439 517/318/439 524/319/439 523/317/439
f 517/318/440 518/320/440 525/321/440 524/319/440
f 519/311/441 520/310/441 527/322/441 526/323/441
f 520/310/442 521/313/442 528/324/442 527/322/442
f 521/313/443 522/315/443 529/325/443 528/324/443
f 522/315/444 523/317/444 530/326/444 529/325/444
f 523/317/445 524/319/445 531/327/445 530/326/445
f 524/319/446 525/321/446 532/328/446 531/327/446
f 526/323/447 527/322/447 534/329/447 533/330/447
f 527/322/448 528/324/448 535/331/448 534/329/448
f 528/324/449 529/325/449 536/332/449 535/331/449
f 529/325/450 530/326/450 537/333/450 536/332/450
f 530/326/451 531/327/451 538/334/451 537/333/451
f 531/327/452 532/328/452 539/335/452 538/334/452
f 533/330/453 534/329/453 541/336/453 540/337/453
f 534/329/454 535/331/454 542/338/454 541/336/454
f 535/331/455 536/332/455 543/339/455 542/338/455
f 536/332/456 537/333/456 544/340/456 543/339/456
f 537/333/457 538/334/457 545/341/457 544/340/457
f 538/334/458 539/335/458 546/342/458 545/341/458
f 540/337/459 541/336/459 548/343/459 547/344/459
f 541/336/460 542/338/460 549/345/460 548/343/460
f 542/338/461 543/339/461 550/346/461 549/345/461
f 543/339/462 544/340/462 551/347/462 550/346/462
f 544/340/463 545/341/463 552/348/463 551/347/463
f 545/341/464 546/342/464 553/349/464 552/348/464
f 547/344/465 548/343/465 555/350/465 554/351/465
f 548/343/466 549/345/466 556/352/466 555/350/466
f 549/345/467 550/346/467 557/353/467 556/352/467
f 550/346/468 551/347/468 558/354/468 557/353/468
f 551/347/469 552/348/469 559/355/469 558/354/469
f 552/348/470 553/349/470 560/356/470 559/355/470
f 277/302/471 350/300/471 512/308/471 357/357/471
f 350/300/472 349/299/472 513/309/472 512/308/472
f 349/299/473 348/298/473 514/312/473 513/309/473
f 348/298/474 347/297/474 515/314/474 514/312/474
f 347/297/475 346/296/475 516/316/475 515/314/475
f 346/296/476 345/295/476 517/318/476 516/316/476
f 345/295/477 344/294/477 518/320/477 517/318/477
f 344/294/478 278/293/478 358/358/478 518/320/478
f 518/320/479 358/358/479 359/359/479 525/321/479
f 525/321/480 359/359/480 360/360/480 532/328/480
f 532/328/481 360/360/481 361/361/481 539/335/481
f 539/335/482 361/361/482 362/362/482 546/342/482
f 546/342/483 362/362/483 363/363/483 553/349/483
f 553/349/484 363/363/484 364/364/484 560/356/484
f 560/356/485 364/364/485 274/365/485 294/366/485
f 559/355/486 560/356/486 294/366/486 293/367/486
f 558/354/487 559/355/487 293/367/487 292/368/487
f 557/353/488 558/354/488 292/368/488 291/369/488
f 556/352/489 557/353/489 291/369/489 290/370/489
f 555/350/490 556/352/490 290/370/490 289/371/490
f 554/351/491 555/350/491 289/371/491 288/372/491
f 351/373/492 554/351/492 288/372/492 273/374/492
f 352/375/493 547/344/493 554/351/493 351/373/493
f 353/376/494 540/337/494 547/344/494 352/375/494
f 354/377/495 533/330/495 540/337/495 353/376/495
f 355/378/496 526/323/496 533/330/496 354/377/496
f 356/379/497 519/311/497 526/323/497 355/378/497
f 357/357/498 512/308/498 519/311/498 356/379/498
f 561/380/499 562/381/499 569/382/499 568/383/499
f 562/381/499 563/384/499 570/385/499 569/382/499
f 563/384/499 564/386/499 571/387/499 570/385/499
f 564/386/499 565/388/499 572/389/499 571/387/499
f 565/388/499 566/390/499 573/391/499 572/389/499
f 566/390/499 567/392/499 574/393/499 573/391/499
f 568/383/499 569/382/499 576/394/499 575/395/499
f 569/382/499 570/385/499 577/396/499 576/394/499
f 570/385/499 571/387/499 578/397/499 577/396/499
f 571/387/499 572/389/499 579/398/499 578/397/499
f 572/389/499 573/391/499 580/399/499 579/398/499
f 573/391/499 574/393/499 581/400/499 580/399/499
f 575/395/499 576/394/499 583/401/499 582/402/499
f 576/394/499 577/396/499 584/403/499 583/401/499
f 577/396/499 578/397/499 585/404/499 584/403/499
f 578/397/499 579/398/499 586/405/499 585/404/499
f 579/398/499 580/399/499 587/406/499 586/405/499
f 580/399/499 581/400/499 588/407/499 587/406/499
f 582/402/499 583/401/499 590/408/499 589/409/499
f 583/401/499 584/403/499 591/410/499 590/408/499
f 584/403/499 585/404/499 592/411/499 591/410/499
f 585/404/499 586/405/499 593/412/499 592/411/499
f 586/405/499 587/406/499 594/413/499 593/412/499
f 587/406/499 588/407/499 595/414/499 594/413/499
f 589/409/499 590/408/499 597/415/499 596/416/499
f 590/408/499 591/410/499 598/417/499 597/415/499
f 591/410/499 592/411/499 599/418/499 598/417/499
f 592/411/499 593/412/499 600/419/499 599/418/499
f 593/412/499 594/413/499 601/420/499 600/419/499
f 594/413/499 595/414/499 602/421/499 601/420/499
f 596/416/499 597/415/499 604/422/499 603/423/499
f 597/415/499 598/417/499 605/424/499 604/422/499
f 598/417/499 599/418/499 606/425/499 605/424/499
f 599/418/499 600/419/499 607/426/499 606/425/499
f 600/419/499 601/420/499 608/427/499 607/426/499
f 601/420/499 602/421/499 609/428/499 608/427/499
f 275/429/500 315/430/500 561/380/500 281/431/500
f 315/430/501 314/432/501 562/381/501 561/380/501
f 314/432/502 313/433/502 563/384/502 562/381/502
f 313/433/503 312/434/503 564/386/503 563/384/503
f 312/434/504 311/435/504 565/388/504 564/386/504
f 311/435/505 310/436/505 566/390/505 565/388/505
f 310/436/506 309/437/506 567/392/506 566/390/506
f 309/437/507 279/230/507 336/285/507 567/392/507
f 567/392/508 336/285/508 335/307/508 574/393/508
f 574/393/509 335/307/509 334/306/509 581/400/509
f 581/400/510 334/306/510 333/305/510 588/407/510
f 588/407/511 333/305/511 332/304/511 595/414/511
f 595/414/512 332/304/512 331/303/512 602/421/512
f 602/421/513 331/303/513 330/301/513 609/428/513
f 609/428/514 330/301/514 277/302/514 357/438/514
f 608/427/515 609/428/515 357/438/515 356/439/515
f 607/426/516 608/427/516 356/439/516 355/440/516
f 606/425/517 607/426/517 355/440/517 354/441/517
f 605/424/518 606/425/518 354/441/518 353/442/518
f 604/422/519 605/424/519 353/442/519 352/443/519
f 603/423/520 604/422/520 352/443/520 351/444/520
f 287/445/521 603/423/521 351/444/521 273/446/521
f 286/447/522 596/416/522 603/423/522 287/445/522
f 285/448/523 589/409/523 596/416/523 286/447/523
f 284/449/524 582/402/524 589/409/524 285/448/524
f 283/450/525 575/395/525 582/402/525 284/449/525
f 282/451/526 568/383/526 575/395/526 283/450/526
f 281/431/527 561/380/527 568/383/527 282/451/527
f 610/452/528 611/453/528 618/454/528 617/455/528
f 611/453/529 612/456/529 619/457/529 618/454/529
f 612/456/530 613/458/530 620/459/530 619/457/530
f 613/458/531 614/460/531 621/461/531 620/459/531
f 614/460/532 615/462/532 622/463/532 621/461/532
f 615/462/533 616/464/533 623/465/533 622/463/533
f 617/455/534 618/454/534 625/466/534 624/467/534
f 618/454/535 619/457/535 626/468/535 625/466/535
f 619/457/536 620/459/536 627/469/536 626/468/536
f 620/459/537 621/461/537 628/470/537 627/469/537
f 621/461/538 622/463/538 629/471/538 628/470/538
f 622/463/539 623/465/539 630/472/539 629/471/539
f 624/467/540 625/466/540 632/473/540 631/474/540
f 625/466/541 626/468/541 633/475/541 632/473/541
f 626/468/542 627/469/542 634/476/542 633/475/542
f 627/469/543 628/470/543 635/477/543 634/476/543
f 628/470/544 629/471/544 636/478/544 635/477/544
f 629/471/545 630/472/545 637/479/545 636/478/545
f 631/474/546 632/473/546 639/480/546 638/481/546
f 632/473/547 633/475/547 640/482/547 639/480/547
f 633/475/548 634/476/548 641/483/548 640/482/548
f 634/476/549 635/477/549 642/484/549 641/483/549
f 635/477/550 636/478/550 643/485/550 642/484/550
f 636/478/551 637/479/551 644/486/551 643/485/551
f 638/481/552 639/480/552 646/487/552 645/488/552
f 639/480/553 640/482/553 647/489/553 646/487/553
f 640/482/554 641/483/554 648/490/554 647/489/554
f 641/483/555 642/484/555 649/491/555 648/490/555
f 642/484/556 643/485/556 650/492/556 649/491/556
f 643/485/557 644/486/557 651/493/557 650/492/557
f 645/488/558 646/487/558 653/494/558 652/495/558
f 646/487/559 647/489/559 654/496/559 653/494/559
f 647/489/560 648/490/560 655/497/560 654/496/560
f 648/490/561 649/491/561 656/498/561 655/497/561
f 649/491/562 650/492/562 657/499/562 656/498/562
f 650/492/563 651/493/563 658/500/563 657/499/563
f 280/221/564 322/501/564 610/452/564 337/286/564
f 322/501/565 321/502/565 611/453/565 610/452/565
f 321/502/566 320/503/566 612/456/566 611/453/566
f 320/503/567 319/504/567 613/458/567 612/456/567
f 319/504/568 318/505/568 614/460/568 613/458/568
f 318/505/569 317/506/569 615/462/569 614/460/569
f 317/506/570 316/507/570 616/464/570 615/462/570
f 316/507/571 276/508/571 301/509/571 616/464/571
f 616/464/572 301/509/572 300/510/572 623/465/572
f 623/465/573 300/510/573 299/511/573 630/472/573
f 630/472/574 299/511/574 298/512/574 637/479/574
f 637/479/575 298/512/575 297/513/575 644/486/575
f 644/486/576 297/513/576 296/514/576 651/493/576
f 651/493/577 296/514/577 295/515/577 658/500/577
f 658/500/578 295/515/578 274/516/578 364/517/578
f 657/499/579 658/500/579 364/517/579 363/518/579
f 656/498/580 657/499/580 363/518/580 362/519/580
f 655/497/581 656/498/581 362/519/581 361/520/581
f 654/496/582 655/497/582 361/520/582 360/521/582
f 653/494/583 654/496/583 360/521/583 359/522/583
f 652/495/584 653/494/584 359/522/584 358/523/584
f 343/292/585 652/495/585 358/523/585 278/293/585
f 342/291/586 645/488/586 652/495/586 343/292/586
f 341/290/587 638/481/587 645/488/587 342/291/587
f 340/289/588 631/474/588 638/481/588 341/290/588
f 339/288/589 624/467/589 631/474/589 340/289/589
f 338/287/590 617/455/590 624/467/590 339/288/590
f 337/286/591 610/452/591 617/455/591 338/287/591
