# Blender 4.5.2 LTS
# www.blender.org
mtllib o donica.mtl
o Cube.001
v 7.470000 0.000000 0.780000
v 7.470000 0.220000 1.000000
v 7.250000 0.220000 0.780000
v 7.470000 1.780000 1.000000
v 7.574136 2.000000 0.675864
v 7.250000 1.780000 0.780000
v 7.470000 0.000000 -0.780000
v 7.250000 0.220000 -0.780000
v 7.470000 0.220000 -1.000000
v 7.574136 2.000000 -0.675864
v 7.470000 1.780000 -1.000000
v 7.250000 1.780000 -0.780000
v 10.530000 0.000000 0.780000
v 10.750000 0.220000 0.780000
v 10.530000 0.220000 1.000000
v 10.425863 2.000000 0.675864
v 10.530000 1.780000 1.000000
v 10.750000 1.780000 0.780000
v 10.530000 0.000000 -0.780000
v 10.530000 0.220000 -1.000000
v 10.750000 0.220000 -0.780000
v 10.425863 2.000000 -0.675864
v 10.750000 1.780000 -0.780000
v 10.530000 1.780000 -1.000000
v 7.470000 2.000000 0.780000
v 7.470000 2.000000 -0.780000
v 10.530000 2.000000 -0.780000
v 10.530000 2.000000 0.780000
v 7.574136 1.761277 0.675864
v 7.574136 1.761277 -0.675864
v 10.425863 1.761277 -0.675864
v 10.425863 1.761277 0.675864
vn -0.5774 -0.5774 0.5774
vn -0.5774 0.5774 0.5774
vn -0.5774 -0.5774 -0.5774
vn -0.5774 0.5774 -0.5774
vn 0.5774 -0.5774 0.5774
vn 0.5774 0.5774 0.5774
vn 0.5774 -0.5774 -0.5774
vn 0.5774 0.5774 -0.5774
vn -0.7071 -0.7071 -0.0000
vn -0.7071 -0.0000 0.7071
vn -0.7071 0.7071 -0.0000
vn -0.7071 -0.0000 -0.7071
vn -0.0000 -0.7071 -0.7071
vn -0.0000 0.7071 -0.7071
vn 0.7071 -0.0000 -0.7071
vn 0.7071 -0.7071 -0.0000
vn 0.7071 0.7071 -0.0000
vn 0.7071 -0.0000 0.7071
vn -0.0000 -0.7071 0.7071
vn -0.0000 0.7071 0.7071
vn -0.0000 -1.0000 -0.0000
vn -1.0000 -0.0000 -0.0000
vn -0.0000 -0.0000 1.0000
vn -0.0000 -0.0000 -1.0000
vn 1.0000 -0.0000 -0.0000
vn -0.0000 1.0000 -0.0000
vt 0.140714 0.722500
vt 0.140714 0.750000
vt 0.125000 0.722500
vt 0.597500 0.000000
vt 0.625000 0.027500
vt 0.597500 0.027500
vt 0.140714 0.527500
vt 0.125000 0.527500
vt 0.140714 0.500000
vt 0.625000 0.236905
vt 0.597500 0.261786
vt 0.597500 0.222500
vt 0.359286 0.722500
vt 0.395625 0.722500
vt 0.380893 0.757857
vt 0.632857 0.744107
vt 0.597500 0.765714
vt 0.597500 0.729375
vt 0.359286 0.527500
vt 0.380893 0.492143
vt 0.395625 0.527500
vt 0.632857 0.505893
vt 0.597500 0.520625
vt 0.597500 0.484286
vt 0.402500 0.000000
vt 0.402500 0.027500
vt 0.402500 0.265714
vt 0.402500 0.222500
vt 0.625000 0.984286
vt 0.597500 0.984286
vt 0.402500 0.984286
vt 0.640563 0.522169
vt 0.851580 0.540143
vt 0.851580 0.709857
vt 0.859286 0.527500
vt 0.859286 0.722500
vt 0.640563 0.727831
s 0
f 1/1/1 2/2/1 3/3/1
f 4/4/2 25/5/2 6/6/2
f 7/7/3 8/8/3 9/9/3
f 26/10/4 11/11/4 12/12/4
f 13/13/5 14/14/5 15/15/5
f 28/16/6 17/17/6 18/18/6
f 19/19/7 20/20/7 21/21/7
f 27/22/8 23/23/8 24/24/8
f 7/7/9 1/1/9 3/3/9 8/8/9
f 2/25/10 4/4/10 6/6/10 3/26/10
f 25/5/11 26/10/11 12/12/11 6/6/11
f 11/11/12 9/27/12 8/28/12 12/12/12
f 19/19/13 7/7/13 9/9/13 20/20/13
f 26/10/14 27/22/14 24/24/14 11/11/14
f 23/23/15 21/21/15 20/20/15 24/24/15
f 13/13/16 19/19/16 21/21/16 14/14/16
f 27/22/17 28/16/17 18/18/17 23/23/17
f 17/17/18 15/15/18 14/14/18 18/18/18
f 1/1/19 13/13/19 15/15/19 2/2/19
f 28/16/20 25/29/20 4/30/20 17/17/20
f 7/7/21 19/19/21 13/13/21 1/1/21
f 3/26/22 6/6/22 12/12/22 8/28/22
f 15/15/23 17/17/23 4/30/23 2/31/23
f 22/32/23 10/33/23 30/33/23 31/32/23
f 9/27/24 11/11/24 24/24/24 20/20/24
f 21/21/25 23/23/25 18/18/25 14/14/25
f 5/34/26 10/33/26 26/35/26 25/36/26
f 10/33/26 22/32/26 27/22/26 26/35/26
f 22/32/26 16/37/26 28/16/26 27/22/26
f 16/37/26 5/34/26 25/36/26 28/16/26
f 31/32/26 30/33/26 29/34/26 32/37/26
f 16/37/22 22/32/22 31/32/22 32/37/22
f 10/33/25 5/34/25 29/34/25 30/33/25
f 5/34/24 16/37/24 32/37/24 29/34/24
