# Blender 4.5.2 LTS
# www.blender.org
mtllib o doniczka.mtl
o Cube
v 4.180000 0.000000 0.820000
v 4.180000 0.180000 1.000000
v 4.000000 0.180000 0.820000
v 4.180000 1.820000 1.000000
v 4.260437 2.000000 0.739563
v 4.000000 1.820000 0.820000
v 4.180000 0.000000 -0.820000
v 4.000000 0.180000 -0.820000
v 4.180000 0.180000 -1.000000
v 4.260437 2.000000 -0.739563
v 4.180000 1.820000 -1.000000
v 4.000000 1.820000 -0.820000
v 5.820000 0.000000 0.820000
v 6.000000 0.180000 0.820000
v 5.820000 0.180000 1.000000
v 5.739563 2.000000 0.739563
v 5.820000 1.820000 1.000000
v 6.000000 1.820000 0.820000
v 5.820000 0.000000 -0.820000
v 5.820000 0.180000 -1.000000
v 6.000000 0.180000 -0.820000
v 5.739563 2.000000 -0.739563
v 6.000000 1.820000 -0.820000
v 5.820000 1.820000 -1.000000
v 4.180000 2.000000 0.820000
v 4.180000 2.000000 -0.820000
v 5.820000 2.000000 -0.820000
v 5.820000 2.000000 0.820000
v 4.260437 1.667912 0.739563
v 4.260437 1.667912 -0.739563
v 5.739563 1.667912 -0.739563
v 5.739563 1.667912 0.739563
vn -0.5774 -0.5774 0.5774
vn -0.5774 0.5774 0.5774
vn -0.5774 -0.5774 -0.5774
vn -0.5774 0.5774 -0.5774
vn 0.5774 -0.5774 0.5774
vn 0.5774 0.5774 0.5774
vn 0.5774 -0.5774 -0.5774
vn 0.5774 0.5774 -0.5774
vn -0.7071 -0.7071 -0.0000
vn -0.7071 -0.0000 0.7071
vn -0.7071 0.7071 -0.0000
vn -0.7071 -0.0000 -0.7071
vn -0.0000 -0.7071 -0.7071
vn -0.0000 0.7071 -0.7071
vn 0.7071 -0.0000 -0.7071
vn 0.7071 -0.7071 -0.0000
vn 0.7071 0.7071 -0.0000
vn 0.7071 -0.0000 0.7071
vn -0.0000 -0.7071 0.7071
vn -0.0000 0.7071 0.7071
vn -0.0000 -1.0000 -0.0000
vn -1.0000 -0.0000 -0.0000
vn -0.0000 -0.0000 1.0000
vn -0.0000 -0.0000 -1.0000
vn 1.0000 -0.0000 -0.0000
vn -0.0000 1.0000 -0.0000
vt 0.147500 0.727500
vt 0.147500 0.750000
vt 0.125000 0.727500
vt 0.602500 0.000000
vt 0.625000 0.022500
vt 0.602500 0.022500
vt 0.147500 0.522500
vt 0.125000 0.522500
vt 0.147500 0.500000
vt 0.625000 0.242500
vt 0.602500 0.266875
vt 0.602500 0.227500
vt 0.352500 0.727500
vt 0.391875 0.727500
vt 0.375000 0.761250
vt 0.636250 0.750000
vt 0.602500 0.772500
vt 0.602500 0.733125
vt 0.352500 0.522500
vt 0.375000 0.488750
vt 0.391875 0.522500
vt 0.636250 0.500000
vt 0.602500 0.516875
vt 0.602500 0.477500
vt 0.397500 0.000000
vt 0.397500 0.022500
vt 0.397500 0.272500
vt 0.397500 0.227500
vt 0.625000 0.977500
vt 0.602500 0.977500
vt 0.397500 0.977500
vt 0.841894 0.718131
vt 0.646856 0.737053
vt 0.841894 0.531869
vt 0.852500 0.522500
vt 0.852500 0.727500
vt 0.646856 0.512947
s 0
f 1/1/1 2/2/1 3/3/1
f 4/4/2 25/5/2 6/6/2
f 7/7/3 8/8/3 9/9/3
f 26/10/4 11/11/4 12/12/4
f 13/13/5 14/14/5 15/15/5
f 28/16/6 17/17/6 18/18/6
f 19/19/7 20/20/7 21/21/7
f 27/22/8 23/23/8 24/24/8
f 7/7/9 1/1/9 3/3/9 8/8/9
f 2/25/10 4/4/10 6/6/10 3/26/10
f 25/5/11 26/10/11 12/12/11 6/6/11
f 11/11/12 9/27/12 8/28/12 12/12/12
f 19/19/13 7/7/13 9/9/13 20/20/13
f 26/10/14 27/22/14 24/24/14 11/11/14
f 23/23/15 21/21/15 20/20/15 24/24/15
f 13/13/16 19/19/16 21/21/16 14/14/16
f 27/22/17 28/16/17 18/18/17 23/23/17
f 17/17/18 15/15/18 14/14/18 18/18/18
f 1/1/19 13/13/19 15/15/19 2/2/19
f 28/16/20 25/29/20 4/30/20 17/17/20
f 7/7/21 19/19/21 13/13/21 1/1/21
f 3/26/22 6/6/22 12/12/22 8/28/22
f 15/15/23 17/17/23 4/30/23 2/31/23
f 5/32/24 16/33/24 32/33/24 29/32/24
f 9/27/24 11/11/24 24/24/24 20/20/24
f 21/21/25 23/23/25 18/18/25 14/14/25
f 5/32/26 10/34/26 26/35/26 25/36/26
f 10/34/26 22/37/26 27/22/26 26/35/26
f 22/37/26 16/33/26 28/16/26 27/22/26
f 16/33/26 5/32/26 25/36/26 28/16/26
f 31/37/26 30/34/26 29/32/26 32/33/26
f 22/37/23 10/34/23 30/34/23 31/37/23
f 16/33/22 22/37/22 31/37/22 32/33/22
f 10/34/25 5/32/25 29/32/25 30/34/25
