# Blender 4.5.2 LTS
# www.blender.org
mtllib o kołek.mtl
o Cylinder.001
v 16.000000 0.000000 -0.256000
v 15.999999 2.159754 -0.122849
v 16.097967 0.000000 -0.236513
v 16.047012 2.159754 -0.113498
v 16.181019 0.000000 -0.181019
v 16.086866 2.159754 -0.086868
v 16.236513 0.000000 -0.097967
v 16.113497 2.159754 -0.047012
v 16.256001 0.000000 0.000000
v 16.122849 2.159754 0.000000
v 16.236513 0.000000 0.097967
v 16.113497 2.159754 0.047012
v 16.181019 0.000000 0.181019
v 16.086866 2.159754 0.086868
v 16.097967 0.000000 0.236513
v 16.047012 2.159754 0.113498
v 16.000000 0.000000 0.256000
v 15.999999 2.159754 0.122849
v 15.902033 0.000000 0.236513
v 15.952987 2.159754 0.113498
v 15.818980 0.000000 0.181019
v 15.913132 2.159754 0.086868
v 15.763487 0.000000 0.097967
v 15.886501 2.159754 0.047012
v 15.744000 0.000000 0.000000
v 15.877150 2.159754 0.000000
v 15.763487 0.000000 -0.097967
v 15.886501 2.159754 -0.047012
v 15.818980 0.000000 -0.181019
v 15.913132 2.159754 -0.086868
v 15.902033 0.000000 -0.236513
v 15.952987 2.159754 -0.113498
v 16.000000 0.500000 -0.256000
v 16.000000 1.500000 -0.256000
v 16.097967 1.500000 -0.236513
v 16.097967 0.500000 -0.236513
v 16.181019 1.500000 -0.181019
v 16.181019 0.500000 -0.181019
v 16.236513 1.500000 -0.097967
v 16.236513 0.500000 -0.097967
v 16.256001 1.500000 0.000000
v 16.256001 0.500000 0.000000
v 16.236513 1.500000 0.097967
v 16.236513 0.500000 0.097967
v 16.181019 1.500000 0.181019
v 16.181019 0.500000 0.181019
v 16.097967 1.500000 0.236513
v 16.097967 0.500000 0.236513
v 16.000000 1.500000 0.256000
v 16.000000 0.500000 0.256000
v 15.902033 1.500000 0.236513
v 15.902033 0.500000 0.236513
v 15.818980 1.500000 0.181019
v 15.818980 0.500000 0.181019
v 15.763487 1.500000 0.097967
v 15.763487 0.500000 0.097967
v 15.744000 1.500000 0.000000
v 15.744000 0.500000 0.000000
v 15.763487 1.500000 -0.097967
v 15.763487 0.500000 -0.097967
v 15.818980 1.500000 -0.181019
v 15.818980 0.500000 -0.181019
v 15.902033 1.500000 -0.236513
v 15.902033 0.500000 -0.236513
v 16.000000 0.000000 -0.358400
v 16.137154 0.000000 -0.331118
v 16.137154 0.500000 -0.331118
v 16.253428 0.000000 -0.253427
v 16.253428 0.500000 -0.253427
v 16.331120 0.000000 -0.137154
v 16.331120 0.500000 -0.137154
v 16.358400 0.000000 -0.000000
v 16.358400 0.500000 -0.000000
v 16.331120 0.000000 0.137154
v 16.331120 0.500000 0.137154
v 16.253428 0.000000 0.253427
v 16.253428 0.500000 0.253427
v 16.137154 0.000000 0.331118
v 16.137154 0.500000 0.331118
v 16.000000 0.000000 0.358400
v 16.000000 0.500000 0.358400
v 15.862847 0.000000 0.331118
v 15.862847 0.500000 0.331118
v 15.746573 0.000000 0.253427
v 15.746573 0.500000 0.253427
v 15.668882 0.000000 0.137154
v 15.668882 0.500000 0.137154
v 15.641601 0.000000 -0.000000
v 15.641601 0.500000 -0.000000
v 15.668882 0.000000 -0.137154
v 15.668882 0.500000 -0.137154
v 15.746573 0.000000 -0.253427
v 15.746573 0.500000 -0.253427
v 15.862847 0.000000 -0.331118
v 15.862847 0.500000 -0.331118
v 16.000000 0.500000 -0.358400
v 16.097967 2.000000 -0.236513
v 16.000000 2.000000 -0.256000
v 16.181019 2.000000 -0.181019
v 16.236513 2.000000 -0.097967
v 16.256001 2.000000 0.000000
v 16.236513 2.000000 0.097967
v 16.181019 2.000000 0.181019
v 16.097967 2.000000 0.236513
v 16.000000 2.000000 0.256000
v 15.902033 2.000000 0.236513
v 15.818980 2.000000 0.181019
v 15.763487 2.000000 0.097967
v 15.744000 2.000000 0.000000
v 15.763487 2.000000 -0.097967
v 15.818980 2.000000 -0.181019
v 15.902033 2.000000 -0.236513
vn 0.1951 -0.0000 -0.9808
vn 0.5556 -0.0000 -0.8315
vn 0.8315 -0.0000 -0.5556
vn 0.9808 -0.0000 -0.1951
vn 0.9808 -0.0000 0.1951
vn 0.8315 -0.0000 0.5556
vn 0.5556 -0.0000 0.8315
vn 0.1951 -0.0000 0.9808
vn -0.1951 -0.0000 0.9808
vn -0.5556 -0.0000 0.8315
vn -0.8315 -0.0000 0.5556
vn -0.9808 -0.0000 0.1951
vn -0.9808 -0.0000 -0.1951
vn -0.8315 -0.0000 -0.5556
vn -0.0000 1.0000 -0.0000
vn -0.5556 -0.0000 -0.8315
vn -0.1951 -0.0000 -0.9808
vn -0.0000 -1.0000 -0.0000
vn 0.1510 0.6329 -0.7594
vn 0.4301 0.6329 -0.6437
vn 0.6437 0.6329 -0.4301
vn 0.7594 0.6329 -0.1510
vn 0.7594 0.6329 0.1510
vn 0.6437 0.6329 0.4301
vn 0.4301 0.6329 0.6437
vn 0.1510 0.6329 0.7594
vn -0.1510 0.6329 0.7594
vn -0.4301 0.6329 0.6438
vn -0.6438 0.6329 0.4301
vn -0.7594 0.6329 0.1510
vn -0.7594 0.6329 -0.1510
vn -0.6438 0.6329 -0.4301
vn -0.4301 0.6329 -0.6438
vn -0.1510 0.6329 -0.7594
vt 1.000000 0.833333
vt 1.000000 1.000000
vt 0.937500 1.000000
vt 0.937500 0.833333
vt 0.875000 1.000000
vt 0.875000 0.833333
vt 0.812500 1.000000
vt 0.812500 0.833333
vt 0.750000 1.000000
vt 0.750000 0.833333
vt 0.687500 1.000000
vt 0.687500 0.833333
vt 0.625000 1.000000
vt 0.625000 0.833333
vt 0.562500 1.000000
vt 0.562500 0.833333
vt 0.500000 1.000000
vt 0.500000 0.833333
vt 0.437500 1.000000
vt 0.437500 0.833333
vt 0.375000 1.000000
vt 0.375000 0.833333
vt 0.312500 1.000000
vt 0.312500 0.833333
vt 0.250000 1.000000
vt 0.250000 0.833333
vt 0.187500 1.000000
vt 0.187500 0.833333
vt 0.125000 1.000000
vt 0.125000 0.833333
vt 0.311041 0.397367
vt 0.250000 0.409509
vt 0.188959 0.397367
vt 0.137210 0.362790
vt 0.102633 0.311041
vt 0.090491 0.250000
vt 0.102633 0.188959
vt 0.137210 0.137210
vt 0.188959 0.102633
vt 0.250000 0.090491
vt 0.311041 0.102633
vt 0.362790 0.137210
vt 0.397367 0.188959
vt 0.409509 0.250000
vt 0.397367 0.311041
vt 0.362790 0.362790
vt 0.062500 1.000000
vt 0.062500 0.833333
vt 0.000000 1.000000
vt 0.000000 0.833333
vt 0.750000 0.490000
vt 0.841844 0.471731
vt 0.919706 0.419706
vt 0.971731 0.341844
vt 0.990000 0.250000
vt 0.971731 0.158156
vt 0.919706 0.080294
vt 0.841844 0.028269
vt 0.750000 0.010000
vt 0.658156 0.028269
vt 0.580294 0.080294
vt 0.528269 0.158156
vt 0.510000 0.250000
vt 0.528269 0.341844
vt 0.580294 0.419706
vt 0.658156 0.471731
vt 0.187500 0.666667
vt 0.125000 0.666667
vt 0.062500 0.666667
vt 0.000000 0.666667
vt 1.000000 0.666667
vt 0.937500 0.666667
vt 0.250000 0.666667
vt 0.562500 0.666667
vt 0.500000 0.666667
vt 0.312500 0.666667
vt 0.375000 0.666667
vt 0.437500 0.666667
vt 0.875000 0.666667
vt 0.625000 0.666667
vt 0.687500 0.666667
vt 0.750000 0.666667
vt 0.812500 0.666667
vt 0.062500 0.500000
vt 0.000000 0.500000
vt 0.125000 0.500000
vt 0.187500 0.500000
vt 0.250000 0.500000
vt 0.312500 0.500000
vt 0.375000 0.500000
vt 0.437500 0.500000
vt 0.500000 0.500000
vt 0.562500 0.500000
vt 0.625000 0.500000
vt 0.687500 0.500000
vt 0.750000 0.500000
vt 0.812500 0.500000
vt 0.875000 0.500000
vt 0.937500 0.500000
vt 1.000000 0.500000
vt 0.341844 0.471731
vt 0.250000 0.490000
vt 0.419706 0.419706
vt 0.471731 0.341844
vt 0.490000 0.250000
vt 0.471731 0.158156
vt 0.419706 0.080294
vt 0.341844 0.028269
vt 0.250000 0.010000
vt 0.158156 0.028269
vt 0.080294 0.080294
vt 0.028269 0.158156
vt 0.010000 0.250000
vt 0.028269 0.341844
vt 0.080294 0.419706
vt 0.158156 0.471731
s 0
f 34/1/1 98/2/1 97/3/1 35/4/1
f 35/4/2 97/3/2 99/5/2 37/6/2
f 37/6/3 99/5/3 100/7/3 39/8/3
f 39/8/4 100/7/4 101/9/4 41/10/4
f 41/10/5 101/9/5 102/11/5 43/12/5
f 43/12/6 102/11/6 103/13/6 45/14/6
f 45/14/7 103/13/7 104/15/7 47/16/7
f 47/16/8 104/15/8 105/17/8 49/18/8
f 49/18/9 105/17/9 106/19/9 51/20/9
f 51/20/10 106/19/10 107/21/10 53/22/10
f 53/22/11 107/21/11 108/23/11 55/24/11
f 55/24/12 108/23/12 109/25/12 57/26/12
f 57/26/13 109/25/13 110/27/13 59/28/13
f 59/28/14 110/27/14 111/29/14 61/30/14
f 4/31/15 2/32/15 32/33/15 30/34/15 28/35/15 26/36/15 24/37/15 22/38/15 20/39/15 18/40/15 16/41/15 14/42/15 12/43/15 10/44/15 8/45/15 6/46/15
f 61/30/16 111/29/16 112/47/16 63/48/16
f 63/48/17 112/47/17 98/49/17 34/50/17
f 1/51/18 3/52/18 5/53/18 7/54/18 9/55/18 11/56/18 13/57/18 15/58/18 17/59/18 19/60/18 21/61/18 23/62/18 25/63/18 27/64/18 29/65/18 31/66/18
f 60/67/15 62/68/15 93/68/15 91/67/15
f 64/69/17 63/48/17 34/50/17 33/70/17
f 31/66/18 29/65/18 92/65/18 94/66/18
f 62/68/16 61/30/16 63/48/16 64/69/16
f 33/71/15 36/72/15 67/72/15 96/71/15
f 60/67/14 59/28/14 61/30/14 62/68/14
f 13/57/18 11/56/18 74/56/18 76/57/18
f 58/73/13 57/26/13 59/28/13 60/67/13
f 48/74/15 50/75/15 81/75/15 79/74/15
f 56/76/12 55/24/12 57/26/12 58/73/12
f 62/68/15 64/69/15 95/69/15 93/68/15
f 54/77/11 53/22/11 55/24/11 56/76/11
f 21/61/18 19/60/18 82/60/18 84/61/18
f 52/78/10 51/20/10 53/22/10 54/77/10
f 36/72/15 38/79/15 69/79/15 67/72/15
f 50/75/9 49/18/9 51/20/9 52/78/9
f 50/75/15 52/78/15 83/78/15 81/75/15
f 48/74/8 47/16/8 49/18/8 50/75/8
f 3/52/18 1/51/18 65/51/18 66/52/18
f 46/80/7 45/14/7 47/16/7 48/74/7
f 29/65/18 27/64/18 90/64/18 92/65/18
f 44/81/6 43/12/6 45/14/6 46/80/6
f 11/56/18 9/55/18 72/55/18 74/56/18
f 42/82/5 41/10/5 43/12/5 44/81/5
f 64/69/15 33/70/15 96/70/15 95/69/15
f 40/83/4 39/8/4 41/10/4 42/82/4
f 38/79/15 40/83/15 71/83/15 69/79/15
f 38/79/3 37/6/3 39/8/3 40/83/3
f 19/60/18 17/59/18 80/59/18 82/60/18
f 36/72/2 35/4/2 37/6/2 38/79/2
f 52/78/15 54/77/15 85/77/15 83/78/15
f 33/71/1 34/1/1 35/4/1 36/72/1
f 94/84/17 95/69/17 96/70/17 65/85/17
f 92/86/16 93/68/16 95/69/16 94/84/16
f 90/87/14 91/67/14 93/68/14 92/86/14
f 88/88/13 89/73/13 91/67/13 90/87/13
f 86/89/12 87/76/12 89/73/12 88/88/12
f 84/90/11 85/77/11 87/76/11 86/89/11
f 82/91/10 83/78/10 85/77/10 84/90/10
f 80/92/9 81/75/9 83/78/9 82/91/9
f 78/93/8 79/74/8 81/75/8 80/92/8
f 76/94/7 77/80/7 79/74/7 78/93/7
f 74/95/6 75/81/6 77/80/6 76/94/6
f 72/96/5 73/82/5 75/81/5 74/95/5
f 70/97/4 71/83/4 73/82/4 72/96/4
f 68/98/3 69/79/3 71/83/3 70/97/3
f 66/99/2 67/72/2 69/79/2 68/98/2
f 65/100/1 96/71/1 67/72/1 66/99/1
f 5/53/18 3/52/18 66/52/18 68/53/18
f 46/80/15 48/74/15 79/74/15 77/80/15
f 23/62/18 21/61/18 84/61/18 86/62/18
f 58/73/15 60/67/15 91/67/15 89/73/15
f 15/58/18 13/57/18 76/57/18 78/58/18
f 1/51/18 31/66/18 94/66/18 65/51/18
f 44/81/15 46/80/15 77/80/15 75/81/15
f 7/54/18 5/53/18 68/53/18 70/54/18
f 25/63/18 23/62/18 86/62/18 88/63/18
f 56/76/15 58/73/15 89/73/15 87/76/15
f 42/82/15 44/81/15 75/81/15 73/82/15
f 17/59/18 15/58/18 78/58/18 80/59/18
f 54/77/15 56/76/15 87/76/15 85/77/15
f 9/55/18 7/54/18 70/54/18 72/55/18
f 40/83/15 42/82/15 73/82/15 71/83/15
f 27/64/18 25/63/18 88/63/18 90/64/18
f 2/32/19 4/31/19 97/101/19 98/102/19
f 4/31/20 6/46/20 99/103/20 97/101/20
f 6/46/21 8/45/21 100/104/21 99/103/21
f 8/45/22 10/44/22 101/105/22 100/104/22
f 10/44/23 12/43/23 102/106/23 101/105/23
f 12/43/24 14/42/24 103/107/24 102/106/24
f 14/42/25 16/41/25 104/108/25 103/107/25
f 16/41/26 18/40/26 105/109/26 104/108/26
f 18/40/27 20/39/27 106/110/27 105/109/27
f 20/39/28 22/38/28 107/111/28 106/110/28
f 22/38/29 24/37/29 108/112/29 107/111/29
f 24/37/30 26/36/30 109/113/30 108/112/30
f 26/36/31 28/35/31 110/114/31 109/113/31
f 28/35/32 30/34/32 111/115/32 110/114/32
f 30/34/33 32/33/33 112/116/33 111/115/33
f 32/33/34 2/32/34 98/102/34 112/116/34
o Sphere
v 16.000000 2.544253 0.000000
v 16.000000 2.507272 -0.121912
v 16.000000 2.446730 -0.182454
v 16.000000 2.367628 -0.215219
v 16.000000 2.324818 -0.219435
v 16.000000 2.282008 -0.215219
v 16.000000 2.202906 -0.182454
v 16.000000 2.105383 0.000000
v 16.008352 2.540037 -0.041987
v 16.016382 2.527550 -0.082361
v 16.023785 2.507272 -0.119569
v 16.030272 2.479982 -0.152183
v 16.035595 2.446730 -0.178948
v 16.039551 2.408792 -0.198836
v 16.041986 2.367628 -0.211083
v 16.042810 2.324818 -0.215219
v 16.041986 2.282008 -0.211083
v 16.039551 2.240844 -0.198836
v 16.035595 2.202906 -0.178948
v 16.030272 2.169654 -0.152183
v 16.023785 2.142365 -0.119569
v 16.016382 2.122087 -0.082361
v 16.008352 2.109599 -0.041987
v 16.016382 2.540037 -0.039551
v 16.032135 2.527550 -0.077582
v 16.046654 2.507272 -0.112632
v 16.059380 2.479982 -0.143353
v 16.069822 2.446730 -0.168565
v 16.077581 2.408792 -0.187300
v 16.082361 2.367628 -0.198836
v 16.083975 2.324818 -0.202732
v 16.082361 2.282008 -0.198836
v 16.077581 2.240844 -0.187300
v 16.069822 2.202906 -0.168565
v 16.059380 2.169654 -0.143353
v 16.046654 2.142365 -0.112632
v 16.032135 2.122087 -0.077582
v 16.016382 2.109599 -0.039551
v 16.023785 2.540037 -0.035595
v 16.046654 2.527550 -0.069822
v 16.067730 2.507272 -0.101366
v 16.086205 2.479982 -0.129014
v 16.101366 2.446730 -0.151705
v 16.112631 2.408792 -0.168565
v 16.119570 2.367628 -0.178948
v 16.121912 2.324818 -0.182454
v 16.119570 2.282008 -0.178948
v 16.112631 2.240844 -0.168565
v 16.101366 2.202906 -0.151705
v 16.086205 2.169654 -0.129014
v 16.067730 2.142365 -0.101366
v 16.046654 2.122087 -0.069822
v 16.023785 2.109599 -0.035595
v 16.030272 2.540037 -0.030271
v 16.059380 2.527550 -0.059379
v 16.086205 2.507272 -0.086205
v 16.109718 2.479982 -0.109718
v 16.129015 2.446730 -0.129014
v 16.143353 2.408792 -0.143353
v 16.152184 2.367628 -0.152183
v 16.155165 2.324818 -0.155164
v 16.152184 2.282008 -0.152183
v 16.143353 2.240844 -0.143353
v 16.129015 2.202906 -0.129014
v 16.109718 2.169654 -0.109718
v 16.086205 2.142365 -0.086205
v 16.059380 2.122087 -0.059379
v 16.030272 2.109599 -0.030271
v 16.035595 2.540037 -0.023784
v 16.069822 2.527550 -0.046654
v 16.101366 2.507272 -0.067730
v 16.129015 2.479982 -0.086205
v 16.151705 2.446730 -0.101366
v 16.168566 2.408792 -0.112632
v 16.178947 2.367628 -0.119569
v 16.182453 2.324818 -0.121912
v 16.178947 2.282008 -0.119569
v 16.168566 2.240844 -0.112632
v 16.151705 2.202906 -0.101366
v 16.129015 2.169654 -0.086205
v 16.101366 2.142365 -0.067730
v 16.069822 2.122087 -0.046654
v 16.035595 2.109599 -0.023784
v 16.039551 2.540037 -0.016383
v 16.077581 2.527550 -0.032136
v 16.112631 2.507272 -0.046654
v 16.143353 2.479982 -0.059379
v 16.168566 2.446730 -0.069822
v 16.187300 2.408792 -0.077582
v 16.198835 2.367628 -0.082361
v 16.202732 2.324818 -0.083974
v 16.198835 2.282008 -0.082361
v 16.187300 2.240844 -0.077582
v 16.168566 2.202906 -0.069822
v 16.143353 2.169654 -0.059379
v 16.112631 2.142365 -0.046654
v 16.077581 2.122087 -0.032136
v 16.039551 2.109599 -0.016383
v 16.041986 2.540037 -0.008352
v 16.082361 2.527550 -0.016383
v 16.119570 2.507272 -0.023784
v 16.152184 2.479982 -0.030271
v 16.178947 2.446730 -0.035595
v 16.198835 2.408792 -0.039551
v 16.211084 2.367628 -0.041987
v 16.215219 2.324818 -0.042810
v 16.211084 2.282008 -0.041987
v 16.198835 2.240844 -0.039551
v 16.178947 2.202906 -0.035595
v 16.152184 2.169654 -0.030271
v 16.119570 2.142365 -0.023784
v 16.082361 2.122087 -0.016383
v 16.041986 2.109599 -0.008352
v 16.042810 2.540037 0.000000
v 16.083975 2.527550 0.000000
v 16.121912 2.507272 0.000000
v 16.155165 2.479982 -0.000000
v 16.182453 2.446730 0.000000
v 16.202732 2.408792 -0.000000
v 16.215219 2.367628 0.000000
v 16.219435 2.324818 0.000000
v 16.215219 2.282008 0.000000
v 16.202732 2.240844 -0.000000
v 16.182453 2.202906 0.000000
v 16.155165 2.169654 -0.000000
v 16.121912 2.142365 0.000000
v 16.083975 2.122087 0.000000
v 16.042810 2.109599 0.000000
v 16.041986 2.540037 0.008352
v 16.082361 2.527550 0.016383
v 16.119570 2.507272 0.023784
v 16.152184 2.479982 0.030271
v 16.178947 2.446730 0.035595
v 16.198835 2.408792 0.039551
v 16.211082 2.367628 0.041987
v 16.215219 2.324818 0.042810
v 16.211082 2.282008 0.041987
v 16.198835 2.240844 0.039551
v 16.178947 2.202906 0.035595
v 16.152184 2.169654 0.030271
v 16.119570 2.142365 0.023784
v 16.082361 2.122087 0.016383
v 16.041986 2.109599 0.008352
v 16.039551 2.540037 0.016383
v 16.077581 2.527550 0.032136
v 16.112631 2.507272 0.046654
v 16.143353 2.479982 0.059379
v 16.168566 2.446730 0.069822
v 16.187300 2.408792 0.077582
v 16.198835 2.367628 0.082361
v 16.202732 2.324818 0.083974
v 16.198835 2.282008 0.082361
v 16.187300 2.240844 0.077582
v 16.168566 2.202906 0.069822
v 16.143353 2.169654 0.059379
v 16.112631 2.142365 0.046654
v 16.077581 2.122087 0.032136
v 16.039551 2.109599 0.016383
v 16.035595 2.540037 0.023784
v 16.069822 2.527550 0.046654
v 16.101366 2.507272 0.067730
v 16.129015 2.479982 0.086205
v 16.151705 2.446730 0.101366
v 16.168566 2.408792 0.112632
v 16.178947 2.367628 0.119569
v 16.182453 2.324818 0.121912
v 16.178947 2.282008 0.119569
v 16.168566 2.240844 0.112632
v 16.151705 2.202906 0.101366
v 16.129015 2.169654 0.086205
v 16.101366 2.142365 0.067730
v 16.069822 2.122087 0.046654
v 16.035595 2.109599 0.023784
v 16.030272 2.540037 0.030271
v 16.059380 2.527550 0.059379
v 16.086205 2.507272 0.086205
v 16.109718 2.479982 0.109718
v 16.129015 2.446730 0.129014
v 16.143353 2.408792 0.143353
v 16.152184 2.367628 0.152183
v 16.155165 2.324818 0.155164
v 16.152184 2.282008 0.152183
v 16.143353 2.240844 0.143353
v 16.129015 2.202906 0.129014
v 16.109718 2.169654 0.109718
v 16.086205 2.142365 0.086205
v 16.059380 2.122087 0.059379
v 16.030272 2.109599 0.030271
v 16.023785 2.540037 0.035595
v 16.046654 2.527550 0.069822
v 16.067730 2.507272 0.101366
v 16.086205 2.479982 0.129014
v 16.101366 2.446730 0.151705
v 16.112631 2.408792 0.168565
v 16.119570 2.367628 0.178948
v 16.121912 2.324818 0.182454
v 16.119570 2.282008 0.178948
v 16.112631 2.240844 0.168565
v 16.101366 2.202906 0.151705
v 16.086205 2.169654 0.129014
v 16.067730 2.142365 0.101366
v 16.046654 2.122087 0.069822
v 16.023785 2.109599 0.035595
v 16.016382 2.540037 0.039551
v 16.032135 2.527550 0.077582
v 16.046654 2.507272 0.112632
v 16.059380 2.479982 0.143353
v 16.069822 2.446730 0.168565
v 16.077581 2.408792 0.187300
v 16.082361 2.367628 0.198836
v 16.083975 2.324818 0.202732
v 16.082361 2.282008 0.198836
v 16.077581 2.240844 0.187300
v 16.069822 2.202906 0.168565
v 16.059380 2.169654 0.143353
v 16.046654 2.142365 0.112632
v 16.032135 2.122087 0.077582
v 16.016382 2.109599 0.039551
v 16.008352 2.540037 0.041987
v 16.016382 2.527550 0.082361
v 16.023785 2.507272 0.119569
v 16.030272 2.479982 0.152183
v 16.035595 2.446730 0.178948
v 16.039551 2.408792 0.198836
v 16.041986 2.367628 0.211083
v 16.042810 2.324818 0.215219
v 16.041986 2.282008 0.211083
v 16.039551 2.240844 0.198836
v 16.035595 2.202906 0.178948
v 16.030272 2.169654 0.152183
v 16.023785 2.142365 0.119569
v 16.016382 2.122087 0.082361
v 16.008352 2.109599 0.041987
v 16.000000 2.540037 0.042810
v 16.000000 2.527550 0.083974
v 16.000000 2.507272 0.121912
v 16.000000 2.479982 0.155164
v 16.000000 2.446730 0.182454
v 16.000000 2.408792 0.202732
v 16.000000 2.367628 0.215219
v 16.000000 2.324818 0.219435
v 16.000000 2.282008 0.215219
v 16.000000 2.240844 0.202732
v 16.000000 2.202906 0.182454
v 16.000000 2.169654 0.155164
v 16.000000 2.142365 0.121912
v 16.000000 2.122087 0.083974
v 16.000000 2.109599 0.042810
v 15.991649 2.540037 0.041987
v 15.983618 2.527550 0.082361
v 15.976216 2.507272 0.119569
v 15.969729 2.479982 0.152183
v 15.964405 2.446730 0.178948
v 15.960449 2.408792 0.198836
v 15.958013 2.367628 0.211083
v 15.957191 2.324818 0.215219
v 15.958013 2.282008 0.211083
v 15.960449 2.240844 0.198836
v 15.964405 2.202906 0.178948
v 15.969729 2.169654 0.152183
v 15.976216 2.142365 0.119569
v 15.983618 2.122087 0.082361
v 15.991649 2.109599 0.041987
v 15.983618 2.540037 0.039551
v 15.967864 2.527550 0.077582
v 15.953346 2.507272 0.112632
v 15.940621 2.479982 0.143353
v 15.930178 2.446730 0.168565
v 15.922418 2.408792 0.187300
v 15.917640 2.367628 0.198836
v 15.916026 2.324818 0.202732
v 15.917640 2.282008 0.198836
v 15.922418 2.240844 0.187300
v 15.930178 2.202906 0.168565
v 15.940621 2.169654 0.143353
v 15.953346 2.142365 0.112632
v 15.967864 2.122087 0.077582
v 15.983618 2.109599 0.039551
v 15.976216 2.540037 0.035595
v 15.953346 2.527550 0.069822
v 15.932269 2.507272 0.101366
v 15.913795 2.479982 0.129014
v 15.898634 2.446730 0.151705
v 15.887368 2.408792 0.168565
v 15.880431 2.367628 0.178948
v 15.878088 2.324818 0.182454
v 15.880431 2.282008 0.178948
v 15.887368 2.240844 0.168565
v 15.898634 2.202906 0.151705
v 15.913795 2.169654 0.129014
v 15.932269 2.142365 0.101366
v 15.953346 2.122087 0.069822
v 15.976216 2.109599 0.035595
v 15.969729 2.540037 0.030271
v 15.940621 2.527550 0.059379
v 15.913795 2.507272 0.086204
v 15.890283 2.479982 0.109718
v 15.870986 2.446730 0.129014
v 15.856647 2.408792 0.143353
v 15.847817 2.367628 0.152183
v 15.844836 2.324818 0.155164
v 15.847817 2.282008 0.152183
v 15.856647 2.240844 0.143353
v 15.870986 2.202906 0.129014
v 15.890283 2.169654 0.109718
v 15.913795 2.142365 0.086204
v 15.940621 2.122087 0.059379
v 15.969729 2.109599 0.030271
v 15.964405 2.540037 0.023784
v 15.930178 2.527550 0.046654
v 15.898634 2.507272 0.067730
v 15.870986 2.479982 0.086205
v 15.848295 2.446730 0.101366
v 15.831435 2.408792 0.112632
v 15.821053 2.367628 0.119569
v 15.817547 2.324818 0.121911
v 15.821053 2.282008 0.119569
v 15.831435 2.240844 0.112632
v 15.848295 2.202906 0.101366
v 15.870986 2.169654 0.086205
v 15.898634 2.142365 0.067730
v 15.930178 2.122087 0.046654
v 15.964405 2.109599 0.023784
v 15.960449 2.540037 0.016383
v 15.922418 2.527550 0.032136
v 15.887368 2.507272 0.046654
v 15.856647 2.479982 0.059379
v 15.831435 2.446730 0.069822
v 15.812700 2.408792 0.077582
v 15.801164 2.367628 0.082361
v 15.797269 2.324818 0.083974
v 15.801164 2.282008 0.082361
v 15.812700 2.240844 0.077582
v 15.831435 2.202906 0.069822
v 15.856647 2.169654 0.059379
v 15.887368 2.142365 0.046654
v 15.922418 2.122087 0.032136
v 15.960449 2.109599 0.016383
v 15.958013 2.540037 0.008352
v 15.917640 2.527550 0.016383
v 15.880431 2.507272 0.023784
v 15.847817 2.479982 0.030271
v 15.821053 2.446730 0.035595
v 15.801164 2.408792 0.039551
v 15.788917 2.367628 0.041987
v 15.784781 2.324818 0.042810
v 15.788917 2.282008 0.041987
v 15.801164 2.240844 0.039551
v 15.821053 2.202906 0.035595
v 15.847817 2.169654 0.030271
v 15.880431 2.142365 0.023784
v 15.917640 2.122087 0.016383
v 15.958013 2.109599 0.008352
v 15.957191 2.540037 -0.000000
v 15.916026 2.527550 -0.000000
v 15.878088 2.507272 -0.000000
v 15.844836 2.479982 -0.000000
v 15.817547 2.446730 -0.000000
v 15.797268 2.408792 -0.000000
v 15.784781 2.367628 -0.000000
v 15.780565 2.324818 -0.000000
v 15.784781 2.282008 -0.000000
v 15.797268 2.240844 -0.000000
v 15.817547 2.202906 -0.000000
v 15.844836 2.169654 -0.000000
v 15.878088 2.142365 -0.000000
v 15.916026 2.122087 -0.000000
v 15.957191 2.109599 -0.000000
v 15.958013 2.540037 -0.008352
v 15.917640 2.527550 -0.016383
v 15.880431 2.507272 -0.023784
v 15.847817 2.479982 -0.030271
v 15.821053 2.446730 -0.035595
v 15.801164 2.408792 -0.039551
v 15.788917 2.367628 -0.041987
v 15.784781 2.324818 -0.042810
v 15.788917 2.282008 -0.041987
v 15.801164 2.240844 -0.039551
v 15.821053 2.202906 -0.035595
v 15.847817 2.169654 -0.030271
v 15.880431 2.142365 -0.023784
v 15.917640 2.122087 -0.016383
v 15.958013 2.109599 -0.008352
v 15.960449 2.540037 -0.016383
v 15.922418 2.527550 -0.032136
v 15.887368 2.507272 -0.046654
v 15.856647 2.479982 -0.059379
v 15.831435 2.446730 -0.069822
v 15.812700 2.408792 -0.077582
v 15.801164 2.367628 -0.082361
v 15.797269 2.324818 -0.083974
v 15.801164 2.282008 -0.082361
v 15.812700 2.240844 -0.077582
v 15.831435 2.202906 -0.069822
v 15.856647 2.169654 -0.059379
v 15.887368 2.142365 -0.046654
v 15.922418 2.122087 -0.032136
v 15.960449 2.109599 -0.016383
v 15.964405 2.540037 -0.023784
v 15.930178 2.527550 -0.046654
v 15.898634 2.507272 -0.067730
v 15.870986 2.479982 -0.086205
v 15.848295 2.446730 -0.101366
v 15.831435 2.408792 -0.112632
v 15.821053 2.367628 -0.119569
v 15.817547 2.324818 -0.121912
v 15.821053 2.282008 -0.119569
v 15.831435 2.240844 -0.112632
v 15.848295 2.202906 -0.101366
v 15.870986 2.169654 -0.086205
v 15.898634 2.142365 -0.067730
v 15.930178 2.122087 -0.046654
v 15.964405 2.109599 -0.023784
v 15.969729 2.540037 -0.030271
v 15.940621 2.527550 -0.059379
v 15.913795 2.507272 -0.086205
v 15.890283 2.479982 -0.109718
v 15.870986 2.446730 -0.129014
v 15.856647 2.408792 -0.143353
v 15.847817 2.367628 -0.152183
v 15.844836 2.324818 -0.155164
v 15.847817 2.282008 -0.152183
v 15.856647 2.240844 -0.143353
v 15.870986 2.202906 -0.129014
v 15.890283 2.169654 -0.109718
v 15.913795 2.142365 -0.086205
v 15.940621 2.122087 -0.059379
v 15.969729 2.109599 -0.030271
v 15.976216 2.540037 -0.035595
v 15.953346 2.527550 -0.069822
v 15.932270 2.507272 -0.101366
v 15.913795 2.479982 -0.129014
v 15.898634 2.446730 -0.151705
v 15.887368 2.408792 -0.168565
v 15.880431 2.367628 -0.178948
v 15.878089 2.324818 -0.182454
v 15.880431 2.282008 -0.178948
v 15.887368 2.240844 -0.168565
v 15.898634 2.202906 -0.151705
v 15.913795 2.169654 -0.129014
v 15.932270 2.142365 -0.101366
v 15.953346 2.122087 -0.069822
v 15.976216 2.109599 -0.035595
v 15.983618 2.540037 -0.039551
v 15.967864 2.527550 -0.077582
v 15.953346 2.507272 -0.112632
v 15.940621 2.479982 -0.143353
v 15.930178 2.446730 -0.168565
v 15.922418 2.408792 -0.187300
v 15.917640 2.367628 -0.198836
v 15.916026 2.324818 -0.202732
v 15.917640 2.282008 -0.198836
v 15.922418 2.240844 -0.187300
v 15.930178 2.202906 -0.168565
v 15.940621 2.169654 -0.143353
v 15.953346 2.142365 -0.112632
v 15.967864 2.122087 -0.077582
v 15.983618 2.109599 -0.039551
v 15.991649 2.540037 -0.041987
v 15.983618 2.527550 -0.082361
v 15.976216 2.507272 -0.119569
v 15.969729 2.479982 -0.152183
v 15.964405 2.446730 -0.178948
v 15.960449 2.408792 -0.198836
v 15.958013 2.367628 -0.211083
v 15.957191 2.324818 -0.215219
v 15.958013 2.282008 -0.211083
v 15.960449 2.240844 -0.198836
v 15.964405 2.202906 -0.178948
v 15.969729 2.169654 -0.152183
v 15.976216 2.142365 -0.119569
v 15.983618 2.122087 -0.082361
v 15.991649 2.109599 -0.041987
v 16.000000 2.540037 -0.042810
v 16.000000 2.527550 -0.083974
v 16.000000 2.479982 -0.155164
v 16.000000 2.408792 -0.202732
v 16.000000 2.240844 -0.202732
v 16.000000 2.169654 -0.155164
v 16.000000 2.142365 -0.121912
v 16.000000 2.122087 -0.083974
v 16.000000 2.109599 -0.042810
vn 0.0865 -0.4696 -0.8786
vn 0.0624 0.7715 -0.6332
vn 0.0759 -0.6326 -0.7708
vn 0.0759 0.6326 -0.7708
vn 0.0624 -0.7715 -0.6332
vn 0.0865 0.4696 -0.8786
vn 0.0464 -0.8810 -0.4709
vn 0.0938 0.2890 -0.9527
vn 0.0286 -0.9565 -0.2902
vn 0.0975 0.0975 -0.9904
vn 0.0097 0.9951 -0.0980
vn 0.0097 -0.9951 -0.0980
vn 0.0975 -0.0975 -0.9904
vn 0.0286 0.9565 -0.2902
vn 0.0938 -0.2890 -0.9527
vn 0.0464 0.8810 -0.4709
vn 0.2779 -0.2890 -0.9161
vn 0.1374 0.8810 -0.4528
vn 0.2563 -0.4696 -0.8448
vn 0.1847 0.7715 -0.6088
vn 0.2248 -0.6326 -0.7412
vn 0.2248 0.6326 -0.7412
vn 0.1847 -0.7715 -0.6088
vn 0.2563 0.4696 -0.8448
vn 0.1374 -0.8810 -0.4528
vn 0.2779 0.2890 -0.9161
vn 0.0846 -0.9565 -0.2790
vn 0.2889 0.0976 -0.9524
vn 0.0286 0.9951 -0.0942
vn 0.0286 -0.9951 -0.0942
vn 0.2889 -0.0976 -0.9524
vn 0.0846 0.9565 -0.2790
vn 0.2230 -0.8810 -0.4173
vn 0.4513 0.2890 -0.8443
vn 0.1374 -0.9565 -0.2571
vn 0.4691 0.0975 -0.8777
vn 0.0464 0.9951 -0.0869
vn 0.0464 -0.9951 -0.0869
vn 0.4691 -0.0975 -0.8777
vn 0.1374 0.9565 -0.2571
vn 0.4513 -0.2890 -0.8443
vn 0.2230 0.8810 -0.4173
vn 0.4162 -0.4696 -0.7786
vn 0.2999 0.7715 -0.5611
vn 0.3651 -0.6326 -0.6831
vn 0.3651 0.6326 -0.6831
vn 0.2999 -0.7715 -0.5611
vn 0.4162 0.4696 -0.7786
vn 0.3002 0.8810 -0.3658
vn 0.5601 -0.4696 -0.6825
vn 0.4036 0.7715 -0.4918
vn 0.4913 -0.6326 -0.5987
vn 0.4913 0.6326 -0.5987
vn 0.4036 -0.7715 -0.4918
vn 0.5601 0.4696 -0.6825
vn 0.3002 -0.8810 -0.3658
vn 0.6073 0.2890 -0.7400
vn 0.1850 -0.9565 -0.2254
vn 0.6314 0.0975 -0.7693
vn 0.0625 0.9951 -0.0761
vn 0.0625 -0.9951 -0.0761
vn 0.6314 -0.0975 -0.7693
vn 0.1850 0.9565 -0.2254
vn 0.6073 -0.2890 -0.7400
vn 0.7400 0.2890 -0.6073
vn 0.2254 -0.9565 -0.1850
vn 0.7693 0.0975 -0.6314
vn 0.0761 0.9951 -0.0625
vn 0.0761 -0.9951 -0.0625
vn 0.7693 -0.0975 -0.6314
vn 0.2254 0.9565 -0.1850
vn 0.7400 -0.2890 -0.6073
vn 0.3658 0.8810 -0.3002
vn 0.6825 -0.4696 -0.5601
vn 0.4918 0.7715 -0.4036
vn 0.5987 -0.6326 -0.4913
vn 0.5987 0.6326 -0.4913
vn 0.4918 -0.7715 -0.4036
vn 0.6825 0.4696 -0.5601
vn 0.3658 -0.8810 -0.3002
vn 0.7786 -0.4696 -0.4162
vn 0.5611 0.7715 -0.2999
vn 0.6831 -0.6326 -0.3651
vn 0.6831 0.6326 -0.3651
vn 0.5611 -0.7715 -0.2999
vn 0.7786 0.4696 -0.4162
vn 0.4173 -0.8810 -0.2230
vn 0.8443 0.2890 -0.4513
vn 0.2571 -0.9565 -0.1374
vn 0.8777 0.0975 -0.4691
vn 0.0869 0.9951 -0.0464
vn 0.0869 -0.9951 -0.0464
vn 0.8777 -0.0975 -0.4691
vn 0.2571 0.9565 -0.1374
vn 0.8443 -0.2890 -0.4513
vn 0.4173 0.8810 -0.2230
vn 0.2790 -0.9565 -0.0846
vn 0.9524 0.0975 -0.2889
vn 0.0942 0.9951 -0.0286
vn 0.0942 -0.9951 -0.0286
vn 0.9524 -0.0975 -0.2889
vn 0.2790 0.9565 -0.0846
vn 0.9161 -0.2890 -0.2779
vn 0.4528 0.8810 -0.1374
vn 0.8448 -0.4696 -0.2563
vn 0.6088 0.7715 -0.1847
vn 0.7412 -0.6326 -0.2248
vn 0.7412 0.6326 -0.2248
vn 0.6088 -0.7715 -0.1847
vn 0.8448 0.4696 -0.2563
vn 0.4528 -0.8810 -0.1374
vn 0.9161 0.2890 -0.2779
vn 0.7708 -0.6326 -0.0759
vn 0.7708 0.6326 -0.0759
vn 0.6332 -0.7715 -0.0624
vn 0.8786 0.4696 -0.0865
vn 0.4709 -0.8810 -0.0464
vn 0.9527 0.2890 -0.0938
vn 0.2902 -0.9565 -0.0286
vn 0.9904 0.0975 -0.0975
vn 0.0980 0.9951 -0.0097
vn 0.0980 -0.9951 -0.0097
vn 0.9904 -0.0975 -0.0975
vn 0.2902 0.9565 -0.0286
vn 0.9527 -0.2890 -0.0938
vn 0.4709 0.8810 -0.0464
vn 0.8786 -0.4696 -0.0865
vn 0.6332 0.7715 -0.0624
vn 0.0980 0.9951 0.0097
vn 0.0980 -0.9951 0.0097
vn 0.9904 -0.0975 0.0976
vn 0.2902 0.9565 0.0286
vn 0.9527 -0.2890 0.0938
vn 0.4709 0.8810 0.0464
vn 0.8786 -0.4696 0.0865
vn 0.6332 0.7715 0.0624
vn 0.7708 -0.6326 0.0759
vn 0.7708 0.6326 0.0759
vn 0.6332 -0.7715 0.0624
vn 0.8786 0.4696 0.0865
vn 0.4709 -0.8810 0.0464
vn 0.9527 0.2890 0.0938
vn 0.2902 -0.9565 0.0286
vn 0.9904 0.0975 0.0976
vn 0.7412 0.6326 0.2248
vn 0.6088 -0.7715 0.1847
vn 0.8448 0.4696 0.2563
vn 0.4528 -0.8810 0.1374
vn 0.9161 0.2890 0.2779
vn 0.2790 -0.9565 0.0846
vn 0.9524 0.0975 0.2889
vn 0.0942 0.9951 0.0286
vn 0.0942 -0.9951 0.0286
vn 0.9524 -0.0975 0.2889
vn 0.2790 0.9565 0.0846
vn 0.9161 -0.2890 0.2779
vn 0.4528 0.8810 0.1374
vn 0.8448 -0.4696 0.2563
vn 0.6088 0.7715 0.1847
vn 0.7412 -0.6326 0.2248
vn 0.8777 -0.0975 0.4691
vn 0.2571 0.9565 0.1374
vn 0.8443 -0.2890 0.4513
vn 0.4173 0.8810 0.2230
vn 0.7786 -0.4696 0.4162
vn 0.5611 0.7715 0.2999
vn 0.6831 -0.6326 0.3651
vn 0.6831 0.6326 0.3651
vn 0.5611 -0.7715 0.2999
vn 0.7786 0.4696 0.4162
vn 0.4173 -0.8810 0.2230
vn 0.8443 0.2890 0.4513
vn 0.2571 -0.9565 0.1374
vn 0.8777 0.0975 0.4691
vn 0.0869 0.9951 0.0464
vn 0.0869 -0.9951 0.0464
vn 0.4918 -0.7715 0.4036
vn 0.6825 0.4696 0.5601
vn 0.3658 -0.8810 0.3002
vn 0.7400 0.2890 0.6073
vn 0.2254 -0.9565 0.1850
vn 0.7693 0.0975 0.6314
vn 0.0761 0.9951 0.0625
vn 0.0761 -0.9951 0.0625
vn 0.7693 -0.0975 0.6314
vn 0.2254 0.9565 0.1850
vn 0.7400 -0.2890 0.6073
vn 0.3658 0.8810 0.3002
vn 0.6825 -0.4696 0.5601
vn 0.4918 0.7715 0.4036
vn 0.5987 -0.6326 0.4913
vn 0.5987 0.6326 0.4913
vn 0.1850 0.9565 0.2254
vn 0.6073 -0.2890 0.7400
vn 0.3002 0.8810 0.3658
vn 0.5601 -0.4696 0.6825
vn 0.4036 0.7715 0.4918
vn 0.4913 -0.6326 0.5987
vn 0.4913 0.6326 0.5987
vn 0.4036 -0.7715 0.4918
vn 0.5601 0.4696 0.6825
vn 0.3002 -0.8810 0.3658
vn 0.6073 0.2890 0.7400
vn 0.1850 -0.9565 0.2254
vn 0.6314 0.0975 0.7693
vn 0.0625 0.9951 0.0761
vn 0.0625 -0.9951 0.0761
vn 0.6314 -0.0975 0.7693
vn 0.4162 0.4696 0.7786
vn 0.2230 -0.8810 0.4173
vn 0.4513 0.2890 0.8443
vn 0.1374 -0.9565 0.2571
vn 0.4691 0.0975 0.8777
vn 0.0464 0.9951 0.0869
vn 0.0464 -0.9951 0.0869
vn 0.4691 -0.0975 0.8777
vn 0.1374 0.9565 0.2571
vn 0.4513 -0.2890 0.8443
vn 0.2230 0.8810 0.4173
vn 0.4162 -0.4696 0.7786
vn 0.2999 0.7715 0.5611
vn 0.3651 -0.6326 0.6831
vn 0.3651 0.6326 0.6831
vn 0.2999 -0.7715 0.5611
vn 0.2779 -0.2890 0.9161
vn 0.1374 0.8810 0.4528
vn 0.2563 -0.4696 0.8448
vn 0.1847 0.7715 0.6088
vn 0.2248 -0.6326 0.7412
vn 0.2248 0.6326 0.7412
vn 0.1847 -0.7715 0.6088
vn 0.2563 0.4696 0.8448
vn 0.1374 -0.8810 0.4528
vn 0.2779 0.2890 0.9161
vn 0.0846 -0.9565 0.2790
vn 0.2889 0.0975 0.9524
vn 0.0286 0.9951 0.0942
vn 0.0286 -0.9951 0.0942
vn 0.2889 -0.0975 0.9524
vn 0.0846 0.9565 0.2790
vn 0.0464 -0.8810 0.4709
vn 0.0938 0.2890 0.9527
vn 0.0286 -0.9565 0.2902
vn 0.0975 0.0975 0.9904
vn 0.0097 0.9951 0.0980
vn 0.0097 -0.9951 0.0980
vn 0.0975 -0.0975 0.9904
vn 0.0286 0.9565 0.2902
vn 0.0938 -0.2890 0.9527
vn 0.0464 0.8810 0.4709
vn 0.0865 -0.4696 0.8786
vn 0.0624 0.7715 0.6332
vn 0.0759 -0.6326 0.7708
vn 0.0759 0.6326 0.7708
vn 0.0624 -0.7715 0.6332
vn 0.0865 0.4696 0.8786
vn -0.0865 -0.4696 0.8786
vn -0.0624 0.7715 0.6332
vn -0.0759 -0.6326 0.7708
vn -0.0759 0.6326 0.7708
vn -0.0624 -0.7715 0.6332
vn -0.0865 0.4696 0.8786
vn -0.0464 -0.8810 0.4709
vn -0.0938 0.2890 0.9527
vn -0.0286 -0.9565 0.2902
vn -0.0976 0.0975 0.9904
vn -0.0097 0.9951 0.0980
vn -0.0097 -0.9951 0.0980
vn -0.0976 -0.0975 0.9904
vn -0.0286 0.9565 0.2902
vn -0.0938 -0.2890 0.9527
vn -0.0464 0.8810 0.4709
vn -0.0846 -0.9565 0.2790
vn -0.2889 0.0975 0.9524
vn -0.0286 0.9951 0.0942
vn -0.0286 -0.9951 0.0942
vn -0.2889 -0.0975 0.9524
vn -0.0846 0.9565 0.2790
vn -0.2779 -0.2890 0.9161
vn -0.1374 0.8810 0.4528
vn -0.2563 -0.4696 0.8448
vn -0.1847 0.7715 0.6088
vn -0.2248 -0.6326 0.7412
vn -0.2248 0.6326 0.7412
vn -0.1847 -0.7715 0.6088
vn -0.2563 0.4696 0.8448
vn -0.1374 -0.8810 0.4528
vn -0.2779 0.2890 0.9161
vn -0.2999 0.7715 0.5611
vn -0.3651 -0.6326 0.6831
vn -0.3651 0.6326 0.6831
vn -0.2999 -0.7715 0.5611
vn -0.4162 0.4696 0.7786
vn -0.2230 -0.8810 0.4173
vn -0.4513 0.2890 0.8443
vn -0.1374 -0.9565 0.2571
vn -0.4691 0.0975 0.8777
vn -0.0464 0.9951 0.0869
vn -0.0464 -0.9951 0.0869
vn -0.4691 -0.0975 0.8777
vn -0.1374 0.9565 0.2571
vn -0.4513 -0.2890 0.8443
vn -0.2230 0.8810 0.4173
vn -0.4162 -0.4696 0.7786
vn -0.6314 0.0975 0.7693
vn -0.0625 0.9951 0.0761
vn -0.0625 -0.9951 0.0761
vn -0.6314 -0.0975 0.7693
vn -0.1850 0.9565 0.2254
vn -0.6073 -0.2890 0.7400
vn -0.3002 0.8810 0.3658
vn -0.5601 -0.4696 0.6825
vn -0.4036 0.7715 0.4918
vn -0.4913 -0.6326 0.5987
vn -0.4913 0.6326 0.5987
vn -0.4036 -0.7715 0.4918
vn -0.5601 0.4696 0.6825
vn -0.3002 -0.8810 0.3658
vn -0.6073 0.2890 0.7400
vn -0.1850 -0.9565 0.2254
vn -0.5987 -0.6326 0.4913
vn -0.5987 0.6326 0.4913
vn -0.4918 -0.7715 0.4036
vn -0.6825 0.4696 0.5601
vn -0.3658 -0.8810 0.3002
vn -0.7400 0.2890 0.6073
vn -0.2254 -0.9565 0.1850
vn -0.7693 0.0975 0.6314
vn -0.0761 0.9951 0.0625
vn -0.0761 -0.9951 0.0625
vn -0.7693 -0.0975 0.6314
vn -0.2254 0.9565 0.1850
vn -0.7400 -0.2890 0.6073
vn -0.3658 0.8810 0.3002
vn -0.6825 -0.4696 0.5601
vn -0.4918 0.7715 0.4036
vn -0.0869 0.9951 0.0464
vn -0.0869 -0.9951 0.0464
vn -0.8777 -0.0975 0.4691
vn -0.2571 0.9565 0.1374
vn -0.8443 -0.2890 0.4513
vn -0.4173 0.8810 0.2230
vn -0.7786 -0.4696 0.4162
vn -0.5611 0.7715 0.2999
vn -0.6831 -0.6326 0.3651
vn -0.6831 0.6326 0.3651
vn -0.5611 -0.7715 0.2999
vn -0.7786 0.4696 0.4162
vn -0.4173 -0.8810 0.2230
vn -0.8443 0.2890 0.4513
vn -0.2571 -0.9565 0.1374
vn -0.8777 0.0975 0.4691
vn -0.7412 0.6326 0.2248
vn -0.6088 -0.7715 0.1847
vn -0.8448 0.4696 0.2563
vn -0.4528 -0.8810 0.1374
vn -0.9161 0.2890 0.2779
vn -0.2790 -0.9565 0.0846
vn -0.9524 0.0975 0.2889
vn -0.0942 0.9951 0.0286
vn -0.0942 -0.9951 0.0286
vn -0.9524 -0.0975 0.2889
vn -0.2790 0.9565 0.0846
vn -0.9161 -0.2890 0.2779
vn -0.4528 0.8810 0.1374
vn -0.8448 -0.4696 0.2563
vn -0.6088 0.7715 0.1847
vn -0.7412 -0.6326 0.2248
vn -0.9904 -0.0975 0.0975
vn -0.2902 0.9565 0.0286
vn -0.9527 -0.2890 0.0938
vn -0.4709 0.8810 0.0464
vn -0.8786 -0.4696 0.0865
vn -0.6332 0.7715 0.0624
vn -0.7708 -0.6326 0.0759
vn -0.7708 0.6326 0.0759
vn -0.6332 -0.7715 0.0624
vn -0.8786 0.4696 0.0865
vn -0.4709 -0.8810 0.0464
vn -0.9527 0.2890 0.0938
vn -0.2902 -0.9565 0.0286
vn -0.9904 0.0975 0.0975
vn -0.0980 0.9951 0.0097
vn -0.0980 -0.9951 0.0097
vn -0.6332 -0.7715 -0.0624
vn -0.8786 0.4696 -0.0865
vn -0.4709 -0.8810 -0.0464
vn -0.9527 0.2890 -0.0938
vn -0.2902 -0.9565 -0.0286
vn -0.9904 0.0975 -0.0976
vn -0.0980 0.9951 -0.0097
vn -0.0980 -0.9951 -0.0097
vn -0.9904 -0.0975 -0.0976
vn -0.2902 0.9565 -0.0286
vn -0.9527 -0.2890 -0.0938
vn -0.4709 0.8810 -0.0464
vn -0.8786 -0.4696 -0.0865
vn -0.6332 0.7715 -0.0624
vn -0.7708 -0.6326 -0.0759
vn -0.7708 0.6326 -0.0759
vn -0.9161 -0.2890 -0.2779
vn -0.4528 0.8810 -0.1374
vn -0.8448 -0.4696 -0.2563
vn -0.6088 0.7715 -0.1847
vn -0.7412 -0.6326 -0.2248
vn -0.7412 0.6326 -0.2248
vn -0.6088 -0.7715 -0.1847
vn -0.8448 0.4696 -0.2563
vn -0.4528 -0.8810 -0.1374
vn -0.9161 0.2890 -0.2779
vn -0.2790 -0.9565 -0.0846
vn -0.9524 0.0975 -0.2889
vn -0.0942 0.9951 -0.0286
vn -0.0942 -0.9951 -0.0286
vn -0.9524 -0.0975 -0.2889
vn -0.2790 0.9565 -0.0846
vn -0.4173 -0.8810 -0.2231
vn -0.8443 0.2890 -0.4513
vn -0.2571 -0.9565 -0.1374
vn -0.8777 0.0975 -0.4691
vn -0.0869 0.9951 -0.0464
vn -0.0869 -0.9951 -0.0464
vn -0.8777 -0.0975 -0.4691
vn -0.2571 0.9565 -0.1374
vn -0.8443 -0.2890 -0.4513
vn -0.4173 0.8810 -0.2231
vn -0.7786 -0.4696 -0.4162
vn -0.5611 0.7715 -0.2999
vn -0.6831 -0.6326 -0.3651
vn -0.6831 0.6326 -0.3651
vn -0.5611 -0.7715 -0.2999
vn -0.7786 0.4696 -0.4162
vn -0.3658 0.8810 -0.3002
vn -0.6825 -0.4696 -0.5601
vn -0.4918 0.7715 -0.4036
vn -0.5987 -0.6326 -0.4913
vn -0.5987 0.6326 -0.4913
vn -0.4918 -0.7715 -0.4036
vn -0.6825 0.4696 -0.5601
vn -0.3658 -0.8810 -0.3002
vn -0.7400 0.2890 -0.6073
vn -0.2254 -0.9565 -0.1850
vn -0.7693 0.0975 -0.6314
vn -0.0761 0.9951 -0.0625
vn -0.0761 -0.9951 -0.0625
vn -0.7693 -0.0975 -0.6314
vn -0.2254 0.9565 -0.1850
vn -0.7400 -0.2890 -0.6073
vn -0.6073 0.2890 -0.7400
vn -0.1850 -0.9565 -0.2254
vn -0.6314 0.0975 -0.7693
vn -0.0625 0.9951 -0.0761
vn -0.0625 -0.9951 -0.0761
vn -0.6314 -0.0975 -0.7693
vn -0.1850 0.9565 -0.2254
vn -0.6073 -0.2890 -0.7400
vn -0.3002 0.8810 -0.3658
vn -0.5601 -0.4696 -0.6825
vn -0.4036 0.7715 -0.4918
vn -0.4913 -0.6326 -0.5987
vn -0.4913 0.6326 -0.5987
vn -0.4036 -0.7715 -0.4918
vn -0.5601 0.4696 -0.6825
vn -0.3002 -0.8810 -0.3658
vn -0.4162 -0.4696 -0.7786
vn -0.2999 0.7715 -0.5611
vn -0.3651 -0.6326 -0.6831
vn -0.3651 0.6326 -0.6831
vn -0.2999 -0.7715 -0.5611
vn -0.4162 0.4696 -0.7786
vn -0.2230 -0.8810 -0.4173
vn -0.4513 0.2890 -0.8443
vn -0.1374 -0.9565 -0.2571
vn -0.4691 0.0975 -0.8777
vn -0.0464 0.9951 -0.0869
vn -0.0464 -0.9951 -0.0869
vn -0.4691 -0.0975 -0.8777
vn -0.1374 0.9565 -0.2571
vn -0.4513 -0.2890 -0.8443
vn -0.2230 0.8810 -0.4173
vn -0.0846 -0.9565 -0.2790
vn -0.2889 0.0975 -0.9524
vn -0.0286 0.9951 -0.0942
vn -0.0286 -0.9951 -0.0942
vn -0.2889 -0.0975 -0.9524
vn -0.0846 0.9565 -0.2790
vn -0.2779 -0.2890 -0.9161
vn -0.1374 0.8810 -0.4528
vn -0.2563 -0.4696 -0.8448
vn -0.1847 0.7715 -0.6088
vn -0.2248 -0.6326 -0.7412
vn -0.2248 0.6326 -0.7412
vn -0.1847 -0.7715 -0.6088
vn -0.2563 0.4696 -0.8448
vn -0.1374 -0.8810 -0.4528
vn -0.2779 0.2890 -0.9161
vn -0.0624 0.7715 -0.6332
vn -0.0759 -0.6326 -0.7708
vn -0.0759 0.6326 -0.7708
vn -0.0624 -0.7715 -0.6332
vn -0.0865 0.4696 -0.8786
vn -0.0464 -0.8810 -0.4709
vn -0.0938 0.2890 -0.9527
vn -0.0286 -0.9565 -0.2902
vn -0.0976 0.0975 -0.9904
vn -0.0097 0.9951 -0.0980
vn -0.0097 -0.9951 -0.0980
vn -0.0976 -0.0975 -0.9904
vn -0.0286 0.9565 -0.2902
vn -0.0938 -0.2890 -0.9527
vn -0.0464 0.8810 -0.4709
vn -0.0865 -0.4696 -0.8786
vt 0.750000 0.312500
vt 0.750000 0.375000
vt 0.718750 0.375000
vt 0.718750 0.312500
vt 0.750000 0.750000
vt 0.750000 0.812500
vt 0.718750 0.812500
vt 0.718750 0.750000
vt 0.750000 0.250000
vt 0.718750 0.250000
vt 0.750000 0.687500
vt 0.718750 0.687500
vt 0.750000 0.187500
vt 0.718750 0.187500
vt 0.750000 0.625000
vt 0.718750 0.625000
vt 0.750000 0.125000
vt 0.718750 0.125000
vt 0.750000 0.562500
vt 0.718750 0.562500
vt 0.750000 0.062500
vt 0.718750 0.062500
vt 0.750000 0.500000
vt 0.718750 0.500000
vt 0.750000 0.937500
vt 0.734375 1.000000
vt 0.718750 0.937500
vt 0.734375 0.000000
vt 0.750000 0.437500
vt 0.718750 0.437500
vt 0.750000 0.875000
vt 0.718750 0.875000
vt 0.687500 0.437500
vt 0.687500 0.375000
vt 0.687500 0.875000
vt 0.687500 0.812500
vt 0.687500 0.312500
vt 0.687500 0.750000
vt 0.687500 0.250000
vt 0.687500 0.687500
vt 0.687500 0.187500
vt 0.687500 0.625000
vt 0.687500 0.125000
vt 0.687500 0.562500
vt 0.687500 0.062500
vt 0.687500 0.500000
vt 0.703125 1.000000
vt 0.687500 0.937500
vt 0.703125 0.000000
vt 0.656250 0.187500
vt 0.656250 0.125000
vt 0.656250 0.625000
vt 0.656250 0.562500
vt 0.656250 0.062500
vt 0.656250 0.500000
vt 0.671875 1.000000
vt 0.656250 0.937500
vt 0.671875 0.000000
vt 0.656250 0.437500
vt 0.656250 0.875000
vt 0.656250 0.375000
vt 0.656250 0.812500
vt 0.656250 0.312500
vt 0.656250 0.750000
vt 0.656250 0.250000
vt 0.656250 0.687500
vt 0.625000 0.875000
vt 0.625000 0.812500
vt 0.625000 0.375000
vt 0.625000 0.312500
vt 0.625000 0.750000
vt 0.625000 0.250000
vt 0.625000 0.687500
vt 0.625000 0.187500
vt 0.625000 0.625000
vt 0.625000 0.125000
vt 0.625000 0.562500
vt 0.625000 0.062500
vt 0.625000 0.500000
vt 0.640625 1.000000
vt 0.625000 0.937500
vt 0.640625 0.000000
vt 0.625000 0.437500
vt 0.593750 0.625000
vt 0.593750 0.562500
vt 0.593750 0.125000
vt 0.593750 0.062500
vt 0.593750 0.500000
vt 0.609375 1.000000
vt 0.593750 0.937500
vt 0.609375 0.000000
vt 0.593750 0.437500
vt 0.593750 0.875000
vt 0.593750 0.375000
vt 0.593750 0.812500
vt 0.593750 0.312500
vt 0.593750 0.750000
vt 0.593750 0.250000
vt 0.593750 0.687500
vt 0.593750 0.187500
vt 0.562500 0.375000
vt 0.562500 0.312500
vt 0.562500 0.812500
vt 0.562500 0.750000
vt 0.562500 0.250000
vt 0.562500 0.687500
vt 0.562500 0.187500
vt 0.562500 0.625000
vt 0.562500 0.125000
vt 0.562500 0.562500
vt 0.562500 0.062500
vt 0.562500 0.500000
vt 0.578125 1.000000
vt 0.562500 0.937500
vt 0.578125 0.000000
vt 0.562500 0.437500
vt 0.562500 0.875000
vt 0.531250 0.125000
vt 0.531250 0.062500
vt 0.531250 0.562500
vt 0.531250 0.500000
vt 0.546875 1.000000
vt 0.531250 0.937500
vt 0.546875 0.000000
vt 0.531250 0.437500
vt 0.531250 0.875000
vt 0.531250 0.375000
vt 0.531250 0.812500
vt 0.531250 0.312500
vt 0.531250 0.750000
vt 0.531250 0.250000
vt 0.531250 0.687500
vt 0.531250 0.187500
vt 0.531250 0.625000
vt 0.500000 0.312500
vt 0.500000 0.250000
vt 0.500000 0.750000
vt 0.500000 0.687500
vt 0.500000 0.187500
vt 0.500000 0.625000
vt 0.500000 0.125000
vt 0.500000 0.562500
vt 0.500000 0.062500
vt 0.500000 0.500000
vt 0.515625 1.000000
vt 0.500000 0.937500
vt 0.515625 0.000000
vt 0.500000 0.437500
vt 0.500000 0.875000
vt 0.500000 0.375000
vt 0.500000 0.812500
vt 0.484375 1.000000
vt 0.468750 0.937500
vt 0.484375 0.000000
vt 0.468750 0.062500
vt 0.468750 0.500000
vt 0.468750 0.437500
vt 0.468750 0.875000
vt 0.468750 0.375000
vt 0.468750 0.812500
vt 0.468750 0.312500
vt 0.468750 0.750000
vt 0.468750 0.250000
vt 0.468750 0.687500
vt 0.468750 0.187500
vt 0.468750 0.625000
vt 0.468750 0.125000
vt 0.468750 0.562500
vt 0.437500 0.750000
vt 0.437500 0.687500
vt 0.437500 0.250000
vt 0.437500 0.187500
vt 0.437500 0.625000
vt 0.437500 0.125000
vt 0.437500 0.562500
vt 0.437500 0.062500
vt 0.437500 0.500000
vt 0.453125 1.000000
vt 0.437500 0.937500
vt 0.453125 0.000000
vt 0.437500 0.437500
vt 0.437500 0.875000
vt 0.437500 0.375000
vt 0.437500 0.812500
vt 0.437500 0.312500
vt 0.406250 0.500000
vt 0.406250 0.437500
vt 0.406250 0.937500
vt 0.406250 0.875000
vt 0.406250 0.375000
vt 0.406250 0.812500
vt 0.406250 0.312500
vt 0.406250 0.750000
vt 0.406250 0.250000
vt 0.406250 0.687500
vt 0.406250 0.187500
vt 0.406250 0.625000
vt 0.406250 0.125000
vt 0.406250 0.562500
vt 0.406250 0.062500
vt 0.421875 1.000000
vt 0.421875 0.000000
vt 0.375000 0.250000
vt 0.375000 0.187500
vt 0.375000 0.687500
vt 0.375000 0.625000
vt 0.375000 0.125000
vt 0.375000 0.562500
vt 0.375000 0.062500
vt 0.375000 0.500000
vt 0.390625 1.000000
vt 0.375000 0.937500
vt 0.390625 0.000000
vt 0.375000 0.437500
vt 0.375000 0.875000
vt 0.375000 0.375000
vt 0.375000 0.812500
vt 0.375000 0.312500
vt 0.375000 0.750000
vt 0.343750 0.937500
vt 0.343750 0.875000
vt 0.343750 0.437500
vt 0.343750 0.375000
vt 0.343750 0.812500
vt 0.343750 0.312500
vt 0.343750 0.750000
vt 0.343750 0.250000
vt 0.343750 0.687500
vt 0.343750 0.187500
vt 0.343750 0.625000
vt 0.343750 0.125000
vt 0.343750 0.562500
vt 0.343750 0.062500
vt 0.343750 0.500000
vt 0.359375 1.000000
vt 0.359375 0.000000
vt 0.312500 0.687500
vt 0.312500 0.625000
vt 0.312500 0.187500
vt 0.312500 0.125000
vt 0.312500 0.562500
vt 0.312500 0.062500
vt 0.312500 0.500000
vt 0.328125 1.000000
vt 0.312500 0.937500
vt 0.328125 0.000000
vt 0.312500 0.437500
vt 0.312500 0.875000
vt 0.312500 0.375000
vt 0.312500 0.812500
vt 0.312500 0.312500
vt 0.312500 0.750000
vt 0.312500 0.250000
vt 0.281250 0.437500
vt 0.281250 0.375000
vt 0.281250 0.875000
vt 0.281250 0.812500
vt 0.281250 0.312500
vt 0.281250 0.750000
vt 0.281250 0.250000
vt 0.281250 0.687500
vt 0.281250 0.187500
vt 0.281250 0.625000
vt 0.281250 0.125000
vt 0.281250 0.562500
vt 0.281250 0.062500
vt 0.281250 0.500000
vt 0.296875 1.000000
vt 0.281250 0.937500
vt 0.296875 0.000000
vt 0.250000 0.187500
vt 0.250000 0.125000
vt 0.250000 0.625000
vt 0.250000 0.562500
vt 0.250000 0.062500
vt 0.250000 0.500000
vt 0.265625 1.000000
vt 0.250000 0.937500
vt 0.265625 0.000000
vt 0.250000 0.437500
vt 0.250000 0.875000
vt 0.250000 0.375000
vt 0.250000 0.812500
vt 0.250000 0.312500
vt 0.250000 0.750000
vt 0.250000 0.250000
vt 0.250000 0.687500
vt 0.218750 0.375000
vt 0.218750 0.312500
vt 0.218750 0.812500
vt 0.218750 0.750000
vt 0.218750 0.250000
vt 0.218750 0.687500
vt 0.218750 0.187500
vt 0.218750 0.625000
vt 0.218750 0.125000
vt 0.218750 0.562500
vt 0.218750 0.062500
vt 0.218750 0.500000
vt 0.234375 1.000000
vt 0.218750 0.937500
vt 0.234375 0.000000
vt 0.218750 0.437500
vt 0.218750 0.875000
vt 0.187500 0.125000
vt 0.187500 0.062500
vt 0.187500 0.562500
vt 0.187500 0.500000
vt 0.203125 1.000000
vt 0.187500 0.937500
vt 0.203125 0.000000
vt 0.187500 0.437500
vt 0.187500 0.875000
vt 0.187500 0.375000
vt 0.187500 0.812500
vt 0.187500 0.312500
vt 0.187500 0.750000
vt 0.187500 0.250000
vt 0.187500 0.687500
vt 0.187500 0.187500
vt 0.187500 0.625000
vt 0.156250 0.812500
vt 0.156250 0.750000
vt 0.156250 0.312500
vt 0.156250 0.250000
vt 0.156250 0.687500
vt 0.156250 0.187500
vt 0.156250 0.625000
vt 0.156250 0.125000
vt 0.156250 0.562500
vt 0.156250 0.062500
vt 0.156250 0.500000
vt 0.171875 1.000000
vt 0.156250 0.937500
vt 0.171875 0.000000
vt 0.156250 0.437500
vt 0.156250 0.875000
vt 0.156250 0.375000
vt 0.125000 0.562500
vt 0.125000 0.500000
vt 0.140625 1.000000
vt 0.125000 0.937500
vt 0.140625 0.000000
vt 0.125000 0.062500
vt 0.125000 0.437500
vt 0.125000 0.875000
vt 0.125000 0.375000
vt 0.125000 0.812500
vt 0.125000 0.312500
vt 0.125000 0.750000
vt 0.125000 0.250000
vt 0.125000 0.687500
vt 0.125000 0.187500
vt 0.125000 0.625000
vt 0.125000 0.125000
vt 0.093750 0.312500
vt 0.093750 0.250000
vt 0.093750 0.750000
vt 0.093750 0.687500
vt 0.093750 0.187500
vt 0.093750 0.625000
vt 0.093750 0.125000
vt 0.093750 0.562500
vt 0.093750 0.062500
vt 0.093750 0.500000
vt 0.109375 1.000000
vt 0.093750 0.937500
vt 0.109375 0.000000
vt 0.093750 0.437500
vt 0.093750 0.875000
vt 0.093750 0.375000
vt 0.093750 0.812500
vt 0.078125 1.000000
vt 0.062500 0.937500
vt 0.078125 0.000000
vt 0.062500 0.062500
vt 0.062500 0.500000
vt 0.062500 0.437500
vt 0.062500 0.875000
vt 0.062500 0.375000
vt 0.062500 0.812500
vt 0.062500 0.312500
vt 0.062500 0.750000
vt 0.062500 0.250000
vt 0.062500 0.687500
vt 0.062500 0.187500
vt 0.062500 0.625000
vt 0.062500 0.125000
vt 0.062500 0.562500
vt 0.031250 0.750000
vt 0.031250 0.687500
vt 0.031250 0.250000
vt 0.031250 0.187500
vt 0.031250 0.625000
vt 0.031250 0.125000
vt 0.031250 0.562500
vt 0.031250 0.062500
vt 0.031250 0.500000
vt 0.046875 1.000000
vt 0.031250 0.937500
vt 0.046875 0.000000
vt 0.031250 0.437500
vt 0.031250 0.875000
vt 0.031250 0.375000
vt 0.031250 0.812500
vt 0.031250 0.312500
vt 0.000000 0.500000
vt 0.000000 0.437500
vt 0.000000 0.937500
vt 0.000000 0.875000
vt 0.000000 0.375000
vt 0.000000 0.812500
vt 0.000000 0.312500
vt 0.000000 0.750000
vt 0.000000 0.250000
vt 0.000000 0.687500
vt 0.000000 0.187500
vt 0.000000 0.625000
vt 0.000000 0.125000
vt 0.000000 0.562500
vt 0.000000 0.062500
vt 0.015625 1.000000
vt 0.015625 0.000000
vt 1.000000 0.187500
vt 1.000000 0.250000
vt 0.968750 0.250000
vt 0.968750 0.187500
vt 1.000000 0.625000
vt 1.000000 0.687500
vt 0.968750 0.687500
vt 0.968750 0.625000
vt 1.000000 0.125000
vt 0.968750 0.125000
vt 1.000000 0.562500
vt 0.968750 0.562500
vt 1.000000 0.062500
vt 0.968750 0.062500
vt 1.000000 0.500000
vt 0.968750 0.500000
vt 1.000000 0.937500
vt 0.984375 1.000000
vt 0.968750 0.937500
vt 0.984375 0.000000
vt 1.000000 0.437500
vt 0.968750 0.437500
vt 1.000000 0.875000
vt 0.968750 0.875000
vt 1.000000 0.375000
vt 0.968750 0.375000
vt 1.000000 0.812500
vt 0.968750 0.812500
vt 1.000000 0.312500
vt 0.968750 0.312500
vt 1.000000 0.750000
vt 0.968750 0.750000
vt 0.937500 0.437500
vt 0.937500 0.375000
vt 0.937500 0.875000
vt 0.937500 0.812500
vt 0.937500 0.312500
vt 0.937500 0.750000
vt 0.937500 0.250000
vt 0.937500 0.687500
vt 0.937500 0.187500
vt 0.937500 0.625000
vt 0.937500 0.125000
vt 0.937500 0.562500
vt 0.937500 0.062500
vt 0.937500 0.500000
vt 0.953125 1.000000
vt 0.937500 0.937500
vt 0.953125 0.000000
vt 0.906250 0.187500
vt 0.906250 0.125000
vt 0.906250 0.625000
vt 0.906250 0.562500
vt 0.906250 0.062500
vt 0.906250 0.500000
vt 0.921875 1.000000
vt 0.906250 0.937500
vt 0.921875 0.000000
vt 0.906250 0.437500
vt 0.906250 0.875000
vt 0.906250 0.375000
vt 0.906250 0.812500
vt 0.906250 0.312500
vt 0.906250 0.750000
vt 0.906250 0.250000
vt 0.906250 0.687500
vt 0.875000 0.875000
vt 0.875000 0.812500
vt 0.875000 0.375000
vt 0.875000 0.312500
vt 0.875000 0.750000
vt 0.875000 0.250000
vt 0.875000 0.687500
vt 0.875000 0.187500
vt 0.875000 0.625000
vt 0.875000 0.125000
vt 0.875000 0.562500
vt 0.875000 0.062500
vt 0.875000 0.500000
vt 0.890625 1.000000
vt 0.875000 0.937500
vt 0.890625 0.000000
vt 0.875000 0.437500
vt 0.843750 0.625000
vt 0.843750 0.562500
vt 0.843750 0.125000
vt 0.843750 0.062500
vt 0.843750 0.500000
vt 0.859375 1.000000
vt 0.843750 0.937500
vt 0.859375 0.000000
vt 0.843750 0.437500
vt 0.843750 0.875000
vt 0.843750 0.375000
vt 0.843750 0.812500
vt 0.843750 0.312500
vt 0.843750 0.750000
vt 0.843750 0.250000
vt 0.843750 0.687500
vt 0.843750 0.187500
vt 0.812500 0.375000
vt 0.812500 0.312500
vt 0.812500 0.812500
vt 0.812500 0.750000
vt 0.812500 0.250000
vt 0.812500 0.687500
vt 0.812500 0.187500
vt 0.812500 0.625000
vt 0.812500 0.125000
vt 0.812500 0.562500
vt 0.812500 0.062500
vt 0.812500 0.500000
vt 0.828125 1.000000
vt 0.812500 0.937500
vt 0.828125 0.000000
vt 0.812500 0.437500
vt 0.812500 0.875000
vt 0.781250 0.125000
vt 0.781250 0.062500
vt 0.781250 0.562500
vt 0.781250 0.500000
vt 0.796875 1.000000
vt 0.781250 0.937500
vt 0.796875 0.000000
vt 0.781250 0.437500
vt 0.781250 0.875000
vt 0.781250 0.375000
vt 0.781250 0.812500
vt 0.781250 0.312500
vt 0.781250 0.750000
vt 0.781250 0.250000
vt 0.781250 0.687500
vt 0.781250 0.187500
vt 0.781250 0.625000
vt 0.765625 1.000000
vt 0.765625 0.000000
s 0
f 119/117/35 590/118/35 130/119/35 131/120/35
f 588/121/36 114/122/36 123/123/36 124/124/36
f 591/125/37 119/117/37 131/120/37 132/126/37
f 115/127/38 588/121/38 124/124/38 125/128/38
f 592/129/39 591/125/39 132/126/39 133/130/39
f 589/131/40 115/127/40 125/128/40 126/132/40
f 593/133/41 592/129/41 133/130/41 134/134/41
f 116/135/42 589/131/42 126/132/42 127/136/42
f 594/137/43 593/133/43 134/134/43 135/138/43
f 117/139/44 116/135/44 127/136/44 128/140/44
f 586/141/45 113/142/45 121/143/45
f 120/144/46 594/137/46 135/138/46
f 118/145/47 117/139/47 128/140/47 129/146/47
f 587/147/48 586/141/48 121/143/48 122/148/48
f 590/118/49 118/145/49 129/146/49 130/119/49
f 114/122/50 587/147/50 122/148/50 123/123/50
f 130/119/51 129/146/51 144/149/51 145/150/51
f 123/123/52 122/148/52 137/151/52 138/152/52
f 131/120/53 130/119/53 145/150/53 146/153/53
f 124/124/54 123/123/54 138/152/54 139/154/54
f 132/126/55 131/120/55 146/153/55 147/155/55
f 125/128/56 124/124/56 139/154/56 140/156/56
f 133/130/57 132/126/57 147/155/57 148/157/57
f 126/132/58 125/128/58 140/156/58 141/158/58
f 134/134/59 133/130/59 148/157/59 149/159/59
f 127/136/60 126/132/60 141/158/60 142/160/60
f 135/138/61 134/134/61 149/159/61 150/161/61
f 128/140/62 127/136/62 142/160/62 143/162/62
f 121/143/63 113/163/63 136/164/63
f 120/165/64 135/138/64 150/161/64
f 129/146/65 128/140/65 143/162/65 144/149/65
f 122/148/66 121/143/66 136/164/66 137/151/66
f 149/159/67 148/157/67 163/166/67 164/167/67
f 142/160/68 141/158/68 156/168/68 157/169/68
f 150/161/69 149/159/69 164/167/69 165/170/69
f 143/162/70 142/160/70 157/169/70 158/171/70
f 136/164/71 113/172/71 151/173/71
f 120/174/72 150/161/72 165/170/72
f 144/149/73 143/162/73 158/171/73 159/175/73
f 137/151/74 136/164/74 151/173/74 152/176/74
f 145/150/75 144/149/75 159/175/75 160/177/75
f 138/152/76 137/151/76 152/176/76 153/178/76
f 146/153/77 145/150/77 160/177/77 161/179/77
f 139/154/78 138/152/78 153/178/78 154/180/78
f 147/155/79 146/153/79 161/179/79 162/181/79
f 140/156/80 139/154/80 154/180/80 155/182/80
f 148/157/81 147/155/81 162/181/81 163/166/81
f 141/158/82 140/156/82 155/182/82 156/168/82
f 153/178/83 152/176/83 167/183/83 168/184/83
f 161/179/84 160/177/84 175/185/84 176/186/84
f 154/180/85 153/178/85 168/184/85 169/187/85
f 162/181/86 161/179/86 176/186/86 177/188/86
f 155/182/87 154/180/87 169/187/87 170/189/87
f 163/166/88 162/181/88 177/188/88 178/190/88
f 156/168/89 155/182/89 170/189/89 171/191/89
f 164/167/90 163/166/90 178/190/90 179/192/90
f 157/169/91 156/168/91 171/191/91 172/193/91
f 165/170/92 164/167/92 179/192/92 180/194/92
f 158/171/93 157/169/93 172/193/93 173/195/93
f 151/173/94 113/196/94 166/197/94
f 120/198/95 165/170/95 180/194/95
f 159/175/96 158/171/96 173/195/96 174/199/96
f 152/176/97 151/173/97 166/197/97 167/183/97
f 160/177/98 159/175/98 174/199/98 175/185/98
f 172/193/99 171/191/99 186/200/99 187/201/99
f 180/194/100 179/192/100 194/202/100 195/203/100
f 173/195/101 172/193/101 187/201/101 188/204/101
f 166/197/102 113/205/102 181/206/102
f 120/207/103 180/194/103 195/203/103
f 174/199/104 173/195/104 188/204/104 189/208/104
f 167/183/105 166/197/105 181/206/105 182/209/105
f 175/185/106 174/199/106 189/208/106 190/210/106
f 168/184/107 167/183/107 182/209/107 183/211/107
f 176/186/108 175/185/108 190/210/108 191/212/108
f 169/187/109 168/184/109 183/211/109 184/213/109
f 177/188/110 176/186/110 191/212/110 192/214/110
f 170/189/111 169/187/111 184/213/111 185/215/111
f 178/190/112 177/188/112 192/214/112 193/216/112
f 171/191/113 170/189/113 185/215/113 186/200/113
f 179/192/114 178/190/114 193/216/114 194/202/114
f 191/212/115 190/210/115 205/217/115 206/218/115
f 184/213/116 183/211/116 198/219/116 199/220/116
f 192/214/117 191/212/117 206/218/117 207/221/117
f 185/215/118 184/213/118 199/220/118 200/222/118
f 193/216/119 192/214/119 207/221/119 208/223/119
f 186/200/120 185/215/120 200/222/120 201/224/120
f 194/202/121 193/216/121 208/223/121 209/225/121
f 187/201/122 186/200/122 201/224/122 202/226/122
f 195/203/123 194/202/123 209/225/123 210/227/123
f 188/204/124 187/201/124 202/226/124 203/228/124
f 181/206/125 113/229/125 196/230/125
f 120/231/126 195/203/126 210/227/126
f 189/208/127 188/204/127 203/228/127 204/232/127
f 182/209/128 181/206/128 196/230/128 197/233/128
f 190/210/129 189/208/129 204/232/129 205/217/129
f 183/211/130 182/209/130 197/233/130 198/219/130
f 210/227/131 209/225/131 224/234/131 225/235/131
f 203/228/132 202/226/132 217/236/132 218/237/132
f 196/230/133 113/238/133 211/239/133
f 120/240/134 210/227/134 225/235/134
f 204/232/135 203/228/135 218/237/135 219/241/135
f 197/233/136 196/230/136 211/239/136 212/242/136
f 205/217/137 204/232/137 219/241/137 220/243/137
f 198/219/138 197/233/138 212/242/138 213/244/138
f 206/218/139 205/217/139 220/243/139 221/245/139
f 199/220/140 198/219/140 213/244/140 214/246/140
f 207/221/141 206/218/141 221/245/141 222/247/141
f 200/222/142 199/220/142 214/246/142 215/248/142
f 208/223/143 207/221/143 222/247/143 223/249/143
f 201/224/144 200/222/144 215/248/144 216/250/144
f 209/225/145 208/223/145 223/249/145 224/234/145
f 202/226/146 201/224/146 216/250/146 217/236/146
f 222/247/147 221/245/147 236/251/147 237/252/147
f 215/248/148 214/246/148 229/253/148 230/254/148
f 223/249/149 222/247/149 237/252/149 238/255/149
f 216/250/150 215/248/150 230/254/150 231/256/150
f 224/234/151 223/249/151 238/255/151 239/257/151
f 217/236/152 216/250/152 231/256/152 232/258/152
f 225/235/153 224/234/153 239/257/153 240/259/153
f 218/237/154 217/236/154 232/258/154 233/260/154
f 211/239/155 113/261/155 226/262/155
f 120/263/156 225/235/156 240/259/156
f 219/241/157 218/237/157 233/260/157 234/264/157
f 212/242/158 211/239/158 226/262/158 227/265/158
f 220/243/159 219/241/159 234/264/159 235/266/159
f 213/244/160 212/242/160 227/265/160 228/267/160
f 221/245/161 220/243/161 235/266/161 236/251/161
f 214/246/162 213/244/162 228/267/162 229/253/162
f 226/262/163 113/268/163 241/269/163
f 120/270/164 240/259/164 255/271/164
f 234/264/165 233/260/165 248/272/165 249/273/165
f 227/265/166 226/262/166 241/269/166 242/274/166
f 235/266/167 234/264/167 249/273/167 250/275/167
f 228/267/168 227/265/168 242/274/168 243/276/168
f 236/251/169 235/266/169 250/275/169 251/277/169
f 229/253/170 228/267/170 243/276/170 244/278/170
f 237/252/171 236/251/171 251/277/171 252/279/171
f 230/254/172 229/253/172 244/278/172 245/280/172
f 238/255/173 237/252/173 252/279/173 253/281/173
f 231/256/174 230/254/174 245/280/174 246/282/174
f 239/257/175 238/255/175 253/281/175 254/283/175
f 232/258/176 231/256/176 246/282/176 247/284/176
f 240/259/177 239/257/177 254/283/177 255/271/177
f 233/260/178 232/258/178 247/284/178 248/272/178
f 245/280/179 244/278/179 259/285/179 260/286/179
f 253/281/180 252/279/180 267/287/180 268/288/180
f 246/282/181 245/280/181 260/286/181 261/289/181
f 254/283/182 253/281/182 268/288/182 269/290/182
f 247/284/183 246/282/183 261/289/183 262/291/183
f 255/271/184 254/283/184 269/290/184 270/292/184
f 248/272/185 247/284/185 262/291/185 263/293/185
f 241/269/186 113/294/186 256/295/186
f 120/296/187 255/271/187 270/292/187
f 249/273/188 248/272/188 263/293/188 264/297/188
f 242/274/189 241/269/189 256/295/189 257/298/189
f 250/275/190 249/273/190 264/297/190 265/299/190
f 243/276/191 242/274/191 257/298/191 258/300/191
f 251/277/192 250/275/192 265/299/192 266/301/192
f 244/278/193 243/276/193 258/300/193 259/285/193
f 252/279/194 251/277/194 266/301/194 267/287/194
f 264/297/195 263/293/195 278/302/195 279/303/195
f 257/298/196 256/295/196 271/304/196 272/305/196
f 265/299/197 264/297/197 279/303/197 280/306/197
f 258/300/198 257/298/198 272/305/198 273/307/198
f 266/301/199 265/299/199 280/306/199 281/308/199
f 259/285/200 258/300/200 273/307/200 274/309/200
f 267/287/201 266/301/201 281/308/201 282/310/201
f 260/286/202 259/285/202 274/309/202 275/311/202
f 268/288/203 267/287/203 282/310/203 283/312/203
f 261/289/204 260/286/204 275/311/204 276/313/204
f 269/290/205 268/288/205 283/312/205 284/314/205
f 262/291/206 261/289/206 276/313/206 277/315/206
f 270/292/207 269/290/207 284/314/207 285/316/207
f 263/293/208 262/291/208 277/315/208 278/302/208
f 256/295/209 113/317/209 271/304/209
f 120/318/210 270/292/210 285/316/210
f 283/312/211 282/310/211 297/319/211 298/320/211
f 276/313/212 275/311/212 290/321/212 291/322/212
f 284/314/213 283/312/213 298/320/213 299/323/213
f 277/315/214 276/313/214 291/322/214 292/324/214
f 285/316/215 284/314/215 299/323/215 300/325/215
f 278/302/216 277/315/216 292/324/216 293/326/216
f 271/304/217 113/327/217 286/328/217
f 120/329/218 285/316/218 300/325/218
f 279/303/219 278/302/219 293/326/219 294/330/219
f 272/305/220 271/304/220 286/328/220 287/331/220
f 280/306/221 279/303/221 294/330/221 295/332/221
f 273/307/222 272/305/222 287/331/222 288/333/222
f 281/308/223 280/306/223 295/332/223 296/334/223
f 274/309/224 273/307/224 288/333/224 289/335/224
f 282/310/225 281/308/225 296/334/225 297/319/225
f 275/311/226 274/309/226 289/335/226 290/321/226
f 287/331/227 286/328/227 301/336/227 302/337/227
f 295/332/228 294/330/228 309/338/228 310/339/228
f 288/333/229 287/331/229 302/337/229 303/340/229
f 296/334/230 295/332/230 310/339/230 311/341/230
f 289/335/231 288/333/231 303/340/231 304/342/231
f 297/319/232 296/334/232 311/341/232 312/343/232
f 290/321/233 289/335/233 304/342/233 305/344/233
f 298/320/234 297/319/234 312/343/234 313/345/234
f 291/322/235 290/321/235 305/344/235 306/346/235
f 299/323/236 298/320/236 313/345/236 314/347/236
f 292/324/237 291/322/237 306/346/237 307/348/237
f 300/325/238 299/323/238 314/347/238 315/349/238
f 293/326/239 292/324/239 307/348/239 308/350/239
f 286/328/240 113/351/240 301/336/240
f 120/352/241 300/325/241 315/349/241
f 294/330/242 293/326/242 308/350/242 309/338/242
f 306/346/243 305/344/243 320/353/243 321/354/243
f 314/347/244 313/345/244 328/355/244 329/356/244
f 307/348/245 306/346/245 321/354/245 322/357/245
f 315/349/246 314/347/246 329/356/246 330/358/246
f 308/350/247 307/348/247 322/357/247 323/359/247
f 301/336/248 113/360/248 316/361/248
f 120/362/249 315/349/249 330/358/249
f 309/338/250 308/350/250 323/359/250 324/363/250
f 302/337/251 301/336/251 316/361/251 317/364/251
f 310/339/252 309/338/252 324/363/252 325/365/252
f 303/340/253 302/337/253 317/364/253 318/366/253
f 311/341/254 310/339/254 325/365/254 326/367/254
f 304/342/255 303/340/255 318/366/255 319/368/255
f 312/343/256 311/341/256 326/367/256 327/369/256
f 305/344/257 304/342/257 319/368/257 320/353/257
f 313/345/258 312/343/258 327/369/258 328/355/258
f 325/365/259 324/363/259 339/370/259 340/371/259
f 318/366/260 317/364/260 332/372/260 333/373/260
f 326/367/261 325/365/261 340/371/261 341/374/261
f 319/368/262 318/366/262 333/373/262 334/375/262
f 327/369/263 326/367/263 341/374/263 342/376/263
f 320/353/264 319/368/264 334/375/264 335/377/264
f 328/355/265 327/369/265 342/376/265 343/378/265
f 321/354/266 320/353/266 335/377/266 336/379/266
f 329/356/267 328/355/267 343/378/267 344/380/267
f 322/357/268 321/354/268 336/379/268 337/381/268
f 330/358/269 329/356/269 344/380/269 345/382/269
f 323/359/270 322/357/270 337/381/270 338/383/270
f 316/361/271 113/384/271 331/385/271
f 120/386/272 330/358/272 345/382/272
f 324/363/273 323/359/273 338/383/273 339/370/273
f 317/364/274 316/361/274 331/385/274 332/372/274
f 344/380/275 343/378/275 358/387/275 359/388/275
f 337/381/276 336/379/276 351/389/276 352/390/276
f 345/382/277 344/380/277 359/388/277 360/391/277
f 338/383/278 337/381/278 352/390/278 353/392/278
f 331/385/279 113/393/279 346/394/279
f 120/395/280 345/382/280 360/391/280
f 339/370/281 338/383/281 353/392/281 354/396/281
f 332/372/282 331/385/282 346/394/282 347/397/282
f 340/371/283 339/370/283 354/396/283 355/398/283
f 333/373/284 332/372/284 347/397/284 348/399/284
f 341/374/285 340/371/285 355/398/285 356/400/285
f 334/375/286 333/373/286 348/399/286 349/401/286
f 342/376/287 341/374/287 356/400/287 357/402/287
f 335/377/288 334/375/288 349/401/288 350/403/288
f 343/378/289 342/376/289 357/402/289 358/387/289
f 336/379/290 335/377/290 350/403/290 351/389/290
f 356/400/291 355/398/291 370/404/291 371/405/291
f 349/401/292 348/399/292 363/406/292 364/407/292
f 357/402/293 356/400/293 371/405/293 372/408/293
f 350/403/294 349/401/294 364/407/294 365/409/294
f 358/387/295 357/402/295 372/408/295 373/410/295
f 351/389/296 350/403/296 365/409/296 366/411/296
f 359/388/297 358/387/297 373/410/297 374/412/297
f 352/390/298 351/389/298 366/411/298 367/413/298
f 360/391/299 359/388/299 374/412/299 375/414/299
f 353/392/300 352/390/300 367/413/300 368/415/300
f 346/394/301 113/416/301 361/417/301
f 120/418/302 360/391/302 375/414/302
f 354/396/303 353/392/303 368/415/303 369/419/303
f 347/397/304 346/394/304 361/417/304 362/420/304
f 355/398/305 354/396/305 369/419/305 370/404/305
f 348/399/306 347/397/306 362/420/306 363/406/306
f 375/414/307 374/412/307 389/421/307 390/422/307
f 368/415/308 367/413/308 382/423/308 383/424/308
f 361/417/309 113/425/309 376/426/309
f 120/427/310 375/414/310 390/422/310
f 369/419/311 368/415/311 383/424/311 384/428/311
f 362/420/312 361/417/312 376/426/312 377/429/312
f 370/404/313 369/419/313 384/428/313 385/430/313
f 363/406/314 362/420/314 377/429/314 378/431/314
f 371/405/315 370/404/315 385/430/315 386/432/315
f 364/407/316 363/406/316 378/431/316 379/433/316
f 372/408/317 371/405/317 386/432/317 387/434/317
f 365/409/318 364/407/318 379/433/318 380/435/318
f 373/410/319 372/408/319 387/434/319 388/436/319
f 366/411/320 365/409/320 380/435/320 381/437/320
f 374/412/321 373/410/321 388/436/321 389/421/321
f 367/413/322 366/411/322 381/437/322 382/423/322
f 379/433/323 378/431/323 393/438/323 394/439/323
f 387/434/324 386/432/324 401/440/324 402/441/324
f 380/435/325 379/433/325 394/439/325 395/442/325
f 388/436/326 387/434/326 402/441/326 403/443/326
f 381/437/327 380/435/327 395/442/327 396/444/327
f 389/421/328 388/436/328 403/443/328 404/445/328
f 382/423/329 381/437/329 396/444/329 397/446/329
f 390/422/330 389/421/330 404/445/330 405/447/330
f 383/424/331 382/423/331 397/446/331 398/448/331
f 376/426/332 113/449/332 391/450/332
f 120/451/333 390/422/333 405/447/333
f 384/428/334 383/424/334 398/448/334 399/452/334
f 377/429/335 376/426/335 391/450/335 392/453/335
f 385/430/336 384/428/336 399/452/336 400/454/336
f 378/431/337 377/429/337 392/453/337 393/438/337
f 386/432/338 385/430/338 400/454/338 401/440/338
f 398/448/339 397/446/339 412/455/339 413/456/339
f 391/450/340 113/457/340 406/458/340
f 120/459/341 405/447/341 420/460/341
f 399/452/342 398/448/342 413/456/342 414/461/342
f 392/453/343 391/450/343 406/458/343 407/462/343
f 400/454/344 399/452/344 414/461/344 415/463/344
f 393/438/345 392/453/345 407/462/345 408/464/345
f 401/440/346 400/454/346 415/463/346 416/465/346
f 394/439/347 393/438/347 408/464/347 409/466/347
f 402/441/348 401/440/348 416/465/348 417/467/348
f 395/442/349 394/439/349 409/466/349 410/468/349
f 403/443/350 402/441/350 417/467/350 418/469/350
f 396/444/351 395/442/351 410/468/351 411/470/351
f 404/445/352 403/443/352 418/469/352 419/471/352
f 397/446/353 396/444/353 411/470/353 412/455/353
f 405/447/354 404/445/354 419/471/354 420/460/354
f 417/467/355 416/465/355 431/472/355 432/473/355
f 410/468/356 409/466/356 424/474/356 425/475/356
f 418/469/357 417/467/357 432/473/357 433/476/357
f 411/470/358 410/468/358 425/475/358 426/477/358
f 419/471/359 418/469/359 433/476/359 434/478/359
f 412/455/360 411/470/360 426/477/360 427/479/360
f 420/460/361 419/471/361 434/478/361 435/480/361
f 413/456/362 412/455/362 427/479/362 428/481/362
f 406/458/363 113/482/363 421/483/363
f 120/484/364 420/460/364 435/480/364
f 414/461/365 413/456/365 428/481/365 429/485/365
f 407/462/366 406/458/366 421/483/366 422/486/366
f 415/463/367 414/461/367 429/485/367 430/487/367
f 408/464/368 407/462/368 422/486/368 423/488/368
f 416/465/369 415/463/369 430/487/369 431/472/369
f 409/466/370 408/464/370 423/488/370 424/474/370
f 421/483/371 113/489/371 436/490/371
f 120/491/372 435/480/372 450/492/372
f 429/485/373 428/481/373 443/493/373 444/494/373
f 422/486/374 421/483/374 436/490/374 437/495/374
f 430/487/375 429/485/375 444/494/375 445/496/375
f 423/488/376 422/486/376 437/495/376 438/497/376
f 431/472/377 430/487/377 445/496/377 446/498/377
f 424/474/378 423/488/378 438/497/378 439/499/378
f 432/473/379 431/472/379 446/498/379 447/500/379
f 425/475/380 424/474/380 439/499/380 440/501/380
f 433/476/381 432/473/381 447/500/381 448/502/381
f 426/477/382 425/475/382 440/501/382 441/503/382
f 434/478/383 433/476/383 448/502/383 449/504/383
f 427/479/384 426/477/384 441/503/384 442/505/384
f 435/480/385 434/478/385 449/504/385 450/492/385
f 428/481/386 427/479/386 442/505/386 443/493/386
f 440/501/387 439/499/387 454/506/387 455/507/387
f 448/502/388 447/500/388 462/508/388 463/509/388
f 441/503/389 440/501/389 455/507/389 456/510/389
f 449/504/390 448/502/390 463/509/390 464/511/390
f 442/505/391 441/503/391 456/510/391 457/512/391
f 450/492/392 449/504/392 464/511/392 465/513/392
f 443/493/393 442/505/393 457/512/393 458/514/393
f 436/490/394 113/515/394 451/516/394
f 120/517/395 450/492/395 465/513/395
f 444/494/396 443/493/396 458/514/396 459/518/396
f 437/495/397 436/490/397 451/516/397 452/519/397
f 445/496/398 444/494/398 459/518/398 460/520/398
f 438/497/399 437/495/399 452/519/399 453/521/399
f 446/498/400 445/496/400 460/520/400 461/522/400
f 439/499/401 438/497/401 453/521/401 454/506/401
f 447/500/402 446/498/402 461/522/402 462/508/402
f 459/518/403 458/514/403 473/523/403 474/524/403
f 452/519/404 451/516/404 466/525/404 467/526/404
f 460/520/405 459/518/405 474/524/405 475/527/405
f 453/521/406 452/519/406 467/526/406 468/528/406
f 461/522/407 460/520/407 475/527/407 476/529/407
f 454/506/408 453/521/408 468/528/408 469/530/408
f 462/508/409 461/522/409 476/529/409 477/531/409
f 455/507/410 454/506/410 469/530/410 470/532/410
f 463/509/411 462/508/411 477/531/411 478/533/411
f 456/510/412 455/507/412 470/532/412 471/534/412
f 464/511/413 463/509/413 478/533/413 479/535/413
f 457/512/414 456/510/414 471/534/414 472/536/414
f 465/513/415 464/511/415 479/535/415 480/537/415
f 458/514/416 457/512/416 472/536/416 473/523/416
f 451/516/417 113/538/417 466/525/417
f 120/539/418 465/513/418 480/537/418
f 478/540/419 477/541/419 492/542/419 493/543/419
f 471/544/420 470/545/420 485/546/420 486/547/420
f 479/548/421 478/540/421 493/543/421 494/549/421
f 472/550/422 471/544/422 486/547/422 487/551/422
f 480/552/423 479/548/423 494/549/423 495/553/423
f 473/554/424 472/550/424 487/551/424 488/555/424
f 466/556/425 113/557/425 481/558/425
f 120/559/426 480/552/426 495/553/426
f 474/560/427 473/554/427 488/555/427 489/561/427
f 467/562/428 466/556/428 481/558/428 482/563/428
f 475/564/429 474/560/429 489/561/429 490/565/429
f 468/566/430 467/562/430 482/563/430 483/567/430
f 476/568/431 475/564/431 490/565/431 491/569/431
f 469/570/432 468/566/432 483/567/432 484/571/432
f 477/541/433 476/568/433 491/569/433 492/542/433
f 470/545/434 469/570/434 484/571/434 485/546/434
f 490/565/435 489/561/435 504/572/435 505/573/435
f 483/567/436 482/563/436 497/574/436 498/575/436
f 491/569/437 490/565/437 505/573/437 506/576/437
f 484/571/438 483/567/438 498/575/438 499/577/438
f 492/542/439 491/569/439 506/576/439 507/578/439
f 485/546/440 484/571/440 499/577/440 500/579/440
f 493/543/441 492/542/441 507/578/441 508/580/441
f 486/547/442 485/546/442 500/579/442 501/581/442
f 494/549/443 493/543/443 508/580/443 509/582/443
f 487/551/444 486/547/444 501/581/444 502/583/444
f 495/553/445 494/549/445 509/582/445 510/584/445
f 488/555/446 487/551/446 502/583/446 503/585/446
f 481/558/447 113/586/447 496/587/447
f 120/588/448 495/553/448 510/584/448
f 489/561/449 488/555/449 503/585/449 504/572/449
f 482/563/450 481/558/450 496/587/450 497/574/450
f 509/582/451 508/580/451 523/589/451 524/590/451
f 502/583/452 501/581/452 516/591/452 517/592/452
f 510/584/453 509/582/453 524/590/453 525/593/453
f 503/585/454 502/583/454 517/592/454 518/594/454
f 496/587/455 113/595/455 511/596/455
f 120/597/456 510/584/456 525/593/456
f 504/572/457 503/585/457 518/594/457 519/598/457
f 497/574/458 496/587/458 511/596/458 512/599/458
f 505/573/459 504/572/459 519/598/459 520/600/459
f 498/575/460 497/574/460 512/599/460 513/601/460
f 506/576/461 505/573/461 520/600/461 521/602/461
f 499/577/462 498/575/462 513/601/462 514/603/462
f 507/578/463 506/576/463 521/602/463 522/604/463
f 500/579/464 499/577/464 514/603/464 515/605/464
f 508/580/465 507/578/465 522/604/465 523/589/465
f 501/581/466 500/579/466 515/605/466 516/591/466
f 513/601/467 512/599/467 527/606/467 528/607/467
f 521/602/468 520/600/468 535/608/468 536/609/468
f 514/603/469 513/601/469 528/607/469 529/610/469
f 522/604/470 521/602/470 536/609/470 537/611/470
f 515/605/471 514/603/471 529/610/471 530/612/471
f 523/589/472 522/604/472 537/611/472 538/613/472
f 516/591/473 515/605/473 530/612/473 531/614/473
f 524/590/474 523/589/474 538/613/474 539/615/474
f 517/592/475 516/591/475 531/614/475 532/616/475
f 525/593/476 524/590/476 539/615/476 540/617/476
f 518/594/477 517/592/477 532/616/477 533/618/477
f 511/596/478 113/619/478 526/620/478
f 120/621/479 525/593/479 540/617/479
f 519/598/480 518/594/480 533/618/480 534/622/480
f 512/599/481 511/596/481 526/620/481 527/606/481
f 520/600/482 519/598/482 534/622/482 535/608/482
f 532/616/483 531/614/483 546/623/483 547/624/483
f 540/617/484 539/615/484 554/625/484 555/626/484
f 533/618/485 532/616/485 547/624/485 548/627/485
f 526/620/486 113/628/486 541/629/486
f 120/630/487 540/617/487 555/626/487
f 534/622/488 533/618/488 548/627/488 549/631/488
f 527/606/489 526/620/489 541/629/489 542/632/489
f 535/608/490 534/622/490 549/631/490 550/633/490
f 528/607/491 527/606/491 542/632/491 543/634/491
f 536/609/492 535/608/492 550/633/492 551/635/492
f 529/610/493 528/607/493 543/634/493 544/636/493
f 537/611/494 536/609/494 551/635/494 552/637/494
f 530/612/495 529/610/495 544/636/495 545/638/495
f 538/613/496 537/611/496 552/637/496 553/639/496
f 531/614/497 530/612/497 545/638/497 546/623/497
f 539/615/498 538/613/498 553/639/498 554/625/498
f 551/635/499 550/633/499 565/640/499 566/641/499
f 544/636/500 543/634/500 558/642/500 559/643/500
f 552/637/501 551/635/501 566/641/501 567/644/501
f 545/638/502 544/636/502 559/643/502 560/645/502
f 553/639/503 552/637/503 567/644/503 568/646/503
f 546/623/504 545/638/504 560/645/504 561/647/504
f 554/625/505 553/639/505 568/646/505 569/648/505
f 547/624/506 546/623/506 561/647/506 562/649/506
f 555/626/507 554/625/507 569/648/507 570/650/507
f 548/627/508 547/624/508 562/649/508 563/651/508
f 541/629/509 113/652/509 556/653/509
f 120/654/510 555/626/510 570/650/510
f 549/631/511 548/627/511 563/651/511 564/655/511
f 542/632/512 541/629/512 556/653/512 557/656/512
f 550/633/513 549/631/513 564/655/513 565/640/513
f 543/634/514 542/632/514 557/656/514 558/642/514
f 570/650/515 569/648/515 584/657/515 585/658/515
f 563/651/516 562/649/516 577/659/516 578/660/516
f 556/653/517 113/661/517 571/662/517
f 120/663/518 570/650/518 585/658/518
f 564/655/519 563/651/519 578/660/519 579/664/519
f 557/656/520 556/653/520 571/662/520 572/665/520
f 565/640/521 564/655/521 579/664/521 580/666/521
f 558/642/522 557/656/522 572/665/522 573/667/522
f 566/641/523 565/640/523 580/666/523 581/668/523
f 559/643/524 558/642/524 573/667/524 574/669/524
f 567/644/525 566/641/525 581/668/525 582/670/525
f 560/645/526 559/643/526 574/669/526 575/671/526
f 568/646/527 567/644/527 582/670/527 583/672/527
f 561/647/528 560/645/528 575/671/528 576/673/528
f 569/648/529 568/646/529 583/672/529 584/657/529
f 562/649/530 561/647/530 576/673/530 577/659/530
f 574/669/531 573/667/531 114/122/531 588/121/531
f 582/670/532 581/668/532 119/117/532 591/125/532
f 575/671/533 574/669/533 588/121/533 115/127/533
f 583/672/534 582/670/534 591/125/534 592/129/534
f 576/673/535 575/671/535 115/127/535 589/131/535
f 584/657/536 583/672/536 592/129/536 593/133/536
f 577/659/537 576/673/537 589/131/537 116/135/537
f 585/658/538 584/657/538 593/133/538 594/137/538
f 578/660/539 577/659/539 116/135/539 117/139/539
f 571/662/540 113/674/540 586/141/540
f 120/675/541 585/658/541 594/137/541
f 579/664/542 578/660/542 117/139/542 118/145/542
f 572/665/543 571/662/543 586/141/543 587/147/543
f 580/666/544 579/664/544 118/145/544 590/118/544
f 573/667/545 572/665/545 587/147/545 114/122/545
f 581/668/546 580/666/546 590/118/546 119/117/546
