# Blender 4.5.2 LTS
# www.blender.org
mtllib o płot.mtl
o Cylinder.003
v 35.378849 1.145505 -0.120000
v 35.378849 7.521105 -0.120000
v 35.463703 1.145505 -0.084853
v 35.463703 7.521105 -0.084853
v 35.498848 1.145505 0.000000
v 35.498848 7.521105 0.000000
v 35.463703 1.145505 0.084853
v 35.463703 7.521105 0.084853
v 35.378849 1.145505 0.120000
v 35.378849 7.521105 0.120000
v 35.293995 1.145505 0.084853
v 35.293995 7.521105 0.084853
v 35.258850 1.145505 0.000000
v 35.258850 7.521105 0.000000
v 35.293995 1.145505 -0.084853
v 35.293995 7.521105 -0.084853
v 42.496044 1.145505 0.233144
v 42.496044 7.521105 0.233144
v 42.408131 1.145505 0.259719
v 42.408131 7.521105 0.259719
v 42.364754 1.145505 0.340676
v 42.364754 7.521105 0.340676
v 42.391331 1.145505 0.428591
v 42.391331 7.521105 0.428591
v 42.472286 1.145505 0.471966
v 42.472286 7.521105 0.471966
v 42.560204 1.145505 0.445391
v 42.560204 7.521105 0.445391
v 42.603577 1.145505 0.364434
v 42.603577 7.521105 0.364434
v 42.577000 1.145505 0.276519
v 42.577000 7.521105 0.276519
vn 0.3827 -0.0000 -0.9239
vn 0.9239 -0.0000 -0.3827
vn 0.9239 -0.0000 0.3827
vn 0.3827 -0.0000 0.9239
vn -0.3827 -0.0000 0.9239
vn -0.9239 -0.0000 0.3827
vn -0.0000 1.0000 -0.0000
vn -0.9239 -0.0000 -0.3827
vn -0.3827 -0.0000 -0.9239
vn -0.0000 -1.0000 -0.0000
vn -0.2893 -0.0000 -0.9572
vn -0.8815 -0.0000 -0.4723
vn -0.9572 -0.0000 0.2893
vn -0.4723 -0.0000 0.8815
vn 0.2893 -0.0000 0.9572
vn 0.8815 -0.0000 0.4723
vn 0.9572 -0.0000 -0.2893
vn 0.4723 -0.0000 -0.8815
vt 1.000000 0.500000
vt 1.000000 1.000000
vt 0.875000 1.000000
vt 0.875000 0.500000
vt 0.750000 1.000000
vt 0.750000 0.500000
vt 0.625000 1.000000
vt 0.625000 0.500000
vt 0.500000 1.000000
vt 0.500000 0.500000
vt 0.375000 1.000000
vt 0.375000 0.500000
vt 0.250000 1.000000
vt 0.250000 0.500000
vt 0.419706 0.419706
vt 0.250000 0.490000
vt 0.080294 0.419706
vt 0.010000 0.250000
vt 0.080294 0.080294
vt 0.250000 0.010000
vt 0.419706 0.080294
vt 0.490000 0.250000
vt 0.125000 1.000000
vt 0.125000 0.500000
vt 0.000000 1.000000
vt 0.000000 0.500000
vt 0.750000 0.490000
vt 0.919706 0.419706
vt 0.990000 0.250000
vt 0.919706 0.080294
vt 0.750000 0.010000
vt 0.580294 0.080294
vt 0.510000 0.250000
vt 0.580294 0.419706
s 0
f 1/1/1 2/2/1 4/3/1 3/4/1
f 3/4/2 4/3/2 6/5/2 5/6/2
f 5/6/3 6/5/3 8/7/3 7/8/3
f 7/8/4 8/7/4 10/9/4 9/10/4
f 9/10/5 10/9/5 12/11/5 11/12/5
f 11/12/6 12/11/6 14/13/6 13/14/6
f 4/15/7 2/16/7 16/17/7 14/18/7 12/19/7 10/20/7 8/21/7 6/22/7
f 13/14/8 14/13/8 16/23/8 15/24/8
f 15/24/9 16/23/9 2/25/9 1/26/9
f 1/27/10 3/28/10 5/29/10 7/30/10 9/31/10 11/32/10 13/33/10 15/34/10
f 17/1/11 19/4/11 20/3/11 18/2/11
f 19/4/12 21/6/12 22/5/12 20/3/12
f 21/6/13 23/8/13 24/7/13 22/5/13
f 23/8/14 25/10/14 26/9/14 24/7/14
f 25/10/15 27/12/15 28/11/15 26/9/15
f 27/12/16 29/14/16 30/13/16 28/11/16
f 20/15/7 22/22/7 24/21/7 26/20/7 28/19/7 30/18/7 32/17/7 18/16/7
f 29/14/17 31/24/17 32/23/17 30/13/17
f 31/24/18 17/26/18 18/25/18 32/23/18
f 17/27/10 31/34/10 29/33/10 27/32/10 25/31/10 23/30/10 21/29/10 19/28/10
o Cylinder.004
v 35.760807 0.937068 -0.083025
v 35.760807 7.312667 -0.083025
v 35.819515 0.937068 -0.058708
v 35.819515 7.312667 -0.058708
v 35.843834 0.937068 0.000000
v 35.843834 7.312667 0.000000
v 35.819515 0.937068 0.058708
v 35.819515 7.312667 0.058708
v 35.760807 0.937068 0.083025
v 35.760807 7.312667 0.083025
v 35.702099 0.937068 0.058708
v 35.702099 7.312667 0.058708
v 35.677780 0.937068 0.000000
v 35.677780 7.312667 0.000000
v 35.702099 0.937068 -0.058708
v 35.702099 7.312667 -0.058708
v 36.258957 0.937068 -0.083025
v 36.258957 7.312667 -0.083025
v 36.317665 0.937068 -0.058708
v 36.317665 7.312667 -0.058708
v 36.341984 0.937068 0.000000
v 36.341984 7.312667 0.000000
v 36.317665 0.937068 0.058708
v 36.317665 7.312667 0.058708
v 36.258957 0.937068 0.083025
v 36.258957 7.312667 0.083025
v 36.200249 0.937068 0.058708
v 36.200249 7.312667 0.058708
v 36.175934 0.937068 0.000000
v 36.175934 7.312667 0.000000
v 36.200249 0.937068 -0.058708
v 36.200249 7.312667 -0.058708
v 36.757111 0.937068 -0.083025
v 36.757111 7.312667 -0.083025
v 36.815815 0.937068 -0.058708
v 36.815815 7.312667 -0.058708
v 36.840134 0.937068 0.000000
v 36.840134 7.312667 0.000000
v 36.815815 0.937068 0.058708
v 36.815815 7.312667 0.058708
v 36.757111 0.937068 0.083025
v 36.757111 7.312667 0.083025
v 36.698402 0.937068 0.058708
v 36.698402 7.312667 0.058708
v 36.674084 0.937068 0.000000
v 36.674084 7.312667 0.000000
v 36.698402 0.937068 -0.058708
v 36.698402 7.312667 -0.058708
v 37.255260 0.937068 -0.083025
v 37.255260 7.312667 -0.083025
v 37.313969 0.937068 -0.058708
v 37.313969 7.312667 -0.058708
v 37.338284 0.937068 0.000000
v 37.338284 7.312667 0.000000
v 37.313969 0.937068 0.058708
v 37.313969 7.312667 0.058708
v 37.255260 0.937068 0.083025
v 37.255260 7.312667 0.083025
v 37.196552 0.937068 0.058708
v 37.196552 7.312667 0.058708
v 37.172234 0.937068 0.000000
v 37.172234 7.312667 0.000000
v 37.196552 0.937068 -0.058708
v 37.196552 7.312667 -0.058708
v 37.753410 0.937068 -0.083025
v 37.753410 7.312667 -0.083025
v 37.812119 0.937068 -0.058708
v 37.812119 7.312667 -0.058708
v 37.836437 0.937068 0.000000
v 37.836437 7.312667 0.000000
v 37.812119 0.937068 0.058708
v 37.812119 7.312667 0.058708
v 37.753410 0.937068 0.083025
v 37.753410 7.312667 0.083025
v 37.694702 0.937068 0.058708
v 37.694702 7.312667 0.058708
v 37.670387 0.937068 0.000000
v 37.670387 7.312667 0.000000
v 37.694702 0.937068 -0.058708
v 37.694702 7.312667 -0.058708
v 38.251560 0.937068 -0.083025
v 38.251560 7.312667 -0.083025
v 38.310268 0.937068 -0.058708
v 38.310268 7.312667 -0.058708
v 38.334587 0.937068 0.000000
v 38.334587 7.312667 0.000000
v 38.310268 0.937068 0.058708
v 38.310268 7.312667 0.058708
v 38.251560 0.937068 0.083025
v 38.251560 7.312667 0.083025
v 38.192856 0.937068 0.058708
v 38.192856 7.312667 0.058708
v 38.168537 0.937068 0.000000
v 38.168537 7.312667 0.000000
v 38.192856 0.937068 -0.058708
v 38.192856 7.312667 -0.058708
v 38.749714 0.937068 -0.083025
v 38.749714 7.312667 -0.083025
v 38.808422 0.937068 -0.058708
v 38.808422 7.312667 -0.058708
v 38.832737 0.937068 0.000000
v 38.832737 7.312667 0.000000
v 38.808422 0.937068 0.058708
v 38.808422 7.312667 0.058708
v 38.749714 0.937068 0.083025
v 38.749714 7.312667 0.083025
v 38.691006 0.937068 0.058708
v 38.691006 7.312667 0.058708
v 38.666687 0.937068 0.000000
v 38.666687 7.312667 0.000000
v 38.691006 0.937068 -0.058708
v 38.691006 7.312667 -0.058708
v 39.247864 0.937068 -0.083025
v 39.247864 7.312667 -0.083025
v 39.306572 0.937068 -0.058708
v 39.306572 7.312667 -0.058708
v 39.330887 0.937068 0.000000
v 39.330887 7.312667 0.000000
v 39.306572 0.937068 0.058708
v 39.306572 7.312667 0.058708
v 39.247864 0.937068 0.083025
v 39.247864 7.312667 0.083025
v 39.189156 0.937068 0.058708
v 39.189156 7.312667 0.058708
v 39.164837 0.937068 0.000000
v 39.164837 7.312667 0.000000
v 39.189156 0.937068 -0.058708
v 39.189156 7.312667 -0.058708
v 39.746014 0.937068 -0.083025
v 39.746014 7.312667 -0.083025
v 39.804722 0.937068 -0.058708
v 39.804722 7.312667 -0.058708
v 39.829041 0.937068 0.000000
v 39.829041 7.312667 0.000000
v 39.804722 0.937068 0.058708
v 39.804722 7.312667 0.058708
v 39.746014 0.937068 0.083025
v 39.746014 7.312667 0.083025
v 39.687305 0.937068 0.058708
v 39.687305 7.312667 0.058708
v 39.662991 0.937068 0.000000
v 39.662991 7.312667 0.000000
v 39.687305 0.937068 -0.058708
v 39.687305 7.312667 -0.058708
v 40.244167 0.937068 -0.083025
v 40.244167 7.312667 -0.083025
v 40.302872 0.937068 -0.058708
v 40.302872 7.312667 -0.058708
v 40.327190 0.937068 0.000000
v 40.327190 7.312667 0.000000
v 40.302872 0.937068 0.058708
v 40.302872 7.312667 0.058708
v 40.244167 0.937068 0.083025
v 40.244167 7.312667 0.083025
v 40.185459 0.937068 0.058708
v 40.185459 7.312667 0.058708
v 40.161140 0.937068 0.000000
v 40.161140 7.312667 0.000000
v 40.185459 0.937068 -0.058708
v 40.185459 7.312667 -0.058708
v 40.742317 0.937068 -0.083025
v 40.742317 7.312667 -0.083025
v 40.801025 0.937068 -0.058708
v 40.801025 7.312667 -0.058708
v 40.825340 0.937068 0.000000
v 40.825340 7.312667 0.000000
v 40.801025 0.937068 0.058708
v 40.801025 7.312667 0.058708
v 40.742317 0.937068 0.083025
v 40.742317 7.312667 0.083025
v 40.683609 0.937068 0.058708
v 40.683609 7.312667 0.058708
v 40.659290 0.937068 0.000000
v 40.659290 7.312667 0.000000
v 40.683609 0.937068 -0.058708
v 40.683609 7.312667 -0.058708
v 41.240467 0.937068 -0.083025
v 41.240467 7.312667 -0.083025
v 41.299175 0.937068 -0.058708
v 41.299175 7.312667 -0.058708
v 41.323494 0.937068 0.000000
v 41.323494 7.312667 0.000000
v 41.299175 0.937068 0.058708
v 41.299175 7.312667 0.058708
v 41.240467 0.937068 0.083025
v 41.240467 7.312667 0.083025
v 41.181759 0.937068 0.058708
v 41.181759 7.312667 0.058708
v 41.157444 0.937068 0.000000
v 41.157444 7.312667 0.000000
v 41.181759 0.937068 -0.058708
v 41.181759 7.312667 -0.058708
v 41.738621 0.937068 -0.083025
v 41.738621 7.312667 -0.083025
v 41.797325 0.937068 -0.058708
v 41.797325 7.312667 -0.058708
v 41.821644 0.937068 0.000000
v 41.821644 7.312667 0.000000
v 41.797325 0.937068 0.058708
v 41.797325 7.312667 0.058708
v 41.738621 0.937068 0.083025
v 41.738621 7.312667 0.083025
v 41.679913 0.937068 0.058708
v 41.679913 7.312667 0.058708
v 41.655594 0.937068 0.000000
v 41.655594 7.312667 0.000000
v 41.679913 0.937068 -0.058708
v 41.679913 7.312667 -0.058708
v 42.236771 0.937068 -0.083025
v 42.236771 7.312667 -0.083025
v 42.295479 0.937068 -0.058708
v 42.295479 7.312667 -0.058708
v 42.319794 0.937068 0.000000
v 42.319794 7.312667 0.000000
v 42.295479 0.937068 0.058708
v 42.295479 7.312667 0.058708
v 42.236771 0.937068 0.083025
v 42.236771 7.312667 0.083025
v 42.178062 0.937068 0.058708
v 42.178062 7.312667 0.058708
v 42.153744 0.937068 0.000000
v 42.153744 7.312667 0.000000
v 42.178062 0.937068 -0.058708
v 42.178062 7.312667 -0.058708
vn 0.3827 -0.0000 -0.9239
vn 0.9239 -0.0000 -0.3827
vn 0.9239 -0.0000 0.3827
vn 0.3827 -0.0000 0.9239
vn -0.3827 -0.0000 0.9239
vn -0.9239 -0.0000 0.3827
vn -0.0000 1.0000 -0.0000
vn -0.9239 -0.0000 -0.3827
vn -0.3827 -0.0000 -0.9239
vn -0.0000 -1.0000 -0.0000
vt 1.000000 0.500000
vt 1.000000 1.000000
vt 0.875000 1.000000
vt 0.875000 0.500000
vt 0.750000 1.000000
vt 0.750000 0.500000
vt 0.625000 1.000000
vt 0.625000 0.500000
vt 0.500000 1.000000
vt 0.500000 0.500000
vt 0.375000 1.000000
vt 0.375000 0.500000
vt 0.250000 1.000000
vt 0.250000 0.500000
vt 0.419706 0.419706
vt 0.250000 0.490000
vt 0.080294 0.419706
vt 0.010000 0.250000
vt 0.080294 0.080294
vt 0.250000 0.010000
vt 0.419706 0.080294
vt 0.490000 0.250000
vt 0.125000 1.000000
vt 0.125000 0.500000
vt 0.000000 1.000000
vt 0.000000 0.500000
vt 0.750000 0.490000
vt 0.919706 0.419706
vt 0.990000 0.250000
vt 0.919706 0.080294
vt 0.750000 0.010000
vt 0.580294 0.080294
vt 0.510000 0.250000
vt 0.580294 0.419706
s 0
f 33/35/19 34/36/19 36/37/19 35/38/19
f 35/38/20 36/37/20 38/39/20 37/40/20
f 37/40/21 38/39/21 40/41/21 39/42/21
f 39/42/22 40/41/22 42/43/22 41/44/22
f 41/44/23 42/43/23 44/45/23 43/46/23
f 43/46/24 44/45/24 46/47/24 45/48/24
f 36/49/25 34/50/25 48/51/25 46/52/25 44/53/25 42/54/25 40/55/25 38/56/25
f 45/48/26 46/47/26 48/57/26 47/58/26
f 47/58/27 48/57/27 34/59/27 33/60/27
f 33/61/28 35/62/28 37/63/28 39/64/28 41/65/28 43/66/28 45/67/28 47/68/28
f 49/35/19 50/36/19 52/37/19 51/38/19
f 51/38/20 52/37/20 54/39/20 53/40/20
f 53/40/21 54/39/21 56/41/21 55/42/21
f 55/42/22 56/41/22 58/43/22 57/44/22
f 57/44/23 58/43/23 60/45/23 59/46/23
f 59/46/24 60/45/24 62/47/24 61/48/24
f 52/49/25 50/50/25 64/51/25 62/52/25 60/53/25 58/54/25 56/55/25 54/56/25
f 61/48/26 62/47/26 64/57/26 63/58/26
f 63/58/27 64/57/27 50/59/27 49/60/27
f 49/61/28 51/62/28 53/63/28 55/64/28 57/65/28 59/66/28 61/67/28 63/68/28
f 65/35/19 66/36/19 68/37/19 67/38/19
f 67/38/20 68/37/20 70/39/20 69/40/20
f 69/40/21 70/39/21 72/41/21 71/42/21
f 71/42/22 72/41/22 74/43/22 73/44/22
f 73/44/23 74/43/23 76/45/23 75/46/23
f 75/46/24 76/45/24 78/47/24 77/48/24
f 68/49/25 66/50/25 80/51/25 78/52/25 76/53/25 74/54/25 72/55/25 70/56/25
f 77/48/26 78/47/26 80/57/26 79/58/26
f 79/58/27 80/57/27 66/59/27 65/60/27
f 65/61/28 67/62/28 69/63/28 71/64/28 73/65/28 75/66/28 77/67/28 79/68/28
f 81/35/19 82/36/19 84/37/19 83/38/19
f 83/38/20 84/37/20 86/39/20 85/40/20
f 85/40/21 86/39/21 88/41/21 87/42/21
f 87/42/22 88/41/22 90/43/22 89/44/22
f 89/44/23 90/43/23 92/45/23 91/46/23
f 91/46/24 92/45/24 94/47/24 93/48/24
f 84/49/25 82/50/25 96/51/25 94/52/25 92/53/25 90/54/25 88/55/25 86/56/25
f 93/48/26 94/47/26 96/57/26 95/58/26
f 95/58/27 96/57/27 82/59/27 81/60/27
f 81/61/28 83/62/28 85/63/28 87/64/28 89/65/28 91/66/28 93/67/28 95/68/28
f 97/35/19 98/36/19 100/37/19 99/38/19
f 99/38/20 100/37/20 102/39/20 101/40/20
f 101/40/21 102/39/21 104/41/21 103/42/21
f 103/42/22 104/41/22 106/43/22 105/44/22
f 105/44/23 106/43/23 108/45/23 107/46/23
f 107/46/24 108/45/24 110/47/24 109/48/24
f 100/49/25 98/50/25 112/51/25 110/52/25 108/53/25 106/54/25 104/55/25 102/56/25
f 109/48/26 110/47/26 112/57/26 111/58/26
f 111/58/27 112/57/27 98/59/27 97/60/27
f 97/61/28 99/62/28 101/63/28 103/64/28 105/65/28 107/66/28 109/67/28 111/68/28
f 113/35/19 114/36/19 116/37/19 115/38/19
f 115/38/20 116/37/20 118/39/20 117/40/20
f 117/40/21 118/39/21 120/41/21 119/42/21
f 119/42/22 120/41/22 122/43/22 121/44/22
f 121/44/23 122/43/23 124/45/23 123/46/23
f 123/46/24 124/45/24 126/47/24 125/48/24
f 116/49/25 114/50/25 128/51/25 126/52/25 124/53/25 122/54/25 120/55/25 118/56/25
f 125/48/26 126/47/26 128/57/26 127/58/26
f 127/58/27 128/57/27 114/59/27 113/60/27
f 113/61/28 115/62/28 117/63/28 119/64/28 121/65/28 123/66/28 125/67/28 127/68/28
f 129/35/19 130/36/19 132/37/19 131/38/19
f 131/38/20 132/37/20 134/39/20 133/40/20
f 133/40/21 134/39/21 136/41/21 135/42/21
f 135/42/22 136/41/22 138/43/22 137/44/22
f 137/44/23 138/43/23 140/45/23 139/46/23
f 139/46/24 140/45/24 142/47/24 141/48/24
f 132/49/25 130/50/25 144/51/25 142/52/25 140/53/25 138/54/25 136/55/25 134/56/25
f 141/48/26 142/47/26 144/57/26 143/58/26
f 143/58/27 144/57/27 130/59/27 129/60/27
f 129/61/28 131/62/28 133/63/28 135/64/28 137/65/28 139/66/28 141/67/28 143/68/28
f 145/35/19 146/36/19 148/37/19 147/38/19
f 147/38/20 148/37/20 150/39/20 149/40/20
f 149/40/21 150/39/21 152/41/21 151/42/21
f 151/42/22 152/41/22 154/43/22 153/44/22
f 153/44/23 154/43/23 156/45/23 155/46/23
f 155/46/24 156/45/24 158/47/24 157/48/24
f 148/49/25 146/50/25 160/51/25 158/52/25 156/53/25 154/54/25 152/55/25 150/56/25
f 157/48/26 158/47/26 160/57/26 159/58/26
f 159/58/27 160/57/27 146/59/27 145/60/27
f 145/61/28 147/62/28 149/63/28 151/64/28 153/65/28 155/66/28 157/67/28 159/68/28
f 161/35/19 162/36/19 164/37/19 163/38/19
f 163/38/20 164/37/20 166/39/20 165/40/20
f 165/40/21 166/39/21 168/41/21 167/42/21
f 167/42/22 168/41/22 170/43/22 169/44/22
f 169/44/23 170/43/23 172/45/23 171/46/23
f 171/46/24 172/45/24 174/47/24 173/48/24
f 164/49/25 162/50/25 176/51/25 174/52/25 172/53/25 170/54/25 168/55/25 166/56/25
f 173/48/26 174/47/26 176/57/26 175/58/26
f 175/58/27 176/57/27 162/59/27 161/60/27
f 161/61/28 163/62/28 165/63/28 167/64/28 169/65/28 171/66/28 173/67/28 175/68/28
f 177/35/19 178/36/19 180/37/19 179/38/19
f 179/38/20 180/37/20 182/39/20 181/40/20
f 181/40/21 182/39/21 184/41/21 183/42/21
f 183/42/22 184/41/22 186/43/22 185/44/22
f 185/44/23 186/43/23 188/45/23 187/46/23
f 187/46/24 188/45/24 190/47/24 189/48/24
f 180/49/25 178/50/25 192/51/25 190/52/25 188/53/25 186/54/25 184/55/25 182/56/25
f 189/48/26 190/47/26 192/57/26 191/58/26
f 191/58/27 192/57/27 178/59/27 177/60/27
f 177/61/28 179/62/28 181/63/28 183/64/28 185/65/28 187/66/28 189/67/28 191/68/28
f 193/35/19 194/36/19 196/37/19 195/38/19
f 195/38/20 196/37/20 198/39/20 197/40/20
f 197/40/21 198/39/21 200/41/21 199/42/21
f 199/42/22 200/41/22 202/43/22 201/44/22
f 201/44/23 202/43/23 204/45/23 203/46/23
f 203/46/24 204/45/24 206/47/24 205/48/24
f 196/49/25 194/50/25 208/51/25 206/52/25 204/53/25 202/54/25 200/55/25 198/56/25
f 205/48/26 206/47/26 208/57/26 207/58/26
f 207/58/27 208/57/27 194/59/27 193/60/27
f 193/61/28 195/62/28 197/63/28 199/64/28 201/65/28 203/66/28 205/67/28 207/68/28
f 209/35/19 210/36/19 212/37/19 211/38/19
f 211/38/20 212/37/20 214/39/20 213/40/20
f 213/40/21 214/39/21 216/41/21 215/42/21
f 215/42/22 216/41/22 218/43/22 217/44/22
f 217/44/23 218/43/23 220/45/23 219/46/23
f 219/46/24 220/45/24 222/47/24 221/48/24
f 212/49/25 210/50/25 224/51/25 222/52/25 220/53/25 218/54/25 216/55/25 214/56/25
f 221/48/26 222/47/26 224/57/26 223/58/26
f 223/58/27 224/57/27 210/59/27 209/60/27
f 209/61/28 211/62/28 213/63/28 215/64/28 217/65/28 219/66/28 221/67/28 223/68/28
f 225/35/19 226/36/19 228/37/19 227/38/19
f 227/38/20 228/37/20 230/39/20 229/40/20
f 229/40/21 230/39/21 232/41/21 231/42/21
f 231/42/22 232/41/22 234/43/22 233/44/22
f 233/44/23 234/43/23 236/45/23 235/46/23
f 235/46/24 236/45/24 238/47/24 237/48/24
f 228/49/25 226/50/25 240/51/25 238/52/25 236/53/25 234/54/25 232/55/25 230/56/25
f 237/48/26 238/47/26 240/57/26 239/58/26
f 239/58/27 240/57/27 226/59/27 225/60/27
f 225/61/28 227/62/28 229/63/28 231/64/28 233/65/28 235/66/28 237/67/28 239/68/28
f 241/35/19 242/36/19 244/37/19 243/38/19
f 243/38/20 244/37/20 246/39/20 245/40/20
f 245/40/21 246/39/21 248/41/21 247/42/21
f 247/42/22 248/41/22 250/43/22 249/44/22
f 249/44/23 250/43/23 252/45/23 251/46/23
f 251/46/24 252/45/24 254/47/24 253/48/24
f 244/49/25 242/50/25 256/51/25 254/52/25 252/53/25 250/54/25 248/55/25 246/56/25
f 253/48/26 254/47/26 256/57/26 255/58/26
f 255/58/27 256/57/27 242/59/27 241/60/27
f 241/61/28 243/62/28 245/63/28 247/64/28 249/65/28 251/66/28 253/67/28 255/68/28
o Cylinder.005
v 35.344627 6.867634 -0.049815
v 42.655373 6.867635 -0.049815
v 35.344627 6.808927 -0.035225
v 42.655373 6.808928 -0.035225
v 35.344627 6.784609 0.000000
v 42.655373 6.784610 0.000000
v 35.344627 6.808927 0.035225
v 42.655373 6.808928 0.035225
v 35.344627 6.867634 0.049815
v 42.655373 6.867635 0.049815
v 35.344627 6.926342 0.035225
v 42.655373 6.926342 0.035225
v 35.344627 6.950660 0.000000
v 42.655373 6.950660 0.000000
v 35.344627 6.926342 -0.035225
v 42.655373 6.926342 -0.035225
v 35.344627 6.369483 -0.049815
v 42.655373 6.369484 -0.049815
v 35.344627 6.310776 -0.035225
v 42.655373 6.310777 -0.035225
v 35.344627 6.286458 0.000000
v 42.655373 6.286459 0.000000
v 35.344627 6.310776 0.035225
v 42.655373 6.310777 0.035225
v 35.344627 6.369483 0.049815
v 42.655373 6.369484 0.049815
v 35.344627 6.428191 0.035225
v 42.655373 6.428192 0.035225
v 35.344627 6.452509 0.000000
v 42.655373 6.452509 0.000000
v 35.344627 6.428191 -0.035225
v 42.655373 6.428192 -0.035225
vn -0.0000 -0.2412 -0.9705
vn -0.0000 -0.8229 -0.5681
vn -0.0000 -0.8229 0.5681
vn -0.0000 -0.2412 0.9705
vn -0.0000 0.2412 0.9705
vn -0.0000 0.8229 0.5681
vn 1.0000 -0.0000 -0.0000
vn -0.0000 0.8229 -0.5681
vn -0.0000 0.2412 -0.9705
vn -1.0000 -0.0000 -0.0000
vt 1.000000 0.500000
vt 1.000000 1.000000
vt 0.875000 1.000000
vt 0.875000 0.500000
vt 0.750000 1.000000
vt 0.750000 0.500000
vt 0.625000 1.000000
vt 0.625000 0.500000
vt 0.500000 1.000000
vt 0.500000 0.500000
vt 0.375000 1.000000
vt 0.375000 0.500000
vt 0.250000 1.000000
vt 0.250000 0.500000
vt 0.419706 0.419706
vt 0.250000 0.490000
vt 0.080294 0.419706
vt 0.010000 0.250000
vt 0.080294 0.080294
vt 0.250000 0.010000
vt 0.419706 0.080294
vt 0.490000 0.250000
vt 0.125000 1.000000
vt 0.125000 0.500000
vt 0.000000 1.000000
vt 0.000000 0.500000
vt 0.750000 0.490000
vt 0.919706 0.419706
vt 0.990000 0.250000
vt 0.919706 0.080294
vt 0.750000 0.010000
vt 0.580294 0.080294
vt 0.510000 0.250000
vt 0.580294 0.419706
s 0
f 257/69/29 258/70/29 260/71/29 259/72/29
f 259/72/30 260/71/30 262/73/30 261/74/30
f 261/74/31 262/73/31 264/75/31 263/76/31
f 263/76/32 264/75/32 266/77/32 265/78/32
f 265/78/33 266/77/33 268/79/33 267/80/33
f 267/80/34 268/79/34 270/81/34 269/82/34
f 260/83/35 258/84/35 272/85/35 270/86/35 268/87/35 266/88/35 264/89/35 262/90/35
f 269/82/36 270/81/36 272/91/36 271/92/36
f 271/92/37 272/91/37 258/93/37 257/94/37
f 257/95/38 259/96/38 261/97/38 263/98/38 265/99/38 267/100/38 269/101/38 271/102/38
f 273/69/29 274/70/29 276/71/29 275/72/29
f 275/72/30 276/71/30 278/73/30 277/74/30
f 277/74/31 278/73/31 280/75/31 279/76/31
f 279/76/32 280/75/32 282/77/32 281/78/32
f 281/78/33 282/77/33 284/79/33 283/80/33
f 283/80/34 284/79/34 286/81/34 285/82/34
f 276/83/35 274/84/35 288/85/35 286/86/35 284/87/35 282/88/35 280/89/35 278/90/35
f 285/82/36 286/81/36 288/91/36 287/92/36
f 287/92/37 288/91/37 274/93/37 273/94/37
f 273/95/38 275/96/38 277/97/38 279/98/38 281/99/38 283/100/38 285/101/38 287/102/38
o Cube.005
v 34.950001 0.000000 0.900000
v 34.950001 2.000000 0.900000
v 34.950001 0.000000 -0.900000
v 34.950001 2.000000 -0.900000
v 43.049999 0.000000 0.900000
v 43.049999 2.000000 0.900000
v 43.049999 0.000000 -0.900000
v 43.049999 2.000000 -0.900000
v 34.950001 1.000000 0.900000
v 34.950001 1.000000 -0.900000
v 43.049999 1.000000 -0.900000
v 43.049999 1.000000 0.900000
v 34.950001 1.150000 0.900000
v 34.950001 1.850000 0.900000
v 34.950001 1.850000 -0.900000
v 34.950001 1.150000 -0.900000
v 43.049999 1.850000 -0.900000
v 43.049999 1.150000 -0.900000
v 43.049999 1.850000 0.900000
v 43.049999 1.150000 0.900000
v 34.950001 1.850000 1.080000
v 34.950001 2.000000 1.080000
v 34.950001 1.000000 -1.080000
v 34.950001 0.000000 -1.080000
v 43.049999 0.000000 -1.080000
v 34.950001 2.000000 -1.080000
v 43.049999 2.000000 -1.080000
v 43.049999 1.000000 -1.080000
v 43.049999 1.000000 1.080000
v 43.049999 0.000000 1.080000
v 34.950001 0.000000 1.080000
v 43.049999 2.000000 1.080000
v 34.950001 1.000000 1.080000
v 34.950001 1.850000 -1.080000
v 43.049999 1.850000 -1.080000
v 43.049999 1.850000 1.080000
vn -1.0000 -0.0000 -0.0000
vn -0.0000 -1.0000 -0.0000
vn 1.0000 -0.0000 -0.0000
vn -0.0000 1.0000 -0.0000
vn -0.0000 -0.0000 1.0000
vn -0.0000 -0.0000 -1.0000
vt 0.583333 0.000000
vt 0.625000 0.000000
vt 0.625000 0.250000
vt 0.583333 0.250000
vt 0.583333 1.000000
vt 0.583333 0.750000
vt 0.583333 0.500000
vt 0.625000 0.500000
vt 0.625000 0.750000
vt 0.500000 0.500000
vt 0.375000 0.500000
vt 0.125000 0.500000
vt 0.375000 0.750000
vt 0.125000 0.750000
vt 0.875000 0.500000
vt 0.875000 0.750000
vt 0.500000 0.750000
vt 0.500000 0.000000
vt 0.375000 0.000000
vt 0.500000 0.250000
vt 0.375000 0.250000
vt 0.541667 0.750000
vt 0.541667 1.000000
vt 0.500000 1.000000
vt 0.541667 0.500000
vt 0.541667 0.250000
vt 0.541667 0.000000
vt 0.625000 1.000000
vt 0.375000 1.000000
s 0
f 302/103/39 290/104/39 292/105/39 303/106/39
f 302/107/40 307/108/40 324/108/40 309/107/40
f 305/109/41 296/110/41 294/111/41 307/108/41
f 299/112/41 295/113/41 313/113/41 316/112/41
f 291/114/40 295/113/40 293/115/40 289/116/40
f 296/110/42 292/117/42 290/118/42 294/111/42
f 292/117/42 296/110/42 315/110/42 314/117/42
f 295/113/41 299/112/41 300/119/41 293/115/41
f 297/120/39 289/121/39 319/121/39 321/120/39
f 289/121/39 297/120/39 298/122/39 291/123/39
f 300/119/43 308/124/43 301/125/43 297/126/43
f 308/124/43 307/108/43 302/107/43 301/125/43
f 299/112/41 306/127/41 308/124/41 300/119/41
f 306/127/41 305/109/41 307/108/41 308/124/41
f 298/122/44 304/128/44 306/127/44 299/112/44
f 304/128/44 303/106/44 305/109/44 306/127/44
f 297/120/39 301/129/39 304/128/39 298/122/39
f 301/129/39 302/103/39 303/106/39 304/128/39
f 322/106/44 314/105/44 315/110/44 323/109/44
f 324/108/43 320/111/43 310/130/43 309/107/43
f 318/115/43 317/119/43 321/126/43 319/131/43
f 312/123/44 311/122/44 316/112/44 313/113/44
f 303/106/39 292/105/39 314/105/39 322/106/39
f 290/104/39 302/103/39 309/103/39 310/104/39
f 300/119/42 297/126/42 321/126/42 317/119/42
f 293/115/41 300/119/41 317/119/41 318/115/41
f 296/110/41 305/109/41 323/109/41 315/110/41
f 289/116/40 293/115/40 318/115/40 319/116/40
f 291/123/39 298/122/39 311/122/39 312/123/39
f 298/122/42 299/112/42 316/112/42 311/122/42
f 305/109/40 303/106/40 322/106/40 323/109/40
f 294/111/42 290/118/42 310/118/42 320/111/42
f 307/108/41 294/111/41 320/111/41 324/108/41
f 295/113/40 291/114/40 312/114/40 313/113/40
