# Blender 4.5.2 LTS
# www.blender.org
mtllib o słup.mtl
o Cube.003
v 28.799999 0.000000 1.200000
v 29.124643 2.000000 0.875358
v 28.799999 0.000000 -1.200000
v 29.124643 2.000000 -0.875358
v 31.200001 0.000000 1.200000
v 30.875357 2.000000 0.875358
v 31.200001 0.000000 -1.200000
v 30.875357 2.000000 -0.875358
v 28.799999 2.000000 1.200000
v 28.799999 2.000000 -1.200000
v 31.200001 2.000000 -1.200000
v 31.200001 2.000000 1.200000
v 28.630255 9.112720 1.369745
v 28.630255 9.112720 -1.369745
v 31.369745 9.112720 -1.369745
v 31.369745 9.112720 1.369745
v 28.630255 9.444774 1.369745
v 28.630255 9.444774 -1.369745
v 31.369745 9.444774 -1.369745
v 31.369745 9.444774 1.369745
v 29.124643 9.000000 0.875358
v 29.124643 9.000000 -0.875358
v 30.875357 9.000000 -0.875358
v 30.875357 9.000000 0.875358
v 29.761766 9.557494 0.238234
v 29.761766 9.557494 -0.238234
v 30.238234 9.557494 -0.238234
v 30.238234 9.557494 0.238234
v 29.124643 9.557494 0.875358
v 29.124643 9.557494 -0.875358
v 30.875357 9.557494 -0.875358
v 30.875357 9.557494 0.875358
v 29.761766 9.871696 0.238234
v 29.761766 9.871696 -0.238234
v 30.238234 9.871696 -0.238234
v 30.238234 9.871696 0.238234
vn -1.0000 -0.0000 -0.0000
vn -0.0000 -0.0000 -1.0000
vn 1.0000 -0.0000 -0.0000
vn -0.0000 -0.0000 1.0000
vn -0.0000 -1.0000 -0.0000
vn -0.0000 1.0000 -0.0000
vn -0.2223 -0.9750 -0.0000
vn -0.0000 -0.9750 -0.2223
vn 0.2223 -0.9750 -0.0000
vn -0.0000 -0.9750 0.2223
vn -0.2223 0.9750 -0.0000
vn -0.0000 0.9750 -0.2223
vn 0.2223 0.9750 -0.0000
vn -0.0000 0.9750 0.2223
vt 0.375000 0.000000
vt 0.625000 0.000000
vt 0.625000 0.250000
vt 0.375000 0.250000
vt 0.625000 0.500000
vt 0.375000 0.500000
vt 0.625000 0.750000
vt 0.375000 0.750000
vt 0.625000 1.000000
vt 0.375000 1.000000
vt 0.125000 0.500000
vt 0.125000 0.750000
vt 0.841183 0.533817
vt 0.841183 0.716183
vt 0.875000 0.500000
vt 0.875000 0.750000
vt 0.658817 0.533817
vt 0.658817 0.716183
vt 0.791360 0.666360
vt 0.708640 0.666360
vt 0.841183 0.533817
vt 0.791360 0.583640
vt 0.708640 0.583640
s 0
f 1/1/1 9/2/1 10/3/1 3/4/1
f 3/4/2 10/3/2 11/5/2 7/6/2
f 7/6/3 11/5/3 12/7/3 5/8/3
f 5/8/4 12/7/4 9/9/4 1/10/4
f 3/11/5 7/6/5 5/8/5 1/12/5
f 4/13/1 2/14/1 21/14/1 22/13/1
f 2/14/6 4/13/6 10/15/6 9/16/6
f 4/13/6 8/17/6 11/5/6 10/15/6
f 8/17/6 6/18/6 12/7/6 11/5/6
f 6/18/6 2/14/6 9/16/6 12/7/6
f 13/14/4 16/18/4 20/18/4 17/14/4
f 2/14/4 6/18/4 24/18/4 21/14/4
f 8/17/2 4/13/2 22/13/2 23/17/2
f 6/18/3 8/17/3 23/17/3 24/18/3
f 25/19/4 28/20/4 36/20/4 33/19/4
f 15/17/2 14/21/2 18/13/2 19/17/2
f 16/18/3 15/17/3 19/17/3 20/18/3
f 14/21/1 13/14/1 17/14/1 18/13/1
f 13/14/7 14/21/7 22/13/7 21/14/7
f 14/21/8 15/17/8 23/17/8 22/13/8
f 15/17/9 16/18/9 24/18/9 23/17/9
f 16/18/10 13/14/10 21/14/10 24/18/10
f 18/13/11 17/14/11 29/14/11 30/13/11
f 19/17/12 18/13/12 30/13/12 31/17/12
f 20/18/13 19/17/13 31/17/13 32/18/13
f 17/14/14 20/18/14 32/18/14 29/14/14
f 25/19/6 26/22/6 30/13/6 29/14/6
f 26/22/6 27/23/6 31/17/6 30/13/6
f 27/23/6 28/20/6 32/18/6 31/17/6
f 28/20/6 25/19/6 29/14/6 32/18/6
f 35/23/6 34/22/6 33/19/6 36/20/6
f 27/23/2 26/22/2 34/22/2 35/23/2
f 28/20/3 27/23/3 35/23/3 36/20/3
f 26/22/1 25/19/1 33/19/1 34/22/1
o Sphere.001
v 30.000000 10.895350 0.000000
v 30.000000 10.799197 -0.316970
v 30.000000 10.641788 -0.474380
v 30.000000 10.436123 -0.559569
v 30.000000 10.324818 -0.570532
v 30.000000 10.213512 -0.559569
v 30.000000 10.007847 -0.474380
v 30.000000 9.754286 0.000000
v 30.021715 10.884387 -0.109166
v 30.042595 10.851920 -0.214138
v 30.061838 10.799197 -0.310880
v 30.078705 10.728245 -0.395675
v 30.092546 10.641788 -0.465265
v 30.102833 10.543151 -0.516974
v 30.109167 10.436123 -0.548817
v 30.111305 10.324818 -0.559569
v 30.109167 10.213512 -0.548817
v 30.102833 10.106484 -0.516974
v 30.092546 10.007847 -0.465265
v 30.078705 9.921391 -0.395675
v 30.061838 9.850438 -0.310880
v 30.042595 9.797715 -0.214138
v 30.021715 9.765248 -0.109166
v 30.042595 10.884387 -0.102833
v 30.083553 10.851920 -0.201713
v 30.121300 10.799197 -0.292842
v 30.154385 10.728245 -0.372718
v 30.181538 10.641788 -0.438270
v 30.201714 10.543151 -0.486979
v 30.214138 10.436123 -0.516974
v 30.218332 10.324818 -0.527102
v 30.214138 10.213512 -0.516974
v 30.201714 10.106484 -0.486979
v 30.181538 10.007847 -0.438270
v 30.154385 9.921391 -0.372718
v 30.121300 9.850438 -0.292842
v 30.083553 9.797715 -0.201713
v 30.042595 9.765248 -0.102833
v 30.061838 10.884387 -0.092547
v 30.121300 10.851920 -0.181537
v 30.176100 10.799197 -0.263551
v 30.224133 10.728245 -0.335437
v 30.263552 10.641788 -0.394432
v 30.292843 10.543151 -0.438270
v 30.310881 10.436123 -0.465265
v 30.316971 10.324818 -0.474380
v 30.310881 10.213512 -0.465265
v 30.292843 10.106484 -0.438270
v 30.263552 10.007847 -0.394432
v 30.224133 9.921391 -0.335437
v 30.176100 9.850438 -0.263551
v 30.121300 9.797715 -0.181537
v 30.061838 9.765248 -0.092547
v 30.078705 10.884387 -0.078705
v 30.154385 10.851920 -0.154385
v 30.224133 10.799197 -0.224132
v 30.285265 10.728245 -0.285266
v 30.335438 10.641788 -0.335437
v 30.372717 10.543151 -0.372718
v 30.395676 10.436123 -0.395675
v 30.403427 10.324818 -0.403427
v 30.395676 10.213512 -0.395675
v 30.372717 10.106484 -0.372718
v 30.335438 10.007847 -0.335437
v 30.285265 9.921391 -0.285266
v 30.224133 9.850438 -0.224132
v 30.154385 9.797715 -0.154385
v 30.078705 9.765248 -0.078705
v 30.092546 10.884387 -0.061838
v 30.181538 10.851920 -0.121299
v 30.263552 10.799197 -0.176099
v 30.335438 10.728245 -0.224132
v 30.394432 10.641788 -0.263551
v 30.438271 10.543151 -0.292842
v 30.465265 10.436123 -0.310880
v 30.474380 10.324818 -0.316970
v 30.465265 10.213512 -0.310880
v 30.438271 10.106484 -0.292842
v 30.394432 10.007847 -0.263551
v 30.335438 9.921391 -0.224132
v 30.263552 9.850438 -0.176099
v 30.181538 9.797715 -0.121299
v 30.092546 9.765248 -0.061838
v 30.102833 10.884387 -0.042595
v 30.201714 10.851920 -0.083552
v 30.292843 10.799197 -0.121299
v 30.372717 10.728245 -0.154385
v 30.438271 10.641788 -0.181537
v 30.486979 10.543151 -0.201713
v 30.516973 10.436123 -0.214138
v 30.527102 10.324818 -0.218333
v 30.516973 10.213512 -0.214138
v 30.486979 10.106484 -0.201713
v 30.438271 10.007847 -0.181537
v 30.372717 9.921391 -0.154385
v 30.292843 9.850438 -0.121299
v 30.201714 9.797715 -0.083552
v 30.102833 9.765248 -0.042595
v 30.109167 10.884387 -0.021715
v 30.214138 10.851920 -0.042595
v 30.310881 10.799197 -0.061838
v 30.395676 10.728245 -0.078705
v 30.465265 10.641788 -0.092547
v 30.516973 10.543151 -0.102833
v 30.548817 10.436123 -0.109166
v 30.559568 10.324818 -0.111305
v 30.548817 10.213512 -0.109166
v 30.516973 10.106484 -0.102833
v 30.465265 10.007847 -0.092547
v 30.395676 9.921391 -0.078705
v 30.310881 9.850438 -0.061838
v 30.214138 9.797715 -0.042595
v 30.109167 9.765248 -0.021715
v 30.111305 10.884387 0.000000
v 30.218332 10.851920 0.000000
v 30.316971 10.799197 0.000000
v 30.403427 10.728245 -0.000000
v 30.474380 10.641788 0.000000
v 30.527102 10.543151 -0.000000
v 30.559568 10.436123 0.000000
v 30.570532 10.324818 0.000000
v 30.559568 10.213512 0.000000
v 30.527102 10.106484 -0.000000
v 30.474380 10.007847 0.000000
v 30.403427 9.921391 -0.000000
v 30.316971 9.850438 0.000000
v 30.218332 9.797715 0.000000
v 30.111305 9.765248 0.000000
v 30.109167 10.884387 0.021715
v 30.214138 10.851920 0.042595
v 30.310881 10.799197 0.061838
v 30.395676 10.728245 0.078705
v 30.465265 10.641788 0.092547
v 30.516973 10.543151 0.102833
v 30.548817 10.436123 0.109167
v 30.559568 10.324818 0.111305
v 30.548817 10.213512 0.109167
v 30.516973 10.106484 0.102833
v 30.465265 10.007847 0.092547
v 30.395676 9.921391 0.078705
v 30.310881 9.850438 0.061838
v 30.214138 9.797715 0.042595
v 30.109167 9.765248 0.021715
v 30.102833 10.884387 0.042595
v 30.201714 10.851920 0.083552
v 30.292843 10.799197 0.121299
v 30.372717 10.728245 0.154385
v 30.438269 10.641788 0.181537
v 30.486979 10.543151 0.201713
v 30.516973 10.436123 0.214138
v 30.527102 10.324818 0.218333
v 30.516973 10.213512 0.214138
v 30.486979 10.106484 0.201713
v 30.438269 10.007847 0.181537
v 30.372717 9.921391 0.154385
v 30.292843 9.850438 0.121299
v 30.201714 9.797715 0.083552
v 30.102833 9.765248 0.042595
v 30.092546 10.884387 0.061838
v 30.181538 10.851920 0.121299
v 30.263552 10.799197 0.176099
v 30.335438 10.728245 0.224132
v 30.394432 10.641788 0.263551
v 30.438271 10.543151 0.292842
v 30.465265 10.436123 0.310880
v 30.474379 10.324818 0.316970
v 30.465265 10.213512 0.310880
v 30.438271 10.106484 0.292842
v 30.394432 10.007847 0.263551
v 30.335438 9.921391 0.224132
v 30.263552 9.850438 0.176099
v 30.181538 9.797715 0.121299
v 30.092546 9.765248 0.061838
v 30.078705 10.884387 0.078705
v 30.154385 10.851920 0.154385
v 30.224133 10.799197 0.224132
v 30.285265 10.728245 0.285266
v 30.335438 10.641788 0.335437
v 30.372717 10.543151 0.372718
v 30.395676 10.436123 0.395675
v 30.403427 10.324818 0.403427
v 30.395676 10.213512 0.395675
v 30.372717 10.106484 0.372718
v 30.335438 10.007847 0.335437
v 30.285265 9.921391 0.285266
v 30.224133 9.850438 0.224132
v 30.154385 9.797715 0.154385
v 30.078705 9.765248 0.078705
v 30.061838 10.884387 0.092547
v 30.121300 10.851920 0.181537
v 30.176100 10.799197 0.263551
v 30.224133 10.728245 0.335437
v 30.263552 10.641788 0.394432
v 30.292843 10.543151 0.438270
v 30.310881 10.436123 0.465265
v 30.316971 10.324818 0.474380
v 30.310881 10.213512 0.465265
v 30.292843 10.106484 0.438270
v 30.263552 10.007847 0.394432
v 30.224133 9.921391 0.335437
v 30.176100 9.850438 0.263551
v 30.121300 9.797715 0.181537
v 30.061838 9.765248 0.092547
v 30.042595 10.884387 0.102833
v 30.083553 10.851920 0.201713
v 30.121300 10.799197 0.292842
v 30.154385 10.728245 0.372718
v 30.181538 10.641788 0.438270
v 30.201714 10.543151 0.486979
v 30.214138 10.436123 0.516974
v 30.218332 10.324818 0.527102
v 30.214138 10.213512 0.516974
v 30.201714 10.106484 0.486979
v 30.181538 10.007847 0.438270
v 30.154385 9.921391 0.372718
v 30.121300 9.850438 0.292842
v 30.083553 9.797715 0.201713
v 30.042595 9.765248 0.102833
v 30.021715 10.884387 0.109166
v 30.042595 10.851920 0.214138
v 30.061838 10.799197 0.310880
v 30.078705 10.728245 0.395675
v 30.092546 10.641788 0.465264
v 30.102833 10.543151 0.516974
v 30.109167 10.436123 0.548817
v 30.111305 10.324818 0.559569
v 30.109167 10.213512 0.548817
v 30.102833 10.106484 0.516974
v 30.092546 10.007847 0.465264
v 30.078705 9.921391 0.395675
v 30.061838 9.850438 0.310880
v 30.042595 9.797715 0.214138
v 30.021715 9.765248 0.109166
v 30.000000 10.884387 0.111305
v 30.000000 10.851920 0.218333
v 30.000000 10.799197 0.316970
v 30.000000 10.728245 0.403427
v 30.000000 10.641788 0.474380
v 30.000000 10.543151 0.527102
v 30.000000 10.436123 0.559569
v 30.000000 10.324818 0.570531
v 30.000000 10.213512 0.559569
v 30.000000 10.106484 0.527102
v 30.000000 10.007847 0.474380
v 30.000000 9.921391 0.403427
v 30.000000 9.850438 0.316970
v 30.000000 9.797715 0.218333
v 30.000000 9.765248 0.111305
v 29.978285 10.884387 0.109166
v 29.957405 10.851920 0.214138
v 29.938162 10.799197 0.310880
v 29.921295 10.728245 0.395675
v 29.907454 10.641788 0.465264
v 29.897167 10.543151 0.516974
v 29.890833 10.436123 0.548817
v 29.888695 10.324818 0.559569
v 29.890833 10.213512 0.548817
v 29.897167 10.106484 0.516974
v 29.907454 10.007847 0.465264
v 29.921295 9.921391 0.395675
v 29.938162 9.850438 0.310880
v 29.957405 9.797715 0.214138
v 29.978285 9.765248 0.109166
v 29.957405 10.884387 0.102833
v 29.916447 10.851920 0.201713
v 29.878700 10.799197 0.292842
v 29.845615 10.728245 0.372718
v 29.818462 10.641788 0.438269
v 29.798286 10.543151 0.486979
v 29.785862 10.436123 0.516974
v 29.781668 10.324818 0.527102
v 29.785862 10.213512 0.516974
v 29.798286 10.106484 0.486979
v 29.818462 10.007847 0.438269
v 29.845615 9.921391 0.372718
v 29.878700 9.850438 0.292842
v 29.916447 9.797715 0.201713
v 29.957405 9.765248 0.102833
v 29.938162 10.884387 0.092547
v 29.878700 10.851920 0.181537
v 29.823900 10.799197 0.263551
v 29.775867 10.728245 0.335437
v 29.736448 10.641788 0.394432
v 29.707157 10.543151 0.438270
v 29.689119 10.436123 0.465264
v 29.683029 10.324818 0.474379
v 29.689119 10.213512 0.465264
v 29.707157 10.106484 0.438270
v 29.736448 10.007847 0.394432
v 29.775867 9.921391 0.335437
v 29.823900 9.850438 0.263551
v 29.878700 9.797715 0.181537
v 29.938162 9.765248 0.092547
v 29.921295 10.884387 0.078705
v 29.845615 10.851920 0.154385
v 29.775867 10.799197 0.224132
v 29.714735 10.728245 0.285266
v 29.664562 10.641788 0.335437
v 29.627283 10.543151 0.372718
v 29.604324 10.436123 0.395675
v 29.596573 10.324818 0.403426
v 29.604324 10.213512 0.395675
v 29.627283 10.106484 0.372718
v 29.664562 10.007847 0.335437
v 29.714735 9.921391 0.285266
v 29.775867 9.850438 0.224132
v 29.845615 9.797715 0.154385
v 29.921295 9.765248 0.078705
v 29.907454 10.884387 0.061838
v 29.818462 10.851920 0.121299
v 29.736448 10.799197 0.176099
v 29.664562 10.728245 0.224132
v 29.605568 10.641788 0.263551
v 29.561731 10.543151 0.292842
v 29.534735 10.436123 0.310880
v 29.525621 10.324818 0.316970
v 29.534735 10.213512 0.310880
v 29.561731 10.106484 0.292842
v 29.605568 10.007847 0.263551
v 29.664562 9.921391 0.224132
v 29.736448 9.850438 0.176099
v 29.818462 9.797715 0.121299
v 29.907454 9.765248 0.061838
v 29.897167 10.884387 0.042595
v 29.798286 10.851920 0.083552
v 29.707157 10.799197 0.121299
v 29.627283 10.728245 0.154385
v 29.561731 10.641788 0.181537
v 29.513021 10.543151 0.201713
v 29.483027 10.436123 0.214138
v 29.472898 10.324818 0.218333
v 29.483027 10.213512 0.214138
v 29.513021 10.106484 0.201713
v 29.561731 10.007847 0.181537
v 29.627283 9.921391 0.154385
v 29.707157 9.850438 0.121299
v 29.798286 9.797715 0.083552
v 29.897167 9.765248 0.042595
v 29.890833 10.884387 0.021715
v 29.785862 10.851920 0.042595
v 29.689121 10.799197 0.061838
v 29.604324 10.728245 0.078705
v 29.534735 10.641788 0.092547
v 29.483027 10.543151 0.102833
v 29.451183 10.436123 0.109166
v 29.440432 10.324818 0.111305
v 29.451183 10.213512 0.109166
v 29.483027 10.106484 0.102833
v 29.534735 10.007847 0.092547
v 29.604324 9.921391 0.078705
v 29.689121 9.850438 0.061838
v 29.785862 9.797715 0.042595
v 29.890833 9.765248 0.021715
v 29.888695 10.884387 -0.000000
v 29.781668 10.851920 -0.000000
v 29.683029 10.799197 -0.000000
v 29.596573 10.728245 -0.000000
v 29.525621 10.641788 -0.000000
v 29.472898 10.543151 -0.000000
v 29.440432 10.436123 -0.000000
v 29.429468 10.324818 -0.000000
v 29.440432 10.213512 -0.000000
v 29.472898 10.106484 -0.000000
v 29.525621 10.007847 -0.000000
v 29.596573 9.921391 -0.000000
v 29.683029 9.850438 -0.000000
v 29.781668 9.797715 -0.000000
v 29.888695 9.765248 -0.000000
v 29.890833 10.884387 -0.021715
v 29.785862 10.851920 -0.042595
v 29.689121 10.799197 -0.061838
v 29.604324 10.728245 -0.078705
v 29.534737 10.641788 -0.092547
v 29.483027 10.543151 -0.102833
v 29.451183 10.436123 -0.109167
v 29.440432 10.324818 -0.111305
v 29.451183 10.213512 -0.109167
v 29.483027 10.106484 -0.102833
v 29.534737 10.007847 -0.092547
v 29.604324 9.921391 -0.078705
v 29.689121 9.850438 -0.061838
v 29.785862 9.797715 -0.042595
v 29.890833 9.765248 -0.021715
v 29.897167 10.884387 -0.042595
v 29.798286 10.851920 -0.083552
v 29.707157 10.799197 -0.121299
v 29.627283 10.728245 -0.154385
v 29.561731 10.641788 -0.181537
v 29.513021 10.543151 -0.201713
v 29.483027 10.436123 -0.214138
v 29.472898 10.324818 -0.218333
v 29.483027 10.213512 -0.214138
v 29.513021 10.106484 -0.201713
v 29.561731 10.007847 -0.181537
v 29.627283 9.921391 -0.154385
v 29.707157 9.850438 -0.121299
v 29.798286 9.797715 -0.083552
v 29.897167 9.765248 -0.042595
v 29.907454 10.884387 -0.061838
v 29.818462 10.851920 -0.121299
v 29.736448 10.799197 -0.176099
v 29.664562 10.728245 -0.224132
v 29.605568 10.641788 -0.263551
v 29.561731 10.543151 -0.292842
v 29.534737 10.436123 -0.310880
v 29.525621 10.324818 -0.316970
v 29.534737 10.213512 -0.310880
v 29.561731 10.106484 -0.292842
v 29.605568 10.007847 -0.263551
v 29.664562 9.921391 -0.224132
v 29.736448 9.850438 -0.176099
v 29.818462 9.797715 -0.121299
v 29.907454 9.765248 -0.061838
v 29.921295 10.884387 -0.078705
v 29.845615 10.851920 -0.154385
v 29.775867 10.799197 -0.224132
v 29.714735 10.728245 -0.285266
v 29.664564 10.641788 -0.335437
v 29.627283 10.543151 -0.372718
v 29.604324 10.436123 -0.395675
v 29.596575 10.324818 -0.403427
v 29.604324 10.213512 -0.395675
v 29.627283 10.106484 -0.372718
v 29.664564 10.007847 -0.335437
v 29.714735 9.921391 -0.285266
v 29.775867 9.850438 -0.224132
v 29.845615 9.797715 -0.154385
v 29.921295 9.765248 -0.078705
v 29.938162 10.884387 -0.092547
v 29.878700 10.851920 -0.181537
v 29.823900 10.799197 -0.263551
v 29.775867 10.728245 -0.335437
v 29.736448 10.641788 -0.394432
v 29.707157 10.543151 -0.438269
v 29.689121 10.436123 -0.465264
v 29.683031 10.324818 -0.474379
v 29.689121 10.213512 -0.465264
v 29.707157 10.106484 -0.438269
v 29.736448 10.007847 -0.394432
v 29.775867 9.921391 -0.335437
v 29.823900 9.850438 -0.263551
v 29.878700 9.797715 -0.181537
v 29.938162 9.765248 -0.092547
v 29.957405 10.884387 -0.102832
v 29.916449 10.851920 -0.201713
v 29.878700 10.799197 -0.292842
v 29.845615 10.728245 -0.372718
v 29.818462 10.641788 -0.438269
v 29.798286 10.543151 -0.486979
v 29.785862 10.436123 -0.516974
v 29.781668 10.324818 -0.527102
v 29.785862 10.213512 -0.516974
v 29.798286 10.106484 -0.486979
v 29.818462 10.007847 -0.438269
v 29.845615 9.921391 -0.372718
v 29.878700 9.850438 -0.292842
v 29.916449 9.797715 -0.201713
v 29.957405 9.765248 -0.102832
v 29.978285 10.884387 -0.109166
v 29.957405 10.851920 -0.214138
v 29.938162 10.799197 -0.310880
v 29.921295 10.728245 -0.395675
v 29.907454 10.641788 -0.465264
v 29.897167 10.543151 -0.516974
v 29.890833 10.436123 -0.548817
v 29.888695 10.324818 -0.559568
v 29.890833 10.213512 -0.548817
v 29.897167 10.106484 -0.516974
v 29.907454 10.007847 -0.465264
v 29.921295 9.921391 -0.395675
v 29.938162 9.850438 -0.310880
v 29.957405 9.797715 -0.214138
v 29.978285 9.765248 -0.109166
v 30.000000 10.884387 -0.111305
v 30.000000 10.851920 -0.218333
v 30.000000 10.728245 -0.403427
v 30.000000 10.543151 -0.527102
v 30.000000 10.106484 -0.527102
v 30.000000 9.921391 -0.403427
v 30.000000 9.850438 -0.316970
v 30.000000 9.797715 -0.218333
v 30.000000 9.765248 -0.111305
vn 0.0865 -0.4696 -0.8786
vn 0.0624 0.7715 -0.6332
vn 0.0759 -0.6326 -0.7708
vn 0.0759 0.6326 -0.7708
vn 0.0624 -0.7715 -0.6332
vn 0.0865 0.4696 -0.8786
vn 0.0464 -0.8810 -0.4709
vn 0.0938 0.2890 -0.9527
vn 0.0286 -0.9565 -0.2902
vn 0.0975 0.0975 -0.9904
vn 0.0097 0.9951 -0.0980
vn 0.0097 -0.9951 -0.0980
vn 0.0975 -0.0975 -0.9904
vn 0.0286 0.9565 -0.2902
vn 0.0938 -0.2890 -0.9527
vn 0.0464 0.8810 -0.4709
vn 0.2779 -0.2890 -0.9161
vn 0.1374 0.8810 -0.4528
vn 0.2563 -0.4696 -0.8448
vn 0.1847 0.7715 -0.6088
vn 0.2248 -0.6326 -0.7412
vn 0.2248 0.6326 -0.7412
vn 0.1847 -0.7715 -0.6088
vn 0.2563 0.4696 -0.8448
vn 0.1374 -0.8810 -0.4528
vn 0.2779 0.2890 -0.9161
vn 0.0846 -0.9565 -0.2790
vn 0.2889 0.0976 -0.9524
vn 0.0286 0.9951 -0.0942
vn 0.0286 -0.9951 -0.0942
vn 0.2889 -0.0976 -0.9524
vn 0.0846 0.9565 -0.2790
vn 0.2230 -0.8810 -0.4173
vn 0.4513 0.2890 -0.8443
vn 0.1374 -0.9565 -0.2571
vn 0.4691 0.0975 -0.8777
vn 0.0464 0.9951 -0.0869
vn 0.0464 -0.9951 -0.0869
vn 0.4691 -0.0975 -0.8777
vn 0.1374 0.9565 -0.2571
vn 0.4513 -0.2890 -0.8443
vn 0.2230 0.8810 -0.4173
vn 0.4162 -0.4696 -0.7786
vn 0.2999 0.7715 -0.5611
vn 0.3651 -0.6326 -0.6831
vn 0.3651 0.6326 -0.6831
vn 0.2999 -0.7715 -0.5611
vn 0.4162 0.4696 -0.7786
vn 0.3002 0.8810 -0.3658
vn 0.5601 -0.4696 -0.6825
vn 0.4036 0.7715 -0.4918
vn 0.4913 -0.6326 -0.5987
vn 0.4913 0.6326 -0.5987
vn 0.4036 -0.7715 -0.4918
vn 0.5601 0.4696 -0.6825
vn 0.3002 -0.8810 -0.3658
vn 0.6073 0.2890 -0.7400
vn 0.1850 -0.9565 -0.2254
vn 0.6314 0.0975 -0.7693
vn 0.0625 0.9951 -0.0761
vn 0.0625 -0.9951 -0.0761
vn 0.6314 -0.0975 -0.7693
vn 0.1850 0.9565 -0.2254
vn 0.6073 -0.2890 -0.7400
vn 0.7400 0.2890 -0.6073
vn 0.2254 -0.9565 -0.1850
vn 0.7693 0.0975 -0.6314
vn 0.0761 0.9951 -0.0625
vn 0.0761 -0.9951 -0.0625
vn 0.7693 -0.0975 -0.6314
vn 0.2254 0.9565 -0.1850
vn 0.7400 -0.2890 -0.6073
vn 0.3658 0.8810 -0.3002
vn 0.6825 -0.4696 -0.5601
vn 0.4918 0.7715 -0.4036
vn 0.5987 -0.6326 -0.4913
vn 0.5987 0.6326 -0.4913
vn 0.4918 -0.7715 -0.4036
vn 0.6825 0.4696 -0.5601
vn 0.3658 -0.8810 -0.3002
vn 0.7786 -0.4696 -0.4162
vn 0.5611 0.7715 -0.2999
vn 0.6831 -0.6326 -0.3651
vn 0.6831 0.6326 -0.3651
vn 0.5611 -0.7715 -0.2999
vn 0.7786 0.4696 -0.4162
vn 0.4173 -0.8810 -0.2230
vn 0.8443 0.2890 -0.4513
vn 0.2571 -0.9565 -0.1374
vn 0.8777 0.0975 -0.4691
vn 0.0869 0.9951 -0.0464
vn 0.0869 -0.9951 -0.0464
vn 0.8777 -0.0975 -0.4691
vn 0.2571 0.9565 -0.1374
vn 0.8443 -0.2890 -0.4513
vn 0.4173 0.8810 -0.2230
vn 0.2790 -0.9565 -0.0846
vn 0.9524 0.0975 -0.2889
vn 0.0942 0.9951 -0.0286
vn 0.0942 -0.9951 -0.0286
vn 0.9524 -0.0975 -0.2889
vn 0.2790 0.9565 -0.0846
vn 0.9161 -0.2890 -0.2779
vn 0.4528 0.8810 -0.1374
vn 0.8448 -0.4696 -0.2563
vn 0.6088 0.7715 -0.1847
vn 0.7412 -0.6326 -0.2248
vn 0.7412 0.6326 -0.2248
vn 0.6088 -0.7715 -0.1847
vn 0.8448 0.4696 -0.2563
vn 0.4528 -0.8810 -0.1374
vn 0.9161 0.2890 -0.2779
vn 0.7708 -0.6326 -0.0759
vn 0.7708 0.6326 -0.0759
vn 0.6332 -0.7715 -0.0624
vn 0.8786 0.4696 -0.0865
vn 0.4709 -0.8810 -0.0464
vn 0.9527 0.2890 -0.0938
vn 0.2902 -0.9565 -0.0286
vn 0.9904 0.0975 -0.0975
vn 0.0980 0.9951 -0.0097
vn 0.0980 -0.9951 -0.0097
vn 0.9904 -0.0975 -0.0975
vn 0.2902 0.9565 -0.0286
vn 0.9527 -0.2890 -0.0938
vn 0.4709 0.8810 -0.0464
vn 0.8786 -0.4696 -0.0865
vn 0.6332 0.7715 -0.0624
vn 0.0980 0.9951 0.0097
vn 0.0980 -0.9951 0.0097
vn 0.9904 -0.0975 0.0976
vn 0.2902 0.9565 0.0286
vn 0.9527 -0.2890 0.0938
vn 0.4709 0.8810 0.0464
vn 0.8786 -0.4696 0.0865
vn 0.6332 0.7715 0.0624
vn 0.7708 -0.6326 0.0759
vn 0.7708 0.6326 0.0759
vn 0.6332 -0.7715 0.0624
vn 0.8786 0.4696 0.0865
vn 0.4709 -0.8810 0.0464
vn 0.9527 0.2890 0.0938
vn 0.2902 -0.9565 0.0286
vn 0.9904 0.0975 0.0976
vn 0.7412 0.6326 0.2248
vn 0.6088 -0.7715 0.1847
vn 0.8448 0.4696 0.2563
vn 0.4528 -0.8810 0.1374
vn 0.9161 0.2890 0.2779
vn 0.2790 -0.9565 0.0846
vn 0.9524 0.0975 0.2889
vn 0.0942 0.9951 0.0286
vn 0.0942 -0.9951 0.0286
vn 0.9524 -0.0975 0.2889
vn 0.2790 0.9565 0.0846
vn 0.9161 -0.2890 0.2779
vn 0.4528 0.8810 0.1374
vn 0.8448 -0.4696 0.2563
vn 0.6088 0.7715 0.1847
vn 0.7412 -0.6326 0.2248
vn 0.8777 -0.0975 0.4691
vn 0.2571 0.9565 0.1374
vn 0.8443 -0.2890 0.4513
vn 0.4173 0.8810 0.2230
vn 0.7786 -0.4696 0.4162
vn 0.5611 0.7715 0.2999
vn 0.6831 -0.6326 0.3651
vn 0.6831 0.6326 0.3651
vn 0.5611 -0.7715 0.2999
vn 0.7786 0.4696 0.4162
vn 0.4173 -0.8810 0.2230
vn 0.8443 0.2890 0.4513
vn 0.2571 -0.9565 0.1374
vn 0.8777 0.0975 0.4691
vn 0.0869 0.9951 0.0464
vn 0.0869 -0.9951 0.0464
vn 0.4918 -0.7715 0.4036
vn 0.6825 0.4696 0.5601
vn 0.3658 -0.8810 0.3002
vn 0.7400 0.2890 0.6073
vn 0.2254 -0.9565 0.1850
vn 0.7693 0.0975 0.6314
vn 0.0761 0.9951 0.0625
vn 0.0761 -0.9951 0.0625
vn 0.7693 -0.0975 0.6314
vn 0.2254 0.9565 0.1850
vn 0.7400 -0.2890 0.6073
vn 0.3658 0.8810 0.3002
vn 0.6825 -0.4696 0.5601
vn 0.4918 0.7715 0.4036
vn 0.5987 -0.6326 0.4913
vn 0.5987 0.6326 0.4913
vn 0.1850 0.9565 0.2254
vn 0.6073 -0.2890 0.7400
vn 0.3002 0.8810 0.3658
vn 0.5601 -0.4696 0.6825
vn 0.4036 0.7715 0.4918
vn 0.4913 -0.6326 0.5987
vn 0.4913 0.6326 0.5987
vn 0.4036 -0.7715 0.4918
vn 0.5601 0.4696 0.6825
vn 0.3002 -0.8810 0.3658
vn 0.6073 0.2890 0.7400
vn 0.1850 -0.9565 0.2254
vn 0.6314 0.0975 0.7693
vn 0.0625 0.9951 0.0761
vn 0.0625 -0.9951 0.0761
vn 0.6314 -0.0975 0.7693
vn 0.4162 0.4696 0.7786
vn 0.2230 -0.8810 0.4173
vn 0.4513 0.2890 0.8443
vn 0.1374 -0.9565 0.2571
vn 0.4691 0.0975 0.8777
vn 0.0464 0.9951 0.0869
vn 0.0464 -0.9951 0.0869
vn 0.4691 -0.0975 0.8777
vn 0.1374 0.9565 0.2571
vn 0.4513 -0.2890 0.8443
vn 0.2230 0.8810 0.4173
vn 0.4162 -0.4696 0.7786
vn 0.2999 0.7715 0.5611
vn 0.3651 -0.6326 0.6831
vn 0.3651 0.6326 0.6831
vn 0.2999 -0.7715 0.5611
vn 0.2779 -0.2890 0.9161
vn 0.1374 0.8810 0.4528
vn 0.2563 -0.4696 0.8448
vn 0.1847 0.7715 0.6088
vn 0.2248 -0.6326 0.7412
vn 0.2248 0.6326 0.7412
vn 0.1847 -0.7715 0.6088
vn 0.2563 0.4696 0.8448
vn 0.1374 -0.8810 0.4528
vn 0.2779 0.2890 0.9161
vn 0.0846 -0.9565 0.2790
vn 0.2889 0.0975 0.9524
vn 0.0286 0.9951 0.0942
vn 0.0286 -0.9951 0.0942
vn 0.2889 -0.0975 0.9524
vn 0.0846 0.9565 0.2790
vn 0.0464 -0.8810 0.4709
vn 0.0938 0.2890 0.9527
vn 0.0286 -0.9565 0.2902
vn 0.0975 0.0975 0.9904
vn 0.0097 0.9951 0.0980
vn 0.0097 -0.9951 0.0980
vn 0.0975 -0.0975 0.9904
vn 0.0286 0.9565 0.2902
vn 0.0938 -0.2890 0.9527
vn 0.0464 0.8810 0.4709
vn 0.0865 -0.4696 0.8786
vn 0.0624 0.7715 0.6332
vn 0.0759 -0.6326 0.7708
vn 0.0759 0.6326 0.7708
vn 0.0624 -0.7715 0.6332
vn 0.0865 0.4696 0.8786
vn -0.0865 -0.4696 0.8786
vn -0.0624 0.7715 0.6332
vn -0.0759 -0.6326 0.7708
vn -0.0759 0.6326 0.7708
vn -0.0624 -0.7715 0.6332
vn -0.0865 0.4696 0.8786
vn -0.0464 -0.8810 0.4709
vn -0.0938 0.2890 0.9527
vn -0.0286 -0.9565 0.2902
vn -0.0976 0.0975 0.9904
vn -0.0097 0.9951 0.0980
vn -0.0097 -0.9951 0.0980
vn -0.0976 -0.0975 0.9904
vn -0.0286 0.9565 0.2902
vn -0.0938 -0.2890 0.9527
vn -0.0464 0.8810 0.4709
vn -0.0846 -0.9565 0.2790
vn -0.2889 0.0975 0.9524
vn -0.0286 0.9951 0.0942
vn -0.0286 -0.9951 0.0942
vn -0.2889 -0.0975 0.9524
vn -0.0846 0.9565 0.2790
vn -0.2779 -0.2890 0.9161
vn -0.1374 0.8810 0.4528
vn -0.2563 -0.4696 0.8448
vn -0.1847 0.7715 0.6088
vn -0.2248 -0.6326 0.7412
vn -0.2248 0.6326 0.7412
vn -0.1847 -0.7715 0.6088
vn -0.2563 0.4696 0.8448
vn -0.1374 -0.8810 0.4528
vn -0.2779 0.2890 0.9161
vn -0.2999 0.7715 0.5611
vn -0.3651 -0.6326 0.6831
vn -0.3651 0.6326 0.6831
vn -0.2999 -0.7715 0.5611
vn -0.4162 0.4696 0.7786
vn -0.2230 -0.8810 0.4173
vn -0.4513 0.2890 0.8443
vn -0.1374 -0.9565 0.2571
vn -0.4691 0.0975 0.8777
vn -0.0464 0.9951 0.0869
vn -0.0464 -0.9951 0.0869
vn -0.4691 -0.0975 0.8777
vn -0.1374 0.9565 0.2571
vn -0.4513 -0.2890 0.8443
vn -0.2230 0.8810 0.4173
vn -0.4162 -0.4696 0.7786
vn -0.6314 0.0975 0.7693
vn -0.0625 0.9951 0.0761
vn -0.0625 -0.9951 0.0761
vn -0.6314 -0.0975 0.7693
vn -0.1850 0.9565 0.2254
vn -0.6073 -0.2890 0.7400
vn -0.3002 0.8810 0.3658
vn -0.5601 -0.4696 0.6825
vn -0.4036 0.7715 0.4918
vn -0.4913 -0.6326 0.5987
vn -0.4913 0.6326 0.5987
vn -0.4036 -0.7715 0.4918
vn -0.5601 0.4696 0.6825
vn -0.3002 -0.8810 0.3658
vn -0.6073 0.2890 0.7400
vn -0.1850 -0.9565 0.2254
vn -0.5987 -0.6326 0.4913
vn -0.5987 0.6326 0.4913
vn -0.4918 -0.7715 0.4036
vn -0.6825 0.4696 0.5601
vn -0.3658 -0.8810 0.3002
vn -0.7400 0.2890 0.6073
vn -0.2254 -0.9565 0.1850
vn -0.7693 0.0975 0.6314
vn -0.0761 0.9951 0.0625
vn -0.0761 -0.9951 0.0625
vn -0.7693 -0.0975 0.6314
vn -0.2254 0.9565 0.1850
vn -0.7400 -0.2890 0.6073
vn -0.3658 0.8810 0.3002
vn -0.6825 -0.4696 0.5601
vn -0.4918 0.7715 0.4036
vn -0.0869 0.9951 0.0464
vn -0.0869 -0.9951 0.0464
vn -0.8777 -0.0975 0.4691
vn -0.2571 0.9565 0.1374
vn -0.8443 -0.2890 0.4513
vn -0.4173 0.8810 0.2230
vn -0.7786 -0.4696 0.4162
vn -0.5611 0.7715 0.2999
vn -0.6831 -0.6326 0.3651
vn -0.6831 0.6326 0.3651
vn -0.5611 -0.7715 0.2999
vn -0.7786 0.4696 0.4162
vn -0.4173 -0.8810 0.2230
vn -0.8443 0.2890 0.4513
vn -0.2571 -0.9565 0.1374
vn -0.8777 0.0975 0.4691
vn -0.7412 0.6326 0.2248
vn -0.6088 -0.7715 0.1847
vn -0.8448 0.4696 0.2563
vn -0.4528 -0.8810 0.1374
vn -0.9161 0.2890 0.2779
vn -0.2790 -0.9565 0.0846
vn -0.9524 0.0975 0.2889
vn -0.0942 0.9951 0.0286
vn -0.0942 -0.9951 0.0286
vn -0.9524 -0.0975 0.2889
vn -0.2790 0.9565 0.0846
vn -0.9161 -0.2890 0.2779
vn -0.4528 0.8810 0.1374
vn -0.8448 -0.4696 0.2563
vn -0.6088 0.7715 0.1847
vn -0.7412 -0.6326 0.2248
vn -0.9904 -0.0975 0.0975
vn -0.2902 0.9565 0.0286
vn -0.9527 -0.2890 0.0938
vn -0.4709 0.8810 0.0464
vn -0.8786 -0.4696 0.0865
vn -0.6332 0.7715 0.0624
vn -0.7708 -0.6326 0.0759
vn -0.7708 0.6326 0.0759
vn -0.6332 -0.7715 0.0624
vn -0.8786 0.4696 0.0865
vn -0.4709 -0.8810 0.0464
vn -0.9527 0.2890 0.0938
vn -0.2902 -0.9565 0.0286
vn -0.9904 0.0975 0.0975
vn -0.0980 0.9951 0.0097
vn -0.0980 -0.9951 0.0097
vn -0.6332 -0.7715 -0.0624
vn -0.8786 0.4696 -0.0865
vn -0.4709 -0.8810 -0.0464
vn -0.9527 0.2890 -0.0938
vn -0.2902 -0.9565 -0.0286
vn -0.9904 0.0975 -0.0976
vn -0.0980 0.9951 -0.0097
vn -0.0980 -0.9951 -0.0097
vn -0.9904 -0.0975 -0.0976
vn -0.2902 0.9565 -0.0286
vn -0.9527 -0.2890 -0.0938
vn -0.4709 0.8810 -0.0464
vn -0.8786 -0.4696 -0.0865
vn -0.6332 0.7715 -0.0624
vn -0.7708 -0.6326 -0.0759
vn -0.7708 0.6326 -0.0759
vn -0.9161 -0.2890 -0.2779
vn -0.4528 0.8810 -0.1374
vn -0.8448 -0.4696 -0.2563
vn -0.6088 0.7715 -0.1847
vn -0.7412 -0.6326 -0.2248
vn -0.7412 0.6326 -0.2248
vn -0.6088 -0.7715 -0.1847
vn -0.8448 0.4696 -0.2563
vn -0.4528 -0.8810 -0.1374
vn -0.9161 0.2890 -0.2779
vn -0.2790 -0.9565 -0.0846
vn -0.9524 0.0975 -0.2889
vn -0.0942 0.9951 -0.0286
vn -0.0942 -0.9951 -0.0286
vn -0.9524 -0.0975 -0.2889
vn -0.2790 0.9565 -0.0846
vn -0.4173 -0.8810 -0.2231
vn -0.8443 0.2890 -0.4513
vn -0.2571 -0.9565 -0.1374
vn -0.8777 0.0975 -0.4691
vn -0.0869 0.9951 -0.0464
vn -0.0869 -0.9951 -0.0464
vn -0.8777 -0.0975 -0.4691
vn -0.2571 0.9565 -0.1374
vn -0.8443 -0.2890 -0.4513
vn -0.4173 0.8810 -0.2231
vn -0.7786 -0.4696 -0.4162
vn -0.5611 0.7715 -0.2999
vn -0.6831 -0.6326 -0.3651
vn -0.6831 0.6326 -0.3651
vn -0.5611 -0.7715 -0.2999
vn -0.7786 0.4696 -0.4162
vn -0.3658 0.8810 -0.3002
vn -0.6825 -0.4696 -0.5601
vn -0.4918 0.7715 -0.4036
vn -0.5987 -0.6326 -0.4913
vn -0.5987 0.6326 -0.4913
vn -0.4918 -0.7715 -0.4036
vn -0.6825 0.4696 -0.5601
vn -0.3658 -0.8810 -0.3002
vn -0.7400 0.2890 -0.6073
vn -0.2254 -0.9565 -0.1850
vn -0.7693 0.0975 -0.6314
vn -0.0761 0.9951 -0.0625
vn -0.0761 -0.9951 -0.0625
vn -0.7693 -0.0975 -0.6314
vn -0.2254 0.9565 -0.1850
vn -0.7400 -0.2890 -0.6073
vn -0.6073 0.2890 -0.7400
vn -0.1850 -0.9565 -0.2254
vn -0.6314 0.0975 -0.7693
vn -0.0625 0.9951 -0.0761
vn -0.0625 -0.9951 -0.0761
vn -0.6314 -0.0975 -0.7693
vn -0.1850 0.9565 -0.2254
vn -0.6073 -0.2890 -0.7400
vn -0.3002 0.8810 -0.3658
vn -0.5601 -0.4696 -0.6825
vn -0.4036 0.7715 -0.4918
vn -0.4913 -0.6326 -0.5987
vn -0.4913 0.6326 -0.5987
vn -0.4036 -0.7715 -0.4918
vn -0.5601 0.4696 -0.6825
vn -0.3002 -0.8810 -0.3658
vn -0.4162 -0.4696 -0.7786
vn -0.2999 0.7715 -0.5611
vn -0.3651 -0.6326 -0.6831
vn -0.3651 0.6326 -0.6831
vn -0.2999 -0.7715 -0.5611
vn -0.4162 0.4696 -0.7786
vn -0.2230 -0.8810 -0.4173
vn -0.4513 0.2890 -0.8443
vn -0.1374 -0.9565 -0.2571
vn -0.4691 0.0975 -0.8777
vn -0.0464 0.9951 -0.0869
vn -0.0464 -0.9951 -0.0869
vn -0.4691 -0.0975 -0.8777
vn -0.1374 0.9565 -0.2571
vn -0.4513 -0.2890 -0.8443
vn -0.2230 0.8810 -0.4173
vn -0.0846 -0.9565 -0.2790
vn -0.2889 0.0975 -0.9524
vn -0.0286 0.9951 -0.0942
vn -0.0286 -0.9951 -0.0942
vn -0.2889 -0.0975 -0.9524
vn -0.0846 0.9565 -0.2790
vn -0.2779 -0.2890 -0.9161
vn -0.1374 0.8810 -0.4528
vn -0.2563 -0.4696 -0.8448
vn -0.1847 0.7715 -0.6088
vn -0.2248 -0.6326 -0.7412
vn -0.2248 0.6326 -0.7412
vn -0.1847 -0.7715 -0.6088
vn -0.2563 0.4696 -0.8448
vn -0.1374 -0.8810 -0.4528
vn -0.2779 0.2890 -0.9161
vn -0.0624 0.7715 -0.6332
vn -0.0759 -0.6326 -0.7708
vn -0.0759 0.6326 -0.7708
vn -0.0624 -0.7715 -0.6332
vn -0.0865 0.4696 -0.8786
vn -0.0464 -0.8810 -0.4709
vn -0.0938 0.2890 -0.9527
vn -0.0286 -0.9565 -0.2902
vn -0.0976 0.0975 -0.9904
vn -0.0097 0.9951 -0.0980
vn -0.0097 -0.9951 -0.0980
vn -0.0976 -0.0975 -0.9904
vn -0.0286 0.9565 -0.2902
vn -0.0938 -0.2890 -0.9527
vn -0.0464 0.8810 -0.4709
vn -0.0865 -0.4696 -0.8786
vt 0.750000 0.312500
vt 0.750000 0.375000
vt 0.718750 0.375000
vt 0.718750 0.312500
vt 0.750000 0.750000
vt 0.750000 0.812500
vt 0.718750 0.812500
vt 0.718750 0.750000
vt 0.750000 0.250000
vt 0.718750 0.250000
vt 0.750000 0.687500
vt 0.718750 0.687500
vt 0.750000 0.187500
vt 0.718750 0.187500
vt 0.750000 0.625000
vt 0.718750 0.625000
vt 0.750000 0.125000
vt 0.718750 0.125000
vt 0.750000 0.562500
vt 0.718750 0.562500
vt 0.750000 0.062500
vt 0.718750 0.062500
vt 0.750000 0.500000
vt 0.718750 0.500000
vt 0.750000 0.937500
vt 0.734375 1.000000
vt 0.718750 0.937500
vt 0.734375 0.000000
vt 0.750000 0.437500
vt 0.718750 0.437500
vt 0.750000 0.875000
vt 0.718750 0.875000
vt 0.687500 0.437500
vt 0.687500 0.375000
vt 0.687500 0.875000
vt 0.687500 0.812500
vt 0.687500 0.312500
vt 0.687500 0.750000
vt 0.687500 0.250000
vt 0.687500 0.687500
vt 0.687500 0.187500
vt 0.687500 0.625000
vt 0.687500 0.125000
vt 0.687500 0.562500
vt 0.687500 0.062500
vt 0.687500 0.500000
vt 0.703125 1.000000
vt 0.687500 0.937500
vt 0.703125 0.000000
vt 0.656250 0.187500
vt 0.656250 0.125000
vt 0.656250 0.625000
vt 0.656250 0.562500
vt 0.656250 0.062500
vt 0.656250 0.500000
vt 0.671875 1.000000
vt 0.656250 0.937500
vt 0.671875 0.000000
vt 0.656250 0.437500
vt 0.656250 0.875000
vt 0.656250 0.375000
vt 0.656250 0.812500
vt 0.656250 0.312500
vt 0.656250 0.750000
vt 0.656250 0.250000
vt 0.656250 0.687500
vt 0.625000 0.875000
vt 0.625000 0.812500
vt 0.625000 0.375000
vt 0.625000 0.312500
vt 0.625000 0.750000
vt 0.625000 0.250000
vt 0.625000 0.687500
vt 0.625000 0.187500
vt 0.625000 0.625000
vt 0.625000 0.125000
vt 0.625000 0.562500
vt 0.625000 0.062500
vt 0.625000 0.500000
vt 0.640625 1.000000
vt 0.625000 0.937500
vt 0.640625 0.000000
vt 0.625000 0.437500
vt 0.593750 0.625000
vt 0.593750 0.562500
vt 0.593750 0.125000
vt 0.593750 0.062500
vt 0.593750 0.500000
vt 0.609375 1.000000
vt 0.593750 0.937500
vt 0.609375 0.000000
vt 0.593750 0.437500
vt 0.593750 0.875000
vt 0.593750 0.375000
vt 0.593750 0.812500
vt 0.593750 0.312500
vt 0.593750 0.750000
vt 0.593750 0.250000
vt 0.593750 0.687500
vt 0.593750 0.187500
vt 0.562500 0.375000
vt 0.562500 0.312500
vt 0.562500 0.812500
vt 0.562500 0.750000
vt 0.562500 0.250000
vt 0.562500 0.687500
vt 0.562500 0.187500
vt 0.562500 0.625000
vt 0.562500 0.125000
vt 0.562500 0.562500
vt 0.562500 0.062500
vt 0.562500 0.500000
vt 0.578125 1.000000
vt 0.562500 0.937500
vt 0.578125 0.000000
vt 0.562500 0.437500
vt 0.562500 0.875000
vt 0.531250 0.125000
vt 0.531250 0.062500
vt 0.531250 0.562500
vt 0.531250 0.500000
vt 0.546875 1.000000
vt 0.531250 0.937500
vt 0.546875 0.000000
vt 0.531250 0.437500
vt 0.531250 0.875000
vt 0.531250 0.375000
vt 0.531250 0.812500
vt 0.531250 0.312500
vt 0.531250 0.750000
vt 0.531250 0.250000
vt 0.531250 0.687500
vt 0.531250 0.187500
vt 0.531250 0.625000
vt 0.500000 0.312500
vt 0.500000 0.250000
vt 0.500000 0.750000
vt 0.500000 0.687500
vt 0.500000 0.187500
vt 0.500000 0.625000
vt 0.500000 0.125000
vt 0.500000 0.562500
vt 0.500000 0.062500
vt 0.500000 0.500000
vt 0.515625 1.000000
vt 0.500000 0.937500
vt 0.515625 0.000000
vt 0.500000 0.437500
vt 0.500000 0.875000
vt 0.500000 0.375000
vt 0.500000 0.812500
vt 0.484375 1.000000
vt 0.468750 0.937500
vt 0.484375 0.000000
vt 0.468750 0.062500
vt 0.468750 0.500000
vt 0.468750 0.437500
vt 0.468750 0.875000
vt 0.468750 0.375000
vt 0.468750 0.812500
vt 0.468750 0.312500
vt 0.468750 0.750000
vt 0.468750 0.250000
vt 0.468750 0.687500
vt 0.468750 0.187500
vt 0.468750 0.625000
vt 0.468750 0.125000
vt 0.468750 0.562500
vt 0.437500 0.750000
vt 0.437500 0.687500
vt 0.437500 0.250000
vt 0.437500 0.187500
vt 0.437500 0.625000
vt 0.437500 0.125000
vt 0.437500 0.562500
vt 0.437500 0.062500
vt 0.437500 0.500000
vt 0.453125 1.000000
vt 0.437500 0.937500
vt 0.453125 0.000000
vt 0.437500 0.437500
vt 0.437500 0.875000
vt 0.437500 0.375000
vt 0.437500 0.812500
vt 0.437500 0.312500
vt 0.406250 0.500000
vt 0.406250 0.437500
vt 0.406250 0.937500
vt 0.406250 0.875000
vt 0.406250 0.375000
vt 0.406250 0.812500
vt 0.406250 0.312500
vt 0.406250 0.750000
vt 0.406250 0.250000
vt 0.406250 0.687500
vt 0.406250 0.187500
vt 0.406250 0.625000
vt 0.406250 0.125000
vt 0.406250 0.562500
vt 0.406250 0.062500
vt 0.421875 1.000000
vt 0.421875 0.000000
vt 0.375000 0.250000
vt 0.375000 0.187500
vt 0.375000 0.687500
vt 0.375000 0.625000
vt 0.375000 0.125000
vt 0.375000 0.562500
vt 0.375000 0.062500
vt 0.375000 0.500000
vt 0.390625 1.000000
vt 0.375000 0.937500
vt 0.390625 0.000000
vt 0.375000 0.437500
vt 0.375000 0.875000
vt 0.375000 0.375000
vt 0.375000 0.812500
vt 0.375000 0.312500
vt 0.375000 0.750000
vt 0.343750 0.937500
vt 0.343750 0.875000
vt 0.343750 0.437500
vt 0.343750 0.375000
vt 0.343750 0.812500
vt 0.343750 0.312500
vt 0.343750 0.750000
vt 0.343750 0.250000
vt 0.343750 0.687500
vt 0.343750 0.187500
vt 0.343750 0.625000
vt 0.343750 0.125000
vt 0.343750 0.562500
vt 0.343750 0.062500
vt 0.343750 0.500000
vt 0.359375 1.000000
vt 0.359375 0.000000
vt 0.312500 0.687500
vt 0.312500 0.625000
vt 0.312500 0.187500
vt 0.312500 0.125000
vt 0.312500 0.562500
vt 0.312500 0.062500
vt 0.312500 0.500000
vt 0.328125 1.000000
vt 0.312500 0.937500
vt 0.328125 0.000000
vt 0.312500 0.437500
vt 0.312500 0.875000
vt 0.312500 0.375000
vt 0.312500 0.812500
vt 0.312500 0.312500
vt 0.312500 0.750000
vt 0.312500 0.250000
vt 0.281250 0.437500
vt 0.281250 0.375000
vt 0.281250 0.875000
vt 0.281250 0.812500
vt 0.281250 0.312500
vt 0.281250 0.750000
vt 0.281250 0.250000
vt 0.281250 0.687500
vt 0.281250 0.187500
vt 0.281250 0.625000
vt 0.281250 0.125000
vt 0.281250 0.562500
vt 0.281250 0.062500
vt 0.281250 0.500000
vt 0.296875 1.000000
vt 0.281250 0.937500
vt 0.296875 0.000000
vt 0.250000 0.187500
vt 0.250000 0.125000
vt 0.250000 0.625000
vt 0.250000 0.562500
vt 0.250000 0.062500
vt 0.250000 0.500000
vt 0.265625 1.000000
vt 0.250000 0.937500
vt 0.265625 0.000000
vt 0.250000 0.437500
vt 0.250000 0.875000
vt 0.250000 0.375000
vt 0.250000 0.812500
vt 0.250000 0.312500
vt 0.250000 0.750000
vt 0.250000 0.250000
vt 0.250000 0.687500
vt 0.218750 0.375000
vt 0.218750 0.312500
vt 0.218750 0.812500
vt 0.218750 0.750000
vt 0.218750 0.250000
vt 0.218750 0.687500
vt 0.218750 0.187500
vt 0.218750 0.625000
vt 0.218750 0.125000
vt 0.218750 0.562500
vt 0.218750 0.062500
vt 0.218750 0.500000
vt 0.234375 1.000000
vt 0.218750 0.937500
vt 0.234375 0.000000
vt 0.218750 0.437500
vt 0.218750 0.875000
vt 0.187500 0.125000
vt 0.187500 0.062500
vt 0.187500 0.562500
vt 0.187500 0.500000
vt 0.203125 1.000000
vt 0.187500 0.937500
vt 0.203125 0.000000
vt 0.187500 0.437500
vt 0.187500 0.875000
vt 0.187500 0.375000
vt 0.187500 0.812500
vt 0.187500 0.312500
vt 0.187500 0.750000
vt 0.187500 0.250000
vt 0.187500 0.687500
vt 0.187500 0.187500
vt 0.187500 0.625000
vt 0.156250 0.812500
vt 0.156250 0.750000
vt 0.156250 0.312500
vt 0.156250 0.250000
vt 0.156250 0.687500
vt 0.156250 0.187500
vt 0.156250 0.625000
vt 0.156250 0.125000
vt 0.156250 0.562500
vt 0.156250 0.062500
vt 0.156250 0.500000
vt 0.171875 1.000000
vt 0.156250 0.937500
vt 0.171875 0.000000
vt 0.156250 0.437500
vt 0.156250 0.875000
vt 0.156250 0.375000
vt 0.125000 0.562500
vt 0.125000 0.500000
vt 0.140625 1.000000
vt 0.125000 0.937500
vt 0.140625 0.000000
vt 0.125000 0.062500
vt 0.125000 0.437500
vt 0.125000 0.875000
vt 0.125000 0.375000
vt 0.125000 0.812500
vt 0.125000 0.312500
vt 0.125000 0.750000
vt 0.125000 0.250000
vt 0.125000 0.687500
vt 0.125000 0.187500
vt 0.125000 0.625000
vt 0.125000 0.125000
vt 0.093750 0.312500
vt 0.093750 0.250000
vt 0.093750 0.750000
vt 0.093750 0.687500
vt 0.093750 0.187500
vt 0.093750 0.625000
vt 0.093750 0.125000
vt 0.093750 0.562500
vt 0.093750 0.062500
vt 0.093750 0.500000
vt 0.109375 1.000000
vt 0.093750 0.937500
vt 0.109375 0.000000
vt 0.093750 0.437500
vt 0.093750 0.875000
vt 0.093750 0.375000
vt 0.093750 0.812500
vt 0.078125 1.000000
vt 0.062500 0.937500
vt 0.078125 0.000000
vt 0.062500 0.062500
vt 0.062500 0.500000
vt 0.062500 0.437500
vt 0.062500 0.875000
vt 0.062500 0.375000
vt 0.062500 0.812500
vt 0.062500 0.312500
vt 0.062500 0.750000
vt 0.062500 0.250000
vt 0.062500 0.687500
vt 0.062500 0.187500
vt 0.062500 0.625000
vt 0.062500 0.125000
vt 0.062500 0.562500
vt 0.031250 0.750000
vt 0.031250 0.687500
vt 0.031250 0.250000
vt 0.031250 0.187500
vt 0.031250 0.625000
vt 0.031250 0.125000
vt 0.031250 0.562500
vt 0.031250 0.062500
vt 0.031250 0.500000
vt 0.046875 1.000000
vt 0.031250 0.937500
vt 0.046875 0.000000
vt 0.031250 0.437500
vt 0.031250 0.875000
vt 0.031250 0.375000
vt 0.031250 0.812500
vt 0.031250 0.312500
vt 0.000000 0.500000
vt 0.000000 0.437500
vt 0.000000 0.937500
vt 0.000000 0.875000
vt 0.000000 0.375000
vt 0.000000 0.812500
vt 0.000000 0.312500
vt 0.000000 0.750000
vt 0.000000 0.250000
vt 0.000000 0.687500
vt 0.000000 0.187500
vt 0.000000 0.625000
vt 0.000000 0.125000
vt 0.000000 0.562500
vt 0.000000 0.062500
vt 0.015625 1.000000
vt 0.015625 0.000000
vt 1.000000 0.187500
vt 1.000000 0.250000
vt 0.968750 0.250000
vt 0.968750 0.187500
vt 1.000000 0.625000
vt 1.000000 0.687500
vt 0.968750 0.687500
vt 0.968750 0.625000
vt 1.000000 0.125000
vt 0.968750 0.125000
vt 1.000000 0.562500
vt 0.968750 0.562500
vt 1.000000 0.062500
vt 0.968750 0.062500
vt 1.000000 0.500000
vt 0.968750 0.500000
vt 1.000000 0.937500
vt 0.984375 1.000000
vt 0.968750 0.937500
vt 0.984375 0.000000
vt 1.000000 0.437500
vt 0.968750 0.437500
vt 1.000000 0.875000
vt 0.968750 0.875000
vt 1.000000 0.375000
vt 0.968750 0.375000
vt 1.000000 0.812500
vt 0.968750 0.812500
vt 1.000000 0.312500
vt 0.968750 0.312500
vt 1.000000 0.750000
vt 0.968750 0.750000
vt 0.937500 0.437500
vt 0.937500 0.375000
vt 0.937500 0.875000
vt 0.937500 0.812500
vt 0.937500 0.312500
vt 0.937500 0.750000
vt 0.937500 0.250000
vt 0.937500 0.687500
vt 0.937500 0.187500
vt 0.937500 0.625000
vt 0.937500 0.125000
vt 0.937500 0.562500
vt 0.937500 0.062500
vt 0.937500 0.500000
vt 0.953125 1.000000
vt 0.937500 0.937500
vt 0.953125 0.000000
vt 0.906250 0.187500
vt 0.906250 0.125000
vt 0.906250 0.625000
vt 0.906250 0.562500
vt 0.906250 0.062500
vt 0.906250 0.500000
vt 0.921875 1.000000
vt 0.906250 0.937500
vt 0.921875 0.000000
vt 0.906250 0.437500
vt 0.906250 0.875000
vt 0.906250 0.375000
vt 0.906250 0.812500
vt 0.906250 0.312500
vt 0.906250 0.750000
vt 0.906250 0.250000
vt 0.906250 0.687500
vt 0.875000 0.875000
vt 0.875000 0.812500
vt 0.875000 0.375000
vt 0.875000 0.312500
vt 0.875000 0.750000
vt 0.875000 0.250000
vt 0.875000 0.687500
vt 0.875000 0.187500
vt 0.875000 0.625000
vt 0.875000 0.125000
vt 0.875000 0.562500
vt 0.875000 0.062500
vt 0.875000 0.500000
vt 0.890625 1.000000
vt 0.875000 0.937500
vt 0.890625 0.000000
vt 0.875000 0.437500
vt 0.843750 0.625000
vt 0.843750 0.562500
vt 0.843750 0.125000
vt 0.843750 0.062500
vt 0.843750 0.500000
vt 0.859375 1.000000
vt 0.843750 0.937500
vt 0.859375 0.000000
vt 0.843750 0.437500
vt 0.843750 0.875000
vt 0.843750 0.375000
vt 0.843750 0.812500
vt 0.843750 0.312500
vt 0.843750 0.750000
vt 0.843750 0.250000
vt 0.843750 0.687500
vt 0.843750 0.187500
vt 0.812500 0.375000
vt 0.812500 0.312500
vt 0.812500 0.812500
vt 0.812500 0.750000
vt 0.812500 0.250000
vt 0.812500 0.687500
vt 0.812500 0.187500
vt 0.812500 0.625000
vt 0.812500 0.125000
vt 0.812500 0.562500
vt 0.812500 0.062500
vt 0.812500 0.500000
vt 0.828125 1.000000
vt 0.812500 0.937500
vt 0.828125 0.000000
vt 0.812500 0.437500
vt 0.812500 0.875000
vt 0.781250 0.125000
vt 0.781250 0.062500
vt 0.781250 0.562500
vt 0.781250 0.500000
vt 0.796875 1.000000
vt 0.781250 0.937500
vt 0.796875 0.000000
vt 0.781250 0.437500
vt 0.781250 0.875000
vt 0.781250 0.375000
vt 0.781250 0.812500
vt 0.781250 0.312500
vt 0.781250 0.750000
vt 0.781250 0.250000
vt 0.781250 0.687500
vt 0.781250 0.187500
vt 0.781250 0.625000
vt 0.765625 1.000000
vt 0.765625 0.000000
s 0
f 43/24/15 514/25/15 54/26/15 55/27/15
f 512/28/16 38/29/16 47/30/16 48/31/16
f 515/32/17 43/24/17 55/27/17 56/33/17
f 39/34/18 512/28/18 48/31/18 49/35/18
f 516/36/19 515/32/19 56/33/19 57/37/19
f 513/38/20 39/34/20 49/35/20 50/39/20
f 517/40/21 516/36/21 57/37/21 58/41/21
f 40/42/22 513/38/22 50/39/22 51/43/22
f 518/44/23 517/40/23 58/41/23 59/45/23
f 41/46/24 40/42/24 51/43/24 52/47/24
f 510/48/25 37/49/25 45/50/25
f 44/51/26 518/44/26 59/45/26
f 42/52/27 41/46/27 52/47/27 53/53/27
f 511/54/28 510/48/28 45/50/28 46/55/28
f 514/25/29 42/52/29 53/53/29 54/26/29
f 38/29/30 511/54/30 46/55/30 47/30/30
f 54/26/31 53/53/31 68/56/31 69/57/31
f 47/30/32 46/55/32 61/58/32 62/59/32
f 55/27/33 54/26/33 69/57/33 70/60/33
f 48/31/34 47/30/34 62/59/34 63/61/34
f 56/33/35 55/27/35 70/60/35 71/62/35
f 49/35/36 48/31/36 63/61/36 64/63/36
f 57/37/37 56/33/37 71/62/37 72/64/37
f 50/39/38 49/35/38 64/63/38 65/65/38
f 58/41/39 57/37/39 72/64/39 73/66/39
f 51/43/40 50/39/40 65/65/40 66/67/40
f 59/45/41 58/41/41 73/66/41 74/68/41
f 52/47/42 51/43/42 66/67/42 67/69/42
f 45/50/43 37/70/43 60/71/43
f 44/72/44 59/45/44 74/68/44
f 53/53/45 52/47/45 67/69/45 68/56/45
f 46/55/46 45/50/46 60/71/46 61/58/46
f 73/66/47 72/64/47 87/73/47 88/74/47
f 66/67/48 65/65/48 80/75/48 81/76/48
f 74/68/49 73/66/49 88/74/49 89/77/49
f 67/69/50 66/67/50 81/76/50 82/78/50
f 60/71/51 37/79/51 75/80/51
f 44/81/52 74/68/52 89/77/52
f 68/56/53 67/69/53 82/78/53 83/82/53
f 61/58/54 60/71/54 75/80/54 76/83/54
f 69/57/55 68/56/55 83/82/55 84/84/55
f 62/59/56 61/58/56 76/83/56 77/85/56
f 70/60/57 69/57/57 84/84/57 85/86/57
f 63/61/58 62/59/58 77/85/58 78/87/58
f 71/62/59 70/60/59 85/86/59 86/88/59
f 64/63/60 63/61/60 78/87/60 79/89/60
f 72/64/61 71/62/61 86/88/61 87/73/61
f 65/65/62 64/63/62 79/89/62 80/75/62
f 77/85/63 76/83/63 91/90/63 92/91/63
f 85/86/64 84/84/64 99/92/64 100/93/64
f 78/87/65 77/85/65 92/91/65 93/94/65
f 86/88/66 85/86/66 100/93/66 101/95/66
f 79/89/67 78/87/67 93/94/67 94/96/67
f 87/73/68 86/88/68 101/95/68 102/97/68
f 80/75/69 79/89/69 94/96/69 95/98/69
f 88/74/70 87/73/70 102/97/70 103/99/70
f 81/76/71 80/75/71 95/98/71 96/100/71
f 89/77/72 88/74/72 103/99/72 104/101/72
f 82/78/73 81/76/73 96/100/73 97/102/73
f 75/80/74 37/103/74 90/104/74
f 44/105/75 89/77/75 104/101/75
f 83/82/76 82/78/76 97/102/76 98/106/76
f 76/83/77 75/80/77 90/104/77 91/90/77
f 84/84/78 83/82/78 98/106/78 99/92/78
f 96/100/79 95/98/79 110/107/79 111/108/79
f 104/101/80 103/99/80 118/109/80 119/110/80
f 97/102/81 96/100/81 111/108/81 112/111/81
f 90/104/82 37/112/82 105/113/82
f 44/114/83 104/101/83 119/110/83
f 98/106/84 97/102/84 112/111/84 113/115/84
f 91/90/85 90/104/85 105/113/85 106/116/85
f 99/92/86 98/106/86 113/115/86 114/117/86
f 92/91/87 91/90/87 106/116/87 107/118/87
f 100/93/88 99/92/88 114/117/88 115/119/88
f 93/94/89 92/91/89 107/118/89 108/120/89
f 101/95/90 100/93/90 115/119/90 116/121/90
f 94/96/91 93/94/91 108/120/91 109/122/91
f 102/97/92 101/95/92 116/121/92 117/123/92
f 95/98/93 94/96/93 109/122/93 110/107/93
f 103/99/94 102/97/94 117/123/94 118/109/94
f 115/119/95 114/117/95 129/124/95 130/125/95
f 108/120/96 107/118/96 122/126/96 123/127/96
f 116/121/97 115/119/97 130/125/97 131/128/97
f 109/122/98 108/120/98 123/127/98 124/129/98
f 117/123/99 116/121/99 131/128/99 132/130/99
f 110/107/100 109/122/100 124/129/100 125/131/100
f 118/109/101 117/123/101 132/130/101 133/132/101
f 111/108/102 110/107/102 125/131/102 126/133/102
f 119/110/103 118/109/103 133/132/103 134/134/103
f 112/111/104 111/108/104 126/133/104 127/135/104
f 105/113/105 37/136/105 120/137/105
f 44/138/106 119/110/106 134/134/106
f 113/115/107 112/111/107 127/135/107 128/139/107
f 106/116/108 105/113/108 120/137/108 121/140/108
f 114/117/109 113/115/109 128/139/109 129/124/109
f 107/118/110 106/116/110 121/140/110 122/126/110
f 134/134/111 133/132/111 148/141/111 149/142/111
f 127/135/112 126/133/112 141/143/112 142/144/112
f 120/137/113 37/145/113 135/146/113
f 44/147/114 134/134/114 149/142/114
f 128/139/115 127/135/115 142/144/115 143/148/115
f 121/140/116 120/137/116 135/146/116 136/149/116
f 129/124/117 128/139/117 143/148/117 144/150/117
f 122/126/118 121/140/118 136/149/118 137/151/118
f 130/125/119 129/124/119 144/150/119 145/152/119
f 123/127/120 122/126/120 137/151/120 138/153/120
f 131/128/121 130/125/121 145/152/121 146/154/121
f 124/129/122 123/127/122 138/153/122 139/155/122
f 132/130/123 131/128/123 146/154/123 147/156/123
f 125/131/124 124/129/124 139/155/124 140/157/124
f 133/132/125 132/130/125 147/156/125 148/141/125
f 126/133/126 125/131/126 140/157/126 141/143/126
f 146/154/127 145/152/127 160/158/127 161/159/127
f 139/155/128 138/153/128 153/160/128 154/161/128
f 147/156/129 146/154/129 161/159/129 162/162/129
f 140/157/130 139/155/130 154/161/130 155/163/130
f 148/141/131 147/156/131 162/162/131 163/164/131
f 141/143/132 140/157/132 155/163/132 156/165/132
f 149/142/133 148/141/133 163/164/133 164/166/133
f 142/144/134 141/143/134 156/165/134 157/167/134
f 135/146/135 37/168/135 150/169/135
f 44/170/136 149/142/136 164/166/136
f 143/148/137 142/144/137 157/167/137 158/171/137
f 136/149/138 135/146/138 150/169/138 151/172/138
f 144/150/139 143/148/139 158/171/139 159/173/139
f 137/151/140 136/149/140 151/172/140 152/174/140
f 145/152/141 144/150/141 159/173/141 160/158/141
f 138/153/142 137/151/142 152/174/142 153/160/142
f 150/169/143 37/175/143 165/176/143
f 44/177/144 164/166/144 179/178/144
f 158/171/145 157/167/145 172/179/145 173/180/145
f 151/172/146 150/169/146 165/176/146 166/181/146
f 159/173/147 158/171/147 173/180/147 174/182/147
f 152/174/148 151/172/148 166/181/148 167/183/148
f 160/158/149 159/173/149 174/182/149 175/184/149
f 153/160/150 152/174/150 167/183/150 168/185/150
f 161/159/151 160/158/151 175/184/151 176/186/151
f 154/161/152 153/160/152 168/185/152 169/187/152
f 162/162/153 161/159/153 176/186/153 177/188/153
f 155/163/154 154/161/154 169/187/154 170/189/154
f 163/164/155 162/162/155 177/188/155 178/190/155
f 156/165/156 155/163/156 170/189/156 171/191/156
f 164/166/157 163/164/157 178/190/157 179/178/157
f 157/167/158 156/165/158 171/191/158 172/179/158
f 169/187/159 168/185/159 183/192/159 184/193/159
f 177/188/160 176/186/160 191/194/160 192/195/160
f 170/189/161 169/187/161 184/193/161 185/196/161
f 178/190/162 177/188/162 192/195/162 193/197/162
f 171/191/163 170/189/163 185/196/163 186/198/163
f 179/178/164 178/190/164 193/197/164 194/199/164
f 172/179/165 171/191/165 186/198/165 187/200/165
f 165/176/166 37/201/166 180/202/166
f 44/203/167 179/178/167 194/199/167
f 173/180/168 172/179/168 187/200/168 188/204/168
f 166/181/169 165/176/169 180/202/169 181/205/169
f 174/182/170 173/180/170 188/204/170 189/206/170
f 167/183/171 166/181/171 181/205/171 182/207/171
f 175/184/172 174/182/172 189/206/172 190/208/172
f 168/185/173 167/183/173 182/207/173 183/192/173
f 176/186/174 175/184/174 190/208/174 191/194/174
f 188/204/175 187/200/175 202/209/175 203/210/175
f 181/205/176 180/202/176 195/211/176 196/212/176
f 189/206/177 188/204/177 203/210/177 204/213/177
f 182/207/178 181/205/178 196/212/178 197/214/178
f 190/208/179 189/206/179 204/213/179 205/215/179
f 183/192/180 182/207/180 197/214/180 198/216/180
f 191/194/181 190/208/181 205/215/181 206/217/181
f 184/193/182 183/192/182 198/216/182 199/218/182
f 192/195/183 191/194/183 206/217/183 207/219/183
f 185/196/184 184/193/184 199/218/184 200/220/184
f 193/197/185 192/195/185 207/219/185 208/221/185
f 186/198/186 185/196/186 200/220/186 201/222/186
f 194/199/187 193/197/187 208/221/187 209/223/187
f 187/200/188 186/198/188 201/222/188 202/209/188
f 180/202/189 37/224/189 195/211/189
f 44/225/190 194/199/190 209/223/190
f 207/219/191 206/217/191 221/226/191 222/227/191
f 200/220/192 199/218/192 214/228/192 215/229/192
f 208/221/193 207/219/193 222/227/193 223/230/193
f 201/222/194 200/220/194 215/229/194 216/231/194
f 209/223/195 208/221/195 223/230/195 224/232/195
f 202/209/196 201/222/196 216/231/196 217/233/196
f 195/211/197 37/234/197 210/235/197
f 44/236/198 209/223/198 224/232/198
f 203/210/199 202/209/199 217/233/199 218/237/199
f 196/212/200 195/211/200 210/235/200 211/238/200
f 204/213/201 203/210/201 218/237/201 219/239/201
f 197/214/202 196/212/202 211/238/202 212/240/202
f 205/215/203 204/213/203 219/239/203 220/241/203
f 198/216/204 197/214/204 212/240/204 213/242/204
f 206/217/205 205/215/205 220/241/205 221/226/205
f 199/218/206 198/216/206 213/242/206 214/228/206
f 211/238/207 210/235/207 225/243/207 226/244/207
f 219/239/208 218/237/208 233/245/208 234/246/208
f 212/240/209 211/238/209 226/244/209 227/247/209
f 220/241/210 219/239/210 234/246/210 235/248/210
f 213/242/211 212/240/211 227/247/211 228/249/211
f 221/226/212 220/241/212 235/248/212 236/250/212
f 214/228/213 213/242/213 228/249/213 229/251/213
f 222/227/214 221/226/214 236/250/214 237/252/214
f 215/229/215 214/228/215 229/251/215 230/253/215
f 223/230/216 222/227/216 237/252/216 238/254/216
f 216/231/217 215/229/217 230/253/217 231/255/217
f 224/232/218 223/230/218 238/254/218 239/256/218
f 217/233/219 216/231/219 231/255/219 232/257/219
f 210/235/220 37/258/220 225/243/220
f 44/259/221 224/232/221 239/256/221
f 218/237/222 217/233/222 232/257/222 233/245/222
f 230/253/223 229/251/223 244/260/223 245/261/223
f 238/254/224 237/252/224 252/262/224 253/263/224
f 231/255/225 230/253/225 245/261/225 246/264/225
f 239/256/226 238/254/226 253/263/226 254/265/226
f 232/257/227 231/255/227 246/264/227 247/266/227
f 225/243/228 37/267/228 240/268/228
f 44/269/229 239/256/229 254/265/229
f 233/245/230 232/257/230 247/266/230 248/270/230
f 226/244/231 225/243/231 240/268/231 241/271/231
f 234/246/232 233/245/232 248/270/232 249/272/232
f 227/247/233 226/244/233 241/271/233 242/273/233
f 235/248/234 234/246/234 249/272/234 250/274/234
f 228/249/235 227/247/235 242/273/235 243/275/235
f 236/250/236 235/248/236 250/274/236 251/276/236
f 229/251/237 228/249/237 243/275/237 244/260/237
f 237/252/238 236/250/238 251/276/238 252/262/238
f 249/272/239 248/270/239 263/277/239 264/278/239
f 242/273/240 241/271/240 256/279/240 257/280/240
f 250/274/241 249/272/241 264/278/241 265/281/241
f 243/275/242 242/273/242 257/280/242 258/282/242
f 251/276/243 250/274/243 265/281/243 266/283/243
f 244/260/244 243/275/244 258/282/244 259/284/244
f 252/262/245 251/276/245 266/283/245 267/285/245
f 245/261/246 244/260/246 259/284/246 260/286/246
f 253/263/247 252/262/247 267/285/247 268/287/247
f 246/264/248 245/261/248 260/286/248 261/288/248
f 254/265/249 253/263/249 268/287/249 269/289/249
f 247/266/250 246/264/250 261/288/250 262/290/250
f 240/268/251 37/291/251 255/292/251
f 44/293/252 254/265/252 269/289/252
f 248/270/253 247/266/253 262/290/253 263/277/253
f 241/271/254 240/268/254 255/292/254 256/279/254
f 268/287/255 267/285/255 282/294/255 283/295/255
f 261/288/256 260/286/256 275/296/256 276/297/256
f 269/289/257 268/287/257 283/295/257 284/298/257
f 262/290/258 261/288/258 276/297/258 277/299/258
f 255/292/259 37/300/259 270/301/259
f 44/302/260 269/289/260 284/298/260
f 263/277/261 262/290/261 277/299/261 278/303/261
f 256/279/262 255/292/262 270/301/262 271/304/262
f 264/278/263 263/277/263 278/303/263 279/305/263
f 257/280/264 256/279/264 271/304/264 272/306/264
f 265/281/265 264/278/265 279/305/265 280/307/265
f 258/282/266 257/280/266 272/306/266 273/308/266
f 266/283/267 265/281/267 280/307/267 281/309/267
f 259/284/268 258/282/268 273/308/268 274/310/268
f 267/285/269 266/283/269 281/309/269 282/294/269
f 260/286/270 259/284/270 274/310/270 275/296/270
f 280/307/271 279/305/271 294/311/271 295/312/271
f 273/308/272 272/306/272 287/313/272 288/314/272
f 281/309/273 280/307/273 295/312/273 296/315/273
f 274/310/274 273/308/274 288/314/274 289/316/274
f 282/294/275 281/309/275 296/315/275 297/317/275
f 275/296/276 274/310/276 289/316/276 290/318/276
f 283/295/277 282/294/277 297/317/277 298/319/277
f 276/297/278 275/296/278 290/318/278 291/320/278
f 284/298/279 283/295/279 298/319/279 299/321/279
f 277/299/280 276/297/280 291/320/280 292/322/280
f 270/301/281 37/323/281 285/324/281
f 44/325/282 284/298/282 299/321/282
f 278/303/283 277/299/283 292/322/283 293/326/283
f 271/304/284 270/301/284 285/324/284 286/327/284
f 279/305/285 278/303/285 293/326/285 294/311/285
f 272/306/286 271/304/286 286/327/286 287/313/286
f 299/321/287 298/319/287 313/328/287 314/329/287
f 292/322/288 291/320/288 306/330/288 307/331/288
f 285/324/289 37/332/289 300/333/289
f 44/334/290 299/321/290 314/329/290
f 293/326/291 292/322/291 307/331/291 308/335/291
f 286/327/292 285/324/292 300/333/292 301/336/292
f 294/311/293 293/326/293 308/335/293 309/337/293
f 287/313/294 286/327/294 301/336/294 302/338/294
f 295/312/295 294/311/295 309/337/295 310/339/295
f 288/314/296 287/313/296 302/338/296 303/340/296
f 296/315/297 295/312/297 310/339/297 311/341/297
f 289/316/298 288/314/298 303/340/298 304/342/298
f 297/317/299 296/315/299 311/341/299 312/343/299
f 290/318/300 289/316/300 304/342/300 305/344/300
f 298/319/301 297/317/301 312/343/301 313/328/301
f 291/320/302 290/318/302 305/344/302 306/330/302
f 303/340/303 302/338/303 317/345/303 318/346/303
f 311/341/304 310/339/304 325/347/304 326/348/304
f 304/342/305 303/340/305 318/346/305 319/349/305
f 312/343/306 311/341/306 326/348/306 327/350/306
f 305/344/307 304/342/307 319/349/307 320/351/307
f 313/328/308 312/343/308 327/350/308 328/352/308
f 306/330/309 305/344/309 320/351/309 321/353/309
f 314/329/310 313/328/310 328/352/310 329/354/310
f 307/331/311 306/330/311 321/353/311 322/355/311
f 300/333/312 37/356/312 315/357/312
f 44/358/313 314/329/313 329/354/313
f 308/335/314 307/331/314 322/355/314 323/359/314
f 301/336/315 300/333/315 315/357/315 316/360/315
f 309/337/316 308/335/316 323/359/316 324/361/316
f 302/338/317 301/336/317 316/360/317 317/345/317
f 310/339/318 309/337/318 324/361/318 325/347/318
f 322/355/319 321/353/319 336/362/319 337/363/319
f 315/357/320 37/364/320 330/365/320
f 44/366/321 329/354/321 344/367/321
f 323/359/322 322/355/322 337/363/322 338/368/322
f 316/360/323 315/357/323 330/365/323 331/369/323
f 324/361/324 323/359/324 338/368/324 339/370/324
f 317/345/325 316/360/325 331/369/325 332/371/325
f 325/347/326 324/361/326 339/370/326 340/372/326
f 318/346/327 317/345/327 332/371/327 333/373/327
f 326/348/328 325/347/328 340/372/328 341/374/328
f 319/349/329 318/346/329 333/373/329 334/375/329
f 327/350/330 326/348/330 341/374/330 342/376/330
f 320/351/331 319/349/331 334/375/331 335/377/331
f 328/352/332 327/350/332 342/376/332 343/378/332
f 321/353/333 320/351/333 335/377/333 336/362/333
f 329/354/334 328/352/334 343/378/334 344/367/334
f 341/374/335 340/372/335 355/379/335 356/380/335
f 334/375/336 333/373/336 348/381/336 349/382/336
f 342/376/337 341/374/337 356/380/337 357/383/337
f 335/377/338 334/375/338 349/382/338 350/384/338
f 343/378/339 342/376/339 357/383/339 358/385/339
f 336/362/340 335/377/340 350/384/340 351/386/340
f 344/367/341 343/378/341 358/385/341 359/387/341
f 337/363/342 336/362/342 351/386/342 352/388/342
f 330/365/343 37/389/343 345/390/343
f 44/391/344 344/367/344 359/387/344
f 338/368/345 337/363/345 352/388/345 353/392/345
f 331/369/346 330/365/346 345/390/346 346/393/346
f 339/370/347 338/368/347 353/392/347 354/394/347
f 332/371/348 331/369/348 346/393/348 347/395/348
f 340/372/349 339/370/349 354/394/349 355/379/349
f 333/373/350 332/371/350 347/395/350 348/381/350
f 345/390/351 37/396/351 360/397/351
f 44/398/352 359/387/352 374/399/352
f 353/392/353 352/388/353 367/400/353 368/401/353
f 346/393/354 345/390/354 360/397/354 361/402/354
f 354/394/355 353/392/355 368/401/355 369/403/355
f 347/395/356 346/393/356 361/402/356 362/404/356
f 355/379/357 354/394/357 369/403/357 370/405/357
f 348/381/358 347/395/358 362/404/358 363/406/358
f 356/380/359 355/379/359 370/405/359 371/407/359
f 349/382/360 348/381/360 363/406/360 364/408/360
f 357/383/361 356/380/361 371/407/361 372/409/361
f 350/384/362 349/382/362 364/408/362 365/410/362
f 358/385/363 357/383/363 372/409/363 373/411/363
f 351/386/364 350/384/364 365/410/364 366/412/364
f 359/387/365 358/385/365 373/411/365 374/399/365
f 352/388/366 351/386/366 366/412/366 367/400/366
f 364/408/367 363/406/367 378/413/367 379/414/367
f 372/409/368 371/407/368 386/415/368 387/416/368
f 365/410/369 364/408/369 379/414/369 380/417/369
f 373/411/370 372/409/370 387/416/370 388/418/370
f 366/412/371 365/410/371 380/417/371 381/419/371
f 374/399/372 373/411/372 388/418/372 389/420/372
f 367/400/373 366/412/373 381/419/373 382/421/373
f 360/397/374 37/422/374 375/423/374
f 44/424/375 374/399/375 389/420/375
f 368/401/376 367/400/376 382/421/376 383/425/376
f 361/402/377 360/397/377 375/423/377 376/426/377
f 369/403/378 368/401/378 383/425/378 384/427/378
f 362/404/379 361/402/379 376/426/379 377/428/379
f 370/405/380 369/403/380 384/427/380 385/429/380
f 363/406/381 362/404/381 377/428/381 378/413/381
f 371/407/382 370/405/382 385/429/382 386/415/382
f 383/425/383 382/421/383 397/430/383 398/431/383
f 376/426/384 375/423/384 390/432/384 391/433/384
f 384/427/385 383/425/385 398/431/385 399/434/385
f 377/428/386 376/426/386 391/433/386 392/435/386
f 385/429/387 384/427/387 399/434/387 400/436/387
f 378/413/388 377/428/388 392/435/388 393/437/388
f 386/415/389 385/429/389 400/436/389 401/438/389
f 379/414/390 378/413/390 393/437/390 394/439/390
f 387/416/391 386/415/391 401/438/391 402/440/391
f 380/417/392 379/414/392 394/439/392 395/441/392
f 388/418/393 387/416/393 402/440/393 403/442/393
f 381/419/394 380/417/394 395/441/394 396/443/394
f 389/420/395 388/418/395 403/442/395 404/444/395
f 382/421/396 381/419/396 396/443/396 397/430/396
f 375/423/397 37/445/397 390/432/397
f 44/446/398 389/420/398 404/444/398
f 402/447/399 401/448/399 416/449/399 417/450/399
f 395/451/400 394/452/400 409/453/400 410/454/400
f 403/455/401 402/447/401 417/450/401 418/456/401
f 396/457/402 395/451/402 410/454/402 411/458/402
f 404/459/403 403/455/403 418/456/403 419/460/403
f 397/461/404 396/457/404 411/458/404 412/462/404
f 390/463/405 37/464/405 405/465/405
f 44/466/406 404/459/406 419/460/406
f 398/467/407 397/461/407 412/462/407 413/468/407
f 391/469/408 390/463/408 405/465/408 406/470/408
f 399/471/409 398/467/409 413/468/409 414/472/409
f 392/473/410 391/469/410 406/470/410 407/474/410
f 400/475/411 399/471/411 414/472/411 415/476/411
f 393/477/412 392/473/412 407/474/412 408/478/412
f 401/448/413 400/475/413 415/476/413 416/449/413
f 394/452/414 393/477/414 408/478/414 409/453/414
f 414/472/415 413/468/415 428/479/415 429/480/415
f 407/474/416 406/470/416 421/481/416 422/482/416
f 415/476/417 414/472/417 429/480/417 430/483/417
f 408/478/418 407/474/418 422/482/418 423/484/418
f 416/449/419 415/476/419 430/483/419 431/485/419
f 409/453/420 408/478/420 423/484/420 424/486/420
f 417/450/421 416/449/421 431/485/421 432/487/421
f 410/454/422 409/453/422 424/486/422 425/488/422
f 418/456/423 417/450/423 432/487/423 433/489/423
f 411/458/424 410/454/424 425/488/424 426/490/424
f 419/460/425 418/456/425 433/489/425 434/491/425
f 412/462/426 411/458/426 426/490/426 427/492/426
f 405/465/427 37/493/427 420/494/427
f 44/495/428 419/460/428 434/491/428
f 413/468/429 412/462/429 427/492/429 428/479/429
f 406/470/430 405/465/430 420/494/430 421/481/430
f 433/489/431 432/487/431 447/496/431 448/497/431
f 426/490/432 425/488/432 440/498/432 441/499/432
f 434/491/433 433/489/433 448/497/433 449/500/433
f 427/492/434 426/490/434 441/499/434 442/501/434
f 420/494/435 37/502/435 435/503/435
f 44/504/436 434/491/436 449/500/436
f 428/479/437 427/492/437 442/501/437 443/505/437
f 421/481/438 420/494/438 435/503/438 436/506/438
f 429/480/439 428/479/439 443/505/439 444/507/439
f 422/482/440 421/481/440 436/506/440 437/508/440
f 430/483/441 429/480/441 444/507/441 445/509/441
f 423/484/442 422/482/442 437/508/442 438/510/442
f 431/485/443 430/483/443 445/509/443 446/511/443
f 424/486/444 423/484/444 438/510/444 439/512/444
f 432/487/445 431/485/445 446/511/445 447/496/445
f 425/488/446 424/486/446 439/512/446 440/498/446
f 437/508/447 436/506/447 451/513/447 452/514/447
f 445/509/448 444/507/448 459/515/448 460/516/448
f 438/510/449 437/508/449 452/514/449 453/517/449
f 446/511/450 445/509/450 460/516/450 461/518/450
f 439/512/451 438/510/451 453/517/451 454/519/451
f 447/496/452 446/511/452 461/518/452 462/520/452
f 440/498/453 439/512/453 454/519/453 455/521/453
f 448/497/454 447/496/454 462/520/454 463/522/454
f 441/499/455 440/498/455 455/521/455 456/523/455
f 449/500/456 448/497/456 463/522/456 464/524/456
f 442/501/457 441/499/457 456/523/457 457/525/457
f 435/503/458 37/526/458 450/527/458
f 44/528/459 449/500/459 464/524/459
f 443/505/460 442/501/460 457/525/460 458/529/460
f 436/506/461 435/503/461 450/527/461 451/513/461
f 444/507/462 443/505/462 458/529/462 459/515/462
f 456/523/463 455/521/463 470/530/463 471/531/463
f 464/524/464 463/522/464 478/532/464 479/533/464
f 457/525/465 456/523/465 471/531/465 472/534/465
f 450/527/466 37/535/466 465/536/466
f 44/537/467 464/524/467 479/533/467
f 458/529/468 457/525/468 472/534/468 473/538/468
f 451/513/469 450/527/469 465/536/469 466/539/469
f 459/515/470 458/529/470 473/538/470 474/540/470
f 452/514/471 451/513/471 466/539/471 467/541/471
f 460/516/472 459/515/472 474/540/472 475/542/472
f 453/517/473 452/514/473 467/541/473 468/543/473
f 461/518/474 460/516/474 475/542/474 476/544/474
f 454/519/475 453/517/475 468/543/475 469/545/475
f 462/520/476 461/518/476 476/544/476 477/546/476
f 455/521/477 454/519/477 469/545/477 470/530/477
f 463/522/478 462/520/478 477/546/478 478/532/478
f 475/542/479 474/540/479 489/547/479 490/548/479
f 468/543/480 467/541/480 482/549/480 483/550/480
f 476/544/481 475/542/481 490/548/481 491/551/481
f 469/545/482 468/543/482 483/550/482 484/552/482
f 477/546/483 476/544/483 491/551/483 492/553/483
f 470/530/484 469/545/484 484/552/484 485/554/484
f 478/532/485 477/546/485 492/553/485 493/555/485
f 471/531/486 470/530/486 485/554/486 486/556/486
f 479/533/487 478/532/487 493/555/487 494/557/487
f 472/534/488 471/531/488 486/556/488 487/558/488
f 465/536/489 37/559/489 480/560/489
f 44/561/490 479/533/490 494/557/490
f 473/538/491 472/534/491 487/558/491 488/562/491
f 466/539/492 465/536/492 480/560/492 481/563/492
f 474/540/493 473/538/493 488/562/493 489/547/493
f 467/541/494 466/539/494 481/563/494 482/549/494
f 494/557/495 493/555/495 508/564/495 509/565/495
f 487/558/496 486/556/496 501/566/496 502/567/496
f 480/560/497 37/568/497 495/569/497
f 44/570/498 494/557/498 509/565/498
f 488/562/499 487/558/499 502/567/499 503/571/499
f 481/563/500 480/560/500 495/569/500 496/572/500
f 489/547/501 488/562/501 503/571/501 504/573/501
f 482/549/502 481/563/502 496/572/502 497/574/502
f 490/548/503 489/547/503 504/573/503 505/575/503
f 483/550/504 482/549/504 497/574/504 498/576/504
f 491/551/505 490/548/505 505/575/505 506/577/505
f 484/552/506 483/550/506 498/576/506 499/578/506
f 492/553/507 491/551/507 506/577/507 507/579/507
f 485/554/508 484/552/508 499/578/508 500/580/508
f 493/555/509 492/553/509 507/579/509 508/564/509
f 486/556/510 485/554/510 500/580/510 501/566/510
f 498/576/511 497/574/511 38/29/511 512/28/511
f 506/577/512 505/575/512 43/24/512 515/32/512
f 499/578/513 498/576/513 512/28/513 39/34/513
f 507/579/514 506/577/514 515/32/514 516/36/514
f 500/580/515 499/578/515 39/34/515 513/38/515
f 508/564/516 507/579/516 516/36/516 517/40/516
f 501/566/517 500/580/517 513/38/517 40/42/517
f 509/565/518 508/564/518 517/40/518 518/44/518
f 502/567/519 501/566/519 40/42/519 41/46/519
f 495/569/520 37/581/520 510/48/520
f 44/582/521 509/565/521 518/44/521
f 503/571/522 502/567/522 41/46/522 42/52/522
f 496/572/523 495/569/523 510/48/523 511/54/523
f 504/573/524 503/571/524 42/52/524 514/25/524
f 497/574/525 496/572/525 511/54/525 38/29/525
f 505/575/526 504/573/526 514/25/526 43/24/526
