# Blender 5.1.1
# www.blender.org
mtllib STreeeeeetalelepiej.mtl
o Plane.003
v -73.266518 0.000000 -4.523603
v -73.519768 0.000000 4.693428
v -73.266518 0.000000 -9.276978
v -64.216072 0.000000 -9.105455
v -14.574104 0.000000 9.846298
v -53.157444 0.000000 -14.070557
v 41.901085 0.000000 14.117947
v -28.848316 0.000000 -11.015666
v 41.859123 0.000000 -8.042519
v 4.321480 0.000000 -9.880080
v -13.745369 0.000000 -19.495552
v -0.344101 0.000000 -18.470680
v -10.609879 0.000000 -59.788918
v 2.791389 0.000000 -58.764046
v -20.456829 -0.362895 -13.938112
v 1.157898 -0.181035 -13.544304
v -73.266518 -0.490000 -4.523603
v -73.519768 -0.490000 4.693428
v -73.266518 -0.490000 -9.276978
v -64.216072 -0.490000 -9.105455
v -14.573925 -0.489999 9.847043
v -53.157410 -0.490000 -14.070412
v 41.901295 -0.489999 14.118823
v -28.848104 -0.489999 -11.014790
v 41.859333 -0.489999 -8.041642
v 4.321691 -0.489999 -9.879204
v -13.745242 -0.490000 -19.495026
v -0.343984 -0.490000 -18.470196
v -10.609879 -0.490000 -59.788918
v 2.791389 -0.490000 -58.764046
v -20.456617 -0.852894 -13.937236
v 1.158109 -0.671034 -13.543427
vn -0.0000 1.0000 -0.0000
vn -0.0004 1.0000 -0.0018
vn -0.0000 -1.0000 -0.0000
vn 0.0004 -1.0000 0.0018
vn -1.0000 -0.0000 -0.0000
vn -0.9996 -0.0000 -0.0275
vn 0.0189 -0.0000 -0.9998
vn -0.4096 -0.0001 -0.9123
vn -0.0871 0.0007 0.9962
vn -0.3290 -0.0018 -0.9443
vn 0.1247 -0.0010 -0.9922
vn -0.0754 0.0016 0.9972
vn 1.0000 0.0004 -0.0019
vn 0.0489 -0.0018 -0.9988
vn 0.9565 -0.0001 -0.2916
vn 0.0763 -0.0000 -0.9971
vn -0.9970 -0.0002 -0.0776
vn 0.9970 0.0002 0.0776
vn -0.6378 -0.0013 -0.7702
vn 0.7569 -0.0008 -0.6535
vt 0.000000 0.000000
vt 1.000000 0.000000
vt 1.000000 1.000000
vt 0.000000 1.000000
vt 1.000000 0.500000
vt 1.000000 0.750000
vt 1.000000 0.781250
vt 1.000000 0.812500
vt 1.000000 0.875000
vt 1.000000 0.937500
s 0
f 1/1/1 2/2/1 4/3/1 3/4/1
f 4/3/1 2/2/1 5/2/1 6/3/1
f 6/3/2 5/2/2 7/2/2 9/5/2 10/6/2 16/7/2 12/8/2 11/9/2 15/10/2 8/3/2
f 11/9/1 12/8/1 14/8/1 13/9/1
f 17/1/3 19/4/3 20/3/3 18/2/3
f 20/3/3 22/3/3 21/2/3 18/2/3
f 22/3/4 24/3/4 31/10/4 27/9/4 28/8/4 32/7/4 26/6/4 25/5/4 23/2/4 21/2/4
f 27/9/3 29/9/3 30/8/3 28/8/3
f 1/1/5 3/4/5 19/4/5 17/1/5
f 2/2/6 1/1/6 17/1/6 18/2/6
f 3/4/7 4/3/7 20/3/7 19/4/7
f 4/3/8 6/3/8 22/3/8 20/3/8
f 5/2/9 2/2/9 18/2/9 21/2/9
f 8/3/10 15/10/10 31/10/10 24/3/10
f 6/3/11 8/3/11 24/3/11 22/3/11
f 7/2/12 5/2/12 21/2/12 23/2/12
f 9/5/13 7/2/13 23/2/13 25/5/13
f 10/6/14 9/5/14 25/5/14 26/6/14
f 12/8/15 16/7/15 32/7/15 28/8/15
f 13/9/16 14/8/16 30/8/16 29/9/16
f 11/9/17 13/9/17 29/9/17 27/9/17
f 14/8/18 12/8/18 28/8/18 30/8/18
f 15/10/19 11/9/19 27/9/19 31/10/19
f 16/7/20 10/6/20 26/6/20 32/7/20
o Cube.007
v -72.901161 -0.688427 -6.959317
v -72.901161 0.116257 -6.959317
v -72.871338 -0.688427 -7.763447
v -72.871338 0.116257 -7.763447
v -70.960106 -0.688427 -6.887318
v -70.960106 0.116257 -6.887318
v -70.930275 -0.688427 -7.691448
v -70.930275 0.116257 -7.691448
v -70.261322 -0.688427 -6.861399
v -70.261322 0.116257 -6.861399
v -70.231491 -0.688427 -7.665529
v -70.231491 0.116257 -7.665529
v -68.320267 -0.688427 -6.789400
v -68.320267 0.116257 -6.789400
v -68.290436 -0.688427 -7.593530
v -68.290436 0.116257 -7.593530
v -67.621483 -0.688427 -6.763480
v -67.621483 0.116257 -6.763480
v -67.591652 -0.688427 -7.567611
v -67.591652 0.116257 -7.567611
v -65.680420 -0.688427 -6.691482
v -65.680420 0.116257 -6.691482
v -65.650597 -0.688427 -7.495612
v -65.650597 0.116257 -7.495612
v -64.981644 -0.688427 -6.665562
v -64.981644 0.116257 -6.665562
v -64.951813 -0.688427 -7.469692
v -64.951813 0.116257 -7.469692
v -63.040585 -0.688427 -6.593564
v -63.040585 0.116257 -6.593564
v -63.010757 -0.688427 -7.397694
v -63.010757 0.116257 -7.397694
v -62.341801 -0.688427 -6.567644
v -62.341801 0.116257 -6.567644
v -62.311974 -0.688427 -7.371774
v -62.311974 0.116257 -7.371774
v -60.400742 -0.688427 -6.495645
v -60.400742 0.116257 -6.495645
v -60.370914 -0.688427 -7.299776
v -60.370914 0.116257 -7.299776
v -59.701962 -0.688427 -6.469726
v -59.701962 0.116257 -6.469726
v -59.672134 -0.688427 -7.273856
v -59.672134 0.116257 -7.273856
v -57.760902 -0.688427 -6.397727
v -57.760902 0.116257 -6.397727
v -57.731075 -0.688427 -7.201857
v -57.731075 0.116257 -7.201857
v -57.062122 -0.688427 -6.371808
v -57.062122 0.116257 -6.371808
v -57.032295 -0.688427 -7.175938
v -57.032295 0.116257 -7.175938
v -55.121063 -0.688427 -6.299809
v -55.121063 0.116257 -6.299809
v -55.091236 -0.688427 -7.103939
v -55.091236 0.116257 -7.103939
v -54.422279 -0.688427 -6.273889
v -54.422279 0.116257 -6.273889
v -54.392456 -0.688427 -7.078020
v -54.392456 0.116257 -7.078020
v -52.481224 -0.688427 -6.201890
v -52.481224 0.116257 -6.201890
v -52.451393 -0.688427 -7.006021
v -52.451393 0.116257 -7.006021
v -51.782440 -0.688427 -6.175971
v -51.782440 0.116257 -6.175971
v -51.752617 -0.688427 -6.980102
v -51.752617 0.116257 -6.980102
v -49.841385 -0.688427 -6.103972
v -49.841385 0.116257 -6.103972
v -49.811554 -0.688427 -6.908103
v -49.811554 0.116257 -6.908103
v -49.142601 -0.688427 -6.078053
v -49.142601 0.116257 -6.078053
v -49.112778 -0.688427 -6.882183
v -49.112778 0.116257 -6.882183
v -47.201542 -0.688427 -6.006054
v -47.201542 0.116257 -6.006054
v -47.171715 -0.688427 -6.810184
v -47.171715 0.116257 -6.810184
v -46.502762 -0.688427 -5.980134
v -46.502762 0.116257 -5.980134
v -46.472939 -0.688427 -6.784265
v -46.472939 0.116257 -6.784265
v -44.561707 -0.688427 -5.908136
v -44.561707 0.116257 -5.908136
v -44.531876 -0.688427 -6.712266
v -44.531876 0.116257 -6.712266
v -43.862923 -0.688427 -5.882216
v -43.862923 0.116257 -5.882216
v -43.833092 -0.688427 -6.686347
v -43.833092 0.116257 -6.686347
v -41.921864 -0.688427 -5.810218
v -41.921864 0.116257 -5.810218
v -41.892036 -0.688427 -6.614348
v -41.892036 0.116257 -6.614348
v -72.811378 -0.688427 -9.379749
v -72.811378 0.116257 -9.379749
v -72.781555 -0.688427 -10.183880
v -72.781555 0.116257 -10.183880
v -70.870323 -0.688427 -9.307751
v -70.870323 0.116257 -9.307751
v -70.840492 -0.688427 -10.111881
v -70.840492 0.116257 -10.111881
v -70.171539 -0.688427 -9.281831
v -70.171539 0.116257 -9.281831
v -70.141716 -0.688427 -10.085961
v -70.141716 0.116257 -10.085961
v -68.230484 -0.688427 -9.209832
v -68.230484 0.116257 -9.209832
v -68.200653 -0.688427 -10.013963
v -68.200653 0.116257 -10.013963
v -67.531700 -0.688427 -9.183912
v -67.531700 0.116257 -9.183912
v -67.501877 -0.688427 -9.988043
v -67.501877 0.116257 -9.988043
v -65.590645 -0.688427 -9.111914
v -65.590645 0.116257 -9.111914
v -65.560814 -0.688427 -9.916044
v -65.560814 0.116257 -9.916044
v -64.891861 -0.688427 -9.085995
v -64.891861 0.116257 -9.085995
v -64.862038 -0.688427 -9.890125
v -64.862038 0.116257 -9.890125
v -62.950806 -0.688427 -9.013996
v -62.950806 0.116257 -9.013996
v -62.920975 -0.688427 -9.818127
v -62.920975 0.116257 -9.818127
v -62.252022 -0.688427 -8.988076
v -62.252022 0.116257 -8.988076
v -62.222195 -0.688427 -9.792207
v -62.222195 0.116257 -9.792207
v -60.310963 -0.688427 -8.916078
v -60.310963 0.116257 -8.916078
v -60.281136 -0.688427 -9.720208
v -60.281136 0.116257 -9.720208
v -59.612183 -0.688427 -8.890158
v -59.612183 0.116257 -8.890158
v -59.582355 -0.688427 -9.694288
v -59.582355 0.116257 -9.694288
v -57.671124 -0.688427 -8.818159
v -57.671124 0.116257 -8.818159
v -57.641296 -0.688427 -9.622290
v -57.641296 0.116257 -9.622290
v -56.972343 -0.688427 -8.792240
v -56.972343 0.116257 -8.792240
v -56.942513 -0.688427 -9.596371
v -56.942513 0.116257 -9.596371
v -55.031284 -0.688427 -8.720242
v -55.031284 0.116257 -8.720242
v -55.001457 -0.688427 -9.524372
v -55.001457 0.116257 -9.524372
v -54.332504 -0.688427 -8.694322
v -54.332504 0.116257 -8.694322
v -54.302673 -0.688427 -9.498452
v -54.302673 0.116257 -9.498452
v -52.391441 -0.688427 -8.622323
v -52.391441 0.116257 -8.622323
v -52.361614 -0.688427 -9.426454
v -52.361614 0.116257 -9.426454
v -51.692665 -0.688427 -8.596403
v -51.692665 0.116257 -8.596403
v -51.662834 -0.688427 -9.400534
v -51.662834 0.116257 -9.400534
v -49.751602 -0.688427 -8.524405
v -49.751602 0.116257 -8.524405
v -49.721775 -0.688427 -9.328535
v -49.721775 0.116257 -9.328535
v -49.052826 -0.688427 -8.498486
v -49.052826 0.116257 -8.498486
v -49.022995 -0.688427 -9.302616
v -49.022995 0.116257 -9.302616
v -47.111763 -0.688427 -8.426486
v -47.111763 0.116257 -8.426486
v -47.081932 -0.688427 -9.230617
v -47.081932 0.116257 -9.230617
v -46.412987 -0.688427 -8.400567
v -46.412987 0.116257 -8.400567
v -46.383156 -0.688427 -9.204698
v -46.383156 0.116257 -9.204698
v -44.471924 -0.688427 -8.328568
v -44.471924 0.116257 -8.328568
v -44.442097 -0.688427 -9.132699
v -44.442097 0.116257 -9.132699
v -43.773140 -0.688427 -8.302649
v -43.773140 0.116257 -8.302649
v -43.743313 -0.688427 -9.106779
v -43.743313 0.116257 -9.106779
v -41.832085 -0.688427 -8.230650
v -41.832085 0.116257 -8.230650
v -41.802254 -0.688427 -9.034781
v -41.802254 0.116257 -9.034781
vn -0.9993 -0.0000 -0.0371
vn 0.0371 -0.0000 -0.9993
vn 0.9993 -0.0000 0.0371
vn -0.0371 -0.0000 0.9993
vn -0.0000 -1.0000 -0.0000
vn -0.0000 1.0000 -0.0000
vt 0.375000 0.000000
vt 0.625000 0.000000
vt 0.625000 0.250000
vt 0.375000 0.250000
vt 0.625000 0.500000
vt 0.375000 0.500000
vt 0.625000 0.750000
vt 0.375000 0.750000
vt 0.625000 1.000000
vt 0.375000 1.000000
vt 0.125000 0.500000
vt 0.125000 0.750000
vt 0.875000 0.500000
vt 0.875000 0.750000
s 0
usemtl 
f 33/11/21 34/12/21 36/13/21 35/14/21
f 35/14/22 36/13/22 40/15/22 39/16/22
f 39/16/23 40/15/23 38/17/23 37/18/23
f 37/18/24 38/17/24 34/19/24 33/20/24
f 35/21/25 39/16/25 37/18/25 33/22/25
f 40/15/26 36/23/26 34/24/26 38/17/26
f 41/11/21 42/12/21 44/13/21 43/14/21
f 43/14/22 44/13/22 48/15/22 47/16/22
f 47/16/23 48/15/23 46/17/23 45/18/23
f 45/18/24 46/17/24 42/19/24 41/20/24
f 43/21/25 47/16/25 45/18/25 41/22/25
f 48/15/26 44/23/26 42/24/26 46/17/26
f 49/11/21 50/12/21 52/13/21 51/14/21
f 51/14/22 52/13/22 56/15/22 55/16/22
f 55/16/23 56/15/23 54/17/23 53/18/23
f 53/18/24 54/17/24 50/19/24 49/20/24
f 51/21/25 55/16/25 53/18/25 49/22/25
f 56/15/26 52/23/26 50/24/26 54/17/26
f 57/11/21 58/12/21 60/13/21 59/14/21
f 59/14/22 60/13/22 64/15/22 63/16/22
f 63/16/23 64/15/23 62/17/23 61/18/23
f 61/18/24 62/17/24 58/19/24 57/20/24
f 59/21/25 63/16/25 61/18/25 57/22/25
f 64/15/26 60/23/26 58/24/26 62/17/26
f 65/11/21 66/12/21 68/13/21 67/14/21
f 67/14/22 68/13/22 72/15/22 71/16/22
f 71/16/23 72/15/23 70/17/23 69/18/23
f 69/18/24 70/17/24 66/19/24 65/20/24
f 67/21/25 71/16/25 69/18/25 65/22/25
f 72/15/26 68/23/26 66/24/26 70/17/26
f 73/11/21 74/12/21 76/13/21 75/14/21
f 75/14/22 76/13/22 80/15/22 79/16/22
f 79/16/23 80/15/23 78/17/23 77/18/23
f 77/18/24 78/17/24 74/19/24 73/20/24
f 75/21/25 79/16/25 77/18/25 73/22/25
f 80/15/26 76/23/26 74/24/26 78/17/26
f 81/11/21 82/12/21 84/13/21 83/14/21
f 83/14/22 84/13/22 88/15/22 87/16/22
f 87/16/23 88/15/23 86/17/23 85/18/23
f 85/18/24 86/17/24 82/19/24 81/20/24
f 83/21/25 87/16/25 85/18/25 81/22/25
f 88/15/26 84/23/26 82/24/26 86/17/26
f 89/11/21 90/12/21 92/13/21 91/14/21
f 91/14/22 92/13/22 96/15/22 95/16/22
f 95/16/23 96/15/23 94/17/23 93/18/23
f 93/18/24 94/17/24 90/19/24 89/20/24
f 91/21/25 95/16/25 93/18/25 89/22/25
f 96/15/26 92/23/26 90/24/26 94/17/26
f 97/11/21 98/12/21 100/13/21 99/14/21
f 99/14/22 100/13/22 104/15/22 103/16/22
f 103/16/23 104/15/23 102/17/23 101/18/23
f 101/18/24 102/17/24 98/19/24 97/20/24
f 99/21/25 103/16/25 101/18/25 97/22/25
f 104/15/26 100/23/26 98/24/26 102/17/26
f 105/11/21 106/12/21 108/13/21 107/14/21
f 107/14/22 108/13/22 112/15/22 111/16/22
f 111/16/23 112/15/23 110/17/23 109/18/23
f 109/18/24 110/17/24 106/19/24 105/20/24
f 107/21/25 111/16/25 109/18/25 105/22/25
f 112/15/26 108/23/26 106/24/26 110/17/26
f 113/11/21 114/12/21 116/13/21 115/14/21
f 115/14/22 116/13/22 120/15/22 119/16/22
f 119/16/23 120/15/23 118/17/23 117/18/23
f 117/18/24 118/17/24 114/19/24 113/20/24
f 115/21/25 119/16/25 117/18/25 113/22/25
f 120/15/26 116/23/26 114/24/26 118/17/26
f 121/11/21 122/12/21 124/13/21 123/14/21
f 123/14/22 124/13/22 128/15/22 127/16/22
f 127/16/23 128/15/23 126/17/23 125/18/23
f 125/18/24 126/17/24 122/19/24 121/20/24
f 123/21/25 127/16/25 125/18/25 121/22/25
f 128/15/26 124/23/26 122/24/26 126/17/26
f 129/11/21 130/12/21 132/13/21 131/14/21
f 131/14/22 132/13/22 136/15/22 135/16/22
f 135/16/23 136/15/23 134/17/23 133/18/23
f 133/18/24 134/17/24 130/19/24 129/20/24
f 131/21/25 135/16/25 133/18/25 129/22/25
f 136/15/26 132/23/26 130/24/26 134/17/26
f 137/11/21 138/12/21 140/13/21 139/14/21
f 139/14/22 140/13/22 144/15/22 143/16/22
f 143/16/23 144/15/23 142/17/23 141/18/23
f 141/18/24 142/17/24 138/19/24 137/20/24
f 139/21/25 143/16/25 141/18/25 137/22/25
f 144/15/26 140/23/26 138/24/26 142/17/26
f 145/11/21 146/12/21 148/13/21 147/14/21
f 147/14/22 148/13/22 152/15/22 151/16/22
f 151/16/23 152/15/23 150/17/23 149/18/23
f 149/18/24 150/17/24 146/19/24 145/20/24
f 147/21/25 151/16/25 149/18/25 145/22/25
f 152/15/26 148/23/26 146/24/26 150/17/26
f 153/11/21 154/12/21 156/13/21 155/14/21
f 155/14/22 156/13/22 160/15/22 159/16/22
f 159/16/23 160/15/23 158/17/23 157/18/23
f 157/18/24 158/17/24 154/19/24 153/20/24
f 155/21/25 159/16/25 157/18/25 153/22/25
f 160/15/26 156/23/26 154/24/26 158/17/26
f 161/11/21 162/12/21 164/13/21 163/14/21
f 163/14/22 164/13/22 168/15/22 167/16/22
f 167/16/23 168/15/23 166/17/23 165/18/23
f 165/18/24 166/17/24 162/19/24 161/20/24
f 163/21/25 167/16/25 165/18/25 161/22/25
f 168/15/26 164/23/26 162/24/26 166/17/26
f 169/11/21 170/12/21 172/13/21 171/14/21
f 171/14/22 172/13/22 176/15/22 175/16/22
f 175/16/23 176/15/23 174/17/23 173/18/23
f 173/18/24 174/17/24 170/19/24 169/20/24
f 171/21/25 175/16/25 173/18/25 169/22/25
f 176/15/26 172/23/26 170/24/26 174/17/26
f 177/11/21 178/12/21 180/13/21 179/14/21
f 179/14/22 180/13/22 184/15/22 183/16/22
f 183/16/23 184/15/23 182/17/23 181/18/23
f 181/18/24 182/17/24 178/19/24 177/20/24
f 179/21/25 183/16/25 181/18/25 177/22/25
f 184/15/26 180/23/26 178/24/26 182/17/26
f 185/11/21 186/12/21 188/13/21 187/14/21
f 187/14/22 188/13/22 192/15/22 191/16/22
f 191/16/23 192/15/23 190/17/23 189/18/23
f 189/18/24 190/17/24 186/19/24 185/20/24
f 187/21/25 191/16/25 189/18/25 185/22/25
f 192/15/26 188/23/26 186/24/26 190/17/26
f 193/11/21 194/12/21 196/13/21 195/14/21
f 195/14/22 196/13/22 200/15/22 199/16/22
f 199/16/23 200/15/23 198/17/23 197/18/23
f 197/18/24 198/17/24 194/19/24 193/20/24
f 195/21/25 199/16/25 197/18/25 193/22/25
f 200/15/26 196/23/26 194/24/26 198/17/26
f 201/11/21 202/12/21 204/13/21 203/14/21
f 203/14/22 204/13/22 208/15/22 207/16/22
f 207/16/23 208/15/23 206/17/23 205/18/23
f 205/18/24 206/17/24 202/19/24 201/20/24
f 203/21/25 207/16/25 205/18/25 201/22/25
f 208/15/26 204/23/26 202/24/26 206/17/26
f 209/11/21 210/12/21 212/13/21 211/14/21
f 211/14/22 212/13/22 216/15/22 215/16/22
f 215/16/23 216/15/23 214/17/23 213/18/23
f 213/18/24 214/17/24 210/19/24 209/20/24
f 211/21/25 215/16/25 213/18/25 209/22/25
f 216/15/26 212/23/26 210/24/26 214/17/26
f 217/11/21 218/12/21 220/13/21 219/14/21
f 219/14/22 220/13/22 224/15/22 223/16/22
f 223/16/23 224/15/23 222/17/23 221/18/23
f 221/18/24 222/17/24 218/19/24 217/20/24
f 219/21/25 223/16/25 221/18/25 217/22/25
f 224/15/26 220/23/26 218/24/26 222/17/26
o Cube.006
v 0.928391 -0.669205 -11.651915
v 0.928391 -0.042325 -11.651915
v 1.266469 -0.669205 -18.213213
v 1.266469 -0.042325 -18.213213
v 1.554440 -0.669205 -11.619657
v 1.554440 -0.042325 -11.619657
v 1.892519 -0.669205 -18.180956
v 1.892519 -0.042325 -18.180956
v -0.680555 -0.669205 -11.734818
v -0.680555 -0.042325 -11.734818
v -0.342477 -0.669205 -18.296116
v -0.342477 -0.042325 -18.296116
v -0.054506 -0.669205 -11.702559
v -0.054506 -0.042325 -11.702559
v 0.283572 -0.669205 -18.263859
v 0.283572 -0.042325 -18.263859
v -2.289501 -0.669205 -11.817720
v -2.289501 -0.042325 -11.817720
v -1.951423 -0.669205 -18.379019
v -1.951423 -0.042325 -18.379019
v -1.663452 -0.669205 -11.785462
v -1.663452 -0.042325 -11.785462
v -1.325374 -0.669205 -18.346762
v -1.325374 -0.042325 -18.346762
v -3.898448 -0.669205 -11.900623
v -3.898448 -0.042325 -11.900623
v -3.560370 -0.669205 -18.461922
v -3.560370 -0.042325 -18.461922
v -3.272399 -0.669205 -11.868364
v -3.272399 -0.042325 -11.868364
v -2.934320 -0.669205 -18.429665
v -2.934320 -0.042325 -18.429665
v -5.507394 -0.669205 -11.983526
v -5.507394 -0.042325 -11.983526
v -5.169316 -0.669205 -18.544825
v -5.169316 -0.042325 -18.544825
v -4.881345 -0.669205 -11.951267
v -4.881345 -0.042325 -11.951267
v -4.543267 -0.669205 -18.512566
v -4.543267 -0.042325 -18.512566
v -7.116340 -0.669205 -12.066428
v -7.116340 -0.042325 -12.066428
v -6.778262 -0.669205 -18.627728
v -6.778262 -0.042325 -18.627728
v -6.490291 -0.669205 -12.034170
v -6.490291 -0.042325 -12.034170
v -6.152213 -0.669205 -18.595469
v -6.152213 -0.042325 -18.595469
v -8.725286 -0.669205 -12.149331
v -8.725286 -0.042325 -12.149331
v -8.387209 -0.669205 -18.710630
v -8.387209 -0.042325 -18.710630
v -8.099237 -0.669205 -12.117073
v -8.099237 -0.042325 -12.117073
v -7.761160 -0.669205 -18.678371
v -7.761160 -0.042325 -18.678371
v -10.334233 -0.669205 -12.232234
v -10.334233 -0.042325 -12.232234
v -9.996156 -0.669205 -18.793533
v -9.996156 -0.042325 -18.793533
v -9.708184 -0.669205 -12.199976
v -9.708184 -0.042325 -12.199976
v -9.370107 -0.669205 -18.761274
v -9.370107 -0.042325 -18.761274
v -11.943179 -0.669205 -12.315136
v -11.943179 -0.042325 -12.315136
v -11.605102 -0.669205 -18.876436
v -11.605102 -0.042325 -18.876436
v -11.317130 -0.669205 -12.282879
v -11.317130 -0.042325 -12.282879
v -10.979053 -0.669205 -18.844177
v -10.979053 -0.042325 -18.844177
v -13.552125 -0.669205 -12.398039
v -13.552125 -0.042325 -12.398039
v -13.214047 -0.669205 -18.959339
v -13.214047 -0.042325 -18.959339
v -12.926076 -0.669205 -12.365782
v -12.926076 -0.042325 -12.365782
v -12.587998 -0.669205 -18.927080
v -12.587998 -0.042325 -18.927080
v -15.161071 -0.669205 -12.480942
v -15.161071 -0.042325 -12.480942
v -14.822993 -0.669205 -19.042240
v -14.822993 -0.042325 -19.042240
v -14.535022 -0.669205 -12.448685
v -14.535022 -0.042325 -12.448685
v -14.196944 -0.669205 -19.009983
v -14.196944 -0.042325 -19.009983
v -16.770020 -0.669205 -12.563845
v -16.770020 -0.042325 -12.563845
v -16.431942 -0.669205 -19.125143
v -16.431942 -0.042325 -19.125143
v -16.143970 -0.669205 -12.531588
v -16.143970 -0.042325 -12.531588
v -15.805892 -0.669205 -19.092886
v -15.805892 -0.042325 -19.092886
v -18.378963 -0.669205 -12.646748
v -18.378963 -0.042325 -12.646748
v -18.040886 -0.669205 -19.208046
v -18.040886 -0.042325 -19.208046
v -17.752914 -0.669205 -12.614490
v -17.752914 -0.042325 -12.614490
v -17.414837 -0.669205 -19.175789
v -17.414837 -0.042325 -19.175789
vn -0.9987 -0.0000 -0.0515
vn 0.0515 -0.0000 -0.9987
vn 0.9987 -0.0000 0.0515
vn -0.0515 -0.0000 0.9987
vn -0.0000 -1.0000 -0.0000
vn -0.0000 1.0000 -0.0000
vt 0.375000 0.000000
vt 0.625000 0.000000
vt 0.625000 0.250000
vt 0.375000 0.250000
vt 0.625000 0.500000
vt 0.375000 0.500000
vt 0.625000 0.750000
vt 0.375000 0.750000
vt 0.625000 1.000000
vt 0.375000 1.000000
vt 0.125000 0.500000
vt 0.125000 0.750000
vt 0.875000 0.500000
vt 0.875000 0.750000
s 0
usemtl 
f 225/25/27 226/26/27 228/27/27 227/28/27
f 227/28/28 228/27/28 232/29/28 231/30/28
f 231/30/29 232/29/29 230/31/29 229/32/29
f 229/32/30 230/31/30 226/33/30 225/34/30
f 227/35/31 231/30/31 229/32/31 225/36/31
f 232/29/32 228/37/32 226/38/32 230/31/32
f 233/25/27 234/26/27 236/27/27 235/28/27
f 235/28/28 236/27/28 240/29/28 239/30/28
f 239/30/29 240/29/29 238/31/29 237/32/29
f 237/32/30 238/31/30 234/33/30 233/34/30
f 235/35/31 239/30/31 237/32/31 233/36/31
f 240/29/32 236/37/32 234/38/32 238/31/32
f 241/25/27 242/26/27 244/27/27 243/28/27
f 243/28/28 244/27/28 248/29/28 247/30/28
f 247/30/29 248/29/29 246/31/29 245/32/29
f 245/32/30 246/31/30 242/33/30 241/34/30
f 243/35/31 247/30/31 245/32/31 241/36/31
f 248/29/32 244/37/32 242/38/32 246/31/32
f 249/25/27 250/26/27 252/27/27 251/28/27
f 251/28/28 252/27/28 256/29/28 255/30/28
f 255/30/29 256/29/29 254/31/29 253/32/29
f 253/32/30 254/31/30 250/33/30 249/34/30
f 251/35/31 255/30/31 253/32/31 249/36/31
f 256/29/32 252/37/32 250/38/32 254/31/32
f 257/25/27 258/26/27 260/27/27 259/28/27
f 259/28/28 260/27/28 264/29/28 263/30/28
f 263/30/29 264/29/29 262/31/29 261/32/29
f 261/32/30 262/31/30 258/33/30 257/34/30
f 259/35/31 263/30/31 261/32/31 257/36/31
f 264/29/32 260/37/32 258/38/32 262/31/32
f 265/25/27 266/26/27 268/27/27 267/28/27
f 267/28/28 268/27/28 272/29/28 271/30/28
f 271/30/29 272/29/29 270/31/29 269/32/29
f 269/32/30 270/31/30 266/33/30 265/34/30
f 267/35/31 271/30/31 269/32/31 265/36/31
f 272/29/32 268/37/32 266/38/32 270/31/32
f 273/25/27 274/26/27 276/27/27 275/28/27
f 275/28/28 276/27/28 280/29/28 279/30/28
f 279/30/29 280/29/29 278/31/29 277/32/29
f 277/32/30 278/31/30 274/33/30 273/34/30
f 275/35/31 279/30/31 277/32/31 273/36/31
f 280/29/32 276/37/32 274/38/32 278/31/32
f 281/25/27 282/26/27 284/27/27 283/28/27
f 283/28/28 284/27/28 288/29/28 287/30/28
f 287/30/29 288/29/29 286/31/29 285/32/29
f 285/32/30 286/31/30 282/33/30 281/34/30
f 283/35/31 287/30/31 285/32/31 281/36/31
f 288/29/32 284/37/32 282/38/32 286/31/32
f 289/25/27 290/26/27 292/27/27 291/28/27
f 291/28/28 292/27/28 296/29/28 295/30/28
f 295/30/29 296/29/29 294/31/29 293/32/29
f 293/32/30 294/31/30 290/33/30 289/34/30
f 291/35/31 295/30/31 293/32/31 289/36/31
f 296/29/32 292/37/32 290/38/32 294/31/32
f 297/25/27 298/26/27 300/27/27 299/28/27
f 299/28/28 300/27/28 304/29/28 303/30/28
f 303/30/29 304/29/29 302/31/29 301/32/29
f 301/32/30 302/31/30 298/33/30 297/34/30
f 299/35/31 303/30/31 301/32/31 297/36/31
f 304/29/32 300/37/32 298/38/32 302/31/32
f 305/25/27 306/26/27 308/27/27 307/28/27
f 307/28/28 308/27/28 312/29/28 311/30/28
f 311/30/29 312/29/29 310/31/29 309/32/29
f 309/32/30 310/31/30 306/33/30 305/34/30
f 307/35/31 311/30/31 309/32/31 305/36/31
f 312/29/32 308/37/32 306/38/32 310/31/32
f 313/25/27 314/26/27 316/27/27 315/28/27
f 315/28/28 316/27/28 320/29/28 319/30/28
f 319/30/29 320/29/29 318/31/29 317/32/29
f 317/32/30 318/31/30 314/33/30 313/34/30
f 315/35/31 319/30/31 317/32/31 313/36/31
f 320/29/32 316/37/32 314/38/32 318/31/32
f 321/25/27 322/26/27 324/27/27 323/28/27
f 323/28/28 324/27/28 328/29/28 327/30/28
f 327/30/29 328/29/29 326/31/29 325/32/29
f 325/32/30 326/31/30 322/33/30 321/34/30
f 323/35/31 327/30/31 325/32/31 321/36/31
f 328/29/32 324/37/32 322/38/32 326/31/32
o Cube.008
v -33.164597 -0.387508 -10.546059
v -33.164597 0.239371 -10.546059
v -39.357834 -0.387508 -10.865171
v -39.357834 0.239371 -10.865171
v -33.132339 -0.387508 -11.172108
v -33.132339 0.239371 -11.172108
v -39.325573 -0.387508 -11.491220
v -39.325573 0.239371 -11.491220
v -33.247498 -0.387508 -8.937112
v -33.247498 0.239371 -8.937112
v -39.440735 -0.387508 -9.256226
v -39.440735 0.239371 -9.256226
v -33.215240 -0.387508 -9.563161
v -33.215240 0.239371 -9.563161
v -39.408478 -0.387508 -9.882275
v -39.408478 0.239371 -9.882275
v -33.330402 -0.387508 -7.328166
v -33.330402 0.239371 -7.328166
v -39.523640 -0.387508 -7.647279
v -39.523640 0.239371 -7.647279
v -33.298145 -0.387508 -7.954215
v -33.298145 0.239371 -7.954215
v -39.491379 -0.387508 -8.273329
v -39.491379 0.239371 -8.273329
v -33.413303 -0.387508 -5.719219
v -33.413303 0.239371 -5.719219
v -39.606541 -0.387508 -6.038332
v -39.606541 0.239371 -6.038332
v -33.381046 -0.387508 -6.345268
v -33.381046 0.239371 -6.345268
v -39.574284 -0.387508 -6.664382
v -39.574284 0.239371 -6.664382
v -33.496208 -0.387508 -4.110273
v -33.496208 0.239371 -4.110273
v -39.689445 -0.387508 -4.429387
v -39.689445 0.239371 -4.429387
v -33.463951 -0.387508 -4.736322
v -33.463951 0.239371 -4.736322
v -39.657185 -0.387508 -5.055436
v -39.657185 0.239371 -5.055436
v -33.579109 -0.387508 -2.501328
v -33.579109 0.239371 -2.501328
v -39.772346 -0.387508 -2.820440
v -39.772346 0.239371 -2.820440
v -33.546852 -0.387508 -3.127377
v -33.546852 0.239371 -3.127377
v -39.740089 -0.387508 -3.446490
v -39.740089 0.239371 -3.446490
v -33.662014 -0.387508 -0.892381
v -33.662014 0.239371 -0.892381
v -39.855247 -0.387508 -1.211493
v -39.855247 0.239371 -1.211493
v -33.629753 -0.387508 -1.518430
v -33.629753 0.239371 -1.518430
v -39.822990 -0.387508 -1.837543
v -39.822990 0.239371 -1.837543
v -33.744915 -0.387508 0.716566
v -33.744915 0.239371 0.716566
v -39.938152 -0.387508 0.397453
v -39.938152 0.239371 0.397453
v -33.712658 -0.387508 0.090517
v -33.712658 0.239371 0.090517
v -39.905895 -0.387508 -0.228596
v -39.905895 0.239371 -0.228596
v -33.827820 -0.387508 2.325512
v -33.827820 0.239371 2.325512
v -40.021053 -0.387508 2.006399
v -40.021053 0.239371 2.006399
v -33.795559 -0.387508 1.699463
v -33.795559 0.239371 1.699463
v -39.988796 -0.387508 1.380350
v -39.988796 0.239371 1.380350
v -33.910721 -0.387508 3.934458
v -33.910721 0.239371 3.934458
v -40.103958 -0.387508 3.615345
v -40.103958 0.239371 3.615345
v -33.878464 -0.387508 3.308409
v -33.878464 0.239371 3.308409
v -40.071701 -0.387508 2.989296
v -40.071701 0.239371 2.989296
v -33.993622 -0.387508 5.543405
v -33.993622 0.239371 5.543405
v -40.186859 -0.387508 5.224290
v -40.186859 0.239371 5.224290
v -33.961365 -0.387508 4.917356
v -33.961365 0.239371 4.917356
v -40.154602 -0.387508 4.598242
v -40.154602 0.239371 4.598242
v -34.076527 -0.387508 7.152352
v -34.076527 0.239371 7.152352
v -40.269764 -0.387508 6.833238
v -40.269764 0.239371 6.833238
v -34.044270 -0.387508 6.526303
v -34.044270 0.239371 6.526303
v -40.237507 -0.387508 6.207189
v -40.237507 0.239371 6.207189
v -34.159431 -0.387508 8.761298
v -34.159431 0.239371 8.761298
v -40.352665 -0.387508 8.442183
v -40.352665 0.239371 8.442183
v -34.127171 -0.387508 8.135249
v -34.127171 0.239371 8.135249
v -40.320408 -0.387508 7.816134
v -40.320408 0.239371 7.816134
vn -0.0515 -0.0000 0.9987
vn -0.9987 -0.0000 -0.0515
vn 0.0515 -0.0000 -0.9987
vn 0.9987 -0.0000 0.0515
vn -0.0000 -1.0000 -0.0000
vn -0.0000 1.0000 -0.0000
vt 0.375000 0.000000
vt 0.625000 0.000000
vt 0.625000 0.250000
vt 0.375000 0.250000
vt 0.625000 0.500000
vt 0.375000 0.500000
vt 0.625000 0.750000
vt 0.375000 0.750000
vt 0.625000 1.000000
vt 0.375000 1.000000
vt 0.125000 0.500000
vt 0.125000 0.750000
vt 0.875000 0.500000
vt 0.875000 0.750000
s 0
usemtl 
f 329/39/33 330/40/33 332/41/33 331/42/33
f 331/42/34 332/41/34 336/43/34 335/44/34
f 335/44/35 336/43/35 334/45/35 333/46/35
f 333/46/36 334/45/36 330/47/36 329/48/36
f 331/49/37 335/44/37 333/46/37 329/50/37
f 336/43/38 332/51/38 330/52/38 334/45/38
f 337/39/33 338/40/33 340/41/33 339/42/33
f 339/42/34 340/41/34 344/43/34 343/44/34
f 343/44/35 344/43/35 342/45/35 341/46/35
f 341/46/36 342/45/36 338/47/36 337/48/36
f 339/49/37 343/44/37 341/46/37 337/50/37
f 344/43/38 340/51/38 338/52/38 342/45/38
f 345/39/33 346/40/33 348/41/33 347/42/33
f 347/42/34 348/41/34 352/43/34 351/44/34
f 351/44/35 352/43/35 350/45/35 349/46/35
f 349/46/36 350/45/36 346/47/36 345/48/36
f 347/49/37 351/44/37 349/46/37 345/50/37
f 352/43/38 348/51/38 346/52/38 350/45/38
f 353/39/33 354/40/33 356/41/33 355/42/33
f 355/42/34 356/41/34 360/43/34 359/44/34
f 359/44/35 360/43/35 358/45/35 357/46/35
f 357/46/36 358/45/36 354/47/36 353/48/36
f 355/49/37 359/44/37 357/46/37 353/50/37
f 360/43/38 356/51/38 354/52/38 358/45/38
f 361/39/33 362/40/33 364/41/33 363/42/33
f 363/42/34 364/41/34 368/43/34 367/44/34
f 367/44/35 368/43/35 366/45/35 365/46/35
f 365/46/36 366/45/36 362/47/36 361/48/36
f 363/49/37 367/44/37 365/46/37 361/50/37
f 368/43/38 364/51/38 362/52/38 366/45/38
f 369/39/33 370/40/33 372/41/33 371/42/33
f 371/42/34 372/41/34 376/43/34 375/44/34
f 375/44/35 376/43/35 374/45/35 373/46/35
f 373/46/36 374/45/36 370/47/36 369/48/36
f 371/49/37 375/44/37 373/46/37 369/50/37
f 376/43/38 372/51/38 370/52/38 374/45/38
f 377/39/33 378/40/33 380/41/33 379/42/33
f 379/42/34 380/41/34 384/43/34 383/44/34
f 383/44/35 384/43/35 382/45/35 381/46/35
f 381/46/36 382/45/36 378/47/36 377/48/36
f 379/49/37 383/44/37 381/46/37 377/50/37
f 384/43/38 380/51/38 378/52/38 382/45/38
f 385/39/33 386/40/33 388/41/33 387/42/33
f 387/42/34 388/41/34 392/43/34 391/44/34
f 391/44/35 392/43/35 390/45/35 389/46/35
f 389/46/36 390/45/36 386/47/36 385/48/36
f 387/49/37 391/44/37 389/46/37 385/50/37
f 392/43/38 388/51/38 386/52/38 390/45/38
f 393/39/33 394/40/33 396/41/33 395/42/33
f 395/42/34 396/41/34 400/43/34 399/44/34
f 399/44/35 400/43/35 398/45/35 397/46/35
f 397/46/36 398/45/36 394/47/36 393/48/36
f 395/49/37 399/44/37 397/46/37 393/50/37
f 400/43/38 396/51/38 394/52/38 398/45/38
f 401/39/33 402/40/33 404/41/33 403/42/33
f 403/42/34 404/41/34 408/43/34 407/44/34
f 407/44/35 408/43/35 406/45/35 405/46/35
f 405/46/36 406/45/36 402/47/36 401/48/36
f 403/49/37 407/44/37 405/46/37 401/50/37
f 408/43/38 404/51/38 402/52/38 406/45/38
f 409/39/33 410/40/33 412/41/33 411/42/33
f 411/42/34 412/41/34 416/43/34 415/44/34
f 415/44/35 416/43/35 414/45/35 413/46/35
f 413/46/36 414/45/36 410/47/36 409/48/36
f 411/49/37 415/44/37 413/46/37 409/50/37
f 416/43/38 412/51/38 410/52/38 414/45/38
f 417/39/33 418/40/33 420/41/33 419/42/33
f 419/42/34 420/41/34 424/43/34 423/44/34
f 423/44/35 424/43/35 422/45/35 421/46/35
f 421/46/36 422/45/36 418/47/36 417/48/36
f 419/49/37 423/44/37 421/46/37 417/50/37
f 424/43/38 420/51/38 418/52/38 422/45/38
f 425/39/33 426/40/33 428/41/33 427/42/33
f 427/42/34 428/41/34 432/43/34 431/44/34
f 431/44/35 432/43/35 430/45/35 429/46/35
f 429/46/36 430/45/36 426/47/36 425/48/36
f 427/49/37 431/44/37 429/46/37 425/50/37
f 432/43/38 428/51/38 426/52/38 430/45/38
o Cube.009
v -26.644228 -0.734941 -3.698936
v -26.644228 0.069743 -3.698936
v -26.583939 -0.734941 -4.501358
v -26.583939 0.069743 -4.501358
v -24.707293 -0.734941 -3.553408
v -24.707293 0.069743 -3.553408
v -24.647005 -0.734941 -4.355830
v -24.647005 0.069743 -4.355830
v -24.009996 -0.734941 -3.501018
v -24.009996 0.069743 -3.501018
v -23.949707 -0.734941 -4.303440
v -23.949707 0.069743 -4.303440
v -22.073063 -0.734941 -3.355490
v -22.073063 0.069743 -3.355490
v -22.012774 -0.734941 -4.157912
v -22.012774 0.069743 -4.157912
v -21.375765 -0.734941 -3.303100
v -21.375765 0.069743 -3.303100
v -21.315477 -0.734941 -4.105522
v -21.315477 0.069743 -4.105522
v -19.438831 -0.734941 -3.157572
v -19.438831 0.069743 -3.157572
v -19.378542 -0.734941 -3.959993
v -19.378542 0.069743 -3.959993
v -18.741535 -0.734941 -3.105182
v -18.741535 0.069743 -3.105182
v -18.681246 -0.734941 -3.907603
v -18.681246 0.069743 -3.907603
v -16.804600 -0.734941 -2.959653
v -16.804600 0.069743 -2.959653
v -16.744312 -0.734941 -3.762075
v -16.744312 0.069743 -3.762075
v -16.107304 -0.734941 -2.907263
v -16.107304 0.069743 -2.907263
v -16.047014 -0.734941 -3.709685
v -16.047014 0.069743 -3.709685
v -14.170370 -0.734941 -2.761735
v -14.170370 0.069743 -2.761735
v -14.110081 -0.734941 -3.564157
v -14.110081 0.069743 -3.564157
v -13.473073 -0.734941 -2.709345
v -13.473073 0.069743 -2.709345
v -13.412784 -0.734941 -3.511767
v -13.412784 0.069743 -3.511767
v -11.536139 -0.734941 -2.563817
v -11.536139 0.069743 -2.563817
v -11.475850 -0.734941 -3.366239
v -11.475850 0.069743 -3.366239
v -10.838841 -0.734941 -2.511426
v -10.838841 0.069743 -2.511426
v -10.778552 -0.734941 -3.313848
v -10.778552 0.069743 -3.313848
v -8.901907 -0.734941 -2.365899
v -8.901907 0.069743 -2.365899
v -8.841619 -0.734941 -3.168320
v -8.841619 0.069743 -3.168320
v -8.204611 -0.734941 -2.313508
v -8.204611 0.069743 -2.313508
v -8.144323 -0.734941 -3.115930
v -8.144323 0.069743 -3.115930
v -6.267675 -0.734941 -2.167980
v -6.267675 0.069743 -2.167980
v -6.207388 -0.734941 -2.970402
v -6.207388 0.069743 -2.970402
v -5.570379 -0.734941 -2.115590
v -5.570379 0.069743 -2.115590
v -5.510092 -0.734941 -2.918012
v -5.510092 0.069743 -2.918012
v -3.633446 -0.734941 -1.970062
v -3.633446 0.069743 -1.970062
v -3.573158 -0.734941 -2.772484
v -3.573158 0.069743 -2.772484
v -2.936150 -0.734941 -1.917672
v -2.936150 0.069743 -1.917672
v -2.875862 -0.734941 -2.720093
v -2.875862 0.069743 -2.720093
v -0.999214 -0.734941 -1.772143
v -0.999214 0.069743 -1.772143
v -0.938927 -0.734941 -2.574565
v -0.938927 0.069743 -2.574565
v -0.301920 -0.734941 -1.719754
v -0.301920 0.069743 -1.719754
v -0.241632 -0.734941 -2.522175
v -0.241632 0.069743 -2.522175
v 1.635014 -0.734941 -1.574225
v 1.635014 0.069743 -1.574225
v 1.695301 -0.734941 -2.376647
v 1.695301 0.069743 -2.376647
v 2.332314 -0.734941 -1.521835
v 2.332314 0.069743 -1.521835
v 2.392601 -0.734941 -2.324257
v 2.392601 0.069743 -2.324257
v 4.269247 -0.734941 -1.376307
v 4.269247 0.069743 -1.376307
v 4.329535 -0.734941 -2.178729
v 4.329535 0.069743 -2.178729
v 4.966543 -0.734941 -1.323917
v 4.966543 0.069743 -1.323917
v 5.026831 -0.734941 -2.126338
v 5.026831 0.069743 -2.126338
v 6.903481 -0.734941 -1.178389
v 6.903481 0.069743 -1.178389
v 6.963768 -0.734941 -1.980810
v 6.963768 0.069743 -1.980810
v 7.600773 -0.734941 -1.125998
v 7.600773 0.069743 -1.125998
v 7.661060 -0.734941 -1.928420
v 7.661060 0.069743 -1.928420
v 9.537708 -0.734941 -0.980470
v 9.537708 0.069743 -0.980470
v 9.597996 -0.734941 -1.782892
v 9.597996 0.069743 -1.782892
v 10.235004 -0.734941 -0.928080
v 10.235004 0.069743 -0.928080
v 10.295292 -0.734941 -1.730502
v 10.295292 0.069743 -1.730502
v 12.171940 -0.734941 -0.782552
v 12.171940 0.069743 -0.782552
v 12.232227 -0.734941 -1.584974
v 12.232227 0.069743 -1.584974
v 12.869236 -0.734941 -0.730162
v 12.869236 0.069743 -0.730162
v 12.929523 -0.734941 -1.532584
v 12.929523 0.069743 -1.532584
v 14.806168 -0.734941 -0.584634
v 14.806168 0.069743 -0.584634
v 14.866455 -0.734941 -1.387055
v 14.866455 0.069743 -1.387055
v 15.503468 -0.734941 -0.532244
v 15.503468 0.069743 -0.532244
v 15.563755 -0.734941 -1.334665
v 15.563755 0.069743 -1.334665
v 17.440399 -0.734941 -0.386715
v 17.440399 0.069743 -0.386715
v 17.500687 -0.734941 -1.189137
v 17.500687 0.069743 -1.189137
v 18.137699 -0.734941 -0.334325
v 18.137699 0.069743 -0.334325
v 18.197987 -0.734941 -1.136747
v 18.197987 0.069743 -1.136747
v 20.074635 -0.734941 -0.188797
v 20.074635 0.069743 -0.188797
v 20.134922 -0.734941 -0.991219
v 20.134922 0.069743 -0.991219
v 20.771927 -0.734941 -0.136407
v 20.771927 0.069743 -0.136407
v 20.832214 -0.734941 -0.938829
v 20.832214 0.069743 -0.938829
v 22.708862 -0.734941 0.009121
v 22.708862 0.069743 0.009121
v 22.769150 -0.734941 -0.793301
v 22.769150 0.069743 -0.793301
v 23.406158 -0.734941 0.061512
v 23.406158 0.069743 0.061512
v 23.466446 -0.734941 -0.740910
v 23.466446 0.069743 -0.740910
v 25.343094 -0.734941 0.207040
v 25.343094 0.069743 0.207040
v 25.403381 -0.734941 -0.595382
v 25.403381 0.069743 -0.595382
v 26.040390 -0.734941 0.259429
v 26.040390 0.069743 0.259429
v 26.100677 -0.734941 -0.542992
v 26.100677 0.069743 -0.542992
v 27.977322 -0.734941 0.404958
v 27.977322 0.069743 0.404958
v 28.037609 -0.734941 -0.397464
v 28.037609 0.069743 -0.397464
v 28.674622 -0.734941 0.457348
v 28.674622 0.069743 0.457348
v 28.734909 -0.734941 -0.345073
v 28.734909 0.069743 -0.345073
v 30.611553 -0.734941 0.602876
v 30.611553 0.069743 0.602876
v 30.671841 -0.734941 -0.199546
v 30.671841 0.069743 -0.199546
v 31.308853 -0.734941 0.655267
v 31.308853 0.069743 0.655267
v 31.369141 -0.734941 -0.147155
v 31.369141 0.069743 -0.147155
v 33.245789 -0.734941 0.800795
v 33.245789 0.069743 0.800795
v 33.306076 -0.734941 -0.001627
v 33.306076 0.069743 -0.001627
v 33.943081 -0.734941 0.853185
v 33.943081 0.069743 0.853185
v 34.003368 -0.734941 0.050763
v 34.003368 0.069743 0.050763
v 35.880016 -0.734941 0.998713
v 35.880016 0.069743 0.998713
v 35.940304 -0.734941 0.196291
v 35.940304 0.069743 0.196291
v 36.577312 -0.734941 1.051103
v 36.577312 0.069743 1.051103
v 36.637600 -0.734941 0.248681
v 36.637600 0.069743 0.248681
v 38.514252 -0.734941 1.196631
v 38.514252 0.069743 1.196631
v 38.574539 -0.734941 0.394209
v 38.574539 0.069743 0.394209
v 39.211548 -0.734941 1.249022
v 39.211548 0.069743 1.249022
v 39.271835 -0.734941 0.446599
v 39.271835 0.069743 0.446599
v 41.148483 -0.734941 1.394550
v 41.148483 0.069743 1.394550
v 41.208771 -0.734941 0.592128
v 41.208771 0.069743 0.592128
v -26.462759 -0.728531 -6.122766
v -26.462759 0.076039 -6.136254
v -26.402470 -0.741982 -6.925076
v -26.402470 0.062589 -6.938563
v -24.525824 -0.726092 -5.977259
v -24.525824 0.078478 -5.990746
v -24.465536 -0.739542 -6.779567
v -24.465536 0.065028 -6.793056
v -23.828527 -0.725214 -5.924876
v -23.828527 0.079356 -5.938364
v -23.768240 -0.738664 -6.727185
v -23.768238 0.065906 -6.740673
v -21.891594 -0.722775 -5.779368
v -21.891594 0.081796 -5.792856
v -21.831305 -0.736225 -6.581676
v -21.831305 0.068346 -6.595165
v -21.194298 -0.721896 -5.726985
v -21.194298 0.082674 -5.740473
v -21.134008 -0.735346 -6.529294
v -21.134008 0.069224 -6.542782
v -19.257362 -0.719457 -5.581477
v -19.257362 0.085113 -5.594965
v -19.197073 -0.732907 -6.383786
v -19.197073 0.071663 -6.397274
v -18.560066 -0.718579 -5.529095
v -18.560066 0.085991 -5.542583
v -18.499777 -0.732029 -6.331404
v -18.499777 0.072541 -6.344892
v -16.623131 -0.716139 -5.383587
v -16.623131 0.088431 -5.397075
v -16.562843 -0.729590 -6.185896
v -16.562843 0.074981 -6.199384
v -15.925835 -0.715261 -5.331204
v -15.925836 0.089309 -5.344692
v -15.865546 -0.728711 -6.133513
v -15.865546 0.075859 -6.147001
v -13.988901 -0.712822 -5.185697
v -13.988900 0.091748 -5.199184
v -13.928612 -0.726272 -5.988005
v -13.928612 0.078298 -6.001493
v -13.291604 -0.711944 -5.133314
v -13.291604 0.092626 -5.146802
v -13.231317 -0.725394 -5.935623
v -13.231316 0.079176 -5.949111
v -11.354670 -0.709504 -4.987806
v -11.354671 0.095066 -5.001294
v -11.294381 -0.722955 -5.790115
v -11.294382 0.081616 -5.803603
v -10.657373 -0.708626 -4.935423
v -10.657372 0.095944 -4.948911
v -10.597085 -0.722076 -5.737732
v -10.597085 0.082494 -5.751220
v -8.720442 -0.706187 -4.789916
v -8.720440 0.098383 -4.803404
v -8.660151 -0.719637 -5.592224
v -8.660151 0.084933 -5.605712
v -8.023144 -0.705309 -4.737533
v -8.023142 0.099261 -4.751020
v -7.962854 -0.718759 -5.539842
v -7.962854 0.085811 -5.553329
v -6.086206 -0.702869 -4.592025
v -6.086205 0.101701 -4.605513
v -6.025917 -0.716320 -5.394334
v -6.025917 0.088251 -5.407822
v -5.388912 -0.701991 -4.539642
v -5.388912 0.102579 -4.553130
v -5.328625 -0.715441 -5.341951
v -5.328625 0.089129 -5.355439
v -3.451977 -0.699552 -4.394135
v -3.451977 0.105018 -4.407622
v -3.391689 -0.713002 -5.196444
v -3.391689 0.091568 -5.209931
v -2.754683 -0.698674 -4.341752
v -2.754683 0.105896 -4.355240
v -2.694395 -0.712124 -5.144061
v -2.694393 0.092446 -5.157549
v -0.817745 -0.696235 -4.196244
v -0.817745 0.108336 -4.209732
v -0.757456 -0.709685 -4.998553
v -0.757456 0.094886 -5.012041
v -0.120453 -0.695356 -4.143861
v -0.120453 0.109214 -4.157349
v -0.060163 -0.708807 -4.946170
v -0.060163 0.095764 -4.959659
v 1.816483 -0.692917 -3.998353
v 1.816484 0.111653 -4.011842
v 1.876772 -0.706367 -4.800663
v 1.876772 0.098203 -4.814151
v 2.513781 -0.692039 -3.945971
v 2.513781 0.112531 -3.959459
v 2.574068 -0.705489 -4.748280
v 2.574068 0.099081 -4.761768
v 4.450716 -0.689599 -3.800463
v 4.450716 0.114971 -3.813951
v 4.511003 -0.703050 -4.602772
v 4.511003 0.101521 -4.616260
v 5.148010 -0.688721 -3.748080
v 5.148010 0.115849 -3.761568
v 5.208298 -0.702172 -4.550389
v 5.208300 0.102399 -4.563877
v 7.084949 -0.686282 -3.602572
v 7.084949 0.118288 -3.616060
v 7.145237 -0.699732 -4.404881
v 7.145237 0.104838 -4.418369
v 7.782242 -0.685404 -3.550189
v 7.782242 0.119166 -3.563678
v 7.842529 -0.698854 -4.352499
v 7.842529 0.105716 -4.365987
v 9.719173 -0.682965 -3.404682
v 9.719177 0.121606 -3.418170
v 9.779465 -0.696415 -4.206991
v 9.779465 0.108156 -4.220479
v 10.416473 -0.682086 -3.352299
v 10.416473 0.122484 -3.365787
v 10.476761 -0.695536 -4.154608
v 10.476765 0.109034 -4.168097
v 12.353409 -0.679647 -3.206791
v 12.353409 0.124923 -3.220279
v 12.413696 -0.693097 -4.009100
v 12.413696 0.111473 -4.022588
v 13.050701 -0.678769 -3.154409
v 13.050705 0.125801 -3.167897
v 13.110992 -0.692219 -3.956718
v 13.110992 0.112351 -3.970206
v 14.987637 -0.676330 -3.008901
v 14.987637 0.128241 -3.022389
v 15.047924 -0.689780 -3.811210
v 15.047924 0.114791 -3.824698
v 15.684937 -0.675451 -2.956518
v 15.684937 0.129119 -2.970006
v 15.745224 -0.688902 -3.758827
v 15.745224 0.115669 -3.772315
v 17.621868 -0.673012 -2.811010
v 17.621868 0.131558 -2.824498
v 17.682156 -0.686462 -3.613319
v 17.682156 0.118108 -3.626807
v 18.319168 -0.672134 -2.758627
v 18.319168 0.132436 -2.772115
v 18.379456 -0.685584 -3.560936
v 18.379459 0.118986 -3.574424
v 20.256100 -0.669695 -2.613120
v 20.256100 0.134876 -2.626608
v 20.316387 -0.683145 -3.415429
v 20.316391 0.121426 -3.428917
v 20.953396 -0.668816 -2.560737
v 20.953396 0.135754 -2.574225
v 21.013683 -0.682267 -3.363046
v 21.013683 0.122304 -3.376534
v 22.890327 -0.666377 -2.415230
v 22.890331 0.138193 -2.428717
v 22.950619 -0.679827 -3.217538
v 22.950619 0.124743 -3.231026
v 23.587627 -0.665499 -2.362846
v 23.587631 0.139071 -2.376334
v 23.647915 -0.678949 -3.165155
v 23.647919 0.125621 -3.178643
v 25.524563 -0.663060 -2.217339
v 25.524563 0.141511 -2.230827
v 25.584850 -0.676510 -3.019648
v 25.584850 0.128061 -3.033136
v 26.221855 -0.662181 -2.164956
v 26.221855 0.142389 -2.178444
v 26.282143 -0.675632 -2.967265
v 26.282143 0.128939 -2.980753
v 28.158791 -0.659742 -2.019449
v 28.158791 0.144828 -2.032937
v 28.219078 -0.673192 -2.821758
v 28.219082 0.131378 -2.835245
v 28.856087 -0.658864 -1.967066
v 28.856091 0.145706 -1.980553
v 28.916382 -0.672314 -2.769374
v 28.916382 0.132256 -2.782862
v 30.793022 -0.656425 -1.821558
v 30.793022 0.148146 -1.835046
v 30.853310 -0.669875 -2.623867
v 30.853310 0.134696 -2.637355
v 31.490318 -0.655546 -1.769175
v 31.490322 0.149024 -1.782663
v 31.550610 -0.668997 -2.571484
v 31.550610 0.135574 -2.584972
v 33.427254 -0.653107 -1.623667
v 33.427258 0.151463 -1.637155
v 33.487541 -0.666557 -2.425976
v 33.487545 0.138013 -2.439464
v 34.124554 -0.652229 -1.571285
v 34.124554 0.152341 -1.584773
v 34.184841 -0.665679 -2.373594
v 34.184841 0.138891 -2.387081
v 36.061481 -0.649790 -1.425777
v 36.061481 0.154781 -1.439265
v 36.121769 -0.663240 -2.228086
v 36.121769 0.141331 -2.241574
v 36.758781 -0.648911 -1.373394
v 36.758781 0.155659 -1.386882
v 36.819069 -0.662362 -2.175703
v 36.819069 0.142209 -2.189191
v 38.695717 -0.646472 -1.227886
v 38.695717 0.158098 -1.241374
v 38.756004 -0.659922 -2.030195
v 38.756004 0.144648 -2.043683
v 39.393013 -0.645594 -1.175503
v 39.393021 0.158976 -1.188991
v 39.453308 -0.659044 -1.977812
v 39.453308 0.145526 -1.991300
v 41.329948 -0.643155 -1.029996
v 41.329948 0.161416 -1.043484
v 41.390236 -0.656605 -1.832305
v 41.390236 0.147966 -1.845793
vn -0.9972 -0.0000 -0.0749
vn 0.0749 -0.0000 -0.9972
vn 0.9972 -0.0000 0.0749
vn -0.0749 -0.0000 0.9972
vn -0.0000 -1.0000 -0.0000
vn -0.0000 1.0000 -0.0000
vn -0.9972 -0.0013 -0.0749
vn 0.0749 -0.0167 -0.9970
vn 0.9972 0.0013 0.0749
vn -0.0749 0.0167 0.9970
vn -0.0000 -0.9999 0.0168
vn -0.0000 0.9999 -0.0168
vt 0.375000 0.000000
vt 0.625000 0.000000
vt 0.625000 0.250000
vt 0.375000 0.250000
vt 0.625000 0.500000
vt 0.375000 0.500000
vt 0.625000 0.750000
vt 0.375000 0.750000
vt 0.625000 1.000000
vt 0.375000 1.000000
vt 0.125000 0.500000
vt 0.125000 0.750000
vt 0.875000 0.500000
vt 0.875000 0.750000
s 0
usemtl 
f 433/53/39 434/54/39 436/55/39 435/56/39
f 435/56/40 436/55/40 440/57/40 439/58/40
f 439/58/41 440/57/41 438/59/41 437/60/41
f 437/60/42 438/59/42 434/61/42 433/62/42
f 435/63/43 439/58/43 437/60/43 433/64/43
f 440/57/44 436/65/44 434/66/44 438/59/44
f 441/53/39 442/54/39 444/55/39 443/56/39
f 443/56/40 444/55/40 448/57/40 447/58/40
f 447/58/41 448/57/41 446/59/41 445/60/41
f 445/60/42 446/59/42 442/61/42 441/62/42
f 443/63/43 447/58/43 445/60/43 441/64/43
f 448/57/44 444/65/44 442/66/44 446/59/44
f 449/53/39 450/54/39 452/55/39 451/56/39
f 451/56/40 452/55/40 456/57/40 455/58/40
f 455/58/41 456/57/41 454/59/41 453/60/41
f 453/60/42 454/59/42 450/61/42 449/62/42
f 451/63/43 455/58/43 453/60/43 449/64/43
f 456/57/44 452/65/44 450/66/44 454/59/44
f 457/53/39 458/54/39 460/55/39 459/56/39
f 459/56/40 460/55/40 464/57/40 463/58/40
f 463/58/41 464/57/41 462/59/41 461/60/41
f 461/60/42 462/59/42 458/61/42 457/62/42
f 459/63/43 463/58/43 461/60/43 457/64/43
f 464/57/44 460/65/44 458/66/44 462/59/44
f 465/53/39 466/54/39 468/55/39 467/56/39
f 467/56/40 468/55/40 472/57/40 471/58/40
f 471/58/41 472/57/41 470/59/41 469/60/41
f 469/60/42 470/59/42 466/61/42 465/62/42
f 467/63/43 471/58/43 469/60/43 465/64/43
f 472/57/44 468/65/44 466/66/44 470/59/44
f 473/53/39 474/54/39 476/55/39 475/56/39
f 475/56/40 476/55/40 480/57/40 479/58/40
f 479/58/41 480/57/41 478/59/41 477/60/41
f 477/60/42 478/59/42 474/61/42 473/62/42
f 475/63/43 479/58/43 477/60/43 473/64/43
f 480/57/44 476/65/44 474/66/44 478/59/44
f 481/53/39 482/54/39 484/55/39 483/56/39
f 483/56/40 484/55/40 488/57/40 487/58/40
f 487/58/41 488/57/41 486/59/41 485/60/41
f 485/60/42 486/59/42 482/61/42 481/62/42
f 483/63/43 487/58/43 485/60/43 481/64/43
f 488/57/44 484/65/44 482/66/44 486/59/44
f 489/53/39 490/54/39 492/55/39 491/56/39
f 491/56/40 492/55/40 496/57/40 495/58/40
f 495/58/41 496/57/41 494/59/41 493/60/41
f 493/60/42 494/59/42 490/61/42 489/62/42
f 491/63/43 495/58/43 493/60/43 489/64/43
f 496/57/44 492/65/44 490/66/44 494/59/44
f 497/53/39 498/54/39 500/55/39 499/56/39
f 499/56/40 500/55/40 504/57/40 503/58/40
f 503/58/41 504/57/41 502/59/41 501/60/41
f 501/60/42 502/59/42 498/61/42 497/62/42
f 499/63/43 503/58/43 501/60/43 497/64/43
f 504/57/44 500/65/44 498/66/44 502/59/44
f 505/53/39 506/54/39 508/55/39 507/56/39
f 507/56/40 508/55/40 512/57/40 511/58/40
f 511/58/41 512/57/41 510/59/41 509/60/41
f 509/60/42 510/59/42 506/61/42 505/62/42
f 507/63/43 511/58/43 509/60/43 505/64/43
f 512/57/44 508/65/44 506/66/44 510/59/44
f 513/53/39 514/54/39 516/55/39 515/56/39
f 515/56/40 516/55/40 520/57/40 519/58/40
f 519/58/41 520/57/41 518/59/41 517/60/41
f 517/60/42 518/59/42 514/61/42 513/62/42
f 515/63/43 519/58/43 517/60/43 513/64/43
f 520/57/44 516/65/44 514/66/44 518/59/44
f 521/53/39 522/54/39 524/55/39 523/56/39
f 523/56/40 524/55/40 528/57/40 527/58/40
f 527/58/41 528/57/41 526/59/41 525/60/41
f 525/60/42 526/59/42 522/61/42 521/62/42
f 523/63/43 527/58/43 525/60/43 521/64/43
f 528/57/44 524/65/44 522/66/44 526/59/44
f 529/53/39 530/54/39 532/55/39 531/56/39
f 531/56/40 532/55/40 536/57/40 535/58/40
f 535/58/41 536/57/41 534/59/41 533/60/41
f 533/60/42 534/59/42 530/61/42 529/62/42
f 531/63/43 535/58/43 533/60/43 529/64/43
f 536/57/44 532/65/44 530/66/44 534/59/44
f 537/53/39 538/54/39 540/55/39 539/56/39
f 539/56/40 540/55/40 544/57/40 543/58/40
f 543/58/41 544/57/41 542/59/41 541/60/41
f 541/60/42 542/59/42 538/61/42 537/62/42
f 539/63/43 543/58/43 541/60/43 537/64/43
f 544/57/44 540/65/44 538/66/44 542/59/44
f 545/53/39 546/54/39 548/55/39 547/56/39
f 547/56/40 548/55/40 552/57/40 551/58/40
f 551/58/41 552/57/41 550/59/41 549/60/41
f 549/60/42 550/59/42 546/61/42 545/62/42
f 547/63/43 551/58/43 549/60/43 545/64/43
f 552/57/44 548/65/44 546/66/44 550/59/44
f 553/53/39 554/54/39 556/55/39 555/56/39
f 555/56/40 556/55/40 560/57/40 559/58/40
f 559/58/41 560/57/41 558/59/41 557/60/41
f 557/60/42 558/59/42 554/61/42 553/62/42
f 555/63/43 559/58/43 557/60/43 553/64/43
f 560/57/44 556/65/44 554/66/44 558/59/44
f 561/53/39 562/54/39 564/55/39 563/56/39
f 563/56/40 564/55/40 568/57/40 567/58/40
f 567/58/41 568/57/41 566/59/41 565/60/41
f 565/60/42 566/59/42 562/61/42 561/62/42
f 563/63/43 567/58/43 565/60/43 561/64/43
f 568/57/44 564/65/44 562/66/44 566/59/44
f 569/53/39 570/54/39 572/55/39 571/56/39
f 571/56/40 572/55/40 576/57/40 575/58/40
f 575/58/41 576/57/41 574/59/41 573/60/41
f 573/60/42 574/59/42 570/61/42 569/62/42
f 571/63/43 575/58/43 573/60/43 569/64/43
f 576/57/44 572/65/44 570/66/44 574/59/44
f 577/53/39 578/54/39 580/55/39 579/56/39
f 579/56/40 580/55/40 584/57/40 583/58/40
f 583/58/41 584/57/41 582/59/41 581/60/41
f 581/60/42 582/59/42 578/61/42 577/62/42
f 579/63/43 583/58/43 581/60/43 577/64/43
f 584/57/44 580/65/44 578/66/44 582/59/44
f 585/53/39 586/54/39 588/55/39 587/56/39
f 587/56/40 588/55/40 592/57/40 591/58/40
f 591/58/41 592/57/41 590/59/41 589/60/41
f 589/60/42 590/59/42 586/61/42 585/62/42
f 587/63/43 591/58/43 589/60/43 585/64/43
f 592/57/44 588/65/44 586/66/44 590/59/44
f 593/53/39 594/54/39 596/55/39 595/56/39
f 595/56/40 596/55/40 600/57/40 599/58/40
f 599/58/41 600/57/41 598/59/41 597/60/41
f 597/60/42 598/59/42 594/61/42 593/62/42
f 595/63/43 599/58/43 597/60/43 593/64/43
f 600/57/44 596/65/44 594/66/44 598/59/44
f 601/53/39 602/54/39 604/55/39 603/56/39
f 603/56/40 604/55/40 608/57/40 607/58/40
f 607/58/41 608/57/41 606/59/41 605/60/41
f 605/60/42 606/59/42 602/61/42 601/62/42
f 603/63/43 607/58/43 605/60/43 601/64/43
f 608/57/44 604/65/44 602/66/44 606/59/44
f 609/53/39 610/54/39 612/55/39 611/56/39
f 611/56/40 612/55/40 616/57/40 615/58/40
f 615/58/41 616/57/41 614/59/41 613/60/41
f 613/60/42 614/59/42 610/61/42 609/62/42
f 611/63/43 615/58/43 613/60/43 609/64/43
f 616/57/44 612/65/44 610/66/44 614/59/44
f 617/53/39 618/54/39 620/55/39 619/56/39
f 619/56/40 620/55/40 624/57/40 623/58/40
f 623/58/41 624/57/41 622/59/41 621/60/41
f 621/60/42 622/59/42 618/61/42 617/62/42
f 619/63/43 623/58/43 621/60/43 617/64/43
f 624/57/44 620/65/44 618/66/44 622/59/44
f 625/53/39 626/54/39 628/55/39 627/56/39
f 627/56/40 628/55/40 632/57/40 631/58/40
f 631/58/41 632/57/41 630/59/41 629/60/41
f 629/60/42 630/59/42 626/61/42 625/62/42
f 627/63/43 631/58/43 629/60/43 625/64/43
f 632/57/44 628/65/44 626/66/44 630/59/44
f 633/53/39 634/54/39 636/55/39 635/56/39
f 635/56/40 636/55/40 640/57/40 639/58/40
f 639/58/41 640/57/41 638/59/41 637/60/41
f 637/60/42 638/59/42 634/61/42 633/62/42
f 635/63/43 639/58/43 637/60/43 633/64/43
f 640/57/44 636/65/44 634/66/44 638/59/44
f 641/53/45 642/54/45 644/55/45 643/56/45
f 643/56/46 644/55/46 648/57/46 647/58/46
f 647/58/47 648/57/47 646/59/47 645/60/47
f 645/60/48 646/59/48 642/61/48 641/62/48
f 643/63/49 647/58/49 645/60/49 641/64/49
f 648/57/50 644/65/50 642/66/50 646/59/50
f 649/53/45 650/54/45 652/55/45 651/56/45
f 651/56/46 652/55/46 656/57/46 655/58/46
f 655/58/47 656/57/47 654/59/47 653/60/47
f 653/60/48 654/59/48 650/61/48 649/62/48
f 651/63/49 655/58/49 653/60/49 649/64/49
f 656/57/50 652/65/50 650/66/50 654/59/50
f 657/53/45 658/54/45 660/55/45 659/56/45
f 659/56/46 660/55/46 664/57/46 663/58/46
f 663/58/47 664/57/47 662/59/47 661/60/47
f 661/60/48 662/59/48 658/61/48 657/62/48
f 659/63/49 663/58/49 661/60/49 657/64/49
f 664/57/50 660/65/50 658/66/50 662/59/50
f 665/53/45 666/54/45 668/55/45 667/56/45
f 667/56/46 668/55/46 672/57/46 671/58/46
f 671/58/47 672/57/47 670/59/47 669/60/47
f 669/60/48 670/59/48 666/61/48 665/62/48
f 667/63/49 671/58/49 669/60/49 665/64/49
f 672/57/50 668/65/50 666/66/50 670/59/50
f 673/53/45 674/54/45 676/55/45 675/56/45
f 675/56/46 676/55/46 680/57/46 679/58/46
f 679/58/47 680/57/47 678/59/47 677/60/47
f 677/60/48 678/59/48 674/61/48 673/62/48
f 675/63/49 679/58/49 677/60/49 673/64/49
f 680/57/50 676/65/50 674/66/50 678/59/50
f 681/53/45 682/54/45 684/55/45 683/56/45
f 683/56/46 684/55/46 688/57/46 687/58/46
f 687/58/47 688/57/47 686/59/47 685/60/47
f 685/60/48 686/59/48 682/61/48 681/62/48
f 683/63/49 687/58/49 685/60/49 681/64/49
f 688/57/50 684/65/50 682/66/50 686/59/50
f 689/53/45 690/54/45 692/55/45 691/56/45
f 691/56/46 692/55/46 696/57/46 695/58/46
f 695/58/47 696/57/47 694/59/47 693/60/47
f 693/60/48 694/59/48 690/61/48 689/62/48
f 691/63/49 695/58/49 693/60/49 689/64/49
f 696/57/50 692/65/50 690/66/50 694/59/50
f 697/53/45 698/54/45 700/55/45 699/56/45
f 699/56/46 700/55/46 704/57/46 703/58/46
f 703/58/47 704/57/47 702/59/47 701/60/47
f 701/60/48 702/59/48 698/61/48 697/62/48
f 699/63/49 703/58/49 701/60/49 697/64/49
f 704/57/50 700/65/50 698/66/50 702/59/50
f 705/53/45 706/54/45 708/55/45 707/56/45
f 707/56/46 708/55/46 712/57/46 711/58/46
f 711/58/47 712/57/47 710/59/47 709/60/47
f 709/60/48 710/59/48 706/61/48 705/62/48
f 707/63/49 711/58/49 709/60/49 705/64/49
f 712/57/50 708/65/50 706/66/50 710/59/50
f 713/53/45 714/54/45 716/55/45 715/56/45
f 715/56/46 716/55/46 720/57/46 719/58/46
f 719/58/47 720/57/47 718/59/47 717/60/47
f 717/60/48 718/59/48 714/61/48 713/62/48
f 715/63/49 719/58/49 717/60/49 713/64/49
f 720/57/50 716/65/50 714/66/50 718/59/50
f 721/53/45 722/54/45 724/55/45 723/56/45
f 723/56/46 724/55/46 728/57/46 727/58/46
f 727/58/47 728/57/47 726/59/47 725/60/47
f 725/60/48 726/59/48 722/61/48 721/62/48
f 723/63/49 727/58/49 725/60/49 721/64/49
f 728/57/50 724/65/50 722/66/50 726/59/50
f 729/53/45 730/54/45 732/55/45 731/56/45
f 731/56/46 732/55/46 736/57/46 735/58/46
f 735/58/47 736/57/47 734/59/47 733/60/47
f 733/60/48 734/59/48 730/61/48 729/62/48
f 731/63/49 735/58/49 733/60/49 729/64/49
f 736/57/50 732/65/50 730/66/50 734/59/50
f 737/53/45 738/54/45 740/55/45 739/56/45
f 739/56/46 740/55/46 744/57/46 743/58/46
f 743/58/47 744/57/47 742/59/47 741/60/47
f 741/60/48 742/59/48 738/61/48 737/62/48
f 739/63/49 743/58/49 741/60/49 737/64/49
f 744/57/50 740/65/50 738/66/50 742/59/50
f 745/53/45 746/54/45 748/55/45 747/56/45
f 747/56/46 748/55/46 752/57/46 751/58/46
f 751/58/47 752/57/47 750/59/47 749/60/47
f 749/60/48 750/59/48 746/61/48 745/62/48
f 747/63/49 751/58/49 749/60/49 745/64/49
f 752/57/50 748/65/50 746/66/50 750/59/50
f 753/53/45 754/54/45 756/55/45 755/56/45
f 755/56/46 756/55/46 760/57/46 759/58/46
f 759/58/47 760/57/47 758/59/47 757/60/47
f 757/60/48 758/59/48 754/61/48 753/62/48
f 755/63/49 759/58/49 757/60/49 753/64/49
f 760/57/50 756/65/50 754/66/50 758/59/50
f 761/53/45 762/54/45 764/55/45 763/56/45
f 763/56/46 764/55/46 768/57/46 767/58/46
f 767/58/47 768/57/47 766/59/47 765/60/47
f 765/60/48 766/59/48 762/61/48 761/62/48
f 763/63/49 767/58/49 765/60/49 761/64/49
f 768/57/50 764/65/50 762/66/50 766/59/50
f 769/53/45 770/54/45 772/55/45 771/56/45
f 771/56/46 772/55/46 776/57/46 775/58/46
f 775/58/47 776/57/47 774/59/47 773/60/47
f 773/60/48 774/59/48 770/61/48 769/62/48
f 771/63/49 775/58/49 773/60/49 769/64/49
f 776/57/50 772/65/50 770/66/50 774/59/50
f 777/53/45 778/54/45 780/55/45 779/56/45
f 779/56/46 780/55/46 784/57/46 783/58/46
f 783/58/47 784/57/47 782/59/47 781/60/47
f 781/60/48 782/59/48 778/61/48 777/62/48
f 779/63/49 783/58/49 781/60/49 777/64/49
f 784/57/50 780/65/50 778/66/50 782/59/50
f 785/53/45 786/54/45 788/55/45 787/56/45
f 787/56/46 788/55/46 792/57/46 791/58/46
f 791/58/47 792/57/47 790/59/47 789/60/47
f 789/60/48 790/59/48 786/61/48 785/62/48
f 787/63/49 791/58/49 789/60/49 785/64/49
f 792/57/50 788/65/50 786/66/50 790/59/50
f 793/53/45 794/54/45 796/55/45 795/56/45
f 795/56/46 796/55/46 800/57/46 799/58/46
f 799/58/47 800/57/47 798/59/47 797/60/47
f 797/60/48 798/59/48 794/61/48 793/62/48
f 795/63/49 799/58/49 797/60/49 793/64/49
f 800/57/50 796/65/50 794/66/50 798/59/50
f 801/53/45 802/54/45 804/55/45 803/56/45
f 803/56/46 804/55/46 808/57/46 807/58/46
f 807/58/47 808/57/47 806/59/47 805/60/47
f 805/60/48 806/59/48 802/61/48 801/62/48
f 803/63/49 807/58/49 805/60/49 801/64/49
f 808/57/50 804/65/50 802/66/50 806/59/50
f 809/53/45 810/54/45 812/55/45 811/56/45
f 811/56/46 812/55/46 816/57/46 815/58/46
f 815/58/47 816/57/47 814/59/47 813/60/47
f 813/60/48 814/59/48 810/61/48 809/62/48
f 811/63/49 815/58/49 813/60/49 809/64/49
f 816/57/50 812/65/50 810/66/50 814/59/50
f 817/53/45 818/54/45 820/55/45 819/56/45
f 819/56/46 820/55/46 824/57/46 823/58/46
f 823/58/47 824/57/47 822/59/47 821/60/47
f 821/60/48 822/59/48 818/61/48 817/62/48
f 819/63/49 823/58/49 821/60/49 817/64/49
f 824/57/50 820/65/50 818/66/50 822/59/50
f 825/53/45 826/54/45 828/55/45 827/56/45
f 827/56/46 828/55/46 832/57/46 831/58/46
f 831/58/47 832/57/47 830/59/47 829/60/47
f 829/60/48 830/59/48 826/61/48 825/62/48
f 827/63/49 831/58/49 829/60/49 825/64/49
f 832/57/50 828/65/50 826/66/50 830/59/50
f 833/53/45 834/54/45 836/55/45 835/56/45
f 835/56/46 836/55/46 840/57/46 839/58/46
f 839/58/47 840/57/47 838/59/47 837/60/47
f 837/60/48 838/59/48 834/61/48 833/62/48
f 835/63/49 839/58/49 837/60/49 833/64/49
f 840/57/50 836/65/50 834/66/50 838/59/50
f 841/53/45 842/54/45 844/55/45 843/56/45
f 843/56/46 844/55/46 848/57/46 847/58/46
f 847/58/47 848/57/47 846/59/47 845/60/47
f 845/60/48 846/59/48 842/61/48 841/62/48
f 843/63/49 847/58/49 845/60/49 841/64/49
f 848/57/50 844/65/50 842/66/50 846/59/50
o Plane
v 1.098911 0.321499 -13.434219
v 2.203602 0.321499 -11.765195
v 0.338758 0.321499 -14.713328
v 2.286468 0.321499 -14.630463
v -0.736816 0.321499 -17.128500
v 0.519750 0.321499 -17.091593
v -0.533329 0.321499 -16.239483
v 2.402747 0.321499 -16.156616
v 10.343089 0.321499 -10.331619
v 10.425956 0.321499 -14.242868
v 10.658512 0.321499 -16.658039
v 10.542233 0.321499 -15.769022
v 6.356212 0.321499 -14.436666
v 6.472489 0.321499 -15.962819
v 6.588768 0.321499 -16.851837
v 3.996227 0.321499 -10.670765
v 11.263398 0.321499 -10.897964
v 11.346264 0.321499 -12.862404
v 11.462543 0.321499 -14.388557
v 15.192411 0.321499 -10.402412
v 15.275278 0.321499 -12.366853
v 15.391556 0.321499 -13.893006
v 20.855854 0.321499 -10.402412
v 20.938721 0.321499 -12.366853
v 21.054998 0.321499 -13.893006
v 25.598986 0.321499 -10.402412
v 25.681854 0.321499 -12.366853
v 25.798130 0.321499 -13.893006
v 28.961657 0.321499 -9.977654
v 29.044523 0.321499 -11.942095
v 29.160801 0.321499 -13.468248
v 32.572102 0.321499 -9.659086
v 32.654968 0.321499 -11.623526
v 32.771248 0.321499 -13.149679
v 42.412334 0.321499 -9.659086
v 42.495201 0.321499 -11.623526
v 42.611481 0.321499 -13.149679
v 3.111500 0.321499 -46.236641
v 7.750908 0.321499 -46.088799
v 10.343089 -0.251724 -8.474895
v 3.996228 -0.251724 -8.814041
v 11.263399 -0.251724 -9.041239
v 15.192411 -0.251724 -8.545689
v 20.855854 -0.251724 -8.545689
v 25.598986 -0.251724 -8.545689
v 28.961655 -0.251724 -8.120931
v 32.572098 -0.251724 -7.802361
v 42.412334 -0.251724 -7.802361
v 1.098911 -0.255307 -13.434219
v 2.203602 -0.255307 -11.765195
v 0.338758 -0.255307 -14.713328
v 2.286468 -0.255307 -14.630463
v -0.736816 -0.255307 -17.128500
v 0.519750 -0.255307 -17.091593
v -0.533329 -0.255307 -16.239483
v 2.402747 -0.255307 -16.156616
v 10.310452 -0.245332 -10.433316
v 10.425956 -0.255307 -14.242868
v 10.658512 -0.255307 -16.658039
v 10.542233 -0.255307 -15.769022
v 6.356212 -0.255307 -14.436666
v 6.472489 -0.255307 -15.962819
v 6.588768 -0.255307 -16.851837
v 3.999578 -0.251878 -10.733474
v 11.251096 -0.251189 -10.965657
v 11.346264 -0.255307 -12.862404
v 11.462543 -0.255307 -14.388557
v 15.198254 -0.248310 -10.491791
v 15.275278 -0.255307 -12.366853
v 15.391556 -0.255307 -13.893006
v 20.855854 -0.248854 -10.488451
v 20.938721 -0.255307 -12.366853
v 21.054998 -0.255307 -13.893006
v 25.603998 -0.249331 -10.485073
v 25.681854 -0.255307 -12.366853
v 25.798130 -0.255307 -13.893006
v 28.971096 -0.248628 -10.064667
v 29.044523 -0.255307 -11.942095
v 29.160801 -0.255307 -13.468248
v 32.576103 -0.248481 -9.747471
v 32.654968 -0.255307 -11.623526
v 32.771248 -0.255307 -13.149679
v 42.412334 -0.249025 -9.743986
v 42.495201 -0.255307 -11.623526
v 42.611481 -0.255307 -13.149679
v 3.111500 -0.255307 -46.236641
v 7.750908 -0.255307 -46.088799
v 10.306298 -0.801740 -8.644700
v 4.005319 -0.802794 -8.984172
v 11.215680 -0.800973 -9.210808
v 15.202712 -0.802774 -8.715813
v 20.855854 -0.802862 -8.715840
v 25.610123 -0.802760 -8.715809
v 28.979687 -0.802593 -8.290998
v 32.579399 -0.802818 -7.972500
v 42.412334 -0.802862 -7.972513
vn -0.0000 1.0000 -0.0000
vn 0.1786 0.9401 0.2902
vn -0.0372 0.9548 0.2948
vn -0.0260 0.9552 0.2949
vn -0.0158 0.9554 0.2950
vn -0.0000 0.9555 0.2950
vn -0.0000 -1.0000 -0.0000
vn 0.0005 -1.0000 0.0020
vn 0.0004 -1.0000 0.0007
vn -0.0042 -1.0000 0.0023
vn -0.0000 -1.0000 0.0029
vn -0.0000 -1.0000 0.0036
vn -0.0001 -1.0000 0.0033
vn -0.0003 -1.0000 0.0034
vn -0.0003 -1.0000 0.0036
vn -0.0000 -1.0000 0.0035
vn -0.1778 -0.9388 -0.2951
vn 0.0375 -0.9537 -0.2983
vn 0.0365 -0.9539 -0.2980
vn 0.0263 -0.9542 -0.2981
vn 0.0157 -0.9542 -0.2987
vn -0.0000 -0.9545 -0.2982
vn -0.0000 -0.9545 -0.2983
vn 0.0001 -0.9544 -0.2984
vn -0.8597 -0.0000 0.5109
vn -0.8339 -0.0000 0.5519
vn 0.0294 -0.0000 -0.9996
vn -0.8682 -0.0000 0.4961
vn -0.9748 -0.0000 0.2231
vn 0.9916 -0.0000 0.1297
vn 0.0476 -0.0000 -0.9989
vn -0.5091 -0.0483 0.8594
vn 0.8321 -0.0000 -0.5547
vn 0.1251 -0.0000 -0.9921
vn -0.0000 -0.0000 -1.0000
vn 0.1253 -0.0000 -0.9921
vn 0.0879 -0.0000 -0.9961
vn 0.9991 -0.0032 0.0431
vn 0.9971 -0.0000 0.0760
vn 0.0318 -0.0000 -0.9995
vn -0.9961 -0.0000 -0.0886
vn 0.9992 -0.0000 0.0397
vn -0.0512 -0.2934 0.9546
vn 0.5038 -0.2899 0.8137
vn -0.1189 -0.2892 0.9499
vn -0.0000 -0.2950 0.9555
vn -0.1196 -0.2958 0.9477
vn -0.0841 -0.2957 0.9516
vn -0.9999 -0.0107 -0.0017
vn 1.0000 -0.0000 -0.0000
vt 0.000000 0.000000
vt 1.000000 0.000000
vt 1.000000 1.000000
vt 0.000000 1.000000
vt 0.000000 1.000000
vt 1.000000 1.000000
vt 1.000000 1.000000
s 0
usemtl 
f 849/67/51 850/68/51 852/69/51 851/70/51
f 855/71/51 856/69/51 854/69/51 853/70/51
f 851/70/51 852/69/51 856/69/51 855/71/51
f 862/72/51 861/73/51 858/69/51 860/69/51
f 863/69/51 862/72/51 860/69/51 859/69/51
f 861/73/51 864/68/51 857/68/51 858/69/51
f 852/69/51 850/68/51 864/68/51 861/73/51
f 854/69/51 856/69/51 862/72/51 863/69/51
f 856/69/51 852/69/51 861/73/51 862/72/51
f 860/69/51 858/69/51 866/69/51 867/69/51
f 858/69/51 857/68/51 865/68/51 866/69/51
f 867/69/51 866/69/51 869/69/51 870/69/51
f 866/69/51 865/68/51 868/68/51 869/69/51
f 870/69/51 869/69/51 872/69/51 873/69/51
f 869/69/51 868/68/51 871/68/51 872/69/51
f 873/69/51 872/69/51 875/69/51 876/69/51
f 872/69/51 871/68/51 874/68/51 875/69/51
f 876/69/51 875/69/51 878/69/51 879/69/51
f 875/69/51 874/68/51 877/68/51 878/69/51
f 879/69/51 878/69/51 881/69/51 882/69/51
f 878/69/51 877/68/51 880/68/51 881/69/51
f 882/69/51 881/69/51 884/69/51 885/69/51
f 881/69/51 880/68/51 883/68/51 884/69/51
f 854/69/51 863/69/51 887/69/51 886/69/51
f 865/68/52 857/68/52 888/68/52 890/68/52
f 877/68/53 874/68/53 893/68/53 894/68/53
f 868/68/53 865/68/53 890/68/53 891/68/53
f 880/68/54 877/68/54 894/68/54 895/68/54
f 857/68/55 864/68/55 889/68/55 888/68/55
f 871/68/56 868/68/56 891/68/56 892/68/56
f 883/68/56 880/68/56 895/68/56 896/68/56
f 874/68/56 871/68/56 892/68/56 893/68/56
f 897/67/57 899/70/57 900/69/57 898/68/57
f 903/71/57 901/70/57 902/69/57 904/69/57
f 899/70/57 903/71/57 904/69/57 900/69/57
f 910/72/57 908/69/57 906/69/57 909/73/57
f 911/69/57 907/69/57 908/69/57 910/72/57
f 909/73/58 906/69/58 905/68/58 912/68/58
f 900/69/59 909/73/59 912/68/59 898/68/59
f 902/69/57 911/69/57 910/72/57 904/69/57
f 904/69/57 910/72/57 909/73/57 900/69/57
f 908/69/57 915/69/57 914/69/57 906/69/57
f 906/69/60 914/69/60 913/68/60 905/68/60
f 915/69/57 918/69/57 917/69/57 914/69/57
f 914/69/61 917/69/61 916/68/61 913/68/61
f 918/69/57 921/69/57 920/69/57 917/69/57
f 917/69/62 920/69/62 919/68/62 916/68/62
f 921/69/57 924/69/57 923/69/57 920/69/57
f 920/69/63 923/69/63 922/68/63 919/68/63
f 924/69/57 927/69/57 926/69/57 923/69/57
f 923/69/64 926/69/64 925/68/64 922/68/64
f 927/69/57 930/69/57 929/69/57 926/69/57
f 926/69/65 929/69/65 928/68/65 925/68/65
f 930/69/57 933/69/57 932/69/57 929/69/57
f 929/69/66 932/69/66 931/68/66 928/68/66
f 902/69/57 934/69/57 935/69/57 911/69/57
f 913/68/67 938/68/67 936/68/67 905/68/67
f 925/68/68 942/68/68 941/68/68 922/68/68
f 916/68/69 939/68/69 938/68/69 913/68/69
f 928/68/70 943/68/70 942/68/70 925/68/70
f 905/68/71 936/68/71 937/68/71 912/68/71
f 919/68/72 940/68/72 939/68/72 916/68/72
f 931/68/73 944/68/73 943/68/73 928/68/73
f 922/68/74 941/68/74 940/68/74 919/68/74
f 849/67/75 851/70/75 899/70/75 897/67/75
f 850/68/76 849/67/76 897/67/76 898/68/76
f 853/70/77 854/69/77 902/69/77 901/70/77
f 851/70/78 855/71/78 903/71/78 899/70/78
f 855/71/79 853/70/79 901/70/79 903/71/79
f 859/69/80 860/69/80 908/69/80 907/69/80
f 863/69/81 859/69/81 907/69/81 911/69/81
f 864/68/82 850/68/82 898/68/82 912/68/82
f 860/69/83 867/69/83 915/69/83 908/69/83
f 867/69/84 870/69/84 918/69/84 915/69/84
f 870/69/85 873/69/85 921/69/85 918/69/85
f 873/69/85 876/69/85 924/69/85 921/69/85
f 876/69/86 879/69/86 927/69/86 924/69/86
f 879/69/87 882/69/87 930/69/87 927/69/87
f 884/69/88 883/68/88 931/68/88 932/69/88
f 885/69/89 884/69/89 932/69/89 933/69/89
f 882/69/85 885/69/85 933/69/85 930/69/85
f 886/69/90 887/69/90 935/69/90 934/69/90
f 854/69/91 886/69/91 934/69/91 902/69/91
f 887/69/92 863/69/92 911/69/92 935/69/92
f 888/68/93 889/68/93 937/68/93 936/68/93
f 890/68/94 888/68/94 936/68/94 938/68/94
f 891/68/95 890/68/95 938/68/95 939/68/95
f 892/68/96 891/68/96 939/68/96 940/68/96
f 893/68/96 892/68/96 940/68/96 941/68/96
f 894/68/97 893/68/97 941/68/97 942/68/97
f 895/68/98 894/68/98 942/68/98 943/68/98
f 896/68/96 895/68/96 943/68/96 944/68/96
f 889/68/99 864/68/99 912/68/99 937/68/99
f 883/68/100 896/68/100 944/68/100 931/68/100
o Plane.007
v -73.310799 1.061231 -0.995115
v -49.242855 1.061231 0.618636
v -73.246353 1.061231 -1.956198
v -49.178413 1.061231 -0.342447
v -44.867447 1.061231 0.839865
v -44.803009 1.061231 -0.121219
v -45.653473 1.061231 -0.164220
v -45.717918 1.061231 0.796863
v -45.359070 1.061231 7.255485
v -46.209534 1.061231 7.212483
v -73.310799 0.516999 -0.995115
v -49.242855 0.516999 0.618636
v -73.246353 0.516999 -1.956198
v -49.178413 0.516999 -0.342447
v -44.867447 0.516999 0.839865
v -44.803009 0.516999 -0.121219
v -45.653473 0.516999 -0.164220
v -45.717918 0.516999 0.796863
v -45.359070 0.516999 7.255485
v -46.209534 0.516999 7.212483
vn -0.0000 1.0000 -0.0000
vn -0.0000 -1.0000 -0.0000
vn -0.9978 -0.0000 -0.0669
vn -0.0669 -0.0000 0.9978
vn 0.0669 -0.0000 -0.9978
vn 0.9978 -0.0000 0.0669
vn 0.0505 -0.0000 -0.9987
vn -0.0505 -0.0000 0.9987
vn 0.9971 -0.0000 0.0764
vn -0.9971 -0.0000 -0.0764
vt 0.000000 0.000000
vt 1.000000 0.000000
vt 1.000000 1.000000
vt 0.000000 1.000000
s 0
f 945/74/101 946/75/101 948/76/101 947/77/101
f 951/76/101 952/75/101 949/75/101 950/76/101
f 948/76/101 946/75/101 952/75/101 951/76/101
f 949/75/101 952/75/101 954/75/101 953/75/101
f 955/74/102 957/77/102 958/76/102 956/75/102
f 961/76/102 960/76/102 959/75/102 962/75/102
f 958/76/102 961/76/102 962/75/102 956/75/102
f 959/75/102 963/75/102 964/75/102 962/75/102
f 945/74/103 947/77/103 957/77/103 955/74/103
f 946/75/104 945/74/104 955/74/104 956/75/104
f 947/77/105 948/76/105 958/76/105 957/77/105
f 950/76/106 949/75/106 959/75/106 960/76/106
f 948/76/107 951/76/107 961/76/107 958/76/107
f 951/76/107 950/76/107 960/76/107 961/76/107
f 952/75/108 946/75/108 956/75/108 962/75/108
f 953/75/108 954/75/108 964/75/108 963/75/108
f 949/75/109 953/75/109 963/75/109 959/75/109
f 954/75/110 952/75/110 962/75/110 964/75/110
o Plane.008
v -28.178236 0.388981 -11.245119
v -19.639015 0.154112 -14.420468
v -28.178236 0.388981 -19.414650
v -15.568541 0.154112 -17.938391
v -21.855055 0.224692 -13.360800
v -14.323378 0.224692 -19.185806
v -28.178236 0.388981 -17.173470
v -17.603779 0.154112 -16.107681
v -21.720366 0.224692 -17.501436
v -47.357651 0.437640 -13.393917
v -47.357651 0.437640 -20.793415
v -47.357651 0.437640 -18.763481
v -53.771301 0.396803 -16.374954
v -53.771301 0.396803 -21.510759
v -53.771301 0.396803 -20.101833
v -40.365784 0.419901 -18.183842
v -39.671494 0.419901 -20.290787
v -40.365784 0.419901 -12.610571
v -34.048584 0.403874 -17.660133
v -34.048584 0.403874 -11.902813
v -34.048584 0.403874 -24.336292
v -27.574362 0.546305 -25.409821
v -31.347630 0.612169 -30.331461
v -26.693583 0.597276 -34.481842
v -30.466850 0.612169 -39.403484
v -26.517427 0.597276 -39.942673
v -30.290695 0.612169 -44.864311
v -28.192675 -0.700923 -11.245293
v -19.662838 -0.935591 -14.429338
v -28.181381 -0.700889 -19.431175
v -15.583979 -0.934991 -17.979815
v -21.881596 -0.864979 -13.364250
v -14.339518 -0.864488 -19.224863
v -28.191172 -0.700911 -17.181675
v -17.621971 -0.935302 -16.138416
v -21.741613 -0.864892 -17.522789
v -47.356503 -0.652359 -13.393917
v -47.355217 -0.652357 -20.793621
v -47.355518 -0.652358 -18.763596
v -53.764362 -0.693174 -16.374954
v -53.764362 -0.693174 -21.510759
v -53.764362 -0.693174 -20.101833
v -40.368549 -0.670095 -18.184017
v -39.674355 -0.670095 -20.291092
v -40.368546 -0.670095 -12.610571
v -34.051403 -0.686122 -17.660189
v -34.051350 -0.686122 -11.902813
v -34.040276 -0.686003 -24.350395
v -27.561275 -0.543392 -25.431929
v -31.346313 -0.477772 -30.342693
v -26.699793 -0.492702 -34.484764
v -30.471607 -0.477820 -39.404457
v -26.521555 -0.492716 -39.942802
v -30.294825 -0.477823 -44.864449
vn 0.0142 0.9992 0.0380
vn 0.0163 0.9994 0.0307
vn 0.0258 0.9997 0.0003
vn 0.0219 0.9997 0.0081
vn 0.0024 1.0000 0.0004
vn 0.0025 1.0000 -0.0000
vn -0.0064 1.0000 -0.0000
vn 0.0027 1.0000 0.0002
vn -0.0177 0.9995 0.0256
vn 0.0062 1.0000 0.0034
vn 0.0038 1.0000 0.0001
vn -0.0142 -0.9992 -0.0380
vn -0.0163 -0.9994 -0.0308
vn -0.0258 -0.9997 -0.0004
vn -0.0218 -0.9997 -0.0082
vn -0.0024 -1.0000 -0.0004
vn -0.0025 -1.0000 -0.0000
vn 0.0064 -1.0000 -0.0000
vn -0.0027 -1.0000 -0.0002
vn 0.0177 -0.9995 -0.0256
vn -0.0062 -1.0000 -0.0034
vn -0.0038 -1.0000 -0.0001
vn 0.4316 -0.0151 0.9019
vn 0.6692 -0.0349 0.7423
vn 0.0160 0.0254 -0.9996
vn 0.3176 -0.0075 0.9482
vn 0.7081 -0.0363 0.7052
vn 0.6399 -0.0263 0.7680
vn 0.0653 0.0002 -0.9979
vn -0.1114 0.0008 0.9938
vn -1.0000 -0.0064 -0.0000
vn 0.1112 0.0006 -0.9938
vn -0.4216 -0.0016 0.9068
vn -0.5843 0.0039 -0.8115
vn -0.1114 0.0001 0.9938
vn -0.1113 0.0003 0.9938
vn -0.9119 0.0007 -0.4104
vn 0.9948 0.0027 0.1016
vn -0.9953 0.0021 -0.0964
vn 0.9954 0.0020 0.0957
vn 0.7936 -0.0029 -0.6084
vn -0.9995 0.0041 -0.0323
vn 0.9995 -0.0048 0.0324
vt 0.699493 0.500000
vt 1.000000 0.500000
vt 1.000000 1.000000
vt 0.699493 1.000000
vt 0.000000 0.500000
vt 0.000000 1.000000
vt 0.000000 0.000000
vt 0.699493 0.000000
vt 1.000000 0.000000
s 0
f 973/78/111 972/79/111 968/80/111 970/81/111
f 971/82/112 973/78/112 970/81/112 967/83/112
f 965/84/113 969/85/113 973/78/113 971/82/113
f 969/85/114 966/86/114 972/79/114 973/78/114
f 980/82/115 981/83/115 975/83/115 976/82/115
f 982/84/116 980/82/116 976/82/116 974/84/116
f 976/82/117 975/83/117 978/83/117 979/82/117
f 974/84/117 976/82/117 979/82/117 977/84/117
f 984/84/116 983/82/116 980/82/116 982/84/116
f 983/82/118 985/83/118 981/83/118 980/82/118
f 971/82/116 967/83/116 985/83/116 983/82/116
f 965/84/116 971/82/116 983/82/116 984/84/116
f 985/83/119 967/83/119 986/83/119 987/83/119
f 987/83/120 986/83/120 988/83/120 989/83/120
f 989/83/121 988/83/121 990/83/121 991/83/121
f 1000/78/122 997/81/122 995/80/122 999/79/122
f 998/82/123 994/83/123 997/81/123 1000/78/123
f 992/84/124 998/82/124 1000/78/124 996/85/124
f 996/85/125 1000/78/125 999/79/125 993/86/125
f 1007/82/126 1003/82/126 1002/83/126 1008/83/126
f 1009/84/127 1001/84/127 1003/82/127 1007/82/127
f 1003/82/128 1006/82/128 1005/83/128 1002/83/128
f 1001/84/128 1004/84/128 1006/82/128 1003/82/128
f 1011/84/127 1009/84/127 1007/82/127 1010/82/127
f 1010/82/129 1007/82/129 1008/83/129 1012/83/129
f 998/82/127 1010/82/127 1012/83/127 994/83/127
f 992/84/127 1011/84/127 1010/82/127 998/82/127
f 1012/83/130 1014/83/130 1013/83/130 994/83/130
f 1014/83/131 1016/83/131 1015/83/131 1013/83/131
f 1016/83/132 1018/83/132 1017/83/132 1015/83/132
f 966/86/133 969/85/133 996/85/133 993/86/133
f 968/80/134 972/79/134 999/79/134 995/80/134
f 967/83/135 970/81/135 997/81/135 994/83/135
f 969/85/136 965/84/136 992/84/136 996/85/136
f 970/81/137 968/80/137 995/80/137 997/81/137
f 972/79/138 966/86/138 993/86/138 999/79/138
f 975/83/139 981/83/139 1008/83/139 1002/83/139
f 965/84/140 984/84/140 1011/84/140 992/84/140
f 977/84/141 979/82/141 1006/82/141 1004/84/141
f 979/82/141 978/83/141 1005/83/141 1006/82/141
f 978/83/142 975/83/142 1002/83/142 1005/83/142
f 974/84/143 977/84/143 1004/84/143 1001/84/143
f 981/83/144 985/83/144 1012/83/144 1008/83/144
f 982/84/145 974/84/145 1001/84/145 1009/84/145
f 984/84/146 982/84/146 1009/84/146 1011/84/146
f 985/83/147 987/83/147 1014/83/147 1012/83/147
f 986/83/148 967/83/148 994/83/148 1013/83/148
f 987/83/149 989/83/149 1016/83/149 1014/83/149
f 988/83/150 986/83/150 1013/83/150 1015/83/150
f 991/83/151 990/83/151 1017/83/151 1018/83/151
f 989/83/152 991/83/152 1018/83/152 1016/83/152
f 990/83/153 988/83/153 1015/83/153 1017/83/153
o Cube.010
v -25.722443 -0.688427 2.754200
v -25.722443 0.116257 2.754200
v -25.662153 -0.688427 1.951778
v -25.662153 0.116257 1.951778
v -23.785507 -0.688427 2.899728
v -23.785507 0.116257 2.899728
v -23.725220 -0.688427 2.097307
v -23.725220 0.116257 2.097307
v -22.332806 -0.688427 3.008874
v -22.332806 0.116257 3.008874
v -22.272518 -0.688427 2.206453
v -22.272518 0.116257 2.206453
v -20.395872 -0.688427 3.154403
v -20.395872 0.116256 3.154403
v -20.335583 -0.688427 2.351981
v -20.335583 0.116256 2.351981
v -18.943171 -0.688426 3.263549
v -18.943171 0.116257 3.263549
v -18.882881 -0.688427 2.461127
v -18.882881 0.116257 2.461127
v -17.006237 -0.688427 3.409077
v -17.006237 0.116256 3.409077
v -16.945948 -0.688427 2.606655
v -16.945948 0.116256 2.606655
v -15.553535 -0.688426 3.518223
v -15.553535 0.116257 3.518223
v -15.493246 -0.688426 2.715801
v -15.493246 0.116257 2.715801
v -13.616602 -0.688428 3.663751
v -13.616601 0.116256 3.663751
v -13.556313 -0.688428 2.861330
v -13.556312 0.116255 2.861330
v -12.163900 -0.688426 3.772897
v -12.163899 0.116257 3.772897
v -12.103611 -0.688426 2.970476
v -12.103610 0.116257 2.970476
v -10.226965 -0.688428 3.918426
v -10.226965 0.116255 3.918426
v -10.166676 -0.688428 3.116004
v -10.166676 0.116255 3.116004
v -8.774263 -0.688426 4.027572
v -8.774263 0.116257 4.027572
v -8.713976 -0.688426 3.225150
v -8.713976 0.116257 3.225150
v -6.837330 -0.688429 4.173100
v -6.837330 0.116255 4.173100
v -6.777042 -0.688429 3.370678
v -6.777042 0.116255 3.370678
v -5.384628 -0.688426 4.282246
v -5.384628 0.116257 4.282246
v -5.324341 -0.688426 3.479824
v -5.324341 0.116257 3.479824
v -3.447693 -0.688429 4.427774
v -3.447693 0.116254 4.427774
v -3.387405 -0.688429 3.625352
v -3.387405 0.116254 3.625352
v -1.994991 -0.688426 4.536921
v -1.994991 0.116257 4.536921
v -1.934704 -0.688426 3.734499
v -1.934704 0.116257 3.734499
v -0.058058 -0.688429 4.682448
v -0.058056 0.116254 4.682448
v 0.002230 -0.688430 3.880027
v 0.002232 0.116254 3.880027
v 1.394644 -0.688426 4.791595
v 1.394644 0.116257 4.791595
v 1.454931 -0.688426 3.989173
v 1.454931 0.116257 3.989173
v 3.331577 -0.688430 4.937123
v 3.331579 0.116253 4.937123
v 3.391865 -0.688430 4.134701
v 3.391867 0.116253 4.134701
v 4.784279 -0.688426 5.046269
v 4.784281 0.116257 5.046269
v 4.844566 -0.688426 4.243847
v 4.844568 0.116257 4.243847
v 6.721212 -0.688430 5.191797
v 6.721216 0.116253 5.191797
v 6.781500 -0.688430 4.389376
v 6.781504 0.116253 4.389376
v 8.173914 -0.688426 5.300943
v 8.173918 0.116257 5.300943
v 8.234201 -0.688426 4.498522
v 8.234205 0.116257 4.498522
v 10.110849 -0.688431 5.446471
v 10.110849 0.116253 5.446471
v 10.171137 -0.688431 4.644050
v 10.171137 0.116253 4.644050
v 11.563551 -0.688426 5.555617
v 11.563555 0.116257 5.555617
v 11.623838 -0.688426 4.753196
v 11.623842 0.116257 4.753196
v 13.500486 -0.688431 5.701146
v 13.500486 0.116252 5.701146
v 13.560774 -0.688431 4.898725
v 13.560774 0.116252 4.898724
v 14.953184 -0.688426 5.810292
v 14.953188 0.116257 5.810292
v 15.013472 -0.688426 5.007870
v 15.013475 0.116257 5.007870
v 16.890120 -0.688432 5.955820
v 16.890120 0.116252 5.955820
v 16.950407 -0.688432 5.153399
v 16.950407 0.116252 5.153399
v 18.342821 -0.688426 6.064966
v 18.342821 0.116257 6.064966
v 18.403109 -0.688426 5.262545
v 18.403109 0.116257 5.262545
v 20.279753 -0.688432 6.210494
v 20.279753 0.116251 6.210494
v 20.340040 -0.688432 5.408072
v 20.340040 0.116251 5.408072
v 21.732458 -0.688426 6.319641
v 21.732458 0.116257 6.319640
v 21.792746 -0.688426 5.517219
v 21.792746 0.116257 5.517219
v 23.669390 -0.688432 6.465169
v 23.669390 0.116251 6.465169
v 23.729677 -0.688433 5.662747
v 23.729677 0.116251 5.662746
v 25.122095 -0.688426 6.574315
v 25.122095 0.116257 6.574315
v 25.182383 -0.688426 5.771894
v 25.182383 0.116257 5.771893
v 27.059031 -0.688433 6.719843
v 27.059031 0.116251 6.719843
v 27.119318 -0.688433 5.917421
v 27.119318 0.116250 5.917421
v 28.511728 -0.688426 6.828989
v 28.511728 0.116258 6.828989
v 28.572016 -0.688426 6.026567
v 28.572016 0.116257 6.026567
v 30.448664 -0.688433 6.974517
v 30.448664 0.116250 6.974517
v 30.508951 -0.688433 6.172095
v 30.508951 0.116250 6.172095
v 31.901361 -0.688426 7.083663
v 31.901361 0.116258 7.083663
v 31.961649 -0.688426 6.281241
v 31.961649 0.116257 6.281241
v 33.838295 -0.688434 7.229191
v 33.838295 0.116250 7.229191
v 33.898582 -0.688434 6.426769
v 33.898582 0.116249 6.426769
v 35.291000 -0.688426 7.338338
v 35.291000 0.116258 7.338338
v 35.351288 -0.688426 6.535916
v 35.351288 0.116257 6.535916
v 37.227936 -0.688434 7.483866
v 37.227936 0.116249 7.483866
v 37.288223 -0.688434 6.681444
v 37.288223 0.116249 6.681444
v 38.680634 -0.688426 7.593012
v 38.680641 0.116258 7.593013
v 38.740921 -0.688426 6.790590
v 38.740929 0.116257 6.790591
v 40.617569 -0.688434 7.738541
v 40.617577 0.116249 7.738541
v 40.677856 -0.688435 6.936119
v 40.677864 0.116249 6.936119
v 42.070267 -0.688426 7.847686
v 42.070274 0.116258 7.847687
v 42.130554 -0.688426 7.045264
v 42.130562 0.116257 7.045265
v 44.007202 -0.688435 7.993215
v 44.007210 0.116249 7.993215
v 44.067490 -0.688435 7.190793
v 44.067497 0.116248 7.190793
v 45.459900 -0.688425 8.102360
v 45.459908 0.116258 8.102361
v 45.520187 -0.688426 7.299938
v 45.520195 0.116257 7.299938
v 47.396835 -0.688435 8.247889
v 47.396835 0.116248 8.247889
v 47.457123 -0.688435 7.445467
v 47.457123 0.116248 7.445466
v 48.849541 -0.688425 8.357035
v 48.849548 0.116258 8.357036
v 48.909828 -0.688426 7.554613
v 48.909836 0.116258 7.554613
v 50.786476 -0.688436 8.502563
v 50.786476 0.116248 8.502563
v 50.846764 -0.688436 7.700142
v 50.846764 0.116247 7.700141
v 52.239174 -0.688425 8.611709
v 52.239182 0.116258 8.611710
v 52.299461 -0.688426 7.809287
v 52.299469 0.116258 7.809287
v 54.176109 -0.688436 8.757237
v 54.176109 0.116247 8.757237
v 54.236397 -0.688436 7.954816
v 54.236397 0.116247 7.954815
v 55.628807 -0.688425 8.866384
v 55.628815 0.116258 8.866384
v 55.689095 -0.688426 8.063962
v 55.689102 0.116258 8.063962
v 57.565742 -0.688436 9.011911
v 57.565750 0.116247 9.011912
v 57.626030 -0.688437 8.209490
v 57.626038 0.116247 8.209490
v 59.018440 -0.688425 9.121058
v 59.018448 0.116258 9.121058
v 59.078728 -0.688426 8.318636
v 59.078735 0.116258 8.318636
v 60.955376 -0.688437 9.266585
v 60.955383 0.116246 9.266586
v 61.015663 -0.688437 8.464164
v 61.015671 0.116246 8.464165
vn -0.9972 -0.0000 -0.0749
vn 0.0749 -0.0000 -0.9972
vn 0.9972 -0.0000 0.0749
vn -0.0749 -0.0000 0.9972
vn -0.0000 -1.0000 -0.0000
vn -0.0000 1.0000 -0.0000
vt 0.375000 0.000000
vt 0.625000 0.000000
vt 0.625000 0.250000
vt 0.375000 0.250000
vt 0.625000 0.500000
vt 0.375000 0.500000
vt 0.625000 0.750000
vt 0.375000 0.750000
vt 0.625000 1.000000
vt 0.375000 1.000000
vt 0.125000 0.500000
vt 0.125000 0.750000
vt 0.875000 0.500000
vt 0.875000 0.750000
s 0
usemtl 
f 1019/87/154 1020/88/154 1022/89/154 1021/90/154
f 1021/90/155 1022/89/155 1026/91/155 1025/92/155
f 1025/92/156 1026/91/156 1024/93/156 1023/94/156
f 1023/94/157 1024/93/157 1020/95/157 1019/96/157
f 1021/97/158 1025/92/158 1023/94/158 1019/98/158
f 1026/91/159 1022/99/159 1020/100/159 1024/93/159
f 1027/87/154 1028/88/154 1030/89/154 1029/90/154
f 1029/90/155 1030/89/155 1034/91/155 1033/92/155
f 1033/92/156 1034/91/156 1032/93/156 1031/94/156
f 1031/94/157 1032/93/157 1028/95/157 1027/96/157
f 1029/97/158 1033/92/158 1031/94/158 1027/98/158
f 1034/91/159 1030/99/159 1028/100/159 1032/93/159
f 1035/87/154 1036/88/154 1038/89/154 1037/90/154
f 1037/90/155 1038/89/155 1042/91/155 1041/92/155
f 1041/92/156 1042/91/156 1040/93/156 1039/94/156
f 1039/94/157 1040/93/157 1036/95/157 1035/96/157
f 1037/97/158 1041/92/158 1039/94/158 1035/98/158
f 1042/91/159 1038/99/159 1036/100/159 1040/93/159
f 1043/87/154 1044/88/154 1046/89/154 1045/90/154
f 1045/90/155 1046/89/155 1050/91/155 1049/92/155
f 1049/92/156 1050/91/156 1048/93/156 1047/94/156
f 1047/94/157 1048/93/157 1044/95/157 1043/96/157
f 1045/97/158 1049/92/158 1047/94/158 1043/98/158
f 1050/91/159 1046/99/159 1044/100/159 1048/93/159
f 1051/87/154 1052/88/154 1054/89/154 1053/90/154
f 1053/90/155 1054/89/155 1058/91/155 1057/92/155
f 1057/92/156 1058/91/156 1056/93/156 1055/94/156
f 1055/94/157 1056/93/157 1052/95/157 1051/96/157
f 1053/97/158 1057/92/158 1055/94/158 1051/98/158
f 1058/91/159 1054/99/159 1052/100/159 1056/93/159
f 1059/87/154 1060/88/154 1062/89/154 1061/90/154
f 1061/90/155 1062/89/155 1066/91/155 1065/92/155
f 1065/92/156 1066/91/156 1064/93/156 1063/94/156
f 1063/94/157 1064/93/157 1060/95/157 1059/96/157
f 1061/97/158 1065/92/158 1063/94/158 1059/98/158
f 1066/91/159 1062/99/159 1060/100/159 1064/93/159
f 1067/87/154 1068/88/154 1070/89/154 1069/90/154
f 1069/90/155 1070/89/155 1074/91/155 1073/92/155
f 1073/92/156 1074/91/156 1072/93/156 1071/94/156
f 1071/94/157 1072/93/157 1068/95/157 1067/96/157
f 1069/97/158 1073/92/158 1071/94/158 1067/98/158
f 1074/91/159 1070/99/159 1068/100/159 1072/93/159
f 1075/87/154 1076/88/154 1078/89/154 1077/90/154
f 1077/90/155 1078/89/155 1082/91/155 1081/92/155
f 1081/92/156 1082/91/156 1080/93/156 1079/94/156
f 1079/94/157 1080/93/157 1076/95/157 1075/96/157
f 1077/97/158 1081/92/158 1079/94/158 1075/98/158
f 1082/91/159 1078/99/159 1076/100/159 1080/93/159
f 1083/87/154 1084/88/154 1086/89/154 1085/90/154
f 1085/90/155 1086/89/155 1090/91/155 1089/92/155
f 1089/92/156 1090/91/156 1088/93/156 1087/94/156
f 1087/94/157 1088/93/157 1084/95/157 1083/96/157
f 1085/97/158 1089/92/158 1087/94/158 1083/98/158
f 1090/91/159 1086/99/159 1084/100/159 1088/93/159
f 1091/87/154 1092/88/154 1094/89/154 1093/90/154
f 1093/90/155 1094/89/155 1098/91/155 1097/92/155
f 1097/92/156 1098/91/156 1096/93/156 1095/94/156
f 1095/94/157 1096/93/157 1092/95/157 1091/96/157
f 1093/97/158 1097/92/158 1095/94/158 1091/98/158
f 1098/91/159 1094/99/159 1092/100/159 1096/93/159
f 1099/87/154 1100/88/154 1102/89/154 1101/90/154
f 1101/90/155 1102/89/155 1106/91/155 1105/92/155
f 1105/92/156 1106/91/156 1104/93/156 1103/94/156
f 1103/94/157 1104/93/157 1100/95/157 1099/96/157
f 1101/97/158 1105/92/158 1103/94/158 1099/98/158
f 1106/91/159 1102/99/159 1100/100/159 1104/93/159
f 1107/87/154 1108/88/154 1110/89/154 1109/90/154
f 1109/90/155 1110/89/155 1114/91/155 1113/92/155
f 1113/92/156 1114/91/156 1112/93/156 1111/94/156
f 1111/94/157 1112/93/157 1108/95/157 1107/96/157
f 1109/97/158 1113/92/158 1111/94/158 1107/98/158
f 1114/91/159 1110/99/159 1108/100/159 1112/93/159
f 1115/87/154 1116/88/154 1118/89/154 1117/90/154
f 1117/90/155 1118/89/155 1122/91/155 1121/92/155
f 1121/92/156 1122/91/156 1120/93/156 1119/94/156
f 1119/94/157 1120/93/157 1116/95/157 1115/96/157
f 1117/97/158 1121/92/158 1119/94/158 1115/98/158
f 1122/91/159 1118/99/159 1116/100/159 1120/93/159
f 1123/87/154 1124/88/154 1126/89/154 1125/90/154
f 1125/90/155 1126/89/155 1130/91/155 1129/92/155
f 1129/92/156 1130/91/156 1128/93/156 1127/94/156
f 1127/94/157 1128/93/157 1124/95/157 1123/96/157
f 1125/97/158 1129/92/158 1127/94/158 1123/98/158
f 1130/91/159 1126/99/159 1124/100/159 1128/93/159
f 1131/87/154 1132/88/154 1134/89/154 1133/90/154
f 1133/90/155 1134/89/155 1138/91/155 1137/92/155
f 1137/92/156 1138/91/156 1136/93/156 1135/94/156
f 1135/94/157 1136/93/157 1132/95/157 1131/96/157
f 1133/97/158 1137/92/158 1135/94/158 1131/98/158
f 1138/91/159 1134/99/159 1132/100/159 1136/93/159
f 1139/87/154 1140/88/154 1142/89/154 1141/90/154
f 1141/90/155 1142/89/155 1146/91/155 1145/92/155
f 1145/92/156 1146/91/156 1144/93/156 1143/94/156
f 1143/94/157 1144/93/157 1140/95/157 1139/96/157
f 1141/97/158 1145/92/158 1143/94/158 1139/98/158
f 1146/91/159 1142/99/159 1140/100/159 1144/93/159
f 1147/87/154 1148/88/154 1150/89/154 1149/90/154
f 1149/90/155 1150/89/155 1154/91/155 1153/92/155
f 1153/92/156 1154/91/156 1152/93/156 1151/94/156
f 1151/94/157 1152/93/157 1148/95/157 1147/96/157
f 1149/97/158 1153/92/158 1151/94/158 1147/98/158
f 1154/91/159 1150/99/159 1148/100/159 1152/93/159
f 1155/87/154 1156/88/154 1158/89/154 1157/90/154
f 1157/90/155 1158/89/155 1162/91/155 1161/92/155
f 1161/92/156 1162/91/156 1160/93/156 1159/94/156
f 1159/94/157 1160/93/157 1156/95/157 1155/96/157
f 1157/97/158 1161/92/158 1159/94/158 1155/98/158
f 1162/91/159 1158/99/159 1156/100/159 1160/93/159
f 1163/87/154 1164/88/154 1166/89/154 1165/90/154
f 1165/90/155 1166/89/155 1170/91/155 1169/92/155
f 1169/92/156 1170/91/156 1168/93/156 1167/94/156
f 1167/94/157 1168/93/157 1164/95/157 1163/96/157
f 1165/97/158 1169/92/158 1167/94/158 1163/98/158
f 1170/91/159 1166/99/159 1164/100/159 1168/93/159
f 1171/87/154 1172/88/154 1174/89/154 1173/90/154
f 1173/90/155 1174/89/155 1178/91/155 1177/92/155
f 1177/92/156 1178/91/156 1176/93/156 1175/94/156
f 1175/94/157 1176/93/157 1172/95/157 1171/96/157
f 1173/97/158 1177/92/158 1175/94/158 1171/98/158
f 1178/91/159 1174/99/159 1172/100/159 1176/93/159
f 1179/87/154 1180/88/154 1182/89/154 1181/90/154
f 1181/90/155 1182/89/155 1186/91/155 1185/92/155
f 1185/92/156 1186/91/156 1184/93/156 1183/94/156
f 1183/94/157 1184/93/157 1180/95/157 1179/96/157
f 1181/97/158 1185/92/158 1183/94/158 1179/98/158
f 1186/91/159 1182/99/159 1180/100/159 1184/93/159
f 1187/87/154 1188/88/154 1190/89/154 1189/90/154
f 1189/90/155 1190/89/155 1194/91/155 1193/92/155
f 1193/92/156 1194/91/156 1192/93/156 1191/94/156
f 1191/94/157 1192/93/157 1188/95/157 1187/96/157
f 1189/97/158 1193/92/158 1191/94/158 1187/98/158
f 1194/91/159 1190/99/159 1188/100/159 1192/93/159
f 1195/87/154 1196/88/154 1198/89/154 1197/90/154
f 1197/90/155 1198/89/155 1202/91/155 1201/92/155
f 1201/92/156 1202/91/156 1200/93/156 1199/94/156
f 1199/94/157 1200/93/157 1196/95/157 1195/96/157
f 1197/97/158 1201/92/158 1199/94/158 1195/98/158
f 1202/91/159 1198/99/159 1196/100/159 1200/93/159
f 1203/87/154 1204/88/154 1206/89/154 1205/90/154
f 1205/90/155 1206/89/155 1210/91/155 1209/92/155
f 1209/92/156 1210/91/156 1208/93/156 1207/94/156
f 1207/94/157 1208/93/157 1204/95/157 1203/96/157
f 1205/97/158 1209/92/158 1207/94/158 1203/98/158
f 1210/91/159 1206/99/159 1204/100/159 1208/93/159
f 1211/87/154 1212/88/154 1214/89/154 1213/90/154
f 1213/90/155 1214/89/155 1218/91/155 1217/92/155
f 1217/92/156 1218/91/156 1216/93/156 1215/94/156
f 1215/94/157 1216/93/157 1212/95/157 1211/96/157
f 1213/97/158 1217/92/158 1215/94/158 1211/98/158
f 1218/91/159 1214/99/159 1212/100/159 1216/93/159
f 1219/87/154 1220/88/154 1222/89/154 1221/90/154
f 1221/90/155 1222/89/155 1226/91/155 1225/92/155
f 1225/92/156 1226/91/156 1224/93/156 1223/94/156
f 1223/94/157 1224/93/157 1220/95/157 1219/96/157
f 1221/97/158 1225/92/158 1223/94/158 1219/98/158
f 1226/91/159 1222/99/159 1220/100/159 1224/93/159
o Plane.011
v 10.185302 0.461467 -4.380272
v 18.096519 0.461467 -3.920117
v 13.194006 0.461467 -7.477565
v 17.494780 0.461467 -8.893426
v 25.742168 0.461467 -3.389169
v 25.140429 0.461467 -8.362478
v 35.263832 0.461467 -2.716635
v 34.662094 0.461467 -7.689944
v 42.343140 0.461467 -2.150291
v 41.741394 0.461467 -7.123600
v 10.185302 -0.048533 -4.380272
v 18.096519 -0.048533 -3.920117
v 13.194006 -0.048533 -7.477565
v 17.494780 -0.048533 -8.893426
v 25.742168 -0.048533 -3.389169
v 25.140429 -0.048533 -8.362478
v 35.263832 -0.048533 -2.716635
v 34.662094 -0.048533 -7.689944
v 42.343140 -0.048533 -2.150291
v 41.741394 -0.048533 -7.123600
vn -0.0000 1.0000 -0.0000
vn -0.0000 -1.0000 -0.0000
vn -0.7173 -0.0000 -0.6968
vn -0.0581 -0.0000 0.9983
vn -0.3127 -0.0000 -0.9499
vn 0.0693 -0.0000 -0.9976
vn -0.0693 -0.0000 0.9976
vn 0.0705 -0.0000 -0.9975
vn -0.0705 -0.0000 0.9975
vn 0.9928 -0.0000 -0.1201
vn 0.0797 -0.0000 -0.9968
vn -0.0797 -0.0000 0.9968
vt 0.000000 0.000000
vt 1.000000 0.000000
vt 1.000000 1.000000
vt 0.000000 1.000000
s 0
f 1227/101/160 1228/102/160 1230/103/160 1229/104/160
f 1230/103/160 1228/102/160 1231/102/160 1232/103/160
f 1232/103/160 1231/102/160 1233/102/160 1234/103/160
f 1234/103/160 1233/102/160 1235/102/160 1236/103/160
f 1237/101/161 1239/104/161 1240/103/161 1238/102/161
f 1240/103/161 1242/103/161 1241/102/161 1238/102/161
f 1242/103/161 1244/103/161 1243/102/161 1241/102/161
f 1244/103/161 1246/103/161 1245/102/161 1243/102/161
f 1227/101/162 1229/104/162 1239/104/162 1237/101/162
f 1228/102/163 1227/101/163 1237/101/163 1238/102/163
f 1229/104/164 1230/103/164 1240/103/164 1239/104/164
f 1230/103/165 1232/103/165 1242/103/165 1240/103/165
f 1231/102/166 1228/102/166 1238/102/166 1241/102/166
f 1232/103/167 1234/103/167 1244/103/167 1242/103/167
f 1233/102/168 1231/102/168 1241/102/168 1243/102/168
f 1236/103/169 1235/102/169 1245/102/169 1246/103/169
f 1234/103/170 1236/103/170 1246/103/170 1244/103/170
f 1235/102/171 1233/102/171 1243/102/171 1245/102/171
o Cube.011
v -28.588398 -0.688427 -11.203104
v -28.588398 0.116257 -11.203104
v -27.785976 -0.688427 -11.142816
v -27.785976 0.116257 -11.142816
v -28.733925 -0.688427 -9.266170
v -28.733925 0.116257 -9.266170
v -27.931503 -0.688427 -9.205881
v -27.931503 0.116257 -9.205881
v -28.773218 -0.688427 -8.743197
v -28.773218 0.116257 -8.743197
v -27.970797 -0.688427 -8.682909
v -27.970797 0.116257 -8.682909
v -28.918745 -0.688427 -6.806263
v -28.918745 0.116256 -6.806262
v -28.116323 -0.688427 -6.745975
v -28.116323 0.116256 -6.745974
v -28.958038 -0.688426 -6.283290
v -28.958038 0.116257 -6.283290
v -28.155617 -0.688427 -6.223001
v -28.155617 0.116257 -6.223001
v -29.103565 -0.688427 -4.346356
v -29.103565 0.116256 -4.346356
v -28.301144 -0.688427 -4.286068
v -28.301144 0.116256 -4.286067
v -29.142859 -0.688426 -3.823383
v -29.142859 0.116257 -3.823383
v -28.340437 -0.688426 -3.763095
v -28.340437 0.116257 -3.763094
v -29.288387 -0.688428 -1.886449
v -29.288387 0.116256 -1.886448
v -28.485964 -0.688428 -1.826160
v -28.485964 0.116255 -1.826159
v -29.327679 -0.688426 -1.363476
v -29.327679 0.116257 -1.363475
v -28.525257 -0.688426 -1.303187
v -28.525257 0.116257 -1.303186
v -29.473207 -0.688428 0.573459
v -29.473207 0.116255 0.573459
v -28.670786 -0.688428 0.633747
v -28.670784 0.116255 0.633747
vn 0.0749 -0.0000 -0.9972
vn 0.9972 -0.0000 0.0749
vn -0.0749 -0.0000 0.9972
vn -0.9972 -0.0000 -0.0749
vn -0.0000 -1.0000 -0.0000
vn -0.0000 1.0000 -0.0000
vt 0.375000 0.000000
vt 0.625000 0.000000
vt 0.625000 0.250000
vt 0.375000 0.250000
vt 0.625000 0.500000
vt 0.375000 0.500000
vt 0.625000 0.750000
vt 0.375000 0.750000
vt 0.625000 1.000000
vt 0.375000 1.000000
vt 0.125000 0.500000
vt 0.125000 0.750000
vt 0.875000 0.500000
vt 0.875000 0.750000
s 0
usemtl 
f 1247/105/172 1248/106/172 1250/107/172 1249/108/172
f 1249/108/173 1250/107/173 1254/109/173 1253/110/173
f 1253/110/174 1254/109/174 1252/111/174 1251/112/174
f 1251/112/175 1252/111/175 1248/113/175 1247/114/175
f 1249/115/176 1253/110/176 1251/112/176 1247/116/176
f 1254/109/177 1250/117/177 1248/118/177 1252/111/177
f 1255/105/172 1256/106/172 1258/107/172 1257/108/172
f 1257/108/173 1258/107/173 1262/109/173 1261/110/173
f 1261/110/174 1262/109/174 1260/111/174 1259/112/174
f 1259/112/175 1260/111/175 1256/113/175 1255/114/175
f 1257/115/176 1261/110/176 1259/112/176 1255/116/176
f 1262/109/177 1258/117/177 1256/118/177 1260/111/177
f 1263/105/172 1264/106/172 1266/107/172 1265/108/172
f 1265/108/173 1266/107/173 1270/109/173 1269/110/173
f 1269/110/174 1270/109/174 1268/111/174 1267/112/174
f 1267/112/175 1268/111/175 1264/113/175 1263/114/175
f 1265/115/176 1269/110/176 1267/112/176 1263/116/176
f 1270/109/177 1266/117/177 1264/118/177 1268/111/177
f 1271/105/172 1272/106/172 1274/107/172 1273/108/172
f 1273/108/173 1274/107/173 1278/109/173 1277/110/173
f 1277/110/174 1278/109/174 1276/111/174 1275/112/174
f 1275/112/175 1276/111/175 1272/113/175 1271/114/175
f 1273/115/176 1277/110/176 1275/112/176 1271/116/176
f 1278/109/177 1274/117/177 1272/118/177 1276/111/177
f 1279/105/172 1280/106/172 1282/107/172 1281/108/172
f 1281/108/173 1282/107/173 1286/109/173 1285/110/173
f 1285/110/174 1286/109/174 1284/111/174 1283/112/174
f 1283/112/175 1284/111/175 1280/113/175 1279/114/175
f 1281/115/176 1285/110/176 1283/112/176 1279/116/176
f 1286/109/177 1282/117/177 1280/118/177 1284/111/177
o Plane.012
v -28.479488 0.945233 -19.549988
v -13.881158 0.945233 -19.182997
v -25.961521 0.945233 -45.463882
v -11.686007 0.945233 -45.973595
v -26.591013 0.945233 -38.985409
v -27.220505 0.945233 -32.506935
v -27.849997 0.945233 -26.028461
v -13.103001 0.945233 -25.743023
v -12.630670 0.945233 -32.486549
v -12.280668 0.945233 -39.230072
v -28.479488 -0.264767 -19.549988
v -13.881158 -0.264767 -19.182997
v -25.961521 -0.264767 -45.463882
v -11.686007 -0.264767 -45.973595
v -26.591013 -0.264767 -38.985409
v -27.220505 -0.264767 -32.506935
v -27.849997 -0.264767 -26.028461
v -13.103001 -0.264767 -25.743023
v -12.630670 -0.264767 -32.486549
v -12.280668 -0.264767 -39.230072
vn -0.0000 1.0000 -0.0000
vn -0.0000 -1.0000 -0.0000
vn -0.9953 -0.0000 -0.0967
vn -0.0251 -0.0000 0.9997
vn 0.9961 -0.0000 0.0878
vn -0.0357 -0.0000 -0.9994
vn 0.9930 -0.0000 0.1178
vn 0.9976 -0.0000 0.0699
vn 0.9987 -0.0000 0.0518
vt 0.000000 0.750000
vt 1.000000 0.750000
vt 1.000000 1.000000
vt 0.000000 1.000000
vt 0.000000 0.000000
vt 1.000000 0.000000
vt 1.000000 0.250000
vt 0.000000 0.250000
vt 1.000000 0.500000
vt 0.000000 0.500000
s 0
f 1291/119/178 1296/120/178 1290/121/178 1289/122/178
f 1287/123/178 1288/124/178 1294/125/178 1293/126/178
f 1293/126/178 1294/125/178 1295/127/178 1292/128/178
f 1292/128/178 1295/127/178 1296/120/178 1291/119/178
f 1301/119/179 1299/122/179 1300/121/179 1306/120/179
f 1297/123/179 1303/126/179 1304/125/179 1298/124/179
f 1303/126/179 1302/128/179 1305/127/179 1304/125/179
f 1302/128/179 1301/119/179 1306/120/179 1305/127/179
f 1287/123/180 1293/126/180 1303/126/180 1297/123/180
f 1288/124/181 1287/123/181 1297/123/181 1298/124/181
f 1290/121/182 1296/120/182 1306/120/182 1300/121/182
f 1289/122/183 1290/121/183 1300/121/183 1299/122/183
f 1291/119/180 1289/122/180 1299/122/180 1301/119/180
f 1292/128/180 1291/119/180 1301/119/180 1302/128/180
f 1293/126/180 1292/128/180 1302/128/180 1303/126/180
f 1294/125/184 1288/124/184 1298/124/184 1304/125/184
f 1295/127/185 1294/125/185 1304/125/185 1305/127/185
f 1296/120/186 1295/127/186 1305/127/186 1306/120/186
