# Blender 4.5.2 LTS
# www.blender.org
mtllib street.mtl
o Cube.008
v 5.858851 2.141149 18.735073
v 5.858851 3.972260 18.739305
v 5.858851 2.141149 13.264927
v 6.000000 4.000000 13.264927
v -1.867327 2.132673 13.264927
v -1.898916 4.207484 13.529533
v -1.867327 2.132673 18.735073
v -1.898916 4.207484 18.470467
v -1.126699 5.792516 13.771309
v 5.068156 5.860465 13.548716
v 5.068156 5.860465 18.451284
v -1.126699 5.792516 18.228691
v -1.867327 3.970062 13.260360
v -1.867327 3.970062 18.739639
v -0.942254 5.868844 13.549994
v -0.942254 5.868844 18.450006
v -1.795484 4.157093 13.529533
v -1.795484 4.157093 18.470467
v -1.023268 5.742125 13.771309
v -1.023268 5.742125 18.228691
v 2.000000 4.000000 13.264927
v 2.141148 2.141149 18.735073
v 2.141149 2.141149 13.264927
v 2.141149 3.997641 18.735434
v 2.204893 5.860465 13.548716
v 2.204893 5.860465 18.451284
v 5.858851 3.972260 13.260695
v 6.466812 4.000000 18.735073
v 1.867327 2.132673 18.735073
v 1.931201 5.868844 13.549994
v 5.162490 6.000000 13.570000
v 5.162490 6.000000 18.430000
v 1.867327 2.132673 13.264927
v 1.931201 5.868844 18.450006
v 2.141148 3.997641 13.264566
v 2.000000 4.000000 18.735073
v 2.000000 2.000000 13.264927
v 2.068438 6.000000 18.430000
v -1.025614 6.000000 18.430000
v -1.025614 6.000000 13.570000
v 2.000000 2.000000 18.735073
v 2.068438 6.000000 13.570000
v 1.867327 4.002218 13.265265
v 1.867327 4.002218 18.734735
v 5.858851 2.141149 13.114884
v 5.858851 2.141149 18.885117
v 2.141148 2.141149 18.885117
v 2.309229 5.737718 13.497942
v 4.995984 5.737718 13.497939
v 4.995984 5.737718 18.502060
v 2.141149 2.141149 13.114884
v 2.309229 5.737718 18.502058
v 1.867327 2.132673 13.114884
v -1.867327 2.132673 13.114884
v -1.867327 2.132673 18.885117
v 1.819575 5.746094 18.500710
v -0.874395 5.746095 18.500713
v -0.874395 5.746095 13.499286
v 1.867327 2.132673 18.885117
v 1.819575 5.746094 13.499290
v 2.257946 5.203403 13.308545
v 2.141149 2.773797 13.114755
v 2.141148 3.997641 13.264517
v 2.272670 4.531258 13.326443
v 2.479083 3.867898 13.154802
v 5.858851 2.748420 13.113403
v 5.280552 5.158110 13.301640
v 5.858851 3.972260 13.260645
v 3.450462 3.858096 13.152512
v 5.455985 4.509523 13.323303
v 1.833227 5.213153 18.689957
v 1.867327 2.778357 18.884993
v 1.867327 4.002218 18.734785
v 1.782866 4.536010 18.672853
v -0.430260 3.881660 18.844711
v -1.867327 2.746205 18.886724
v -1.206739 5.153943 18.698971
v -1.867327 3.970062 18.739691
v -1.411332 3.870461 18.847624
v -1.414711 4.508475 18.676832
v -1.206739 5.153943 13.301029
v -1.867327 2.746206 13.113276
v -1.867327 3.970062 13.260310
v -1.414711 4.508475 13.323167
v -1.411332 3.870461 13.152377
v 1.867327 2.778357 13.115007
v 1.833227 5.213153 13.310042
v 1.867327 4.002218 13.265215
v -0.430260 3.881660 13.155289
v 1.782865 4.536010 13.327147
v 5.280552 5.158111 18.698360
v 5.858851 2.748420 18.886597
v 5.858851 3.972260 18.739355
v 5.455984 4.509523 18.676697
v 3.450462 3.858097 18.847488
v 2.141148 2.773797 18.885246
v 2.257946 5.203404 18.691454
v 2.141149 3.997641 18.735483
v 2.479083 3.867899 18.845198
v 2.272670 4.531258 18.673557
v 2.204893 5.860465 13.414242
v 5.068156 5.860465 13.414242
v 5.068156 5.860465 18.585758
v 2.204893 5.860465 18.585758
v 1.931201 5.868844 18.584410
v -0.942254 5.868844 18.584410
v -0.942254 5.868844 13.415590
v 1.931201 5.868844 13.415590
v 2.182486 5.205661 13.308881
v 2.481785 4.102807 13.197287
v 3.417297 4.093369 13.194148
v 5.351418 5.184027 13.305400
v 1.908687 5.210894 18.690277
v -0.427542 4.093533 18.802048
v -1.372491 4.082749 18.806028
v -1.276162 5.183472 18.694691
v -1.276162 5.183472 13.305310
v -1.372491 4.082749 13.193973
v -0.427542 4.093533 13.197952
v 1.908687 5.210894 13.309723
v 5.351418 5.184027 18.694601
v 3.417297 4.093369 18.805851
v 2.481785 4.102807 18.802713
v 2.182486 5.205661 18.691120
v 2.277880 5.785930 13.402248
v 5.017676 5.785930 13.402248
v 5.017676 5.785930 18.597752
v 2.277879 5.785930 18.597752
v 1.853113 5.794309 18.596403
v -0.894793 5.794309 18.596403
v -0.894793 5.794309 13.403597
v 1.853113 5.794309 13.403597
v 2.290374 5.187958 13.409510
v 2.239340 4.512059 13.221104
v 5.500787 4.489793 13.217876
v 5.250117 5.132500 13.401136
v 1.800796 5.199644 18.588713
v 1.814485 4.516859 18.778185
v -1.461877 4.488648 18.782276
v -1.176927 5.126778 18.599697
v -1.176927 5.126778 13.400302
v -1.461877 4.488648 13.217724
v 1.814485 4.516859 13.221815
v 1.800796 5.199644 13.411287
v 5.250117 5.132500 18.598864
v 5.500786 4.489793 18.782124
v 2.239340 4.512060 18.778896
v 2.290374 5.187959 18.590490
v -4.553408 2.448895 18.475414
v -5.000000 2.000000 17.979914
v -4.776704 2.224448 18.392406
v -4.940168 2.060141 18.211040
v -4.553408 2.448895 13.524586
v -5.000000 2.000000 14.020086
v -4.776704 2.224448 13.607594
v -4.940168 2.060141 13.788960
v -2.000000 2.000000 13.715055
v -2.000000 2.448895 13.264927
v -1.867363 2.132638 13.264927
v -1.551105 2.000000 13.264927
v -2.000000 2.060141 13.489991
v -2.000000 2.224448 13.325233
v -2.000000 4.000000 18.284760
v -2.000000 3.543884 18.735073
v -1.867376 3.970073 18.739639
v -1.805216 4.399809 18.674088
v -1.898930 4.207454 18.470505
v -2.000000 3.938892 18.509916
v -2.000000 3.771942 18.674742
v -2.000000 2.448895 18.735073
v -2.000000 2.000000 18.284945
v -1.551105 2.000000 18.735073
v -1.867363 2.132638 18.735073
v -2.000000 2.224448 18.674768
v -2.000000 2.060141 18.510010
v -2.000000 3.543884 13.264927
v -2.000000 4.000000 13.715240
v -1.898930 4.207454 13.529495
v -1.805216 4.399809 13.325912
v -1.867376 3.970073 13.260362
v -2.000000 3.771942 13.325257
v -2.000000 3.938892 13.490084
v -4.019737 3.178287 18.529684
v -4.153112 3.610261 18.065840
v -4.086425 3.394274 18.462576
v -4.135243 3.552387 18.292797
v -4.553408 2.540420 18.475414
v -5.000000 2.596314 17.979954
v -4.776704 2.568367 18.392412
v -4.940168 2.588825 18.211061
v -4.300052 3.051216 18.501179
v -4.576556 3.418307 18.022869
v -4.438304 3.234761 18.426805
v -4.539512 3.369126 18.251732
v -4.478685 2.837345 18.483013
v -4.886539 3.047177 17.991446
v -4.682612 2.942261 18.401974
v -4.831897 3.019065 18.222048
v -4.553408 2.540420 13.524586
v -5.000000 2.596314 14.020046
v -4.776704 2.568367 13.607588
v -4.940168 2.588825 13.788939
v -4.019737 3.178287 13.470316
v -4.153112 3.610261 13.934160
v -4.086425 3.394274 13.537424
v -4.135243 3.552387 13.707203
v -4.478685 2.837345 13.516987
v -4.886539 3.047177 14.008555
v -4.682612 2.942261 13.598025
v -4.831897 3.019065 13.777952
v -4.300052 3.051216 13.498821
v -4.576556 3.418307 13.977132
v -4.438304 3.234761 13.573195
v -4.539512 3.369126 13.748268
v 7.332587 4.000000 15.088309
v 7.332587 4.000000 16.911692
v 6.028266 6.121785 15.190001
v 6.028266 6.121785 16.809999
v -1.025614 6.121785 15.190001
v -1.025614 6.121785 16.809999
v -1.898916 4.207484 15.176511
v -1.898916 4.207484 16.823488
v -1.126699 5.792516 15.257103
v -1.126699 5.792516 16.742897
v -1.795484 4.157093 15.176511
v -1.795484 4.157093 16.823488
v -1.023268 5.742125 15.257103
v -1.023268 5.742125 16.742897
v 2.068438 6.121785 15.190001
v 2.068438 6.121785 16.809999
v 2.000000 2.000000 15.088309
v 2.000000 2.000000 16.911692
v 2.161817 4.437687 13.211726
v 2.146687 3.547563 13.140671
v 5.790869 3.522686 13.138034
v 5.605135 4.414180 13.208309
v 1.888007 4.442590 18.787548
v 1.872868 3.552219 18.858820
v -1.788126 3.520700 18.862171
v -1.571745 4.412801 18.791882
v -1.571745 4.412801 13.208118
v -1.788126 3.520700 13.137829
v 1.872868 3.552219 13.141180
v 1.888007 4.442589 13.212450
v 5.605134 4.414180 18.791691
v 5.790868 3.522686 18.861965
v 2.146687 3.547563 18.859329
v 2.161817 4.437687 18.788273
v -0.427542 4.072747 19.042599
v -0.430260 3.900396 19.088926
v -1.411332 3.891286 19.092087
v -1.372491 4.063974 19.046921
v -1.372491 4.063974 12.953079
v -1.411332 3.891286 12.907913
v -0.430260 3.900396 12.911074
v -0.427542 4.072747 12.957400
v 2.481785 4.091749 12.982916
v 2.479083 3.878087 12.937181
v 3.450462 3.869171 12.934715
v 3.417297 4.083165 12.979536
v 3.417297 4.083165 19.020462
v 3.450462 3.869171 19.065285
v 2.479083 3.878087 19.062819
v 2.481785 4.091749 19.017084
v 6.000000 2.733598 13.264927
v 5.189621 2.000000 13.264927
v 5.858887 2.141113 13.264927
v 5.891430 2.366799 13.264927
v 5.594810 2.098284 13.264927
v 5.662369 2.000000 18.735073
v 6.466812 2.733598 18.735073
v 5.858900 2.141137 18.735073
v 6.064591 2.098284 18.735073
v 6.359037 2.366799 18.735073
v 6.528451 2.000000 16.911692
v 7.332587 2.733598 16.911692
v 6.930519 2.098284 16.911692
v 7.224854 2.366799 16.911692
v 7.332587 2.733598 15.088309
v 6.526139 2.000000 15.088309
v 7.224544 2.366799 15.088309
v 6.929363 2.098284 15.088309
v 4.859355 3.192021 17.859818
v 4.859355 3.192021 18.325069
v 5.274712 3.109402 17.859818
v 5.274712 3.109402 18.325069
v 5.626833 2.874122 17.859818
v 5.626833 2.874122 18.325069
v 5.862113 2.522000 17.859818
v 5.862113 2.522000 18.325069
v 5.944733 2.106644 17.859818
v 5.944733 2.106644 18.325069
v 5.862113 1.691288 17.859818
v 5.862113 1.691288 18.325069
v 5.626833 1.339166 17.859818
v 5.626833 1.339166 18.325069
v 5.274712 1.103886 17.859818
v 5.274712 1.103886 18.325069
v 4.859355 1.021267 17.859818
v 4.859355 1.021267 18.325069
v 4.443999 1.103886 17.859818
v 4.443999 1.103886 18.325069
v 4.091878 1.339166 17.859818
v 4.091878 1.339166 18.325069
v 3.856597 1.691288 17.859818
v 3.856597 1.691288 18.325069
v 3.773978 2.106644 17.859818
v 3.773978 2.106644 18.325069
v 3.856597 2.522000 17.859818
v 3.856597 2.522000 18.325069
v 4.091878 2.874122 17.859818
v 4.091878 2.874122 18.325069
v 4.443999 3.109402 17.859818
v 4.443999 3.109402 18.325069
v 4.859355 2.800769 18.037735
v 5.124986 2.747932 18.037735
v 5.124986 2.747932 18.147152
v 4.859355 2.800769 18.147152
v 5.350176 2.597464 18.037735
v 5.350176 2.597464 18.147152
v 5.500643 2.372274 18.037735
v 5.500643 2.372274 18.147152
v 5.553480 2.106644 18.037735
v 5.553480 2.106644 18.147152
v 5.500643 1.841014 18.037735
v 5.500643 1.841014 18.147152
v 5.350176 1.615824 18.037735
v 5.350176 1.615824 18.147152
v 5.124986 1.465356 18.037735
v 5.124986 1.465356 18.147152
v 4.859355 1.412519 18.037735
v 4.859355 1.412519 18.147152
v 4.593725 1.465356 18.037735
v 4.593725 1.465356 18.147152
v 4.368535 1.615824 18.037735
v 4.368535 1.615824 18.147152
v 4.218068 1.841014 18.037735
v 4.218068 1.841014 18.147152
v 4.165231 2.106644 18.037735
v 4.165231 2.106644 18.147152
v 4.218068 2.372274 18.037735
v 4.218068 2.372274 18.147152
v 4.368535 2.597464 18.037735
v 4.368535 2.597464 18.147152
v 4.593725 2.747932 18.037735
v 4.593725 2.747932 18.147152
v 4.859355 3.106644 17.742443
v 5.242039 3.030524 17.742443
v 5.242039 3.030524 18.442444
v 4.859355 3.106644 18.442444
v 5.566462 2.813751 17.742443
v 5.566462 2.813751 18.442444
v 5.783235 2.489328 17.742443
v 5.783235 2.489327 18.442444
v 5.859355 2.106644 17.742443
v 5.859355 2.106644 18.442444
v 5.783235 1.723961 17.742443
v 5.783235 1.723961 18.442444
v 5.566462 1.399537 17.742443
v 5.566462 1.399537 18.442444
v 5.242039 1.182765 17.742443
v 5.242039 1.182765 18.442444
v 4.859355 1.106644 17.742443
v 4.859355 1.106644 18.442444
v 4.476672 1.182765 17.742443
v 4.476672 1.182765 18.442444
v 4.152249 1.399537 17.742443
v 4.152249 1.399537 18.442444
v 3.935476 1.723961 17.742443
v 3.935476 1.723961 18.442444
v 3.859355 2.106644 17.742443
v 3.859355 2.106644 18.442444
v 3.935476 2.489328 17.742443
v 3.935476 2.489327 18.442444
v 4.152249 2.813751 17.742443
v 4.152249 2.813751 18.442444
v 4.476672 3.030524 17.742443
v 4.476672 3.030524 18.442444
v 4.859355 2.838951 17.742443
v 5.139597 2.783207 17.742443
v 5.139597 2.783207 18.442444
v 4.859355 2.838951 18.442444
v 5.377175 2.624463 17.742443
v 5.377175 2.624463 18.442444
v 5.535919 2.386886 17.742443
v 5.535919 2.386886 18.442444
v 5.591662 2.106644 17.742443
v 5.591662 2.106644 18.442444
v 5.535919 1.826402 17.742443
v 5.535919 1.826402 18.442444
v 5.377175 1.588825 17.742443
v 5.377175 1.588825 18.442444
v 5.139597 1.430081 17.742443
v 5.139597 1.430081 18.442444
v 4.859355 1.374337 17.742443
v 4.859355 1.374337 18.442444
v 4.579113 1.430081 17.742443
v 4.579113 1.430081 18.442444
v 4.341536 1.588825 17.742443
v 4.341536 1.588825 18.442444
v 4.182792 1.826402 17.742443
v 4.182792 1.826402 18.442444
v 4.127048 2.106644 17.742443
v 4.127048 2.106644 18.442444
v 4.182792 2.386886 17.742443
v 4.182792 2.386886 18.442444
v 4.341536 2.624463 17.742443
v 4.341536 2.624463 18.442444
v 4.579113 2.783207 17.742443
v 4.579113 2.783207 18.442444
v 4.859355 3.192021 14.140182
v 4.859355 3.192022 13.674930
v 5.274712 3.109402 14.140182
v 5.274712 3.109402 13.674930
v 5.626833 2.874122 14.140182
v 5.626833 2.874122 13.674930
v 5.862113 2.522000 14.140182
v 5.862113 2.522000 13.674930
v 5.944733 2.106644 14.140183
v 5.944733 2.106644 13.674930
v 5.862113 1.691288 14.140183
v 5.862113 1.691288 13.674930
v 5.626833 1.339166 14.140183
v 5.626833 1.339166 13.674931
v 5.274712 1.103886 14.140183
v 5.274712 1.103886 13.674931
v 4.859355 1.021267 14.140183
v 4.859355 1.021267 13.674931
v 4.443999 1.103886 14.140183
v 4.443999 1.103886 13.674931
v 4.091878 1.339166 14.140183
v 4.091878 1.339166 13.674931
v 3.856597 1.691288 14.140183
v 3.856597 1.691288 13.674931
v 3.773978 2.106644 14.140183
v 3.773978 2.106644 13.674930
v 3.856597 2.522000 14.140183
v 3.856597 2.522000 13.674930
v 4.091878 2.874122 14.140182
v 4.091878 2.874122 13.674930
v 4.443999 3.109402 14.140182
v 4.443999 3.109402 13.674930
v 4.859355 2.800769 13.962265
v 5.124986 2.747932 13.962265
v 5.124986 2.747932 13.852848
v 4.859355 2.800769 13.852848
v 5.350176 2.597465 13.962265
v 5.350176 2.597465 13.852848
v 5.500643 2.372274 13.962265
v 5.500643 2.372274 13.852848
v 5.553480 2.106644 13.962265
v 5.553480 2.106644 13.852848
v 5.500643 1.841014 13.962265
v 5.500643 1.841014 13.852848
v 5.350176 1.615824 13.962265
v 5.350176 1.615824 13.852848
v 5.124986 1.465356 13.962265
v 5.124986 1.465356 13.852848
v 4.859355 1.412519 13.962265
v 4.859355 1.412519 13.852848
v 4.593725 1.465356 13.962265
v 4.593725 1.465356 13.852848
v 4.368535 1.615824 13.962265
v 4.368535 1.615824 13.852848
v 4.218068 1.841014 13.962265
v 4.218068 1.841014 13.852848
v 4.165231 2.106644 13.962265
v 4.165231 2.106644 13.852848
v 4.218068 2.372274 13.962265
v 4.218068 2.372274 13.852848
v 4.368535 2.597465 13.962265
v 4.368535 2.597465 13.852848
v 4.593725 2.747932 13.962265
v 4.593725 2.747932 13.852848
v 4.859355 3.106644 14.257557
v 5.242039 3.030524 14.257557
v 5.242039 3.030524 13.557556
v 4.859355 3.106644 13.557556
v 5.566462 2.813751 14.257557
v 5.566462 2.813751 13.557556
v 5.783235 2.489328 14.257557
v 5.783235 2.489328 13.557556
v 5.859355 2.106644 14.257557
v 5.859355 2.106644 13.557556
v 5.783235 1.723961 14.257557
v 5.783235 1.723961 13.557556
v 5.566462 1.399537 14.257557
v 5.566462 1.399537 13.557556
v 5.242039 1.182765 14.257557
v 5.242039 1.182765 13.557556
v 4.859355 1.106644 14.257557
v 4.859355 1.106644 13.557556
v 4.476672 1.182765 14.257557
v 4.476672 1.182765 13.557556
v 4.152249 1.399537 14.257557
v 4.152249 1.399537 13.557556
v 3.935476 1.723961 14.257557
v 3.935476 1.723961 13.557556
v 3.859355 2.106644 14.257557
v 3.859355 2.106644 13.557556
v 3.935476 2.489328 14.257557
v 3.935476 2.489328 13.557556
v 4.152249 2.813751 14.257557
v 4.152249 2.813751 13.557556
v 4.476672 3.030524 14.257557
v 4.476672 3.030524 13.557556
v 4.859355 2.838951 14.257557
v 5.139597 2.783208 14.257557
v 5.139597 2.783207 13.557556
v 4.859355 2.838951 13.557556
v 5.377175 2.624463 14.257557
v 5.377175 2.624463 13.557556
v 5.535919 2.386886 14.257557
v 5.535919 2.386886 13.557556
v 5.591662 2.106644 14.257557
v 5.591662 2.106644 13.557556
v 5.535919 1.826402 14.257557
v 5.535919 1.826402 13.557556
v 5.377175 1.588825 14.257557
v 5.377175 1.588825 13.557556
v 5.139597 1.430081 14.257557
v 5.139597 1.430081 13.557556
v 4.859355 1.374337 14.257557
v 4.859355 1.374337 13.557556
v 4.579113 1.430081 14.257557
v 4.579113 1.430081 13.557556
v 4.341536 1.588825 14.257557
v 4.341536 1.588825 13.557556
v 4.182792 1.826402 14.257557
v 4.182792 1.826402 13.557556
v 4.127048 2.106644 14.257557
v 4.127048 2.106644 13.557556
v 4.182792 2.386886 14.257557
v 4.182792 2.386886 13.557556
v 4.341536 2.624463 14.257557
v 4.341536 2.624463 13.557556
v 4.579113 2.783208 14.257557
v 4.579113 2.783207 13.557556
v -3.239479 3.192021 17.859818
v -3.239479 3.192021 18.325069
v -2.824123 3.109402 17.859818
v -2.824123 3.109402 18.325069
v -2.472001 2.874122 17.859818
v -2.472001 2.874122 18.325069
v -2.236721 2.522000 17.859818
v -2.236721 2.522000 18.325069
v -2.154101 2.106644 17.859818
v -2.154101 2.106644 18.325069
v -2.236721 1.691288 17.859818
v -2.236721 1.691288 18.325069
v -2.472001 1.339166 17.859818
v -2.472001 1.339166 18.325069
v -2.824123 1.103886 17.859818
v -2.824123 1.103886 18.325069
v -3.239479 1.021267 17.859818
v -3.239479 1.021267 18.325069
v -3.654835 1.103886 17.859818
v -3.654835 1.103886 18.325069
v -4.006956 1.339166 17.859818
v -4.006956 1.339166 18.325069
v -4.242237 1.691288 17.859818
v -4.242237 1.691288 18.325069
v -4.324856 2.106644 17.859818
v -4.324856 2.106644 18.325069
v -4.242237 2.522000 17.859818
v -4.242237 2.522000 18.325069
v -4.006956 2.874122 17.859818
v -4.006956 2.874122 18.325069
v -3.654835 3.109402 17.859818
v -3.654835 3.109402 18.325069
v -3.239479 2.800769 18.037735
v -2.973849 2.747932 18.037735
v -2.973849 2.747932 18.147152
v -3.239479 2.800769 18.147152
v -2.748658 2.597464 18.037735
v -2.748658 2.597464 18.147152
v -2.598191 2.372274 18.037735
v -2.598191 2.372274 18.147152
v -2.545354 2.106644 18.037735
v -2.545354 2.106644 18.147152
v -2.598191 1.841014 18.037735
v -2.598191 1.841014 18.147152
v -2.748658 1.615824 18.037735
v -2.748658 1.615824 18.147152
v -2.973849 1.465356 18.037735
v -2.973849 1.465356 18.147152
v -3.239479 1.412519 18.037735
v -3.239479 1.412519 18.147152
v -3.505109 1.465356 18.037735
v -3.505109 1.465356 18.147152
v -3.730299 1.615824 18.037735
v -3.730299 1.615824 18.147152
v -3.880766 1.841014 18.037735
v -3.880766 1.841014 18.147152
v -3.933603 2.106644 18.037735
v -3.933603 2.106644 18.147152
v -3.880766 2.372274 18.037735
v -3.880766 2.372274 18.147152
v -3.730299 2.597464 18.037735
v -3.730299 2.597464 18.147152
v -3.505109 2.747932 18.037735
v -3.505109 2.747932 18.147152
v -3.239479 3.106644 17.742443
v -2.856795 3.030524 17.742443
v -2.856795 3.030524 18.442444
v -3.239479 3.106644 18.442444
v -2.532372 2.813751 17.742443
v -2.532372 2.813751 18.442444
v -2.315599 2.489328 17.742443
v -2.315599 2.489327 18.442444
v -2.239479 2.106644 17.742443
v -2.239479 2.106644 18.442444
v -2.315599 1.723961 17.742443
v -2.315599 1.723961 18.442444
v -2.532372 1.399537 17.742443
v -2.532372 1.399537 18.442444
v -2.856795 1.182765 17.742443
v -2.856795 1.182765 18.442444
v -3.239479 1.106644 17.742443
v -3.239479 1.106644 18.442444
v -3.622162 1.182765 17.742443
v -3.622162 1.182765 18.442444
v -3.946585 1.399537 17.742443
v -3.946585 1.399537 18.442444
v -4.163358 1.723961 17.742443
v -4.163358 1.723961 18.442444
v -4.239479 2.106644 17.742443
v -4.239479 2.106644 18.442444
v -4.163358 2.489328 17.742443
v -4.163358 2.489327 18.442444
v -3.946585 2.813751 17.742443
v -3.946585 2.813751 18.442444
v -3.622162 3.030524 17.742443
v -3.622162 3.030524 18.442444
v -3.239479 2.838951 17.742443
v -2.959237 2.783207 17.742443
v -2.959237 2.783207 18.442444
v -3.239479 2.838951 18.442444
v -2.721659 2.624463 17.742443
v -2.721659 2.624463 18.442444
v -2.562915 2.386886 17.742443
v -2.562915 2.386886 18.442444
v -2.507172 2.106644 17.742443
v -2.507172 2.106644 18.442444
v -2.562915 1.826402 17.742443
v -2.562915 1.826402 18.442444
v -2.721659 1.588825 17.742443
v -2.721659 1.588825 18.442444
v -2.959237 1.430081 17.742443
v -2.959237 1.430081 18.442444
v -3.239479 1.374337 17.742443
v -3.239479 1.374337 18.442444
v -3.519720 1.430081 17.742443
v -3.519720 1.430081 18.442444
v -3.757298 1.588825 17.742443
v -3.757298 1.588825 18.442444
v -3.916042 1.826402 17.742443
v -3.916042 1.826402 18.442444
v -3.971786 2.106644 17.742443
v -3.971786 2.106644 18.442444
v -3.916042 2.386886 17.742443
v -3.916042 2.386886 18.442444
v -3.757298 2.624463 17.742443
v -3.757298 2.624463 18.442444
v -3.519720 2.783207 17.742443
v -3.519720 2.783207 18.442444
v -3.239479 3.192021 14.140182
v -3.239479 3.192022 13.674930
v -2.824123 3.109402 14.140182
v -2.824123 3.109402 13.674930
v -2.472001 2.874122 14.140182
v -2.472001 2.874122 13.674930
v -2.236721 2.522000 14.140182
v -2.236721 2.522000 13.674930
v -2.154101 2.106644 14.140183
v -2.154101 2.106644 13.674930
v -2.236721 1.691288 14.140183
v -2.236721 1.691288 13.674930
v -2.472001 1.339166 14.140183
v -2.472001 1.339166 13.674931
v -2.824123 1.103886 14.140183
v -2.824123 1.103886 13.674931
v -3.239479 1.021267 14.140183
v -3.239479 1.021267 13.674931
v -3.654835 1.103886 14.140183
v -3.654835 1.103886 13.674931
v -4.006957 1.339166 14.140183
v -4.006957 1.339166 13.674931
v -4.242237 1.691288 14.140183
v -4.242237 1.691288 13.674931
v -4.324856 2.106644 14.140183
v -4.324856 2.106644 13.674930
v -4.242237 2.522000 14.140183
v -4.242237 2.522000 13.674930
v -4.006957 2.874122 14.140182
v -4.006957 2.874122 13.674930
v -3.654835 3.109402 14.140182
v -3.654835 3.109402 13.674930
v -3.239479 2.800769 13.962265
v -2.973849 2.747932 13.962265
v -2.973849 2.747932 13.852848
v -3.239479 2.800769 13.852848
v -2.748658 2.597465 13.962265
v -2.748658 2.597465 13.852848
v -2.598191 2.372274 13.962265
v -2.598191 2.372274 13.852848
v -2.545354 2.106644 13.962265
v -2.545354 2.106644 13.852848
v -2.598191 1.841014 13.962265
v -2.598191 1.841014 13.852848
v -2.748658 1.615824 13.962265
v -2.748658 1.615824 13.852848
v -2.973849 1.465356 13.962265
v -2.973849 1.465356 13.852848
v -3.239479 1.412519 13.962265
v -3.239479 1.412519 13.852848
v -3.505109 1.465356 13.962265
v -3.505109 1.465356 13.852848
v -3.730299 1.615824 13.962265
v -3.730299 1.615824 13.852848
v -3.880766 1.841014 13.962265
v -3.880766 1.841014 13.852848
v -3.933604 2.106644 13.962265
v -3.933604 2.106644 13.852848
v -3.880766 2.372274 13.962265
v -3.880766 2.372274 13.852848
v -3.730299 2.597465 13.962265
v -3.730299 2.597465 13.852848
v -3.505109 2.747932 13.962265
v -3.505109 2.747932 13.852848
v -3.239479 3.106644 14.257557
v -2.856795 3.030524 14.257557
v -2.856795 3.030524 13.557556
v -3.239479 3.106644 13.557556
v -2.532372 2.813751 14.257557
v -2.532372 2.813751 13.557556
v -2.315599 2.489328 14.257557
v -2.315599 2.489328 13.557556
v -2.239479 2.106644 14.257557
v -2.239479 2.106644 13.557556
v -2.315599 1.723961 14.257557
v -2.315599 1.723961 13.557556
v -2.532372 1.399537 14.257557
v -2.532372 1.399537 13.557556
v -2.856795 1.182765 14.257557
v -2.856795 1.182765 13.557556
v -3.239479 1.106644 14.257557
v -3.239479 1.106644 13.557556
v -3.622162 1.182765 14.257557
v -3.622162 1.182765 13.557556
v -3.946586 1.399537 14.257557
v -3.946586 1.399537 13.557556
v -4.163358 1.723961 14.257557
v -4.163358 1.723961 13.557556
v -4.239479 2.106644 14.257557
v -4.239479 2.106644 13.557556
v -4.163358 2.489328 14.257557
v -4.163358 2.489328 13.557556
v -3.946586 2.813751 14.257557
v -3.946586 2.813751 13.557556
v -3.622162 3.030524 14.257557
v -3.622162 3.030524 13.557556
v -3.239479 2.838951 14.257557
v -2.959237 2.783208 14.257557
v -2.959237 2.783207 13.557556
v -3.239479 2.838951 13.557556
v -2.721660 2.624463 14.257557
v -2.721660 2.624463 13.557556
v -2.562915 2.386886 14.257557
v -2.562915 2.386886 13.557556
v -2.507172 2.106644 14.257557
v -2.507172 2.106644 13.557556
v -2.562915 1.826402 14.257557
v -2.562915 1.826402 13.557556
v -2.721660 1.588825 14.257557
v -2.721660 1.588825 13.557556
v -2.959237 1.430081 14.257557
v -2.959237 1.430081 13.557556
v -3.239479 1.374337 14.257557
v -3.239479 1.374337 13.557556
v -3.519721 1.430081 14.257557
v -3.519721 1.430081 13.557556
v -3.757298 1.588825 14.257557
v -3.757298 1.588825 13.557556
v -3.916042 1.826402 14.257557
v -3.916042 1.826402 13.557556
v -3.971786 2.106644 14.257557
v -3.971786 2.106644 13.557556
v -3.916042 2.386886 14.257557
v -3.916042 2.386886 13.557556
v -3.757298 2.624463 14.257557
v -3.757298 2.624463 13.557556
v -3.519721 2.783208 14.257557
v -3.519721 2.783207 13.557556
vn 0.7503 0.4387 -0.4945
vn -0.0000 1.0000 -0.0000
vn -0.0000 0.9972 0.0750
vn -0.0000 -1.0000 -0.0000
vn -0.0595 -0.1221 0.9907
vn -0.9380 0.3465 0.0136
vn -0.8990 0.4380 -0.0000
vn -0.4380 -0.8990 -0.0000
vn -0.0595 -0.1221 -0.9907
vn 0.4380 0.8990 -0.0000
vn -0.0000 0.1508 -0.9886
vn -0.0000 0.1508 0.9886
vn -0.0012 -0.0001 1.0000
vn -0.0012 -0.0001 -1.0000
vn -0.0012 0.0001 1.0000
vn -0.0012 0.0001 -1.0000
vn -0.9960 0.0371 -0.0811
vn -0.9885 0.0286 -0.1483
vn -0.9967 0.0098 -0.0803
vn 0.7074 0.0844 -0.7018
vn 0.4681 0.1659 -0.8680
vn 0.6730 0.3067 -0.6730
vn 0.9960 -0.0371 -0.0810
vn 0.9885 -0.0287 -0.1482
vn 0.9967 -0.0099 -0.0803
vn -0.6514 0.0905 0.7533
vn -0.4137 0.1708 0.8942
vn -0.6158 0.3266 0.7170
vn -0.6158 0.3266 -0.7170
vn -0.4137 0.1708 -0.8942
vn -0.6514 0.0905 -0.7533
vn 0.9967 -0.0099 0.0803
vn 0.9885 -0.0287 0.1482
vn 0.9960 -0.0371 0.0810
vn 0.6730 0.3067 0.6731
vn 0.4681 0.1659 0.8680
vn 0.7074 0.0844 0.7018
vn -0.9967 0.0098 0.0803
vn -0.9885 0.0286 0.1483
vn -0.9960 0.0371 0.0811
vn -0.0003 0.1247 -0.9922
vn -0.9999 0.0120 -0.0000
vn -0.0003 0.0326 -0.9995
vn 0.0004 0.1247 0.9922
vn -0.9803 0.1976 -0.0008
vn 0.0004 0.0327 0.9995
vn 0.0004 0.1247 -0.9922
vn 0.9999 -0.0142 0.0001
vn 0.0004 0.0327 -0.9995
vn -0.0003 0.1247 0.9922
vn -0.0097 -0.9988 -0.0488
vn -0.0003 0.0326 0.9995
vn 0.0001 0.1584 -0.9874
vn -1.0000 -0.0000 -0.0000
vn -0.9994 0.0342 -0.0000
vn -0.0002 -0.0013 -1.0000
vn 0.9224 0.3863 -0.0000
vn 1.0000 -0.0000 -0.0000
vn -0.0001 0.1584 0.9874
vn 0.9994 -0.0342 -0.0000
vn 0.0002 -0.0012 1.0000
vn 0.0002 -0.0012 -1.0000
vn -0.0001 0.1584 -0.9874
vn 0.0001 0.1584 0.9874
vn -0.0002 -0.0013 1.0000
vn -0.0000 0.1589 -0.9873
vn -0.0000 0.1589 0.9873
vn -0.0005 0.1255 -0.9921
vn 0.0028 0.1257 -0.9921
vn 0.0001 0.1256 0.9921
vn -0.0031 0.1259 0.9920
vn -0.0031 0.1259 -0.9920
vn 0.0001 0.1257 -0.9921
vn 0.0028 0.1257 0.9921
vn -0.0005 0.1255 0.9921
vn -0.0001 0.1253 -0.9921
vn 0.0002 0.1253 0.9921
vn 0.0002 0.1253 -0.9921
vn -0.0001 0.1253 0.9921
vn -0.0023 0.1576 -0.9875
vn 0.0002 0.1588 -0.9873
vn 0.0026 0.1573 0.9875
vn 0.0003 0.1589 0.9873
vn 0.0003 0.1589 -0.9873
vn 0.0026 0.1573 -0.9875
vn 0.0002 0.1588 0.9873
vn -0.0023 0.1576 0.9875
vn -0.0000 -0.8931 -0.4499
vn -0.0000 -0.8931 0.4499
vn -0.0000 -0.8930 0.4500
vn -0.0000 -0.8930 -0.4500
vn 0.9526 0.0128 -0.3039
vn -0.9050 -0.2561 -0.3396
vn -0.9527 0.0634 0.2971
vn 0.8898 -0.2985 0.3453
vn 0.8898 -0.2985 -0.3453
vn -0.9527 0.0634 -0.2971
vn -0.9050 -0.2561 0.3396
vn 0.9526 0.0128 0.3039
vn 0.0065 0.9834 -0.1813
vn -0.0082 0.9834 0.1812
vn -0.0082 0.9834 -0.1812
vn 0.0065 0.9834 0.1813
vn -0.8814 -0.3129 -0.3538
vn 0.9526 0.0162 -0.3037
vn 0.8596 -0.3615 0.3612
vn -0.9525 0.0800 0.2940
vn -0.9525 0.0800 -0.2940
vn 0.8596 -0.3615 -0.3612
vn 0.9526 0.0162 0.3037
vn -0.8814 -0.3129 0.3538
vn -0.3956 -0.7912 -0.4663
vn -0.8821 0.3024 0.3613
vn -0.3956 -0.7912 0.4663
vn -0.8821 0.3024 -0.3613
vn -0.0262 -0.9658 -0.2581
vn -0.0716 -0.7062 -0.7043
vn -0.0977 -0.2582 -0.9611
vn -0.0262 -0.9658 0.2581
vn -0.0716 -0.7062 0.7043
vn -0.0977 -0.2582 0.9611
vn -0.2023 0.2330 0.9512
vn -0.3559 0.6306 0.6897
vn -0.4206 0.8706 0.2551
vn -0.2023 0.2330 -0.9512
vn -0.3559 0.6306 -0.6897
vn -0.4206 0.8706 -0.2551
vn -0.2909 0.1629 0.9428
vn -0.5918 0.4368 0.6774
vn -0.7531 0.6076 0.2525
vn -0.2909 0.1629 -0.9428
vn -0.5918 0.4368 -0.6774
vn -0.7531 0.6076 -0.2525
vn -0.3410 0.0618 0.9380
vn -0.7233 0.1649 0.6705
vn -0.9402 0.2302 0.2509
vn -0.3410 0.0618 -0.9380
vn -0.7233 0.1649 -0.6705
vn -0.9402 0.2302 -0.2509
vn -0.1974 0.9461 0.2568
vn -0.1957 0.6890 0.6979
vn -0.1431 0.2531 0.9568
vn -0.9681 -0.0000 0.2506
vn -0.7428 -0.0000 0.6695
vn -0.3484 -0.0000 0.9373
vn -0.3484 -0.0000 -0.9373
vn -0.7428 -0.0000 -0.6695
vn -0.9681 -0.0000 -0.2506
vn -0.1431 0.2531 -0.9568
vn -0.1957 0.6890 -0.6979
vn -0.1974 0.9461 -0.2568
vn -0.1012 -0.0000 0.9949
vn -0.1012 -0.0000 -0.9949
vn -0.0166 -0.0016 -0.9999
vn -0.0000 -0.0000 -1.0000
vn -0.1781 0.9840 -0.0000
vn -0.0166 -0.0016 0.9999
vn -0.0000 -0.0000 1.0000
vn -0.4129 0.9108 -0.0000
vn -0.9698 0.2440 -0.0000
vn -0.7675 0.6410 -0.0000
vn -0.0000 0.9972 -0.0750
vn -0.9380 0.3465 -0.0136
vn -0.9560 0.2935 -0.0000
vn 0.7566 0.5182 0.3988
vn 0.8519 0.5237 -0.0000
vn 0.0018 0.1004 -0.9949
vn 0.0002 0.0989 -0.9951
vn -0.0004 0.1028 0.9947
vn -0.0028 0.1014 0.9948
vn -0.0028 0.1014 -0.9948
vn -0.0004 0.1028 -0.9947
vn 0.0002 0.0989 0.9951
vn 0.0018 0.1004 0.9949
vn -0.0011 0.0468 -0.9989
vn -0.0008 0.0413 -0.9991
vn 0.0015 0.0373 0.9993
vn 0.0009 0.0448 0.9990
vn 0.0015 0.0373 -0.9993
vn 0.0009 0.0448 -0.9990
vn -0.0011 0.0468 0.9989
vn -0.0008 0.0413 0.9991
vn 0.0014 0.2562 0.9666
vn 0.0014 0.2562 -0.9666
vn -0.0100 0.9966 -0.0819
vn -0.0100 0.9966 0.0819
vn -0.9803 0.1976 0.0008
vn 0.0106 -0.9967 -0.0807
vn 0.9999 -0.0142 -0.0001
vn 0.0106 -0.9967 0.0807
vn -0.0011 0.2071 -0.9783
vn -0.0011 0.2071 0.9783
vn 0.0094 0.9987 0.0495
vn 0.9893 0.1460 0.0003
vn 0.0094 0.9987 -0.0495
vn 0.9893 0.1460 -0.0003
vn -0.0097 -0.9988 0.0488
vn -0.9999 0.0121 -0.0000
vn 0.2328 -0.9575 -0.1705
vn 0.6031 -0.6646 -0.4412
vn 0.7853 -0.2319 -0.5740
vn 0.2359 -0.9653 0.1120
vn 0.6418 -0.7037 0.3048
vn 0.8731 -0.2565 0.4146
vn 0.2371 -0.9715 -0.0002
vn 0.6734 -0.7392 -0.0003
vn 0.9594 -0.2822 -0.0001
vn 0.8074 -0.0000 -0.5900
vn 0.0180 -0.0014 -0.9998
vn 0.0042 -0.0014 1.0000
vn 0.9033 -0.0000 0.4289
vn 0.1951 0.9808 -0.0000
vn 0.5556 0.8315 -0.0000
vn 0.8315 0.5556 -0.0000
vn 0.9808 0.1951 -0.0000
vn 0.9808 -0.1951 -0.0000
vn 0.8315 -0.5556 -0.0000
vn 0.5556 -0.8315 -0.0000
vn 0.1951 -0.9808 -0.0000
vn -0.1951 -0.9808 -0.0000
vn -0.5556 -0.8315 -0.0000
vn -0.8315 -0.5556 -0.0000
vn -0.9808 -0.1951 -0.0000
vn -0.9808 0.1951 -0.0000
vn -0.8315 0.5556 -0.0000
vn -0.5556 0.8315 -0.0000
vn -0.1951 0.9808 -0.0000
vn 0.1588 0.7984 -0.5808
vn 0.1588 0.7984 0.5808
vn 0.4523 0.6769 -0.5808
vn 0.4523 0.6769 0.5808
vn 0.6769 0.4523 -0.5808
vn 0.6769 0.4523 0.5808
vn 0.7984 0.1588 -0.5808
vn 0.7984 0.1588 0.5808
vn 0.7984 -0.1588 -0.5808
vn 0.7984 -0.1588 0.5808
vn 0.6769 -0.4523 -0.5808
vn 0.6769 -0.4523 0.5808
vn 0.4523 -0.6769 -0.5808
vn 0.4523 -0.6769 0.5808
vn 0.1588 -0.7984 -0.5808
vn 0.1588 -0.7984 0.5808
vn -0.1588 -0.7984 -0.5808
vn -0.1588 -0.7984 0.5808
vn -0.4523 -0.6769 -0.5808
vn -0.4523 -0.6769 0.5808
vn -0.6769 -0.4523 -0.5808
vn -0.6769 -0.4523 0.5808
vn -0.7984 -0.1588 -0.5808
vn -0.7984 -0.1588 0.5808
vn -0.7984 0.1588 -0.5808
vn -0.7984 0.1588 0.5808
vn -0.6769 0.4523 -0.5808
vn -0.6769 0.4523 0.5808
vn -0.4523 0.6769 -0.5808
vn -0.4523 0.6769 0.5808
vn -0.1588 0.7984 -0.5808
vn -0.1588 0.7984 0.5808
vn -0.1935 -0.9730 -0.1258
vn -0.1935 -0.9730 0.1258
vn -0.5512 -0.8249 -0.1258
vn -0.5512 -0.8249 0.1258
vn -0.8249 -0.5512 -0.1258
vn -0.8249 -0.5512 0.1258
vn -0.9730 -0.1935 -0.1258
vn -0.9730 -0.1935 0.1258
vn -0.9730 0.1935 -0.1258
vn -0.9730 0.1935 0.1258
vn -0.8249 0.5512 -0.1258
vn -0.8249 0.5512 0.1258
vn -0.5512 0.8249 -0.1258
vn -0.5512 0.8249 0.1258
vn -0.1935 0.9730 -0.1258
vn -0.1935 0.9730 0.1258
vn 0.1935 0.9730 -0.1258
vn 0.1935 0.9730 0.1258
vn 0.5512 0.8249 -0.1258
vn 0.5512 0.8249 0.1258
vn 0.8249 0.5512 -0.1258
vn 0.8249 0.5512 0.1258
vn 0.9730 0.1935 -0.1258
vn 0.9730 0.1935 0.1258
vn 0.9730 -0.1935 -0.1258
vn 0.9730 -0.1935 0.1258
vn 0.8249 -0.5512 -0.1258
vn 0.8249 -0.5512 0.1258
vn 0.5512 -0.8249 -0.1258
vn 0.5512 -0.8249 0.1258
vn 0.1935 -0.9730 -0.1258
vn 0.1935 -0.9730 0.1258
vt 0.625000 0.583333
vt 0.625000 0.500000
vt 0.625000 0.752815
vt 0.625000 0.809815
vt 0.687500 0.666667
vt 0.750000 0.666667
vt 0.750000 0.750000
vt 0.687500 0.750000
vt 0.392644 0.497795
vt 0.392644 0.439705
vt 0.750000 0.511556
vt 0.750000 0.510941
vt 0.750000 0.662815
vt 0.750000 0.738444
vt 0.750000 0.663020
vt 0.750000 0.739059
vt 0.750000 0.587185
vt 0.625000 0.666667
vt 0.625000 0.750000
vt 0.625000 0.815038
vt 0.625000 0.872300
vt 0.625000 0.497185
vt 0.625000 0.440185
vt 0.625000 0.437500
vt 0.625000 0.497647
vt 0.625000 0.752353
vt 0.625000 0.812500
vt 0.624705 0.439705
vt 0.624705 0.810295
vt 0.392644 0.810295
vt 0.375000 0.812500
vt 0.375000 0.437500
vt 0.625000 0.875000
vt 0.625000 0.434962
vt 0.625000 0.377700
vt 0.625000 0.375000
vt 0.625277 0.435427
vt 0.625277 0.814573
vt 0.391584 0.814573
vt 0.391584 0.435427
vt 0.391584 0.872927
vt 0.391584 0.377073
vt 0.392644 0.752205
vt 0.624896 0.440017
vt 0.624776 0.439914
vt 0.624705 0.439705
vt 0.624664 0.438498
vt 0.624599 0.435766
vt 0.469702 0.497746
vt 0.567910 0.496622
vt 0.680515 0.493670
vt 0.625000 0.497647
vt 0.777233 0.489683
vt 0.625098 0.814874
vt 0.625211 0.814588
vt 0.625317 0.812651
vt 0.625380 0.809190
vt 0.469525 0.872863
vt 0.567863 0.871546
vt 0.625000 0.872734
vt 0.680602 0.868100
vt 0.777418 0.863455
vt 0.625000 0.377543
vt 0.625005 0.378653
vt 0.625000 0.377266
vt 0.625039 0.380727
vt 0.625000 0.377266
vt 0.625100 0.382793
vt 0.472295 0.435427
vt 0.569020 0.435514
vt 0.680670 0.435770
vt 0.777448 0.436133
vt 0.625000 0.752649
vt 0.624996 0.753572
vt 0.624961 0.755113
vt 0.625000 0.752353
vt 0.624897 0.756456
vt 0.471725 0.810295
vt 0.568444 0.810208
vt 0.624705 0.810294
vt 0.680057 0.809988
vt 0.776773 0.809697
vt 0.624900 0.441965
vt 0.624996 0.495269
vt 0.624990 0.494646
vt 0.624798 0.441757
vt 0.613374 0.807193
vt 0.579831 0.807317
vt 0.568444 0.439792
vt 0.471725 0.439705
vt 0.625094 0.816830
vt 0.625004 0.870323
vt 0.625010 0.869561
vt 0.625190 0.816460
vt 0.613470 0.868395
vt 0.579476 0.868565
vt 0.569020 0.814486
vt 0.567863 0.871546
vt 0.472295 0.814573
vt 0.625004 0.379677
vt 0.625094 0.433170
vt 0.625190 0.433540
vt 0.625010 0.380439
vt 0.613814 0.432513
vt 0.580351 0.432626
vt 0.567863 0.378454
vt 0.569020 0.435514
vt 0.469525 0.377137
vt 0.624996 0.754731
vt 0.624900 0.808035
vt 0.624798 0.808242
vt 0.624990 0.755354
vt 0.579482 0.493663
vt 0.579831 0.442683
vt 0.567910 0.753377
vt 0.568444 0.810208
vt 0.469703 0.752254
vt 0.624984 0.442238
vt 0.624998 0.494987
vt 0.625000 0.497351
vt 0.625015 0.817098
vt 0.625002 0.870046
vt 0.625000 0.872457
vt 0.625002 0.379954
vt 0.625015 0.432902
vt 0.625098 0.435126
vt 0.624998 0.755013
vt 0.624984 0.807762
vt 0.624896 0.809983
vt 0.624999 0.495642
vt 0.624989 0.441627
vt 0.624989 0.808373
vt 0.624999 0.754358
vt 0.625001 0.870718
vt 0.625010 0.816486
vt 0.625010 0.433515
vt 0.625001 0.379282
vt 0.624898 0.441381
vt 0.624792 0.441199
vt 0.624776 0.439914
vt 0.624992 0.495187
vt 0.624997 0.495894
vt 0.624996 0.496428
vt 0.625095 0.816244
vt 0.625196 0.815893
vt 0.625211 0.814588
vt 0.625009 0.870103
vt 0.625003 0.870964
vt 0.625005 0.871347
vt 0.625003 0.379036
vt 0.625009 0.379897
vt 0.625005 0.378653
vt 0.625197 0.434107
vt 0.625095 0.433756
vt 0.625211 0.435412
vt 0.624997 0.754106
vt 0.624992 0.754813
vt 0.624792 0.808801
vt 0.624899 0.808619
vt 0.624776 0.810086
vt 0.250000 0.520572
vt 0.250000 0.510286
vt 0.249788 0.500443
vt 0.250000 0.500000
vt 0.252072 0.500000
vt 0.257014 0.500000
vt 0.625000 0.876829
vt 0.623118 0.876022
vt 0.596571 0.875217
vt 0.567986 0.875000
vt 0.624004 0.873338
vt 0.625000 0.875000
vt 0.250000 0.750000
vt 0.249788 0.749557
vt 0.250000 0.739714
vt 0.250000 0.729428
vt 0.257014 0.750000
vt 0.252072 0.750000
vt 0.567985 0.375000
vt 0.596572 0.374782
vt 0.623118 0.373978
vt 0.625000 0.373171
vt 0.624004 0.376662
vt 0.125000 0.523153
vt 0.127493 0.511438
vt 0.134051 0.500000
vt 0.375000 0.374747
vt 0.382484 0.259025
vt 0.447851 0.268128
vt 0.431112 0.375000
vt 0.125000 0.726848
vt 0.127493 0.738562
vt 0.134051 0.750000
vt 0.377963 0.991645
vt 0.375000 0.875253
vt 0.431112 0.875000
vt 0.447476 0.981392
vt 0.541894 0.970835
vt 0.556165 0.959156
vt 0.590811 0.962187
vt 0.574298 0.976849
vt 0.624822 0.964887
vt 0.605405 0.982739
vt 0.875000 0.750000
vt 0.840082 0.750000
vt 0.839713 0.727630
vt 0.875000 0.727245
vt 0.557189 0.289759
vt 0.543620 0.277285
vt 0.577424 0.269910
vt 0.591769 0.286832
vt 0.611973 0.253833
vt 0.624879 0.285057
vt 0.840082 0.500000
vt 0.875000 0.500000
vt 0.875000 0.522755
vt 0.839713 0.522370
vt 0.510456 0.978279
vt 0.535409 0.989790
vt 0.552792 0.995272
vt 0.553145 0.006833
vt 0.620884 -0.000035
vt 0.623888 0.023845
vt 0.554594 0.022758
vt 0.511647 0.270266
vt 0.532712 0.261104
vt 0.553449 0.241427
vt 0.553791 0.229392
vt 0.613896 0.238136
vt 0.462563 0.981392
vt 0.478102 0.999835
vt 0.477004 -0.000016
vt 0.545878 -0.000526
vt 0.477202 0.011263
vt 0.477321 0.023151
vt 0.463058 0.267968
vt 0.470105 0.258584
vt 0.477196 0.238752
vt 0.477321 0.226849
vt 0.750000 0.729419
vt 0.751356 0.750000
vt 0.375000 0.023153
vt 0.385320 0.011263
vt 0.413513 0.000000
vt 0.385320 0.238737
vt 0.375000 0.226847
vt 0.751356 0.500000
vt 0.750000 0.520581
vt 0.312500 0.500000
vt 0.312500 0.583333
vt 0.312500 0.666667
vt 0.312500 0.750000
vt 0.391580 0.377072
vt 0.375000 0.382014
vt 0.391580 0.872928
vt 0.750000 0.739060
vt 0.750000 0.586980
vt 0.750000 0.510940
vt 0.375000 0.867986
vt 0.750000 0.500000
vt 0.687500 0.500000
vt 0.687500 0.583333
vt 0.750000 0.583333
vt 0.613374 0.442807
vt 0.613446 0.493495
vt 0.613814 0.817487
vt 0.580351 0.817374
vt 0.613470 0.381605
vt 0.579476 0.381435
vt 0.613446 0.756505
vt 0.579482 0.756337
vt 0.466553 0.500000
vt 0.373304 0.500000
vt 0.392464 0.497815
vt 0.368669 0.500000
vt 0.372795 0.500000
vt 0.362338 0.500000
vt 0.364437 0.750693
vt 0.386704 0.751463
vt 0.392642 0.752205
vt 0.380313 0.750664
vt 0.392642 0.752205
vt 0.379690 0.750586
vt 0.365548 0.583333
vt 0.363082 0.499256
vt 0.368669 0.500000
vt 0.370274 0.583333
vt 0.420850 0.497636
vt 0.420850 0.582066
vt 0.466700 0.583333
vt 0.365575 0.666667
vt 0.370288 0.666667
vt 0.369372 0.750000
vt 0.420850 0.667654
vt 0.420850 0.751909
vt 0.466700 0.666667
vt 0.466700 0.750000
vt 1.000000 0.583838
vt 1.000000 0.916162
vt 0.937500 0.916162
vt 0.937500 0.583838
vt 0.875000 0.916162
vt 0.875000 0.583838
vt 0.812500 0.916162
vt 0.812500 0.583838
vt 0.750000 0.916162
vt 0.750000 0.583838
vt 0.687500 0.916162
vt 0.687500 0.583838
vt 0.625000 0.916162
vt 0.625000 0.583838
vt 0.562500 0.916162
vt 0.562500 0.583838
vt 0.500000 0.916162
vt 0.500000 0.583838
vt 0.437500 0.916162
vt 0.437500 0.583838
vt 0.375000 0.916162
vt 0.375000 0.583838
vt 0.312500 0.916162
vt 0.312500 0.583838
vt 0.250000 0.916162
vt 0.250000 0.583838
vt 0.187500 0.916162
vt 0.187500 0.583838
vt 0.125000 0.916162
vt 0.125000 0.583838
vt 0.327178 0.436324
vt 0.250000 0.451676
vt 0.172822 0.436324
vt 0.107394 0.392606
vt 0.063676 0.327178
vt 0.048324 0.250000
vt 0.063676 0.172822
vt 0.107394 0.107394
vt 0.172822 0.063676
vt 0.250000 0.048324
vt 0.327178 0.063676
vt 0.392606 0.107394
vt 0.436324 0.172822
vt 0.451676 0.250000
vt 0.436324 0.327178
vt 0.392606 0.392606
vt 0.062500 0.916162
vt 0.062500 0.583838
vt 0.000000 0.916162
vt 0.000000 0.583838
vt 0.750000 0.451676
vt 0.827178 0.436324
vt 0.892606 0.392606
vt 0.936324 0.327178
vt 0.951676 0.250000
vt 0.936324 0.172822
vt 0.892606 0.107394
vt 0.827178 0.063676
vt 0.750000 0.048324
vt 0.672822 0.063676
vt 0.607394 0.107394
vt 0.563676 0.172822
vt 0.548324 0.250000
vt 0.563676 0.327178
vt 0.607394 0.392606
vt 0.672822 0.436324
vt 0.937500 0.500000
vt 1.000000 0.500000
vt 1.000000 1.000000
vt 0.937500 1.000000
vt 0.875000 1.000000
vt 0.812500 0.500000
vt 0.812500 1.000000
vt 0.750000 1.000000
vt 0.687500 1.000000
vt 0.625000 1.000000
vt 0.562500 0.500000
vt 0.562500 1.000000
vt 0.500000 0.500000
vt 0.500000 1.000000
vt 0.437500 0.500000
vt 0.437500 1.000000
vt 0.375000 0.500000
vt 0.375000 1.000000
vt 0.312500 1.000000
vt 0.250000 1.000000
vt 0.187500 0.500000
vt 0.187500 1.000000
vt 0.125000 0.500000
vt 0.125000 1.000000
vt 0.062500 0.500000
vt 0.062500 1.000000
vt 0.000000 0.500000
vt 0.000000 1.000000
vt 0.831424 0.446574
vt 0.750000 0.462770
vt 0.750000 0.490000
vt 0.841844 0.471731
vt 0.250000 0.462770
vt 0.331423 0.446574
vt 0.341844 0.471731
vt 0.250000 0.490000
vt 0.900451 0.400451
vt 0.919706 0.419706
vt 0.400451 0.400451
vt 0.419706 0.419706
vt 0.946574 0.331423
vt 0.971731 0.341844
vt 0.446574 0.331423
vt 0.471731 0.341844
vt 0.962770 0.250000
vt 0.990000 0.250000
vt 0.462770 0.250000
vt 0.490000 0.250000
vt 0.946574 0.168577
vt 0.971731 0.158156
vt 0.446574 0.168577
vt 0.471731 0.158156
vt 0.900451 0.099549
vt 0.919706 0.080294
vt 0.400451 0.099549
vt 0.419706 0.080294
vt 0.831424 0.053426
vt 0.841844 0.028269
vt 0.331423 0.053426
vt 0.341844 0.028269
vt 0.750000 0.037230
vt 0.750000 0.010000
vt 0.250000 0.037230
vt 0.250000 0.010000
vt 0.668577 0.053426
vt 0.658156 0.028269
vt 0.168577 0.053426
vt 0.158156 0.028269
vt 0.599549 0.099549
vt 0.580294 0.080294
vt 0.099549 0.099549
vt 0.080294 0.080294
vt 0.553426 0.168577
vt 0.528269 0.158156
vt 0.053426 0.168577
vt 0.028269 0.158156
vt 0.537230 0.250000
vt 0.510000 0.250000
vt 0.037230 0.250000
vt 0.010000 0.250000
vt 0.553426 0.331423
vt 0.528269 0.341844
vt 0.053426 0.331423
vt 0.028269 0.341844
vt 0.599549 0.400451
vt 0.580294 0.419706
vt 0.099549 0.400451
vt 0.080294 0.419706
vt 0.668577 0.446574
vt 0.658156 0.471731
vt 0.168577 0.446574
vt 0.158156 0.471731
s 0
f 215/1/1 4/2/1 31/2/1 217/1/1
f 11/3/2 26/4/2 104/4/2 103/3/2
f 230/5/3 220/6/3 39/7/3 38/8/3
f 3/9/4 23/10/4 51/10/4 45/9/4
f 9/11/5 6/12/5 17/12/5 19/11/5
f 224/13/6 12/14/6 39/7/6 220/6/6
f 226/15/7 18/16/7 20/14/7 228/13/7
f 223/17/8 9/11/8 19/11/8 227/17/8
f 8/16/9 12/14/9 20/14/9 18/16/9
f 222/15/10 8/16/10 18/16/10 226/15/10
f 218/18/3 230/5/3 38/8/3 32/19/3
f 34/20/2 16/21/2 106/21/2 105/20/2
f 10/22/11 25/23/11 42/24/11 31/2/11
f 27/25/11 10/22/11 31/2/11 4/2/11
f 11/3/12 2/26/12 28/19/12 32/19/12
f 26/4/12 11/3/12 32/19/12 38/27/12
f 25/23/11 35/28/11 21/24/11 42/24/11
f 24/29/12 26/4/12 38/27/12 36/27/12
f 22/30/13 24/29/13 36/27/13 41/31/13
f 35/28/14 23/10/14 37/32/14 21/24/14
f 16/21/12 34/20/12 38/27/12 39/33/12
f 30/34/11 15/35/11 40/36/11 42/24/11
f 43/37/11 30/34/11 42/24/11 21/24/11
f 34/20/12 44/38/12 36/27/12 38/27/12
f 44/38/15 29/39/15 41/31/15 36/27/15
f 33/40/16 43/37/16 21/24/16 37/32/16
f 7/41/4 29/39/4 59/39/4 55/41/4
f 15/35/2 30/34/2 108/34/2 107/35/2
f 33/40/4 5/42/4 54/42/4 53/40/4
f 22/30/4 1/43/4 46/43/4 47/30/4
f 25/23/2 10/22/2 102/22/2 101/23/2
f 109/44/17 233/45/17 63/46/17
f 233/45/18 234/47/18 63/28/18
f 234/47/19 62/48/19 63/28/19
f 66/49/20 235/50/20 68/25/20
f 235/50/21 236/51/21 68/52/21
f 236/51/22 112/53/22 68/52/22
f 113/54/23 237/55/23 73/38/23
f 237/55/24 238/56/24 73/38/24
f 238/56/25 72/57/25 73/38/25
f 76/58/26 239/59/26 78/60/26
f 239/59/27 240/61/27 78/60/27
f 240/61/28 116/62/28 78/60/28
f 117/63/29 241/64/29 83/65/29
f 241/64/30 242/66/30 83/67/30
f 242/66/31 82/68/31 83/67/31
f 86/69/32 243/70/32 88/37/32
f 243/70/33 244/71/33 88/37/33
f 244/71/34 120/72/34 88/37/34
f 121/73/35 245/74/35 93/26/35
f 245/74/36 246/75/36 93/76/36
f 246/75/37 92/77/37 93/76/37
f 96/78/38 247/79/38 98/80/38
f 247/79/39 248/81/39 98/29/39
f 248/81/40 124/82/40 98/29/40
f 133/83/41 136/84/41 70/85/41 64/86/41
f 123/87/42 99/88/42 263/88/42 264/87/42
f 234/89/43 235/50/43 66/49/43 62/90/43
f 137/91/44 140/92/44 80/93/44 74/94/44
f 115/95/45 79/96/45 251/96/45 252/95/45
f 238/97/46 239/98/46 76/58/46 72/99/46
f 141/100/47 144/101/47 90/102/47 84/103/47
f 119/104/48 89/105/48 255/105/48 256/104/48
f 242/106/49 243/107/49 86/69/49 82/108/49
f 145/109/50 148/110/50 100/111/50 94/112/50
f 69/113/51 65/114/51 258/114/51 259/113/51
f 246/115/52 247/116/52 96/78/52 92/117/52
f 136/84/53 133/83/53 48/118/53 49/119/53
f 23/10/54 35/28/54 63/46/54 62/90/54 51/10/54
f 35/28/55 25/23/55 101/23/55 109/44/55 63/46/55
f 51/10/56 62/90/56 66/49/56 45/9/56
f 10/22/57 27/25/57 68/25/57 112/120/57 102/22/57
f 27/25/58 3/9/58 45/9/58 66/49/58 68/25/58
f 140/92/59 137/91/59 56/121/59 57/122/59
f 29/39/58 44/38/58 73/38/58 72/99/58 59/39/58
f 44/38/60 34/20/60 105/20/60 113/54/60 73/38/60
f 59/39/61 72/99/61 76/58/61 55/41/61
f 16/21/7 14/60/7 78/60/7 116/123/7 106/21/7
f 14/60/54 7/41/54 55/41/54 76/58/54 78/60/54
f 54/42/62 82/108/62 86/69/62 53/40/62
f 5/42/54 13/67/54 83/65/54 82/108/54 54/42/54
f 144/101/63 141/100/63 58/124/63 60/125/63
f 13/67/7 15/35/7 107/35/7 117/63/7 83/65/7
f 43/37/58 33/40/58 53/40/58 86/69/58 88/37/58
f 30/34/60 43/37/60 88/37/60 120/126/60 108/34/60
f 1/43/58 2/26/58 93/26/58 92/117/58 46/43/58
f 148/110/64 145/109/64 50/127/64 52/128/64
f 2/26/57 11/3/57 103/3/57 121/73/57 93/26/57
f 46/43/65 92/117/65 96/78/65 47/30/65
f 24/29/54 22/30/54 47/30/54 96/78/54 98/80/54
f 26/4/55 24/29/55 98/80/55 124/129/55 104/4/55
f 126/130/66 125/131/66 101/23/66 102/22/66
f 128/132/67 127/133/67 103/3/67 104/4/67
f 130/134/67 129/135/67 105/20/67 106/21/67
f 132/136/66 131/137/66 107/35/66 108/34/66
f 61/138/68 134/139/68 233/140/68 109/44/68
f 135/141/69 67/142/69 112/120/69 236/143/69
f 71/144/70 138/145/70 237/146/70 113/54/70
f 139/147/71 77/148/71 116/123/71 240/149/71
f 81/150/72 142/151/72 241/152/72 117/63/72
f 143/153/73 87/154/73 120/126/73 244/155/73
f 91/156/74 146/157/74 245/74/74 121/73/74
f 147/158/75 97/159/75 124/129/75 248/160/75
f 134/139/76 135/141/76 236/143/76 233/140/76
f 138/145/77 139/147/77 240/149/77 237/146/77
f 142/151/78 143/153/78 244/155/78 241/152/78
f 146/157/79 147/158/79 248/160/79 245/74/79
f 67/142/80 126/130/80 102/22/80 112/120/80
f 125/131/81 61/138/81 109/44/81 101/23/81
f 77/148/82 130/134/82 106/21/82 116/123/82
f 129/135/83 71/144/83 113/54/83 105/20/83
f 87/154/84 132/136/84 108/34/84 120/126/84
f 131/137/85 81/150/85 117/63/85 107/35/85
f 97/159/86 128/132/86 104/4/86 124/129/86
f 127/133/87 91/156/87 121/73/87 103/3/87
f 49/119/88 48/118/88 125/131/88 126/130/88
f 52/128/89 50/127/89 127/133/89 128/132/89
f 57/122/90 56/121/90 129/135/90 130/134/90
f 60/125/91 58/124/91 131/137/91 132/136/91
f 133/83/92 64/86/92 134/139/92 61/138/92
f 70/85/93 136/84/93 67/142/93 135/141/93
f 137/91/94 74/94/94 138/145/94 71/144/94
f 80/93/95 140/92/95 77/148/95 139/147/95
f 141/100/96 84/103/96 142/151/96 81/150/96
f 90/102/97 144/101/97 87/154/97 143/153/97
f 145/109/98 94/112/98 146/157/98 91/156/98
f 100/111/99 148/110/99 97/159/99 147/158/99
f 64/86/100 70/85/100 135/141/100 134/139/100
f 74/94/101 80/93/101 139/147/101 138/145/101
f 84/103/102 90/102/102 143/153/102 142/151/102
f 94/112/103 100/111/103 147/158/103 146/157/103
f 136/84/104 49/119/104 126/130/104 67/142/104
f 48/118/105 133/83/105 61/138/105 125/131/105
f 140/92/106 57/122/106 130/134/106 77/148/106
f 56/121/107 137/91/107 71/144/107 129/135/107
f 144/101/108 60/125/108 132/136/108 87/154/108
f 58/124/109 141/100/109 81/150/109 131/137/109
f 148/110/110 52/128/110 128/132/110 97/159/110
f 50/127/111 145/109/111 91/156/111 127/133/111
f 157/161/112 161/162/112 162/163/112 158/164/112 159/165/112 160/166/112
f 163/167/113 168/168/113 169/169/113 164/170/113 165/171/113 166/172/113 167/33/113
f 170/173/114 174/174/114 175/175/114 171/176/114 172/177/114 173/178/114
f 176/179/115 181/180/115 182/181/115 177/182/115 178/36/115 179/36/115 180/183/115
f 157/161/116 154/184/116 156/185/116 161/162/116
f 161/162/117 156/185/117 155/186/117 162/163/117
f 162/187/118 155/188/118 153/189/118 158/190/118
f 150/191/119 171/176/119 175/175/119 152/192/119
f 152/192/120 175/175/120 174/174/120 151/193/120
f 151/194/121 174/195/121 170/196/121 149/197/121
f 191/198/122 183/199/122 185/200/122 193/201/122
f 193/201/123 185/200/123 186/202/123 194/203/123
f 194/204/124 186/205/124 184/206/124 192/207/124
f 203/208/125 211/209/125 213/210/125 205/211/125
f 205/211/126 213/210/126 214/212/126 206/213/126
f 206/214/127 214/215/127 212/216/127 204/217/127
f 195/218/128 191/198/128 193/201/128 197/219/128
f 197/219/129 193/201/129 194/203/129 198/220/129
f 198/221/130 194/222/130 192/223/130 196/224/130
f 211/209/131 207/225/131 209/226/131 213/210/131
f 213/210/132 209/226/132 210/227/132 214/212/132
f 214/212/133 210/227/133 208/228/133 212/229/133
f 187/230/134 195/218/134 197/219/134 189/231/134
f 189/232/135 197/233/135 198/221/135 190/234/135
f 190/234/136 198/221/136 196/224/136 188/235/136
f 207/225/137 199/236/137 201/237/137 209/226/137
f 209/226/138 201/237/138 202/238/138 210/227/138
f 210/227/139 202/238/139 200/239/139 208/228/139
f 163/240/140 184/206/140 186/205/140 168/241/140
f 168/168/141 186/202/141 185/200/141 169/169/141
f 169/169/142 185/200/142 183/199/142 164/170/142
f 188/235/143 150/242/143 152/243/143 190/234/143
f 190/234/144 152/243/144 151/244/144 189/232/144
f 189/231/145 151/194/145 149/197/145 187/230/145
f 199/236/146 153/189/146 155/188/146 201/237/146
f 201/237/147 155/188/147 156/245/147 202/238/147
f 202/238/148 156/245/148 154/246/148 200/239/148
f 176/179/149 203/208/149 205/211/149 181/180/149
f 181/180/150 205/211/150 206/213/150 182/181/150
f 182/247/151 206/214/151 204/217/151 177/248/151
f 150/242/54 188/235/54 200/239/54 154/246/54
f 154/184/4 157/161/4 171/176/4 150/191/4
f 170/196/152 164/170/152 183/199/152 191/198/152 195/218/152 187/230/152 149/197/152
f 153/189/153 199/236/153 207/225/153 211/209/153 203/208/153 176/179/153 158/190/153
f 157/161/4 160/166/4 37/249/4 231/250/4 232/251/4 41/252/4 172/177/4 171/176/4
f 13/67/154 5/42/154 159/253/154 158/190/154 176/179/154 180/183/154
f 5/42/155 33/40/155 37/32/155 160/254/155 159/253/155
f 177/248/156 204/217/156 184/206/156 163/240/156
f 7/41/157 14/60/157 165/171/157 164/170/157 170/196/157 173/255/157
f 12/14/7 8/16/7 167/256/7 166/7/7 39/7/7
f 8/16/7 222/15/7 221/257/7 6/12/7 178/258/7 177/248/7 163/240/7 167/256/7
f 14/60/12 16/21/12 39/33/12 166/172/12 165/171/12
f 29/39/158 7/41/158 173/255/158 172/259/158 41/31/158
f 15/35/11 13/67/11 180/183/11 179/36/11 40/36/11
f 6/12/7 9/11/7 40/260/7 179/260/7 178/258/7
f 184/206/159 204/217/159 212/216/159 192/207/159
f 196/224/160 208/228/160 200/239/160 188/235/160
f 192/223/161 212/229/161 208/228/161 196/224/161
f 31/2/162 42/261/162 229/262/162 217/1/162
f 217/1/2 229/262/2 230/5/2 218/18/2
f 6/12/10 221/257/10 225/257/10 17/12/10
f 221/257/10 222/15/10 226/15/10 225/257/10
f 12/14/8 224/13/8 228/13/8 20/14/8
f 224/13/8 223/17/8 227/17/8 228/13/8
f 17/12/7 225/257/7 227/17/7 19/11/7
f 225/257/7 226/15/7 228/13/7 227/17/7
f 9/11/163 223/17/163 219/263/163 40/260/163
f 223/17/164 224/13/164 220/6/164 219/263/164
f 42/261/162 40/260/162 219/263/162 229/262/162
f 229/262/2 219/263/2 220/6/2 230/5/2
f 28/19/165 216/18/165 218/18/165 32/19/165
f 216/18/166 215/1/166 217/1/166 218/18/166
f 110/264/167 65/114/167 234/89/167 233/140/167
f 69/113/168 111/265/168 236/143/168 235/50/168
f 114/266/169 75/267/169 238/97/169 237/146/169
f 79/96/170 115/95/170 240/149/170 239/98/170
f 118/268/171 85/269/171 242/106/171 241/152/171
f 89/105/172 119/104/172 244/155/172 243/107/172
f 122/270/173 95/271/173 246/115/173 245/74/173
f 99/88/174 123/87/174 248/160/174 247/116/174
f 111/265/175 110/264/175 233/140/175 236/143/175
f 65/114/176 69/113/176 235/50/176 234/89/176
f 115/95/177 114/266/177 237/146/177 240/149/177
f 75/267/178 79/96/178 239/98/178 238/97/178
f 119/104/179 118/268/179 241/152/179 244/155/179
f 85/269/180 89/105/180 243/107/180 242/106/180
f 123/87/181 122/270/181 245/74/181 248/160/181
f 95/271/182 99/88/182 247/116/182 246/115/182
f 249/266/183 252/95/183 251/96/183 250/267/183
f 253/268/184 256/104/184 255/105/184 254/269/184
f 118/268/185 119/104/185 256/104/185 253/268/185
f 114/266/186 115/95/186 252/95/186 249/266/186
f 85/269/187 118/268/187 253/268/187 254/269/187
f 89/105/188 85/269/188 254/269/188 255/105/188
f 75/267/189 114/266/189 249/266/189 250/267/189
f 79/96/190 75/267/190 250/267/190 251/96/190
f 257/264/191 260/265/191 259/113/191 258/114/191
f 261/270/192 264/87/192 263/88/192 262/271/192
f 122/270/193 123/87/193 264/87/193 261/270/193
f 111/265/194 69/113/194 259/113/194 260/265/194
f 110/264/195 111/265/195 260/265/195 257/264/195
f 95/271/196 122/270/196 261/270/196 262/271/196
f 99/88/197 95/271/197 262/271/197 263/88/197
f 65/114/198 110/264/198 257/264/198 258/114/198
f 265/272/158 268/273/158 267/274/158
f 268/273/158 269/275/158 267/276/158
f 269/275/158 266/277/158 267/276/158
f 270/278/158 273/279/158 272/280/158
f 273/279/158 274/281/158 272/282/158
f 274/281/158 271/283/158 272/282/158
f 280/284/199 266/285/199 269/286/199 282/287/199
f 282/287/200 269/286/200 268/288/200 281/289/200
f 281/289/201 268/288/201 265/272/201 279/290/201
f 270/278/202 275/291/202 277/292/202 273/293/202
f 273/293/203 277/292/203 278/294/203 274/295/203
f 274/295/204 278/294/204 276/296/204 271/297/204
f 275/291/205 280/284/205 282/287/205 277/292/205
f 277/292/206 282/287/206 281/289/206 278/294/206
f 278/294/207 281/289/207 279/290/207 276/296/207
f 265/272/208 4/2/208 215/1/208 279/290/208
f 37/249/4 266/285/4 280/284/4 231/250/4
f 23/10/155 3/9/155 267/274/155 266/285/155 37/32/155
f 3/9/209 27/25/209 4/2/209 265/272/209 267/274/209
f 2/26/210 1/43/210 272/280/210 271/297/210 28/19/210
f 232/251/4 275/291/4 270/278/4 41/252/4
f 1/43/158 22/30/158 41/31/158 270/278/158 272/280/158
f 276/296/211 216/18/211 28/19/211 271/297/211
f 279/290/58 215/1/58 216/18/58 276/296/58
f 231/250/4 280/284/4 275/291/4 232/251/4
f 283/298/212 284/299/212 286/300/212 285/301/212
f 285/301/213 286/300/213 288/302/213 287/303/213
f 287/303/214 288/302/214 290/304/214 289/305/214
f 289/305/215 290/304/215 292/306/215 291/307/215
f 291/307/216 292/306/216 294/308/216 293/309/216
f 293/309/217 294/308/217 296/310/217 295/311/217
f 295/311/218 296/310/218 298/312/218 297/313/218
f 297/313/219 298/312/219 300/314/219 299/315/219
f 299/315/220 300/314/220 302/316/220 301/317/220
f 301/317/221 302/316/221 304/318/221 303/319/221
f 303/319/222 304/318/222 306/320/222 305/321/222
f 305/321/223 306/320/223 308/322/223 307/323/223
f 307/323/224 308/322/224 310/324/224 309/325/224
f 309/325/225 310/324/225 312/326/225 311/327/225
f 317/328/158 318/329/158 346/330/158 344/331/158 342/332/158 340/333/158 338/334/158 336/335/158 334/336/158 332/337/158 330/338/158 328/339/158 326/340/158 324/341/158 322/342/158 320/343/158
f 311/327/226 312/326/226 314/344/226 313/345/226
f 313/345/227 314/344/227 284/346/227 283/347/227
f 315/348/155 316/349/155 319/350/155 321/351/155 323/352/155 325/353/155 327/354/155 329/355/155 331/356/155 333/357/155 335/358/155 337/359/155 339/360/155 341/361/155 343/362/155 345/363/155
f 283/298/228 285/301/228 348/364/228 347/365/228
f 286/300/229 284/299/229 350/366/229 349/367/229
f 285/301/230 287/303/230 351/215/230 348/364/230
f 288/302/231 286/300/231 349/367/231 352/368/231
f 287/303/232 289/305/232 353/369/232 351/215/232
f 290/304/233 288/302/233 352/368/233 354/370/233
f 289/305/234 291/307/234 355/260/234 353/369/234
f 292/306/235 290/304/235 354/370/235 356/371/235
f 291/307/236 293/309/236 357/261/236 355/260/236
f 294/308/237 292/306/237 356/371/237 358/372/237
f 293/309/238 295/311/238 359/2/238 357/261/238
f 296/310/239 294/308/239 358/372/239 360/373/239
f 295/311/240 297/313/240 361/374/240 359/2/240
f 298/312/241 296/310/241 360/373/241 362/375/241
f 297/313/242 299/315/242 363/376/242 361/374/242
f 300/314/243 298/312/243 362/375/243 364/377/243
f 299/315/244 301/317/244 365/378/244 363/376/244
f 302/316/245 300/314/245 364/377/245 366/379/245
f 301/317/246 303/319/246 367/380/246 365/378/246
f 304/318/247 302/316/247 366/379/247 368/381/247
f 303/319/248 305/321/248 369/249/248 367/380/248
f 306/320/249 304/318/249 368/381/249 370/382/249
f 305/321/250 307/323/250 371/164/250 369/249/250
f 308/322/251 306/320/251 370/382/251 372/383/251
f 307/323/252 309/325/252 373/384/252 371/164/252
f 310/324/253 308/322/253 372/383/253 374/385/253
f 309/325/254 311/327/254 375/386/254 373/384/254
f 312/326/255 310/324/255 374/385/255 376/387/255
f 311/327/256 313/345/256 377/388/256 375/386/256
f 314/344/257 312/326/257 376/387/257 378/389/257
f 313/345/258 283/347/258 347/390/258 377/388/258
f 284/346/259 314/344/259 378/389/259 350/391/259
f 380/392/155 379/393/155 347/394/155 348/395/155
f 382/396/158 381/397/158 349/398/158 350/399/158
f 383/400/155 380/392/155 348/395/155 351/401/155
f 381/397/158 384/402/158 352/403/158 349/398/158
f 385/404/155 383/400/155 351/401/155 353/405/155
f 384/402/158 386/406/158 354/407/158 352/403/158
f 387/408/155 385/404/155 353/405/155 355/409/155
f 386/406/158 388/410/158 356/411/158 354/407/158
f 389/412/155 387/408/155 355/409/155 357/413/155
f 388/410/158 390/414/158 358/415/158 356/411/158
f 391/416/155 389/412/155 357/413/155 359/417/155
f 390/414/158 392/418/158 360/419/158 358/415/158
f 393/420/155 391/416/155 359/417/155 361/421/155
f 392/418/158 394/422/158 362/423/158 360/419/158
f 395/424/155 393/420/155 361/421/155 363/425/155
f 394/422/158 396/426/158 364/427/158 362/423/158
f 397/428/155 395/424/155 363/425/155 365/429/155
f 396/426/158 398/430/158 366/431/158 364/427/158
f 399/432/155 397/428/155 365/429/155 367/433/155
f 398/430/158 400/434/158 368/435/158 366/431/158
f 401/436/155 399/432/155 367/433/155 369/437/155
f 400/434/158 402/438/158 370/439/158 368/435/158
f 403/440/155 401/436/155 369/437/155 371/441/155
f 402/438/158 404/442/158 372/443/158 370/439/158
f 405/444/155 403/440/155 371/441/155 373/445/155
f 404/442/158 406/446/158 374/447/158 372/443/158
f 407/448/155 405/444/155 373/445/155 375/449/155
f 406/446/158 408/450/158 376/451/158 374/447/158
f 409/452/155 407/448/155 375/449/155 377/453/155
f 408/450/158 410/454/158 378/455/158 376/451/158
f 379/393/155 409/452/155 377/453/155 347/394/155
f 410/454/158 382/396/158 350/399/158 378/455/158
f 316/349/260 315/348/260 379/393/260 380/392/260
f 318/329/261 317/328/261 381/397/261 382/396/261
f 319/350/262 316/349/262 380/392/262 383/400/262
f 317/328/263 320/343/263 384/402/263 381/397/263
f 321/351/264 319/350/264 383/400/264 385/404/264
f 320/343/265 322/342/265 386/406/265 384/402/265
f 323/352/266 321/351/266 385/404/266 387/408/266
f 322/342/267 324/341/267 388/410/267 386/406/267
f 325/353/268 323/352/268 387/408/268 389/412/268
f 324/341/269 326/340/269 390/414/269 388/410/269
f 327/354/270 325/353/270 389/412/270 391/416/270
f 326/340/271 328/339/271 392/418/271 390/414/271
f 329/355/272 327/354/272 391/416/272 393/420/272
f 328/339/273 330/338/273 394/422/273 392/418/273
f 331/356/274 329/355/274 393/420/274 395/424/274
f 330/338/275 332/337/275 396/426/275 394/422/275
f 333/357/276 331/356/276 395/424/276 397/428/276
f 332/337/277 334/336/277 398/430/277 396/426/277
f 335/358/278 333/357/278 397/428/278 399/432/278
f 334/336/279 336/335/279 400/434/279 398/430/279
f 337/359/280 335/358/280 399/432/280 401/436/280
f 336/335/281 338/334/281 402/438/281 400/434/281
f 339/360/282 337/359/282 401/436/282 403/440/282
f 338/334/283 340/333/283 404/442/283 402/438/283
f 341/361/284 339/360/284 403/440/284 405/444/284
f 340/333/285 342/332/285 406/446/285 404/442/285
f 343/362/286 341/361/286 405/444/286 407/448/286
f 342/332/287 344/331/287 408/450/287 406/446/287
f 345/363/288 343/362/288 407/448/288 409/452/288
f 344/331/289 346/330/289 410/454/289 408/450/289
f 315/348/290 345/363/290 409/452/290 379/393/290
f 346/330/291 318/329/291 382/396/291 410/454/291
f 411/298/212 413/301/212 414/300/212 412/299/212
f 413/301/213 415/303/213 416/302/213 414/300/213
f 415/303/214 417/305/214 418/304/214 416/302/214
f 417/305/215 419/307/215 420/306/215 418/304/215
f 419/307/216 421/309/216 422/308/216 420/306/216
f 421/309/217 423/311/217 424/310/217 422/308/217
f 423/311/218 425/313/218 426/312/218 424/310/218
f 425/313/219 427/315/219 428/314/219 426/312/219
f 427/315/220 429/317/220 430/316/220 428/314/220
f 429/317/221 431/319/221 432/318/221 430/316/221
f 431/319/222 433/321/222 434/320/222 432/318/222
f 433/321/223 435/323/223 436/322/223 434/320/223
f 435/323/224 437/325/224 438/324/224 436/322/224
f 437/325/225 439/327/225 440/326/225 438/324/225
f 445/328/155 448/343/155 450/342/155 452/341/155 454/340/155 456/339/155 458/338/155 460/337/155 462/336/155 464/335/155 466/334/155 468/333/155 470/332/155 472/331/155 474/330/155 446/329/155
f 439/327/226 441/345/226 442/344/226 440/326/226
f 441/345/227 411/347/227 412/346/227 442/344/227
f 443/348/158 473/363/158 471/362/158 469/361/158 467/360/158 465/359/158 463/358/158 461/357/158 459/356/158 457/355/158 455/354/158 453/353/158 451/352/158 449/351/158 447/350/158 444/349/158
f 411/298/229 475/365/229 476/364/229 413/301/229
f 414/300/228 477/367/228 478/366/228 412/299/228
f 413/301/231 476/364/231 479/215/231 415/303/231
f 416/302/230 480/368/230 477/367/230 414/300/230
f 415/303/233 479/215/233 481/369/233 417/305/233
f 418/304/232 482/370/232 480/368/232 416/302/232
f 417/305/235 481/369/235 483/260/235 419/307/235
f 420/306/234 484/371/234 482/370/234 418/304/234
f 419/307/237 483/260/237 485/261/237 421/309/237
f 422/308/236 486/372/236 484/371/236 420/306/236
f 421/309/239 485/261/239 487/2/239 423/311/239
f 424/310/238 488/373/238 486/372/238 422/308/238
f 423/311/241 487/2/241 489/374/241 425/313/241
f 426/312/240 490/375/240 488/373/240 424/310/240
f 425/313/243 489/374/243 491/376/243 427/315/243
f 428/314/242 492/377/242 490/375/242 426/312/242
f 427/315/245 491/376/245 493/378/245 429/317/245
f 430/316/244 494/379/244 492/377/244 428/314/244
f 429/317/247 493/378/247 495/380/247 431/319/247
f 432/318/246 496/381/246 494/379/246 430/316/246
f 431/319/249 495/380/249 497/249/249 433/321/249
f 434/320/248 498/382/248 496/381/248 432/318/248
f 433/321/251 497/249/251 499/164/251 435/323/251
f 436/322/250 500/383/250 498/382/250 434/320/250
f 435/323/253 499/164/253 501/384/253 437/325/253
f 438/324/252 502/385/252 500/383/252 436/322/252
f 437/325/255 501/384/255 503/386/255 439/327/255
f 440/326/254 504/387/254 502/385/254 438/324/254
f 439/327/257 503/386/257 505/388/257 441/345/257
f 442/344/256 506/389/256 504/387/256 440/326/256
f 441/345/259 505/388/259 475/390/259 411/347/259
f 412/346/258 478/391/258 506/389/258 442/344/258
f 508/392/158 476/395/158 475/394/158 507/393/158
f 510/396/155 478/399/155 477/398/155 509/397/155
f 511/400/158 479/401/158 476/395/158 508/392/158
f 509/397/155 477/398/155 480/403/155 512/402/155
f 513/404/158 481/405/158 479/401/158 511/400/158
f 512/402/155 480/403/155 482/407/155 514/406/155
f 515/408/158 483/409/158 481/405/158 513/404/158
f 514/406/155 482/407/155 484/411/155 516/410/155
f 517/412/158 485/413/158 483/409/158 515/408/158
f 516/410/155 484/411/155 486/415/155 518/414/155
f 519/416/158 487/417/158 485/413/158 517/412/158
f 518/414/155 486/415/155 488/419/155 520/418/155
f 521/420/158 489/421/158 487/417/158 519/416/158
f 520/418/155 488/419/155 490/423/155 522/422/155
f 523/424/158 491/425/158 489/421/158 521/420/158
f 522/422/155 490/423/155 492/427/155 524/426/155
f 525/428/158 493/429/158 491/425/158 523/424/158
f 524/426/155 492/427/155 494/431/155 526/430/155
f 527/432/158 495/433/158 493/429/158 525/428/158
f 526/430/155 494/431/155 496/435/155 528/434/155
f 529/436/158 497/437/158 495/433/158 527/432/158
f 528/434/155 496/435/155 498/439/155 530/438/155
f 531/440/158 499/441/158 497/437/158 529/436/158
f 530/438/155 498/439/155 500/443/155 532/442/155
f 533/444/158 501/445/158 499/441/158 531/440/158
f 532/442/155 500/443/155 502/447/155 534/446/155
f 535/448/158 503/449/158 501/445/158 533/444/158
f 534/446/155 502/447/155 504/451/155 536/450/155
f 537/452/158 505/453/158 503/449/158 535/448/158
f 536/450/155 504/451/155 506/455/155 538/454/155
f 507/393/158 475/394/158 505/453/158 537/452/158
f 538/454/155 506/455/155 478/399/155 510/396/155
f 444/349/261 508/392/261 507/393/261 443/348/261
f 446/329/260 510/396/260 509/397/260 445/328/260
f 447/350/263 511/400/263 508/392/263 444/349/263
f 445/328/262 509/397/262 512/402/262 448/343/262
f 449/351/265 513/404/265 511/400/265 447/350/265
f 448/343/264 512/402/264 514/406/264 450/342/264
f 451/352/267 515/408/267 513/404/267 449/351/267
f 450/342/266 514/406/266 516/410/266 452/341/266
f 453/353/269 517/412/269 515/408/269 451/352/269
f 452/341/268 516/410/268 518/414/268 454/340/268
f 455/354/271 519/416/271 517/412/271 453/353/271
f 454/340/270 518/414/270 520/418/270 456/339/270
f 457/355/273 521/420/273 519/416/273 455/354/273
f 456/339/272 520/418/272 522/422/272 458/338/272
f 459/356/275 523/424/275 521/420/275 457/355/275
f 458/338/274 522/422/274 524/426/274 460/337/274
f 461/357/277 525/428/277 523/424/277 459/356/277
f 460/337/276 524/426/276 526/430/276 462/336/276
f 463/358/279 527/432/279 525/428/279 461/357/279
f 462/336/278 526/430/278 528/434/278 464/335/278
f 465/359/281 529/436/281 527/432/281 463/358/281
f 464/335/280 528/434/280 530/438/280 466/334/280
f 467/360/283 531/440/283 529/436/283 465/359/283
f 466/334/282 530/438/282 532/442/282 468/333/282
f 469/361/285 533/444/285 531/440/285 467/360/285
f 468/333/284 532/442/284 534/446/284 470/332/284
f 471/362/287 535/448/287 533/444/287 469/361/287
f 470/332/286 534/446/286 536/450/286 472/331/286
f 473/363/289 537/452/289 535/448/289 471/362/289
f 472/331/288 536/450/288 538/454/288 474/330/288
f 443/348/291 507/393/291 537/452/291 473/363/291
f 474/330/290 538/454/290 510/396/290 446/329/290
f 539/298/212 540/299/212 542/300/212 541/301/212
f 541/301/213 542/300/213 544/302/213 543/303/213
f 543/303/214 544/302/214 546/304/214 545/305/214
f 545/305/215 546/304/215 548/306/215 547/307/215
f 547/307/216 548/306/216 550/308/216 549/309/216
f 549/309/217 550/308/217 552/310/217 551/311/217
f 551/311/218 552/310/218 554/312/218 553/313/218
f 553/313/219 554/312/219 556/314/219 555/315/219
f 555/315/220 556/314/220 558/316/220 557/317/220
f 557/317/221 558/316/221 560/318/221 559/319/221
f 559/319/222 560/318/222 562/320/222 561/321/222
f 561/321/223 562/320/223 564/322/223 563/323/223
f 563/323/224 564/322/224 566/324/224 565/325/224
f 565/325/225 566/324/225 568/326/225 567/327/225
f 573/328/158 574/329/158 602/330/158 600/331/158 598/332/158 596/333/158 594/334/158 592/335/158 590/336/158 588/337/158 586/338/158 584/339/158 582/340/158 580/341/158 578/342/158 576/343/158
f 567/327/226 568/326/226 570/344/226 569/345/226
f 569/345/227 570/344/227 540/346/227 539/347/227
f 571/348/155 572/349/155 575/350/155 577/351/155 579/352/155 581/353/155 583/354/155 585/355/155 587/356/155 589/357/155 591/358/155 593/359/155 595/360/155 597/361/155 599/362/155 601/363/155
f 539/298/228 541/301/228 604/364/228 603/365/228
f 542/300/229 540/299/229 606/366/229 605/367/229
f 541/301/230 543/303/230 607/215/230 604/364/230
f 544/302/231 542/300/231 605/367/231 608/368/231
f 543/303/232 545/305/232 609/369/232 607/215/232
f 546/304/233 544/302/233 608/368/233 610/370/233
f 545/305/234 547/307/234 611/260/234 609/369/234
f 548/306/235 546/304/235 610/370/235 612/371/235
f 547/307/236 549/309/236 613/261/236 611/260/236
f 550/308/237 548/306/237 612/371/237 614/372/237
f 549/309/238 551/311/238 615/2/238 613/261/238
f 552/310/239 550/308/239 614/372/239 616/373/239
f 551/311/240 553/313/240 617/374/240 615/2/240
f 554/312/241 552/310/241 616/373/241 618/375/241
f 553/313/242 555/315/242 619/376/242 617/374/242
f 556/314/243 554/312/243 618/375/243 620/377/243
f 555/315/244 557/317/244 621/378/244 619/376/244
f 558/316/245 556/314/245 620/377/245 622/379/245
f 557/317/246 559/319/246 623/380/246 621/378/246
f 560/318/247 558/316/247 622/379/247 624/381/247
f 559/319/248 561/321/248 625/249/248 623/380/248
f 562/320/249 560/318/249 624/381/249 626/382/249
f 561/321/250 563/323/250 627/164/250 625/249/250
f 564/322/251 562/320/251 626/382/251 628/383/251
f 563/323/252 565/325/252 629/384/252 627/164/252
f 566/324/253 564/322/253 628/383/253 630/385/253
f 565/325/254 567/327/254 631/386/254 629/384/254
f 568/326/255 566/324/255 630/385/255 632/387/255
f 567/327/256 569/345/256 633/388/256 631/386/256
f 570/344/257 568/326/257 632/387/257 634/389/257
f 569/345/258 539/347/258 603/390/258 633/388/258
f 540/346/259 570/344/259 634/389/259 606/391/259
f 636/392/155 635/393/155 603/394/155 604/395/155
f 638/396/158 637/397/158 605/398/158 606/399/158
f 639/400/155 636/392/155 604/395/155 607/401/155
f 637/397/158 640/402/158 608/403/158 605/398/158
f 641/404/155 639/400/155 607/401/155 609/405/155
f 640/402/158 642/406/158 610/407/158 608/403/158
f 643/408/155 641/404/155 609/405/155 611/409/155
f 642/406/158 644/410/158 612/411/158 610/407/158
f 645/412/155 643/408/155 611/409/155 613/413/155
f 644/410/158 646/414/158 614/415/158 612/411/158
f 647/416/155 645/412/155 613/413/155 615/417/155
f 646/414/158 648/418/158 616/419/158 614/415/158
f 649/420/155 647/416/155 615/417/155 617/421/155
f 648/418/158 650/422/158 618/423/158 616/419/158
f 651/424/155 649/420/155 617/421/155 619/425/155
f 650/422/158 652/426/158 620/427/158 618/423/158
f 653/428/155 651/424/155 619/425/155 621/429/155
f 652/426/158 654/430/158 622/431/158 620/427/158
f 655/432/155 653/428/155 621/429/155 623/433/155
f 654/430/158 656/434/158 624/435/158 622/431/158
f 657/436/155 655/432/155 623/433/155 625/437/155
f 656/434/158 658/438/158 626/439/158 624/435/158
f 659/440/155 657/436/155 625/437/155 627/441/155
f 658/438/158 660/442/158 628/443/158 626/439/158
f 661/444/155 659/440/155 627/441/155 629/445/155
f 660/442/158 662/446/158 630/447/158 628/443/158
f 663/448/155 661/444/155 629/445/155 631/449/155
f 662/446/158 664/450/158 632/451/158 630/447/158
f 665/452/155 663/448/155 631/449/155 633/453/155
f 664/450/158 666/454/158 634/455/158 632/451/158
f 635/393/155 665/452/155 633/453/155 603/394/155
f 666/454/158 638/396/158 606/399/158 634/455/158
f 572/349/260 571/348/260 635/393/260 636/392/260
f 574/329/261 573/328/261 637/397/261 638/396/261
f 575/350/262 572/349/262 636/392/262 639/400/262
f 573/328/263 576/343/263 640/402/263 637/397/263
f 577/351/264 575/350/264 639/400/264 641/404/264
f 576/343/265 578/342/265 642/406/265 640/402/265
f 579/352/266 577/351/266 641/404/266 643/408/266
f 578/342/267 580/341/267 644/410/267 642/406/267
f 581/353/268 579/352/268 643/408/268 645/412/268
f 580/341/269 582/340/269 646/414/269 644/410/269
f 583/354/270 581/353/270 645/412/270 647/416/270
f 582/340/271 584/339/271 648/418/271 646/414/271
f 585/355/272 583/354/272 647/416/272 649/420/272
f 584/339/273 586/338/273 650/422/273 648/418/273
f 587/356/274 585/355/274 649/420/274 651/424/274
f 586/338/275 588/337/275 652/426/275 650/422/275
f 589/357/276 587/356/276 651/424/276 653/428/276
f 588/337/277 590/336/277 654/430/277 652/426/277
f 591/358/278 589/357/278 653/428/278 655/432/278
f 590/336/279 592/335/279 656/434/279 654/430/279
f 593/359/280 591/358/280 655/432/280 657/436/280
f 592/335/281 594/334/281 658/438/281 656/434/281
f 595/360/282 593/359/282 657/436/282 659/440/282
f 594/334/283 596/333/283 660/442/283 658/438/283
f 597/361/284 595/360/284 659/440/284 661/444/284
f 596/333/285 598/332/285 662/446/285 660/442/285
f 599/362/286 597/361/286 661/444/286 663/448/286
f 598/332/287 600/331/287 664/450/287 662/446/287
f 601/363/288 599/362/288 663/448/288 665/452/288
f 600/331/289 602/330/289 666/454/289 664/450/289
f 571/348/290 601/363/290 665/452/290 635/393/290
f 602/330/291 574/329/291 638/396/291 666/454/291
f 667/298/212 669/301/212 670/300/212 668/299/212
f 669/301/213 671/303/213 672/302/213 670/300/213
f 671/303/214 673/305/214 674/304/214 672/302/214
f 673/305/215 675/307/215 676/306/215 674/304/215
f 675/307/216 677/309/216 678/308/216 676/306/216
f 677/309/217 679/311/217 680/310/217 678/308/217
f 679/311/218 681/313/218 682/312/218 680/310/218
f 681/313/219 683/315/219 684/314/219 682/312/219
f 683/315/220 685/317/220 686/316/220 684/314/220
f 685/317/221 687/319/221 688/318/221 686/316/221
f 687/319/222 689/321/222 690/320/222 688/318/222
f 689/321/223 691/323/223 692/322/223 690/320/223
f 691/323/224 693/325/224 694/324/224 692/322/224
f 693/325/225 695/327/225 696/326/225 694/324/225
f 701/328/155 704/343/155 706/342/155 708/341/155 710/340/155 712/339/155 714/338/155 716/337/155 718/336/155 720/335/155 722/334/155 724/333/155 726/332/155 728/331/155 730/330/155 702/329/155
f 695/327/226 697/345/226 698/344/226 696/326/226
f 697/345/227 667/347/227 668/346/227 698/344/227
f 699/348/158 729/363/158 727/362/158 725/361/158 723/360/158 721/359/158 719/358/158 717/357/158 715/356/158 713/355/158 711/354/158 709/353/158 707/352/158 705/351/158 703/350/158 700/349/158
f 667/298/229 731/365/229 732/364/229 669/301/229
f 670/300/228 733/367/228 734/366/228 668/299/228
f 669/301/231 732/364/231 735/215/231 671/303/231
f 672/302/230 736/368/230 733/367/230 670/300/230
f 671/303/233 735/215/233 737/369/233 673/305/233
f 674/304/232 738/370/232 736/368/232 672/302/232
f 673/305/235 737/369/235 739/260/235 675/307/235
f 676/306/234 740/371/234 738/370/234 674/304/234
f 675/307/237 739/260/237 741/261/237 677/309/237
f 678/308/236 742/372/236 740/371/236 676/306/236
f 677/309/239 741/261/239 743/2/239 679/311/239
f 680/310/238 744/373/238 742/372/238 678/308/238
f 679/311/241 743/2/241 745/374/241 681/313/241
f 682/312/240 746/375/240 744/373/240 680/310/240
f 681/313/243 745/374/243 747/376/243 683/315/243
f 684/314/242 748/377/242 746/375/242 682/312/242
f 683/315/245 747/376/245 749/378/245 685/317/245
f 686/316/244 750/379/244 748/377/244 684/314/244
f 685/317/247 749/378/247 751/380/247 687/319/247
f 688/318/246 752/381/246 750/379/246 686/316/246
f 687/319/249 751/380/249 753/249/249 689/321/249
f 690/320/248 754/382/248 752/381/248 688/318/248
f 689/321/251 753/249/251 755/164/251 691/323/251
f 692/322/250 756/383/250 754/382/250 690/320/250
f 691/323/253 755/164/253 757/384/253 693/325/253
f 694/324/252 758/385/252 756/383/252 692/322/252
f 693/325/255 757/384/255 759/386/255 695/327/255
f 696/326/254 760/387/254 758/385/254 694/324/254
f 695/327/257 759/386/257 761/388/257 697/345/257
f 698/344/256 762/389/256 760/387/256 696/326/256
f 697/345/259 761/388/259 731/390/259 667/347/259
f 668/346/258 734/391/258 762/389/258 698/344/258
f 764/392/158 732/395/158 731/394/158 763/393/158
f 766/396/155 734/399/155 733/398/155 765/397/155
f 767/400/158 735/401/158 732/395/158 764/392/158
f 765/397/155 733/398/155 736/403/155 768/402/155
f 769/404/158 737/405/158 735/401/158 767/400/158
f 768/402/155 736/403/155 738/407/155 770/406/155
f 771/408/158 739/409/158 737/405/158 769/404/158
f 770/406/155 738/407/155 740/411/155 772/410/155
f 773/412/158 741/413/158 739/409/158 771/408/158
f 772/410/155 740/411/155 742/415/155 774/414/155
f 775/416/158 743/417/158 741/413/158 773/412/158
f 774/414/155 742/415/155 744/419/155 776/418/155
f 777/420/158 745/421/158 743/417/158 775/416/158
f 776/418/155 744/419/155 746/423/155 778/422/155
f 779/424/158 747/425/158 745/421/158 777/420/158
f 778/422/155 746/423/155 748/427/155 780/426/155
f 781/428/158 749/429/158 747/425/158 779/424/158
f 780/426/155 748/427/155 750/431/155 782/430/155
f 783/432/158 751/433/158 749/429/158 781/428/158
f 782/430/155 750/431/155 752/435/155 784/434/155
f 785/436/158 753/437/158 751/433/158 783/432/158
f 784/434/155 752/435/155 754/439/155 786/438/155
f 787/440/158 755/441/158 753/437/158 785/436/158
f 786/438/155 754/439/155 756/443/155 788/442/155
f 789/444/158 757/445/158 755/441/158 787/440/158
f 788/442/155 756/443/155 758/447/155 790/446/155
f 791/448/158 759/449/158 757/445/158 789/444/158
f 790/446/155 758/447/155 760/451/155 792/450/155
f 793/452/158 761/453/158 759/449/158 791/448/158
f 792/450/155 760/451/155 762/455/155 794/454/155
f 763/393/158 731/394/158 761/453/158 793/452/158
f 794/454/155 762/455/155 734/399/155 766/396/155
f 700/349/261 764/392/261 763/393/261 699/348/261
f 702/329/260 766/396/260 765/397/260 701/328/260
f 703/350/263 767/400/263 764/392/263 700/349/263
f 701/328/262 765/397/262 768/402/262 704/343/262
f 705/351/265 769/404/265 767/400/265 703/350/265
f 704/343/264 768/402/264 770/406/264 706/342/264
f 707/352/267 771/408/267 769/404/267 705/351/267
f 706/342/266 770/406/266 772/410/266 708/341/266
f 709/353/269 773/412/269 771/408/269 707/352/269
f 708/341/268 772/410/268 774/414/268 710/340/268
f 711/354/271 775/416/271 773/412/271 709/353/271
f 710/340/270 774/414/270 776/418/270 712/339/270
f 713/355/273 777/420/273 775/416/273 711/354/273
f 712/339/272 776/418/272 778/422/272 714/338/272
f 715/356/275 779/424/275 777/420/275 713/355/275
f 714/338/274 778/422/274 780/426/274 716/337/274
f 717/357/277 781/428/277 779/424/277 715/356/277
f 716/337/276 780/426/276 782/430/276 718/336/276
f 719/358/279 783/432/279 781/428/279 717/357/279
f 718/336/278 782/430/278 784/434/278 720/335/278
f 721/359/281 785/436/281 783/432/281 719/358/281
f 720/335/280 784/434/280 786/438/280 722/334/280
f 723/360/283 787/440/283 785/436/283 721/359/283
f 722/334/282 786/438/282 788/442/282 724/333/282
f 725/361/285 789/444/285 787/440/285 723/360/285
f 724/333/284 788/442/284 790/446/284 726/332/284
f 727/362/287 791/448/287 789/444/287 725/361/287
f 726/332/286 790/446/286 792/450/286 728/331/286
f 729/363/289 793/452/289 791/448/289 727/362/289
f 728/331/288 792/450/288 794/454/288 730/330/288
f 699/348/291 763/393/291 793/452/291 729/363/291
f 730/330/290 794/454/290 766/396/290 702/329/290
